%TF.GenerationSoftware,Altium Limited,Altium Designer,23.9.2 (47)*%
G04 Layer_Color=32768*
%FSLAX45Y45*%
%MOMM*%
%TF.SameCoordinates,AC4A3DE0-5486-420A-B1FF-1F5B93080124*%
%TF.FilePolarity,Positive*%
%TF.FileFunction,Other,Assembly_Notes*%
%TF.Part,Single*%
G01*
G75*
%TA.AperFunction,NonConductor*%
%ADD34C,0.20000*%
%ADD96C,0.10000*%
%ADD97C,0.25400*%
D34*
X73322Y53322D02*
X40000Y86645D01*
Y119968D01*
X73322Y153290D01*
X123306Y136629D02*
X139968Y153290D01*
X173290D01*
X189951Y136629D01*
Y69984D01*
X173290Y53322D01*
X139968D01*
X123306Y69984D01*
Y136629D01*
X239936Y36661D02*
X256597Y53322D01*
Y69984D01*
X239936D01*
Y53322D01*
X256597D01*
X239936Y36661D01*
X223274Y20000D01*
X323242Y136629D02*
X339903Y153290D01*
X373226D01*
X389887Y136629D01*
Y69984D01*
X373226Y53322D01*
X339903D01*
X323242Y69984D01*
Y136629D01*
X423210Y53322D02*
X456532Y86645D01*
Y119968D01*
X423210Y153290D01*
D96*
X1592361Y410000D02*
G03*
X1592361Y410000I-22361J0D01*
G01*
X665000Y2075000D02*
X835000D01*
X665000Y1825000D02*
X835000D01*
Y2075000D01*
X665000Y1825000D02*
Y2075000D01*
X750000Y1900000D02*
Y2000000D01*
X700000Y1950000D02*
X800000D01*
X1795000Y1825000D02*
X1965000D01*
X1795000Y2075000D02*
X1965000D01*
X1795000Y1825000D02*
Y2075000D01*
X1965000Y1825000D02*
Y2075000D01*
X1880001Y1900000D02*
Y2000000D01*
X1830000Y1950000D02*
X1930000D01*
X840000Y1830000D02*
X1240000D01*
X840000Y2230000D02*
X1240000D01*
X840000Y1830000D02*
Y2230000D01*
X1240000Y1830000D02*
Y2230000D01*
X1040000Y1980000D02*
Y2080000D01*
X990000Y2030000D02*
X1090000D01*
X845000Y1905567D02*
X920567Y1830000D01*
X2600000Y1710000D02*
Y2330000D01*
X1980000Y1710000D02*
Y2330000D01*
Y1710000D02*
X2600000D01*
X1980000Y2330000D02*
X2600000D01*
X2240000Y2020000D02*
X2340000D01*
X2290000Y1970000D02*
Y2070000D01*
X2529406Y1712253D02*
X2598601Y1781448D01*
X1440000Y405000D02*
X1565000Y280000D01*
X1440000Y405000D02*
Y1200000D01*
Y280000D02*
X1565000D01*
X1440000D02*
Y400000D01*
X1540000Y280000D02*
X3045000D01*
X2230000Y690000D02*
Y790000D01*
X2180000Y740000D02*
X2280000D01*
X1440000Y1200000D02*
X3045000Y1200000D01*
Y280000D02*
Y1200000D01*
X620000Y1273289D02*
Y1593289D01*
X940000D01*
X730000Y1433289D02*
X830000D01*
X780000Y1383289D02*
Y1483289D01*
X940000Y1363289D02*
Y1593289D01*
X850000Y1273289D02*
X940000Y1363289D01*
X620000Y1273289D02*
X850000D01*
X940000D01*
Y1363289D01*
X610000Y763289D02*
Y1083289D01*
X930000D01*
X720000Y923289D02*
X820000D01*
X770000Y873289D02*
Y973289D01*
X930000Y853289D02*
Y1083289D01*
X840000Y763289D02*
X930000Y853289D01*
X610000Y763289D02*
X840000D01*
X930000D01*
Y853289D01*
X610000Y253289D02*
Y573289D01*
X930000D01*
X720000Y413289D02*
X820000D01*
X770000Y363289D02*
Y463289D01*
X930000Y343289D02*
Y573289D01*
X840000Y253289D02*
X930000Y343289D01*
X610000Y253289D02*
X840000D01*
X930000D01*
Y343289D01*
X1050000Y2352500D02*
Y2407500D01*
X1022500Y2380000D02*
X1077500D01*
X955000Y2425000D02*
X1145000D01*
Y2335000D02*
Y2425000D01*
X955000Y2335000D02*
Y2425000D01*
Y2335000D02*
X1145000D01*
X1660000Y2072500D02*
Y2127500D01*
X1632500Y2100000D02*
X1687500D01*
X1565000Y2145000D02*
X1755000D01*
Y2055000D02*
Y2145000D01*
X1565000Y2055000D02*
Y2145000D01*
Y2055000D02*
X1755000D01*
X622500Y1613289D02*
X677500D01*
X650000Y1585789D02*
Y1640789D01*
X695000Y1518289D02*
Y1708289D01*
X605000D02*
X695000D01*
X605000Y1518289D02*
X695000D01*
X605000D02*
Y1708289D01*
X1800000Y1502500D02*
Y1557500D01*
X1772500Y1530000D02*
X1827500D01*
X1705000Y1575000D02*
X1895000D01*
Y1485000D02*
Y1575000D01*
X1705000Y1485000D02*
Y1575000D01*
Y1485000D02*
X1895000D01*
X710000Y362500D02*
Y417500D01*
X682500Y390000D02*
X737500D01*
X615000Y435000D02*
X805000D01*
Y345000D02*
Y435000D01*
X615000Y345000D02*
Y435000D01*
Y345000D02*
X805000D01*
X2522500Y1560000D02*
X2577500D01*
X2550000Y1532500D02*
Y1587500D01*
X2595000Y1465000D02*
Y1655000D01*
X2505000D02*
X2595000D01*
X2505000Y1465000D02*
X2595000D01*
X2505000D02*
Y1655000D01*
X2600000Y1622500D02*
Y1677500D01*
X2572500Y1650000D02*
X2627500D01*
X2505000Y1695000D02*
X2695000D01*
Y1605000D02*
Y1695000D01*
X2505000Y1605000D02*
Y1695000D01*
Y1605000D02*
X2695000D01*
X2380000Y2242500D02*
Y2297500D01*
X2352500Y2270000D02*
X2407500D01*
X2285000Y2225000D02*
X2475000D01*
X2285000D02*
Y2315000D01*
X2475000Y2225000D02*
Y2315000D01*
X2285000D02*
X2475000D01*
X700000Y1642500D02*
Y1697500D01*
X672500Y1670000D02*
X727500D01*
X605000Y1715000D02*
X795000D01*
Y1625000D02*
Y1715000D01*
X605000Y1625000D02*
Y1715000D01*
Y1625000D02*
X795000D01*
X709999Y862498D02*
Y917499D01*
X682500Y889998D02*
X737499D01*
X614999Y934998D02*
X804999D01*
Y844999D02*
Y934998D01*
X614999Y844999D02*
Y934998D01*
Y844999D02*
X804999D01*
X950000Y1222500D02*
Y1277500D01*
X922500Y1250000D02*
X977500D01*
X855000Y1295000D02*
X1045000D01*
Y1205000D02*
Y1295000D01*
X855000Y1205000D02*
Y1295000D01*
Y1205000D02*
X1045000D01*
X950000Y1802500D02*
Y1857500D01*
X922500Y1830000D02*
X977500D01*
X855000Y1875000D02*
X1045000D01*
Y1785000D02*
Y1875000D01*
X855000Y1785000D02*
Y1875000D01*
Y1785000D02*
X1045000D01*
X700000Y1972500D02*
Y2027500D01*
X672500Y2000000D02*
X727500D01*
X605000Y2045000D02*
X795000D01*
Y1955000D02*
Y2045000D01*
X605000Y1955000D02*
Y2045000D01*
Y1955000D02*
X795000D01*
X1250000Y2352500D02*
Y2407500D01*
X1222500Y2380000D02*
X1277500D01*
X1155000Y2425000D02*
X1345000D01*
Y2335000D02*
Y2425000D01*
X1155000Y2335000D02*
Y2425000D01*
Y2335000D02*
X1345000D01*
X2722500Y1560000D02*
X2777500D01*
X2750000Y1532500D02*
Y1587500D01*
X2795000Y1465000D02*
Y1655000D01*
X2705000D02*
X2795000D01*
X2705000Y1465000D02*
X2795000D01*
X2705000D02*
Y1655000D01*
X2622500Y1560000D02*
X2677500D01*
X2650000Y1532500D02*
Y1587500D01*
X2695000Y1465000D02*
Y1655000D01*
X2605000D02*
X2695000D01*
X2605000Y1465000D02*
X2695000D01*
X2605000D02*
Y1655000D01*
X1560000Y2282500D02*
Y2337500D01*
X1532500Y2310000D02*
X1587500D01*
X1465000Y2355000D02*
X1655000D01*
Y2265000D02*
Y2355000D01*
X1465000Y2265000D02*
Y2355000D01*
Y2265000D02*
X1655000D01*
X950000Y1512500D02*
Y1567500D01*
X922500Y1540000D02*
X977500D01*
X855000Y1585000D02*
X1045000D01*
Y1495000D02*
Y1585000D01*
X855000Y1495000D02*
Y1585000D01*
Y1495000D02*
X1045000D01*
X1760000Y2182500D02*
Y2237500D01*
X1732500Y2210000D02*
X1787500D01*
X1665000Y2255000D02*
X1855000D01*
Y2165000D02*
Y2255000D01*
X1665000Y2165000D02*
Y2255000D01*
Y2165000D02*
X1855000D01*
X2252500Y1320000D02*
X2307500D01*
X2280000Y1292500D02*
Y1347500D01*
X2325000Y1225000D02*
Y1415000D01*
X2235000D02*
X2325000D01*
X2235000Y1225000D02*
X2325000D01*
X2235000D02*
Y1415000D01*
X2352500Y1320000D02*
X2407500D01*
X2380000Y1292500D02*
Y1347500D01*
X2425000Y1225000D02*
Y1415000D01*
X2335000D02*
X2425000D01*
X2335000Y1225000D02*
X2425000D01*
X2335000D02*
Y1415000D01*
X950000Y1002500D02*
Y1057500D01*
X922500Y1030000D02*
X977500D01*
X855000Y1075000D02*
X1045000D01*
Y985000D02*
Y1075000D01*
X855000Y985000D02*
Y1075000D01*
Y985000D02*
X1045000D01*
X950000Y2132500D02*
Y2187500D01*
X922500Y2160000D02*
X977500D01*
X855000Y2205000D02*
X1045000D01*
Y2115000D02*
Y2205000D01*
X855000Y2115000D02*
Y2205000D01*
Y2115000D02*
X1045000D01*
X690000Y2252500D02*
Y2307500D01*
X662500Y2280000D02*
X717500D01*
X595000Y2325000D02*
X785000D01*
Y2235000D02*
Y2325000D01*
X595000Y2235000D02*
Y2325000D01*
Y2235000D02*
X785000D01*
X2380000Y2342500D02*
Y2397500D01*
X2352500Y2370000D02*
X2407500D01*
X2285000Y2325000D02*
X2475000D01*
X2285000D02*
Y2415000D01*
X2475000Y2325000D02*
Y2415000D01*
X2285000D02*
X2475000D01*
X700000Y1382500D02*
Y1437500D01*
X672500Y1410000D02*
X727500D01*
X605000Y1455000D02*
X795000D01*
Y1365000D02*
Y1455000D01*
X605000Y1365000D02*
Y1455000D01*
Y1365000D02*
X795000D01*
X700000Y1542500D02*
Y1597500D01*
X672500Y1570000D02*
X727500D01*
X605000Y1525000D02*
X795000D01*
X605000D02*
Y1615000D01*
X795000Y1525000D02*
Y1615000D01*
X605000D02*
X795000D01*
X1460000Y2182500D02*
Y2237500D01*
X1432500Y2210000D02*
X1487500D01*
X1365000Y2255000D02*
X1555000D01*
Y2165000D02*
Y2255000D01*
X1365000Y2165000D02*
Y2255000D01*
Y2165000D02*
X1555000D01*
X700000Y1282500D02*
Y1337500D01*
X672500Y1310000D02*
X727500D01*
X605000Y1265000D02*
X795000D01*
X605000D02*
Y1355000D01*
X795000Y1265000D02*
Y1355000D01*
X605000D02*
X795000D01*
X1250000Y2252500D02*
Y2307500D01*
X1222500Y2280000D02*
X1277500D01*
X1155000Y2235000D02*
X1345000D01*
X1155000D02*
Y2325000D01*
X1345000Y2235000D02*
Y2325000D01*
X1155000D02*
X1345000D01*
X950000Y1412500D02*
Y1467500D01*
X922500Y1440000D02*
X977500D01*
X855000Y1395000D02*
X1045000D01*
X855000D02*
Y1485000D01*
X1045000Y1395000D02*
Y1485000D01*
X855000D02*
X1045000D01*
X710000Y762500D02*
Y817500D01*
X682500Y790000D02*
X737500D01*
X615000Y745000D02*
X805000D01*
X615000D02*
Y835000D01*
X805000Y745000D02*
Y835000D01*
X615000D02*
X805000D01*
X950000Y1122500D02*
Y1177500D01*
X922500Y1150000D02*
X977500D01*
X855000Y1195000D02*
X1045000D01*
Y1105000D02*
Y1195000D01*
X855000Y1105000D02*
Y1195000D01*
Y1105000D02*
X1045000D01*
X710000Y642500D02*
Y697500D01*
X682500Y670000D02*
X737500D01*
X615000Y715000D02*
X805000D01*
Y625000D02*
Y715000D01*
X615000Y625000D02*
Y715000D01*
Y625000D02*
X805000D01*
X1100000Y362500D02*
Y417500D01*
X1072500Y390000D02*
X1127500D01*
X1005000Y435000D02*
X1195000D01*
Y345000D02*
Y435000D01*
X1005000Y345000D02*
Y435000D01*
Y345000D02*
X1195000D01*
X710000Y542500D02*
Y597500D01*
X682500Y570000D02*
X737500D01*
X615000Y615000D02*
X805000D01*
Y525000D02*
Y615000D01*
X615000Y525000D02*
Y615000D01*
Y525000D02*
X805000D01*
X1660000Y1972500D02*
Y2027500D01*
X1632500Y2000000D02*
X1687500D01*
X1565000Y1955000D02*
X1755000D01*
X1565000D02*
Y2045000D01*
X1755000Y1955000D02*
Y2045000D01*
X1565000D02*
X1755000D01*
X950000Y902500D02*
Y957500D01*
X922500Y930000D02*
X977500D01*
X855000Y975000D02*
X1045000D01*
Y885000D02*
Y975000D01*
X855000Y885000D02*
Y975000D01*
Y885000D02*
X1045000D01*
X950000Y1702500D02*
Y1757500D01*
X922500Y1730000D02*
X977500D01*
X855000Y1775000D02*
X1045000D01*
Y1685000D02*
Y1775000D01*
X855000Y1685000D02*
Y1775000D01*
Y1685000D02*
X1045000D01*
X700000Y1882500D02*
Y1937500D01*
X672500Y1910000D02*
X727500D01*
X605000Y1955000D02*
X795000D01*
Y1865000D02*
Y1955000D01*
X605000Y1865000D02*
Y1955000D01*
Y1865000D02*
X795000D01*
X2600000Y1522500D02*
Y1577500D01*
X2572500Y1550000D02*
X2627500D01*
X2505000Y1595000D02*
X2695000D01*
Y1505000D02*
Y1595000D01*
X2505000Y1505000D02*
Y1595000D01*
Y1505000D02*
X2695000D01*
X950000Y2032500D02*
Y2087500D01*
X922500Y2060000D02*
X977500D01*
X855000Y2015000D02*
X1045000D01*
X855000D02*
Y2105000D01*
X1045000Y2015000D02*
Y2105000D01*
X855000D02*
X1045000D01*
X1560000Y1012500D02*
Y1067500D01*
X1532500Y1040000D02*
X1587500D01*
X1465000Y1085000D02*
X1655000D01*
Y995000D02*
Y1085000D01*
X1465000Y995000D02*
Y1085000D01*
Y995000D02*
X1655000D01*
X972500Y1490000D02*
X1027500D01*
X1000000Y1462500D02*
Y1517500D01*
X955000Y1395000D02*
Y1585000D01*
Y1395000D02*
X1045000D01*
X955000Y1585000D02*
X1045000D01*
Y1395000D02*
Y1585000D01*
X962500Y990000D02*
X1017500D01*
X990000Y962500D02*
Y1017500D01*
X945000Y895000D02*
Y1085000D01*
Y895000D02*
X1035000D01*
X945000Y1085000D02*
X1035000D01*
Y895000D02*
Y1085000D01*
X622500Y1123289D02*
X677500D01*
X650000Y1095790D02*
Y1150789D01*
X695000Y1028289D02*
Y1218289D01*
X605000D02*
X695000D01*
X605000Y1028289D02*
X695000D01*
X605000D02*
Y1218289D01*
X690000Y2152500D02*
Y2207500D01*
X662500Y2180000D02*
X717500D01*
X595000Y2135000D02*
X785000D01*
X595000D02*
Y2225000D01*
X785000Y2135000D02*
Y2225000D01*
X595000D02*
X785000D01*
X1822500Y1580000D02*
X1877500D01*
X1850000Y1552500D02*
Y1607500D01*
X1895000Y1485000D02*
Y1675000D01*
X1805000D02*
X1895000D01*
X1805000Y1485000D02*
X1895000D01*
X1805000D02*
Y1675000D01*
X962500Y370000D02*
X1017500D01*
X990000Y342500D02*
Y397500D01*
X945000Y275000D02*
Y465000D01*
Y275000D02*
X1035000D01*
X945000Y465000D02*
X1035000D01*
Y275000D02*
Y465000D01*
X612500Y613289D02*
X667500D01*
X640000Y585789D02*
Y640789D01*
X685000Y518289D02*
Y708289D01*
X595000D02*
X685000D01*
X595000Y518289D02*
X685000D01*
X595000D02*
Y708289D01*
X725000Y1713289D02*
X805000D01*
X725000Y1633289D02*
Y1713289D01*
X995000Y1593289D02*
Y1713289D01*
X725000Y1593289D02*
X995000D01*
X815000Y1653289D02*
X905000D01*
X860000Y1608289D02*
Y1698289D01*
X765576Y1713289D02*
X995000D01*
X725000Y1672713D02*
X765576Y1713289D01*
X725000Y1593289D02*
Y1672713D01*
X1090000Y2275000D02*
X1170000D01*
Y2355000D01*
Y2330459D02*
Y2485000D01*
X1114541Y2275000D02*
X1170000Y2330459D01*
X730000Y2275000D02*
X1114541D01*
X950000Y2330000D02*
Y2430000D01*
X900000Y2380000D02*
X1000000D01*
X730000Y2485000D02*
X1170000D01*
X730000Y2275000D02*
Y2485000D01*
X715000Y1093289D02*
Y1172884D01*
X755405Y1213289D01*
X985000D01*
Y1093289D02*
Y1213289D01*
X715000Y1093289D02*
X985000D01*
X805000Y1153289D02*
X895000D01*
X850000Y1108289D02*
Y1198289D01*
X715000Y1133289D02*
Y1213289D01*
X795000D01*
X715000Y583289D02*
Y662884D01*
X755405Y703289D01*
X985000D01*
Y583289D02*
Y703289D01*
X715000Y583289D02*
X985000D01*
X805000Y643289D02*
X895000D01*
X850000Y598289D02*
Y688289D01*
X715000Y623289D02*
Y703289D01*
X795000D01*
X1420000Y1590000D02*
X1520000D01*
X1470000Y1540000D02*
Y1640000D01*
X1575000Y1370000D02*
Y1810000D01*
X1365000Y1370000D02*
Y1810000D01*
X1575000D01*
X1365000Y1370000D02*
X1575000D01*
X704936Y2475000D02*
X705179Y2285000D01*
X614903D02*
X615364Y2475000D01*
X660000Y2352500D02*
Y2407500D01*
X632500Y2380000D02*
X687500D01*
X615364Y2475000D02*
X704936D01*
X614903Y2285000D02*
X705179D01*
X635000Y2174936D02*
X825000Y2175180D01*
X635000Y2085364D02*
X825000Y2084903D01*
X702500Y2130000D02*
X757500D01*
X730000Y2102500D02*
Y2157500D01*
X635000Y2085364D02*
Y2174936D01*
X825000Y2084903D02*
Y2175180D01*
X1200000Y1590000D02*
X1300000D01*
X1250000Y1540000D02*
Y1640000D01*
X1355000Y1370000D02*
Y1810000D01*
X1145000Y1370000D02*
Y1810000D01*
X1355000D01*
X1145000Y1370000D02*
X1355000D01*
X635000Y2274936D02*
X825000Y2275180D01*
X635000Y2185364D02*
X825000Y2184903D01*
X702500Y2230000D02*
X757500D01*
X730000Y2202500D02*
Y2257500D01*
X635000Y2185364D02*
Y2274936D01*
X825000Y2184903D02*
Y2275180D01*
X1704904Y1485000D02*
X1795180D01*
X1705364Y1675000D02*
X1794936D01*
X1722500Y1580000D02*
X1777500D01*
X1750001Y1552500D02*
Y1607500D01*
X1704904Y1485000D02*
X1705364Y1675000D01*
X1794936D02*
X1795180Y1485000D01*
X1775000Y1804936D02*
X1965000Y1805180D01*
X1775000Y1715364D02*
X1965000Y1714903D01*
X1842500Y1760000D02*
X1897500D01*
X1870000Y1732500D02*
Y1787500D01*
X1775000Y1715364D02*
Y1804936D01*
X1965000Y1714903D02*
Y1805180D01*
X2654820Y2275000D02*
X2655064Y2085000D01*
X2744636D02*
X2745097Y2275000D01*
X2700000Y2152500D02*
Y2207500D01*
X2672500Y2180000D02*
X2727500D01*
X2655064Y2085000D02*
X2744636D01*
X2654820Y2275000D02*
X2745097D01*
X2045000Y2364821D02*
X2235000Y2365064D01*
X2045000Y2455097D02*
X2235000Y2454636D01*
X2112500Y2410000D02*
X2167500D01*
X2140000Y2382500D02*
Y2437500D01*
X2235000Y2365064D02*
Y2454636D01*
X2045000Y2364821D02*
Y2455097D01*
X1784936Y2075000D02*
X1785180Y1885000D01*
X1694903D02*
X1695364Y2075000D01*
X1740000Y1952500D02*
Y2007500D01*
X1712500Y1980000D02*
X1767500D01*
X1695364Y2075000D02*
X1784936D01*
X1694903Y1885000D02*
X1785180D01*
X1725002Y2174936D02*
X1915002Y2175180D01*
X1725002Y2085364D02*
X1915002Y2084904D01*
X1792502Y2130001D02*
X1847502D01*
X1820002Y2102501D02*
Y2157501D01*
X1725002Y2085364D02*
Y2174936D01*
X1915002Y2084904D02*
Y2175180D01*
X1665000Y1224821D02*
X1855000Y1225064D01*
X1665000Y1315097D02*
X1855000Y1314636D01*
X1732500Y1270000D02*
X1787500D01*
X1760000Y1242500D02*
Y1297500D01*
X1855000Y1225064D02*
Y1314636D01*
X1665000Y1224821D02*
Y1315097D01*
X605000Y154821D02*
X795000Y155064D01*
X605000Y245097D02*
X795000Y244637D01*
X672500Y200000D02*
X727500D01*
X700000Y172500D02*
Y227500D01*
X795000Y155064D02*
Y244637D01*
X605000Y154821D02*
Y245097D01*
X1304821Y895000D02*
X1305064Y705000D01*
X1394637D02*
X1395097Y895000D01*
X1350000Y772500D02*
Y827500D01*
X1322500Y800000D02*
X1377500D01*
X1305064Y705000D02*
X1394637D01*
X1304821Y895000D02*
X1395097D01*
X773323Y1649943D02*
X764992Y1658273D01*
X748331D01*
X740000Y1649943D01*
Y1616620D01*
X748331Y1608289D01*
X764992D01*
X773323Y1616620D01*
X1091684Y2388353D02*
X1105013Y2375024D01*
X1131671D01*
X1145000Y2388353D01*
Y2441669D01*
X1131671Y2454998D01*
X1105013D01*
X1091684Y2441669D01*
X763323Y1149943D02*
X754992Y1158273D01*
X738331D01*
X730000Y1149943D01*
Y1116620D01*
X738331Y1108289D01*
X754992D01*
X763323Y1116620D01*
Y639942D02*
X754992Y648273D01*
X738331D01*
X730000Y639942D01*
Y606620D01*
X738331Y598289D01*
X754992D01*
X763323Y606620D01*
D97*
X0Y-76200D02*
Y76200D01*
X-76200Y0D02*
X76200D01*
%TF.MD5,b8d811945cdbfc970044e42648717dec*%
M02*
