%TF.GenerationSoftware,Altium Limited,Altium Designer,23.9.2 (47)*%
G04 Layer_Color=8388736*
%FSLAX45Y45*%
%MOMM*%
%TF.SameCoordinates,AC4A3DE0-5486-420A-B1FF-1F5B93080124*%
%TF.FilePolarity,Negative*%
%TF.FileFunction,Soldermask,Top*%
%TF.Part,Single*%
G01*
G75*
%TA.AperFunction,NonConductor*%
%ADD26C,0.15000*%
%TA.AperFunction,SMDPad,CuDef*%
G04:AMPARAMS|DCode=48|XSize=0.75mm|YSize=0.75mm|CornerRadius=0.225mm|HoleSize=0mm|Usage=FLASHONLY|Rotation=270.000|XOffset=0mm|YOffset=0mm|HoleType=Round|Shape=RoundedRectangle|*
%AMROUNDEDRECTD48*
21,1,0.75000,0.30000,0,0,270.0*
21,1,0.30000,0.75000,0,0,270.0*
1,1,0.45000,-0.15000,-0.15000*
1,1,0.45000,-0.15000,0.15000*
1,1,0.45000,0.15000,0.15000*
1,1,0.45000,0.15000,-0.15000*
%
%ADD48ROUNDEDRECTD48*%
%TA.AperFunction,ComponentPad*%
G04:AMPARAMS|DCode=49|XSize=1.85mm|YSize=2.25mm|CornerRadius=0.5mm|HoleSize=0mm|Usage=FLASHONLY|Rotation=270.000|XOffset=0mm|YOffset=0mm|HoleType=Round|Shape=RoundedRectangle|*
%AMROUNDEDRECTD49*
21,1,1.85000,1.25001,0,0,270.0*
21,1,0.85000,2.25000,0,0,270.0*
1,1,1.00000,-0.62500,-0.42500*
1,1,1.00000,-0.62500,0.42500*
1,1,1.00000,0.62500,0.42500*
1,1,1.00000,0.62500,-0.42500*
%
%ADD49ROUNDEDRECTD49*%
G04:AMPARAMS|DCode=50|XSize=1.85mm|YSize=2.25mm|CornerRadius=0mm|HoleSize=0mm|Usage=FLASHONLY|Rotation=270.000|XOffset=0mm|YOffset=0mm|HoleType=Round|Shape=Octagon|*
%AMOCTAGOND50*
4,1,8,1.12500,0.46250,1.12500,-0.46250,0.66250,-0.92500,-0.66250,-0.92500,-1.12500,-0.46250,-1.12500,0.46250,-0.66250,0.92500,0.66250,0.92500,1.12500,0.46250,0.0*
%
%ADD50OCTAGOND50*%

%TA.AperFunction,SMDPad,CuDef*%
G04:AMPARAMS|DCode=81|XSize=0.8mm|YSize=1.5mm|CornerRadius=0.2375mm|HoleSize=0mm|Usage=FLASHONLY|Rotation=270.000|XOffset=0mm|YOffset=0mm|HoleType=Round|Shape=RoundedRectangle|*
%AMROUNDEDRECTD81*
21,1,0.80000,1.02500,0,0,270.0*
21,1,0.32500,1.50000,0,0,270.0*
1,1,0.47500,-0.51250,-0.16250*
1,1,0.47500,-0.51250,0.16250*
1,1,0.47500,0.51250,0.16250*
1,1,0.47500,0.51250,-0.16250*
%
%ADD81ROUNDEDRECTD81*%
%ADD82R,0.29000X0.81000*%
G04:AMPARAMS|DCode=83|XSize=0.29mm|YSize=0.81mm|CornerRadius=0.0875mm|HoleSize=0mm|Usage=FLASHONLY|Rotation=180.000|XOffset=0mm|YOffset=0mm|HoleType=Round|Shape=RoundedRectangle|*
%AMROUNDEDRECTD83*
21,1,0.29000,0.63500,0,0,180.0*
21,1,0.11500,0.81000,0,0,180.0*
1,1,0.17500,-0.05750,0.31750*
1,1,0.17500,0.05750,0.31750*
1,1,0.17500,0.05750,-0.31750*
1,1,0.17500,-0.05750,-0.31750*
%
%ADD83ROUNDEDRECTD83*%
G04:AMPARAMS|DCode=84|XSize=0.29mm|YSize=0.81mm|CornerRadius=0.0875mm|HoleSize=0mm|Usage=FLASHONLY|Rotation=90.000|XOffset=0mm|YOffset=0mm|HoleType=Round|Shape=RoundedRectangle|*
%AMROUNDEDRECTD84*
21,1,0.29000,0.63500,0,0,90.0*
21,1,0.11500,0.81000,0,0,90.0*
1,1,0.17500,0.31750,0.05750*
1,1,0.17500,0.31750,-0.05750*
1,1,0.17500,-0.31750,-0.05750*
1,1,0.17500,-0.31750,0.05750*
%
%ADD84ROUNDEDRECTD84*%
G04:AMPARAMS|DCode=85|XSize=1.19mm|YSize=1.19mm|CornerRadius=0.3125mm|HoleSize=0mm|Usage=FLASHONLY|Rotation=90.000|XOffset=0mm|YOffset=0mm|HoleType=Round|Shape=RoundedRectangle|*
%AMROUNDEDRECTD85*
21,1,1.19000,0.56500,0,0,90.0*
21,1,0.56500,1.19000,0,0,90.0*
1,1,0.62500,0.28250,0.28250*
1,1,0.62500,0.28250,-0.28250*
1,1,0.62500,-0.28250,-0.28250*
1,1,0.62500,-0.28250,0.28250*
%
%ADD85ROUNDEDRECTD85*%
%TA.AperFunction,BGAPad,SMDef*%
%ADD86C,0.21000*%
%TA.AperFunction,BGAPad,CuDef*%
%ADD87C,0.29000*%
%ADD88C,0.75000*%
%TA.AperFunction,SMDPad,CuDef*%
G04:AMPARAMS|DCode=89|XSize=0.75mm|YSize=0.85mm|CornerRadius=0.225mm|HoleSize=0mm|Usage=FLASHONLY|Rotation=270.000|XOffset=0mm|YOffset=0mm|HoleType=Round|Shape=RoundedRectangle|*
%AMROUNDEDRECTD89*
21,1,0.75000,0.40000,0,0,270.0*
21,1,0.30000,0.85000,0,0,270.0*
1,1,0.45000,-0.20000,-0.15000*
1,1,0.45000,-0.20000,0.15000*
1,1,0.45000,0.20000,0.15000*
1,1,0.45000,0.20000,-0.15000*
%
%ADD89ROUNDEDRECTD89*%
G04:AMPARAMS|DCode=90|XSize=0.75mm|YSize=0.75mm|CornerRadius=0.225mm|HoleSize=0mm|Usage=FLASHONLY|Rotation=180.000|XOffset=0mm|YOffset=0mm|HoleType=Round|Shape=RoundedRectangle|*
%AMROUNDEDRECTD90*
21,1,0.75000,0.30000,0,0,180.0*
21,1,0.30000,0.75000,0,0,180.0*
1,1,0.45000,-0.15000,0.15000*
1,1,0.45000,0.15000,0.15000*
1,1,0.45000,0.15000,-0.15000*
1,1,0.45000,-0.15000,-0.15000*
%
%ADD90ROUNDEDRECTD90*%
%ADD91R,0.95000X0.95000*%
G04:AMPARAMS|DCode=92|XSize=0.95mm|YSize=0.95mm|CornerRadius=0.275mm|HoleSize=0mm|Usage=FLASHONLY|Rotation=90.000|XOffset=0mm|YOffset=0mm|HoleType=Round|Shape=RoundedRectangle|*
%AMROUNDEDRECTD92*
21,1,0.95000,0.40000,0,0,90.0*
21,1,0.40000,0.95000,0,0,90.0*
1,1,0.55000,0.20000,0.20000*
1,1,0.55000,0.20000,-0.20000*
1,1,0.55000,-0.20000,-0.20000*
1,1,0.55000,-0.20000,0.20000*
%
%ADD92ROUNDEDRECTD92*%
G04:AMPARAMS|DCode=93|XSize=1.25mm|YSize=1.25mm|CornerRadius=0.35mm|HoleSize=0mm|Usage=FLASHONLY|Rotation=270.000|XOffset=0mm|YOffset=0mm|HoleType=Round|Shape=RoundedRectangle|*
%AMROUNDEDRECTD93*
21,1,1.25000,0.55000,0,0,270.0*
21,1,0.55000,1.25000,0,0,270.0*
1,1,0.70000,-0.27500,-0.27500*
1,1,0.70000,-0.27500,0.27500*
1,1,0.70000,0.27500,0.27500*
1,1,0.70000,0.27500,-0.27500*
%
%ADD93ROUNDEDRECTD93*%
%ADD94R,1.25000X1.25000*%
G04:AMPARAMS|DCode=95|XSize=1.8mm|YSize=1.4mm|CornerRadius=0.3875mm|HoleSize=0mm|Usage=FLASHONLY|Rotation=180.000|XOffset=0mm|YOffset=0mm|HoleType=Round|Shape=RoundedRectangle|*
%AMROUNDEDRECTD95*
21,1,1.80000,0.62500,0,0,180.0*
21,1,1.02500,1.40000,0,0,180.0*
1,1,0.77500,-0.51250,0.31250*
1,1,0.77500,0.51250,0.31250*
1,1,0.77500,0.51250,-0.31250*
1,1,0.77500,-0.51250,-0.31250*
%
%ADD95ROUNDEDRECTD95*%
D26*
X2589966Y1700000D02*
Y1740000D01*
X2570000Y1720005D02*
X2610000D01*
X1989966Y2300000D02*
Y2340000D01*
X1970000Y2320005D02*
X2010001D01*
X1989966Y1700000D02*
Y1740000D01*
X1970000Y1720005D02*
X2010001D01*
X2589966Y2300000D02*
Y2340000D01*
X2570000Y2320005D02*
X2610000D01*
X2745034Y1200000D02*
X2815000D01*
X3040035Y1149995D02*
Y1220000D01*
X2745000Y279997D02*
X2814966D01*
X3040035Y260000D02*
Y329995D01*
X1420000Y1199995D02*
X1460000D01*
X1420000Y279995D02*
X1460000D01*
X1440000Y260000D02*
Y300000D01*
Y1180000D02*
Y1220000D01*
D48*
X680000Y2130000D02*
D03*
X780000D02*
D03*
X680000Y2230000D02*
D03*
X780000D02*
D03*
X1820000Y1760000D02*
D03*
X1920000D02*
D03*
X2190000Y2410000D02*
D03*
X2090000D02*
D03*
X1770002Y2130001D02*
D03*
X1870002D02*
D03*
X1810000Y1270000D02*
D03*
X1710000D02*
D03*
X750000Y200000D02*
D03*
X650000D02*
D03*
D49*
X454000Y294000D02*
D03*
Y548000D02*
D03*
X160000Y294000D02*
D03*
Y548000D02*
D03*
X454000Y802000D02*
D03*
Y1056000D02*
D03*
Y1310000D02*
D03*
Y1564000D02*
D03*
Y1818000D02*
D03*
Y2072000D02*
D03*
Y2326000D02*
D03*
X160000Y802000D02*
D03*
Y1056000D02*
D03*
Y1310000D02*
D03*
Y1564000D02*
D03*
Y1818000D02*
D03*
Y2072000D02*
D03*
D50*
Y2326000D02*
D03*
D81*
X750000Y1875000D02*
D03*
Y2025000D02*
D03*
X1880001Y2025000D02*
D03*
Y1875000D02*
D03*
D82*
X965000Y1885000D02*
D03*
D83*
X1015000D02*
D03*
X1065000D02*
D03*
X1115000D02*
D03*
Y2175000D02*
D03*
X1065000D02*
D03*
X1015000D02*
D03*
X965000D02*
D03*
D84*
X1185000Y1955000D02*
D03*
Y2005000D02*
D03*
Y2055000D02*
D03*
Y2105000D02*
D03*
X895000D02*
D03*
Y2055000D02*
D03*
Y2005000D02*
D03*
Y1955000D02*
D03*
D85*
X1040000Y2030000D02*
D03*
D86*
X2490000Y2220000D02*
D03*
X2540000Y1770000D02*
D03*
X2040000D02*
D03*
X2090000Y1820000D02*
D03*
Y2220000D02*
D03*
X2540000Y2270000D02*
D03*
X2040000D02*
D03*
D87*
X2490000Y1770000D02*
D03*
X2440000D02*
D03*
X2390000D02*
D03*
X2340000D02*
D03*
X2290000D02*
D03*
X2240000D02*
D03*
X2190000D02*
D03*
X2140000D02*
D03*
X2090000D02*
D03*
X2540000Y1820000D02*
D03*
X2440000D02*
D03*
X2390000D02*
D03*
X2340000D02*
D03*
X2290000D02*
D03*
X2240000D02*
D03*
X2190000D02*
D03*
X2140000D02*
D03*
X2040000D02*
D03*
X2540000Y1870000D02*
D03*
X2490000D02*
D03*
X2090000D02*
D03*
X2040000D02*
D03*
X2540000Y1920000D02*
D03*
X2490000D02*
D03*
X2390000D02*
D03*
X2340000D02*
D03*
X2290000D02*
D03*
X2240000D02*
D03*
X2190000D02*
D03*
X2090000D02*
D03*
X2040000D02*
D03*
X2540000Y1970000D02*
D03*
X2490000D02*
D03*
X2390000D02*
D03*
X2190000D02*
D03*
X2090000D02*
D03*
X2040000D02*
D03*
X2540000Y2020000D02*
D03*
X2490000D02*
D03*
X2390000D02*
D03*
X2190000D02*
D03*
X2090000D02*
D03*
X2040000D02*
D03*
X2540000Y2070000D02*
D03*
X2490000D02*
D03*
X2390000D02*
D03*
X2190000D02*
D03*
X2090000D02*
D03*
X2040000D02*
D03*
X2540000Y2120000D02*
D03*
X2490000D02*
D03*
X2390000D02*
D03*
X2340000D02*
D03*
X2290000D02*
D03*
X2240000D02*
D03*
X2190000D02*
D03*
X2090000D02*
D03*
X2040000D02*
D03*
X2540000Y2170000D02*
D03*
X2490000D02*
D03*
X2090000D02*
D03*
X2040000D02*
D03*
X2540000Y2220000D02*
D03*
X2440000D02*
D03*
X2390000D02*
D03*
X2340000D02*
D03*
X2290000D02*
D03*
X2240000D02*
D03*
X2190000D02*
D03*
X2140000D02*
D03*
X2040000D02*
D03*
X2490000Y2270000D02*
D03*
X2440000D02*
D03*
X2390000D02*
D03*
X2340000D02*
D03*
X2290000D02*
D03*
X2240000D02*
D03*
X2190000D02*
D03*
X2140000D02*
D03*
X2090000D02*
D03*
D88*
X2890000Y1070000D02*
D03*
X2780000D02*
D03*
X2560000D02*
D03*
X2450000D02*
D03*
X2340000D02*
D03*
X2230000D02*
D03*
X2120000D02*
D03*
X2010000D02*
D03*
X1900000D02*
D03*
X1790000D02*
D03*
X1680000D02*
D03*
X1570000D02*
D03*
X2560000Y960000D02*
D03*
X2450000D02*
D03*
X2340000D02*
D03*
X2230000D02*
D03*
X2120000D02*
D03*
X2010000D02*
D03*
X1900000D02*
D03*
X1790000D02*
D03*
X1680000D02*
D03*
X1570000D02*
D03*
X2560000Y850000D02*
D03*
X2450000D02*
D03*
X2340000D02*
D03*
X2230000D02*
D03*
X2120000D02*
D03*
X2010000D02*
D03*
X1900000D02*
D03*
X1790000D02*
D03*
X1680000D02*
D03*
X1570000D02*
D03*
X2560000Y740000D02*
D03*
X2450000D02*
D03*
X2340000D02*
D03*
X2230000D02*
D03*
X2120000D02*
D03*
X2010000D02*
D03*
X1900000D02*
D03*
X1790000D02*
D03*
X1680000D02*
D03*
X1570000D02*
D03*
X2560000Y630000D02*
D03*
X2450000D02*
D03*
X2340000D02*
D03*
X2230000D02*
D03*
X2120000D02*
D03*
X2010000D02*
D03*
X1900000D02*
D03*
X1790000D02*
D03*
X1680000D02*
D03*
X1570000D02*
D03*
X2560000Y520000D02*
D03*
X2450000D02*
D03*
X2340000D02*
D03*
X2230000D02*
D03*
X2120000D02*
D03*
X2010000D02*
D03*
X1900000D02*
D03*
X1790000D02*
D03*
X1680000D02*
D03*
X1570000D02*
D03*
X2890000Y410000D02*
D03*
X2780000D02*
D03*
X2560000D02*
D03*
X2450000D02*
D03*
X2340000D02*
D03*
X2230000D02*
D03*
X2120000D02*
D03*
X2010000D02*
D03*
X1900000D02*
D03*
X1790000D02*
D03*
X1680000D02*
D03*
X1570000D02*
D03*
D89*
X890000Y1338289D02*
D03*
Y1528289D02*
D03*
X670000Y1433289D02*
D03*
X880000Y828289D02*
D03*
Y1018289D02*
D03*
X660000Y923289D02*
D03*
X880000Y318289D02*
D03*
Y508289D02*
D03*
X660000Y413289D02*
D03*
D90*
X650000Y1563289D02*
D03*
Y1663289D02*
D03*
X2550000Y1510000D02*
D03*
Y1610000D02*
D03*
X2750000Y1510000D02*
D03*
Y1610000D02*
D03*
X2650000Y1510000D02*
D03*
Y1610000D02*
D03*
X2280000Y1270000D02*
D03*
Y1370000D02*
D03*
X2380000Y1270000D02*
D03*
Y1370000D02*
D03*
X1000000Y1540000D02*
D03*
Y1440000D02*
D03*
X990000Y1040000D02*
D03*
Y940000D02*
D03*
X650000Y1073289D02*
D03*
Y1173289D02*
D03*
X1850000Y1530000D02*
D03*
Y1630000D02*
D03*
X990000Y420000D02*
D03*
Y320000D02*
D03*
X640000Y563289D02*
D03*
Y663289D02*
D03*
X660000Y2430000D02*
D03*
Y2330000D02*
D03*
X1750001Y1530000D02*
D03*
Y1630000D02*
D03*
X2700000Y2130000D02*
D03*
Y2230000D02*
D03*
X1740000Y2030000D02*
D03*
Y1930000D02*
D03*
X1350000Y750000D02*
D03*
Y850000D02*
D03*
D91*
X780000Y1653289D02*
D03*
X770000Y1153289D02*
D03*
Y643289D02*
D03*
D92*
X940000Y1653289D02*
D03*
X930000Y1153289D02*
D03*
Y643289D02*
D03*
D93*
X800000Y2380000D02*
D03*
D94*
X1100000D02*
D03*
D95*
X1470000Y1730000D02*
D03*
Y1450000D02*
D03*
X1250000Y1730000D02*
D03*
Y1450000D02*
D03*
%TF.MD5,c5d7b4db92abb6030300eaf2331e3178*%
M02*
