%TF.GenerationSoftware,Altium Limited,Altium Designer,23.9.2 (47)*%
G04 Layer_Color=128*
%FSLAX45Y45*%
%MOMM*%
%TF.SameCoordinates,AC4A3DE0-5486-420A-B1FF-1F5B93080124*%
%TF.FilePolarity,Positive*%
%TF.FileFunction,Paste,Bot*%
%TF.Part,Single*%
G01*
G75*
%TA.AperFunction,SMDPad,CuDef*%
G04:AMPARAMS|DCode=51|XSize=0.53666mm|YSize=0.53666mm|CornerRadius=0.11833mm|HoleSize=0mm|Usage=FLASHONLY|Rotation=270.000|XOffset=0mm|YOffset=0mm|HoleType=Round|Shape=RoundedRectangle|*
%AMROUNDEDRECTD51*
21,1,0.53666,0.30000,0,0,270.0*
21,1,0.30000,0.53666,0,0,270.0*
1,1,0.23666,-0.15000,-0.15000*
1,1,0.23666,-0.15000,0.15000*
1,1,0.23666,0.15000,0.15000*
1,1,0.23666,0.15000,-0.15000*
%
%ADD51ROUNDEDRECTD51*%
D51*
X1000000Y2380000D02*
D03*
X1100000D02*
D03*
X1610000Y2100000D02*
D03*
X1710000D02*
D03*
X1750000Y1530000D02*
D03*
X1850000D02*
D03*
X660000Y390000D02*
D03*
X760000D02*
D03*
X2550000Y1650000D02*
D03*
X2650000D02*
D03*
X2430000Y2270000D02*
D03*
X2330000D02*
D03*
X650000Y1670000D02*
D03*
X750000D02*
D03*
X659999Y889998D02*
D03*
X759999D02*
D03*
X900000Y1250000D02*
D03*
X1000000D02*
D03*
X900000Y1830000D02*
D03*
X1000000D02*
D03*
X650000Y2000000D02*
D03*
X750000D02*
D03*
X1200000Y2380000D02*
D03*
X1300000D02*
D03*
X1510000Y2310000D02*
D03*
X1610000D02*
D03*
X900000Y1540000D02*
D03*
X1000000D02*
D03*
X1710000Y2210000D02*
D03*
X1810000D02*
D03*
X900000Y1030000D02*
D03*
X1000000D02*
D03*
X900000Y2160000D02*
D03*
X1000000D02*
D03*
X640000Y2280000D02*
D03*
X740000D02*
D03*
X2430000Y2370000D02*
D03*
X2330000D02*
D03*
X650000Y1410000D02*
D03*
X750000D02*
D03*
X750000Y1570000D02*
D03*
X650000D02*
D03*
X1410000Y2210000D02*
D03*
X1510000D02*
D03*
X750000Y1310000D02*
D03*
X650000D02*
D03*
X1300000Y2280000D02*
D03*
X1200000D02*
D03*
X1000000Y1440000D02*
D03*
X900000D02*
D03*
X760000Y790000D02*
D03*
X660000D02*
D03*
X900000Y1150000D02*
D03*
X1000000D02*
D03*
X660000Y670000D02*
D03*
X760000D02*
D03*
X1050000Y390000D02*
D03*
X1150000D02*
D03*
X660000Y570000D02*
D03*
X760000D02*
D03*
X1710000Y2000000D02*
D03*
X1610000D02*
D03*
X900000Y930000D02*
D03*
X1000000D02*
D03*
X900000Y1730000D02*
D03*
X1000000D02*
D03*
X650000Y1910000D02*
D03*
X750000D02*
D03*
X2550000Y1550000D02*
D03*
X2650000D02*
D03*
X1000000Y2060000D02*
D03*
X900000D02*
D03*
X1510000Y1040000D02*
D03*
X1610000D02*
D03*
X740000Y2180000D02*
D03*
X640000D02*
D03*
%TF.MD5,043dbde8d4db6b80337299710a4d1328*%
M02*
