%TF.GenerationSoftware,Altium Limited,Altium Designer,24.3.1 (35)*%
G04 Layer_Color=32896*
%FSLAX45Y45*%
%MOMM*%
%TF.SameCoordinates,49A6F1C3-9DA9-4727-8ECF-3BB51FF8743F*%
%TF.FilePolarity,Positive*%
%TF.FileFunction,Legend,Bot*%
%TF.Part,Single*%
G01*
G75*
%TA.AperFunction,NonConductor*%
%ADD41C,0.15000*%
%ADD47C,0.20000*%
%ADD48R,0.15001X0.20000*%
%ADD49R,0.15001X0.40000*%
%ADD50R,0.15001X0.60000*%
%ADD51R,0.15001X0.80000*%
%ADD52R,0.15001X1.00000*%
%ADD53R,0.14996X1.40000*%
%ADD54R,0.15001X1.40000*%
%ADD55R,0.15001X0.60005*%
%ADD56R,0.15001X1.20000*%
%ADD57R,0.14996X0.20000*%
%ADD58R,0.14996X0.60000*%
%ADD59R,0.14996X0.60005*%
G36*
X40000Y2329921D02*
X0Y2362079D01*
Y2297764D01*
X40000Y2329921D01*
D02*
G37*
G36*
X2085403Y1190000D02*
X2375000D01*
Y190000D01*
X2215614D01*
X2085403D01*
Y190000D01*
X1905001D01*
Y1190000D01*
X2085403D01*
Y1190000D01*
D02*
G37*
G36*
X2960000Y1213823D02*
Y1087270D01*
Y940000D01*
X2510000D01*
Y1087270D01*
Y1213823D01*
Y1340000D01*
X2960000D01*
Y1213823D01*
D02*
G37*
%LPC*%
G36*
X2192769Y1090622D02*
X2087308D01*
X2159393D01*
X2158707Y1090545D01*
X2157869D01*
X2156879Y1090469D01*
X2155812Y1090317D01*
X2154593Y1090164D01*
X2153373Y1090012D01*
X2152002Y1089783D01*
X2149259Y1089098D01*
X2146515Y1088259D01*
X2145220Y1087650D01*
X2143925Y1087040D01*
X2143848Y1086964D01*
X2143620Y1086888D01*
X2143315Y1086659D01*
X2142858Y1086431D01*
X2142324Y1086050D01*
X2141639Y1085669D01*
X2140191Y1084602D01*
X2138514Y1083306D01*
X2136762Y1081782D01*
X2135085Y1080030D01*
X2133561Y1078125D01*
X2133485Y1078049D01*
X2133409Y1077896D01*
X2133180Y1077591D01*
X2132952Y1077210D01*
X2132647Y1076677D01*
X2132266Y1076144D01*
X2131885Y1075458D01*
X2131504Y1074696D01*
X2130666Y1073019D01*
X2129828Y1071191D01*
X2129066Y1069209D01*
X2128532Y1067076D01*
Y1067000D01*
X2128456Y1066695D01*
X2128380Y1066314D01*
X2128304Y1065628D01*
X2128227Y1064866D01*
X2128075Y1063875D01*
X2127923Y1062809D01*
X2127846Y1061437D01*
X2127694Y1059989D01*
X2127542Y1058389D01*
X2127389Y1056560D01*
X2127313Y1054579D01*
X2127237Y1052445D01*
X2127161Y1050159D01*
X2127084Y1047645D01*
Y1031186D01*
X2087308D01*
Y1009926D01*
X2192769D01*
Y1047111D01*
X2192693Y1048712D01*
Y1050464D01*
X2192616Y1052369D01*
X2192540Y1054427D01*
X2192388Y1058694D01*
X2192235Y1060827D01*
X2192083Y1062885D01*
X2191931Y1064790D01*
X2191702Y1066542D01*
X2191473Y1068066D01*
X2191321Y1068676D01*
X2191169Y1069286D01*
Y1069362D01*
X2191016Y1069667D01*
X2190864Y1070200D01*
X2190711Y1070810D01*
X2190407Y1071572D01*
X2190026Y1072486D01*
X2189568Y1073477D01*
X2188959Y1074620D01*
X2188349Y1075763D01*
X2187587Y1076982D01*
X2186749Y1078201D01*
X2185835Y1079496D01*
X2184768Y1080792D01*
X2183549Y1082087D01*
X2182253Y1083306D01*
X2180805Y1084449D01*
X2180729Y1084526D01*
X2180424Y1084754D01*
X2179967Y1085059D01*
X2179358Y1085440D01*
X2178596Y1085897D01*
X2177605Y1086431D01*
X2176538Y1086964D01*
X2175243Y1087574D01*
X2173871Y1088107D01*
X2172347Y1088640D01*
X2170671Y1089174D01*
X2168842Y1089631D01*
X2166861Y1090088D01*
X2164803Y1090393D01*
X2162594Y1090545D01*
X2160308Y1090622D01*
X2192769D01*
D02*
G37*
G36*
X2194521Y992019D02*
D01*
Y949880D01*
X2194445Y950414D01*
Y951023D01*
X2194369Y951785D01*
X2194293Y953462D01*
X2194064Y955367D01*
X2193759Y957424D01*
X2193455Y959710D01*
X2192997Y962072D01*
X2192388Y964511D01*
X2191702Y967025D01*
X2190864Y969540D01*
X2189797Y971902D01*
X2188654Y974264D01*
X2187282Y976398D01*
X2185758Y978379D01*
X2185682Y978531D01*
X2185377Y978836D01*
X2184844Y979293D01*
X2184158Y979979D01*
X2183320Y980741D01*
X2182253Y981579D01*
X2181034Y982494D01*
X2179586Y983484D01*
X2178062Y984475D01*
X2176310Y985389D01*
X2174405Y986304D01*
X2172347Y987066D01*
X2170137Y987828D01*
X2167775Y988361D01*
X2165261Y988742D01*
X2162594Y988971D01*
X2161679Y967711D01*
X2161755D01*
X2162060Y967635D01*
X2162441Y967559D01*
X2162975Y967406D01*
X2163660Y967254D01*
X2164422Y967025D01*
X2165261Y966797D01*
X2166175Y966492D01*
X2168080Y965654D01*
X2169985Y964663D01*
X2171814Y963368D01*
X2172652Y962682D01*
X2173338Y961844D01*
X2173414Y961767D01*
X2173490Y961615D01*
X2173643Y961386D01*
X2173871Y961005D01*
X2174176Y960548D01*
X2174481Y959939D01*
X2174786Y959253D01*
X2175167Y958491D01*
X2175471Y957576D01*
X2175776Y956586D01*
X2176081Y955443D01*
X2176386Y954224D01*
X2176614Y952928D01*
X2176767Y951557D01*
X2176919Y949956D01*
Y947442D01*
X2176843Y946832D01*
X2176767Y946070D01*
X2176691Y945156D01*
X2176614Y944165D01*
X2176462Y943022D01*
X2176005Y940736D01*
X2175319Y938298D01*
X2174862Y937079D01*
X2174328Y935936D01*
X2173719Y934869D01*
X2173033Y933802D01*
X2172957Y933650D01*
X2172576Y933269D01*
X2172042Y932735D01*
X2171280Y932126D01*
X2170366Y931516D01*
X2169299Y930983D01*
X2168004Y930602D01*
X2167318Y930525D01*
X2166556Y930449D01*
X2166480D01*
X2166404D01*
X2165946Y930525D01*
X2165261Y930602D01*
X2164346Y930830D01*
X2163356Y931211D01*
X2162289Y931745D01*
X2161222Y932507D01*
X2160155Y933573D01*
Y933650D01*
X2160003Y933802D01*
X2159850Y934031D01*
X2159546Y934488D01*
X2159241Y935021D01*
X2158860Y935707D01*
X2158479Y936545D01*
X2158022Y937536D01*
X2157488Y938755D01*
X2156955Y940127D01*
X2156345Y941727D01*
X2155736Y943556D01*
X2155050Y945613D01*
X2154440Y947823D01*
X2153754Y950414D01*
X2153069Y953157D01*
Y953233D01*
X2152992Y953309D01*
Y953538D01*
X2152916Y953843D01*
X2152688Y954605D01*
X2152459Y955671D01*
X2152078Y956967D01*
X2151697Y958491D01*
X2151240Y960091D01*
X2150783Y961844D01*
X2150173Y963672D01*
X2149640Y965577D01*
X2148344Y969387D01*
X2147658Y971216D01*
X2146896Y972969D01*
X2146211Y974645D01*
X2145449Y976093D01*
X2145372Y976169D01*
X2145296Y976398D01*
X2145068Y976779D01*
X2144763Y977312D01*
X2144306Y977922D01*
X2143848Y978684D01*
X2143315Y979446D01*
X2142629Y980360D01*
X2141943Y981275D01*
X2141105Y982189D01*
X2140267Y983180D01*
X2139276Y984170D01*
X2137143Y986075D01*
X2135924Y986913D01*
X2134704Y987752D01*
X2134628Y987828D01*
X2134400Y987904D01*
X2134019Y988133D01*
X2133485Y988437D01*
X2132799Y988742D01*
X2132037Y989123D01*
X2131123Y989504D01*
X2130056Y989885D01*
X2128913Y990266D01*
X2127618Y990647D01*
X2126246Y991028D01*
X2124798Y991333D01*
X2123198Y991638D01*
X2121522Y991866D01*
X2119769Y991943D01*
X2117940Y992019D01*
X2194521D01*
X2117026D01*
X2116416Y991943D01*
X2115578Y991866D01*
X2114664Y991714D01*
X2113597Y991562D01*
X2112454Y991409D01*
X2111159Y991104D01*
X2109787Y990800D01*
X2108415Y990342D01*
X2106968Y989885D01*
X2105444Y989276D01*
X2103920Y988590D01*
X2102472Y987828D01*
X2100948Y986913D01*
X2100872Y986837D01*
X2100643Y986685D01*
X2100186Y986380D01*
X2099652Y985999D01*
X2099043Y985466D01*
X2098281Y984856D01*
X2097443Y984094D01*
X2096528Y983256D01*
X2095614Y982265D01*
X2094623Y981198D01*
X2093633Y980055D01*
X2092718Y978760D01*
X2091728Y977388D01*
X2090813Y975941D01*
X2089975Y974340D01*
X2089213Y972664D01*
X2089137Y972588D01*
X2089061Y972283D01*
X2088832Y971750D01*
X2088603Y970988D01*
X2088299Y970149D01*
X2087994Y969083D01*
X2087689Y967787D01*
X2087308Y966416D01*
X2086927Y964815D01*
X2086622Y963063D01*
X2086317Y961158D01*
X2086013Y959177D01*
X2085784Y957043D01*
X2085555Y954757D01*
X2085479Y952319D01*
X2085403Y949813D01*
Y948431D01*
X2085479Y947899D01*
Y947213D01*
X2085555Y946527D01*
X2085708Y944851D01*
X2085860Y942870D01*
X2086165Y940736D01*
X2086546Y938450D01*
X2087079Y936012D01*
X2087689Y933497D01*
X2088375Y930906D01*
X2089289Y928392D01*
X2090356Y925877D01*
X2091575Y923439D01*
X2093023Y921153D01*
X2094623Y919019D01*
X2094699Y918867D01*
X2095080Y918562D01*
X2095614Y918029D01*
X2096376Y917343D01*
X2097290Y916505D01*
X2098509Y915514D01*
X2099881Y914523D01*
X2101481Y913457D01*
X2103234Y912314D01*
X2105291Y911247D01*
X2107501Y910180D01*
X2109863Y909189D01*
X2112530Y908199D01*
X2115350Y907437D01*
X2118398Y906751D01*
X2121598Y906294D01*
X2123579Y927020D01*
X2123427D01*
X2123122Y927096D01*
X2122589Y927249D01*
X2121903Y927401D01*
X2120988Y927630D01*
X2119998Y927935D01*
X2118931Y928239D01*
X2117788Y928620D01*
X2115273Y929687D01*
X2113978Y930297D01*
X2112683Y930983D01*
X2111463Y931745D01*
X2110320Y932583D01*
X2109254Y933573D01*
X2108263Y934564D01*
X2108187Y934640D01*
X2108034Y934869D01*
X2107806Y935174D01*
X2107501Y935631D01*
X2107120Y936164D01*
X2106739Y936926D01*
X2106282Y937688D01*
X2105825Y938679D01*
X2105367Y939669D01*
X2104910Y940889D01*
X2104529Y942108D01*
X2104148Y943479D01*
X2103843Y945003D01*
X2103615Y946604D01*
X2103462Y948280D01*
X2103386Y950033D01*
Y951023D01*
X2103462Y951709D01*
X2103539Y952547D01*
X2103615Y953538D01*
X2103767Y954681D01*
X2103920Y955824D01*
X2104453Y958338D01*
X2104834Y959634D01*
X2105215Y960929D01*
X2105748Y962148D01*
X2106282Y963368D01*
X2106968Y964511D01*
X2107730Y965501D01*
X2107806Y965577D01*
X2107958Y965730D01*
X2108187Y965958D01*
X2108492Y966339D01*
X2108949Y966720D01*
X2109406Y967178D01*
X2110016Y967635D01*
X2110625Y968168D01*
X2112149Y969083D01*
X2113826Y969921D01*
X2114816Y970302D01*
X2115731Y970530D01*
X2116797Y970683D01*
X2117864Y970759D01*
X2117940D01*
X2118017D01*
X2118474D01*
X2119160Y970683D01*
X2120074Y970454D01*
X2121065Y970226D01*
X2122131Y969845D01*
X2123198Y969311D01*
X2124189Y968549D01*
X2124341Y968473D01*
X2124646Y968092D01*
X2125103Y967559D01*
X2125789Y966797D01*
X2126475Y965730D01*
X2127313Y964358D01*
X2128075Y962758D01*
X2128456Y961844D01*
X2128837Y960853D01*
Y960777D01*
X2128913Y960701D01*
X2128989Y960396D01*
X2129066Y960091D01*
X2129218Y959558D01*
X2129447Y958948D01*
X2129675Y958186D01*
X2129904Y957348D01*
X2130209Y956281D01*
X2130513Y955062D01*
X2130894Y953690D01*
X2131352Y952090D01*
X2131809Y950337D01*
X2132266Y948356D01*
X2132799Y946146D01*
X2133409Y943784D01*
Y943708D01*
X2133485Y943556D01*
Y943327D01*
X2133638Y943022D01*
X2133714Y942641D01*
X2133866Y942184D01*
X2134171Y941041D01*
X2134552Y939593D01*
X2135085Y937993D01*
X2135695Y936240D01*
X2136305Y934412D01*
X2137067Y932430D01*
X2137829Y930449D01*
X2138667Y928392D01*
X2139581Y926487D01*
X2140572Y924582D01*
X2141639Y922829D01*
X2142705Y921229D01*
X2143848Y919781D01*
X2143925Y919705D01*
X2144229Y919400D01*
X2144763Y918867D01*
X2145372Y918257D01*
X2146211Y917571D01*
X2147277Y916733D01*
X2148420Y915819D01*
X2149792Y914981D01*
X2151240Y914066D01*
X2152840Y913152D01*
X2154593Y912314D01*
X2156421Y911628D01*
X2158403Y911018D01*
X2160536Y910485D01*
X2162746Y910180D01*
X2165032Y910104D01*
X2165108D01*
X2165413D01*
X2165794D01*
X2166404Y910180D01*
X2167089Y910256D01*
X2167928Y910332D01*
X2168918Y910485D01*
X2169985Y910637D01*
X2171052Y910942D01*
X2172271Y911171D01*
X2173490Y911552D01*
X2174786Y912009D01*
X2176157Y912542D01*
X2177453Y913152D01*
X2178824Y913838D01*
X2180120Y914600D01*
X2180196Y914676D01*
X2180424Y914828D01*
X2180805Y915057D01*
X2181263Y915438D01*
X2181872Y915895D01*
X2182558Y916505D01*
X2183244Y917190D01*
X2184082Y917952D01*
X2184920Y918867D01*
X2185835Y919857D01*
X2186673Y920924D01*
X2187587Y922067D01*
X2188425Y923363D01*
X2189264Y924734D01*
X2190102Y926182D01*
X2190788Y927782D01*
X2190864Y927858D01*
X2190940Y928163D01*
X2191169Y928697D01*
X2191397Y929306D01*
X2191626Y930144D01*
X2192007Y931135D01*
X2192312Y932278D01*
X2192693Y933573D01*
X2192997Y935021D01*
X2193378Y936621D01*
X2193683Y938298D01*
X2193912Y940127D01*
X2194217Y942108D01*
X2194369Y944165D01*
X2194445Y946299D01*
X2194521Y948509D01*
Y906294D01*
D01*
D01*
Y992019D01*
D02*
G37*
G36*
X2322979Y984513D02*
Y930106D01*
X2284956D01*
X2285108Y930183D01*
X2285413Y930564D01*
X2285946Y931021D01*
X2286632Y931783D01*
X2287470Y932621D01*
X2288308Y933688D01*
X2289299Y934983D01*
X2290290Y936355D01*
X2291280Y937879D01*
X2292271Y939555D01*
X2293185Y941384D01*
X2293947Y943365D01*
X2294633Y945423D01*
X2295166Y947556D01*
X2295471Y949842D01*
X2295624Y952204D01*
Y952814D01*
X2295547Y953576D01*
X2295471Y954567D01*
X2295319Y955710D01*
X2295090Y957157D01*
X2294785Y958681D01*
X2294328Y960358D01*
X2293795Y962187D01*
X2293185Y964015D01*
X2292347Y965920D01*
X2291356Y967902D01*
X2290213Y969807D01*
X2288842Y971788D01*
X2287242Y973617D01*
X2285489Y975369D01*
X2285337Y975445D01*
X2285032Y975750D01*
X2284422Y976207D01*
X2283584Y976817D01*
X2282593Y977503D01*
X2281298Y978265D01*
X2279774Y979103D01*
X2278098Y979941D01*
X2276116Y980779D01*
X2273983Y981618D01*
X2271544Y982380D01*
X2268954Y983065D01*
X2266134Y983675D01*
X2263162Y984132D01*
X2259886Y984437D01*
X2256457Y984513D01*
X2255161D01*
X2254552Y984437D01*
X2253942D01*
X2253256Y984361D01*
X2251580Y984208D01*
X2249675Y984056D01*
X2247618Y983751D01*
X2245332Y983370D01*
X2242969Y982837D01*
X2240455Y982227D01*
X2237940Y981465D01*
X2235502Y980551D01*
X2232987Y979484D01*
X2230625Y978265D01*
X2228339Y976817D01*
X2226282Y975141D01*
X2226129Y975064D01*
X2225824Y974683D01*
X2225291Y974226D01*
X2224605Y973464D01*
X2223843Y972550D01*
X2222929Y971483D01*
X2222014Y970264D01*
X2221024Y968816D01*
X2220033Y967292D01*
X2219119Y965539D01*
X2218204Y963634D01*
X2217442Y961653D01*
X2216757Y959520D01*
X2216223Y957310D01*
X2215918Y954948D01*
X2215766Y952509D01*
Y952547D01*
Y951900D01*
X2215842Y951366D01*
Y950833D01*
X2215918Y950071D01*
X2216071Y949309D01*
X2216147Y948471D01*
X2216604Y946489D01*
X2217138Y944280D01*
X2217976Y941917D01*
X2218433Y940774D01*
X2219043Y939555D01*
X2219119Y939479D01*
X2219195Y939250D01*
X2219424Y938946D01*
X2219652Y938488D01*
X2220033Y937955D01*
X2220414Y937345D01*
X2220948Y936583D01*
X2221481Y935821D01*
X2222853Y934145D01*
X2224529Y932316D01*
X2226434Y930411D01*
X2228720Y928659D01*
X2217519D01*
Y909913D01*
X2215766D01*
X2322979D01*
Y984513D01*
D02*
G37*
G36*
X2062939Y995753D02*
X1957097D01*
Y924887D01*
X1957250D01*
X1957555Y924963D01*
X1958164Y925039D01*
X1958926Y925191D01*
X1959841Y925344D01*
X1960984Y925572D01*
X1962203Y925801D01*
X1963574Y926182D01*
X1965098Y926563D01*
X1966699Y927096D01*
X1968299Y927630D01*
X1970051Y928239D01*
X1971804Y929001D01*
X1973633Y929840D01*
X1975385Y930754D01*
X1977214Y931745D01*
X1977290Y931821D01*
X1977671Y932049D01*
X1978205Y932430D01*
X1978967Y932888D01*
X1979881Y933573D01*
X1981024Y934488D01*
X1982396Y935555D01*
X1983920Y936774D01*
X1985672Y938222D01*
X1987577Y939822D01*
X1989635Y941727D01*
X1991921Y943784D01*
X1994359Y946146D01*
X1996874Y948661D01*
X1999617Y951480D01*
X2002513Y954528D01*
X2002589Y954605D01*
X2002665Y954681D01*
X2003046Y955138D01*
X2003732Y955824D01*
X2004570Y956738D01*
X2005637Y957805D01*
X2006780Y959024D01*
X2008075Y960320D01*
X2009447Y961767D01*
X2012342Y964587D01*
X2013714Y966035D01*
X2015162Y967330D01*
X2016457Y968625D01*
X2017676Y969692D01*
X2018819Y970607D01*
X2019734Y971292D01*
X2019810Y971369D01*
X2020039Y971445D01*
X2020343Y971673D01*
X2020801Y971978D01*
X2021410Y972283D01*
X2022020Y972588D01*
X2022782Y972969D01*
X2023620Y973426D01*
X2025525Y974188D01*
X2027582Y974798D01*
X2029868Y975331D01*
X2031011Y975407D01*
X2032154Y975483D01*
X2032231D01*
X2032459D01*
X2032764D01*
X2033297Y975407D01*
X2033831D01*
X2034440Y975331D01*
X2035964Y975026D01*
X2037641Y974569D01*
X2039393Y973959D01*
X2040994Y973045D01*
X2041832Y972435D01*
X2042518Y971826D01*
X2042594Y971750D01*
X2042670Y971673D01*
X2042822Y971445D01*
X2043127Y971140D01*
X2043356Y970759D01*
X2043661Y970302D01*
X2044042Y969768D01*
X2044346Y969235D01*
X2045032Y967787D01*
X2045642Y966035D01*
X2046023Y964053D01*
X2046099Y962910D01*
X2046175Y961767D01*
Y961158D01*
X2046099Y960701D01*
Y960167D01*
X2045947Y959558D01*
X2045718Y958110D01*
X2045261Y956510D01*
X2044575Y954757D01*
X2044118Y953995D01*
X2043661Y953157D01*
X2043051Y952395D01*
X2042365Y951633D01*
X2042289Y951557D01*
X2042213Y951480D01*
X2041984Y951252D01*
X2041603Y951023D01*
X2041222Y950718D01*
X2040689Y950414D01*
X2040079Y950109D01*
X2039393Y949728D01*
X2038555Y949347D01*
X2037641Y948966D01*
X2036574Y948585D01*
X2035431Y948280D01*
X2034136Y947975D01*
X2032764Y947670D01*
X2031316Y947518D01*
X2029716Y947366D01*
X2031697Y927249D01*
X2031773D01*
X2031926D01*
X2032154Y927325D01*
X2032459D01*
X2032840Y927401D01*
X2033297Y927477D01*
X2034440Y927706D01*
X2035812Y927935D01*
X2037336Y928316D01*
X2039089Y928773D01*
X2040917Y929306D01*
X2042899Y929992D01*
X2044880Y930754D01*
X2046861Y931668D01*
X2048842Y932735D01*
X2050747Y933878D01*
X2052500Y935250D01*
X2054176Y936774D01*
X2055624Y938450D01*
X2055700Y938526D01*
X2055929Y938907D01*
X2056310Y939441D01*
X2056767Y940127D01*
X2057300Y941117D01*
X2057910Y942184D01*
X2058596Y943556D01*
X2059282Y945003D01*
X2059967Y946604D01*
X2060653Y948432D01*
X2061263Y950414D01*
X2061796Y952471D01*
X2062253Y954757D01*
X2062634Y957119D01*
X2062863Y959634D01*
X2062939Y962225D01*
Y928392D01*
Y995753D01*
D02*
G37*
G36*
X1977290Y911094D02*
X1957097D01*
Y890901D01*
X1977290D01*
Y911094D01*
D02*
G37*
G36*
X2295624Y895283D02*
D01*
Y860079D01*
X2295547Y860993D01*
Y862136D01*
X2295471Y863431D01*
X2295395Y864879D01*
X2295243Y866403D01*
X2295090Y868003D01*
X2294862Y869680D01*
X2294252Y873033D01*
X2293947Y874633D01*
X2293490Y876233D01*
X2292957Y877681D01*
X2292423Y878976D01*
Y879052D01*
X2292271Y879281D01*
X2292118Y879586D01*
X2291814Y880043D01*
X2291509Y880576D01*
X2291128Y881186D01*
X2290213Y882634D01*
X2288994Y884158D01*
X2287623Y885682D01*
X2286022Y887130D01*
X2285184Y887739D01*
X2284270Y888273D01*
X2284194D01*
X2284041Y888425D01*
X2283736Y888501D01*
X2283279Y888730D01*
X2282746Y888882D01*
X2281984Y889111D01*
X2281146Y889416D01*
X2280155Y889644D01*
X2279012Y889873D01*
X2277640Y890178D01*
X2276193Y890406D01*
X2274516Y890559D01*
X2272687Y890787D01*
X2270706Y890863D01*
X2268496Y891016D01*
X2266134D01*
X2242588Y890711D01*
X2242512D01*
X2242131D01*
X2241598D01*
X2240912D01*
X2240074D01*
X2239159Y890787D01*
X2238093D01*
X2236950Y890863D01*
X2234511Y890940D01*
X2232073Y891092D01*
X2230854Y891168D01*
X2229711Y891321D01*
X2228720Y891473D01*
X2227729Y891625D01*
X2227653D01*
X2227501Y891702D01*
X2227272D01*
X2226891Y891854D01*
X2226434Y891930D01*
X2225901Y892083D01*
X2224681Y892464D01*
X2223157Y892921D01*
X2221405Y893607D01*
X2219500Y894369D01*
X2217519Y895283D01*
Y875319D01*
X2217595D01*
X2217900Y875166D01*
X2218357Y875014D01*
X2219043Y874785D01*
X2219881Y874480D01*
X2220871Y874099D01*
X2222091Y873718D01*
X2223462Y873337D01*
X2223538D01*
X2223767Y873261D01*
X2224072Y873185D01*
X2224453Y873033D01*
X2225215Y872804D01*
X2225520Y872728D01*
X2225824Y872652D01*
X2225748Y872575D01*
X2225596Y872423D01*
X2225367Y872118D01*
X2224986Y871737D01*
X2224605Y871280D01*
X2224072Y870670D01*
X2223538Y870061D01*
X2223005Y869299D01*
X2221786Y867699D01*
X2220490Y865794D01*
X2219347Y863736D01*
X2218281Y861526D01*
Y861450D01*
X2218204Y861298D01*
X2218052Y860917D01*
X2217900Y860536D01*
X2217671Y859926D01*
X2217519Y859317D01*
X2217290Y858555D01*
X2217061Y857793D01*
X2216757Y856878D01*
X2216528Y855888D01*
X2216147Y853754D01*
X2215842Y851392D01*
X2215766Y848953D01*
Y823579D01*
Y848420D01*
X2215842Y847810D01*
Y846972D01*
X2215995Y845982D01*
X2216071Y844839D01*
X2216299Y843619D01*
X2216604Y842172D01*
X2216909Y840724D01*
X2217366Y839200D01*
X2217823Y837676D01*
X2218433Y836152D01*
X2219195Y834628D01*
X2220033Y833104D01*
X2221024Y831656D01*
X2222167Y830361D01*
X2222243Y830284D01*
X2222472Y830056D01*
X2222853Y829751D01*
X2223310Y829294D01*
X2223919Y828760D01*
X2224681Y828227D01*
X2225596Y827617D01*
X2226586Y827008D01*
X2227729Y826322D01*
X2228949Y825712D01*
X2230244Y825179D01*
X2231692Y824646D01*
X2233216Y824188D01*
X2234816Y823884D01*
X2236569Y823655D01*
X2238321Y823579D01*
X2215766D01*
X2295624D01*
Y895283D01*
D02*
G37*
G36*
X2062939Y856383D02*
X1957097D01*
Y836190D01*
X2033221D01*
X2033069Y836037D01*
X2032764Y835656D01*
X2032231Y835047D01*
X2031545Y834209D01*
X2030707Y833142D01*
X2029716Y831846D01*
X2028573Y830399D01*
X2027430Y828722D01*
X2026211Y826893D01*
X2024915Y824912D01*
X2023620Y822779D01*
X2022401Y820493D01*
X2021182Y818054D01*
X2019962Y815463D01*
X2018896Y812796D01*
X2017905Y810053D01*
X2036269D01*
Y810129D01*
X2036422Y810434D01*
X2036574Y810815D01*
X2036803Y811425D01*
X2037107Y812187D01*
X2037412Y813025D01*
X2037869Y814016D01*
X2038403Y815159D01*
X2039089Y816378D01*
X2039774Y817673D01*
X2040536Y819121D01*
X2041451Y820569D01*
X2042441Y822169D01*
X2043508Y823769D01*
X2044727Y825446D01*
X2046023Y827198D01*
X2046099Y827274D01*
X2046328Y827579D01*
X2046785Y828113D01*
X2047318Y828722D01*
X2048004Y829484D01*
X2048842Y830322D01*
X2049757Y831237D01*
X2050823Y832304D01*
X2052043Y833294D01*
X2053338Y834361D01*
X2054710Y835428D01*
X2056234Y836495D01*
X2057758Y837485D01*
X2059434Y838400D01*
X2061187Y839238D01*
X2062939Y839924D01*
Y836380D01*
D01*
Y856383D01*
D02*
G37*
G36*
X2192769Y890444D02*
X2087308D01*
Y870708D01*
X2170290Y870632D01*
X2087308Y849753D01*
Y829256D01*
X2170290Y808453D01*
X2087308D01*
Y788717D01*
X2192769D01*
Y820569D01*
X2120760Y839619D01*
X2192769Y858440D01*
Y833142D01*
Y890444D01*
D02*
G37*
G36*
X2062939Y836304D02*
Y810053D01*
D01*
Y836304D01*
D02*
G37*
G36*
X2322065Y813825D02*
Y760866D01*
X2235349D01*
Y813825D01*
X2217519D01*
Y739606D01*
X2322065D01*
Y813825D01*
D02*
G37*
G36*
X2135619Y777211D02*
X2115426D01*
Y737511D01*
X2135619D01*
Y777211D01*
D02*
G37*
G36*
X2033526Y796642D02*
X1957097D01*
D01*
X2033526D01*
X1957097Y766314D01*
Y748103D01*
X2033526Y717318D01*
D01*
Y796642D01*
D02*
G37*
G36*
X2163737Y721814D02*
X2162517D01*
X2161908Y721737D01*
X2161146Y721661D01*
X2160308Y721585D01*
X2159393Y721509D01*
X2157336Y721204D01*
X2155050Y720747D01*
X2152611Y720061D01*
X2150173Y719223D01*
X2150097D01*
X2149868Y719070D01*
X2149563Y718918D01*
X2149030Y718766D01*
X2148497Y718461D01*
X2147811Y718080D01*
X2146973Y717699D01*
X2146134Y717242D01*
X2145144Y716708D01*
X2144077Y716099D01*
X2141791Y714727D01*
X2139353Y713051D01*
X2136762Y711146D01*
X2136686Y711069D01*
X2136533Y710993D01*
X2136305Y710765D01*
X2135924Y710460D01*
X2135390Y710003D01*
X2134781Y709469D01*
X2134095Y708860D01*
X2133333Y708098D01*
X2132418Y707259D01*
X2131428Y706269D01*
X2130285Y705202D01*
X2129066Y703983D01*
X2127770Y702687D01*
X2126399Y701240D01*
X2124875Y699639D01*
X2123274Y697887D01*
X2123198Y697811D01*
X2122893Y697506D01*
X2122436Y696972D01*
X2121827Y696363D01*
X2121141Y695601D01*
X2120379Y694686D01*
X2119464Y693772D01*
X2118550Y692781D01*
X2116569Y690724D01*
X2114664Y688667D01*
X2113749Y687752D01*
X2112987Y686990D01*
X2112225Y686228D01*
X2111616Y685695D01*
X2111463Y685619D01*
X2111159Y685314D01*
X2110549Y684780D01*
X2109863Y684247D01*
X2109025Y683561D01*
X2108034Y682875D01*
X2107044Y682190D01*
X2106053Y681580D01*
Y721814D01*
X2128326D01*
X2087308D01*
Y650948D01*
X2087460D01*
X2087765Y651024D01*
X2088375Y651100D01*
X2089137Y651252D01*
X2090051Y651405D01*
X2091194Y651633D01*
X2092413Y651862D01*
X2093785Y652243D01*
X2095309Y652624D01*
X2096909Y653157D01*
X2098509Y653691D01*
X2100262Y654300D01*
X2102015Y655062D01*
X2103843Y655901D01*
X2105596Y656815D01*
X2107425Y657806D01*
X2107501Y657882D01*
X2107882Y658110D01*
X2108415Y658491D01*
X2109177Y658949D01*
X2110092Y659634D01*
X2111235Y660549D01*
X2112606Y661616D01*
X2114130Y662835D01*
X2115883Y664283D01*
X2117788Y665883D01*
X2119845Y667788D01*
X2122131Y669845D01*
X2124570Y672207D01*
X2127084Y674722D01*
X2129828Y677541D01*
X2132723Y680589D01*
X2132799Y680666D01*
X2132876Y680742D01*
X2133257Y681199D01*
X2133942Y681885D01*
X2134781Y682799D01*
X2135847Y683866D01*
X2136990Y685085D01*
X2138286Y686381D01*
X2139657Y687828D01*
X2142553Y690648D01*
X2143925Y692096D01*
X2145372Y693391D01*
X2146668Y694686D01*
X2147887Y695753D01*
X2149030Y696668D01*
X2149944Y697353D01*
X2150021Y697430D01*
X2150249Y697506D01*
X2150554Y697734D01*
X2151011Y698039D01*
X2151621Y698344D01*
X2152230Y698649D01*
X2152992Y699030D01*
X2153831Y699487D01*
X2155736Y700249D01*
X2157793Y700859D01*
X2160079Y701392D01*
X2161222Y701468D01*
X2162365Y701544D01*
X2162441D01*
X2162670D01*
X2162975D01*
X2163508Y701468D01*
X2164041D01*
X2164651Y701392D01*
X2166175Y701087D01*
X2167851Y700630D01*
X2169604Y700020D01*
X2171204Y699106D01*
X2172042Y698496D01*
X2172728Y697887D01*
X2172804Y697811D01*
X2172881Y697734D01*
X2173033Y697506D01*
X2173338Y697201D01*
X2173566Y696820D01*
X2173871Y696363D01*
X2174252Y695829D01*
X2174557Y695296D01*
X2175243Y693848D01*
X2175852Y692096D01*
X2176233Y690114D01*
X2176310Y688971D01*
X2176386Y687828D01*
Y687219D01*
X2176310Y686762D01*
Y686228D01*
X2176157Y685619D01*
X2175929Y684171D01*
X2175471Y682571D01*
X2174786Y680818D01*
X2174328Y680056D01*
X2173871Y679218D01*
X2173262Y678456D01*
X2172576Y677694D01*
X2172500Y677618D01*
X2172423Y677541D01*
X2172195Y677313D01*
X2171814Y677084D01*
X2171433Y676779D01*
X2170899Y676475D01*
X2170290Y676170D01*
X2169604Y675789D01*
X2168766Y675408D01*
X2167851Y675027D01*
X2166785Y674646D01*
X2165642Y674341D01*
X2164346Y674036D01*
X2162975Y673731D01*
X2161527Y673579D01*
X2159927Y673427D01*
X2161908Y653310D01*
X2161984D01*
X2162136D01*
X2162365Y653386D01*
X2162670D01*
X2163051Y653462D01*
X2163508Y653538D01*
X2164651Y653767D01*
X2166023Y653996D01*
X2167547Y654377D01*
X2169299Y654834D01*
X2171128Y655367D01*
X2173109Y656053D01*
X2175090Y656815D01*
X2177072Y657729D01*
X2179053Y658796D01*
X2180958Y659939D01*
X2182710Y661311D01*
X2184387Y662835D01*
X2185835Y664511D01*
X2185911Y664587D01*
X2186139Y664968D01*
X2186520Y665502D01*
X2186978Y666188D01*
X2187511Y667178D01*
X2188121Y668245D01*
X2188806Y669617D01*
X2189492Y671064D01*
X2190178Y672665D01*
X2190864Y674493D01*
X2191473Y676475D01*
X2192007Y678532D01*
X2192464Y680818D01*
X2192845Y683180D01*
X2193074Y685695D01*
X2193150Y688286D01*
Y688971D01*
X2193074Y689810D01*
X2192997Y690876D01*
X2192921Y692172D01*
X2192693Y693696D01*
X2192464Y695372D01*
X2192083Y697201D01*
X2191626Y699106D01*
X2191092Y701163D01*
X2190407Y703221D01*
X2189568Y705202D01*
X2188578Y707259D01*
X2187511Y709241D01*
X2186216Y711069D01*
X2184692Y712822D01*
X2184615Y712898D01*
X2184311Y713203D01*
X2183853Y713660D01*
X2183168Y714194D01*
X2182329Y714879D01*
X2181415Y715641D01*
X2180196Y716480D01*
X2178900Y717318D01*
X2177453Y718156D01*
X2175929Y718994D01*
X2174176Y719756D01*
X2172347Y720442D01*
X2170366Y720975D01*
X2168232Y721433D01*
X2166023Y721737D01*
X2163737Y721814D01*
D02*
G37*
G36*
X2324732Y680247D02*
D01*
Y638108D01*
X2324656Y638641D01*
Y639251D01*
X2324580Y640013D01*
X2324503Y641689D01*
X2324275Y643594D01*
X2323970Y645652D01*
X2323665Y647938D01*
X2323208Y650300D01*
X2322598Y652738D01*
X2321913Y655253D01*
X2321074Y657768D01*
X2320008Y660130D01*
X2318865Y662492D01*
X2317493Y664626D01*
X2315969Y666607D01*
X2315893Y666759D01*
X2315588Y667064D01*
X2315055Y667521D01*
X2314369Y668207D01*
X2313531Y668969D01*
X2312464Y669807D01*
X2311245Y670722D01*
X2309797Y671712D01*
X2308273Y672703D01*
X2306520Y673617D01*
X2304615Y674532D01*
X2302558Y675294D01*
X2300348Y676056D01*
X2297986Y676589D01*
X2295471Y676970D01*
X2292804Y677199D01*
X2291890Y655939D01*
X2291966D01*
X2292271Y655863D01*
X2292652Y655786D01*
X2293185Y655634D01*
X2293871Y655482D01*
X2294633Y655253D01*
X2295471Y655024D01*
X2296386Y654720D01*
X2298291Y653881D01*
X2300196Y652891D01*
X2302024Y651595D01*
X2302863Y650910D01*
X2303548Y650071D01*
X2303625Y649995D01*
X2303701Y649843D01*
X2303853Y649614D01*
X2304082Y649233D01*
X2304387Y648776D01*
X2304691Y648166D01*
X2304996Y647481D01*
X2305377Y646719D01*
X2305682Y645804D01*
X2305987Y644814D01*
X2306292Y643671D01*
X2306596Y642451D01*
X2306825Y641156D01*
X2306977Y639784D01*
X2307130Y638184D01*
Y635670D01*
X2307054Y635060D01*
X2306977Y634298D01*
X2306901Y633384D01*
X2306825Y632393D01*
X2306673Y631250D01*
X2306215Y628964D01*
X2305530Y626526D01*
X2305072Y625306D01*
X2304539Y624163D01*
X2303929Y623097D01*
X2303244Y622030D01*
X2303167Y621877D01*
X2302786Y621496D01*
X2302253Y620963D01*
X2301491Y620353D01*
X2300577Y619744D01*
X2299510Y619210D01*
X2298214Y618829D01*
X2297529Y618753D01*
X2296767Y618677D01*
X2296690D01*
X2296614D01*
X2296157Y618753D01*
X2295471Y618829D01*
X2294557Y619058D01*
X2293566Y619439D01*
X2292499Y619972D01*
X2291433Y620734D01*
X2290366Y621801D01*
Y621877D01*
X2290213Y622030D01*
X2290061Y622258D01*
X2289756Y622716D01*
X2289451Y623249D01*
X2289070Y623935D01*
X2288689Y624773D01*
X2288232Y625764D01*
X2287699Y626983D01*
X2287165Y628354D01*
X2286556Y629955D01*
X2285946Y631783D01*
X2285260Y633841D01*
X2284651Y636051D01*
X2283965Y638641D01*
X2283279Y641385D01*
Y641461D01*
X2283203Y641537D01*
Y641766D01*
X2283127Y642070D01*
X2282898Y642832D01*
X2282670Y643899D01*
X2282289Y645195D01*
X2281908Y646719D01*
X2281450Y648319D01*
X2280993Y650071D01*
X2280384Y651900D01*
X2279850Y653805D01*
X2278555Y657615D01*
X2277869Y659444D01*
X2277107Y661197D01*
X2276421Y662873D01*
X2275659Y664321D01*
X2275583Y664397D01*
X2275507Y664626D01*
X2275278Y665007D01*
X2274973Y665540D01*
X2274516Y666150D01*
X2274059Y666912D01*
X2273526Y667674D01*
X2272840Y668588D01*
X2272154Y669502D01*
X2271316Y670417D01*
X2270478Y671407D01*
X2269487Y672398D01*
X2267353Y674303D01*
X2266134Y675141D01*
X2264915Y675979D01*
X2264839Y676056D01*
X2264610Y676132D01*
X2264229Y676360D01*
X2263696Y676665D01*
X2263010Y676970D01*
X2262248Y677351D01*
X2261334Y677732D01*
X2260267Y678113D01*
X2259124Y678494D01*
X2257828Y678875D01*
X2256457Y679256D01*
X2255009Y679561D01*
X2253409Y679866D01*
X2251732Y680094D01*
X2249980Y680170D01*
X2248151Y680247D01*
X2324732D01*
X2247237D01*
X2246627Y680170D01*
X2245789Y680094D01*
X2244874Y679942D01*
X2243808Y679789D01*
X2242665Y679637D01*
X2241369Y679332D01*
X2239998Y679027D01*
X2238626Y678570D01*
X2237178Y678113D01*
X2235654Y677503D01*
X2234130Y676818D01*
X2232682Y676056D01*
X2231158Y675141D01*
X2231082Y675065D01*
X2230854Y674913D01*
X2230396Y674608D01*
X2229863Y674227D01*
X2229253Y673693D01*
X2228491Y673084D01*
X2227653Y672322D01*
X2226739Y671484D01*
X2225824Y670493D01*
X2224834Y669426D01*
X2223843Y668283D01*
X2222929Y666988D01*
X2221938Y665616D01*
X2221024Y664168D01*
X2220186Y662568D01*
X2219424Y660892D01*
X2219347Y660816D01*
X2219271Y660511D01*
X2219043Y659977D01*
X2218814Y659215D01*
X2218509Y658377D01*
X2218204Y657310D01*
X2217900Y656015D01*
X2217519Y654643D01*
X2217138Y653043D01*
X2216833Y651291D01*
X2216528Y649386D01*
X2216223Y647404D01*
X2215995Y645271D01*
X2215766Y642985D01*
X2215690Y640546D01*
X2215614Y638032D01*
Y636660D01*
X2215690Y636127D01*
Y635441D01*
X2215766Y634755D01*
X2215918Y633079D01*
X2216071Y631098D01*
X2216376Y628964D01*
X2216757Y626678D01*
X2217290Y624240D01*
X2217900Y621725D01*
X2218585Y619134D01*
X2219500Y616620D01*
X2220567Y614105D01*
X2221786Y611667D01*
X2223234Y609381D01*
X2224834Y607247D01*
X2224910Y607095D01*
X2225291Y606790D01*
X2225824Y606256D01*
X2226586Y605571D01*
X2227501Y604732D01*
X2228720Y603742D01*
X2230092Y602751D01*
X2231692Y601684D01*
X2233444Y600541D01*
X2235502Y599475D01*
X2237712Y598408D01*
X2240074Y597417D01*
X2242741Y596427D01*
X2245560Y595665D01*
X2248608Y594979D01*
X2251809Y594522D01*
X2253790Y615248D01*
X2253637D01*
X2253333Y615324D01*
X2252799Y615477D01*
X2252113Y615629D01*
X2251199Y615858D01*
X2250208Y616162D01*
X2249142Y616467D01*
X2247999Y616848D01*
X2245484Y617915D01*
X2244189Y618525D01*
X2242893Y619210D01*
X2241674Y619972D01*
X2240531Y620811D01*
X2239464Y621801D01*
X2238474Y622792D01*
X2238397Y622868D01*
X2238245Y623097D01*
X2238016Y623401D01*
X2237712Y623859D01*
X2237331Y624392D01*
X2236950Y625154D01*
X2236492Y625916D01*
X2236035Y626907D01*
X2235578Y627897D01*
X2235121Y629116D01*
X2234740Y630336D01*
X2234359Y631707D01*
X2234054Y633231D01*
X2233825Y634831D01*
X2233673Y636508D01*
X2233597Y638260D01*
Y639251D01*
X2233673Y639937D01*
X2233749Y640775D01*
X2233825Y641766D01*
X2233978Y642909D01*
X2234130Y644052D01*
X2234664Y646566D01*
X2235045Y647862D01*
X2235426Y649157D01*
X2235959Y650376D01*
X2236492Y651595D01*
X2237178Y652738D01*
X2237940Y653729D01*
X2238016Y653805D01*
X2238169Y653958D01*
X2238397Y654186D01*
X2238702Y654567D01*
X2239159Y654948D01*
X2239617Y655405D01*
X2240226Y655863D01*
X2240836Y656396D01*
X2242360Y657310D01*
X2244036Y658149D01*
X2245027Y658530D01*
X2245941Y658758D01*
X2247008Y658911D01*
X2248075Y658987D01*
X2248151D01*
X2248227D01*
X2248684D01*
X2249370Y658911D01*
X2250285Y658682D01*
X2251275Y658453D01*
X2252342Y658072D01*
X2253409Y657539D01*
X2254399Y656777D01*
X2254552Y656701D01*
X2254857Y656320D01*
X2255314Y655786D01*
X2256000Y655024D01*
X2256685Y653958D01*
X2257524Y652586D01*
X2258286Y650986D01*
X2258667Y650071D01*
X2259048Y649081D01*
Y649005D01*
X2259124Y648928D01*
X2259200Y648624D01*
X2259276Y648319D01*
X2259429Y647785D01*
X2259657Y647176D01*
X2259886Y646414D01*
X2260114Y645576D01*
X2260419Y644509D01*
X2260724Y643290D01*
X2261105Y641918D01*
X2261562Y640318D01*
X2262019Y638565D01*
X2262477Y636584D01*
X2263010Y634374D01*
X2263620Y632012D01*
Y631936D01*
X2263696Y631783D01*
Y631555D01*
X2263848Y631250D01*
X2263924Y630869D01*
X2264077Y630412D01*
X2264382Y629269D01*
X2264763Y627821D01*
X2265296Y626221D01*
X2265906Y624468D01*
X2266515Y622639D01*
X2267277Y620658D01*
X2268039Y618677D01*
X2268877Y616620D01*
X2269792Y614715D01*
X2270782Y612810D01*
X2271849Y611057D01*
X2272916Y609457D01*
X2274059Y608009D01*
X2274135Y607933D01*
X2274440Y607628D01*
X2274973Y607095D01*
X2275583Y606485D01*
X2276421Y605799D01*
X2277488Y604961D01*
X2278631Y604047D01*
X2280003Y603208D01*
X2281450Y602294D01*
X2283051Y601380D01*
X2284803Y600541D01*
X2286632Y599856D01*
X2288613Y599246D01*
X2290747Y598713D01*
X2292957Y598408D01*
X2295243Y598332D01*
X2295319D01*
X2295624D01*
X2296005D01*
X2296614Y598408D01*
X2297300Y598484D01*
X2298138Y598560D01*
X2299129Y598713D01*
X2300196Y598865D01*
X2301262Y599170D01*
X2302482Y599398D01*
X2303701Y599779D01*
X2304996Y600237D01*
X2306368Y600770D01*
X2307663Y601380D01*
X2309035Y602065D01*
X2310330Y602827D01*
X2310406Y602904D01*
X2310635Y603056D01*
X2311016Y603285D01*
X2311473Y603666D01*
X2312083Y604123D01*
X2312769Y604732D01*
X2313454Y605418D01*
X2314293Y606180D01*
X2315131Y607095D01*
X2316045Y608085D01*
X2316883Y609152D01*
X2317798Y610295D01*
X2318636Y611590D01*
X2319474Y612962D01*
X2320312Y614410D01*
X2320998Y616010D01*
X2321074Y616086D01*
X2321151Y616391D01*
X2321379Y616924D01*
X2321608Y617534D01*
X2321836Y618372D01*
X2322217Y619363D01*
X2322522Y620506D01*
X2322903Y621801D01*
X2323208Y623249D01*
X2323589Y624849D01*
X2323894Y626526D01*
X2324122Y628354D01*
X2324427Y630336D01*
X2324580Y632393D01*
X2324656Y634527D01*
X2324732Y636736D01*
Y594522D01*
D01*
D01*
Y680247D01*
D02*
G37*
G36*
X2062558Y672665D02*
X1957097D01*
D01*
X2044727D01*
Y641423D01*
X1957097D01*
Y620163D01*
X2044727D01*
Y588845D01*
X2062558D01*
Y672665D01*
D02*
G37*
G36*
X2191397Y642794D02*
X2085479D01*
X2122055D01*
X2121369Y642718D01*
X2120455Y642642D01*
X2119312Y642566D01*
X2118017Y642413D01*
X2116493Y642185D01*
X2114892Y641880D01*
X2113140Y641423D01*
X2111235Y640965D01*
X2109330Y640356D01*
X2107349Y639594D01*
X2105367Y638679D01*
X2103386Y637689D01*
X2101405Y636546D01*
X2099424Y635174D01*
X2099271Y635022D01*
X2098814Y634717D01*
X2098128Y634107D01*
X2097214Y633269D01*
X2096223Y632279D01*
X2095004Y630983D01*
X2093785Y629459D01*
X2092490Y627783D01*
X2091118Y625878D01*
X2089899Y623744D01*
X2088680Y621382D01*
X2087689Y618867D01*
X2086775Y616124D01*
X2086089Y613152D01*
X2085632Y610028D01*
X2085555Y608352D01*
X2085479Y606675D01*
Y606066D01*
X2085555Y605304D01*
X2085632Y604237D01*
X2085708Y603018D01*
X2085860Y601570D01*
X2086165Y599970D01*
X2086470Y598217D01*
X2086851Y596388D01*
X2087384Y594483D01*
X2087994Y592502D01*
X2088756Y590521D01*
X2089670Y588540D01*
X2090661Y586559D01*
X2091880Y584654D01*
X2093252Y582901D01*
X2093328Y582825D01*
X2093633Y582520D01*
X2094090Y582063D01*
X2094699Y581453D01*
X2095461Y580691D01*
X2096452Y579929D01*
X2097519Y579015D01*
X2098814Y578100D01*
X2100262Y577110D01*
X2101862Y576195D01*
X2103539Y575281D01*
X2105444Y574367D01*
X2107425Y573605D01*
X2109635Y572919D01*
X2111844Y572309D01*
X2114283Y571928D01*
D01*
X2116416Y592045D01*
X2116340D01*
X2116112Y592121D01*
X2115731D01*
X2115273Y592274D01*
X2114740Y592350D01*
X2114054Y592502D01*
X2112530Y592959D01*
X2110778Y593645D01*
X2108949Y594560D01*
X2107196Y595626D01*
X2106358Y596312D01*
X2105596Y597074D01*
X2105520Y597150D01*
X2105444Y597303D01*
X2105215Y597531D01*
X2104986Y597836D01*
X2104682Y598217D01*
X2104377Y598751D01*
X2103615Y599894D01*
X2102853Y601341D01*
X2102243Y603018D01*
X2101786Y604923D01*
X2101710Y605913D01*
X2101634Y606904D01*
Y607514D01*
X2101710Y607971D01*
X2101786Y608504D01*
X2101938Y609114D01*
X2102243Y610638D01*
X2102853Y612314D01*
X2103310Y613152D01*
X2103767Y614067D01*
X2104377Y614981D01*
X2105063Y615896D01*
X2105825Y616734D01*
X2106739Y617572D01*
X2106815Y617648D01*
X2106968Y617801D01*
X2107272Y617953D01*
X2107730Y618258D01*
X2108263Y618563D01*
X2108949Y618944D01*
X2109711Y619401D01*
X2110625Y619782D01*
X2111692Y620163D01*
X2112835Y620620D01*
X2114130Y621001D01*
X2115502Y621306D01*
X2117026Y621611D01*
X2118702Y621839D01*
X2120455Y621915D01*
X2122360Y621992D01*
X2122436D01*
X2122817D01*
X2123274D01*
X2123960Y621915D01*
X2124798Y621839D01*
X2125713Y621763D01*
X2126703Y621611D01*
X2127846Y621458D01*
X2130209Y620925D01*
X2131428Y620544D01*
X2132647Y620163D01*
X2133866Y619629D01*
X2134933Y619020D01*
X2136000Y618334D01*
X2136990Y617572D01*
X2137067Y617496D01*
X2137219Y617343D01*
X2137448Y617115D01*
X2137752Y616810D01*
X2138133Y616353D01*
X2138514Y615819D01*
X2138972Y615210D01*
X2139429Y614524D01*
X2139886Y613762D01*
X2140343Y612924D01*
X2141105Y611019D01*
X2141410Y609876D01*
X2141639Y608809D01*
X2141791Y607590D01*
X2141867Y606294D01*
Y605913D01*
X2141791Y605456D01*
X2141715Y604847D01*
X2141639Y604085D01*
X2141486Y603170D01*
X2141258Y602180D01*
X2140877Y601113D01*
X2140496Y599894D01*
X2139962Y598674D01*
X2139353Y597379D01*
X2138591Y596007D01*
X2137752Y594712D01*
X2136686Y593340D01*
X2135543Y591969D01*
X2134171Y590673D01*
X2136533Y574367D01*
X2191397Y584730D01*
Y576653D01*
Y638260D01*
Y638146D01*
X2172500D01*
Y600046D01*
X2154516Y596769D01*
X2154593Y596846D01*
X2154669Y597074D01*
X2154821Y597455D01*
X2155050Y597912D01*
X2155278Y598598D01*
X2155583Y599284D01*
X2155888Y600122D01*
X2156269Y601037D01*
X2156574Y602027D01*
X2156879Y603170D01*
X2157412Y605456D01*
X2157793Y608047D01*
X2157945Y609342D01*
Y611247D01*
X2157869Y611933D01*
X2157793Y612848D01*
X2157641Y614067D01*
X2157412Y615362D01*
X2157107Y616886D01*
X2156726Y618486D01*
X2156193Y620239D01*
X2155583Y622068D01*
X2154745Y623973D01*
X2153831Y625878D01*
X2152688Y627859D01*
X2151392Y629764D01*
X2149868Y631593D01*
X2148116Y633422D01*
X2148039Y633498D01*
X2147658Y633803D01*
X2147125Y634260D01*
X2146363Y634869D01*
X2145372Y635631D01*
X2144153Y636393D01*
X2142782Y637232D01*
X2141258Y638146D01*
X2139505Y638984D01*
X2137600Y639822D01*
X2135466Y640661D01*
X2133257Y641346D01*
X2130818Y641956D01*
X2128227Y642413D01*
X2125560Y642718D01*
X2122665Y642794D01*
X2191397D01*
D02*
G37*
G36*
X2322979Y581872D02*
Y579891D01*
X2305149D01*
Y522970D01*
X2281755D01*
Y575929D01*
X2263924D01*
Y522970D01*
X2235349D01*
Y581872D01*
X2217519D01*
Y501710D01*
X2322979D01*
Y581872D01*
D02*
G37*
G36*
X2192769Y558517D02*
X2087308D01*
X2174938D01*
Y507463D01*
X2149944D01*
Y551507D01*
X2132114D01*
Y507463D01*
X2087308D01*
Y486203D01*
X2192769D01*
Y558517D01*
D02*
G37*
G36*
X2064311Y576653D02*
X1955269D01*
D01*
X1971575D01*
X1971499Y576576D01*
X1971271Y576348D01*
X1970966Y575967D01*
X1970509Y575433D01*
X1969899Y574748D01*
X1969289Y573833D01*
X1968527Y572843D01*
X1967689Y571700D01*
X1966851Y570404D01*
X1965937Y568956D01*
X1965022Y567356D01*
X1964032Y565604D01*
X1963041Y563775D01*
X1962050Y561717D01*
X1961060Y559508D01*
X1960145Y557222D01*
X1960069Y557069D01*
X1959917Y556688D01*
X1959688Y556002D01*
X1959383Y555012D01*
X1959002Y553869D01*
X1958621Y552497D01*
X1958164Y550973D01*
X1957707Y549297D01*
X1957250Y547392D01*
X1956793Y545411D01*
X1956412Y543277D01*
X1956031Y541067D01*
X1955726Y538781D01*
X1955497Y536419D01*
X1955345Y533981D01*
X1955269Y531542D01*
Y530399D01*
X1955345Y529942D01*
Y528799D01*
X1955497Y527351D01*
X1955650Y525675D01*
X1955878Y523770D01*
X1956107Y521712D01*
X1956488Y519503D01*
X1956945Y517217D01*
X1957555Y514854D01*
X1958164Y512416D01*
X1959002Y509901D01*
X1959917Y507463D01*
X1960984Y505025D01*
X1962203Y502662D01*
X1962279Y502510D01*
X1962508Y502129D01*
X1962965Y501519D01*
X1963498Y500681D01*
X1964184Y499614D01*
X1965098Y498471D01*
X1966089Y497176D01*
X1967308Y495728D01*
X1968604Y494280D01*
X1970051Y492756D01*
X1971728Y491232D01*
X1973480Y489708D01*
X1975385Y488184D01*
X1977443Y486813D01*
X1979653Y485441D01*
X1982015Y484222D01*
X1982167Y484146D01*
X1982624Y483993D01*
X1983310Y483689D01*
X1984301Y483231D01*
X1985520Y482774D01*
X1986892Y482241D01*
X1988568Y481707D01*
X1990397Y481174D01*
X1992378Y480564D01*
X1994588Y480031D01*
X1996874Y479498D01*
X1999312Y479040D01*
X2001903Y478659D01*
X2004570Y478355D01*
X2007313Y478126D01*
X2010133Y478050D01*
X2011276D01*
X2011733Y478126D01*
X2012876D01*
X2014324Y478278D01*
X2016000Y478431D01*
X2017905Y478659D01*
X2019962Y478888D01*
X2022172Y479269D01*
X2024534Y479726D01*
X2026973Y480260D01*
X2029411Y480945D01*
X2031926Y481707D01*
X2034440Y482622D01*
X2036955Y483689D01*
X2039393Y484908D01*
X2039546Y484984D01*
X2039927Y485213D01*
X2040613Y485670D01*
X2041527Y486203D01*
X2042594Y486889D01*
X2043813Y487803D01*
X2045185Y488870D01*
X2046632Y490013D01*
X2048233Y491385D01*
X2049833Y492909D01*
X2051433Y494509D01*
X2053109Y496338D01*
X2054710Y498319D01*
X2056234Y500453D01*
X2057681Y502662D01*
X2059053Y505101D01*
X2059129Y505253D01*
X2059282Y505558D01*
X2059510Y506168D01*
X2059891Y506930D01*
X2060272Y507920D01*
X2060729Y509139D01*
X2061187Y510511D01*
X2061720Y512035D01*
X2062177Y513788D01*
X2062634Y515769D01*
X2063092Y517826D01*
X2063473Y520036D01*
X2063854Y522398D01*
X2064082Y524989D01*
X2064235Y527656D01*
X2064311Y530399D01*
Y495728D01*
Y576653D01*
D02*
G37*
G36*
X2322979Y479155D02*
X2217519D01*
Y457819D01*
X2286556Y415223D01*
X2217519D01*
Y395487D01*
X2322979D01*
Y416137D01*
X2252342Y459419D01*
X2322979D01*
Y479155D01*
D02*
G37*
G36*
X2062558Y468068D02*
X1957097D01*
D01*
X2044727D01*
Y436826D01*
X1957097D01*
Y415566D01*
X2044727D01*
Y384248D01*
X2062558D01*
Y468068D01*
D02*
G37*
G36*
X2087308Y474545D02*
Y449018D01*
X2110244Y433701D01*
X2110397Y433625D01*
X2110778Y433320D01*
X2111387Y432939D01*
X2112225Y432406D01*
X2113216Y431720D01*
X2114283Y430958D01*
X2115502Y430120D01*
X2116797Y429206D01*
X2119388Y427301D01*
X2120684Y426386D01*
X2121979Y425472D01*
X2123122Y424634D01*
X2124113Y423795D01*
X2125027Y423033D01*
X2125713Y422424D01*
X2125865Y422271D01*
X2126246Y421890D01*
X2126780Y421281D01*
X2127465Y420519D01*
X2128227Y419528D01*
X2128913Y418461D01*
X2129599Y417318D01*
X2130132Y416023D01*
X2130209Y415871D01*
X2130285Y415642D01*
X2130361Y415413D01*
X2130437Y415032D01*
X2130513Y414575D01*
X2130666Y414042D01*
X2130742Y413432D01*
X2130894Y412746D01*
X2130971Y411984D01*
X2131047Y411070D01*
X2131199Y410079D01*
X2131275Y409089D01*
Y407946D01*
X2131352Y406650D01*
Y401088D01*
X2087308D01*
Y379828D01*
X2192769D01*
Y426158D01*
X2192693Y427301D01*
Y428748D01*
X2192616Y430349D01*
X2192540Y432101D01*
X2192388Y434006D01*
X2192235Y435987D01*
X2192083Y437969D01*
X2191550Y442083D01*
X2191245Y443988D01*
X2190864Y445817D01*
X2190407Y447570D01*
X2189873Y449094D01*
Y449170D01*
X2189721Y449399D01*
X2189568Y449856D01*
X2189340Y450389D01*
X2189035Y450999D01*
X2188578Y451761D01*
X2188121Y452599D01*
X2187587Y453513D01*
X2186901Y454504D01*
X2186139Y455495D01*
X2185301Y456485D01*
X2184387Y457552D01*
X2183396Y458543D01*
X2182253Y459533D01*
X2181034Y460448D01*
X2179739Y461362D01*
X2179662Y461438D01*
X2179434Y461591D01*
X2178977Y461819D01*
X2178443Y462124D01*
X2177757Y462429D01*
X2176995Y462810D01*
X2176005Y463267D01*
X2174938Y463724D01*
X2173795Y464105D01*
X2172500Y464562D01*
X2171128Y464943D01*
X2169680Y465324D01*
X2168156Y465553D01*
X2166556Y465782D01*
X2164956Y465934D01*
X2163203Y466010D01*
X2163051D01*
X2162670D01*
X2162060Y465934D01*
X2161222D01*
X2160231Y465782D01*
X2159012Y465629D01*
X2157717Y465401D01*
X2156269Y465172D01*
X2154745Y464791D01*
X2153145Y464334D01*
X2151545Y463724D01*
X2149868Y463038D01*
X2148268Y462276D01*
X2146592Y461286D01*
X2145068Y460219D01*
X2143544Y459000D01*
X2143467Y458924D01*
X2143239Y458695D01*
X2142858Y458238D01*
X2142324Y457704D01*
X2141715Y456942D01*
X2141029Y456104D01*
X2140267Y455037D01*
X2139429Y453818D01*
X2138591Y452370D01*
X2137829Y450846D01*
X2136990Y449170D01*
X2136228Y447265D01*
X2135466Y445208D01*
X2134857Y442998D01*
X2134323Y440636D01*
X2133866Y438121D01*
X2133790Y438197D01*
X2133714Y438426D01*
X2133485Y438807D01*
X2133180Y439264D01*
X2132799Y439874D01*
X2132342Y440559D01*
X2131809Y441321D01*
X2131275Y442160D01*
X2129904Y443988D01*
X2128380Y445893D01*
X2126703Y447798D01*
X2124951Y449551D01*
X2124875Y449627D01*
X2124722Y449780D01*
X2124417Y450008D01*
X2124036Y450389D01*
X2123503Y450846D01*
X2122817Y451380D01*
X2121979Y451989D01*
X2120988Y452751D01*
X2119922Y453590D01*
X2118702Y454504D01*
X2117255Y455495D01*
X2115731Y456561D01*
X2113978Y457704D01*
X2112149Y458924D01*
X2110092Y460295D01*
X2107882Y461667D01*
X2087308Y474545D01*
D02*
G37*
G36*
X2165413Y323135D02*
Y322983D01*
D01*
Y323135D01*
D02*
G37*
G36*
X2136305Y359102D02*
X2087308D01*
Y338909D01*
X2126246D01*
X2126399D01*
X2126780D01*
X2127389D01*
X2128227D01*
X2129218Y338832D01*
X2130361D01*
X2131580D01*
X2132876Y338756D01*
X2135543Y338604D01*
X2136914Y338451D01*
X2138210Y338299D01*
X2139429Y338147D01*
X2140496Y337994D01*
X2141486Y337766D01*
X2142248Y337537D01*
X2142324D01*
X2142401Y337461D01*
X2142858Y337308D01*
X2143544Y337004D01*
X2144306Y336546D01*
X2145220Y335937D01*
X2146211Y335251D01*
X2147049Y334337D01*
X2147887Y333346D01*
X2147963Y333194D01*
X2148192Y332813D01*
X2148573Y332203D01*
X2148954Y331365D01*
X2149259Y330374D01*
X2149640Y329155D01*
X2149868Y327783D01*
X2149944Y326336D01*
Y325802D01*
X2149868Y325421D01*
Y324964D01*
X2149792Y324431D01*
X2149563Y323135D01*
X2149259Y321687D01*
X2148725Y320087D01*
X2148039Y318411D01*
X2147049Y316811D01*
Y316734D01*
X2146896Y316658D01*
X2146744Y316430D01*
X2146515Y316125D01*
X2145906Y315439D01*
X2144991Y314525D01*
X2143925Y313610D01*
X2142553Y312620D01*
X2141029Y311781D01*
X2139353Y311096D01*
X2139276D01*
X2139124Y311019D01*
X2138819Y310943D01*
X2138438Y310867D01*
X2137905Y310715D01*
X2137219Y310638D01*
X2136381Y310486D01*
X2135390Y310334D01*
X2134247Y310181D01*
X2133028Y310029D01*
X2131580Y309953D01*
X2129980Y309800D01*
X2128227Y309724D01*
X2126246Y309648D01*
X2124113Y309572D01*
X2121827D01*
X2087308D01*
Y289379D01*
X2165413D01*
X2163737D01*
Y308124D01*
X2152459D01*
X2152611Y308276D01*
X2152992Y308581D01*
X2153678Y309114D01*
X2154516Y309953D01*
X2155431Y310943D01*
X2156574Y312086D01*
X2157717Y313458D01*
X2158936Y315058D01*
X2160155Y316734D01*
X2161298Y318639D01*
X2162441Y320773D01*
X2163356Y322983D01*
X2164194Y325345D01*
X2164880Y327860D01*
X2165261Y330527D01*
X2165413Y333346D01*
Y334489D01*
X2165337Y335099D01*
X2165261Y335784D01*
X2165184Y336546D01*
X2165108Y337385D01*
X2164803Y339290D01*
X2164422Y341347D01*
X2163813Y343404D01*
X2162975Y345538D01*
Y345614D01*
X2162898Y345767D01*
X2162746Y346071D01*
X2162517Y346452D01*
X2162289Y346910D01*
X2161984Y347443D01*
X2161298Y348662D01*
X2160384Y350034D01*
X2159317Y351405D01*
X2158174Y352777D01*
X2156802Y353920D01*
X2156726D01*
X2156650Y354072D01*
X2156421Y354225D01*
X2156117Y354377D01*
X2155355Y354911D01*
X2154364Y355520D01*
X2153069Y356206D01*
X2151697Y356816D01*
X2150097Y357425D01*
X2148344Y357959D01*
X2148268D01*
X2148116Y358035D01*
X2147887D01*
X2147506Y358111D01*
X2146973Y358263D01*
X2146363Y358340D01*
X2145677Y358416D01*
X2144839Y358568D01*
X2143925Y358644D01*
X2142934Y358721D01*
X2141791Y358873D01*
X2140572Y358949D01*
X2139276Y359025D01*
X2137829D01*
X2136305Y359102D01*
D02*
G37*
%LPD*%
G36*
X2160917Y1068600D02*
X2161374D01*
X2161984Y1068524D01*
X2163279Y1068219D01*
X2164803Y1067838D01*
X2166404Y1067228D01*
X2168004Y1066390D01*
X2168766Y1065857D01*
X2169452Y1065247D01*
X2169528D01*
X2169604Y1065095D01*
X2170061Y1064637D01*
X2170671Y1063952D01*
X2171509Y1062961D01*
X2172271Y1061666D01*
X2173033Y1060218D01*
X2173719Y1058541D01*
X2174176Y1056713D01*
Y1056560D01*
X2174252Y1056255D01*
X2174328Y1055951D01*
Y1055493D01*
X2174405Y1054884D01*
X2174481Y1054198D01*
X2174557Y1053360D01*
X2174633Y1052369D01*
X2174709Y1051302D01*
X2174786Y1050083D01*
Y1048635D01*
X2174862Y1047111D01*
X2174938Y1045359D01*
Y1031186D01*
X2144915D01*
Y1044825D01*
X2144991Y1045816D01*
Y1046959D01*
X2145068Y1048254D01*
X2145144Y1049550D01*
X2145296Y1052369D01*
X2145601Y1055112D01*
X2145753Y1056408D01*
X2145982Y1057627D01*
X2146211Y1058618D01*
X2146515Y1059532D01*
Y1059608D01*
X2146592Y1059761D01*
X2146668Y1059913D01*
X2146820Y1060218D01*
X2147201Y1060980D01*
X2147811Y1061970D01*
X2148497Y1063037D01*
X2149411Y1064180D01*
X2150478Y1065247D01*
X2151697Y1066238D01*
X2151773D01*
X2151849Y1066314D01*
X2152078Y1066466D01*
X2152307Y1066619D01*
X2153069Y1067000D01*
X2154059Y1067457D01*
X2155278Y1067914D01*
X2156650Y1068295D01*
X2158250Y1068600D01*
X2159927Y1068676D01*
X2160003D01*
X2160155D01*
X2160460D01*
X2160917Y1068600D01*
D02*
G37*
G36*
X2257600Y963711D02*
X2258667Y963634D01*
X2259886Y963558D01*
X2261257Y963406D01*
X2262781Y963177D01*
X2265829Y962644D01*
X2267430Y962263D01*
X2268954Y961729D01*
X2270478Y961196D01*
X2271925Y960586D01*
X2273221Y959824D01*
X2274364Y958986D01*
X2274440Y958910D01*
X2274592Y958758D01*
X2274897Y958529D01*
X2275278Y958148D01*
X2275735Y957691D01*
X2276193Y957081D01*
X2276726Y956472D01*
X2277259Y955710D01*
X2277793Y954871D01*
X2278326Y953957D01*
X2278783Y952966D01*
X2279241Y951900D01*
X2279622Y950757D01*
X2279926Y949537D01*
X2280079Y948242D01*
X2280155Y946870D01*
Y946185D01*
X2280079Y945651D01*
X2280003Y945042D01*
X2279850Y944280D01*
X2279698Y943518D01*
X2279469Y942603D01*
X2279164Y941689D01*
X2278783Y940698D01*
X2278326Y939708D01*
X2277717Y938641D01*
X2277107Y937650D01*
X2276345Y936660D01*
X2275431Y935669D01*
X2274440Y934755D01*
X2274364Y934678D01*
X2274211Y934526D01*
X2273830Y934297D01*
X2273373Y933993D01*
X2272764Y933612D01*
X2272078Y933231D01*
X2271163Y932773D01*
X2270173Y932392D01*
X2269030Y931935D01*
X2267811Y931478D01*
X2266363Y931097D01*
X2264839Y930716D01*
X2263162Y930411D01*
X2261334Y930183D01*
X2259352Y930030D01*
X2257295Y929954D01*
X2257143D01*
X2256762D01*
X2256152D01*
X2255390Y930030D01*
X2254399Y930106D01*
X2253256Y930183D01*
X2252037Y930259D01*
X2250666Y930411D01*
X2247846Y930868D01*
X2244951Y931554D01*
X2243503Y931935D01*
X2242131Y932469D01*
X2240912Y933002D01*
X2239769Y933688D01*
X2239693Y933764D01*
X2239464Y933916D01*
X2239007Y934221D01*
X2238550Y934678D01*
X2237940Y935212D01*
X2237254Y935821D01*
X2236492Y936583D01*
X2235807Y937422D01*
X2235045Y938336D01*
X2234283Y939403D01*
X2233597Y940546D01*
X2232987Y941765D01*
X2232530Y943137D01*
X2232149Y944508D01*
X2231844Y946032D01*
X2231768Y947632D01*
Y947937D01*
X2231844Y948318D01*
Y948775D01*
X2231920Y949309D01*
X2232073Y949995D01*
X2232225Y950757D01*
X2232454Y951595D01*
X2232759Y952433D01*
X2233140Y953347D01*
X2233597Y954338D01*
X2234206Y955252D01*
X2234816Y956243D01*
X2235578Y957234D01*
X2236492Y958148D01*
X2237483Y959062D01*
X2237559Y959139D01*
X2237788Y959291D01*
X2238093Y959520D01*
X2238550Y959824D01*
X2239159Y960129D01*
X2239921Y960586D01*
X2240836Y960967D01*
X2241903Y961425D01*
X2243046Y961882D01*
X2244417Y962263D01*
X2245865Y962720D01*
X2247465Y963025D01*
X2249218Y963330D01*
X2251199Y963558D01*
X2253256Y963711D01*
X2255466Y963787D01*
X2255542D01*
X2255619D01*
X2256076D01*
X2256685D01*
X2257600Y963711D01*
D02*
G37*
G36*
X2062939Y962910D02*
X2062863Y963749D01*
X2062787Y964815D01*
X2062711Y966111D01*
X2062482Y967635D01*
X2062253Y969311D01*
X2061872Y971140D01*
X2061415Y973045D01*
X2060882Y975102D01*
X2060196Y977160D01*
X2059358Y979141D01*
X2058367Y981198D01*
X2057300Y983180D01*
X2056005Y985008D01*
X2054481Y986761D01*
X2054405Y986837D01*
X2054100Y987142D01*
X2053643Y987599D01*
X2052957Y988133D01*
X2052119Y988818D01*
X2051204Y989580D01*
X2049985Y990419D01*
X2048690Y991257D01*
X2047242Y992095D01*
X2045718Y992933D01*
X2043965Y993695D01*
X2042137Y994381D01*
X2040155Y994914D01*
X2038022Y995372D01*
X2035812Y995676D01*
X2033526Y995753D01*
X2062939D01*
Y962910D01*
D02*
G37*
G36*
X2031697Y995676D02*
X2030935Y995600D01*
X2030097Y995524D01*
X2029183Y995448D01*
X2027125Y995143D01*
X2024839Y994686D01*
X2022401Y994000D01*
X2019962Y993162D01*
X2019886D01*
X2019658Y993009D01*
X2019353Y992857D01*
X2018819Y992705D01*
X2018286Y992400D01*
X2017600Y992019D01*
X2016762Y991638D01*
X2015924Y991181D01*
X2014933Y990647D01*
X2013866Y990038D01*
X2011580Y988666D01*
X2009142Y986990D01*
X2006551Y985085D01*
X2006475Y985008D01*
X2006323Y984932D01*
X2006094Y984704D01*
X2005713Y984399D01*
X2005180Y983942D01*
X2004570Y983408D01*
X2003884Y982799D01*
X2003122Y982037D01*
X2002208Y981198D01*
X2001217Y980208D01*
X2000074Y979141D01*
X1998855Y977922D01*
X1997560Y976626D01*
X1996188Y975179D01*
X1994664Y973578D01*
X1993064Y971826D01*
X1992988Y971750D01*
X1992683Y971445D01*
X1992226Y970911D01*
X1991616Y970302D01*
X1990930Y969540D01*
X1990168Y968625D01*
X1989254Y967711D01*
X1988339Y966720D01*
X1986358Y964663D01*
X1984453Y962606D01*
X1983539Y961691D01*
X1982777Y960929D01*
X1982015Y960167D01*
X1981405Y959634D01*
X1981253Y959558D01*
X1980948Y959253D01*
X1980338Y958719D01*
X1979653Y958186D01*
X1978814Y957500D01*
X1977824Y956814D01*
X1976833Y956129D01*
X1975843Y955519D01*
Y995753D01*
X2032307D01*
X2031697Y995676D01*
D02*
G37*
G36*
X2254171Y870975D02*
X2254095Y870899D01*
X2254018Y870670D01*
X2253942Y870289D01*
X2253790Y869908D01*
X2253637Y869375D01*
X2253485Y868765D01*
X2253333Y868003D01*
X2253104Y867165D01*
X2252875Y866251D01*
X2252571Y865260D01*
X2252342Y864117D01*
X2252037Y862898D01*
X2251732Y861603D01*
X2251351Y860155D01*
X2251047Y858631D01*
Y858555D01*
X2250970Y858250D01*
X2250894Y857869D01*
X2250742Y857259D01*
X2250589Y856573D01*
X2250361Y855811D01*
X2249904Y854135D01*
X2249370Y852306D01*
X2248837Y850477D01*
X2248456Y849639D01*
X2248151Y848877D01*
X2247846Y848191D01*
X2247541Y847658D01*
Y847582D01*
X2247389Y847506D01*
X2247008Y847048D01*
X2246398Y846439D01*
X2245560Y845753D01*
X2244570Y844991D01*
X2243350Y844381D01*
X2241903Y843924D01*
X2241141Y843848D01*
X2240379Y843772D01*
X2240302D01*
X2240226D01*
X2239998D01*
X2239693Y843848D01*
X2238855Y843924D01*
X2237864Y844153D01*
X2236721Y844534D01*
X2235502Y845067D01*
X2234283Y845829D01*
X2233063Y846896D01*
X2232911Y847048D01*
X2232606Y847506D01*
X2232073Y848191D01*
X2231539Y849106D01*
X2231006Y850249D01*
X2230473Y851620D01*
X2230168Y853221D01*
X2230015Y854973D01*
Y855507D01*
X2230092Y855888D01*
Y856421D01*
X2230244Y856954D01*
X2230473Y858326D01*
X2230930Y859926D01*
X2231539Y861679D01*
X2232454Y863508D01*
X2232987Y864498D01*
X2233597Y865413D01*
Y865489D01*
X2233749Y865565D01*
X2234054Y866022D01*
X2234664Y866632D01*
X2235426Y867394D01*
X2236416Y868232D01*
X2237559Y868994D01*
X2238855Y869680D01*
X2240226Y870213D01*
X2240379Y870289D01*
X2240760Y870366D01*
X2241064Y870442D01*
X2241445Y870518D01*
X2241903Y870594D01*
X2242436Y870670D01*
X2243046Y870747D01*
X2243808Y870823D01*
X2244570D01*
X2245484Y870899D01*
X2246475Y870975D01*
X2247618Y871051D01*
X2248837D01*
X2250132D01*
X2254171D01*
Y870975D01*
D02*
G37*
G36*
X2270249D02*
X2270782D01*
X2271316Y870899D01*
X2272535Y870670D01*
X2273907Y870366D01*
X2275278Y869832D01*
X2276574Y869146D01*
X2277107Y868689D01*
X2277640Y868156D01*
X2277717Y868003D01*
X2277869Y867851D01*
X2278021Y867546D01*
X2278250Y867241D01*
X2278402Y866784D01*
X2278631Y866327D01*
X2278936Y865717D01*
X2279164Y865032D01*
X2279393Y864193D01*
X2279545Y863355D01*
X2279774Y862365D01*
X2279926Y861222D01*
X2280079Y860002D01*
X2280155Y858707D01*
Y856345D01*
X2280079Y855888D01*
Y855354D01*
X2279926Y854211D01*
X2279622Y852840D01*
X2279241Y851392D01*
X2278707Y850020D01*
X2278021Y848801D01*
X2277945Y848649D01*
X2277640Y848344D01*
X2277031Y847734D01*
X2276269Y847125D01*
X2275278Y846363D01*
X2273983Y845524D01*
X2272383Y844762D01*
X2270554Y844000D01*
X2273830Y825636D01*
X2273983Y825712D01*
X2274288Y825789D01*
X2274897Y825941D01*
X2275659Y826246D01*
X2276574Y826551D01*
X2277640Y827008D01*
X2278783Y827541D01*
X2280003Y828075D01*
X2281374Y828760D01*
X2282670Y829599D01*
X2284041Y830437D01*
X2285413Y831427D01*
X2286708Y832418D01*
X2288004Y833637D01*
X2289147Y834856D01*
X2290213Y836228D01*
X2290290Y836304D01*
X2290442Y836609D01*
X2290747Y837066D01*
X2291052Y837676D01*
X2291433Y838438D01*
X2291890Y839428D01*
X2292423Y840571D01*
X2292957Y841943D01*
X2293414Y843391D01*
X2293947Y845067D01*
X2294404Y846972D01*
X2294785Y848953D01*
X2295090Y851163D01*
X2295395Y853525D01*
X2295547Y856040D01*
X2295624Y858783D01*
Y823579D01*
X2238931D01*
X2239388Y823655D01*
X2239998D01*
X2240607Y823731D01*
X2241369Y823807D01*
X2242207Y823960D01*
X2243960Y824341D01*
X2245941Y824874D01*
X2247922Y825636D01*
X2249827Y826627D01*
X2249904Y826703D01*
X2250056Y826779D01*
X2250285Y826932D01*
X2250666Y827236D01*
X2251580Y827922D01*
X2252723Y828913D01*
X2253942Y830132D01*
X2255238Y831580D01*
X2256533Y833332D01*
X2257600Y835314D01*
Y835390D01*
X2257752Y835542D01*
X2257905Y835923D01*
X2258057Y836380D01*
X2258286Y836914D01*
X2258590Y837600D01*
X2258895Y838438D01*
X2259200Y839428D01*
X2259581Y840495D01*
X2259962Y841714D01*
X2260343Y843010D01*
X2260724Y844458D01*
X2261181Y845982D01*
X2261562Y847658D01*
X2261943Y849487D01*
X2262324Y851392D01*
Y851544D01*
X2262477Y852001D01*
X2262553Y852763D01*
X2262781Y853678D01*
X2263010Y854821D01*
X2263315Y856192D01*
X2263620Y857640D01*
X2263924Y859164D01*
X2264763Y862441D01*
X2265601Y865641D01*
X2265982Y867165D01*
X2266439Y868613D01*
X2266896Y869908D01*
X2267353Y871051D01*
X2269335D01*
X2269411D01*
X2269563D01*
X2269868D01*
X2270249Y870975D01*
D02*
G37*
G36*
X2033526Y738501D02*
X1994512Y752903D01*
X1981481Y757094D01*
X1981558D01*
X1981710Y757170D01*
X1981939Y757247D01*
X1982320Y757399D01*
X1983158Y757628D01*
X1984148Y758009D01*
X1985291Y758313D01*
X1986358Y758694D01*
X1987273Y758923D01*
X1987730Y759075D01*
X1988035Y759152D01*
X1988187Y759228D01*
X1988568Y759304D01*
X1989254Y759533D01*
X1990016Y759837D01*
X1991006Y760142D01*
X1992149Y760523D01*
X1993292Y760904D01*
X1994512Y761361D01*
X2033526Y775839D01*
Y738501D01*
D02*
G37*
G36*
X2064311Y531695D02*
X2064235Y532304D01*
Y532914D01*
X2064158Y533600D01*
X2064082Y535276D01*
X2063854Y537181D01*
X2063625Y539315D01*
X2063244Y541601D01*
X2062863Y543963D01*
X2062253Y546477D01*
X2061644Y549068D01*
X2060806Y551583D01*
X2059891Y554097D01*
X2058748Y556536D01*
X2057453Y558898D01*
X2056005Y561032D01*
X2055929Y561184D01*
X2055624Y561489D01*
X2055167Y562098D01*
X2054481Y562784D01*
X2053643Y563699D01*
X2052652Y564689D01*
X2051433Y565832D01*
X2050061Y566975D01*
X2048537Y568194D01*
X2046861Y569337D01*
X2044956Y570557D01*
X2042975Y571700D01*
X2040765Y572766D01*
X2038403Y573757D01*
X2035964Y574595D01*
X2033297Y575281D01*
X2029335Y554174D01*
X2029411D01*
X2029640Y554097D01*
X2030097Y553945D01*
X2030630Y553716D01*
X2031240Y553488D01*
X2032002Y553107D01*
X2032840Y552726D01*
X2033755Y552269D01*
X2034669Y551735D01*
X2035660Y551126D01*
X2036726Y550440D01*
X2037717Y549678D01*
X2038708Y548763D01*
X2039698Y547849D01*
X2040689Y546858D01*
X2041527Y545715D01*
X2041603Y545639D01*
X2041756Y545411D01*
X2041984Y545106D01*
X2042213Y544649D01*
X2042594Y544039D01*
X2042975Y543277D01*
X2043356Y542439D01*
X2043813Y541524D01*
X2044270Y540458D01*
X2044651Y539315D01*
X2045032Y538019D01*
X2045413Y536648D01*
X2045642Y535276D01*
X2045870Y533676D01*
X2046023Y532076D01*
X2046099Y530399D01*
Y529790D01*
X2046023Y529028D01*
X2045947Y528113D01*
X2045794Y526894D01*
X2045642Y525522D01*
X2045337Y524075D01*
X2044956Y522398D01*
X2044499Y520646D01*
X2043889Y518893D01*
X2043203Y516988D01*
X2042365Y515159D01*
X2041298Y513330D01*
X2040155Y511578D01*
X2038784Y509825D01*
X2037184Y508225D01*
X2037107Y508149D01*
X2036803Y507844D01*
X2036269Y507463D01*
X2035507Y506930D01*
X2034593Y506320D01*
X2033450Y505634D01*
X2032154Y504872D01*
X2030630Y504110D01*
X2028878Y503348D01*
X2026897Y502586D01*
X2024763Y501900D01*
X2022401Y501291D01*
X2019810Y500757D01*
X2017067Y500376D01*
X2014095Y500072D01*
X2010971Y499995D01*
X2010895D01*
X2010742D01*
X2010514D01*
X2010133D01*
X2009675D01*
X2009218Y500072D01*
X2008609D01*
X2007923Y500148D01*
X2006323Y500224D01*
X2004570Y500453D01*
X2002589Y500681D01*
X2000455Y501062D01*
X1998169Y501443D01*
X1995883Y502053D01*
X1993521Y502662D01*
X1991235Y503501D01*
X1988949Y504415D01*
X1986739Y505558D01*
X1984682Y506853D01*
X1982853Y508301D01*
X1982777Y508377D01*
X1982472Y508682D01*
X1982015Y509139D01*
X1981405Y509825D01*
X1980719Y510663D01*
X1979881Y511654D01*
X1979043Y512873D01*
X1978205Y514169D01*
X1977290Y515693D01*
X1976452Y517293D01*
X1975690Y519122D01*
X1974928Y521103D01*
X1974319Y523160D01*
X1973861Y525370D01*
X1973557Y527732D01*
X1973480Y530171D01*
Y530856D01*
X1973557Y531314D01*
Y531923D01*
X1973633Y532685D01*
X1973709Y533447D01*
X1973785Y534362D01*
X1973938Y535352D01*
X1974090Y536419D01*
X1974547Y538629D01*
X1975233Y541067D01*
X1976071Y543582D01*
Y543658D01*
X1976224Y543887D01*
X1976300Y544268D01*
X1976528Y544725D01*
X1976757Y545258D01*
X1977062Y545944D01*
X1977443Y546706D01*
X1977824Y547544D01*
X1978738Y549373D01*
X1979805Y551278D01*
X1981024Y553259D01*
X1982396Y555164D01*
X1995807D01*
Y530780D01*
X2013638D01*
Y576653D01*
X2064311D01*
Y531695D01*
D02*
G37*
G36*
X2162746Y443988D02*
X2163203D01*
X2163660Y443912D01*
X2164880Y443684D01*
X2166251Y443379D01*
X2167699Y442845D01*
X2169071Y442160D01*
X2170366Y441169D01*
X2170442D01*
X2170518Y441017D01*
X2170899Y440636D01*
X2171433Y440026D01*
X2172119Y439112D01*
X2172804Y437969D01*
X2173490Y436597D01*
X2174100Y434997D01*
X2174557Y433168D01*
Y432863D01*
X2174633Y432558D01*
Y432177D01*
X2174709Y431644D01*
Y431034D01*
X2174786Y430272D01*
Y428215D01*
X2174862Y426996D01*
Y425548D01*
X2174938Y423872D01*
Y401088D01*
X2148192D01*
Y419223D01*
X2148268Y420443D01*
Y423338D01*
X2148344Y424938D01*
X2148497Y428215D01*
X2148573Y429815D01*
X2148725Y431339D01*
X2148878Y432711D01*
X2149030Y434006D01*
X2149182Y435073D01*
X2149411Y435911D01*
Y435987D01*
X2149487Y436064D01*
X2149640Y436521D01*
X2150021Y437207D01*
X2150478Y438121D01*
X2151087Y439035D01*
X2151849Y440026D01*
X2152764Y441017D01*
X2153907Y441855D01*
X2154059Y441931D01*
X2154516Y442236D01*
X2155202Y442541D01*
X2156117Y442998D01*
X2157260Y443379D01*
X2158631Y443760D01*
X2160155Y443988D01*
X2161832Y444065D01*
X2161908D01*
X2162060D01*
X2162365D01*
X2162746Y443988D01*
D02*
G37*
D41*
X1808000Y1528000D02*
X1832000D01*
X1808000Y1592000D02*
X1832000D01*
X638000Y732000D02*
X662000D01*
X638000Y668000D02*
X662000D01*
X638000Y568000D02*
X662000D01*
X638000Y632000D02*
X662000D01*
X1148000Y2412000D02*
X1172000D01*
X1148000Y2348000D02*
X1172000D01*
X1648000Y2112000D02*
X1672000D01*
X1648000Y2048000D02*
X1672000D01*
X378000Y282000D02*
X402000D01*
X378000Y218000D02*
X402000D01*
X2688000Y1682000D02*
X2712000D01*
X2688000Y1618000D02*
X2712000D01*
X638000Y1132000D02*
X662000D01*
X638000Y1068000D02*
X662000D01*
X638000Y1882000D02*
X662000D01*
X638000Y1818000D02*
X662000D01*
X637999Y2461999D02*
X661999D01*
X637999Y2397999D02*
X661999D01*
X868000Y2362000D02*
X892000D01*
X868000Y2298000D02*
X892000D01*
X888000Y2012000D02*
X912000D01*
X888000Y1948000D02*
X912000D01*
X638000Y2202000D02*
X662000D01*
X638000Y2138000D02*
X662000D01*
X1348000Y2412000D02*
X1372000D01*
X1348000Y2348000D02*
X1372000D01*
X1548000Y2342000D02*
X1572000D01*
X1548000Y2278000D02*
X1572000D01*
X838000Y1722000D02*
X862000D01*
X838000Y1658000D02*
X862000D01*
X1748000Y2242000D02*
X1772000D01*
X1748000Y2178000D02*
X1772000D01*
X638000Y932000D02*
X662000D01*
X638000Y868000D02*
X662000D01*
X638000Y1332000D02*
X662000D01*
X638000Y1268000D02*
X662000D01*
X838000Y1442000D02*
X862000D01*
X838000Y1378000D02*
X862000D01*
X2338000Y2358000D02*
X2362000D01*
X2338000Y2422000D02*
X2362000D01*
X638000Y1562000D02*
X662000D01*
X638000Y1498000D02*
X662000D01*
X638000Y1718000D02*
X662000D01*
X638000Y1782000D02*
X662000D01*
X1548000Y2178000D02*
X1572000D01*
X1548000Y2242000D02*
X1572000D01*
X638000Y1398000D02*
X662000D01*
X638000Y1462000D02*
X662000D01*
X1348000Y2248000D02*
X1372000D01*
X1348000Y2312000D02*
X1372000D01*
X838000Y1558000D02*
X862000D01*
X838000Y1622000D02*
X862000D01*
X638000Y2298000D02*
X662000D01*
X638000Y2362000D02*
X662000D01*
X868000Y2262000D02*
X892000D01*
X868000Y2198000D02*
X892000D01*
X638000Y532000D02*
X662000D01*
X638000Y468000D02*
X662000D01*
X638000Y968000D02*
X662000D01*
X638000Y1032000D02*
X662000D01*
X378000Y382000D02*
X402000D01*
X378000Y318000D02*
X402000D01*
X1648000Y1948000D02*
X1672000D01*
X1648000Y2012000D02*
X1672000D01*
X638000Y832000D02*
X662000D01*
X638000Y768000D02*
X662000D01*
X888000Y1912000D02*
X912000D01*
X888000Y1848000D02*
X912000D01*
X638000Y2102000D02*
X662000D01*
X638000Y2038000D02*
X662000D01*
X1798000Y1088000D02*
X1822000D01*
X1798000Y1152000D02*
X1822000D01*
X638000Y1168000D02*
X662000D01*
X638000Y1232000D02*
X662000D01*
X1208000Y388000D02*
X1232000D01*
X1208000Y452000D02*
X1232000D01*
X838000Y1268000D02*
X862000D01*
X838000Y1332000D02*
X862000D01*
X1174999Y694987D02*
X1254974D01*
X1214987Y654999D01*
Y708316D01*
X1241645Y734974D02*
X1254974Y748303D01*
Y774961D01*
X1241645Y788290D01*
X1188329D01*
X1174999Y774961D01*
Y748303D01*
X1188329Y734974D01*
X1241645D01*
X1228316Y814948D02*
X1174999Y868264D01*
X1201657Y841606D01*
X1228316Y868264D01*
X1174999Y814948D01*
Y948238D02*
Y894922D01*
X1228316Y948238D01*
X1241645D01*
X1254974Y934909D01*
Y908251D01*
X1241645Y894922D01*
X1174999Y1014883D02*
X1254974D01*
X1214987Y974896D01*
Y1028212D01*
X1241645Y1054870D02*
X1254974Y1068200D01*
Y1094858D01*
X1241645Y1108187D01*
X1188329D01*
X1174999Y1094858D01*
Y1068200D01*
X1188329Y1054870D01*
X1241645D01*
X1174999Y1134845D02*
X1254974D01*
Y1174832D01*
X1241645Y1188161D01*
X1214987D01*
X1201657Y1174832D01*
Y1134845D01*
Y1161503D02*
X1174999Y1188161D01*
D47*
X20000Y1426000D02*
X540000D01*
X50000Y1396000D02*
Y1456000D01*
X510000Y1396000D02*
Y1456000D01*
X20000Y426000D02*
X540000D01*
X50000Y396000D02*
Y456000D01*
X510000Y396000D02*
Y456000D01*
X20000Y2426000D02*
X540000D01*
X50000Y2396000D02*
Y2456000D01*
X510000Y2396000D02*
Y2456000D01*
D48*
X2507499Y600002D02*
D03*
X2567499Y680002D02*
D03*
X2547499Y600002D02*
D03*
X2567499Y640002D02*
D03*
X2587499D02*
D03*
Y680002D02*
D03*
X2727498Y580002D02*
D03*
X2687498Y560002D02*
D03*
Y600002D02*
D03*
Y640002D02*
D03*
X2507499Y480002D02*
D03*
Y520002D02*
D03*
X2527499D02*
D03*
Y560002D02*
D03*
X2867503Y680002D02*
D03*
X2787503D02*
D03*
X2787498Y560002D02*
D03*
X2807498D02*
D03*
X2807503Y680002D02*
D03*
X2827503D02*
D03*
X2847503Y560002D02*
D03*
X2847498Y680002D02*
D03*
X2867498Y560002D02*
D03*
X2427499Y540002D02*
D03*
Y500002D02*
D03*
Y600002D02*
D03*
X2467499Y500002D02*
D03*
Y620002D02*
D03*
X2407499Y540002D02*
D03*
X2427499Y460002D02*
D03*
X2587499Y580002D02*
D03*
X2547499Y520002D02*
D03*
X2587499Y500002D02*
D03*
X2727503Y400002D02*
D03*
Y440002D02*
D03*
X2507499D02*
D03*
X2767503Y400002D02*
D03*
X2827498Y560002D02*
D03*
Y520002D02*
D03*
X2767503Y440002D02*
D03*
X2747498Y520002D02*
D03*
X2767503Y480002D02*
D03*
X2767498Y520002D02*
D03*
X2787503Y480002D02*
D03*
X2807498Y500002D02*
D03*
X2647498Y420002D02*
D03*
X2667498Y440002D02*
D03*
X2627498D02*
D03*
D49*
X2507501Y649999D02*
D03*
X2547501D02*
D03*
X2607501Y629999D02*
D03*
X2707501Y609999D02*
D03*
X2667501Y649999D02*
D03*
X2647501Y629999D02*
D03*
X2467501Y669999D02*
D03*
X2487501Y470000D02*
D03*
X2427501Y649999D02*
D03*
X2407501Y370000D02*
D03*
X2447501Y649999D02*
D03*
Y569999D02*
D03*
X2407501Y450000D02*
D03*
X2427501Y410000D02*
D03*
X2547501Y470000D02*
D03*
X2567501Y310000D02*
D03*
Y450000D02*
D03*
X2687501Y390000D02*
D03*
X2487501Y410000D02*
D03*
X2687501Y310000D02*
D03*
X2847501Y370000D02*
D03*
X2807501Y390000D02*
D03*
X2867500Y430000D02*
D03*
X2727501Y210000D02*
D03*
X2707501D02*
D03*
X2747501Y410000D02*
D03*
X2807501Y450000D02*
D03*
X2627501Y390000D02*
D03*
X2647501Y470000D02*
D03*
X2627501Y589999D02*
D03*
D50*
X2527499Y620002D02*
D03*
X2487499Y660002D02*
D03*
X2807498Y620002D02*
D03*
X2827498D02*
D03*
X2467499Y560002D02*
D03*
X2667498Y360002D02*
D03*
X2887503Y500002D02*
D03*
X2827503Y460002D02*
D03*
X2687498Y480002D02*
D03*
X2627498Y500002D02*
D03*
X2647498Y560002D02*
D03*
D51*
X2727501Y649999D02*
D03*
X2607501Y330000D02*
D03*
X2567501Y230000D02*
D03*
X2627501Y270000D02*
D03*
X2707501Y490000D02*
D03*
D52*
X2487499Y560002D02*
D03*
X2447499Y440002D02*
D03*
D53*
X2527499Y260000D02*
D03*
X2407499D02*
D03*
X2767498D02*
D03*
X2887503D02*
D03*
D54*
X2767498Y620002D02*
D03*
X2887503D02*
D03*
X2607498Y460002D02*
D03*
X2667498Y540002D02*
D03*
D55*
X2847501Y620002D02*
D03*
D56*
X2407501Y629999D02*
D03*
X2567501Y549999D02*
D03*
D57*
X2427499Y200000D02*
D03*
X2467499Y440000D02*
D03*
Y320000D02*
D03*
Y380000D02*
D03*
X2447499Y200000D02*
D03*
X2427499Y320000D02*
D03*
Y360000D02*
D03*
X2447499Y320000D02*
D03*
X2527499Y380000D02*
D03*
X2547499Y360000D02*
D03*
X2567499Y380000D02*
D03*
X2587499Y420000D02*
D03*
Y460000D02*
D03*
X2707498Y360000D02*
D03*
X2467499Y200000D02*
D03*
X2487499D02*
D03*
Y320000D02*
D03*
Y360000D02*
D03*
X2507499Y200000D02*
D03*
Y320000D02*
D03*
X2587499Y260000D02*
D03*
X2607498D02*
D03*
X2647498Y280000D02*
D03*
Y320000D02*
D03*
X2667498Y280000D02*
D03*
X2687498Y260000D02*
D03*
X2707498Y300000D02*
D03*
X2827498Y320000D02*
D03*
X2847498Y200000D02*
D03*
X2847503Y320000D02*
D03*
X2867503Y200000D02*
D03*
X2867498Y320000D02*
D03*
Y360000D02*
D03*
X2847498Y440000D02*
D03*
X2627498Y200000D02*
D03*
X2647498D02*
D03*
X2667498Y220000D02*
D03*
X2687498Y200000D02*
D03*
X2887498Y360000D02*
D03*
X2767498D02*
D03*
X2787503Y200000D02*
D03*
X2787498Y320000D02*
D03*
X2807503Y200000D02*
D03*
X2807498Y320000D02*
D03*
X2827503Y200000D02*
D03*
X2847498Y480000D02*
D03*
D58*
X2467499Y260000D02*
D03*
X2447499D02*
D03*
X2487499D02*
D03*
X2507499Y380000D02*
D03*
X2727498Y300000D02*
D03*
X2827498Y260000D02*
D03*
X2787498Y380000D02*
D03*
X2827498D02*
D03*
X2807498Y260000D02*
D03*
D59*
X2847501D02*
D03*
%TF.MD5,69748ce3ecc2108d8c7b2be515335860*%
M02*
