%TF.GenerationSoftware,Altium Limited,Altium Designer,24.3.1 (35)*%
G04 Layer_Physical_Order=2*
G04 Layer_Color=36540*
%FSLAX45Y45*%
%MOMM*%
%TF.SameCoordinates,49A6F1C3-9DA9-4727-8ECF-3BB51FF8743F*%
%TF.FilePolarity,Positive*%
%TF.FileFunction,Copper,L2,Inr,Signal*%
%TF.Part,Single*%
G01*
G75*
%TA.AperFunction,ViaPad*%
%ADD45C,0.45000*%
%TA.AperFunction,ComponentPad*%
G04:AMPARAMS|DCode=46|XSize=1.3mm|YSize=1.7mm|CornerRadius=0.325mm|HoleSize=0mm|Usage=FLASHONLY|Rotation=270.000|XOffset=0mm|YOffset=0mm|HoleType=Round|Shape=RoundedRectangle|*
%AMROUNDEDRECTD46*
21,1,1.30000,1.05000,0,0,270.0*
21,1,0.65000,1.70000,0,0,270.0*
1,1,0.65000,-0.52500,-0.32500*
1,1,0.65000,-0.52500,0.32500*
1,1,0.65000,0.52500,0.32500*
1,1,0.65000,0.52500,-0.32500*
%
%ADD46ROUNDEDRECTD46*%
G36*
X2956055Y2245063D02*
X2941055Y2237046D01*
X2936583Y2240034D01*
X2920000Y2243332D01*
X2903417Y2240034D01*
X2895804Y2234947D01*
X2885000Y2231878D01*
X2874196Y2234947D01*
X2866583Y2240034D01*
X2850000Y2243332D01*
X2833417Y2240034D01*
X2819359Y2230640D01*
X2809966Y2216583D01*
X2806667Y2200000D01*
X2809966Y2183417D01*
X2819359Y2169359D01*
X2833417Y2159966D01*
X2850000Y2156668D01*
X2866583Y2159966D01*
X2874196Y2165053D01*
X2885000Y2168121D01*
X2895804Y2165053D01*
X2903417Y2159966D01*
X2920000Y2156668D01*
X2936583Y2159966D01*
X2941055Y2162954D01*
X2956055Y2154937D01*
Y650001D01*
Y299999D01*
X2956164Y299449D01*
X2950913Y259563D01*
X2935305Y221881D01*
X2910476Y189524D01*
X2878118Y164695D01*
X2840437Y149087D01*
X2814295Y145645D01*
X2800000Y143944D01*
Y143944D01*
X200000D01*
X199453Y143835D01*
X159563Y149087D01*
X121882Y164695D01*
X89524Y189524D01*
X64695Y221882D01*
X49087Y259563D01*
X43836Y299453D01*
X43944Y299999D01*
Y462631D01*
X58944Y467182D01*
X66650Y455650D01*
X84016Y444046D01*
X104500Y439971D01*
X209500D01*
X229984Y444046D01*
X247350Y455650D01*
X258954Y473015D01*
X263028Y493500D01*
Y558500D01*
X258954Y578984D01*
X247350Y596350D01*
X229984Y607953D01*
X209500Y612028D01*
X104500D01*
X84016Y607953D01*
X66650Y596350D01*
X58944Y584818D01*
X43944Y589368D01*
Y662631D01*
X58944Y667182D01*
X66650Y655650D01*
X84016Y644046D01*
X104500Y639972D01*
X209500D01*
X229984Y644046D01*
X247350Y655650D01*
X258954Y673015D01*
X263028Y693500D01*
Y758500D01*
X258954Y778984D01*
X247350Y796350D01*
X229984Y807953D01*
X209500Y812028D01*
X104500D01*
X84016Y807953D01*
X66650Y796350D01*
X58944Y784818D01*
X43944Y789368D01*
Y862631D01*
X58944Y867182D01*
X66650Y855650D01*
X84016Y844046D01*
X104500Y839972D01*
X209500D01*
X229984Y844046D01*
X247350Y855650D01*
X258954Y873016D01*
X263028Y893500D01*
Y958500D01*
X258954Y978984D01*
X247350Y996350D01*
X229984Y1007954D01*
X209500Y1012028D01*
X104500D01*
X84016Y1007954D01*
X66650Y996350D01*
X58944Y984818D01*
X43944Y989368D01*
Y1062632D01*
X58944Y1067182D01*
X66650Y1055650D01*
X84016Y1044046D01*
X104500Y1039972D01*
X209500D01*
X229984Y1044046D01*
X247350Y1055650D01*
X258954Y1073016D01*
X263028Y1093500D01*
Y1158500D01*
X258954Y1178984D01*
X247350Y1196350D01*
X229984Y1207954D01*
X209500Y1212028D01*
X104500D01*
X84016Y1207954D01*
X66650Y1196350D01*
X58944Y1184818D01*
X43944Y1189368D01*
Y1262631D01*
X58944Y1267182D01*
X66650Y1255650D01*
X84016Y1244046D01*
X104500Y1239972D01*
X209500D01*
X229984Y1244046D01*
X247350Y1255650D01*
X258954Y1273015D01*
X263028Y1293500D01*
Y1358500D01*
X258954Y1378984D01*
X247350Y1396350D01*
X229984Y1407953D01*
X209500Y1412028D01*
X104500D01*
X84016Y1407953D01*
X66650Y1396350D01*
X58944Y1384818D01*
X43944Y1389368D01*
Y1462632D01*
X58944Y1467182D01*
X66650Y1455650D01*
X84016Y1444046D01*
X104500Y1439972D01*
X209500D01*
X229984Y1444046D01*
X247350Y1455650D01*
X258954Y1473016D01*
X263028Y1493500D01*
Y1558500D01*
X258954Y1578984D01*
X247350Y1596350D01*
X229984Y1607954D01*
X209500Y1612028D01*
X104500D01*
X84016Y1607954D01*
X66650Y1596350D01*
X58944Y1584818D01*
X43944Y1589368D01*
Y1662631D01*
X58944Y1667182D01*
X66650Y1655650D01*
X84016Y1644046D01*
X104500Y1639972D01*
X209500D01*
X229984Y1644046D01*
X247350Y1655650D01*
X258954Y1673015D01*
X263028Y1693500D01*
Y1758500D01*
X258954Y1778984D01*
X247350Y1796350D01*
X229984Y1807953D01*
X209500Y1812028D01*
X104500D01*
X84016Y1807953D01*
X66650Y1796350D01*
X58944Y1784818D01*
X43944Y1789368D01*
Y1862632D01*
X58944Y1867182D01*
X66650Y1855650D01*
X84016Y1844046D01*
X104500Y1839972D01*
X209500D01*
X229984Y1844046D01*
X247350Y1855650D01*
X258954Y1873016D01*
X263028Y1893500D01*
Y1958500D01*
X258954Y1978984D01*
X247350Y1996350D01*
X229984Y2007954D01*
X209500Y2012028D01*
X104500D01*
X84016Y2007954D01*
X66650Y1996350D01*
X58944Y1984818D01*
X43944Y1989368D01*
Y2062631D01*
X58944Y2067182D01*
X66650Y2055650D01*
X84016Y2044046D01*
X104500Y2039972D01*
X209500D01*
X229984Y2044046D01*
X247350Y2055650D01*
X258954Y2073015D01*
X263028Y2093500D01*
Y2158500D01*
X258954Y2178984D01*
X247350Y2196350D01*
X229984Y2207953D01*
X209500Y2212028D01*
X104500D01*
X84016Y2207953D01*
X66650Y2196350D01*
X58944Y2184818D01*
X43944Y2189368D01*
Y2252911D01*
X58944Y2257462D01*
X62757Y2251756D01*
X81908Y2238959D01*
X104500Y2234466D01*
X144300D01*
Y2326000D01*
Y2417534D01*
X104500D01*
X81908Y2413040D01*
X62757Y2400243D01*
X58944Y2394538D01*
X43944Y2399088D01*
Y2476056D01*
X2221752D01*
X2223229Y2461056D01*
X2220801Y2460573D01*
X2206743Y2451179D01*
X2197349Y2437121D01*
X2194051Y2420539D01*
X2197349Y2403956D01*
X2204900Y2392656D01*
X2202530Y2381598D01*
X2199905Y2376427D01*
X2191097Y2374675D01*
X2177039Y2365282D01*
X2167646Y2351224D01*
X2164347Y2334641D01*
X2167646Y2318058D01*
X2177039Y2304000D01*
X2191097Y2294607D01*
X2207680Y2291309D01*
X2224262Y2294607D01*
X2228297Y2297303D01*
X2240993Y2302598D01*
X2251678Y2296992D01*
X2256464Y2293794D01*
X2273047Y2290495D01*
X2289629Y2293794D01*
X2303687Y2303187D01*
X2313080Y2317245D01*
X2316379Y2333828D01*
X2313080Y2350410D01*
X2303687Y2364468D01*
X2289629Y2373862D01*
X2275291Y2376714D01*
X2271222Y2384096D01*
X2269224Y2391694D01*
X2277417Y2403956D01*
X2280716Y2420539D01*
X2277417Y2437121D01*
X2268024Y2451179D01*
X2253966Y2460573D01*
X2251538Y2461056D01*
X2253015Y2476056D01*
X2956055D01*
Y2245063D01*
D02*
G37*
%LPC*%
G36*
X1530000Y2433332D02*
X1513417Y2430034D01*
X1499359Y2420641D01*
X1489966Y2406583D01*
X1486668Y2390000D01*
X1489966Y2373417D01*
X1499359Y2359360D01*
X1513417Y2349966D01*
X1530000Y2346668D01*
X1546583Y2349966D01*
X1560641Y2359360D01*
X1570034Y2373417D01*
X1573332Y2390000D01*
X1570034Y2406583D01*
X1560641Y2420641D01*
X1546583Y2430034D01*
X1530000Y2433332D01*
D02*
G37*
G36*
X209500Y2417534D02*
X169700D01*
Y2338700D01*
X268534D01*
Y2358500D01*
X264040Y2381092D01*
X251243Y2400243D01*
X232091Y2413040D01*
X209500Y2417534D01*
D02*
G37*
G36*
X1050000Y2413332D02*
X1033417Y2410034D01*
X1019359Y2400641D01*
X1009966Y2386583D01*
X1006668Y2370000D01*
X1009966Y2353417D01*
X1019359Y2339360D01*
X1033417Y2329966D01*
X1050000Y2326668D01*
X1066583Y2329966D01*
X1080640Y2339360D01*
X1090034Y2353417D01*
X1093332Y2370000D01*
X1090034Y2386583D01*
X1080640Y2400641D01*
X1066583Y2410034D01*
X1050000Y2413332D01*
D02*
G37*
G36*
X900000D02*
X883417Y2410034D01*
X869359Y2400641D01*
X859966Y2386583D01*
X856668Y2370000D01*
X859966Y2353417D01*
X869359Y2339360D01*
X883417Y2329966D01*
X900000Y2326668D01*
X916583Y2329966D01*
X930641Y2339360D01*
X940034Y2353417D01*
X943332Y2370000D01*
X940034Y2386583D01*
X930641Y2400641D01*
X916583Y2410034D01*
X900000Y2413332D01*
D02*
G37*
G36*
X2385852Y2381951D02*
X2369270Y2378653D01*
X2355212Y2369259D01*
X2345818Y2355202D01*
X2342520Y2338619D01*
X2345818Y2322036D01*
X2355212Y2307978D01*
X2369270Y2298585D01*
X2385852Y2295286D01*
X2402435Y2298585D01*
X2416493Y2307978D01*
X2425886Y2322036D01*
X2429185Y2338619D01*
X2425886Y2355202D01*
X2416493Y2369259D01*
X2402435Y2378653D01*
X2385852Y2381951D01*
D02*
G37*
G36*
X2720000Y2373332D02*
X2703417Y2370034D01*
X2689359Y2360640D01*
X2679966Y2346583D01*
X2676667Y2330000D01*
X2679966Y2313417D01*
X2689359Y2299359D01*
X2703417Y2289966D01*
X2720000Y2286668D01*
X2736583Y2289966D01*
X2750640Y2299359D01*
X2760034Y2313417D01*
X2763332Y2330000D01*
X2760034Y2346583D01*
X2750640Y2360640D01*
X2736583Y2370034D01*
X2720000Y2373332D01*
D02*
G37*
G36*
X1952558Y2368333D02*
X1935975Y2365034D01*
X1921917Y2355641D01*
X1912524Y2341583D01*
X1909225Y2325000D01*
X1912524Y2308418D01*
X1921917Y2294360D01*
X1935975Y2284966D01*
X1952558Y2281668D01*
X1969140Y2284966D01*
X1983198Y2294360D01*
X1992592Y2308418D01*
X1995890Y2325000D01*
X1992592Y2341583D01*
X1983198Y2355641D01*
X1969140Y2365034D01*
X1952558Y2368333D01*
D02*
G37*
G36*
X455500Y2412028D02*
X350500D01*
X330016Y2407954D01*
X312650Y2396350D01*
X301046Y2378984D01*
X296972Y2358500D01*
Y2293500D01*
X301046Y2273016D01*
X312650Y2255650D01*
X330016Y2244046D01*
X350500Y2239972D01*
X455500D01*
X475984Y2244046D01*
X493350Y2255650D01*
X504954Y2273016D01*
X509028Y2293500D01*
Y2358500D01*
X504954Y2378984D01*
X493350Y2396350D01*
X475984Y2407954D01*
X455500Y2412028D01*
D02*
G37*
G36*
X2281058Y2261898D02*
X2264476Y2258599D01*
X2250418Y2249206D01*
X2241046Y2235180D01*
X2227823Y2237810D01*
X2211828Y2234629D01*
X2204471Y2245640D01*
X2190413Y2255033D01*
X2173831Y2258332D01*
X2157248Y2255033D01*
X2143190Y2245640D01*
X2133797Y2231582D01*
X2130498Y2214999D01*
X2133797Y2198416D01*
X2138754Y2190997D01*
X2135293Y2188685D01*
X2125899Y2174627D01*
X2122601Y2158044D01*
X2125899Y2141462D01*
X2134590Y2128455D01*
X2127028Y2117138D01*
X2123729Y2100555D01*
X2127028Y2083973D01*
X2130603Y2078623D01*
X2124957Y2074851D01*
X2115563Y2060793D01*
X2112265Y2044210D01*
X2115563Y2027627D01*
X2124957Y2013570D01*
X2139015Y2004176D01*
X2155597Y2000878D01*
X2172180Y2004176D01*
X2186238Y2013570D01*
X2195631Y2027627D01*
X2196425Y2031617D01*
X2199331Y2033676D01*
X2212851Y2037309D01*
X2222589Y2030802D01*
X2239172Y2027503D01*
X2255755Y2030802D01*
X2269813Y2040195D01*
X2273978Y2046429D01*
X2281645Y2046251D01*
X2290562Y2044249D01*
X2298736Y2032015D01*
X2312794Y2022622D01*
X2329377Y2019323D01*
X2345959Y2022622D01*
X2360017Y2032015D01*
X2369411Y2046073D01*
X2372709Y2062656D01*
X2369411Y2079238D01*
X2360017Y2093296D01*
X2345959Y2102690D01*
X2329377Y2105988D01*
X2323091Y2120032D01*
X2321921Y2125910D01*
X2312528Y2139968D01*
X2298470Y2149361D01*
X2281887Y2152660D01*
X2265305Y2149361D01*
X2251247Y2139968D01*
X2241854Y2125910D01*
X2239505Y2114102D01*
X2239172Y2114168D01*
X2223597Y2111070D01*
X2218941Y2110918D01*
X2207380Y2115707D01*
X2207096Y2117138D01*
X2198405Y2130144D01*
X2205967Y2141462D01*
X2208308Y2153229D01*
X2211240Y2154444D01*
X2227823Y2151145D01*
X2244405Y2154444D01*
X2258463Y2163837D01*
X2267835Y2177863D01*
X2281058Y2175233D01*
X2297641Y2178531D01*
X2311699Y2187925D01*
X2321092Y2201983D01*
X2324391Y2218565D01*
X2321092Y2235148D01*
X2311699Y2249206D01*
X2297641Y2258599D01*
X2281058Y2261898D01*
D02*
G37*
G36*
X268534Y2313300D02*
X169700D01*
Y2234466D01*
X209500D01*
X232091Y2238959D01*
X251243Y2251756D01*
X264040Y2270908D01*
X268534Y2293500D01*
Y2313300D01*
D02*
G37*
G36*
X1410565Y2267176D02*
X1393982Y2263877D01*
X1379924Y2254484D01*
X1370531Y2240426D01*
X1367232Y2223843D01*
X1370531Y2207261D01*
X1379924Y2193203D01*
X1393982Y2183809D01*
X1410565Y2180511D01*
X1427148Y2183809D01*
X1441205Y2193203D01*
X1450599Y2207261D01*
X1453897Y2223843D01*
X1450599Y2240426D01*
X1441205Y2254484D01*
X1427148Y2263877D01*
X1410565Y2267176D01*
D02*
G37*
G36*
X2020000Y2213332D02*
X2003417Y2210034D01*
X1989359Y2200641D01*
X1979966Y2186583D01*
X1976668Y2170000D01*
X1979966Y2153417D01*
X1989359Y2139359D01*
X2003417Y2129966D01*
X2020000Y2126668D01*
X2036583Y2129966D01*
X2050641Y2139359D01*
X2060034Y2153417D01*
X2063332Y2170000D01*
X2060034Y2186583D01*
X2050641Y2200641D01*
X2036583Y2210034D01*
X2020000Y2213332D01*
D02*
G37*
G36*
X761529Y2203623D02*
X744946Y2200325D01*
X730888Y2190932D01*
X721495Y2176874D01*
X718196Y2160291D01*
X721495Y2143708D01*
X730888Y2129651D01*
X744946Y2120257D01*
X761529Y2116959D01*
X778111Y2120257D01*
X792169Y2129651D01*
X801563Y2143708D01*
X804861Y2160291D01*
X801563Y2176874D01*
X792169Y2190932D01*
X778111Y2200325D01*
X761529Y2203623D01*
D02*
G37*
G36*
X1610000Y2193332D02*
X1593417Y2190034D01*
X1579360Y2180641D01*
X1569966Y2166583D01*
X1566668Y2150000D01*
X1569966Y2133417D01*
X1579360Y2119359D01*
X1593417Y2109966D01*
X1610000Y2106668D01*
X1626583Y2109966D01*
X1640641Y2119359D01*
X1650034Y2133417D01*
X1653332Y2150000D01*
X1650034Y2166583D01*
X1640641Y2180641D01*
X1626583Y2190034D01*
X1610000Y2193332D01*
D02*
G37*
G36*
X2620000Y2183332D02*
X2603417Y2180034D01*
X2589360Y2170641D01*
X2579966Y2156583D01*
X2576668Y2140000D01*
X2579966Y2123417D01*
X2589360Y2109360D01*
X2603417Y2099966D01*
X2620000Y2096668D01*
X2636583Y2099966D01*
X2650641Y2109360D01*
X2660034Y2123417D01*
X2663332Y2140000D01*
X2660034Y2156583D01*
X2650641Y2170641D01*
X2636583Y2180034D01*
X2620000Y2183332D01*
D02*
G37*
G36*
X2468052Y2236886D02*
X2451470Y2233588D01*
X2437412Y2224194D01*
X2428018Y2210137D01*
X2424720Y2193554D01*
X2428018Y2176971D01*
X2437411Y2162913D01*
X2431955Y2149560D01*
X2429966Y2146583D01*
X2426667Y2130000D01*
X2429966Y2113417D01*
X2439359Y2099360D01*
X2453417Y2089966D01*
X2470000Y2086668D01*
X2486583Y2089966D01*
X2500640Y2099360D01*
X2510034Y2113417D01*
X2513332Y2130000D01*
X2510034Y2146583D01*
X2500641Y2160641D01*
X2506097Y2173994D01*
X2508086Y2176971D01*
X2511385Y2193554D01*
X2508086Y2210137D01*
X2498693Y2224194D01*
X2484635Y2233588D01*
X2468052Y2236886D01*
D02*
G37*
G36*
X1301277Y2219716D02*
X1284694Y2216417D01*
X1270636Y2207024D01*
X1261243Y2192966D01*
X1257944Y2176383D01*
X1261243Y2159801D01*
X1264893Y2154338D01*
X1259359Y2150641D01*
X1249966Y2136583D01*
X1246668Y2120000D01*
X1249966Y2103417D01*
X1259359Y2089360D01*
X1273417Y2079966D01*
X1290000Y2076668D01*
X1306583Y2079966D01*
X1320640Y2089360D01*
X1330034Y2103417D01*
X1333332Y2120000D01*
X1330034Y2136583D01*
X1326384Y2142046D01*
X1331917Y2145743D01*
X1341310Y2159801D01*
X1344609Y2176383D01*
X1341310Y2192966D01*
X1331917Y2207024D01*
X1317859Y2216417D01*
X1301277Y2219716D01*
D02*
G37*
G36*
X455500Y2212028D02*
X350500D01*
X330016Y2207953D01*
X312650Y2196350D01*
X301046Y2178984D01*
X296972Y2158500D01*
Y2093500D01*
X301046Y2073015D01*
X312650Y2055650D01*
X330016Y2044046D01*
X350500Y2039972D01*
X455500D01*
X475984Y2044046D01*
X493350Y2055650D01*
X504954Y2073015D01*
X509028Y2093500D01*
Y2158500D01*
X504954Y2178984D01*
X493350Y2196350D01*
X475984Y2207953D01*
X455500Y2212028D01*
D02*
G37*
G36*
X2760000Y2103332D02*
X2743417Y2100034D01*
X2729360Y2090640D01*
X2719966Y2076583D01*
X2716668Y2060000D01*
X2719966Y2043417D01*
X2729360Y2029359D01*
X2743417Y2019966D01*
X2760000Y2016668D01*
X2776583Y2019966D01*
X2790641Y2029359D01*
X2800034Y2043417D01*
X2803332Y2060000D01*
X2800034Y2076583D01*
X2790641Y2090640D01*
X2776583Y2100034D01*
X2760000Y2103332D01*
D02*
G37*
G36*
X2630000Y2053332D02*
X2613417Y2050034D01*
X2599360Y2040641D01*
X2589966Y2026583D01*
X2586668Y2010000D01*
X2589966Y1993417D01*
X2599360Y1979360D01*
X2613417Y1969966D01*
X2630000Y1966668D01*
X2646583Y1969966D01*
X2660641Y1979360D01*
X2670034Y1993417D01*
X2673332Y2010000D01*
X2670034Y2026583D01*
X2660641Y2040641D01*
X2646583Y2050034D01*
X2630000Y2053332D01*
D02*
G37*
G36*
X1131500Y2035444D02*
X1114918Y2032146D01*
X1100860Y2022752D01*
X1091466Y2008694D01*
X1088168Y1992112D01*
X1091466Y1975529D01*
X1100860Y1961471D01*
X1114918Y1952078D01*
X1131500Y1948779D01*
X1148083Y1952078D01*
X1162141Y1961471D01*
X1171534Y1975529D01*
X1174833Y1992112D01*
X1171534Y2008694D01*
X1162141Y2022752D01*
X1148083Y2032146D01*
X1131500Y2035444D01*
D02*
G37*
G36*
X2484288Y2057653D02*
X2467706Y2054355D01*
X2453648Y2044962D01*
X2444254Y2030904D01*
X2440956Y2014321D01*
X2444254Y1997739D01*
X2438629Y1979158D01*
X2434259Y1976238D01*
X2424865Y1962180D01*
X2421567Y1945597D01*
X2422262Y1942103D01*
X2408762Y1933082D01*
X2407998Y1933593D01*
X2391415Y1936892D01*
X2374833Y1933593D01*
X2360775Y1924200D01*
X2351381Y1910142D01*
X2348083Y1893559D01*
X2351381Y1876977D01*
X2360775Y1862919D01*
X2374833Y1853525D01*
X2391415Y1850227D01*
X2407998Y1853525D01*
X2418428Y1860495D01*
X2423813Y1852435D01*
X2437871Y1843042D01*
X2454454Y1839744D01*
X2471036Y1843042D01*
X2473810Y1844895D01*
X2479451Y1836453D01*
X2493509Y1827060D01*
X2510092Y1823761D01*
X2526675Y1827060D01*
X2540733Y1836453D01*
X2550126Y1850511D01*
X2553424Y1867094D01*
X2550126Y1883676D01*
X2540733Y1897734D01*
X2526675Y1907128D01*
X2510092Y1910426D01*
X2501604Y1924031D01*
X2504933Y1929015D01*
X2508232Y1945597D01*
X2504933Y1962180D01*
X2510559Y1980760D01*
X2514929Y1983681D01*
X2524322Y1997738D01*
X2527621Y2014321D01*
X2524322Y2030904D01*
X2514929Y2044962D01*
X2500871Y2054355D01*
X2484288Y2057653D01*
D02*
G37*
G36*
X1540000Y1993332D02*
X1523417Y1990034D01*
X1509359Y1980640D01*
X1499966Y1966583D01*
X1496668Y1950000D01*
X1499966Y1933417D01*
X1509359Y1919359D01*
X1523417Y1909966D01*
X1540000Y1906668D01*
X1556583Y1909966D01*
X1570640Y1919359D01*
X1580034Y1933417D01*
X1583332Y1950000D01*
X1580034Y1966583D01*
X1570640Y1980640D01*
X1556583Y1990034D01*
X1540000Y1993332D01*
D02*
G37*
G36*
X1275452Y1937592D02*
X1258869Y1934293D01*
X1244812Y1924900D01*
X1235418Y1910842D01*
X1232120Y1894259D01*
X1235418Y1877676D01*
X1244812Y1863619D01*
X1258869Y1854225D01*
X1275452Y1850927D01*
X1292035Y1854225D01*
X1306093Y1863619D01*
X1315486Y1877676D01*
X1318785Y1894259D01*
X1315486Y1910842D01*
X1306093Y1924900D01*
X1292035Y1934293D01*
X1275452Y1937592D01*
D02*
G37*
G36*
X455500Y2012028D02*
X350500D01*
X330016Y2007954D01*
X312650Y1996350D01*
X301046Y1978984D01*
X296972Y1958500D01*
Y1893500D01*
X301046Y1873016D01*
X312650Y1855650D01*
X330016Y1844046D01*
X350500Y1839972D01*
X455500D01*
X475984Y1844046D01*
X493350Y1855650D01*
X504954Y1873016D01*
X509028Y1893500D01*
Y1958500D01*
X504954Y1978984D01*
X493350Y1996350D01*
X475984Y2007954D01*
X455500Y2012028D01*
D02*
G37*
G36*
X2750000Y1873332D02*
X2733417Y1870034D01*
X2719360Y1860640D01*
X2709966Y1846583D01*
X2709375Y1843608D01*
X2706582Y1830034D01*
X2690000Y1833332D01*
X2673417Y1830034D01*
X2659359Y1820641D01*
X2649966Y1806583D01*
X2646668Y1790000D01*
X2649966Y1773417D01*
X2659359Y1759359D01*
X2673417Y1749966D01*
X2690000Y1746668D01*
X2706583Y1749966D01*
X2720640Y1759359D01*
X2730034Y1773417D01*
X2730625Y1776391D01*
X2733418Y1789966D01*
X2750000Y1786667D01*
X2766583Y1789966D01*
X2780641Y1799359D01*
X2790034Y1813417D01*
X2793332Y1830000D01*
X2790034Y1846583D01*
X2780641Y1860640D01*
X2766583Y1870034D01*
X2750000Y1873332D01*
D02*
G37*
G36*
X1030000Y1823332D02*
X1013417Y1820034D01*
X999359Y1810641D01*
X989966Y1796583D01*
X986668Y1780000D01*
X989966Y1763417D01*
X999359Y1749359D01*
X1013417Y1739966D01*
X1030000Y1736668D01*
X1046583Y1739966D01*
X1060641Y1749359D01*
X1070034Y1763417D01*
X1073332Y1780000D01*
X1070034Y1796583D01*
X1060641Y1810641D01*
X1046583Y1820034D01*
X1030000Y1823332D01*
D02*
G37*
G36*
X2322971Y1751725D02*
X2306388Y1748427D01*
X2292330Y1739034D01*
X2282937Y1724976D01*
X2282861Y1724596D01*
X2271375Y1719838D01*
X2254793Y1723136D01*
X2238210Y1719838D01*
X2224152Y1710444D01*
X2214759Y1696386D01*
X2211460Y1679804D01*
X2214759Y1663221D01*
X2224152Y1649163D01*
X2238210Y1639770D01*
X2254793Y1636471D01*
X2271375Y1639770D01*
X2285433Y1649163D01*
X2294826Y1663221D01*
X2294902Y1663601D01*
X2306389Y1668359D01*
X2322971Y1665061D01*
X2339554Y1668359D01*
X2353611Y1677753D01*
X2363005Y1691810D01*
X2366303Y1708393D01*
X2363005Y1724976D01*
X2353611Y1739034D01*
X2339554Y1748427D01*
X2322971Y1751725D01*
D02*
G37*
G36*
X1920000Y1763333D02*
X1903417Y1760034D01*
X1889359Y1750641D01*
X1879966Y1736583D01*
X1876668Y1720000D01*
X1879966Y1703417D01*
X1889359Y1689360D01*
X1903417Y1679966D01*
X1920000Y1676668D01*
X1936583Y1679966D01*
X1950640Y1689360D01*
X1960034Y1703417D01*
X1963332Y1720000D01*
X1960034Y1736583D01*
X1950640Y1750641D01*
X1936583Y1760034D01*
X1920000Y1763333D01*
D02*
G37*
G36*
X455500Y1812028D02*
X350500D01*
X330016Y1807953D01*
X312650Y1796350D01*
X301046Y1778984D01*
X296972Y1758500D01*
Y1693500D01*
X301046Y1673015D01*
X312650Y1655650D01*
X330016Y1644046D01*
X350500Y1639972D01*
X455500D01*
X475984Y1644046D01*
X493350Y1655650D01*
X504954Y1673015D01*
X509028Y1693500D01*
Y1758500D01*
X504954Y1778984D01*
X493350Y1796350D01*
X475984Y1807953D01*
X455500Y1812028D01*
D02*
G37*
G36*
X1520000Y1723332D02*
X1503417Y1720034D01*
X1489359Y1710640D01*
X1479966Y1696583D01*
X1476668Y1680000D01*
X1479966Y1663417D01*
X1489359Y1649359D01*
X1503417Y1639966D01*
X1520000Y1636668D01*
X1536583Y1639966D01*
X1550641Y1649359D01*
X1560034Y1663417D01*
X1563332Y1680000D01*
X1560034Y1696583D01*
X1550641Y1710640D01*
X1536583Y1720034D01*
X1520000Y1723332D01*
D02*
G37*
G36*
X1654424Y1719750D02*
X1637842Y1716451D01*
X1623784Y1707058D01*
X1614390Y1693000D01*
X1611092Y1676418D01*
X1614390Y1659835D01*
X1623784Y1645777D01*
X1637842Y1636384D01*
X1654424Y1633085D01*
X1671007Y1636384D01*
X1685065Y1645777D01*
X1694458Y1659835D01*
X1697757Y1676418D01*
X1694458Y1693000D01*
X1685065Y1707058D01*
X1671007Y1716451D01*
X1654424Y1719750D01*
D02*
G37*
G36*
X1030489Y1650497D02*
X1013906Y1647199D01*
X999848Y1637805D01*
X990455Y1623747D01*
X987157Y1607165D01*
X990455Y1590582D01*
X999848Y1576524D01*
X1013906Y1567131D01*
X1030489Y1563832D01*
X1047072Y1567131D01*
X1061129Y1576524D01*
X1070523Y1590582D01*
X1073821Y1607165D01*
X1070523Y1623747D01*
X1061129Y1637805D01*
X1047072Y1647199D01*
X1030489Y1650497D01*
D02*
G37*
G36*
X2705000Y1638333D02*
X2688418Y1635034D01*
X2674360Y1625641D01*
X2664966Y1611583D01*
X2661668Y1595000D01*
X2664966Y1578417D01*
X2674360Y1564360D01*
X2688418Y1554966D01*
X2705000Y1551668D01*
X2721583Y1554966D01*
X2735641Y1564360D01*
X2745034Y1578417D01*
X2748333Y1595000D01*
X2745034Y1611583D01*
X2735641Y1625641D01*
X2721583Y1635034D01*
X2705000Y1638333D01*
D02*
G37*
G36*
X1720000Y1603332D02*
X1703417Y1600034D01*
X1689360Y1590640D01*
X1679966Y1576583D01*
X1676668Y1560000D01*
X1679966Y1543417D01*
X1689360Y1529359D01*
X1703417Y1519966D01*
X1720000Y1516668D01*
X1736583Y1519966D01*
X1750641Y1529359D01*
X1760034Y1543417D01*
X1763333Y1560000D01*
X1760034Y1576583D01*
X1750641Y1590640D01*
X1736583Y1600034D01*
X1720000Y1603332D01*
D02*
G37*
G36*
X1423747Y1602316D02*
X1407164Y1599018D01*
X1393106Y1589624D01*
X1383713Y1575566D01*
X1380415Y1558984D01*
X1383713Y1542401D01*
X1393106Y1528343D01*
X1407164Y1518950D01*
X1423747Y1515651D01*
X1440330Y1518950D01*
X1454387Y1528343D01*
X1463781Y1542401D01*
X1467079Y1558984D01*
X1463781Y1575566D01*
X1454387Y1589624D01*
X1440330Y1599018D01*
X1423747Y1602316D01*
D02*
G37*
G36*
X2139948Y1503384D02*
X2123365Y1500086D01*
X2109935Y1491112D01*
X2096583Y1500034D01*
X2080000Y1503332D01*
X2063417Y1500034D01*
X2049359Y1490640D01*
X2039966Y1476583D01*
X2036668Y1460000D01*
X2038070Y1452949D01*
X2023417Y1450034D01*
X2009359Y1440641D01*
X1999966Y1426583D01*
X1996668Y1410000D01*
X1999966Y1393417D01*
X2009359Y1379359D01*
X2023417Y1369966D01*
X2040000Y1366668D01*
X2056583Y1369966D01*
X2070641Y1379359D01*
X2080034Y1393417D01*
X2083332Y1410000D01*
X2081930Y1417051D01*
X2096583Y1419966D01*
X2110013Y1428940D01*
X2123365Y1420018D01*
X2139948Y1416720D01*
X2156531Y1420018D01*
X2170588Y1429411D01*
X2179982Y1443469D01*
X2183280Y1460052D01*
X2179982Y1476635D01*
X2170588Y1490692D01*
X2156531Y1500086D01*
X2139948Y1503384D01*
D02*
G37*
G36*
X2459498Y1799394D02*
X2442915Y1796096D01*
X2428857Y1786702D01*
X2419464Y1772644D01*
X2416166Y1756062D01*
X2419464Y1739479D01*
X2427506Y1727443D01*
X2429283Y1719347D01*
X2427698Y1708155D01*
X2419966Y1696583D01*
X2416668Y1680000D01*
X2419966Y1663417D01*
X2429359Y1649359D01*
X2443417Y1639966D01*
X2460000Y1636668D01*
X2476583Y1639966D01*
X2484394Y1645186D01*
X2497894Y1636166D01*
X2496668Y1630000D01*
X2499966Y1613417D01*
X2508931Y1600000D01*
X2499966Y1586583D01*
X2496668Y1570000D01*
X2499966Y1553417D01*
X2509359Y1539360D01*
X2500462Y1531377D01*
X2499359Y1530641D01*
X2489966Y1516583D01*
X2486668Y1500000D01*
X2489966Y1483417D01*
X2499359Y1469360D01*
X2513417Y1459966D01*
X2530000Y1456668D01*
X2546583Y1459966D01*
X2560641Y1469360D01*
X2570034Y1483417D01*
X2573332Y1500000D01*
X2570034Y1516583D01*
X2560641Y1530640D01*
X2569538Y1538623D01*
X2570641Y1539359D01*
X2580034Y1553417D01*
X2583332Y1570000D01*
X2580034Y1586583D01*
X2571069Y1600000D01*
X2580034Y1613417D01*
X2583332Y1630000D01*
X2580034Y1646583D01*
X2570641Y1660641D01*
X2556583Y1670034D01*
X2540000Y1673332D01*
X2527488Y1670844D01*
X2516697Y1677900D01*
X2513606Y1681519D01*
X2513889Y1684002D01*
X2517554Y1685392D01*
X2526798Y1687230D01*
X2540856Y1696624D01*
X2550249Y1710682D01*
X2553548Y1727264D01*
X2550249Y1743847D01*
X2540856Y1757905D01*
X2526798Y1767298D01*
X2510215Y1770597D01*
X2500330Y1768630D01*
X2499532Y1772644D01*
X2490139Y1786702D01*
X2476081Y1796096D01*
X2459498Y1799394D01*
D02*
G37*
G36*
X1272521Y1614625D02*
X1255939Y1611327D01*
X1241881Y1601933D01*
X1232488Y1587875D01*
X1229189Y1571293D01*
X1232488Y1554710D01*
X1241881Y1540652D01*
X1255939Y1531259D01*
X1272521Y1527960D01*
X1280602Y1529568D01*
X1289966Y1516582D01*
X1286667Y1500000D01*
X1289966Y1483417D01*
X1299359Y1469360D01*
X1313417Y1459966D01*
X1330000Y1456668D01*
X1346583Y1459966D01*
X1360640Y1469360D01*
X1370034Y1483417D01*
X1373332Y1500000D01*
X1370034Y1516583D01*
X1360640Y1530641D01*
X1346583Y1540034D01*
X1330000Y1543332D01*
X1321920Y1541725D01*
X1312555Y1554710D01*
X1315854Y1571293D01*
X1312555Y1587875D01*
X1303162Y1601933D01*
X1289104Y1611327D01*
X1272521Y1614625D01*
D02*
G37*
G36*
X455500Y1612028D02*
X350500D01*
X330016Y1607954D01*
X312650Y1596350D01*
X301046Y1578984D01*
X296972Y1558500D01*
Y1493500D01*
X301046Y1473016D01*
X312650Y1455650D01*
X330016Y1444046D01*
X350500Y1439972D01*
X455500D01*
X475984Y1444046D01*
X493350Y1455650D01*
X504954Y1473016D01*
X509028Y1493500D01*
Y1558500D01*
X504954Y1578984D01*
X493350Y1596350D01*
X475984Y1607954D01*
X455500Y1612028D01*
D02*
G37*
G36*
X1870000Y1503332D02*
X1853417Y1500034D01*
X1839360Y1490640D01*
X1829966Y1476583D01*
X1826668Y1460000D01*
X1829966Y1443417D01*
X1816392Y1440626D01*
X1813417Y1440034D01*
X1809855Y1437653D01*
X1796906Y1432019D01*
X1786243Y1438010D01*
X1781820Y1440965D01*
X1765237Y1444264D01*
X1748655Y1440965D01*
X1743904Y1437790D01*
X1733337Y1432095D01*
X1720473Y1437434D01*
X1716583Y1440034D01*
X1700000Y1443332D01*
X1683417Y1440034D01*
X1669359Y1430641D01*
X1659966Y1416583D01*
X1656668Y1400000D01*
X1659966Y1383417D01*
X1669359Y1369359D01*
X1683417Y1359966D01*
X1700000Y1356668D01*
X1716583Y1359966D01*
X1730640Y1369359D01*
X1744126Y1363923D01*
X1748655Y1360897D01*
X1765237Y1357599D01*
X1781820Y1360897D01*
X1785383Y1363278D01*
X1798331Y1368912D01*
X1808994Y1362921D01*
X1813417Y1359966D01*
X1830000Y1356668D01*
X1846583Y1359966D01*
X1860640Y1369359D01*
X1870034Y1383417D01*
X1873332Y1400000D01*
X1870034Y1416582D01*
X1883608Y1419374D01*
X1886583Y1419966D01*
X1900641Y1429359D01*
X1910034Y1443417D01*
X1913332Y1460000D01*
X1910034Y1476583D01*
X1900641Y1490640D01*
X1886583Y1500034D01*
X1870000Y1503332D01*
D02*
G37*
G36*
X2390000Y1513333D02*
X2373417Y1510034D01*
X2359360Y1500641D01*
X2349966Y1486583D01*
X2346668Y1470000D01*
X2349966Y1453417D01*
X2359360Y1439360D01*
X2373417Y1429966D01*
X2390000Y1426668D01*
X2406583Y1429966D01*
X2420641Y1439360D01*
X2430034Y1453417D01*
X2433332Y1470000D01*
X2430034Y1486583D01*
X2420641Y1500641D01*
X2406583Y1510034D01*
X2390000Y1513333D01*
D02*
G37*
G36*
X1190000Y1503332D02*
X1173417Y1500034D01*
X1159359Y1490640D01*
X1149966Y1476583D01*
X1146668Y1460000D01*
X1149966Y1443417D01*
X1159359Y1429359D01*
X1173417Y1419966D01*
X1190000Y1416667D01*
X1206583Y1419966D01*
X1220640Y1429359D01*
X1230034Y1443417D01*
X1233332Y1460000D01*
X1230034Y1476583D01*
X1220640Y1490640D01*
X1206583Y1500034D01*
X1190000Y1503332D01*
D02*
G37*
G36*
X850000Y1397506D02*
X833417Y1394208D01*
X819359Y1384814D01*
X809966Y1370756D01*
X806667Y1354174D01*
X809966Y1337591D01*
X819359Y1323533D01*
X833417Y1314140D01*
X850000Y1310841D01*
X866582Y1314140D01*
X880640Y1323533D01*
X890034Y1337591D01*
X893332Y1354174D01*
X890034Y1370756D01*
X880640Y1384814D01*
X866582Y1394208D01*
X850000Y1397506D01*
D02*
G37*
G36*
X455500Y1412028D02*
X350500D01*
X330016Y1407953D01*
X312650Y1396350D01*
X301046Y1378984D01*
X296972Y1358500D01*
Y1293500D01*
X301046Y1273015D01*
X312650Y1255650D01*
X330016Y1244046D01*
X350500Y1239972D01*
X455500D01*
X475984Y1244046D01*
X493350Y1255650D01*
X504954Y1273015D01*
X509028Y1293500D01*
Y1358500D01*
X504954Y1378984D01*
X493350Y1396350D01*
X475984Y1407953D01*
X455500Y1412028D01*
D02*
G37*
G36*
X1190000Y1353332D02*
X1173417Y1350034D01*
X1159359Y1340640D01*
X1149966Y1326583D01*
X1146668Y1310000D01*
X1149966Y1293417D01*
X1159359Y1279359D01*
X1173417Y1269966D01*
X1190000Y1266668D01*
X1197051Y1268070D01*
X1199966Y1253417D01*
X1209360Y1239359D01*
X1223417Y1229966D01*
X1240000Y1226668D01*
X1256583Y1229966D01*
X1270641Y1239359D01*
X1280034Y1253417D01*
X1283332Y1270000D01*
X1280034Y1286583D01*
X1270641Y1300641D01*
X1256583Y1310034D01*
X1240000Y1313332D01*
X1232949Y1311930D01*
X1230034Y1326583D01*
X1220640Y1340640D01*
X1206583Y1350034D01*
X1190000Y1353332D01*
D02*
G37*
G36*
X1140000Y1183332D02*
X1123417Y1180034D01*
X1109359Y1170641D01*
X1099966Y1156583D01*
X1096668Y1140000D01*
X1099966Y1123417D01*
X1109359Y1109359D01*
X1123417Y1099966D01*
X1140000Y1096668D01*
X1156583Y1099966D01*
X1170641Y1109359D01*
X1180034Y1123417D01*
X1183332Y1140000D01*
X1180034Y1156583D01*
X1170641Y1170641D01*
X1156583Y1180034D01*
X1140000Y1183332D01*
D02*
G37*
G36*
X1550000Y1163332D02*
X1533417Y1160033D01*
X1519359Y1150640D01*
X1509966Y1136582D01*
X1506668Y1120000D01*
X1509966Y1103417D01*
X1519359Y1089359D01*
X1533417Y1079966D01*
X1550000Y1076667D01*
X1566583Y1079966D01*
X1580640Y1089359D01*
X1590034Y1103417D01*
X1593332Y1120000D01*
X1590034Y1136582D01*
X1580640Y1150640D01*
X1566583Y1160033D01*
X1550000Y1163332D01*
D02*
G37*
G36*
X890000Y1213332D02*
X873417Y1210034D01*
X859359Y1200640D01*
X849966Y1186583D01*
X846668Y1170000D01*
X849966Y1153417D01*
X859359Y1139360D01*
X854677Y1124447D01*
X847373Y1113516D01*
X844075Y1096933D01*
X847373Y1080350D01*
X856766Y1066293D01*
X870824Y1056899D01*
X887407Y1053601D01*
X903990Y1056899D01*
X918047Y1066293D01*
X927441Y1080350D01*
X930739Y1096933D01*
X927441Y1113516D01*
X918047Y1127573D01*
X922729Y1142486D01*
X930034Y1153417D01*
X933332Y1170000D01*
X930034Y1186583D01*
X920641Y1200640D01*
X906583Y1210034D01*
X890000Y1213332D01*
D02*
G37*
G36*
X455500Y1212028D02*
X350500D01*
X330016Y1207954D01*
X312650Y1196350D01*
X301046Y1178984D01*
X296972Y1158500D01*
Y1093500D01*
X301046Y1073016D01*
X312650Y1055650D01*
X330016Y1044046D01*
X350500Y1039972D01*
X455500D01*
X475984Y1044046D01*
X493350Y1055650D01*
X504954Y1073016D01*
X509028Y1093500D01*
Y1158500D01*
X504954Y1178984D01*
X493350Y1196350D01*
X475984Y1207954D01*
X455500Y1212028D01*
D02*
G37*
G36*
X1651592Y1067889D02*
X1635009Y1064591D01*
X1620951Y1055198D01*
X1611558Y1041140D01*
X1608259Y1024557D01*
X1611558Y1007974D01*
X1620951Y993916D01*
X1635009Y984523D01*
X1651592Y981225D01*
X1668174Y984523D01*
X1682232Y993916D01*
X1691626Y1007974D01*
X1693207Y1015924D01*
X1708501D01*
X1710274Y1007006D01*
X1719668Y992948D01*
X1733726Y983555D01*
X1750308Y980256D01*
X1766891Y983555D01*
X1780949Y992948D01*
X1790342Y1007006D01*
X1793641Y1023589D01*
X1790342Y1040171D01*
X1780949Y1054229D01*
X1766891Y1063623D01*
X1750308Y1066921D01*
X1733726Y1063623D01*
X1719668Y1054229D01*
X1710274Y1040171D01*
X1708693Y1032222D01*
X1693399D01*
X1691626Y1041140D01*
X1682232Y1055198D01*
X1668174Y1064591D01*
X1651592Y1067889D01*
D02*
G37*
G36*
X830000Y1053332D02*
X813417Y1050034D01*
X799360Y1040641D01*
X789966Y1026583D01*
X786668Y1010000D01*
X789966Y993417D01*
X799360Y979359D01*
X804754Y975755D01*
X810018Y956634D01*
X806720Y940052D01*
X810018Y923469D01*
X819412Y909411D01*
X833470Y900018D01*
X850052Y896720D01*
X866635Y900018D01*
X880693Y909411D01*
X890086Y923469D01*
X893385Y940052D01*
X890086Y956635D01*
X880693Y970692D01*
X875298Y974297D01*
X870034Y993418D01*
X873333Y1010000D01*
X870034Y1026583D01*
X860641Y1040641D01*
X846583Y1050034D01*
X830000Y1053332D01*
D02*
G37*
G36*
X2110745Y978707D02*
X2094162Y975408D01*
X2080104Y966015D01*
X2070711Y951957D01*
X2067412Y935374D01*
X2070711Y918792D01*
X2080104Y904734D01*
X2094162Y895340D01*
X2110745Y892042D01*
X2127327Y895340D01*
X2141385Y904734D01*
X2150779Y918792D01*
X2154077Y935374D01*
X2150779Y951957D01*
X2141385Y966015D01*
X2127327Y975408D01*
X2110745Y978707D01*
D02*
G37*
G36*
X455500Y1012028D02*
X350500D01*
X330016Y1007954D01*
X312650Y996350D01*
X301046Y978984D01*
X296972Y958500D01*
Y893500D01*
X301046Y873016D01*
X312650Y855650D01*
X330016Y844046D01*
X350500Y839972D01*
X455500D01*
X475984Y844046D01*
X493350Y855650D01*
X504954Y873016D01*
X509028Y893500D01*
Y958500D01*
X504954Y978984D01*
X493350Y996350D01*
X475984Y1007954D01*
X455500Y1012028D01*
D02*
G37*
G36*
X1059292Y863332D02*
X1042710Y860034D01*
X1028652Y850640D01*
X1019258Y836582D01*
X1015960Y820000D01*
X1019258Y803417D01*
X1028652Y789359D01*
X1042710Y779966D01*
X1059292Y776667D01*
X1075875Y779966D01*
X1089933Y789359D01*
X1099326Y803417D01*
X1102625Y820000D01*
X1099326Y836582D01*
X1089933Y850640D01*
X1075875Y860034D01*
X1059292Y863332D01*
D02*
G37*
G36*
X2110236Y812556D02*
X2093653Y809258D01*
X2079595Y799865D01*
X2070202Y785807D01*
X2066903Y769224D01*
X2067012Y768679D01*
X2060101Y763694D01*
X2053197Y761243D01*
X2040959Y769420D01*
X2024376Y772719D01*
X2007793Y769420D01*
X1993735Y760027D01*
X1984342Y745969D01*
X1981044Y729386D01*
X1984342Y712804D01*
X1993735Y698746D01*
X2007793Y689352D01*
X2024376Y686054D01*
X2040959Y689352D01*
X2055016Y698746D01*
X2064410Y712804D01*
X2067708Y729386D01*
X2067600Y729931D01*
X2074511Y734916D01*
X2081415Y737368D01*
X2093653Y729190D01*
X2110236Y725892D01*
X2126818Y729190D01*
X2140876Y738583D01*
X2150270Y752641D01*
X2153568Y769224D01*
X2150270Y785807D01*
X2140876Y799865D01*
X2126818Y809258D01*
X2110236Y812556D01*
D02*
G37*
G36*
X855802Y846160D02*
X839220Y842862D01*
X825162Y833468D01*
X815768Y819411D01*
X812470Y802828D01*
X815768Y786245D01*
X825162Y772187D01*
X839220Y762794D01*
X855802Y759496D01*
X872385Y762794D01*
X886443Y772187D01*
X895836Y786245D01*
X899135Y802828D01*
X895836Y819411D01*
X886443Y833468D01*
X872385Y842862D01*
X855802Y846160D01*
D02*
G37*
G36*
X740000Y785031D02*
X723417Y781732D01*
X709359Y772339D01*
X699966Y758281D01*
X696667Y741698D01*
X699966Y725116D01*
X709359Y711058D01*
X723417Y701664D01*
X740000Y698366D01*
X756582Y701664D01*
X770640Y711058D01*
X780034Y725116D01*
X783332Y741698D01*
X780034Y758281D01*
X770640Y772339D01*
X756582Y781732D01*
X740000Y785031D01*
D02*
G37*
G36*
X455500Y812028D02*
X350500D01*
X330016Y807953D01*
X312650Y796350D01*
X301046Y778984D01*
X296972Y758500D01*
Y693500D01*
X301046Y673015D01*
X312650Y655650D01*
X330016Y644046D01*
X350500Y639972D01*
X455500D01*
X475984Y644046D01*
X493350Y655650D01*
X504954Y673015D01*
X509028Y693500D01*
Y758500D01*
X504954Y778984D01*
X493350Y796350D01*
X475984Y807953D01*
X455500Y812028D01*
D02*
G37*
G36*
X1370000Y713332D02*
X1353417Y710034D01*
X1339360Y700640D01*
X1329966Y686583D01*
X1326668Y670000D01*
X1329966Y653417D01*
X1339360Y639359D01*
X1353417Y629966D01*
X1370000Y626668D01*
X1386583Y629966D01*
X1400641Y639359D01*
X1410034Y653417D01*
X1413332Y670000D01*
X1410034Y686583D01*
X1400641Y700640D01*
X1386583Y710034D01*
X1370000Y713332D01*
D02*
G37*
G36*
X979948Y663280D02*
X963365Y659982D01*
X949307Y650588D01*
X939914Y636531D01*
X936616Y619948D01*
X939914Y603365D01*
X949307Y589307D01*
X963365Y579914D01*
X979948Y576616D01*
X996531Y579914D01*
X1010589Y589307D01*
X1019982Y603365D01*
X1023280Y619948D01*
X1019982Y636531D01*
X1010589Y650588D01*
X996531Y659982D01*
X979948Y663280D01*
D02*
G37*
G36*
X2340000Y653332D02*
X2323417Y650034D01*
X2309359Y640641D01*
X2299966Y626583D01*
X2296667Y610000D01*
X2299966Y593417D01*
X2309359Y579360D01*
X2323417Y569966D01*
X2340000Y566668D01*
X2356583Y569966D01*
X2370640Y579360D01*
X2380034Y593417D01*
X2383332Y610000D01*
X2380034Y626583D01*
X2370640Y640641D01*
X2356583Y650034D01*
X2340000Y653332D01*
D02*
G37*
G36*
X1390528Y909781D02*
X1373946Y906483D01*
X1359888Y897089D01*
X1350494Y883031D01*
X1347196Y866449D01*
X1348555Y859614D01*
X1340478Y858008D01*
X1326421Y848614D01*
X1317027Y834556D01*
X1313729Y817974D01*
X1317027Y801391D01*
X1326421Y787333D01*
X1340478Y777940D01*
X1349644Y776117D01*
X1348925Y772505D01*
X1352224Y755922D01*
X1361617Y741864D01*
X1375675Y732471D01*
X1392258Y729172D01*
X1408840Y732471D01*
X1410602Y733648D01*
X1425942Y733416D01*
X1435335Y719358D01*
X1439816Y716365D01*
X1435482Y709878D01*
X1432183Y693296D01*
X1435482Y676713D01*
X1444875Y662655D01*
X1452131Y657807D01*
X1452144Y657774D01*
X1451376Y640635D01*
X1443453Y635341D01*
X1434059Y621283D01*
X1430761Y604701D01*
X1434059Y588118D01*
X1443453Y574060D01*
X1457511Y564667D01*
X1474093Y561368D01*
X1490676Y564667D01*
X1504734Y574060D01*
X1514127Y588118D01*
X1517426Y604701D01*
X1514127Y621283D01*
X1504734Y635341D01*
X1497478Y640189D01*
X1497464Y640223D01*
X1498233Y657361D01*
X1506156Y662655D01*
X1515549Y676713D01*
X1518848Y693296D01*
X1515549Y709878D01*
X1506156Y723936D01*
X1501676Y726930D01*
X1506010Y733416D01*
X1509308Y749999D01*
X1506010Y766582D01*
X1501307Y773619D01*
X1508140Y778185D01*
X1517534Y792243D01*
X1520832Y808826D01*
X1517534Y825408D01*
X1508140Y839466D01*
X1494082Y848860D01*
X1477500Y852158D01*
X1460917Y848860D01*
X1446859Y839466D01*
X1437466Y825408D01*
X1435056Y813291D01*
X1421573Y807207D01*
X1411070Y814026D01*
X1410886Y828937D01*
X1421169Y835808D01*
X1430562Y849866D01*
X1433861Y866449D01*
X1430562Y883031D01*
X1421169Y897089D01*
X1407111Y906483D01*
X1390528Y909781D01*
D02*
G37*
G36*
X455500Y617534D02*
X415700D01*
Y538700D01*
X514534D01*
Y558500D01*
X510040Y581091D01*
X497243Y600243D01*
X478092Y613040D01*
X455500Y617534D01*
D02*
G37*
G36*
X390300D02*
X350500D01*
X327908Y613040D01*
X308757Y600243D01*
X295960Y581091D01*
X291466Y558500D01*
Y538700D01*
X390300D01*
Y617534D01*
D02*
G37*
G36*
X2022500Y641266D02*
X2005918Y637968D01*
X1991860Y628574D01*
X1982466Y614516D01*
X1979168Y597934D01*
X1982466Y581351D01*
X1991860Y567293D01*
X2005918Y557900D01*
X2022500Y554601D01*
X2039083Y557900D01*
X2053141Y567293D01*
X2056457Y572256D01*
X2071997Y568514D01*
X2074218Y557347D01*
X2083612Y543289D01*
X2097669Y533896D01*
X2114252Y530598D01*
X2130835Y533896D01*
X2144893Y543289D01*
X2154286Y557347D01*
X2157584Y573930D01*
X2154286Y590513D01*
X2144893Y604571D01*
X2130835Y613964D01*
X2114252Y617262D01*
X2097669Y613964D01*
X2083612Y604571D01*
X2080296Y599608D01*
X2064755Y603350D01*
X2062534Y614516D01*
X2053141Y628574D01*
X2039083Y637968D01*
X2022500Y641266D01*
D02*
G37*
G36*
X1291786Y615706D02*
X1275204Y612408D01*
X1261146Y603015D01*
X1251752Y588957D01*
X1248454Y572374D01*
X1251752Y555791D01*
X1261146Y541733D01*
X1275204Y532340D01*
X1291786Y529042D01*
X1308369Y532340D01*
X1322427Y541733D01*
X1331820Y555791D01*
X1335119Y572374D01*
X1331820Y588957D01*
X1322427Y603015D01*
X1308369Y612408D01*
X1291786Y615706D01*
D02*
G37*
G36*
X1902065Y520831D02*
X1885482Y517533D01*
X1872674Y508974D01*
X1859865Y517533D01*
X1843282Y520831D01*
X1826700Y517533D01*
X1812642Y508139D01*
X1809447Y503358D01*
X1791406D01*
X1788923Y507075D01*
X1774865Y516468D01*
X1758282Y519767D01*
X1741700Y516468D01*
X1728629Y507734D01*
X1717378Y515252D01*
X1700795Y518551D01*
X1684213Y515252D01*
X1670155Y505859D01*
X1664493Y497386D01*
X1660579Y496492D01*
X1647762Y497482D01*
X1640640Y508139D01*
X1626582Y517533D01*
X1610000Y520831D01*
X1593417Y517533D01*
X1579359Y508139D01*
X1569966Y494081D01*
X1566667Y477499D01*
X1569966Y460916D01*
X1579359Y446858D01*
X1593417Y437465D01*
X1610000Y434166D01*
X1626582Y437465D01*
X1640640Y446858D01*
X1646302Y455331D01*
X1650216Y456225D01*
X1663034Y455235D01*
X1670155Y444578D01*
X1684213Y435184D01*
X1700795Y431886D01*
X1717378Y435184D01*
X1730449Y443918D01*
X1741700Y436400D01*
X1758282Y433102D01*
X1774865Y436400D01*
X1788923Y445794D01*
X1792118Y450575D01*
X1810158D01*
X1812642Y446858D01*
X1826700Y437465D01*
X1843282Y434166D01*
X1849403Y435384D01*
X1855256Y421254D01*
X1846464Y415379D01*
X1837070Y401322D01*
X1835027Y391048D01*
X1833772Y384739D01*
X1819595Y384496D01*
X1818023Y392394D01*
X1808630Y406452D01*
X1794572Y415845D01*
X1777989Y419144D01*
X1761406Y415845D01*
X1747349Y406452D01*
X1737955Y392394D01*
X1734657Y375811D01*
X1737955Y359229D01*
X1747349Y345171D01*
X1761406Y335777D01*
X1777989Y332479D01*
X1794572Y335777D01*
X1808630Y345171D01*
X1818023Y359229D01*
X1820066Y369502D01*
X1821322Y375811D01*
X1835499Y376054D01*
X1837070Y368156D01*
X1846464Y354098D01*
X1860522Y344705D01*
X1877104Y341406D01*
X1893687Y344705D01*
X1907745Y354098D01*
X1917138Y368156D01*
X1920437Y384739D01*
X1917138Y401322D01*
X1907745Y415379D01*
X1901071Y419839D01*
X1901314Y423334D01*
X1905581Y434866D01*
X1918648Y437465D01*
X1932706Y446858D01*
X1942099Y460916D01*
X1945397Y477499D01*
X1942099Y494081D01*
X1932706Y508139D01*
X1918648Y517533D01*
X1902065Y520831D01*
D02*
G37*
G36*
X1398915Y564648D02*
X1382332Y561350D01*
X1368274Y551956D01*
X1358881Y537898D01*
X1355582Y521316D01*
X1358881Y504733D01*
X1368274Y490675D01*
X1382332Y481282D01*
X1398915Y477983D01*
X1415497Y481282D01*
X1429555Y490675D01*
X1438949Y504733D01*
X1442247Y521316D01*
X1438949Y537898D01*
X1429555Y551956D01*
X1415497Y561350D01*
X1398915Y564648D01*
D02*
G37*
G36*
X880000Y563332D02*
X863417Y560034D01*
X849359Y550641D01*
X839966Y536583D01*
X836668Y520000D01*
X839966Y503417D01*
X849359Y489359D01*
X863417Y479966D01*
X880000Y476668D01*
X896583Y479966D01*
X910641Y489359D01*
X920034Y503417D01*
X923332Y520000D01*
X920034Y536583D01*
X910641Y550641D01*
X896583Y560034D01*
X880000Y563332D01*
D02*
G37*
G36*
X2010000Y523332D02*
X1993417Y520034D01*
X1979360Y510641D01*
X1969966Y496583D01*
X1966668Y480000D01*
X1969966Y463417D01*
X1979360Y449360D01*
X1993417Y439966D01*
X2010000Y436668D01*
X2026583Y439966D01*
X2040641Y449360D01*
X2050034Y463417D01*
X2053332Y480000D01*
X2050034Y496583D01*
X2040641Y510641D01*
X2026583Y520034D01*
X2010000Y523332D01*
D02*
G37*
G36*
X514534Y513300D02*
X415700D01*
Y434465D01*
X455500D01*
X478092Y438959D01*
X497243Y451756D01*
X510040Y470908D01*
X514534Y493500D01*
Y513300D01*
D02*
G37*
G36*
X390300D02*
X291466D01*
Y493500D01*
X295960Y470908D01*
X308757Y451756D01*
X327908Y438959D01*
X350500Y434465D01*
X390300D01*
Y513300D01*
D02*
G37*
G36*
X1120000Y473332D02*
X1103417Y470034D01*
X1089360Y460640D01*
X1079966Y446583D01*
X1076668Y430000D01*
X1079966Y413417D01*
X1089360Y399359D01*
X1103417Y389966D01*
X1120000Y386668D01*
X1136583Y389966D01*
X1150641Y399359D01*
X1160034Y413417D01*
X1163332Y430000D01*
X1160034Y446583D01*
X1150641Y460640D01*
X1136583Y470034D01*
X1120000Y473332D01*
D02*
G37*
G36*
X2025002Y423332D02*
X2008420Y420033D01*
X1994362Y410640D01*
X1984968Y396582D01*
X1981670Y379999D01*
X1984968Y363417D01*
X1994362Y349359D01*
X2008420Y339966D01*
X2025002Y336667D01*
X2041585Y339966D01*
X2055643Y349359D01*
X2065036Y363417D01*
X2068335Y379999D01*
X2065036Y396582D01*
X2055643Y410640D01*
X2041585Y420033D01*
X2025002Y423332D01*
D02*
G37*
G36*
X1720000Y310571D02*
X1703417Y307272D01*
X1689360Y297879D01*
X1680640D01*
X1666583Y307272D01*
X1650000Y310571D01*
X1633417Y307272D01*
X1619359Y297879D01*
X1609966Y283821D01*
X1606668Y267238D01*
X1609966Y250656D01*
X1619359Y236598D01*
X1633417Y227205D01*
X1650000Y223906D01*
X1666583Y227205D01*
X1680640Y236598D01*
X1689360D01*
X1703417Y227205D01*
X1720000Y223906D01*
X1736583Y227205D01*
X1750640Y236598D01*
X1760034Y250656D01*
X1763332Y267238D01*
X1760034Y283821D01*
X1750640Y297879D01*
X1736583Y307272D01*
X1720000Y310571D01*
D02*
G37*
G36*
X700000Y343332D02*
X683417Y340034D01*
X669360Y330640D01*
X659966Y316583D01*
X656668Y300000D01*
X659966Y283417D01*
X669360Y269359D01*
X683417Y259966D01*
X700000Y256668D01*
X716583Y259966D01*
X730641Y269359D01*
X740034Y283417D01*
X743333Y300000D01*
X740034Y316583D01*
X730641Y330640D01*
X716583Y340034D01*
X700000Y343332D01*
D02*
G37*
G36*
X1540000Y338071D02*
X1523417Y334773D01*
X1509359Y325379D01*
X1499966Y311321D01*
X1496668Y294739D01*
X1499966Y278156D01*
X1509359Y264098D01*
X1523417Y254705D01*
X1540000Y251406D01*
X1556583Y254705D01*
X1570640Y264098D01*
X1580034Y278156D01*
X1583332Y294739D01*
X1580034Y311321D01*
X1570640Y325379D01*
X1556583Y334773D01*
X1540000Y338071D01*
D02*
G37*
G36*
X1390000D02*
X1373417Y334773D01*
X1359359Y325379D01*
X1349966Y311321D01*
X1346668Y294739D01*
X1349966Y278156D01*
X1359359Y264098D01*
X1373417Y254705D01*
X1390000Y251406D01*
X1406583Y254705D01*
X1420641Y264098D01*
X1430034Y278156D01*
X1433332Y294739D01*
X1430034Y311321D01*
X1420641Y325379D01*
X1406583Y334773D01*
X1390000Y338071D01*
D02*
G37*
G36*
X2010000Y293332D02*
X1993417Y290034D01*
X1979360Y280641D01*
X1969966Y266583D01*
X1966668Y250000D01*
X1969966Y233417D01*
X1979360Y219359D01*
X1993417Y209966D01*
X2010000Y206668D01*
X2026583Y209966D01*
X2040641Y219359D01*
X2050034Y233417D01*
X2053332Y250000D01*
X2050034Y266583D01*
X2040641Y280641D01*
X2026583Y290034D01*
X2010000Y293332D01*
D02*
G37*
G36*
X2250000D02*
X2233417Y290034D01*
X2219360Y280641D01*
X2209966Y266583D01*
X2206668Y250000D01*
X2209966Y233417D01*
X2219360Y219359D01*
X2233417Y209966D01*
X2250000Y206668D01*
X2266583Y209966D01*
X2270400Y212516D01*
X2285138Y217460D01*
X2299195Y208066D01*
X2315778Y204768D01*
X2332361Y208066D01*
X2346418Y217460D01*
X2355812Y231517D01*
X2359110Y248100D01*
X2355812Y264683D01*
X2346418Y278741D01*
X2332361Y288134D01*
X2315778Y291432D01*
X2299195Y288134D01*
X2295378Y285584D01*
X2280640Y280641D01*
X2266583Y290034D01*
X2250000Y293332D01*
D02*
G37*
%LPD*%
D45*
X1530000Y2390000D02*
D03*
X2530000Y1500000D02*
D03*
X2004367Y1012374D02*
D03*
X1534895Y910710D02*
D03*
X1950052Y660052D02*
D03*
X1700000Y917500D02*
D03*
X1900000Y550000D02*
D03*
X2920000Y910000D02*
D03*
Y770000D02*
D03*
X2600000D02*
D03*
Y910000D02*
D03*
X2610000Y1370000D02*
D03*
Y1510000D02*
D03*
X2920000D02*
D03*
Y1370000D02*
D03*
X2110745Y935374D02*
D03*
X2172923Y921919D02*
D03*
X2321965Y784435D02*
D03*
X2340000Y610000D02*
D03*
X2288739Y918354D02*
D03*
X2230000D02*
D03*
X2242319Y783563D02*
D03*
X2177139Y784086D02*
D03*
X2350000Y920000D02*
D03*
X1545544Y678085D02*
D03*
X1700000Y560000D02*
D03*
X2923572Y265363D02*
D03*
X2540000Y170000D02*
D03*
X2930000Y580000D02*
D03*
Y2450000D02*
D03*
X2040000Y1410000D02*
D03*
X2080000Y1460000D02*
D03*
X880000Y180000D02*
D03*
X130000Y230000D02*
D03*
X2580000Y1050000D02*
D03*
X2420000Y1160000D02*
D03*
X2440000Y1230000D02*
D03*
X2600000Y1270000D02*
D03*
X2920000Y1260000D02*
D03*
Y1040000D02*
D03*
X2640000Y1010000D02*
D03*
X2580000Y970000D02*
D03*
X2520000Y760000D02*
D03*
X2448491Y768052D02*
D03*
X2376166Y766832D02*
D03*
X2007012Y798218D02*
D03*
X1050000Y2370000D02*
D03*
X1870000Y1460000D02*
D03*
X1830000Y1400000D02*
D03*
X1765237Y1400931D02*
D03*
X1700000Y1400000D02*
D03*
X1030489Y1607165D02*
D03*
X1029485Y1539926D02*
D03*
X1030000Y1780000D02*
D03*
X1275452Y1894259D02*
D03*
X1272521Y1571293D02*
D03*
X1330000Y1500000D02*
D03*
X1423747Y1558984D02*
D03*
X1190000Y1460000D02*
D03*
X1475515Y693296D02*
D03*
X1465976Y749999D02*
D03*
X1477500Y808826D02*
D03*
X2391415Y1893559D02*
D03*
X1877104Y384739D02*
D03*
X2030633Y1329628D02*
D03*
X2020000Y2170000D02*
D03*
X2510092Y1867094D02*
D03*
X1110000Y710000D02*
D03*
X1220000Y570000D02*
D03*
X1120000Y430000D02*
D03*
X1540000Y1950000D02*
D03*
X1610000Y2150000D02*
D03*
X890000Y1170000D02*
D03*
X850052Y940052D02*
D03*
X979948Y619948D02*
D03*
X1059292Y820000D02*
D03*
X855802Y802828D02*
D03*
X887407Y1096933D02*
D03*
X700000Y300000D02*
D03*
X1520000Y1680000D02*
D03*
X1190000Y1310000D02*
D03*
X1390000Y1400000D02*
D03*
X1240000Y1270000D02*
D03*
X1720000Y1560000D02*
D03*
X1716235Y1660834D02*
D03*
X810000Y690000D02*
D03*
X2340000Y1190000D02*
D03*
X2540000Y1570000D02*
D03*
X1992500Y899999D02*
D03*
X2400000Y1090000D02*
D03*
X2498576Y1291824D02*
D03*
X1069175Y2102286D02*
D03*
X1301277Y2176383D02*
D03*
X1290000Y2120000D02*
D03*
X537566Y2360811D02*
D03*
X1072500Y1110000D02*
D03*
X1140000Y1140000D02*
D03*
X534822Y1110902D02*
D03*
X1900000Y250000D02*
D03*
X2010000D02*
D03*
X2200000Y320000D02*
D03*
X2110236Y769224D02*
D03*
X2024376Y729386D02*
D03*
X1790000Y1220000D02*
D03*
X2390000Y1470000D02*
D03*
X830000Y1010000D02*
D03*
X850000Y1354174D02*
D03*
X1590087Y1309539D02*
D03*
X1390528Y866449D02*
D03*
X1392258Y772505D02*
D03*
X1357061Y817974D02*
D03*
X2705000Y1595000D02*
D03*
X2540000Y1630000D02*
D03*
X2254793Y1679804D02*
D03*
X2460000Y1680000D02*
D03*
X2690000Y1790000D02*
D03*
X2250000Y250000D02*
D03*
X2315778Y248100D02*
D03*
X1390000Y294739D02*
D03*
X1540000D02*
D03*
X1650000Y267238D02*
D03*
X1720000D02*
D03*
X2750000Y1830000D02*
D03*
X2760000Y2060000D02*
D03*
X2850000Y2200000D02*
D03*
X2920000D02*
D03*
X2720000Y2330000D02*
D03*
X1550000Y1120000D02*
D03*
X1843282Y477499D02*
D03*
X1291786Y572374D02*
D03*
X1370000Y670000D02*
D03*
X1651592Y1024557D02*
D03*
X2022500Y597934D02*
D03*
X2010000Y480000D02*
D03*
X2114252Y573930D02*
D03*
X1777989Y375811D02*
D03*
X1610000Y477499D02*
D03*
X1654424Y1676418D02*
D03*
X1131500Y1992112D02*
D03*
X900000Y2370000D02*
D03*
X1474093Y604701D02*
D03*
X880000Y520000D02*
D03*
X1410565Y2223843D02*
D03*
X2025002Y379999D02*
D03*
X2322971Y1708393D02*
D03*
X2385852Y2338619D02*
D03*
X2159948Y1900052D02*
D03*
X2329377Y2062656D02*
D03*
X2281887Y2109328D02*
D03*
X2239172Y2070836D02*
D03*
X2281058Y2218565D02*
D03*
X2227823Y2194478D02*
D03*
X2173831Y2214999D02*
D03*
X2459498Y1756062D02*
D03*
X2454454Y1883076D02*
D03*
X2464899Y1945597D02*
D03*
X2484288Y2014321D02*
D03*
X1920000Y1720000D02*
D03*
X2553760Y1772201D02*
D03*
X2237383Y2420539D02*
D03*
X2150233Y2332155D02*
D03*
X2207680Y2334641D02*
D03*
X2165933Y2158044D02*
D03*
X2167062Y2100555D02*
D03*
X2273047Y2333828D02*
D03*
X2139948Y1460052D02*
D03*
X1700795Y475218D02*
D03*
X1758282Y476434D02*
D03*
X1750308Y1023589D02*
D03*
X2547500Y2350000D02*
D03*
X761529Y2160291D02*
D03*
X1398915Y521316D02*
D03*
X740000Y741698D02*
D03*
X1770000Y2024782D02*
D03*
X2620000Y2200000D02*
D03*
Y2140000D02*
D03*
X2630000Y2010000D02*
D03*
X2155597Y2044210D02*
D03*
X1902065Y477499D02*
D03*
X2510215Y1727264D02*
D03*
X1952558Y2325000D02*
D03*
X2468052Y2193554D02*
D03*
X2470000Y2130000D02*
D03*
D46*
X157000Y2326000D02*
D03*
Y2126000D02*
D03*
Y1926000D02*
D03*
Y1726000D02*
D03*
Y1526000D02*
D03*
Y1326000D02*
D03*
Y1126000D02*
D03*
X403000Y2326000D02*
D03*
Y2126000D02*
D03*
Y1926000D02*
D03*
Y1726000D02*
D03*
Y1526000D02*
D03*
Y1326000D02*
D03*
Y1126000D02*
D03*
X157000Y926000D02*
D03*
Y726000D02*
D03*
X403000Y926000D02*
D03*
Y726000D02*
D03*
X157000Y526000D02*
D03*
X403000D02*
D03*
%TF.MD5,926fc224486b87db482adc0361c23fc6*%
M02*
