%TF.GenerationSoftware,Altium Limited,Altium Designer,24.3.1 (35)*%
G04 Layer_Color=255*
%FSLAX45Y45*%
%MOMM*%
%TF.SameCoordinates,49A6F1C3-9DA9-4727-8ECF-3BB51FF8743F*%
%TF.FilePolarity,Positive*%
%TF.FileFunction,Pads,Top*%
%TF.Part,Single*%
G01*
G75*
%TA.AperFunction,ConnectorPad*%
G04:AMPARAMS|DCode=10|XSize=2mm|YSize=3.8mm|CornerRadius=0.5mm|HoleSize=0mm|Usage=FLASHONLY|Rotation=270.000|XOffset=0mm|YOffset=0mm|HoleType=Round|Shape=RoundedRectangle|*
%AMROUNDEDRECTD10*
21,1,2.00000,2.80000,0,0,270.0*
21,1,1.00000,3.80000,0,0,270.0*
1,1,1.00000,-1.40000,-0.50000*
1,1,1.00000,-1.40000,0.50000*
1,1,1.00000,1.40000,0.50000*
1,1,1.00000,1.40000,-0.50000*
%
%ADD10ROUNDEDRECTD10*%
G04:AMPARAMS|DCode=11|XSize=1mm|YSize=3.8mm|CornerRadius=0.25mm|HoleSize=0mm|Usage=FLASHONLY|Rotation=270.000|XOffset=0mm|YOffset=0mm|HoleType=Round|Shape=RoundedRectangle|*
%AMROUNDEDRECTD11*
21,1,1.00000,3.30000,0,0,270.0*
21,1,0.50000,3.80000,0,0,270.0*
1,1,0.50000,-1.65000,-0.25000*
1,1,0.50000,-1.65000,0.25000*
1,1,0.50000,1.65000,0.25000*
1,1,0.50000,1.65000,-0.25000*
%
%ADD11ROUNDEDRECTD11*%
%TA.AperFunction,SMDPad,CuDef*%
G04:AMPARAMS|DCode=12|XSize=0.6mm|YSize=0.6mm|CornerRadius=0.15mm|HoleSize=0mm|Usage=FLASHONLY|Rotation=180.000|XOffset=0mm|YOffset=0mm|HoleType=Round|Shape=RoundedRectangle|*
%AMROUNDEDRECTD12*
21,1,0.60000,0.30000,0,0,180.0*
21,1,0.30000,0.60000,0,0,180.0*
1,1,0.30000,-0.15000,0.15000*
1,1,0.30000,0.15000,0.15000*
1,1,0.30000,0.15000,-0.15000*
1,1,0.30000,-0.15000,-0.15000*
%
%ADD12ROUNDEDRECTD12*%
G04:AMPARAMS|DCode=13|XSize=4.75mm|YSize=4.75mm|CornerRadius=0.2375mm|HoleSize=0mm|Usage=FLASHONLY|Rotation=0.000|XOffset=0mm|YOffset=0mm|HoleType=Round|Shape=RoundedRectangle|*
%AMROUNDEDRECTD13*
21,1,4.75000,4.27500,0,0,0.0*
21,1,4.27500,4.75000,0,0,0.0*
1,1,0.47500,2.13750,-2.13750*
1,1,0.47500,-2.13750,-2.13750*
1,1,0.47500,-2.13750,2.13750*
1,1,0.47500,2.13750,2.13750*
%
%ADD13ROUNDEDRECTD13*%
%TA.AperFunction,BGAPad,CuDef*%
%ADD14C,0.26000*%
%TA.AperFunction,SMDPad,CuDef*%
%ADD15O,0.12500X0.12560*%
%TA.AperFunction,BGAPad,CuDef*%
%ADD16C,0.22000*%
%TA.AperFunction,SMDPad,CuDef*%
%ADD17C,0.12500*%
G04:AMPARAMS|DCode=18|XSize=0.8mm|YSize=1.35mm|CornerRadius=0.2mm|HoleSize=0mm|Usage=FLASHONLY|Rotation=270.000|XOffset=0mm|YOffset=0mm|HoleType=Round|Shape=RoundedRectangle|*
%AMROUNDEDRECTD18*
21,1,0.80000,0.95000,0,0,270.0*
21,1,0.40000,1.35000,0,0,270.0*
1,1,0.40000,-0.47500,-0.20000*
1,1,0.40000,-0.47500,0.20000*
1,1,0.40000,0.47500,0.20000*
1,1,0.40000,0.47500,-0.20000*
%
%ADD18ROUNDEDRECTD18*%
G04:AMPARAMS|DCode=19|XSize=0.6mm|YSize=0.6mm|CornerRadius=0.15mm|HoleSize=0mm|Usage=FLASHONLY|Rotation=270.000|XOffset=0mm|YOffset=0mm|HoleType=Round|Shape=RoundedRectangle|*
%AMROUNDEDRECTD19*
21,1,0.60000,0.30000,0,0,270.0*
21,1,0.30000,0.60000,0,0,270.0*
1,1,0.30000,-0.15000,-0.15000*
1,1,0.30000,-0.15000,0.15000*
1,1,0.30000,0.15000,0.15000*
1,1,0.30000,0.15000,-0.15000*
%
%ADD19ROUNDEDRECTD19*%
%ADD20R,0.23000X0.75000*%
G04:AMPARAMS|DCode=21|XSize=0.23mm|YSize=0.75mm|CornerRadius=0.0575mm|HoleSize=0mm|Usage=FLASHONLY|Rotation=180.000|XOffset=0mm|YOffset=0mm|HoleType=Round|Shape=RoundedRectangle|*
%AMROUNDEDRECTD21*
21,1,0.23000,0.63500,0,0,180.0*
21,1,0.11500,0.75000,0,0,180.0*
1,1,0.11500,-0.05750,0.31750*
1,1,0.11500,0.05750,0.31750*
1,1,0.11500,0.05750,-0.31750*
1,1,0.11500,-0.05750,-0.31750*
%
%ADD21ROUNDEDRECTD21*%
G04:AMPARAMS|DCode=22|XSize=0.23mm|YSize=0.75mm|CornerRadius=0.0575mm|HoleSize=0mm|Usage=FLASHONLY|Rotation=90.000|XOffset=0mm|YOffset=0mm|HoleType=Round|Shape=RoundedRectangle|*
%AMROUNDEDRECTD22*
21,1,0.23000,0.63500,0,0,90.0*
21,1,0.11500,0.75000,0,0,90.0*
1,1,0.11500,0.31750,0.05750*
1,1,0.11500,0.31750,-0.05750*
1,1,0.11500,-0.31750,-0.05750*
1,1,0.11500,-0.31750,0.05750*
%
%ADD22ROUNDEDRECTD22*%
G04:AMPARAMS|DCode=23|XSize=1.13mm|YSize=1.13mm|CornerRadius=0.2825mm|HoleSize=0mm|Usage=FLASHONLY|Rotation=90.000|XOffset=0mm|YOffset=0mm|HoleType=Round|Shape=RoundedRectangle|*
%AMROUNDEDRECTD23*
21,1,1.13000,0.56500,0,0,90.0*
21,1,0.56500,1.13000,0,0,90.0*
1,1,0.56500,0.28250,0.28250*
1,1,0.56500,0.28250,-0.28250*
1,1,0.56500,-0.28250,-0.28250*
1,1,0.56500,-0.28250,0.28250*
%
%ADD23ROUNDEDRECTD23*%
G04:AMPARAMS|DCode=24|XSize=0.75mm|YSize=0.65mm|CornerRadius=0.1625mm|HoleSize=0mm|Usage=FLASHONLY|Rotation=0.000|XOffset=0mm|YOffset=0mm|HoleType=Round|Shape=RoundedRectangle|*
%AMROUNDEDRECTD24*
21,1,0.75000,0.32500,0,0,0.0*
21,1,0.42500,0.65000,0,0,0.0*
1,1,0.32500,0.21250,-0.16250*
1,1,0.32500,-0.21250,-0.16250*
1,1,0.32500,-0.21250,0.16250*
1,1,0.32500,0.21250,0.16250*
%
%ADD24ROUNDEDRECTD24*%
%TA.AperFunction,BGAPad,SMDef*%
%ADD25C,0.25000*%
%TA.AperFunction,BGAPad,CuDef*%
%ADD26C,0.25000*%
%ADD27C,0.12500*%
%TA.AperFunction,SMDPad,CuDef*%
G04:AMPARAMS|DCode=28|XSize=0.6mm|YSize=0.7mm|CornerRadius=0.15mm|HoleSize=0mm|Usage=FLASHONLY|Rotation=270.000|XOffset=0mm|YOffset=0mm|HoleType=Round|Shape=RoundedRectangle|*
%AMROUNDEDRECTD28*
21,1,0.60000,0.40000,0,0,270.0*
21,1,0.30000,0.70000,0,0,270.0*
1,1,0.30000,-0.20000,-0.15000*
1,1,0.30000,-0.20000,0.15000*
1,1,0.30000,0.20000,0.15000*
1,1,0.30000,0.20000,-0.15000*
%
%ADD28ROUNDEDRECTD28*%
%ADD29R,0.80000X0.80000*%
G04:AMPARAMS|DCode=30|XSize=0.8mm|YSize=0.8mm|CornerRadius=0.2mm|HoleSize=0mm|Usage=FLASHONLY|Rotation=90.000|XOffset=0mm|YOffset=0mm|HoleType=Round|Shape=RoundedRectangle|*
%AMROUNDEDRECTD30*
21,1,0.80000,0.40000,0,0,90.0*
21,1,0.40000,0.80000,0,0,90.0*
1,1,0.40000,0.20000,0.20000*
1,1,0.40000,0.20000,-0.20000*
1,1,0.40000,-0.20000,-0.20000*
1,1,0.40000,-0.20000,0.20000*
%
%ADD30ROUNDEDRECTD30*%
%ADD31R,1.10000X1.10000*%
G04:AMPARAMS|DCode=32|XSize=1.1mm|YSize=1.1mm|CornerRadius=0.275mm|HoleSize=0mm|Usage=FLASHONLY|Rotation=90.000|XOffset=0mm|YOffset=0mm|HoleType=Round|Shape=RoundedRectangle|*
%AMROUNDEDRECTD32*
21,1,1.10000,0.55000,0,0,90.0*
21,1,0.55000,1.10000,0,0,90.0*
1,1,0.55000,0.27500,0.27500*
1,1,0.55000,0.27500,-0.27500*
1,1,0.55000,-0.27500,-0.27500*
1,1,0.55000,-0.27500,0.27500*
%
%ADD32ROUNDEDRECTD32*%
G04:AMPARAMS|DCode=33|XSize=1.65mm|YSize=1.25mm|CornerRadius=0.3125mm|HoleSize=0mm|Usage=FLASHONLY|Rotation=180.000|XOffset=0mm|YOffset=0mm|HoleType=Round|Shape=RoundedRectangle|*
%AMROUNDEDRECTD33*
21,1,1.65000,0.62500,0,0,180.0*
21,1,1.02500,1.25000,0,0,180.0*
1,1,0.62500,-0.51250,0.31250*
1,1,0.62500,0.51250,0.31250*
1,1,0.62500,0.51250,-0.31250*
1,1,0.62500,-0.51250,-0.31250*
%
%ADD33ROUNDEDRECTD33*%
%TA.AperFunction,ComponentPad*%
G04:AMPARAMS|DCode=43|XSize=1.4mm|YSize=1.7mm|CornerRadius=0mm|HoleSize=0mm|Usage=FLASHONLY|Rotation=270.000|XOffset=0mm|YOffset=0mm|HoleType=Round|Shape=Octagon|*
%AMOCTAGOND43*
4,1,8,0.85000,0.35000,0.85000,-0.35000,0.50000,-0.70000,-0.50000,-0.70000,-0.85000,-0.35000,-0.85000,0.35000,-0.50000,0.70000,0.50000,0.70000,0.85000,0.35000,0.0*
%
%ADD43OCTAGOND43*%

G04:AMPARAMS|DCode=44|XSize=1.4mm|YSize=1.7mm|CornerRadius=0.35mm|HoleSize=0mm|Usage=FLASHONLY|Rotation=270.000|XOffset=0mm|YOffset=0mm|HoleType=Round|Shape=RoundedRectangle|*
%AMROUNDEDRECTD44*
21,1,1.40000,1.00000,0,0,270.0*
21,1,0.70000,1.70000,0,0,270.0*
1,1,0.70000,-0.50000,-0.35000*
1,1,0.70000,-0.50000,0.35000*
1,1,0.70000,0.50000,0.35000*
1,1,0.70000,0.50000,-0.35000*
%
%ADD44ROUNDEDRECTD44*%
D10*
X2760000Y840000D02*
D03*
Y1440000D02*
D03*
D11*
Y1140000D02*
D03*
D12*
X2500000Y840000D02*
D03*
Y940000D02*
D03*
X2150000Y1510000D02*
D03*
Y1610000D02*
D03*
X2350000D02*
D03*
Y1510000D02*
D03*
X2050000D02*
D03*
Y1610000D02*
D03*
X2900000Y2370000D02*
D03*
Y2270000D02*
D03*
X2800000Y2370000D02*
D03*
Y2270000D02*
D03*
X2250000Y1610000D02*
D03*
Y1510000D02*
D03*
X2450000Y1610000D02*
D03*
Y1510000D02*
D03*
X1700000Y1299999D02*
D03*
Y1200000D02*
D03*
X1870000Y1660000D02*
D03*
Y1560000D02*
D03*
X2500000Y1140000D02*
D03*
Y1240000D02*
D03*
X2400000Y840000D02*
D03*
Y940000D02*
D03*
X1590000Y1160000D02*
D03*
Y1260000D02*
D03*
X1350000Y1160000D02*
D03*
Y1260000D02*
D03*
X1110000Y870000D02*
D03*
Y770000D02*
D03*
Y970000D02*
D03*
Y1069999D02*
D03*
X2030000Y1180000D02*
D03*
Y1280000D02*
D03*
X1450000Y1160000D02*
D03*
Y1260000D02*
D03*
X1770000Y1660000D02*
D03*
Y1560000D02*
D03*
X2700000Y2260000D02*
D03*
Y2160000D02*
D03*
X1770000Y1880000D02*
D03*
Y1980000D02*
D03*
Y2170000D02*
D03*
Y2070000D02*
D03*
D13*
X1750000Y749999D02*
D03*
D14*
X2075000Y524999D02*
D03*
X2024995Y599999D02*
D03*
X2075000Y924999D02*
D03*
Y774999D02*
D03*
Y724999D02*
D03*
Y624999D02*
D03*
Y574999D02*
D03*
X2025000Y949999D02*
D03*
Y899999D02*
D03*
Y849999D02*
D03*
Y649999D02*
D03*
Y549999D02*
D03*
Y699999D02*
D03*
X1425000Y1024999D02*
D03*
Y974999D02*
D03*
X1475000Y949999D02*
D03*
Y899999D02*
D03*
X1425000Y874999D02*
D03*
Y824999D02*
D03*
X1475000Y799999D02*
D03*
X1425000Y774999D02*
D03*
X1475000Y749999D02*
D03*
X1425000Y724999D02*
D03*
Y674999D02*
D03*
X1475000Y645000D02*
D03*
X1425000Y624999D02*
D03*
Y574999D02*
D03*
X1475000Y549999D02*
D03*
Y499999D02*
D03*
X1800000Y1024999D02*
D03*
X1850000D02*
D03*
X1900000D02*
D03*
X2075000D02*
D03*
X1700000D02*
D03*
X1650000D02*
D03*
X1600000D02*
D03*
X1550000D02*
D03*
X1500000D02*
D03*
X1750000D02*
D03*
Y474999D02*
D03*
X1850000D02*
D03*
X1900000D02*
D03*
X1950000D02*
D03*
X2075000D02*
D03*
X1775000Y424999D02*
D03*
X1875000D02*
D03*
X2025000D02*
D03*
X1675000D02*
D03*
X1625000D02*
D03*
X1475000D02*
D03*
X1700000Y474999D02*
D03*
X1650000D02*
D03*
X1550000D02*
D03*
X1725000Y424999D02*
D03*
X1825000Y1074999D02*
D03*
X1875000D02*
D03*
X1925000D02*
D03*
X1975000D02*
D03*
X2025000D02*
D03*
X1675000D02*
D03*
X1475000Y699999D02*
D03*
D15*
X2075000Y824999D02*
D03*
D16*
Y674999D02*
D03*
X1725000Y1074999D02*
D03*
X1825000Y424999D02*
D03*
X1925000D02*
D03*
X1975000D02*
D03*
X1575000D02*
D03*
X1525000D02*
D03*
X1775000Y1074999D02*
D03*
X1625000D02*
D03*
X2360000Y2250000D02*
D03*
X2410000D02*
D03*
X2460000D02*
D03*
X2410000Y2150000D02*
D03*
X2060000Y2100000D02*
D03*
X2560000D02*
D03*
X2060000Y2050000D02*
D03*
X2410000D02*
D03*
X2560000D02*
D03*
X2210000Y2000000D02*
D03*
X2410000D02*
D03*
X2560000D02*
D03*
X2210000Y1950000D02*
D03*
X2260000D02*
D03*
X2310000D02*
D03*
X2360000D02*
D03*
X2560000D02*
D03*
X2210000Y1850000D02*
D03*
X2260000D02*
D03*
X2310000D02*
D03*
X2160000Y1800000D02*
D03*
X2210000D02*
D03*
D17*
X1475000Y850000D02*
D03*
X1800000Y474999D02*
D03*
D18*
X660000Y2130000D02*
D03*
Y1890000D02*
D03*
X1900000D02*
D03*
Y2130000D02*
D03*
X1250000Y1049999D02*
D03*
Y809999D02*
D03*
D19*
X2190000Y1090000D02*
D03*
X2290000D02*
D03*
Y610000D02*
D03*
X2190000D02*
D03*
X2690000Y1900000D02*
D03*
X2790000D02*
D03*
X580000Y1530000D02*
D03*
X680000D02*
D03*
X2650000Y1650000D02*
D03*
X2750000D02*
D03*
X810000Y1110000D02*
D03*
X710000D02*
D03*
X2790000Y2000000D02*
D03*
X2690000D02*
D03*
X690000Y430000D02*
D03*
X590000D02*
D03*
X580000Y860000D02*
D03*
X680000D02*
D03*
X2400000Y1040000D02*
D03*
X2500000D02*
D03*
X2190000Y990000D02*
D03*
X2290000D02*
D03*
X2190000Y710000D02*
D03*
X2290000D02*
D03*
X1900000Y1169999D02*
D03*
X1800000D02*
D03*
X1900000Y1269999D02*
D03*
X1800000D02*
D03*
X2050000Y320000D02*
D03*
X2150000D02*
D03*
X1450000Y1360000D02*
D03*
X1350000D02*
D03*
X700000Y2230000D02*
D03*
X600000D02*
D03*
X700000Y2330000D02*
D03*
X600000D02*
D03*
X1940000Y1790000D02*
D03*
X1840000D02*
D03*
X2069800Y2415903D02*
D03*
X2169800D02*
D03*
X1800000Y320000D02*
D03*
X1900000D02*
D03*
X230000Y350000D02*
D03*
X330000D02*
D03*
X1340000Y519999D02*
D03*
X1240000D02*
D03*
D20*
X935000Y1985000D02*
D03*
D21*
X985000D02*
D03*
X1035000D02*
D03*
X1085000D02*
D03*
Y2275000D02*
D03*
X1035000D02*
D03*
X985000D02*
D03*
X935000D02*
D03*
D22*
X1155000Y2055000D02*
D03*
Y2105000D02*
D03*
Y2155000D02*
D03*
Y2205000D02*
D03*
X865000D02*
D03*
Y2155000D02*
D03*
Y2105000D02*
D03*
Y2055000D02*
D03*
D23*
X1010000Y2130000D02*
D03*
D24*
X2130000Y1190000D02*
D03*
X2270000D02*
D03*
Y1290000D02*
D03*
X2130000D02*
D03*
D25*
X2060000Y2300000D02*
D03*
X2560000D02*
D03*
X2110000Y2250000D02*
D03*
Y1850000D02*
D03*
X2060000Y1800000D02*
D03*
X2560000D02*
D03*
X2510000Y2250000D02*
D03*
D26*
X2110000Y2300000D02*
D03*
X2160000D02*
D03*
X2210000D02*
D03*
X2260000D02*
D03*
X2460000D02*
D03*
X2510000D02*
D03*
X2060000Y2250000D02*
D03*
X2160000D02*
D03*
X2210000D02*
D03*
X2260000D02*
D03*
X2560000D02*
D03*
X2060000Y2200000D02*
D03*
X2110000D02*
D03*
X2510000D02*
D03*
X2560000D02*
D03*
X2060000Y2150000D02*
D03*
X2110000D02*
D03*
X2360000D02*
D03*
X2510000D02*
D03*
X2560000D02*
D03*
X2410000Y2100000D02*
D03*
X2110000Y2050000D02*
D03*
X2210000D02*
D03*
X2060000Y2000000D02*
D03*
X2110000D02*
D03*
X2510000D02*
D03*
X2060000Y1950000D02*
D03*
X2110000D02*
D03*
X2410000D02*
D03*
X2060000Y1900000D02*
D03*
X2510000D02*
D03*
X2560000D02*
D03*
X2060000Y1850000D02*
D03*
X2410000D02*
D03*
X2460000D02*
D03*
X2560000D02*
D03*
X2260000Y1800000D02*
D03*
X2310000D02*
D03*
X2360000D02*
D03*
X2410000D02*
D03*
X2460000D02*
D03*
X2510000D02*
D03*
D27*
X2310000Y2300000D02*
D03*
X2360000D02*
D03*
X2410000D02*
D03*
X2310000Y2250000D02*
D03*
X2210000Y2150000D02*
D03*
X2260000D02*
D03*
X2310000D02*
D03*
X2110000Y2100000D02*
D03*
X2210000D02*
D03*
X2510000D02*
D03*
Y2050000D02*
D03*
Y1950000D02*
D03*
X2110000Y1900000D02*
D03*
X2160000Y1850000D02*
D03*
X2360000D02*
D03*
X2110000Y1800000D02*
D03*
D28*
X810000Y1225000D02*
D03*
Y1415000D02*
D03*
X590000Y1320000D02*
D03*
X810000Y555000D02*
D03*
Y745000D02*
D03*
X590000Y650000D02*
D03*
D29*
X590000Y1650000D02*
D03*
Y980000D02*
D03*
D30*
X750000Y1650000D02*
D03*
Y980000D02*
D03*
D31*
X490000Y270000D02*
D03*
D32*
X790000D02*
D03*
D33*
X1150000Y1840000D02*
D03*
Y1560000D02*
D03*
X910000D02*
D03*
Y1840000D02*
D03*
D43*
X157000Y2326000D02*
D03*
D44*
Y2126000D02*
D03*
Y1926000D02*
D03*
Y1726000D02*
D03*
Y1526000D02*
D03*
Y1326000D02*
D03*
Y1126000D02*
D03*
X403000Y2326000D02*
D03*
Y2126000D02*
D03*
Y1926000D02*
D03*
Y1726000D02*
D03*
Y1526000D02*
D03*
Y1326000D02*
D03*
Y1126000D02*
D03*
X157000Y926000D02*
D03*
Y726000D02*
D03*
X403000Y926000D02*
D03*
Y726000D02*
D03*
X157000Y526000D02*
D03*
X403000D02*
D03*
%TF.MD5,54c900b1783e69ff18f8fd52138c0c91*%
M02*
