%TF.GenerationSoftware,Altium Limited,Altium Designer,24.3.1 (35)*%
G04 Layer_Physical_Order=4*
G04 Layer_Color=16711680*
%FSLAX45Y45*%
%MOMM*%
%TF.SameCoordinates,49A6F1C3-9DA9-4727-8ECF-3BB51FF8743F*%
%TF.FilePolarity,Positive*%
%TF.FileFunction,Copper,L4,Bot,Signal*%
%TF.Part,Single*%
G01*
G75*
%TA.AperFunction,ConnectorPad*%
G04:AMPARAMS|DCode=10|XSize=2mm|YSize=3.8mm|CornerRadius=0.5mm|HoleSize=0mm|Usage=FLASHONLY|Rotation=270.000|XOffset=0mm|YOffset=0mm|HoleType=Round|Shape=RoundedRectangle|*
%AMROUNDEDRECTD10*
21,1,2.00000,2.80000,0,0,270.0*
21,1,1.00000,3.80000,0,0,270.0*
1,1,1.00000,-1.40000,-0.50000*
1,1,1.00000,-1.40000,0.50000*
1,1,1.00000,1.40000,0.50000*
1,1,1.00000,1.40000,-0.50000*
%
%ADD10ROUNDEDRECTD10*%
%TA.AperFunction,SMDPad,CuDef*%
G04:AMPARAMS|DCode=19|XSize=0.6mm|YSize=0.6mm|CornerRadius=0.15mm|HoleSize=0mm|Usage=FLASHONLY|Rotation=270.000|XOffset=0mm|YOffset=0mm|HoleType=Round|Shape=RoundedRectangle|*
%AMROUNDEDRECTD19*
21,1,0.60000,0.30000,0,0,270.0*
21,1,0.30000,0.60000,0,0,270.0*
1,1,0.30000,-0.15000,-0.15000*
1,1,0.30000,-0.15000,0.15000*
1,1,0.30000,0.15000,0.15000*
1,1,0.30000,0.15000,-0.15000*
%
%ADD19ROUNDEDRECTD19*%
%TA.AperFunction,Conductor*%
%ADD34C,0.15000*%
%ADD37C,0.20000*%
%TA.AperFunction,ComponentPad*%
G04:AMPARAMS|DCode=43|XSize=1.4mm|YSize=1.7mm|CornerRadius=0mm|HoleSize=0mm|Usage=FLASHONLY|Rotation=270.000|XOffset=0mm|YOffset=0mm|HoleType=Round|Shape=Octagon|*
%AMOCTAGOND43*
4,1,8,0.85000,0.35000,0.85000,-0.35000,0.50000,-0.70000,-0.50000,-0.70000,-0.85000,-0.35000,-0.85000,0.35000,-0.50000,0.70000,0.50000,0.70000,0.85000,0.35000,0.0*
%
%ADD43OCTAGOND43*%

G04:AMPARAMS|DCode=44|XSize=1.4mm|YSize=1.7mm|CornerRadius=0.35mm|HoleSize=0mm|Usage=FLASHONLY|Rotation=270.000|XOffset=0mm|YOffset=0mm|HoleType=Round|Shape=RoundedRectangle|*
%AMROUNDEDRECTD44*
21,1,1.40000,1.00000,0,0,270.0*
21,1,0.70000,1.70000,0,0,270.0*
1,1,0.70000,-0.50000,-0.35000*
1,1,0.70000,-0.50000,0.35000*
1,1,0.70000,0.50000,0.35000*
1,1,0.70000,0.50000,-0.35000*
%
%ADD44ROUNDEDRECTD44*%
%TA.AperFunction,ViaPad*%
%ADD45C,0.45000*%
G36*
X553634Y2461056D02*
X552030Y2458655D01*
X549314Y2444999D01*
Y2414999D01*
X552030Y2401342D01*
X559766Y2389765D01*
X560882Y2389019D01*
Y2370979D01*
X559766Y2370234D01*
X552031Y2358656D01*
X549314Y2345000D01*
Y2322576D01*
X524077Y2297339D01*
X509077Y2303552D01*
Y2361000D01*
X504808Y2382460D01*
X492653Y2400653D01*
X474460Y2412808D01*
X453000Y2417077D01*
X353000D01*
X331540Y2412808D01*
X313347Y2400653D01*
X301191Y2382460D01*
X296923Y2361000D01*
Y2291000D01*
X299988Y2275588D01*
X290506Y2260588D01*
X284001D01*
X283999Y2260588D01*
X272294Y2258259D01*
X262371Y2251629D01*
X229843Y2219101D01*
X229054Y2219474D01*
X226415Y2237316D01*
X267400Y2278300D01*
Y2313300D01*
X157000D01*
Y2326000D01*
X144300D01*
Y2421400D01*
X94300D01*
X58944Y2386044D01*
X43944Y2392257D01*
Y2476056D01*
X545616D01*
X553634Y2461056D01*
D02*
G37*
G36*
X2956055Y2245063D02*
X2941055Y2237046D01*
X2936583Y2240034D01*
X2920000Y2243332D01*
X2903417Y2240034D01*
X2895804Y2234947D01*
X2885000Y2231878D01*
X2874196Y2234947D01*
X2866583Y2240034D01*
X2850000Y2243332D01*
X2833417Y2240034D01*
X2819359Y2230640D01*
X2809966Y2216583D01*
X2806667Y2200000D01*
X2809966Y2183417D01*
X2819359Y2169359D01*
X2833417Y2159966D01*
X2850000Y2156668D01*
X2866583Y2159966D01*
X2874196Y2165053D01*
X2885000Y2168121D01*
X2895804Y2165053D01*
X2903417Y2159966D01*
X2920000Y2156668D01*
X2936583Y2159966D01*
X2941055Y2162954D01*
X2956055Y2154937D01*
Y1561269D01*
X2941055Y1553251D01*
X2929420Y1561025D01*
X2900000Y1566877D01*
X2772700D01*
Y1440000D01*
Y1313123D01*
X2900000D01*
X2929420Y1318975D01*
X2941055Y1326749D01*
X2956055Y1318731D01*
Y961269D01*
X2941055Y953251D01*
X2929420Y961026D01*
X2900000Y966877D01*
X2772700D01*
Y840000D01*
Y713123D01*
X2900000D01*
X2929420Y718975D01*
X2941055Y726749D01*
X2956055Y718731D01*
Y650001D01*
Y299999D01*
X2956164Y299449D01*
X2950913Y259563D01*
X2935305Y221881D01*
X2910476Y189524D01*
X2878118Y164695D01*
X2840437Y149087D01*
X2814295Y145645D01*
X2800000Y143944D01*
Y143944D01*
X2283195D01*
X2277454Y157802D01*
X2324946Y205293D01*
X2325946Y206790D01*
X2332361Y208066D01*
X2346418Y217460D01*
X2355812Y231517D01*
X2359110Y248100D01*
X2355812Y264683D01*
X2346418Y278741D01*
X2332361Y288134D01*
X2315778Y291432D01*
X2299195Y288134D01*
X2295378Y285584D01*
X2280640Y280641D01*
X2266583Y290034D01*
X2250000Y293332D01*
X2233417Y290034D01*
X2219360Y280641D01*
X2209966Y266583D01*
X2206668Y250000D01*
X2207278Y246931D01*
X2180674Y220326D01*
X2057031D01*
X2052546Y228718D01*
X2050414Y235326D01*
X2053332Y250000D01*
X2050034Y266583D01*
X2040641Y280641D01*
X2026583Y290034D01*
X2010000Y293332D01*
X2009573Y293248D01*
X1998039Y303448D01*
Y330235D01*
X2013039Y339047D01*
X2025002Y336667D01*
X2041585Y339966D01*
X2055643Y349359D01*
X2065036Y363417D01*
X2068335Y379999D01*
X2065036Y396582D01*
X2055643Y410640D01*
X2041585Y420033D01*
X2026663Y423001D01*
X2023794Y425249D01*
X2017682Y434942D01*
X2019741Y438605D01*
X2026583Y439966D01*
X2040641Y449360D01*
X2050034Y463417D01*
X2053332Y480000D01*
X2050034Y496583D01*
X2040641Y510641D01*
X2026583Y520034D01*
X2010000Y523332D01*
X1993417Y520034D01*
X1979360Y510641D01*
X1969966Y496583D01*
X1966822Y480777D01*
X1965850Y479374D01*
X1960040Y474923D01*
X1955387Y475741D01*
X1944666Y481173D01*
X1942099Y494081D01*
X1932706Y508139D01*
X1918648Y517533D01*
X1902065Y520831D01*
X1886321Y517699D01*
X1885246Y517676D01*
X1871321Y526110D01*
Y619429D01*
X1885179Y625169D01*
X1932240Y578108D01*
X1941336Y572030D01*
X1952066Y569895D01*
X1990121D01*
X1991860Y567293D01*
X2005918Y557900D01*
X2022500Y554601D01*
X2039083Y557900D01*
X2053141Y567293D01*
X2056457Y572256D01*
X2071997Y568514D01*
X2074218Y557347D01*
X2083612Y543289D01*
X2097669Y533896D01*
X2114252Y530598D01*
X2130835Y533896D01*
X2144893Y543289D01*
X2154286Y557347D01*
X2157584Y573930D01*
X2154286Y590513D01*
X2144893Y604571D01*
X2130835Y613964D01*
X2114252Y617262D01*
X2097669Y613964D01*
X2083612Y604571D01*
X2080296Y599608D01*
X2064755Y603350D01*
X2062534Y614516D01*
X2053141Y628574D01*
X2039083Y637968D01*
X2022500Y641266D01*
X2005918Y637968D01*
X1991860Y628574D01*
X1990121Y625972D01*
X1963680D01*
X1671549Y918104D01*
X1677289Y931962D01*
X2068091D01*
X2070711Y918792D01*
X2080104Y904734D01*
X2094162Y895340D01*
X2110745Y892042D01*
X2127327Y895340D01*
X2141385Y904734D01*
X2150779Y918792D01*
X2154077Y935374D01*
X2150779Y951957D01*
X2141385Y966015D01*
X2127327Y975408D01*
X2110745Y978707D01*
X2102571Y977081D01*
X2099826Y979826D01*
X2090730Y985904D01*
X2080000Y988039D01*
X1795709D01*
X1787691Y1003039D01*
X1790342Y1007006D01*
X1793641Y1023589D01*
X1790342Y1040171D01*
X1788039Y1043619D01*
Y1071908D01*
X1788656Y1072031D01*
X1800234Y1079766D01*
X1800980Y1080883D01*
X1819020D01*
X1819766Y1079766D01*
X1831344Y1072031D01*
X1845000Y1069314D01*
X1875000D01*
X1888656Y1072031D01*
X1900233Y1079766D01*
X1907969Y1091344D01*
X1910686Y1105000D01*
Y1135000D01*
X1907969Y1148656D01*
X1900233Y1160234D01*
X1888656Y1167969D01*
X1888586Y1167983D01*
Y1369452D01*
X1886452Y1380182D01*
X1880374Y1389279D01*
X1872722Y1396931D01*
X1873332Y1400000D01*
X1870034Y1416582D01*
X1883608Y1419374D01*
X1886583Y1419966D01*
X1900641Y1429359D01*
X1910034Y1443417D01*
X1913332Y1460000D01*
X1910034Y1476583D01*
X1900641Y1490640D01*
X1898038Y1492379D01*
Y1511908D01*
X1898656Y1512031D01*
X1910233Y1519766D01*
X1917969Y1531344D01*
X1920686Y1545000D01*
Y1575000D01*
X1917969Y1588656D01*
X1910233Y1600234D01*
X1898656Y1607969D01*
X1885000Y1610686D01*
X1855000D01*
X1841344Y1607969D01*
X1829766Y1600234D01*
X1829020Y1599117D01*
X1810980D01*
X1810234Y1600234D01*
X1798656Y1607969D01*
X1785000Y1610686D01*
X1755000D01*
X1741344Y1607969D01*
X1731100Y1601125D01*
X1720000Y1603332D01*
X1703417Y1600034D01*
X1689360Y1590640D01*
X1683039Y1581181D01*
X1668039Y1585731D01*
Y1635793D01*
X1671007Y1636384D01*
X1685065Y1645777D01*
X1694458Y1659835D01*
X1697757Y1676418D01*
X1694458Y1693000D01*
X1685065Y1707058D01*
X1671007Y1716451D01*
X1654424Y1719750D01*
X1649634Y1718797D01*
X1638039Y1728313D01*
Y1931908D01*
X1638656Y1932031D01*
X1650234Y1939767D01*
X1650980Y1940883D01*
X1669020D01*
X1669766Y1939767D01*
X1681344Y1932031D01*
X1695000Y1929314D01*
X1725000D01*
X1738656Y1932031D01*
X1750233Y1939767D01*
X1757969Y1951344D01*
X1760686Y1965000D01*
Y1995000D01*
X1757969Y2008656D01*
X1750233Y2020234D01*
X1749117Y2020980D01*
Y2039020D01*
X1750233Y2039766D01*
X1757969Y2051344D01*
X1760686Y2065000D01*
Y2095000D01*
X1757969Y2108656D01*
X1750233Y2120234D01*
X1740588Y2126679D01*
Y2163321D01*
X1750234Y2169766D01*
X1750980Y2170883D01*
X1769020D01*
X1769766Y2169766D01*
X1781344Y2162031D01*
X1795000Y2159314D01*
X1825000D01*
X1838373Y2161974D01*
X2030174Y1970174D01*
X2039270Y1964096D01*
X2050000Y1961962D01*
X2200000D01*
X2210730Y1964096D01*
X2219826Y1970174D01*
X2264449Y2014796D01*
X2270527Y2023893D01*
X2272661Y2034622D01*
X2274174Y2036581D01*
X2287459Y2044946D01*
X2290562Y2044249D01*
X2298736Y2032015D01*
X2312794Y2022622D01*
X2329377Y2019323D01*
X2345959Y2022622D01*
X2360017Y2032015D01*
X2369411Y2046073D01*
X2372709Y2062656D01*
X2369411Y2079238D01*
X2360017Y2093296D01*
X2345959Y2102690D01*
X2329377Y2105988D01*
X2323091Y2120032D01*
X2321921Y2125910D01*
X2312528Y2139968D01*
X2298470Y2149361D01*
X2281887Y2152660D01*
X2265305Y2149361D01*
X2251247Y2139968D01*
X2241854Y2125910D01*
X2239505Y2114102D01*
X2239172Y2114168D01*
X2223597Y2111070D01*
X2218941Y2110918D01*
X2209793Y2114707D01*
X2206440Y2118119D01*
X2198405Y2130144D01*
X2205967Y2141462D01*
X2208308Y2153229D01*
X2211240Y2154444D01*
X2227823Y2151145D01*
X2244405Y2154444D01*
X2258463Y2163837D01*
X2267835Y2177863D01*
X2281058Y2175233D01*
X2297641Y2178531D01*
X2311699Y2187925D01*
X2321092Y2201983D01*
X2324391Y2218565D01*
X2321092Y2235148D01*
X2311699Y2249206D01*
X2297641Y2258599D01*
X2281058Y2261898D01*
X2264476Y2258599D01*
X2250418Y2249206D01*
X2241046Y2235180D01*
X2227823Y2237810D01*
X2211828Y2234629D01*
X2204471Y2245640D01*
X2190413Y2255033D01*
X2173831Y2258332D01*
X2157248Y2255033D01*
X2143190Y2245640D01*
X2133797Y2231582D01*
X2130498Y2214999D01*
X2133797Y2198416D01*
X2138754Y2190997D01*
X2135293Y2188685D01*
X2125899Y2174627D01*
X2122601Y2158044D01*
X2125899Y2141462D01*
X2134590Y2128455D01*
X2127028Y2117138D01*
X2123729Y2100555D01*
X2126660Y2085823D01*
X2121662Y2077810D01*
X2116821Y2072249D01*
X2067404D01*
X2026906Y2112747D01*
X2031843Y2129023D01*
X2036583Y2129966D01*
X2050641Y2139359D01*
X2060034Y2153417D01*
X2063332Y2170000D01*
X2060034Y2186583D01*
X2050641Y2200641D01*
X2036583Y2210034D01*
X2020000Y2213332D01*
X2003417Y2210034D01*
X1989359Y2200641D01*
X1979966Y2186583D01*
X1979023Y2181843D01*
X1962747Y2176905D01*
X1849826Y2289826D01*
X1840730Y2295904D01*
X1830000Y2298039D01*
X1661614D01*
X1660686Y2298967D01*
Y2325000D01*
X1657969Y2338656D01*
X1650234Y2350234D01*
X1638656Y2357969D01*
X1625000Y2360686D01*
X1595000D01*
X1581344Y2357969D01*
X1574855Y2353634D01*
X1564041Y2364448D01*
X1570034Y2373417D01*
X1573332Y2390000D01*
X1571570Y2398861D01*
X1581838Y2413861D01*
X2195379D01*
X2197349Y2403956D01*
X2204900Y2392656D01*
X2202530Y2381598D01*
X2199905Y2376427D01*
X2191097Y2374675D01*
X2177039Y2365282D01*
X2167646Y2351224D01*
X2164347Y2334641D01*
X2167646Y2318058D01*
X2177039Y2304000D01*
X2191097Y2294607D01*
X2207680Y2291309D01*
X2224262Y2294607D01*
X2228975Y2297756D01*
X2242406Y2303187D01*
X2256464Y2293794D01*
X2273047Y2290495D01*
X2289629Y2293794D01*
X2303687Y2303187D01*
X2313080Y2317245D01*
X2316379Y2333828D01*
X2316372Y2333862D01*
X2330112Y2341672D01*
X2330393Y2341603D01*
X2343462Y2333883D01*
X2345818Y2322036D01*
X2355212Y2307978D01*
X2369270Y2298585D01*
X2385852Y2295286D01*
X2402435Y2298585D01*
X2416493Y2307978D01*
X2425886Y2322036D01*
X2429185Y2338619D01*
X2428512Y2342002D01*
X2428656Y2342031D01*
X2440234Y2349766D01*
X2447969Y2361344D01*
X2450686Y2375000D01*
Y2405000D01*
X2447969Y2418656D01*
X2442821Y2426361D01*
X2447727Y2439266D01*
X2449466Y2441361D01*
X2498986D01*
X2634462Y2305886D01*
Y2194029D01*
X2621683Y2182998D01*
X2620000Y2183332D01*
X2603417Y2180034D01*
X2589360Y2170641D01*
X2579966Y2156583D01*
X2576668Y2140000D01*
X2579966Y2123417D01*
X2589360Y2109360D01*
X2603417Y2099966D01*
X2620000Y2096668D01*
X2636583Y2099966D01*
X2650641Y2109360D01*
X2656961Y2118819D01*
X2671961Y2114269D01*
Y2049743D01*
X2669426Y2047705D01*
X2656961Y2043099D01*
X2646583Y2050034D01*
X2630000Y2053332D01*
X2613417Y2050034D01*
X2610431Y2048039D01*
X2510324D01*
X2500871Y2054355D01*
X2484288Y2057653D01*
X2467706Y2054355D01*
X2453648Y2044962D01*
X2444254Y2030904D01*
X2440956Y2014321D01*
X2444254Y1997739D01*
X2438629Y1979158D01*
X2434259Y1976238D01*
X2424865Y1962180D01*
X2421567Y1945597D01*
X2422262Y1942103D01*
X2408762Y1933082D01*
X2407998Y1933593D01*
X2391415Y1936892D01*
X2374833Y1933593D01*
X2360775Y1924200D01*
X2351381Y1910142D01*
X2348083Y1893559D01*
X2351381Y1876977D01*
X2360775Y1862919D01*
X2374833Y1853525D01*
X2391415Y1850227D01*
X2407998Y1853525D01*
X2418428Y1860495D01*
X2423813Y1852435D01*
X2437871Y1843042D01*
X2454454Y1839744D01*
X2470455Y1842926D01*
X2474293Y1839885D01*
X2482053Y1832363D01*
Y1808772D01*
X2467053Y1797891D01*
X2459498Y1799394D01*
X2442915Y1796096D01*
X2428857Y1786702D01*
X2428822Y1786649D01*
X1956063D01*
X1956062Y1786650D01*
X1944356Y1784321D01*
X1934433Y1777691D01*
X1920062Y1763320D01*
X1920000Y1763333D01*
X1903417Y1760034D01*
X1889359Y1750641D01*
X1879966Y1736583D01*
X1876668Y1720000D01*
X1879966Y1703417D01*
X1889359Y1689360D01*
X1903417Y1679966D01*
X1920000Y1676668D01*
X1936583Y1679966D01*
X1950640Y1689360D01*
X1960034Y1703417D01*
X1963332Y1720000D01*
X1976371Y1725474D01*
X2219646D01*
X2224196Y1710474D01*
X2224152Y1710444D01*
X2214759Y1696386D01*
X2211460Y1679804D01*
X2214759Y1663221D01*
X2224152Y1649163D01*
X2238210Y1639770D01*
X2254793Y1636471D01*
X2271375Y1639770D01*
X2285433Y1649163D01*
X2294826Y1663221D01*
X2294902Y1663601D01*
X2306389Y1668359D01*
X2322971Y1665061D01*
X2326040Y1665671D01*
X2487505Y1504207D01*
X2486668Y1500000D01*
X2489966Y1483417D01*
X2499359Y1469360D01*
X2513417Y1459966D01*
X2530000Y1456668D01*
X2531528Y1456971D01*
X2536733Y1452700D01*
X2747300D01*
Y1579015D01*
X2745722Y1581877D01*
X2748333Y1595000D01*
X2751873Y1599314D01*
X2765000D01*
X2778656Y1602031D01*
X2790234Y1609766D01*
X2797969Y1621344D01*
X2800686Y1635000D01*
Y1665000D01*
X2797969Y1678656D01*
X2790234Y1690234D01*
X2778656Y1697969D01*
X2765000Y1700686D01*
X2752572D01*
X2720588Y1732670D01*
Y1759324D01*
X2720640Y1759359D01*
X2730034Y1773417D01*
X2730625Y1776391D01*
X2733418Y1789966D01*
X2750000Y1786667D01*
X2766583Y1789966D01*
X2780641Y1799359D01*
X2790034Y1813417D01*
X2793332Y1830000D01*
X2790034Y1846583D01*
X2780641Y1860640D01*
X2766583Y1870034D01*
X2750000Y1873332D01*
X2733417Y1870034D01*
X2719360Y1860640D01*
X2709966Y1846583D01*
X2709375Y1843608D01*
X2706582Y1830034D01*
X2690000Y1833332D01*
X2673417Y1830034D01*
X2659359Y1820641D01*
X2649966Y1806583D01*
X2646668Y1790000D01*
X2649966Y1773417D01*
X2659359Y1759359D01*
X2659412Y1759324D01*
Y1720001D01*
X2659412Y1720000D01*
X2660270Y1715686D01*
X2650865Y1701736D01*
X2649124Y1700686D01*
X2635000D01*
X2621344Y1697969D01*
X2609767Y1690234D01*
X2602031Y1678656D01*
X2599359Y1665225D01*
X2592173Y1658039D01*
X2572379D01*
X2570641Y1660641D01*
X2556583Y1670034D01*
X2540000Y1673332D01*
X2527488Y1670844D01*
X2516697Y1677900D01*
X2513606Y1681519D01*
X2513889Y1684002D01*
X2517554Y1685392D01*
X2526798Y1687230D01*
X2540856Y1696624D01*
X2550249Y1710682D01*
X2553548Y1727264D01*
X2550249Y1743847D01*
X2540856Y1757905D01*
X2538131Y1759726D01*
Y1834714D01*
X2540733Y1836453D01*
X2550126Y1850511D01*
X2553424Y1867094D01*
X2550126Y1883676D01*
X2540733Y1897734D01*
X2533512Y1902559D01*
X2538062Y1917559D01*
X2645597D01*
X2656327Y1919693D01*
X2665423Y1925771D01*
X2719826Y1980174D01*
X2725904Y1989270D01*
X2728038Y2000000D01*
Y2012201D01*
X2743038Y2020219D01*
X2743417Y2019966D01*
X2760000Y2016668D01*
X2776583Y2019966D01*
X2790641Y2029359D01*
X2800034Y2043417D01*
X2803332Y2060000D01*
X2800034Y2076583D01*
X2790641Y2090640D01*
X2776583Y2100034D01*
X2760000Y2103332D01*
X2743417Y2100034D01*
X2743038Y2099781D01*
X2728038Y2107798D01*
Y2288266D01*
X2736583Y2289966D01*
X2750640Y2299359D01*
X2760034Y2313417D01*
X2763332Y2330000D01*
X2760034Y2346583D01*
X2750640Y2360640D01*
X2736583Y2370034D01*
X2720000Y2373332D01*
X2703417Y2370034D01*
X2689359Y2360640D01*
X2685701Y2355165D01*
X2667036Y2352616D01*
X2557455Y2462198D01*
X2563195Y2476056D01*
X2956055D01*
Y2245063D01*
D02*
G37*
G36*
X1423747Y1515651D02*
X1428452Y1516587D01*
X1440047Y1507071D01*
Y1041941D01*
X1442181Y1031211D01*
X1448259Y1022114D01*
X1815244Y655129D01*
Y509878D01*
X1812642Y508139D01*
X1809447Y503358D01*
X1791406D01*
X1788923Y507075D01*
X1774865Y516468D01*
X1758282Y519767D01*
X1741700Y516468D01*
X1728629Y507734D01*
X1717378Y515252D01*
X1700795Y518551D01*
X1684213Y515252D01*
X1670155Y505859D01*
X1664493Y497386D01*
X1660579Y496492D01*
X1647762Y497482D01*
X1640640Y508139D01*
X1626582Y517533D01*
X1610000Y520831D01*
X1593417Y517533D01*
X1579359Y508139D01*
X1569966Y494081D01*
X1566667Y477499D01*
X1569966Y460916D01*
X1579359Y446858D01*
X1581961Y445120D01*
Y371614D01*
X1547022Y336674D01*
X1540000Y338071D01*
X1523417Y334773D01*
X1509359Y325379D01*
X1499966Y311321D01*
X1496668Y294739D01*
X1497238Y291872D01*
X1487722Y280277D01*
X1442278D01*
X1432762Y291872D01*
X1433332Y294739D01*
X1430034Y311321D01*
X1420641Y325379D01*
X1406583Y334773D01*
X1390000Y338071D01*
X1373417Y334773D01*
X1359359Y325379D01*
X1354454Y318038D01*
X1141614D01*
X1053797Y405855D01*
Y634241D01*
X1051663Y644971D01*
X1045585Y654068D01*
X1033440Y666213D01*
Y769492D01*
X1048440Y778826D01*
X1059292Y776667D01*
X1075875Y779966D01*
X1089933Y789359D01*
X1099326Y803417D01*
X1102625Y820000D01*
X1099326Y836582D01*
X1089933Y850640D01*
X1088038Y851906D01*
Y924340D01*
X1085904Y935070D01*
X1079826Y944166D01*
X930129Y1093864D01*
X930739Y1096933D01*
X927441Y1113516D01*
X918047Y1127573D01*
X922729Y1142486D01*
X930034Y1153417D01*
X933332Y1170000D01*
X930034Y1186583D01*
X920641Y1200640D01*
X906583Y1210034D01*
X890000Y1213332D01*
X873417Y1210034D01*
X859359Y1200640D01*
X857621Y1198038D01*
X842717D01*
X810930Y1229826D01*
X810929Y1229827D01*
X805299Y1235456D01*
X811040Y1249314D01*
X815000D01*
X828656Y1252031D01*
X840234Y1259766D01*
X840980Y1260883D01*
X859020D01*
X859766Y1259766D01*
X871344Y1252031D01*
X885000Y1249314D01*
X915000D01*
X928656Y1252031D01*
X940234Y1259766D01*
X947969Y1271344D01*
X950081Y1281961D01*
X1058386D01*
X1142407Y1197941D01*
X1141533Y1192635D01*
X1136498Y1182636D01*
X1123417Y1180034D01*
X1109359Y1170641D01*
X1099966Y1156583D01*
X1096668Y1140000D01*
X1099966Y1123417D01*
X1109359Y1109359D01*
X1123417Y1099966D01*
X1127564Y1099141D01*
Y479540D01*
X1120000Y473332D01*
X1103417Y470034D01*
X1089360Y460640D01*
X1079966Y446583D01*
X1076668Y430000D01*
X1079966Y413417D01*
X1089360Y399359D01*
X1103417Y389966D01*
X1120000Y386668D01*
X1124551Y387573D01*
X1129767Y379766D01*
X1141344Y372031D01*
X1155000Y369314D01*
X1185000D01*
X1198656Y372031D01*
X1210234Y379766D01*
X1210980Y380883D01*
X1229020D01*
X1229766Y379766D01*
X1241344Y372031D01*
X1255000Y369314D01*
X1285000D01*
X1298656Y372031D01*
X1310234Y379766D01*
X1317969Y391344D01*
X1320686Y405000D01*
Y435000D01*
X1319177Y442586D01*
X1319825Y445845D01*
Y539995D01*
X1322427Y541733D01*
X1331820Y555791D01*
X1335119Y572374D01*
X1342987Y581961D01*
X1438173D01*
X1443453Y574060D01*
X1457511Y564667D01*
X1474093Y561368D01*
X1490676Y564667D01*
X1504734Y574060D01*
X1514127Y588118D01*
X1517426Y604701D01*
X1514127Y621283D01*
X1504734Y635341D01*
X1497478Y640189D01*
X1497464Y640223D01*
X1498233Y657361D01*
X1506156Y662655D01*
X1515549Y676713D01*
X1518848Y693296D01*
X1515549Y709878D01*
X1506156Y723936D01*
X1501676Y726930D01*
X1506010Y733416D01*
X1509308Y749999D01*
X1506010Y766582D01*
X1501307Y773619D01*
X1508140Y778185D01*
X1517534Y792243D01*
X1520832Y808826D01*
X1517534Y825408D01*
X1508140Y839466D01*
X1499747Y845075D01*
Y888292D01*
X1497612Y899022D01*
X1491534Y908118D01*
X1375539Y1024114D01*
Y1405990D01*
X1392326Y1422778D01*
X1398404Y1431874D01*
X1400538Y1442604D01*
Y1506710D01*
X1415539Y1517284D01*
X1423747Y1515651D01*
D02*
G37*
G36*
X67347Y451347D02*
X85540Y439191D01*
X107000Y434922D01*
X207000D01*
X221461Y437799D01*
X236462Y427871D01*
Y285500D01*
X238596Y274770D01*
X244674Y265674D01*
X283961Y226387D01*
X292453Y220713D01*
X299766Y209766D01*
X311344Y202031D01*
X325000Y199314D01*
X355000D01*
X368656Y202031D01*
X380234Y209766D01*
X380980Y210883D01*
X399020D01*
X399766Y209766D01*
X411344Y202031D01*
X425000Y199314D01*
X455000D01*
X468656Y202031D01*
X480233Y209766D01*
X487969Y221344D01*
X490686Y235000D01*
Y261033D01*
X491614Y261961D01*
X680431D01*
X683417Y259966D01*
X700000Y256668D01*
X716583Y259966D01*
X730641Y269359D01*
X740034Y283417D01*
X743333Y300000D01*
X742455Y304412D01*
X754765Y319412D01*
X797330D01*
X958941Y157802D01*
X953201Y143944D01*
X200000D01*
X199453Y143835D01*
X159563Y149087D01*
X121882Y164695D01*
X89524Y189524D01*
X64695Y221882D01*
X49087Y259563D01*
X43836Y299453D01*
X43944Y299999D01*
Y459373D01*
X58944Y463923D01*
X67347Y451347D01*
D02*
G37*
%LPC*%
G36*
X219700Y2421400D02*
X169700D01*
Y2338700D01*
X267400D01*
Y2373700D01*
X219700Y2421400D01*
D02*
G37*
G36*
X1952558Y2368333D02*
X1935975Y2365034D01*
X1921917Y2355641D01*
X1912524Y2341583D01*
X1909225Y2325000D01*
X1912524Y2308418D01*
X1921917Y2294360D01*
X1935975Y2284966D01*
X1952558Y2281668D01*
X1969140Y2284966D01*
X1983198Y2294360D01*
X1992592Y2308418D01*
X1995890Y2325000D01*
X1992592Y2341583D01*
X1983198Y2355641D01*
X1969140Y2365034D01*
X1952558Y2368333D01*
D02*
G37*
G36*
X2468052Y2236886D02*
X2451470Y2233588D01*
X2437412Y2224194D01*
X2428018Y2210137D01*
X2424720Y2193554D01*
X2428018Y2176971D01*
X2437411Y2162913D01*
X2431955Y2149560D01*
X2429966Y2146583D01*
X2426667Y2130000D01*
X2429966Y2113417D01*
X2439359Y2099360D01*
X2453417Y2089966D01*
X2470000Y2086668D01*
X2486583Y2089966D01*
X2500640Y2099360D01*
X2510034Y2113417D01*
X2513332Y2130000D01*
X2510034Y2146583D01*
X2500641Y2160641D01*
X2506097Y2173994D01*
X2508086Y2176971D01*
X2511385Y2193554D01*
X2508086Y2210137D01*
X2498693Y2224194D01*
X2484635Y2233588D01*
X2468052Y2236886D01*
D02*
G37*
G36*
X2139948Y1503384D02*
X2123365Y1500086D01*
X2109935Y1491112D01*
X2096583Y1500034D01*
X2080000Y1503332D01*
X2063417Y1500034D01*
X2049359Y1490640D01*
X2039966Y1476583D01*
X2036668Y1460000D01*
X2038070Y1452949D01*
X2023417Y1450034D01*
X2009359Y1440641D01*
X1999966Y1426583D01*
X1996668Y1410000D01*
X1999966Y1393417D01*
X2009359Y1379359D01*
X2023417Y1369966D01*
X2040000Y1366668D01*
X2056583Y1369966D01*
X2070641Y1379359D01*
X2080034Y1393417D01*
X2083332Y1410000D01*
X2081930Y1417051D01*
X2096583Y1419966D01*
X2110013Y1428940D01*
X2123365Y1420018D01*
X2139948Y1416720D01*
X2156531Y1420018D01*
X2170588Y1429411D01*
X2179982Y1443469D01*
X2183280Y1460052D01*
X2179982Y1476635D01*
X2170588Y1490692D01*
X2156531Y1500086D01*
X2139948Y1503384D01*
D02*
G37*
G36*
X2390000Y1513333D02*
X2373417Y1510034D01*
X2359360Y1500641D01*
X2349966Y1486583D01*
X2346668Y1470000D01*
X2349966Y1453417D01*
X2359360Y1439360D01*
X2373417Y1429966D01*
X2390000Y1426668D01*
X2406583Y1429966D01*
X2420641Y1439360D01*
X2430034Y1453417D01*
X2433332Y1470000D01*
X2430034Y1486583D01*
X2420641Y1500641D01*
X2406583Y1510034D01*
X2390000Y1513333D01*
D02*
G37*
G36*
X2747300Y1427300D02*
X2543123D01*
Y1390000D01*
X2548975Y1360580D01*
X2565640Y1335639D01*
X2590581Y1318975D01*
X2620000Y1313123D01*
X2747300D01*
Y1427300D01*
D02*
G37*
G36*
Y966877D02*
X2620000D01*
X2590581Y961026D01*
X2565640Y944361D01*
X2548975Y919420D01*
X2543123Y890000D01*
Y852700D01*
X2747300D01*
Y966877D01*
D02*
G37*
G36*
X2110236Y812556D02*
X2093653Y809258D01*
X2079595Y799865D01*
X2070202Y785807D01*
X2066903Y769224D01*
X2067012Y768679D01*
X2060101Y763694D01*
X2053197Y761243D01*
X2040959Y769420D01*
X2024376Y772719D01*
X2007793Y769420D01*
X1993735Y760027D01*
X1984342Y745969D01*
X1981044Y729386D01*
X1984342Y712804D01*
X1993735Y698746D01*
X2007793Y689352D01*
X2024376Y686054D01*
X2040959Y689352D01*
X2055016Y698746D01*
X2064410Y712804D01*
X2067708Y729386D01*
X2067600Y729931D01*
X2074511Y734916D01*
X2081415Y737368D01*
X2093653Y729190D01*
X2110236Y725892D01*
X2126818Y729190D01*
X2140876Y738583D01*
X2150270Y752641D01*
X2153568Y769224D01*
X2150270Y785807D01*
X2140876Y799865D01*
X2126818Y809258D01*
X2110236Y812556D01*
D02*
G37*
G36*
X2747300Y827300D02*
X2543123D01*
Y790000D01*
X2548975Y760580D01*
X2565640Y735640D01*
X2590581Y718975D01*
X2620000Y713123D01*
X2747300D01*
Y827300D01*
D02*
G37*
G36*
X2340000Y653332D02*
X2323417Y650034D01*
X2309359Y640641D01*
X2299966Y626583D01*
X2296667Y610000D01*
X2299966Y593417D01*
X2309359Y579360D01*
X2323417Y569966D01*
X2340000Y566668D01*
X2356583Y569966D01*
X2370640Y579360D01*
X2380034Y593417D01*
X2383332Y610000D01*
X2380034Y626583D01*
X2370640Y640641D01*
X2356583Y650034D01*
X2340000Y653332D01*
D02*
G37*
G36*
X1398915Y564648D02*
X1382332Y561350D01*
X1368274Y551956D01*
X1358881Y537898D01*
X1355582Y521316D01*
X1358881Y504733D01*
X1368274Y490675D01*
X1382332Y481282D01*
X1398915Y477983D01*
X1415497Y481282D01*
X1429555Y490675D01*
X1438949Y504733D01*
X1442247Y521316D01*
X1438949Y537898D01*
X1429555Y551956D01*
X1415497Y561350D01*
X1398915Y564648D01*
D02*
G37*
%LPD*%
D10*
X2760000Y840000D02*
D03*
Y1440000D02*
D03*
D19*
X1770000Y1560000D02*
D03*
X1870000D02*
D03*
X700000Y700000D02*
D03*
X600000D02*
D03*
Y600000D02*
D03*
X700000D02*
D03*
X1210000Y2380000D02*
D03*
X1110000D02*
D03*
X1710000Y2080000D02*
D03*
X1610000D02*
D03*
X440000Y250000D02*
D03*
X340000D02*
D03*
X2750000Y1650000D02*
D03*
X2650000D02*
D03*
X700000Y1100000D02*
D03*
X600000D02*
D03*
X700000Y1850000D02*
D03*
X600000D02*
D03*
X699999Y2429999D02*
D03*
X599999D02*
D03*
X930000Y2330000D02*
D03*
X830000D02*
D03*
X950000Y1980000D02*
D03*
X850000D02*
D03*
X700000Y2170000D02*
D03*
X600000D02*
D03*
X1410000Y2380000D02*
D03*
X1310000D02*
D03*
X1610000Y2310000D02*
D03*
X1510000D02*
D03*
X900000Y1690000D02*
D03*
X800000D02*
D03*
X1810000Y2210000D02*
D03*
X1710000D02*
D03*
X700000Y900000D02*
D03*
X600000D02*
D03*
X700000Y1300000D02*
D03*
X600000D02*
D03*
X900000Y1410000D02*
D03*
X800000D02*
D03*
X2300000Y2390000D02*
D03*
X2400000D02*
D03*
X700000Y1530000D02*
D03*
X600000D02*
D03*
X600000Y1750000D02*
D03*
X700000D02*
D03*
X1510000Y2210000D02*
D03*
X1610000D02*
D03*
X600000Y1430000D02*
D03*
X700000D02*
D03*
X1310000Y2280000D02*
D03*
X1410000D02*
D03*
X800000Y1590000D02*
D03*
X900000D02*
D03*
X600000Y2330000D02*
D03*
X700000D02*
D03*
X930000Y2230000D02*
D03*
X830000D02*
D03*
X700000Y500000D02*
D03*
X600000D02*
D03*
Y1000000D02*
D03*
X700000D02*
D03*
X440000Y350000D02*
D03*
X340000D02*
D03*
X1610000Y1980000D02*
D03*
X1710000D02*
D03*
X700000Y800000D02*
D03*
X600000D02*
D03*
X950000Y1880000D02*
D03*
X850000D02*
D03*
X700000Y2070000D02*
D03*
X600000D02*
D03*
X1760000Y1120000D02*
D03*
X1860000D02*
D03*
X600000Y1200000D02*
D03*
X700000D02*
D03*
X1170000Y420000D02*
D03*
X1270000D02*
D03*
X800000Y1300000D02*
D03*
X900000D02*
D03*
D34*
X1410000Y2420000D02*
X1431900Y2441900D01*
X2211097D02*
X2232458Y2420539D01*
X739401Y2469400D02*
X2510600D01*
X1431900Y2441900D02*
X2211097D01*
X1720000Y1560000D02*
X1770000D01*
X2530000Y1500000D02*
Y1501364D01*
X2322971Y1708393D02*
X2530000Y1501364D01*
X1550000Y1049798D02*
Y1120000D01*
X1639798Y960000D02*
X2080000D01*
X1550000Y1049798D02*
X1639798Y960000D01*
X1843282Y477499D02*
Y666743D01*
X1468085Y1041941D02*
X1843282Y666743D01*
X1468085Y1041941D02*
Y1811915D01*
X1500000Y1050000D02*
Y1656213D01*
X1952066Y597934D02*
X2022500D01*
X1500000Y1050000D02*
X1952066Y597934D01*
X2080000Y960000D02*
X2104626Y935374D01*
X2110745D01*
X1150000Y430000D02*
X1155603Y435603D01*
X1060000Y810000D02*
Y924340D01*
X1155603Y435603D02*
X1160000Y440000D01*
X1155603Y435603D02*
Y1116279D01*
Y434397D02*
Y435603D01*
X2010000Y480000D02*
X2010060Y480060D01*
X1970000Y440000D02*
X2010000Y480000D01*
X1830000Y290000D02*
Y399570D01*
X1762238Y222238D02*
X1830000Y290000D01*
X1190000Y750000D02*
Y1190000D01*
X900001Y1310000D02*
X1070000D01*
X1190000Y1190000D01*
X1870000Y1460000D02*
X1870000Y1460000D01*
X1870000Y1460000D02*
Y1560000D01*
X1830000Y1400000D02*
X1860547Y1369452D01*
Y1120548D02*
Y1369452D01*
X1640000Y1526168D02*
Y1653876D01*
Y1526168D02*
X1765237Y1400931D01*
X1610000Y1490000D02*
Y1980000D01*
Y1490000D02*
X1700000Y1400000D01*
X1645851Y1030297D02*
Y1048087D01*
X1581592Y1458408D02*
X1645594Y1394406D01*
X1645851Y1030297D02*
X1651592Y1024557D01*
X1645594Y1048344D02*
X1645851Y1048087D01*
X1645594Y1048344D02*
Y1394406D01*
X920000Y1520000D02*
X1001424Y1601425D01*
X751109Y1520000D02*
X920000D01*
X1001424Y1601425D02*
X1024749D01*
X1030489Y1607165D01*
X902850Y1692851D02*
X1150963D01*
X900000Y1690000D02*
X902850Y1692851D01*
X1150963D02*
X1272521Y1571293D01*
X1083245Y1656754D02*
X1297570Y1442429D01*
X900000Y1590000D02*
X966754Y1656754D01*
X1083245D01*
X783155Y1778131D02*
X1028131D01*
X1030000Y1780000D01*
X1272056Y1897655D02*
X1275452Y1894259D01*
X1246391Y1897655D02*
X1272056D01*
X1295563Y1938625D02*
X1420000Y1814188D01*
X1111375Y1938625D02*
X1295563D01*
X1420000Y1562731D02*
Y1814188D01*
X1244046Y1900000D02*
X1246391Y1897655D01*
X1100000Y1900000D02*
X1244046D01*
X980000Y2070000D02*
X1111375Y1938625D01*
X990000Y2290000D02*
X1468085Y1811915D01*
X990000Y2290000D02*
Y2354140D01*
X1181221Y1730000D02*
X1330000Y1581221D01*
X990000Y1730000D02*
X1181221D01*
X1330000Y1500000D02*
Y1581221D01*
X1372500Y1442604D02*
Y1584441D01*
X1076941Y1880000D02*
X1372500Y1584441D01*
X950000Y1880000D02*
X1076941D01*
X1347500Y1012500D02*
Y1417604D01*
X1372500Y1442604D01*
X1347500Y1012500D02*
X1471708Y888292D01*
X1420000Y1562731D02*
X1423747Y1558984D01*
X1136213Y1471740D02*
X1153787Y1454166D01*
X1166213D01*
X1166307Y1454260D02*
X1184260D01*
X1166213Y1454166D02*
X1166307Y1454260D01*
X1184260D02*
X1190000Y1460000D01*
X1471708Y832611D02*
Y888292D01*
X1471760Y814566D02*
Y832560D01*
Y814566D02*
X1477500Y808826D01*
X1471708Y832611D02*
X1471760Y832560D01*
X1902065Y471635D02*
Y477499D01*
X1830000Y399570D02*
X1902065Y471635D01*
X825359Y2415359D02*
X928780D01*
X990000Y2354140D01*
X1650000Y2270000D02*
X1830000D01*
X1610000Y2310000D02*
X1650000Y2270000D01*
X1830000D02*
X2055790Y2044210D01*
X1826516Y2193484D02*
X1846516D01*
X2050000Y1990000D01*
X1810000Y2210000D02*
X1826516Y2193484D01*
X2510600Y2469400D02*
X2662500Y2317500D01*
Y2176747D02*
Y2317500D01*
X2510092Y1727356D02*
Y1867094D01*
X1140000Y1131882D02*
Y1140000D01*
X1155603Y434397D02*
X1170000Y420000D01*
X1140000Y1131882D02*
X1155603Y1116279D01*
X1150000Y426929D02*
Y430000D01*
X1125000Y425000D02*
X1148071D01*
X1150000Y426929D01*
X1120000Y430000D02*
X1125000Y425000D01*
X1260000Y915035D02*
X1357061Y817974D01*
X1260000Y915035D02*
Y1246213D01*
X1190000Y750000D02*
X1330000Y610000D01*
X1230000Y750000D02*
Y1200000D01*
Y750000D02*
X1307609Y672391D01*
X1240000Y1266213D02*
X1260000Y1246213D01*
X1540000Y1950000D02*
X1581592Y1908408D01*
Y1458408D02*
Y1908408D01*
X1610000Y2150000D02*
Y2210000D01*
X831103Y1170000D02*
X890000D01*
X850052Y940052D02*
X970000Y820104D01*
Y638014D02*
Y820104D01*
X1005401Y654599D02*
X1025759Y634241D01*
X979948Y619948D02*
Y628066D01*
X1025759Y394241D02*
Y634241D01*
X970000Y638014D02*
X979948Y628066D01*
X1005401Y654599D02*
Y905885D01*
X729156Y1182130D02*
X1005401Y905885D01*
X855802Y802828D02*
Y804198D01*
X765000Y895000D02*
X855802Y804198D01*
X1307609Y672391D02*
X1367609D01*
X887407Y1096933D02*
X1060000Y924340D01*
X1025759Y394241D02*
X1130000Y290000D01*
X741516Y988484D02*
X930000Y800000D01*
Y420000D02*
Y800000D01*
X681882Y290000D02*
X691882Y300000D01*
X700000D01*
X440000Y250000D02*
X480000Y290000D01*
X681882D01*
X1520000Y1676213D02*
Y1680000D01*
X1500000Y1656213D02*
X1520000Y1676213D01*
X741740Y1471740D02*
X1136213D01*
X1190000Y1240000D02*
Y1310000D01*
Y1240000D02*
X1230000Y1200000D01*
X1240000Y1266213D02*
Y1270000D01*
X1297570Y966390D02*
Y1442429D01*
X740000Y2330000D02*
X825359Y2415359D01*
X700000Y2330000D02*
X740000D01*
X1126486Y1997126D02*
X1131500Y1992112D01*
X1102875Y1997126D02*
X1126486D01*
X930000Y2170000D02*
Y2230000D01*
Y2170000D02*
X1102875Y1997126D01*
X930000Y420000D02*
X1097762Y252239D01*
X462215Y1080479D02*
X547500Y995194D01*
Y969467D02*
Y995194D01*
X425523Y1080479D02*
X462215D01*
X379999Y1126002D02*
X425523Y1080479D01*
X1270000Y420000D02*
Y424059D01*
X1291786Y445845D01*
Y572374D01*
X1970000Y290000D02*
X2010000Y250000D01*
X1970000Y290000D02*
Y440000D01*
X740000Y1100000D02*
X830000Y1010000D01*
X700000Y1100000D02*
X740000D01*
X711516Y988484D02*
X741516D01*
X700000Y1000000D02*
X711516Y988484D01*
X705000Y895000D02*
X765000D01*
X750000Y820000D02*
X860000Y710000D01*
X731287Y820000D02*
X750000D01*
X860000Y540000D02*
Y710000D01*
X717870Y817870D02*
X729157D01*
X700000Y800000D02*
X717870Y817870D01*
X729157D02*
X731287Y820000D01*
X791103Y1210000D02*
X831103Y1170000D01*
X850000Y1360000D02*
X900000Y1410000D01*
X850000Y1354174D02*
Y1360000D01*
X1390528Y866449D02*
Y873433D01*
X1297570Y966390D02*
X1390528Y873433D01*
X2540000Y1630000D02*
X2603787D01*
X2623787Y1650000D01*
X2650000D01*
X2189739Y189739D02*
X2250000Y250000D01*
X2233100Y153100D02*
X2305119Y225119D01*
Y229324D01*
X2315778Y239982D01*
X2133100Y153100D02*
X2233100D01*
X2315778Y239982D02*
Y248100D01*
X1540000Y294739D02*
X1544739D01*
X1610000Y360000D01*
X1385261Y290000D02*
X1390000Y294739D01*
X1097762Y252239D02*
X1572239D01*
X1640000Y320000D01*
X1130000Y290000D02*
X1385261D01*
X1640000Y320000D02*
Y414423D01*
X2720000Y2326213D02*
Y2330000D01*
X2700000Y2000000D02*
Y2306213D01*
X2645597Y1945597D02*
X2700000Y2000000D01*
Y2306213D02*
X2720000Y2326213D01*
X2625753Y2140000D02*
X2662500Y2176747D01*
X2464899Y1945597D02*
X2645597D01*
X1750308Y1031707D02*
X1760000Y1041398D01*
X1750308Y1023589D02*
Y1031707D01*
X1760000Y1041398D02*
Y1120000D01*
X1640000Y414423D02*
X1700795Y475218D01*
X1610000Y360000D02*
Y477499D01*
X1330000Y610000D02*
X1460031D01*
X1367609Y672391D02*
X1370000Y670000D01*
X970000Y1750000D02*
X990000Y1730000D01*
X700000Y1750000D02*
X970000D01*
X729156Y1832130D02*
X783155Y1778131D01*
X700000Y2070000D02*
X980000D01*
X950000Y1980000D02*
X1019999D01*
X1100000Y1900000D01*
X700000Y1430000D02*
X741740Y1471740D01*
X1654424Y1668300D02*
Y1676418D01*
X1640000Y1653876D02*
X1654424Y1668300D01*
X1410000Y2380000D02*
Y2420000D01*
X900000Y2364059D02*
X930000Y2334059D01*
X900000Y2364059D02*
Y2370000D01*
X930000Y2330000D02*
Y2334059D01*
X743713Y1512604D02*
X751109Y1520000D01*
X700000Y1530000D02*
X717396Y1512604D01*
X743713D01*
X860000Y540000D02*
X880000Y520000D01*
X1410000Y2224408D02*
X1410565Y2223843D01*
X1410000Y2224408D02*
Y2280000D01*
X2385852Y2338619D02*
X2400000Y2352767D01*
Y2390000D01*
X2200000Y1990000D02*
X2244622Y2034623D01*
Y2065385D01*
X2239172Y2070836D02*
X2244622Y2065385D01*
X2489967Y2020000D02*
X2611882D01*
X2484288Y2014321D02*
X2489967Y2020000D01*
X2611882D02*
X2621882Y2010000D01*
X2232458Y2420539D02*
X2237383D01*
X2273047Y2333828D02*
X2278787Y2339568D01*
Y2364728D02*
X2301769Y2387710D01*
X2278787Y2339568D02*
Y2364728D01*
X2301769Y2387710D02*
Y2387981D01*
X700000Y1300000D02*
X701103D01*
X791103Y1210000D01*
X700000Y1200000D02*
X717870Y1182130D01*
X729156D01*
X742962Y2170740D02*
X753411Y2160291D01*
X700740Y2170740D02*
X742962D01*
X753411Y2160291D02*
X761529D01*
X700000Y2170000D02*
X700740Y2170740D01*
X717870Y1832130D02*
X729156D01*
X700000Y1850000D02*
X717870Y1832130D01*
X2055790Y2044210D02*
X2155597D01*
X2050000Y1990000D02*
X2200000D01*
X700000Y2429999D02*
X739401Y2469400D01*
X2620000Y2140000D02*
X2625753D01*
X2621882Y2010000D02*
X2630000D01*
X699999Y2429999D02*
X700000D01*
X700000Y900000D02*
X705000Y895000D01*
X600000Y900000D02*
Y916967D01*
Y800000D02*
Y900000D01*
X547500Y969467D02*
X600000Y916967D01*
X510500Y964041D02*
X540000Y934541D01*
X475317Y1020000D02*
X510500Y984817D01*
X540000Y797743D02*
Y934541D01*
X510500Y964041D02*
Y984817D01*
X286002Y1020000D02*
X475317D01*
X540500Y749500D02*
Y797243D01*
X510500Y667183D02*
Y784817D01*
X452817Y842500D02*
X510500Y784817D01*
X540000Y797743D02*
X540500Y797243D01*
Y749500D02*
X572130Y717870D01*
X510000Y666682D02*
X510500Y667183D01*
X510000Y590000D02*
Y666682D01*
X572130Y717870D02*
X582130D01*
X510000Y590000D02*
X600000Y500000D01*
X582130Y717870D02*
X600000Y700000D01*
X599999Y609998D02*
Y700000D01*
X452817Y842500D02*
Y887183D01*
X414003Y925998D02*
X452817Y887183D01*
X379999Y925998D02*
X414003D01*
X253659Y686341D02*
X264500Y675500D01*
X219658Y686341D02*
X253659D01*
X180000Y726000D02*
X219658Y686341D01*
X264500Y285500D02*
Y675500D01*
Y285500D02*
X303787Y246213D01*
X294500Y395500D02*
Y803500D01*
Y395500D02*
X340000Y350000D01*
X180000Y918000D02*
Y926000D01*
Y918000D02*
X294500Y803500D01*
X336213Y246213D02*
X340000Y250000D01*
X303787Y246213D02*
X336213D01*
X379999Y725998D02*
X419999D01*
X180000Y1126002D02*
X286002Y1020000D01*
D37*
X830000Y2240000D02*
Y2340000D01*
X487530Y1670000D02*
X800000D01*
Y1376405D02*
Y1420000D01*
X2733087Y1662400D02*
X2750000Y1645486D01*
X1190000Y2380000D02*
X1310000D01*
X849996Y1979996D02*
Y1979999D01*
Y1890001D02*
Y1979996D01*
X850000Y1980000D01*
X810000Y1940000D02*
X849996Y1979996D01*
X1077762Y222238D02*
X1762238D01*
X1054783Y2374783D02*
X1104783D01*
X1110000Y2380000D01*
X1050000Y2370000D02*
X1054783Y2374783D01*
X1956062Y1756062D02*
X2459220D01*
X1920000Y1720000D02*
X1956062Y1756062D01*
X2733087Y1662400D02*
Y1676913D01*
X2690000Y1720000D02*
X2733087Y1676913D01*
X2690000Y1720000D02*
Y1790000D01*
X1573180Y2096820D02*
X1593180D01*
X1540000Y2130000D02*
X1573180Y2096820D01*
X1593180D02*
X1610000Y2080000D01*
X1314216Y2130000D02*
X1540000D01*
X440000Y350000D02*
X810000D01*
X1006900Y153100D02*
X2133100D01*
X810000Y350000D02*
X1006900Y153100D01*
X1314425Y2170000D02*
X1470000D01*
X1308042Y2176383D02*
X1314425Y2170000D01*
X1301277Y2176383D02*
X1308042D01*
X1290000Y2120000D02*
X1294783Y2124783D01*
X1308999D01*
X1314216Y2130000D01*
X583087Y1116913D02*
X600000Y1100000D01*
X495999Y1217946D02*
X583087Y1130858D01*
X495999Y1217946D02*
Y1250002D01*
X583087Y1116913D02*
Y1130858D01*
X700000Y600000D02*
X1077762Y222238D01*
X741820Y488181D02*
X1040262Y189738D01*
X2189739D01*
X700000Y500000D02*
X711819Y488181D01*
X741820D01*
X800000Y1310001D02*
Y1376405D01*
Y1310001D02*
X800001Y1310000D01*
X548000Y1376405D02*
Y1400350D01*
X540000Y1408350D02*
X548000Y1400350D01*
X800000Y1670000D02*
Y1690000D01*
Y1590000D02*
Y1670000D01*
X1190000Y2380000D02*
X1190000Y2380000D01*
X1310000D02*
Y2380000D01*
Y2280000D02*
Y2380000D01*
X800000Y1420000D02*
X800000Y1420000D01*
X788284Y1364689D02*
X800000Y1376405D01*
X559716Y1364689D02*
X788284D01*
X560000Y2240000D02*
X820000D01*
X700000Y700849D02*
X740000Y740849D01*
Y741698D01*
X700000Y700000D02*
Y700849D01*
X1710000Y1980000D02*
Y2080000D01*
Y2210000D01*
X1710000Y2210000D01*
X1470000Y2170000D02*
X1510000Y2210000D01*
Y2310000D01*
X600000Y1430000D02*
Y1530000D01*
X600000Y1530000D02*
X600000Y1530000D01*
X548000Y1376405D02*
X559716Y1364689D01*
X490567Y2170567D02*
X560000Y2240000D01*
X600000Y1750000D02*
Y1850000D01*
X379999Y1926001D02*
X393998Y1940000D01*
X810000D01*
X380000Y1726000D02*
X431530D01*
X487530Y1670000D01*
X477470Y1622530D02*
X558180Y1541820D01*
X276528Y1622530D02*
X477470D01*
X180000Y1526002D02*
X276528Y1622530D01*
X588180Y1541820D02*
X600000Y1530000D01*
X558180Y1541820D02*
X588180D01*
X510000Y1383934D02*
Y1388852D01*
Y1383934D02*
X513000Y1380934D01*
Y1337000D02*
Y1380934D01*
X477851Y1421002D02*
X510000Y1388852D01*
X513000Y1337000D02*
X550000Y1300000D01*
X600000D01*
X275000Y1421002D02*
X477851D01*
X424000Y1526000D02*
X540000Y1410000D01*
Y1408350D02*
Y1410000D01*
X380000Y1526000D02*
X424000D01*
X600000Y1200000D02*
Y1290000D01*
Y1000000D02*
Y1100000D01*
X599999Y2069999D02*
Y2170001D01*
X379999Y2126000D02*
X424566Y2170567D01*
X490567D01*
X599999Y2330003D02*
Y2430000D01*
X499996Y2230000D02*
X599999Y2330003D01*
X283999Y2230000D02*
X499996D01*
X478852Y2030000D02*
X518850Y2069998D01*
X283999Y2030000D02*
X478852D01*
X180000Y1926001D02*
X283999Y2030000D01*
X280000Y1830000D02*
X590000D01*
X518850Y2069998D02*
X579999D01*
X180000Y2126000D02*
X283999Y2230000D01*
X180000Y1726001D02*
Y1730000D01*
X280000Y1830000D01*
X180000Y1326002D02*
X275000Y1421002D01*
X419999Y1326002D02*
X495999Y1250002D01*
X379999Y1326002D02*
X419999D01*
D43*
X157000Y2326000D02*
D03*
D44*
Y2126000D02*
D03*
Y1926000D02*
D03*
Y1726000D02*
D03*
Y1526000D02*
D03*
Y1326000D02*
D03*
Y1126000D02*
D03*
X403000Y2326000D02*
D03*
Y2126000D02*
D03*
Y1926000D02*
D03*
Y1726000D02*
D03*
Y1526000D02*
D03*
Y1326000D02*
D03*
Y1126000D02*
D03*
X157000Y926000D02*
D03*
Y726000D02*
D03*
X403000Y926000D02*
D03*
Y726000D02*
D03*
X157000Y526000D02*
D03*
X403000D02*
D03*
D45*
X1530000Y2390000D02*
D03*
X2530000Y1500000D02*
D03*
X2004367Y1012374D02*
D03*
X1534895Y910710D02*
D03*
X1950052Y660052D02*
D03*
X1700000Y917500D02*
D03*
X1900000Y550000D02*
D03*
X2920000Y910000D02*
D03*
Y770000D02*
D03*
X2600000D02*
D03*
Y910000D02*
D03*
X2610000Y1370000D02*
D03*
Y1510000D02*
D03*
X2920000D02*
D03*
Y1370000D02*
D03*
X2110745Y935374D02*
D03*
X2172923Y921919D02*
D03*
X2321965Y784435D02*
D03*
X2340000Y610000D02*
D03*
X2288739Y918354D02*
D03*
X2230000D02*
D03*
X2242319Y783563D02*
D03*
X2177139Y784086D02*
D03*
X2350000Y920000D02*
D03*
X1545544Y678085D02*
D03*
X1700000Y560000D02*
D03*
X2923572Y265363D02*
D03*
X2540000Y170000D02*
D03*
X2930000Y580000D02*
D03*
Y2450000D02*
D03*
X2040000Y1410000D02*
D03*
X2080000Y1460000D02*
D03*
X880000Y180000D02*
D03*
X130000Y230000D02*
D03*
X2580000Y1050000D02*
D03*
X2420000Y1160000D02*
D03*
X2440000Y1230000D02*
D03*
X2600000Y1270000D02*
D03*
X2920000Y1260000D02*
D03*
Y1040000D02*
D03*
X2640000Y1010000D02*
D03*
X2580000Y970000D02*
D03*
X2520000Y760000D02*
D03*
X2448491Y768052D02*
D03*
X2376166Y766832D02*
D03*
X2007012Y798218D02*
D03*
X1050000Y2370000D02*
D03*
X1870000Y1460000D02*
D03*
X1830000Y1400000D02*
D03*
X1765237Y1400931D02*
D03*
X1700000Y1400000D02*
D03*
X1030489Y1607165D02*
D03*
X1029485Y1539926D02*
D03*
X1030000Y1780000D02*
D03*
X1275452Y1894259D02*
D03*
X1272521Y1571293D02*
D03*
X1330000Y1500000D02*
D03*
X1423747Y1558984D02*
D03*
X1190000Y1460000D02*
D03*
X1475515Y693296D02*
D03*
X1465976Y749999D02*
D03*
X1477500Y808826D02*
D03*
X2391415Y1893559D02*
D03*
X1877104Y384739D02*
D03*
X2030633Y1329628D02*
D03*
X2020000Y2170000D02*
D03*
X2510092Y1867094D02*
D03*
X1110000Y710000D02*
D03*
X1220000Y570000D02*
D03*
X1120000Y430000D02*
D03*
X1540000Y1950000D02*
D03*
X1610000Y2150000D02*
D03*
X890000Y1170000D02*
D03*
X850052Y940052D02*
D03*
X979948Y619948D02*
D03*
X1059292Y820000D02*
D03*
X855802Y802828D02*
D03*
X887407Y1096933D02*
D03*
X700000Y300000D02*
D03*
X1520000Y1680000D02*
D03*
X1190000Y1310000D02*
D03*
X1390000Y1400000D02*
D03*
X1240000Y1270000D02*
D03*
X1720000Y1560000D02*
D03*
X1716235Y1660834D02*
D03*
X810000Y690000D02*
D03*
X2340000Y1190000D02*
D03*
X2540000Y1570000D02*
D03*
X1992500Y899999D02*
D03*
X2400000Y1090000D02*
D03*
X2498576Y1291824D02*
D03*
X1069175Y2102286D02*
D03*
X1301277Y2176383D02*
D03*
X1290000Y2120000D02*
D03*
X537566Y2360811D02*
D03*
X1072500Y1110000D02*
D03*
X1140000Y1140000D02*
D03*
X534822Y1110902D02*
D03*
X1900000Y250000D02*
D03*
X2010000D02*
D03*
X2200000Y320000D02*
D03*
X2110236Y769224D02*
D03*
X2024376Y729386D02*
D03*
X1790000Y1220000D02*
D03*
X2390000Y1470000D02*
D03*
X830000Y1010000D02*
D03*
X850000Y1354174D02*
D03*
X1590087Y1309539D02*
D03*
X1390528Y866449D02*
D03*
X1392258Y772505D02*
D03*
X1357061Y817974D02*
D03*
X2705000Y1595000D02*
D03*
X2540000Y1630000D02*
D03*
X2254793Y1679804D02*
D03*
X2460000Y1680000D02*
D03*
X2690000Y1790000D02*
D03*
X2250000Y250000D02*
D03*
X2315778Y248100D02*
D03*
X1390000Y294739D02*
D03*
X1540000D02*
D03*
X1650000Y267238D02*
D03*
X1720000D02*
D03*
X2750000Y1830000D02*
D03*
X2760000Y2060000D02*
D03*
X2850000Y2200000D02*
D03*
X2920000D02*
D03*
X2720000Y2330000D02*
D03*
X1550000Y1120000D02*
D03*
X1843282Y477499D02*
D03*
X1291786Y572374D02*
D03*
X1370000Y670000D02*
D03*
X1651592Y1024557D02*
D03*
X2022500Y597934D02*
D03*
X2010000Y480000D02*
D03*
X2114252Y573930D02*
D03*
X1777989Y375811D02*
D03*
X1610000Y477499D02*
D03*
X1654424Y1676418D02*
D03*
X1131500Y1992112D02*
D03*
X900000Y2370000D02*
D03*
X1474093Y604701D02*
D03*
X880000Y520000D02*
D03*
X1410565Y2223843D02*
D03*
X2025002Y379999D02*
D03*
X2322971Y1708393D02*
D03*
X2385852Y2338619D02*
D03*
X2159948Y1900052D02*
D03*
X2329377Y2062656D02*
D03*
X2281887Y2109328D02*
D03*
X2239172Y2070836D02*
D03*
X2281058Y2218565D02*
D03*
X2227823Y2194478D02*
D03*
X2173831Y2214999D02*
D03*
X2459498Y1756062D02*
D03*
X2454454Y1883076D02*
D03*
X2464899Y1945597D02*
D03*
X2484288Y2014321D02*
D03*
X1920000Y1720000D02*
D03*
X2553760Y1772201D02*
D03*
X2237383Y2420539D02*
D03*
X2150233Y2332155D02*
D03*
X2207680Y2334641D02*
D03*
X2165933Y2158044D02*
D03*
X2167062Y2100555D02*
D03*
X2273047Y2333828D02*
D03*
X2139948Y1460052D02*
D03*
X1700795Y475218D02*
D03*
X1758282Y476434D02*
D03*
X1750308Y1023589D02*
D03*
X2547500Y2350000D02*
D03*
X761529Y2160291D02*
D03*
X1398915Y521316D02*
D03*
X740000Y741698D02*
D03*
X1770000Y2024782D02*
D03*
X2620000Y2200000D02*
D03*
Y2140000D02*
D03*
X2630000Y2010000D02*
D03*
X2155597Y2044210D02*
D03*
X1902065Y477499D02*
D03*
X2510215Y1727264D02*
D03*
X1952558Y2325000D02*
D03*
X2468052Y2193554D02*
D03*
X2470000Y2130000D02*
D03*
%TF.MD5,6c48f1f243070e1b8a0be31b7376a533*%
M02*
