%TF.GenerationSoftware,Altium Limited,Altium Designer,24.3.1 (35)*%
G04 Layer_Color=2752767*
%FSLAX45Y45*%
%MOMM*%
%TF.SameCoordinates,49A6F1C3-9DA9-4727-8ECF-3BB51FF8743F*%
%TF.FilePolarity,Positive*%
%TF.FileFunction,Drawing*%
%TF.Part,Single*%
G01*
G75*
%TA.AperFunction,NonConductor*%
%ADD129C,0.16933*%
%ADD131C,0.12700*%
D129*
X230800Y2326000D02*
G03*
X230800Y2326000I-50800J0D01*
G01*
Y2126000D02*
G03*
X230800Y2126000I-50800J0D01*
G01*
Y1926000D02*
G03*
X230800Y1926000I-50800J0D01*
G01*
Y1726000D02*
G03*
X230800Y1726000I-50800J0D01*
G01*
Y1526000D02*
G03*
X230800Y1526000I-50800J0D01*
G01*
Y1326000D02*
G03*
X230800Y1326000I-50800J0D01*
G01*
Y1126000D02*
G03*
X230800Y1126000I-50800J0D01*
G01*
X430800Y2326000D02*
G03*
X430800Y2326000I-50800J0D01*
G01*
Y2126000D02*
G03*
X430800Y2126000I-50800J0D01*
G01*
Y1926000D02*
G03*
X430800Y1926000I-50800J0D01*
G01*
Y1726000D02*
G03*
X430800Y1726000I-50800J0D01*
G01*
Y1526000D02*
G03*
X430800Y1526000I-50800J0D01*
G01*
Y1326000D02*
G03*
X430800Y1326000I-50800J0D01*
G01*
Y1126000D02*
G03*
X430800Y1126000I-50800J0D01*
G01*
X230800Y926000D02*
G03*
X230800Y926000I-50800J0D01*
G01*
Y726000D02*
G03*
X230800Y726000I-50800J0D01*
G01*
X430800Y926000D02*
G03*
X430800Y926000I-50800J0D01*
G01*
Y726000D02*
G03*
X430800Y726000I-50800J0D01*
G01*
X230800Y526000D02*
G03*
X230800Y526000I-50800J0D01*
G01*
X430800D02*
G03*
X430800Y526000I-50800J0D01*
G01*
D131*
X1479200Y2339200D02*
Y2440800D01*
X1580800D01*
Y2339200D01*
X1479200D01*
X2479200Y1449200D02*
Y1550800D01*
X2580800D01*
Y1449200D01*
X2479200D01*
X1953567Y961574D02*
Y1063174D01*
X2055167D01*
Y961574D01*
X1953567D01*
X1484095Y859910D02*
Y961510D01*
X1585695D01*
Y859910D01*
X1484095D01*
X1899252Y609252D02*
Y710852D01*
X2000852D01*
Y609252D01*
X1899252D01*
X1649200Y866700D02*
Y968300D01*
X1750800D01*
Y866700D01*
X1649200D01*
X1849200Y499200D02*
Y600800D01*
X1950800D01*
Y499200D01*
X1849200D01*
X2869200Y859200D02*
Y960800D01*
X2970800D01*
Y859200D01*
X2869200D01*
Y719200D02*
Y820800D01*
X2970800D01*
Y719200D01*
X2869200D01*
X2549200D02*
Y820800D01*
X2650800D01*
Y719200D01*
X2549200D01*
Y859200D02*
Y960800D01*
X2650800D01*
Y859200D01*
X2549200D01*
X2559200Y1319200D02*
Y1420800D01*
X2660800D01*
Y1319200D01*
X2559200D01*
Y1459200D02*
Y1560800D01*
X2660800D01*
Y1459200D01*
X2559200D01*
X2869200D02*
Y1560800D01*
X2970800D01*
Y1459200D01*
X2869200D01*
Y1319200D02*
Y1420800D01*
X2970800D01*
Y1319200D01*
X2869200D01*
X2059945Y884574D02*
Y986174D01*
X2161545D01*
Y884574D01*
X2059945D01*
X2122123Y871119D02*
Y972719D01*
X2223723D01*
Y871119D01*
X2122123D01*
X2271165Y733635D02*
Y835235D01*
X2372765D01*
Y733635D01*
X2271165D01*
X2289200Y559200D02*
Y660800D01*
X2390800D01*
Y559200D01*
X2289200D01*
X2237939Y867554D02*
Y969154D01*
X2339539D01*
Y867554D01*
X2237939D01*
X2179200D02*
Y969154D01*
X2280800D01*
Y867554D01*
X2179200D01*
X2191519Y732763D02*
Y834363D01*
X2293119D01*
Y732763D01*
X2191519D01*
X2126339Y733286D02*
Y834886D01*
X2227939D01*
Y733286D01*
X2126339D01*
X2299200Y869200D02*
Y970800D01*
X2400800D01*
Y869200D01*
X2299200D01*
X1494744Y627285D02*
Y728885D01*
X1596344D01*
Y627285D01*
X1494744D01*
X1649200Y509200D02*
Y610800D01*
X1750800D01*
Y509200D01*
X1649200D01*
X2872772Y214563D02*
Y316163D01*
X2974372D01*
Y214563D01*
X2872772D01*
X2489200Y119200D02*
Y220800D01*
X2590800D01*
Y119200D01*
X2489200D01*
X2879200Y529200D02*
Y630800D01*
X2980800D01*
Y529200D01*
X2879200D01*
Y2399200D02*
Y2500800D01*
X2980800D01*
Y2399200D01*
X2879200D01*
X1989200Y1359200D02*
Y1460800D01*
X2090800D01*
Y1359200D01*
X1989200D01*
X2029200Y1409200D02*
Y1510800D01*
X2130800D01*
Y1409200D01*
X2029200D01*
X829200Y129200D02*
Y230800D01*
X930800D01*
Y129200D01*
X829200D01*
X79200Y179200D02*
Y280800D01*
X180800D01*
Y179200D01*
X79200D01*
X2529200Y999200D02*
Y1100800D01*
X2630800D01*
Y999200D01*
X2529200D01*
X2369200Y1109200D02*
Y1210800D01*
X2470800D01*
Y1109200D01*
X2369200D01*
X2389200Y1179200D02*
Y1280800D01*
X2490800D01*
Y1179200D01*
X2389200D01*
X2549200Y1219200D02*
Y1320800D01*
X2650800D01*
Y1219200D01*
X2549200D01*
X2869200Y1209200D02*
Y1310800D01*
X2970800D01*
Y1209200D01*
X2869200D01*
Y989200D02*
Y1090800D01*
X2970800D01*
Y989200D01*
X2869200D01*
X2589200Y959200D02*
Y1060800D01*
X2690800D01*
Y959200D01*
X2589200D01*
X2529200Y919200D02*
Y1020800D01*
X2630800D01*
Y919200D01*
X2529200D01*
X2469200Y709200D02*
Y810800D01*
X2570800D01*
Y709200D01*
X2469200D01*
X2397691Y717252D02*
Y818852D01*
X2499291D01*
Y717252D01*
X2397691D01*
X2325366Y716032D02*
Y817632D01*
X2426966D01*
Y716032D01*
X2325366D01*
X1956212Y747418D02*
Y849018D01*
X2057812D01*
Y747418D01*
X1956212D01*
X999200Y2319200D02*
Y2420800D01*
X1100800D01*
Y2319200D01*
X999200D01*
X1819200Y1409200D02*
Y1510800D01*
X1920800D01*
Y1409200D01*
X1819200D01*
X1779200Y1349200D02*
Y1450800D01*
X1880800D01*
Y1349200D01*
X1779200D01*
X1714437Y1350131D02*
Y1451731D01*
X1816037D01*
Y1350131D01*
X1714437D01*
X1649200Y1349200D02*
Y1450800D01*
X1750800D01*
Y1349200D01*
X1649200D01*
X979689Y1556365D02*
Y1657965D01*
X1081289D01*
Y1556365D01*
X979689D01*
X978685Y1489126D02*
Y1590726D01*
X1080285D01*
Y1489126D01*
X978685D01*
X979200Y1729200D02*
Y1830800D01*
X1080800D01*
Y1729200D01*
X979200D01*
X1224652Y1843459D02*
Y1945059D01*
X1326252D01*
Y1843459D01*
X1224652D01*
X1221721Y1520493D02*
Y1622093D01*
X1323321D01*
Y1520493D01*
X1221721D01*
X1279200Y1449200D02*
Y1550800D01*
X1380800D01*
Y1449200D01*
X1279200D01*
X1372947Y1508184D02*
Y1609784D01*
X1474547D01*
Y1508184D01*
X1372947D01*
X1139200Y1409200D02*
Y1510800D01*
X1240800D01*
Y1409200D01*
X1139200D01*
X1424715Y642496D02*
Y744096D01*
X1526315D01*
Y642496D01*
X1424715D01*
X1415176Y699199D02*
Y800799D01*
X1516776D01*
Y699199D01*
X1415176D01*
X1426700Y758026D02*
Y859626D01*
X1528300D01*
Y758026D01*
X1426700D01*
X2340615Y1842759D02*
Y1944359D01*
X2442215D01*
Y1842759D01*
X2340615D01*
X1826304Y333939D02*
Y435539D01*
X1927904D01*
Y333939D01*
X1826304D01*
X1979833Y1278828D02*
Y1380428D01*
X2081433D01*
Y1278828D01*
X1979833D01*
X1969200Y2119200D02*
Y2220800D01*
X2070800D01*
Y2119200D01*
X1969200D01*
X2459292Y1816294D02*
Y1917894D01*
X2560892D01*
Y1816294D01*
X2459292D01*
X1059200Y659200D02*
Y760800D01*
X1160800D01*
Y659200D01*
X1059200D01*
X1169200Y519200D02*
Y620800D01*
X1270800D01*
Y519200D01*
X1169200D01*
X1069200Y379200D02*
Y480800D01*
X1170800D01*
Y379200D01*
X1069200D01*
X1489200Y1899200D02*
Y2000800D01*
X1590800D01*
Y1899200D01*
X1489200D01*
X1559200Y2099200D02*
Y2200800D01*
X1660800D01*
Y2099200D01*
X1559200D01*
X839200Y1119200D02*
Y1220800D01*
X940800D01*
Y1119200D01*
X839200D01*
X799252Y889252D02*
Y990852D01*
X900852D01*
Y889252D01*
X799252D01*
X929148Y569148D02*
Y670748D01*
X1030748D01*
Y569148D01*
X929148D01*
X1008492Y769200D02*
Y870800D01*
X1110092D01*
Y769200D01*
X1008492D01*
X805002Y752028D02*
Y853628D01*
X906602D01*
Y752028D01*
X805002D01*
X836607Y1046133D02*
Y1147733D01*
X938207D01*
Y1046133D01*
X836607D01*
X649200Y249200D02*
Y350800D01*
X750800D01*
Y249200D01*
X649200D01*
X1469200Y1629200D02*
Y1730800D01*
X1570800D01*
Y1629200D01*
X1469200D01*
X1139200Y1259200D02*
Y1360800D01*
X1240800D01*
Y1259200D01*
X1139200D01*
X1339200Y1349200D02*
Y1450800D01*
X1440800D01*
Y1349200D01*
X1339200D01*
X1189200Y1219200D02*
Y1320800D01*
X1290800D01*
Y1219200D01*
X1189200D01*
X1669200Y1509200D02*
Y1610800D01*
X1770800D01*
Y1509200D01*
X1669200D01*
X1665435Y1610034D02*
Y1711634D01*
X1767035D01*
Y1610034D01*
X1665435D01*
X759200Y639200D02*
Y740800D01*
X860800D01*
Y639200D01*
X759200D01*
X2289200Y1139200D02*
Y1240800D01*
X2390800D01*
Y1139200D01*
X2289200D01*
X2489200Y1519200D02*
Y1620800D01*
X2590800D01*
Y1519200D01*
X2489200D01*
X1941700Y849199D02*
Y950799D01*
X2043300D01*
Y849199D01*
X1941700D01*
X2349200Y1039200D02*
Y1140800D01*
X2450800D01*
Y1039200D01*
X2349200D01*
X2447776Y1241024D02*
Y1342624D01*
X2549376D01*
Y1241024D01*
X2447776D01*
X1018375Y2051486D02*
Y2153086D01*
X1119975D01*
Y2051486D01*
X1018375D01*
X1250477Y2125583D02*
Y2227183D01*
X1352077D01*
Y2125583D01*
X1250477D01*
X1239200Y2069200D02*
Y2170800D01*
X1340800D01*
Y2069200D01*
X1239200D01*
X486766Y2310011D02*
Y2411611D01*
X588366D01*
Y2310011D01*
X486766D01*
X1021700Y1059200D02*
Y1160800D01*
X1123300D01*
Y1059200D01*
X1021700D01*
X1089200Y1089200D02*
Y1190800D01*
X1190800D01*
Y1089200D01*
X1089200D01*
X484022Y1060102D02*
Y1161702D01*
X585622D01*
Y1060102D01*
X484022D01*
X1849200Y199200D02*
Y300800D01*
X1950800D01*
Y199200D01*
X1849200D01*
X1959200D02*
Y300800D01*
X2060800D01*
Y199200D01*
X1959200D01*
X2149200Y269200D02*
Y370800D01*
X2250800D01*
Y269200D01*
X2149200D01*
X2059436Y718424D02*
Y820024D01*
X2161036D01*
Y718424D01*
X2059436D01*
X1973576Y678586D02*
Y780186D01*
X2075176D01*
Y678586D01*
X1973576D01*
X1739200Y1169200D02*
Y1270800D01*
X1840800D01*
Y1169200D01*
X1739200D01*
X2339200Y1419200D02*
Y1520800D01*
X2440800D01*
Y1419200D01*
X2339200D01*
X779200Y959200D02*
Y1060800D01*
X880800D01*
Y959200D01*
X779200D01*
X799200Y1303374D02*
Y1404974D01*
X900800D01*
Y1303374D01*
X799200D01*
X1539287Y1258739D02*
Y1360339D01*
X1640887D01*
Y1258739D01*
X1539287D01*
X1339728Y815649D02*
Y917249D01*
X1441328D01*
Y815649D01*
X1339728D01*
X1341458Y721705D02*
Y823305D01*
X1443058D01*
Y721705D01*
X1341458D01*
X1306261Y767174D02*
Y868774D01*
X1407861D01*
Y767174D01*
X1306261D01*
X2654200Y1544200D02*
Y1645800D01*
X2755800D01*
Y1544200D01*
X2654200D01*
X2489200Y1579200D02*
Y1680800D01*
X2590800D01*
Y1579200D01*
X2489200D01*
X2203993Y1629004D02*
Y1730604D01*
X2305593D01*
Y1629004D01*
X2203993D01*
X2409200Y1629200D02*
Y1730800D01*
X2510800D01*
Y1629200D01*
X2409200D01*
X2639200Y1739200D02*
Y1840800D01*
X2740800D01*
Y1739200D01*
X2639200D01*
X2199200Y199200D02*
Y300800D01*
X2300800D01*
Y199200D01*
X2199200D01*
X2264978Y197300D02*
Y298900D01*
X2366578D01*
Y197300D01*
X2264978D01*
X1339200Y243939D02*
Y345539D01*
X1440800D01*
Y243939D01*
X1339200D01*
X1489200D02*
Y345539D01*
X1590800D01*
Y243939D01*
X1489200D01*
X1599200Y216438D02*
Y318038D01*
X1700800D01*
Y216438D01*
X1599200D01*
X1669200D02*
Y318038D01*
X1770800D01*
Y216438D01*
X1669200D01*
X2699200Y1779200D02*
Y1880800D01*
X2800800D01*
Y1779200D01*
X2699200D01*
X2709200Y2009200D02*
Y2110800D01*
X2810800D01*
Y2009200D01*
X2709200D01*
X2799200Y2149200D02*
Y2250800D01*
X2900800D01*
Y2149200D01*
X2799200D01*
X2869200D02*
Y2250800D01*
X2970800D01*
Y2149200D01*
X2869200D01*
X2669200Y2279200D02*
Y2380800D01*
X2770800D01*
Y2279200D01*
X2669200D01*
X1499200Y1069200D02*
Y1170800D01*
X1600800D01*
Y1069200D01*
X1499200D01*
X1792482Y426699D02*
Y528299D01*
X1894082D01*
Y426699D01*
X1792482D01*
X1240986Y521574D02*
Y623174D01*
X1342586D01*
Y521574D01*
X1240986D01*
X1319200Y619200D02*
Y720800D01*
X1420800D01*
Y619200D01*
X1319200D01*
X1600792Y973757D02*
Y1075357D01*
X1702392D01*
Y973757D01*
X1600792D01*
X1971700Y547134D02*
Y648734D01*
X2073300D01*
Y547134D01*
X1971700D01*
X1959200Y429200D02*
Y530800D01*
X2060800D01*
Y429200D01*
X1959200D01*
X2063452Y523130D02*
Y624730D01*
X2165052D01*
Y523130D01*
X2063452D01*
X1727189Y325011D02*
Y426611D01*
X1828789D01*
Y325011D01*
X1727189D01*
X1559200Y426699D02*
Y528299D01*
X1660800D01*
Y426699D01*
X1559200D01*
X1603624Y1625618D02*
Y1727218D01*
X1705224D01*
Y1625618D01*
X1603624D01*
X1080700Y1941312D02*
Y2042912D01*
X1182300D01*
Y1941312D01*
X1080700D01*
X849200Y2319200D02*
Y2420800D01*
X950800D01*
Y2319200D01*
X849200D01*
X1423293Y553901D02*
Y655501D01*
X1524893D01*
Y553901D01*
X1423293D01*
X829200Y469200D02*
Y570800D01*
X930800D01*
Y469200D01*
X829200D01*
X1359765Y2173043D02*
Y2274643D01*
X1461365D01*
Y2173043D01*
X1359765D01*
X1974202Y329199D02*
Y430799D01*
X2075802D01*
Y329199D01*
X1974202D01*
X2272171Y1657593D02*
Y1759193D01*
X2373771D01*
Y1657593D01*
X2272171D01*
X2335052Y2287819D02*
Y2389419D01*
X2436652D01*
Y2287819D01*
X2335052D01*
X2109148Y1849252D02*
Y1950852D01*
X2210748D01*
Y1849252D01*
X2109148D01*
X2278577Y2011856D02*
Y2113456D01*
X2380177D01*
Y2011856D01*
X2278577D01*
X2231087Y2058528D02*
Y2160128D01*
X2332687D01*
Y2058528D01*
X2231087D01*
X2188372Y2020036D02*
Y2121636D01*
X2289972D01*
Y2020036D01*
X2188372D01*
X2230258Y2167765D02*
Y2269365D01*
X2331858D01*
Y2167765D01*
X2230258D01*
X2177023Y2143678D02*
Y2245278D01*
X2278623D01*
Y2143678D01*
X2177023D01*
X2123031Y2164199D02*
Y2265799D01*
X2224631D01*
Y2164199D01*
X2123031D01*
X2408698Y1705262D02*
Y1806862D01*
X2510298D01*
Y1705262D01*
X2408698D01*
X2403654Y1832276D02*
Y1933876D01*
X2505254D01*
Y1832276D01*
X2403654D01*
X2414099Y1894797D02*
Y1996397D01*
X2515699D01*
Y1894797D01*
X2414099D01*
X2433488Y1963521D02*
Y2065121D01*
X2535088D01*
Y1963521D01*
X2433488D01*
X1869200Y1669200D02*
Y1770800D01*
X1970800D01*
Y1669200D01*
X1869200D01*
X2502960Y1721401D02*
Y1823001D01*
X2604560D01*
Y1721401D01*
X2502960D01*
X2186583Y2369739D02*
Y2471339D01*
X2288183D01*
Y2369739D01*
X2186583D01*
X2099433Y2281355D02*
Y2382955D01*
X2201033D01*
Y2281355D01*
X2099433D01*
X2156880Y2283841D02*
Y2385441D01*
X2258480D01*
Y2283841D01*
X2156880D01*
X2115133Y2107244D02*
Y2208844D01*
X2216733D01*
Y2107244D01*
X2115133D01*
X2116262Y2049755D02*
Y2151355D01*
X2217862D01*
Y2049755D01*
X2116262D01*
X2222247Y2283028D02*
Y2384628D01*
X2323847D01*
Y2283028D01*
X2222247D01*
X2089148Y1409252D02*
Y1510852D01*
X2190748D01*
Y1409252D01*
X2089148D01*
X1649995Y424418D02*
Y526018D01*
X1751595D01*
Y424418D01*
X1649995D01*
X1707482Y425634D02*
Y527234D01*
X1809082D01*
Y425634D01*
X1707482D01*
X1699508Y972789D02*
Y1074389D01*
X1801108D01*
Y972789D01*
X1699508D01*
X2496700Y2299200D02*
Y2400800D01*
X2598300D01*
Y2299200D01*
X2496700D01*
X710729Y2109491D02*
Y2211091D01*
X812329D01*
Y2109491D01*
X710729D01*
X1348115Y470516D02*
Y572116D01*
X1449715D01*
Y470516D01*
X1348115D01*
X689200Y690898D02*
Y792498D01*
X790800D01*
Y690898D01*
X689200D01*
X1719200Y1973982D02*
Y2075582D01*
X1820800D01*
Y1973982D01*
X1719200D01*
X2569200Y2149200D02*
Y2250800D01*
X2670800D01*
Y2149200D01*
X2569200D01*
Y2089200D02*
Y2190800D01*
X2670800D01*
Y2089200D01*
X2569200D01*
X2579200Y1959200D02*
Y2060800D01*
X2680800D01*
Y1959200D01*
X2579200D01*
X2104797Y1993410D02*
Y2095010D01*
X2206397D01*
Y1993410D01*
X2104797D01*
X1851265Y426699D02*
Y528299D01*
X1952865D01*
Y426699D01*
X1851265D01*
X2459415Y1676464D02*
Y1778064D01*
X2561015D01*
Y1676464D01*
X2459415D01*
X1901758Y2274200D02*
Y2375800D01*
X2003358D01*
Y2274200D01*
X1901758D01*
X2417252Y2142754D02*
Y2244354D01*
X2518852D01*
Y2142754D01*
X2417252D01*
X2419200Y2079200D02*
Y2180800D01*
X2520800D01*
Y2079200D01*
X2419200D01*
%TF.MD5,ffcb63c30dc2651441b08a1d2f2f149d*%
M02*
