%TF.GenerationSoftware,Altium Limited,Altium Designer,24.3.1 (35)*%
G04 Layer_Color=8388736*
%FSLAX45Y45*%
%MOMM*%
%TF.SameCoordinates,49A6F1C3-9DA9-4727-8ECF-3BB51FF8743F*%
%TF.FilePolarity,Positive*%
%TF.FileFunction,Other,Top_Designator*%
%TF.Part,Single*%
G01*
G75*
%TA.AperFunction,NonConductor*%
%ADD124C,0.10000*%
D124*
X271670Y366620D02*
X263339Y374950D01*
X246678D01*
X238347Y366620D01*
Y333298D01*
X246678Y324967D01*
X263339D01*
X271670Y333298D01*
X321653Y324967D02*
X288331D01*
X321653Y358289D01*
Y366620D01*
X313322Y374950D01*
X296661D01*
X288331Y366620D01*
X636678Y1004992D02*
Y955008D01*
X661669D01*
X670000Y963339D01*
Y996661D01*
X661669Y1004992D01*
X636678D01*
X686661Y955008D02*
X703322D01*
X694992D01*
Y1004992D01*
X686661Y996661D01*
X256678Y2335008D02*
Y2384992D01*
X281669D01*
X290000Y2376661D01*
Y2360000D01*
X281669Y2351669D01*
X256678D01*
X306661Y2335008D02*
X323322D01*
X314992D01*
Y2384992D01*
X306661Y2376661D01*
X596678Y835008D02*
Y884992D01*
X621670D01*
X630000Y876661D01*
Y860000D01*
X621670Y851669D01*
X596678D01*
X613339D02*
X630000Y835008D01*
X646661D02*
X663323D01*
X654992D01*
Y884992D01*
X646661Y876661D01*
X598347Y405008D02*
Y454992D01*
X623339D01*
X631670Y446661D01*
Y430000D01*
X623339Y421669D01*
X598347D01*
X615008D02*
X631670Y405008D01*
X681653D02*
X648331D01*
X681653Y438331D01*
Y446661D01*
X673323Y454992D01*
X656661D01*
X648331Y446661D01*
X666678Y674992D02*
X700000D01*
X683339D01*
Y625008D01*
X716662D02*
X733323D01*
X724992D01*
Y674992D01*
X716662Y666661D01*
X1894992Y1568347D02*
X1845008D01*
Y1593339D01*
X1853338Y1601670D01*
X1870000D01*
X1878331Y1593339D01*
Y1568347D01*
Y1585008D02*
X1894992Y1601670D01*
X1853338Y1618331D02*
X1845008Y1626661D01*
Y1643323D01*
X1853338Y1651653D01*
X1861669D01*
X1870000Y1643323D01*
Y1634992D01*
Y1643323D01*
X1878331Y1651653D01*
X1886661D01*
X1894992Y1643323D01*
Y1626661D01*
X1886661Y1618331D01*
X598347Y296786D02*
Y246802D01*
X623339D01*
X631670Y255133D01*
Y288456D01*
X623339Y296786D01*
X598347D01*
X648331Y288456D02*
X656661Y296786D01*
X673323D01*
X681653Y288456D01*
Y280125D01*
X673323Y271794D01*
X664992D01*
X673323D01*
X681653Y263464D01*
Y255133D01*
X673323Y246802D01*
X656661D01*
X648331Y255133D01*
X1724992Y1208347D02*
X1675008D01*
Y1233338D01*
X1683339Y1241669D01*
X1700000D01*
X1708331Y1233338D01*
Y1208347D01*
Y1225008D02*
X1724992Y1241669D01*
X1675008Y1291653D02*
Y1258330D01*
X1700000D01*
X1691669Y1274991D01*
Y1283322D01*
X1700000Y1291653D01*
X1716661D01*
X1724992Y1283322D01*
Y1266661D01*
X1716661Y1258330D01*
X2698347Y1975008D02*
Y2024992D01*
X2723339D01*
X2731670Y2016661D01*
Y2000000D01*
X2723339Y1991669D01*
X2698347D01*
X2715008D02*
X2731670Y1975008D01*
X2781653Y2024992D02*
X2764992Y2016661D01*
X2748331Y2000000D01*
Y1983339D01*
X2756661Y1975008D01*
X2773323D01*
X2781653Y1983339D01*
Y1991669D01*
X2773323Y2000000D01*
X2748331D01*
X718347Y1085008D02*
Y1134992D01*
X743339D01*
X751670Y1126661D01*
Y1110000D01*
X743339Y1101669D01*
X718347D01*
X735008D02*
X751670Y1085008D01*
X768331Y1134992D02*
X801653D01*
Y1126661D01*
X768331Y1093339D01*
Y1085008D01*
X1753297Y2111670D02*
X1744967Y2103339D01*
Y2086678D01*
X1753297Y2078347D01*
X1786620D01*
X1794950Y2086678D01*
Y2103339D01*
X1786620Y2111670D01*
X1794950Y2153323D02*
X1744967D01*
X1769959Y2128331D01*
Y2161653D01*
X1753380Y1921670D02*
X1745049Y1913339D01*
Y1896678D01*
X1753380Y1888347D01*
X1786702D01*
X1795033Y1896678D01*
Y1913339D01*
X1786702Y1921670D01*
X1745049Y1971653D02*
Y1938331D01*
X1770041D01*
X1761710Y1954992D01*
Y1963322D01*
X1770041Y1971653D01*
X1786702D01*
X1795033Y1963322D01*
Y1946661D01*
X1786702Y1938331D01*
X2111469Y2432523D02*
X2103139Y2440854D01*
X2086477D01*
X2078147Y2432523D01*
Y2399201D01*
X2086477Y2390870D01*
X2103139D01*
X2111469Y2399201D01*
X2161453Y2440854D02*
X2144791Y2432523D01*
X2128130Y2415862D01*
Y2399201D01*
X2136461Y2390870D01*
X2153122D01*
X2161453Y2399201D01*
Y2407531D01*
X2153122Y2415862D01*
X2128130D01*
X2683297Y2201669D02*
X2674967Y2193339D01*
Y2176678D01*
X2683297Y2168347D01*
X2716620D01*
X2724950Y2176678D01*
Y2193339D01*
X2716620Y2201669D01*
X2674967Y2218331D02*
Y2251653D01*
X2683297D01*
X2716620Y2218331D01*
X2724950D01*
X1881669Y1806703D02*
X1873339Y1815033D01*
X1856678D01*
X1848347Y1806703D01*
Y1773380D01*
X1856678Y1765049D01*
X1873339D01*
X1881669Y1773380D01*
X1898330Y1806703D02*
X1906661Y1815033D01*
X1923322D01*
X1931653Y1806703D01*
Y1798372D01*
X1923322Y1790041D01*
X1931653Y1781710D01*
Y1773380D01*
X1923322Y1765049D01*
X1906661D01*
X1898330Y1773380D01*
Y1781710D01*
X1906661Y1790041D01*
X1898330Y1798372D01*
Y1806703D01*
X1906661Y1790041D02*
X1923322D01*
X1753380Y1601670D02*
X1745050Y1593339D01*
Y1576678D01*
X1753380Y1568347D01*
X1786703D01*
X1795033Y1576678D01*
Y1593339D01*
X1786703Y1601670D01*
Y1618331D02*
X1795033Y1626661D01*
Y1643323D01*
X1786703Y1651653D01*
X1753380D01*
X1745050Y1643323D01*
Y1626661D01*
X1753380Y1618331D01*
X1761711D01*
X1770041Y1626661D01*
Y1651653D01*
X620843Y2346702D02*
X612512Y2355033D01*
X595851D01*
X587520Y2346702D01*
Y2313380D01*
X595851Y2305049D01*
X612512D01*
X620843Y2313380D01*
X637504Y2305049D02*
X654165D01*
X645835D01*
Y2355033D01*
X637504Y2346702D01*
X679157D02*
X687488Y2355033D01*
X704149D01*
X712480Y2346702D01*
Y2313380D01*
X704149Y2305049D01*
X687488D01*
X679157Y2313380D01*
Y2346702D01*
X893339Y1679173D02*
X885008Y1670843D01*
Y1654182D01*
X893339Y1645851D01*
X926661D01*
X934992Y1654182D01*
Y1670843D01*
X926661Y1679173D01*
X934992Y1695835D02*
Y1712496D01*
Y1704165D01*
X885008D01*
X893339Y1695835D01*
X934992Y1737488D02*
Y1754149D01*
Y1745818D01*
X885008D01*
X893339Y1737488D01*
X620843Y2246703D02*
X612512Y2255033D01*
X595851D01*
X587520Y2246703D01*
Y2213380D01*
X595851Y2205049D01*
X612512D01*
X620843Y2213380D01*
X637504Y2205049D02*
X654165D01*
X645835D01*
Y2255033D01*
X637504Y2246703D01*
X712480Y2205049D02*
X679157D01*
X712480Y2238372D01*
Y2246703D01*
X704149Y2255033D01*
X687488D01*
X679157Y2246703D01*
X1433379Y1180843D02*
X1425049Y1172512D01*
Y1155851D01*
X1433379Y1147520D01*
X1466702D01*
X1475033Y1155851D01*
Y1172512D01*
X1466702Y1180843D01*
X1475033Y1197504D02*
Y1214165D01*
Y1205835D01*
X1425049D01*
X1433379Y1197504D01*
Y1239157D02*
X1425049Y1247488D01*
Y1264149D01*
X1433379Y1272480D01*
X1441710D01*
X1450041Y1264149D01*
Y1255818D01*
Y1264149D01*
X1458371Y1272480D01*
X1466702D01*
X1475033Y1264149D01*
Y1247488D01*
X1466702Y1239157D01*
X1133339Y1670843D02*
X1125008Y1662512D01*
Y1645851D01*
X1133339Y1637520D01*
X1166661D01*
X1174992Y1645851D01*
Y1662512D01*
X1166661Y1670843D01*
X1174992Y1687504D02*
Y1704165D01*
Y1695835D01*
X1125008D01*
X1133339Y1687504D01*
X1174992Y1754149D02*
X1125008D01*
X1150000Y1729157D01*
Y1762480D01*
X628347Y1689639D02*
Y1639655D01*
X653339D01*
X661669Y1647986D01*
Y1681309D01*
X653339Y1689639D01*
X628347D01*
X703322Y1639655D02*
Y1689639D01*
X678331Y1664647D01*
X711653D01*
X2474992Y1493355D02*
X2425008D01*
Y1518347D01*
X2433339Y1526678D01*
X2450000D01*
X2458331Y1518347D01*
Y1493355D01*
Y1510016D02*
X2474992Y1526678D01*
X2433339Y1543339D02*
X2425008Y1551669D01*
Y1568331D01*
X2433339Y1576661D01*
X2441669D01*
X2450000Y1568331D01*
Y1560000D01*
Y1568331D01*
X2458331Y1576661D01*
X2466661D01*
X2474992Y1568331D01*
Y1551669D01*
X2466661Y1543339D01*
X2433339Y1593322D02*
X2425008Y1601653D01*
Y1618314D01*
X2433339Y1626645D01*
X2466661D01*
X2474992Y1618314D01*
Y1601653D01*
X2466661Y1593322D01*
X2433339D01*
X2274992Y1501686D02*
X2225008D01*
Y1526678D01*
X2233339Y1535008D01*
X2250000D01*
X2258331Y1526678D01*
Y1501686D01*
Y1518347D02*
X2274992Y1535008D01*
X2233339Y1551669D02*
X2225008Y1560000D01*
Y1576661D01*
X2233339Y1584992D01*
X2241669D01*
X2250000Y1576661D01*
Y1568331D01*
Y1576661D01*
X2258331Y1584992D01*
X2266661D01*
X2274992Y1576661D01*
Y1560000D01*
X2266661Y1551669D01*
X2274992Y1601653D02*
Y1618314D01*
Y1609984D01*
X2225008D01*
X2233339Y1601653D01*
X2824992Y2253355D02*
X2775008D01*
Y2278347D01*
X2783339Y2286678D01*
X2800000D01*
X2808331Y2278347D01*
Y2253355D01*
Y2270016D02*
X2824992Y2286678D01*
X2783339Y2303339D02*
X2775008Y2311669D01*
Y2328331D01*
X2783339Y2336661D01*
X2791669D01*
X2800000Y2328331D01*
Y2320000D01*
Y2328331D01*
X2808331Y2336661D01*
X2816661D01*
X2824992Y2328331D01*
Y2311669D01*
X2816661Y2303339D01*
X2775008Y2386645D02*
Y2353322D01*
X2800000D01*
X2791669Y2369984D01*
Y2378314D01*
X2800000Y2386645D01*
X2816661D01*
X2824992Y2378314D01*
Y2361653D01*
X2816661Y2353322D01*
X2924992Y2253355D02*
X2875008D01*
Y2278347D01*
X2883339Y2286678D01*
X2900000D01*
X2908331Y2278347D01*
Y2253355D01*
Y2270016D02*
X2924992Y2286678D01*
X2883339Y2303339D02*
X2875008Y2311669D01*
Y2328331D01*
X2883339Y2336661D01*
X2891669D01*
X2900000Y2328331D01*
Y2320000D01*
Y2328331D01*
X2908331Y2336661D01*
X2916661D01*
X2924992Y2328331D01*
Y2311669D01*
X2916661Y2303339D01*
X2875008Y2386645D02*
X2883339Y2369984D01*
X2900000Y2353322D01*
X2916661D01*
X2924992Y2361653D01*
Y2378314D01*
X2916661Y2386645D01*
X2908331D01*
X2900000Y2378314D01*
Y2353322D01*
X2633355Y1625008D02*
Y1674992D01*
X2658347D01*
X2666678Y1666661D01*
Y1650000D01*
X2658347Y1641669D01*
X2633355D01*
X2650016D02*
X2666678Y1625008D01*
X2708331D02*
Y1674992D01*
X2683339Y1650000D01*
X2716661D01*
X2766645Y1674992D02*
X2733322D01*
Y1650000D01*
X2749984Y1658331D01*
X2758314D01*
X2766645Y1650000D01*
Y1633339D01*
X2758314Y1625008D01*
X2741653D01*
X2733322Y1633339D01*
X563355Y1505008D02*
Y1554992D01*
X588347D01*
X596678Y1546661D01*
Y1530000D01*
X588347Y1521669D01*
X563355D01*
X580016D02*
X596678Y1505008D01*
X638331D02*
Y1554992D01*
X613339Y1530000D01*
X646661D01*
X663323Y1546661D02*
X671653Y1554992D01*
X688314D01*
X696645Y1546661D01*
Y1538331D01*
X688314Y1530000D01*
X696645Y1521669D01*
Y1513339D01*
X688314Y1505008D01*
X671653D01*
X663323Y1513339D01*
Y1521669D01*
X671653Y1530000D01*
X663323Y1538331D01*
Y1546661D01*
X671653Y1530000D02*
X688314D01*
X658347Y1344992D02*
X691670D01*
X675008D01*
Y1295008D01*
X708331Y1336661D02*
X716662Y1344992D01*
X733323D01*
X741653Y1336661D01*
Y1328331D01*
X733323Y1320000D01*
X724992D01*
X733323D01*
X741653Y1311669D01*
Y1303339D01*
X733323Y1295008D01*
X716662D01*
X708331Y1303339D01*
X985008Y2081200D02*
X1026661D01*
X1034992Y2089530D01*
Y2106192D01*
X1026661Y2114522D01*
X985008D01*
X993339Y2131183D02*
X985008Y2139514D01*
Y2156175D01*
X993339Y2164506D01*
X1001669D01*
X1010000Y2156175D01*
Y2147845D01*
Y2156175D01*
X1018331Y2164506D01*
X1026661D01*
X1034992Y2156175D01*
Y2139514D01*
X1026661Y2131183D01*
X2158347Y1264992D02*
X2191669Y1215008D01*
Y1264992D02*
X2158347Y1215008D01*
X2241653D02*
X2208331D01*
X2241653Y1248331D01*
Y1256661D01*
X2233322Y1264992D01*
X2216661D01*
X2208331Y1256661D01*
X2268347Y2064094D02*
Y2022441D01*
X2276678Y2014111D01*
X2293339D01*
X2301670Y2022441D01*
Y2064094D01*
X2351653Y2014111D02*
X2318331D01*
X2351653Y2047433D01*
Y2055764D01*
X2343322Y2064094D01*
X2326661D01*
X2318331Y2055764D01*
X1290000Y536702D02*
X1281670Y545032D01*
X1265008D01*
X1256678Y536702D01*
Y503379D01*
X1265008Y495049D01*
X1281670D01*
X1290000Y503379D01*
X1306661Y495049D02*
X1323322D01*
X1314992D01*
Y545032D01*
X1306661Y536702D01*
X1841669Y336620D02*
X1833339Y344950D01*
X1816678D01*
X1808347Y336620D01*
Y303297D01*
X1816678Y294966D01*
X1833339D01*
X1841669Y303297D01*
X1858331Y336620D02*
X1866661Y344950D01*
X1883322D01*
X1891653Y336620D01*
Y328289D01*
X1883322Y319958D01*
X1874992D01*
X1883322D01*
X1891653Y311628D01*
Y303297D01*
X1883322Y294966D01*
X1866661D01*
X1858331Y303297D01*
X2013379Y1200843D02*
X2005049Y1192512D01*
Y1175851D01*
X2013379Y1167520D01*
X2046702D01*
X2055032Y1175851D01*
Y1192512D01*
X2046702Y1200843D01*
X2055032Y1217504D02*
Y1234165D01*
Y1225835D01*
X2005049D01*
X2013379Y1217504D01*
X2005049Y1292480D02*
X2013379Y1275818D01*
X2030041Y1259157D01*
X2046702D01*
X2055032Y1267488D01*
Y1284149D01*
X2046702Y1292480D01*
X2038371D01*
X2030041Y1284149D01*
Y1259157D01*
X1093379Y990842D02*
X1085049Y982512D01*
Y965850D01*
X1093379Y957520D01*
X1126702D01*
X1135032Y965850D01*
Y982512D01*
X1126702Y990842D01*
X1135032Y1007503D02*
Y1024165D01*
Y1015834D01*
X1085049D01*
X1093379Y1007503D01*
X1085049Y1049157D02*
Y1082479D01*
X1093379D01*
X1126702Y1049157D01*
X1135032D01*
X1093297Y790842D02*
X1084967Y782512D01*
Y765851D01*
X1093297Y757520D01*
X1126620D01*
X1134950Y765851D01*
Y782512D01*
X1126620Y790842D01*
X1134950Y807504D02*
Y824165D01*
Y815834D01*
X1084967D01*
X1093297Y807504D01*
Y849157D02*
X1084967Y857487D01*
Y874149D01*
X1093297Y882479D01*
X1101628D01*
X1109958Y874149D01*
X1118289Y882479D01*
X1126620D01*
X1134950Y874149D01*
Y857487D01*
X1126620Y849157D01*
X1118289D01*
X1109958Y857487D01*
X1101628Y849157D01*
X1093297D01*
X1109958Y857487D02*
Y874149D01*
X1370843Y1376702D02*
X1362512Y1385033D01*
X1345851D01*
X1337520Y1376702D01*
Y1343380D01*
X1345851Y1335049D01*
X1362512D01*
X1370843Y1343380D01*
X1387504Y1335049D02*
X1404165D01*
X1395834D01*
Y1385033D01*
X1387504Y1376702D01*
X1429157Y1343380D02*
X1437488Y1335049D01*
X1454149D01*
X1462479Y1343380D01*
Y1376702D01*
X1454149Y1385033D01*
X1437488D01*
X1429157Y1376702D01*
Y1368371D01*
X1437488Y1360041D01*
X1462479D01*
X2066678Y336620D02*
X2058347Y344950D01*
X2041686D01*
X2033355Y336620D01*
Y303297D01*
X2041686Y294966D01*
X2058347D01*
X2066678Y303297D01*
X2116661Y294966D02*
X2083339D01*
X2116661Y328289D01*
Y336620D01*
X2108331Y344950D01*
X2091669D01*
X2083339Y336620D01*
X2133322D02*
X2141653Y344950D01*
X2158314D01*
X2166645Y336620D01*
Y303297D01*
X2158314Y294966D01*
X2141653D01*
X2133322Y303297D01*
Y336620D01*
X1825008Y1286702D02*
X1816678Y1295032D01*
X1800016D01*
X1791686Y1286702D01*
Y1253380D01*
X1800016Y1245049D01*
X1816678D01*
X1825008Y1253380D01*
X1874992Y1245049D02*
X1841669D01*
X1874992Y1278371D01*
Y1286702D01*
X1866661Y1295032D01*
X1850000D01*
X1841669Y1286702D01*
X1891653Y1245049D02*
X1908314D01*
X1899984D01*
Y1295032D01*
X1891653Y1286702D01*
X1333380Y1176677D02*
X1325049Y1168347D01*
Y1151686D01*
X1333380Y1143355D01*
X1366702D01*
X1375033Y1151686D01*
Y1168347D01*
X1366702Y1176677D01*
X1375033Y1226661D02*
Y1193338D01*
X1341710Y1226661D01*
X1333380D01*
X1325049Y1218330D01*
Y1201669D01*
X1333380Y1193338D01*
X1375033Y1276645D02*
Y1243322D01*
X1341710Y1276645D01*
X1333380D01*
X1325049Y1268314D01*
Y1251653D01*
X1333380Y1243322D01*
X1573380Y1176677D02*
X1565049Y1168347D01*
Y1151686D01*
X1573380Y1143355D01*
X1606702D01*
X1615033Y1151686D01*
Y1168347D01*
X1606702Y1176677D01*
X1615033Y1226661D02*
Y1193338D01*
X1581710Y1226661D01*
X1573380D01*
X1565049Y1218330D01*
Y1201669D01*
X1573380Y1193338D01*
Y1243322D02*
X1565049Y1251653D01*
Y1268314D01*
X1573380Y1276645D01*
X1581710D01*
X1590041Y1268314D01*
Y1259983D01*
Y1268314D01*
X1598372Y1276645D01*
X1606702D01*
X1615033Y1268314D01*
Y1251653D01*
X1606702Y1243322D01*
X1816678Y1186702D02*
X1808347Y1195032D01*
X1791686D01*
X1783355Y1186702D01*
Y1153379D01*
X1791686Y1145049D01*
X1808347D01*
X1816678Y1153379D01*
X1866661Y1145049D02*
X1833339D01*
X1866661Y1178371D01*
Y1186702D01*
X1858331Y1195032D01*
X1841669D01*
X1833339Y1186702D01*
X1908314Y1145049D02*
Y1195032D01*
X1883322Y1170041D01*
X1916645D01*
X2206678Y726620D02*
X2198347Y734951D01*
X2181686D01*
X2173355Y726620D01*
Y693298D01*
X2181686Y684967D01*
X2198347D01*
X2206678Y693298D01*
X2256661Y684967D02*
X2223339D01*
X2256661Y718289D01*
Y726620D01*
X2248331Y734951D01*
X2231670D01*
X2223339Y726620D01*
X2306645Y734951D02*
X2273323D01*
Y709959D01*
X2289984Y718289D01*
X2298314D01*
X2306645Y709959D01*
Y693298D01*
X2298314Y684967D01*
X2281653D01*
X2273323Y693298D01*
X2206678Y1006620D02*
X2198347Y1014950D01*
X2181686D01*
X2173355Y1006620D01*
Y973298D01*
X2181686Y964967D01*
X2198347D01*
X2206678Y973298D01*
X2256661Y964967D02*
X2223339D01*
X2256661Y998289D01*
Y1006620D01*
X2248331Y1014950D01*
X2231670D01*
X2223339Y1006620D01*
X2306645Y1014950D02*
X2289984Y1006620D01*
X2273323Y989959D01*
Y973298D01*
X2281653Y964967D01*
X2298314D01*
X2306645Y973298D01*
Y981628D01*
X2298314Y989959D01*
X2273323D01*
X2383380Y856678D02*
X2375049Y848347D01*
Y831686D01*
X2383380Y823355D01*
X2416702D01*
X2425033Y831686D01*
Y848347D01*
X2416702Y856678D01*
X2425033Y906661D02*
Y873339D01*
X2391710Y906661D01*
X2383380D01*
X2375049Y898331D01*
Y881670D01*
X2383380Y873339D01*
X2375049Y923323D02*
Y956645D01*
X2383380D01*
X2416702Y923323D01*
X2425033D01*
X2483380Y1156678D02*
X2475049Y1148347D01*
Y1131686D01*
X2483380Y1123355D01*
X2516702D01*
X2525033Y1131686D01*
Y1148347D01*
X2516702Y1156678D01*
X2525033Y1206661D02*
Y1173339D01*
X2491711Y1206661D01*
X2483380D01*
X2475049Y1198331D01*
Y1181669D01*
X2483380Y1173339D01*
Y1223322D02*
X2475049Y1231653D01*
Y1248314D01*
X2483380Y1256645D01*
X2491711D01*
X2500041Y1248314D01*
X2508372Y1256645D01*
X2516702D01*
X2525033Y1248314D01*
Y1231653D01*
X2516702Y1223322D01*
X2508372D01*
X2500041Y1231653D01*
X2491711Y1223322D01*
X2483380D01*
X2500041Y1231653D02*
Y1248314D01*
X2416678Y1056702D02*
X2408347Y1065033D01*
X2391686D01*
X2383355Y1056702D01*
Y1023380D01*
X2391686Y1015049D01*
X2408347D01*
X2416678Y1023380D01*
X2466661Y1015049D02*
X2433339D01*
X2466661Y1048372D01*
Y1056702D01*
X2458331Y1065033D01*
X2441669D01*
X2433339Y1056702D01*
X2483322Y1023380D02*
X2491653Y1015049D01*
X2508314D01*
X2516645Y1023380D01*
Y1056702D01*
X2508314Y1065033D01*
X2491653D01*
X2483322Y1056702D01*
Y1048372D01*
X2491653Y1040041D01*
X2516645D01*
X2474967Y856678D02*
X2524950D01*
Y890000D01*
Y906661D02*
Y923323D01*
Y914992D01*
X2474967D01*
X2483297Y906661D01*
X2828347Y1135008D02*
Y1184992D01*
X2853339D01*
X2861670Y1176661D01*
Y1160000D01*
X2853339Y1151669D01*
X2828347D01*
X2911653Y1135008D02*
X2878331D01*
X2911653Y1168331D01*
Y1176661D01*
X2903323Y1184992D01*
X2886661D01*
X2878331Y1176661D01*
X1716676Y786241D02*
Y744588D01*
X1725007Y736257D01*
X1741668D01*
X1749999Y744588D01*
Y786241D01*
X1766660Y736257D02*
X1783321D01*
X1774991D01*
Y786241D01*
X1766660Y777910D01*
X1875008Y1968347D02*
X1924991Y2001670D01*
X1875008D02*
X1924991Y1968347D01*
X1883338Y2018331D02*
X1875008Y2026661D01*
Y2043323D01*
X1883338Y2051653D01*
X1891669D01*
X1900000Y2043323D01*
Y2034992D01*
Y2043323D01*
X1908330Y2051653D01*
X1916661D01*
X1924991Y2043323D01*
Y2026661D01*
X1916661Y2018331D01*
X635008Y1968347D02*
X684992Y2001670D01*
X635008D02*
X684992Y1968347D01*
Y2043323D02*
X635008D01*
X660000Y2018331D01*
Y2051653D01*
X2374992Y1493355D02*
X2325008D01*
Y1518347D01*
X2333339Y1526678D01*
X2350000D01*
X2358331Y1518347D01*
Y1493355D01*
Y1510016D02*
X2374992Y1526678D01*
X2325008Y1576661D02*
Y1543339D01*
X2350000D01*
X2341669Y1560000D01*
Y1568331D01*
X2350000Y1576661D01*
X2366661D01*
X2374992Y1568331D01*
Y1551669D01*
X2366661Y1543339D01*
X2333339Y1593322D02*
X2325008Y1601653D01*
Y1618314D01*
X2333339Y1626645D01*
X2341669D01*
X2350000Y1618314D01*
Y1609984D01*
Y1618314D01*
X2358331Y1626645D01*
X2366661D01*
X2374992Y1618314D01*
Y1601653D01*
X2366661Y1593322D01*
X2673355Y1875008D02*
Y1924992D01*
X2698347D01*
X2706678Y1916661D01*
Y1900000D01*
X2698347Y1891669D01*
X2673355D01*
X2690016D02*
X2706678Y1875008D01*
X2756661Y1924992D02*
X2723339D01*
Y1900000D01*
X2740000Y1908331D01*
X2748331D01*
X2756661Y1900000D01*
Y1883339D01*
X2748331Y1875008D01*
X2731670D01*
X2723339Y1883339D01*
X2798314Y1875008D02*
Y1924992D01*
X2773323Y1900000D01*
X2806645D01*
X2074992Y1493355D02*
X2025008D01*
Y1518347D01*
X2033339Y1526678D01*
X2050000D01*
X2058331Y1518347D01*
Y1493355D01*
Y1510016D02*
X2074992Y1526678D01*
X2025008Y1576661D02*
Y1543339D01*
X2050000D01*
X2041669Y1560000D01*
Y1568331D01*
X2050000Y1576661D01*
X2066661D01*
X2074992Y1568331D01*
Y1551669D01*
X2066661Y1543339D01*
X2025008Y1626645D02*
Y1593322D01*
X2050000D01*
X2041669Y1609984D01*
Y1618314D01*
X2050000Y1626645D01*
X2066661D01*
X2074992Y1618314D01*
Y1601653D01*
X2066661Y1593322D01*
X2173355Y585008D02*
Y634992D01*
X2198347D01*
X2206678Y626661D01*
Y610000D01*
X2198347Y601669D01*
X2173355D01*
X2190016D02*
X2206678Y585008D01*
X2256661Y634992D02*
X2223339D01*
Y610000D01*
X2240000Y618331D01*
X2248331D01*
X2256661Y610000D01*
Y593339D01*
X2248331Y585008D01*
X2231670D01*
X2223339Y593339D01*
X2306645Y634992D02*
X2289984Y626661D01*
X2273323Y610000D01*
Y593339D01*
X2281653Y585008D01*
X2298314D01*
X2306645Y593339D01*
Y601669D01*
X2298314Y610000D01*
X2273323D01*
X2174992Y1493355D02*
X2125008D01*
Y1518347D01*
X2133339Y1526678D01*
X2150000D01*
X2158331Y1518347D01*
Y1493355D01*
Y1510016D02*
X2174992Y1526678D01*
X2125008Y1576661D02*
Y1543339D01*
X2150000D01*
X2141669Y1560000D01*
Y1568331D01*
X2150000Y1576661D01*
X2166661D01*
X2174992Y1568331D01*
Y1551669D01*
X2166661Y1543339D01*
X2125008Y1593322D02*
Y1626645D01*
X2133339D01*
X2166661Y1593322D01*
X2174992D01*
X1225007Y896677D02*
X1274991Y929999D01*
X1225007D02*
X1274991Y896677D01*
Y946661D02*
Y963322D01*
Y954991D01*
X1225007D01*
X1233338Y946661D01*
X2210843Y1106620D02*
X2202512Y1114951D01*
X2185851D01*
X2177520Y1106620D01*
Y1073298D01*
X2185851Y1064967D01*
X2202512D01*
X2210843Y1073298D01*
X2227504Y1064967D02*
X2244165D01*
X2235835D01*
Y1114951D01*
X2227504Y1106620D01*
X2302480Y1114951D02*
X2269157D01*
Y1089959D01*
X2285818Y1098289D01*
X2294149D01*
X2302480Y1089959D01*
Y1073298D01*
X2294149Y1064967D01*
X2277488D01*
X2269157Y1073298D01*
%TF.MD5,e25f4440a7b738886f11acad5c86f356*%
M02*
