%TF.GenerationSoftware,Altium Limited,Altium Designer,25.2.1 (25)*%
G04 Layer_Color=2752767*
%FSLAX45Y45*%
%MOMM*%
%TF.SameCoordinates,B7DAEB1B-2A83-4E2F-BFC4-A44EEF3E448A*%
%TF.FilePolarity,Positive*%
%TF.FileFunction,Drawing*%
%TF.Part,CustomerPanel*%
G01*
G75*
%TA.AperFunction,NonConductor*%
%ADD62C,0.25400*%
%ADD169C,0.08467*%
%ADD170C,0.38100*%
%ADD171C,0.40640*%
D62*
X-638612Y6556017D02*
G03*
X-638612Y6556017I-50800J0D01*
G01*
X-604746D02*
G03*
X-604746Y6556017I-84667J0D01*
G01*
X-774079Y6175017D02*
X-689412Y6090350D01*
X-604746Y6175017D01*
X-689412Y6259683D02*
X-604746Y6175017D01*
X-774079D02*
X-689412Y6259683D01*
X-774079Y5709350D02*
X-689412Y5751683D01*
X-604746Y5709350D01*
X-647079Y5794017D02*
X-604746Y5709350D01*
X-647079Y5794017D02*
X-604746Y5878683D01*
X-689412Y5836350D02*
X-604746Y5878683D01*
X-774079D02*
X-689412Y5836350D01*
X-774079Y5878683D02*
X-731746Y5794017D01*
X-774079Y5709350D02*
X-731746Y5794017D01*
X28920889Y6547525D02*
X29022458D01*
X28920889Y6166525D02*
X29022458D01*
X28920889Y5785525D02*
X29022458D01*
X26721860Y6547525D02*
X26823428D01*
X26721860Y6166525D02*
X26823428D01*
X26721860Y5785525D02*
X26823428D01*
X23334497Y5836309D02*
X23359889Y5861701D01*
X23410674D01*
X23436064Y5836309D01*
Y5734742D01*
X23410674Y5709350D01*
X23359889D01*
X23334497Y5734742D01*
Y5836309D01*
X23486848Y5709350D02*
Y5734742D01*
X23512241D01*
Y5709350D01*
X23486848D01*
X23613808Y5836309D02*
X23639198Y5861701D01*
X23689983D01*
X23715375Y5836309D01*
Y5734742D01*
X23689983Y5709350D01*
X23639198D01*
X23613808Y5734742D01*
Y5836309D01*
X23766158D02*
X23791550Y5861701D01*
X23842332D01*
X23867725Y5836309D01*
Y5734742D01*
X23842332Y5709350D01*
X23791550D01*
X23766158Y5734742D01*
Y5836309D01*
X23918507Y5709350D02*
Y5810917D01*
X23943900D01*
X23969292Y5785525D01*
Y5709350D01*
Y5785525D01*
X23994684Y5810917D01*
X24020074Y5785525D01*
Y5709350D01*
X24070859D02*
X24121642D01*
X24096251D01*
Y5810917D01*
X24070859D01*
X24197818Y5709350D02*
X24248601D01*
X24223210D01*
Y5861701D01*
X24197818D01*
X24527911Y5709350D02*
X24477127Y5760134D01*
Y5810917D01*
X24527911Y5861701D01*
X24604086Y5836309D02*
X24629478Y5861701D01*
X24680263D01*
X24705653Y5836309D01*
Y5734742D01*
X24680263Y5709350D01*
X24629478D01*
X24604086Y5734742D01*
Y5836309D01*
X24756438Y5709350D02*
Y5734742D01*
X24781828D01*
Y5709350D01*
X24756438D01*
X24883395Y5836309D02*
X24908788Y5861701D01*
X24959570D01*
X24984962Y5836309D01*
Y5734742D01*
X24959570Y5709350D01*
X24908788D01*
X24883395Y5734742D01*
Y5836309D01*
X25035745D02*
X25061137Y5861701D01*
X25111922D01*
X25137314Y5836309D01*
Y5734742D01*
X25111922Y5709350D01*
X25061137D01*
X25035745Y5734742D01*
Y5836309D01*
X25188097D02*
X25213489Y5861701D01*
X25264273D01*
X25289664Y5836309D01*
Y5734742D01*
X25264273Y5709350D01*
X25213489D01*
X25188097Y5734742D01*
Y5836309D01*
X25340448Y5709350D02*
Y5810917D01*
X25365840D01*
X25391231Y5785525D01*
Y5709350D01*
Y5785525D01*
X25416623Y5810917D01*
X25442015Y5785525D01*
Y5709350D01*
X25492799D02*
Y5810917D01*
X25518192D01*
X25543582Y5785525D01*
Y5709350D01*
Y5785525D01*
X25568974Y5810917D01*
X25594366Y5785525D01*
Y5709350D01*
X25645148D02*
X25695932Y5760134D01*
Y5810917D01*
X25645148Y5861701D01*
X19947133Y5836309D02*
X19972525Y5861701D01*
X20023309D01*
X20048701Y5836309D01*
Y5734742D01*
X20023309Y5709350D01*
X19972525D01*
X19947133Y5734742D01*
Y5836309D01*
X20099484Y5709350D02*
Y5734742D01*
X20124876D01*
Y5709350D01*
X20099484D01*
X20226443Y5836309D02*
X20251836Y5861701D01*
X20302618D01*
X20328011Y5836309D01*
Y5734742D01*
X20302618Y5709350D01*
X20251836D01*
X20226443Y5734742D01*
Y5836309D01*
X20378793D02*
X20404185Y5861701D01*
X20454968D01*
X20480360Y5836309D01*
Y5734742D01*
X20454968Y5709350D01*
X20404185D01*
X20378793Y5734742D01*
Y5836309D01*
X20531145Y5709350D02*
Y5810917D01*
X20556535D01*
X20581927Y5785525D01*
Y5709350D01*
Y5785525D01*
X20607320Y5810917D01*
X20632712Y5785525D01*
Y5709350D01*
X20683495D02*
X20734279D01*
X20708887D01*
Y5810917D01*
X20683495D01*
X20810454Y5709350D02*
X20861237D01*
X20835846D01*
Y5861701D01*
X20810454D01*
X21140547Y5709350D02*
X21089764Y5760134D01*
Y5810917D01*
X21140547Y5861701D01*
X21216722Y5836309D02*
X21242114Y5861701D01*
X21292899D01*
X21318291Y5836309D01*
Y5734742D01*
X21292899Y5709350D01*
X21242114D01*
X21216722Y5734742D01*
Y5836309D01*
X21369073Y5709350D02*
Y5734742D01*
X21394466D01*
Y5709350D01*
X21369073D01*
X21496033Y5836309D02*
X21521423Y5861701D01*
X21572208D01*
X21597598Y5836309D01*
Y5734742D01*
X21572208Y5709350D01*
X21521423D01*
X21496033Y5734742D01*
Y5836309D01*
X21648383D02*
X21673775Y5861701D01*
X21724557D01*
X21749950Y5836309D01*
Y5734742D01*
X21724557Y5709350D01*
X21673775D01*
X21648383Y5734742D01*
Y5836309D01*
X21800732D02*
X21826125Y5861701D01*
X21876909D01*
X21902301Y5836309D01*
Y5734742D01*
X21876909Y5709350D01*
X21826125D01*
X21800732Y5734742D01*
Y5836309D01*
X21953084Y5709350D02*
Y5810917D01*
X21978476D01*
X22003868Y5785525D01*
Y5709350D01*
Y5785525D01*
X22029259Y5810917D01*
X22054651Y5785525D01*
Y5709350D01*
X22105435D02*
Y5810917D01*
X22130827D01*
X22156218Y5785525D01*
Y5709350D01*
Y5785525D01*
X22181610Y5810917D01*
X22207002Y5785525D01*
Y5709350D01*
X22257787D02*
X22308569Y5760134D01*
Y5810917D01*
X22257787Y5861701D01*
X16128009Y6471350D02*
X16204184D01*
X16229576Y6496742D01*
X16204184Y6522134D01*
X16153401D01*
X16128009Y6547525D01*
X16153401Y6572917D01*
X16229576D01*
X16280359Y6598309D02*
X16305751Y6623701D01*
X16356535D01*
X16381927Y6598309D01*
Y6496742D01*
X16356535Y6471350D01*
X16305751D01*
X16280359Y6496742D01*
Y6598309D01*
X16432710Y6623701D02*
Y6471350D01*
Y6547525D01*
X16458102Y6572917D01*
X16508885D01*
X16534277Y6547525D01*
Y6471350D01*
X16585062D02*
Y6572917D01*
X16661237D01*
X16686629Y6547525D01*
Y6471350D01*
X16838979D02*
X16737411D01*
X16838979Y6572917D01*
Y6598309D01*
X16813586Y6623701D01*
X16762804D01*
X16737411Y6598309D01*
X16889761D02*
X16915154Y6623701D01*
X16965938D01*
X16991328Y6598309D01*
Y6496742D01*
X16965938Y6471350D01*
X16915154D01*
X16889761Y6496742D01*
Y6598309D01*
X17042113D02*
X17067505Y6623701D01*
X17118288D01*
X17143680Y6598309D01*
Y6496742D01*
X17118288Y6471350D01*
X17067505D01*
X17042113Y6496742D01*
Y6598309D01*
X16128009Y6090350D02*
X16204184D01*
X16229576Y6115742D01*
X16204184Y6141134D01*
X16153401D01*
X16128009Y6166525D01*
X16153401Y6191917D01*
X16229576D01*
X16280359Y6217309D02*
X16305751Y6242701D01*
X16356535D01*
X16381927Y6217309D01*
Y6115742D01*
X16356535Y6090350D01*
X16305751D01*
X16280359Y6115742D01*
Y6217309D01*
X16432710Y6242701D02*
Y6090350D01*
Y6166525D01*
X16458102Y6191917D01*
X16508885D01*
X16534277Y6166525D01*
Y6090350D01*
X16585062D02*
Y6191917D01*
X16661237D01*
X16686629Y6166525D01*
Y6090350D01*
X16737411Y6217309D02*
X16762804Y6242701D01*
X16813586D01*
X16838979Y6217309D01*
Y6191917D01*
X16813586Y6166525D01*
X16788194D01*
X16813586D01*
X16838979Y6141134D01*
Y6115742D01*
X16813586Y6090350D01*
X16762804D01*
X16737411Y6115742D01*
X16889761Y6217309D02*
X16915154Y6242701D01*
X16965938D01*
X16991328Y6217309D01*
Y6115742D01*
X16965938Y6090350D01*
X16915154D01*
X16889761Y6115742D01*
Y6217309D01*
X16178792Y5709350D02*
X16128009Y5760134D01*
Y5810917D01*
X16178792Y5861701D01*
X16254967Y5709350D02*
Y5861701D01*
X16305751Y5810917D01*
X16356535Y5861701D01*
Y5709350D01*
X16407318D02*
X16458102D01*
X16432710D01*
Y5810917D01*
X16407318D01*
X16534277D02*
X16635844Y5709350D01*
X16585062Y5760134D01*
X16635844Y5810917D01*
X16534277Y5709350D01*
X16762804D02*
X16712019D01*
X16686629Y5734742D01*
Y5785525D01*
X16712019Y5810917D01*
X16762804D01*
X16788194Y5785525D01*
Y5760134D01*
X16686629D01*
X16940546Y5861701D02*
Y5709350D01*
X16864371D01*
X16838979Y5734742D01*
Y5785525D01*
X16864371Y5810917D01*
X16940546D01*
X16991328Y5709350D02*
X17042113Y5760134D01*
Y5810917D01*
X16991328Y5861701D01*
X13360214Y6471350D02*
Y6623701D01*
X13436389D01*
X13461781Y6598309D01*
Y6547525D01*
X13436389Y6522134D01*
X13360214D01*
X13410997D02*
X13461781Y6471350D01*
X13537956D02*
X13588741D01*
X13614133Y6496742D01*
Y6547525D01*
X13588741Y6572917D01*
X13537956D01*
X13512564Y6547525D01*
Y6496742D01*
X13537956Y6471350D01*
X13664915Y6572917D02*
Y6496742D01*
X13690308Y6471350D01*
X13766483D01*
Y6572917D01*
X13817265Y6471350D02*
Y6572917D01*
X13893440D01*
X13918832Y6547525D01*
Y6471350D01*
X14071184Y6623701D02*
Y6471350D01*
X13995007D01*
X13969617Y6496742D01*
Y6547525D01*
X13995007Y6572917D01*
X14071184D01*
X14198143Y6471350D02*
X14147359D01*
X14121967Y6496742D01*
Y6547525D01*
X14147359Y6572917D01*
X14198143D01*
X14223534Y6547525D01*
Y6522134D01*
X14121967D01*
X14375885Y6623701D02*
Y6471350D01*
X14299710D01*
X14274318Y6496742D01*
Y6547525D01*
X14299710Y6572917D01*
X14375885D01*
X14579019Y6471350D02*
Y6623701D01*
X14655196D01*
X14680586Y6598309D01*
Y6547525D01*
X14655196Y6522134D01*
X14579019D01*
X14629803D02*
X14680586Y6471350D01*
X14807545D02*
X14756763D01*
X14731371Y6496742D01*
Y6547525D01*
X14756763Y6572917D01*
X14807545D01*
X14832938Y6547525D01*
Y6522134D01*
X14731371D01*
X14985287Y6572917D02*
X14909113D01*
X14883720Y6547525D01*
Y6496742D01*
X14909113Y6471350D01*
X14985287D01*
X15061462Y6598309D02*
Y6572917D01*
X15036072D01*
X15086855D01*
X15061462D01*
Y6496742D01*
X15086855Y6471350D01*
X15188422Y6572917D02*
X15239206D01*
X15264598Y6547525D01*
Y6471350D01*
X15188422D01*
X15163029Y6496742D01*
X15188422Y6522134D01*
X15264598D01*
X15315381Y6471350D02*
Y6572917D01*
X15391556D01*
X15416948Y6547525D01*
Y6471350D01*
X15518515Y6420567D02*
X15543907D01*
X15569299Y6445958D01*
Y6572917D01*
X15493124D01*
X15467732Y6547525D01*
Y6496742D01*
X15493124Y6471350D01*
X15569299D01*
X15620084D02*
X15670866D01*
X15645474D01*
Y6623701D01*
X15620084D01*
X15823216Y6471350D02*
X15772433D01*
X15747041Y6496742D01*
Y6547525D01*
X15772433Y6572917D01*
X15823216D01*
X15848608Y6547525D01*
Y6522134D01*
X15747041D01*
X13360214Y6090350D02*
Y6242701D01*
X13436389D01*
X13461781Y6217309D01*
Y6166525D01*
X13436389Y6141134D01*
X13360214D01*
X13410997D02*
X13461781Y6090350D01*
X13537956D02*
X13588741D01*
X13614133Y6115742D01*
Y6166525D01*
X13588741Y6191917D01*
X13537956D01*
X13512564Y6166525D01*
Y6115742D01*
X13537956Y6090350D01*
X13664915Y6191917D02*
Y6115742D01*
X13690308Y6090350D01*
X13766483D01*
Y6191917D01*
X13817265Y6090350D02*
Y6191917D01*
X13893440D01*
X13918832Y6166525D01*
Y6090350D01*
X14071184Y6242701D02*
Y6090350D01*
X13995007D01*
X13969617Y6115742D01*
Y6166525D01*
X13995007Y6191917D01*
X14071184D01*
X14198143Y6090350D02*
X14147359D01*
X14121967Y6115742D01*
Y6166525D01*
X14147359Y6191917D01*
X14198143D01*
X14223534Y6166525D01*
Y6141134D01*
X14121967D01*
X14375885Y6242701D02*
Y6090350D01*
X14299710D01*
X14274318Y6115742D01*
Y6166525D01*
X14299710Y6191917D01*
X14375885D01*
X14579019Y6090350D02*
Y6242701D01*
X14655196D01*
X14680586Y6217309D01*
Y6166525D01*
X14655196Y6141134D01*
X14579019D01*
X14629803D02*
X14680586Y6090350D01*
X14807545D02*
X14756763D01*
X14731371Y6115742D01*
Y6166525D01*
X14756763Y6191917D01*
X14807545D01*
X14832938Y6166525D01*
Y6141134D01*
X14731371D01*
X14985287Y6191917D02*
X14909113D01*
X14883720Y6166525D01*
Y6115742D01*
X14909113Y6090350D01*
X14985287D01*
X15061462Y6217309D02*
Y6191917D01*
X15036072D01*
X15086855D01*
X15061462D01*
Y6115742D01*
X15086855Y6090350D01*
X15188422Y6191917D02*
X15239206D01*
X15264598Y6166525D01*
Y6090350D01*
X15188422D01*
X15163029Y6115742D01*
X15188422Y6141134D01*
X15264598D01*
X15315381Y6090350D02*
Y6191917D01*
X15391556D01*
X15416948Y6166525D01*
Y6090350D01*
X15518515Y6039567D02*
X15543907D01*
X15569299Y6064958D01*
Y6191917D01*
X15493124D01*
X15467732Y6166525D01*
Y6115742D01*
X15493124Y6090350D01*
X15569299D01*
X15620084D02*
X15670866D01*
X15645474D01*
Y6242701D01*
X15620084D01*
X15823216Y6090350D02*
X15772433D01*
X15747041Y6115742D01*
Y6166525D01*
X15772433Y6191917D01*
X15823216D01*
X15848608Y6166525D01*
Y6141134D01*
X15747041D01*
X13360214Y5709350D02*
Y5861701D01*
X13436389D01*
X13461781Y5836309D01*
Y5785525D01*
X13436389Y5760134D01*
X13360214D01*
X13410997D02*
X13461781Y5709350D01*
X13537956D02*
X13588741D01*
X13614133Y5734742D01*
Y5785525D01*
X13588741Y5810917D01*
X13537956D01*
X13512564Y5785525D01*
Y5734742D01*
X13537956Y5709350D01*
X13664915Y5810917D02*
Y5734742D01*
X13690308Y5709350D01*
X13766483D01*
Y5810917D01*
X13817265Y5709350D02*
Y5810917D01*
X13893440D01*
X13918832Y5785525D01*
Y5709350D01*
X14071184Y5861701D02*
Y5709350D01*
X13995007D01*
X13969617Y5734742D01*
Y5785525D01*
X13995007Y5810917D01*
X14071184D01*
X14198143Y5709350D02*
X14147359D01*
X14121967Y5734742D01*
Y5785525D01*
X14147359Y5810917D01*
X14198143D01*
X14223534Y5785525D01*
Y5760134D01*
X14121967D01*
X14375885Y5861701D02*
Y5709350D01*
X14299710D01*
X14274318Y5734742D01*
Y5785525D01*
X14299710Y5810917D01*
X14375885D01*
X11861998Y6471350D02*
Y6623701D01*
X11938173D01*
X11963565Y6598309D01*
Y6547525D01*
X11938173Y6522134D01*
X11861998D01*
X12039741Y6572917D02*
X12090524D01*
X12115916Y6547525D01*
Y6471350D01*
X12039741D01*
X12014349Y6496742D01*
X12039741Y6522134D01*
X12115916D01*
X12268267Y6623701D02*
Y6471350D01*
X12192091D01*
X12166700Y6496742D01*
Y6547525D01*
X12192091Y6572917D01*
X12268267D01*
X11861998Y6090350D02*
Y6242701D01*
X11938173D01*
X11963565Y6217309D01*
Y6166525D01*
X11938173Y6141134D01*
X11861998D01*
X12039741Y6191917D02*
X12090524D01*
X12115916Y6166525D01*
Y6090350D01*
X12039741D01*
X12014349Y6115742D01*
X12039741Y6141134D01*
X12115916D01*
X12268267Y6242701D02*
Y6090350D01*
X12192091D01*
X12166700Y6115742D01*
Y6166525D01*
X12192091Y6191917D01*
X12268267D01*
X11861998Y5861701D02*
Y5760134D01*
X11912782Y5709350D01*
X11963565Y5760134D01*
Y5861701D01*
X12014349Y5709350D02*
X12065132D01*
X12039741D01*
Y5810917D01*
X12014349D01*
X12166700D02*
X12217483D01*
X12242875Y5785525D01*
Y5709350D01*
X12166700D01*
X12141308Y5734742D01*
X12166700Y5760134D01*
X12242875D01*
X8053140Y6623701D02*
X8154707D01*
X8103923D01*
Y6471350D01*
X8230882D02*
X8281666D01*
X8307058Y6496742D01*
Y6547525D01*
X8281666Y6572917D01*
X8230882D01*
X8205491Y6547525D01*
Y6496742D01*
X8230882Y6471350D01*
X8357841Y6420567D02*
Y6572917D01*
X8434017D01*
X8459409Y6547525D01*
Y6496742D01*
X8434017Y6471350D01*
X8357841D01*
X8662543Y6623701D02*
Y6471350D01*
X8764110D01*
X8840285Y6572917D02*
X8891069D01*
X8916461Y6547525D01*
Y6471350D01*
X8840285D01*
X8814893Y6496742D01*
X8840285Y6522134D01*
X8916461D01*
X8967244Y6572917D02*
Y6496742D01*
X8992636Y6471350D01*
X9068811D01*
Y6445958D01*
X9043420Y6420567D01*
X9018028D01*
X9068811Y6471350D02*
Y6572917D01*
X9195770Y6471350D02*
X9144987D01*
X9119595Y6496742D01*
Y6547525D01*
X9144987Y6572917D01*
X9195770D01*
X9221162Y6547525D01*
Y6522134D01*
X9119595D01*
X9271946Y6572917D02*
Y6471350D01*
Y6522134D01*
X9297338Y6547525D01*
X9322729Y6572917D01*
X9348121D01*
X9576647Y6547525D02*
X9678214D01*
X9881349Y6623701D02*
Y6471350D01*
X9957524D01*
X9982916Y6496742D01*
Y6522134D01*
X9957524Y6547525D01*
X9881349D01*
X9957524D01*
X9982916Y6572917D01*
Y6598309D01*
X9957524Y6623701D01*
X9881349D01*
X10059091Y6471350D02*
X10109875D01*
X10135266Y6496742D01*
Y6547525D01*
X10109875Y6572917D01*
X10059091D01*
X10033699Y6547525D01*
Y6496742D01*
X10059091Y6471350D01*
X10211442Y6598309D02*
Y6572917D01*
X10186050D01*
X10236833D01*
X10211442D01*
Y6496742D01*
X10236833Y6471350D01*
X10338401Y6598309D02*
Y6572917D01*
X10313009D01*
X10363792D01*
X10338401D01*
Y6496742D01*
X10363792Y6471350D01*
X10465360D02*
X10516143D01*
X10541535Y6496742D01*
Y6547525D01*
X10516143Y6572917D01*
X10465360D01*
X10439968Y6547525D01*
Y6496742D01*
X10465360Y6471350D01*
X10592318D02*
Y6572917D01*
X10617710D01*
X10643102Y6547525D01*
Y6471350D01*
Y6547525D01*
X10668494Y6572917D01*
X10693886Y6547525D01*
Y6471350D01*
X10897020Y6623701D02*
Y6471350D01*
X10998587D01*
X11074762Y6572917D02*
X11125546D01*
X11150938Y6547525D01*
Y6471350D01*
X11074762D01*
X11049371Y6496742D01*
X11074762Y6522134D01*
X11150938D01*
X11201721Y6572917D02*
Y6496742D01*
X11227113Y6471350D01*
X11303289D01*
Y6445958D01*
X11277897Y6420567D01*
X11252505D01*
X11303289Y6471350D02*
Y6572917D01*
X11430247Y6471350D02*
X11379464D01*
X11354072Y6496742D01*
Y6547525D01*
X11379464Y6572917D01*
X11430247D01*
X11455639Y6547525D01*
Y6522134D01*
X11354072D01*
X11506423Y6572917D02*
Y6471350D01*
Y6522134D01*
X11531815Y6547525D01*
X11557206Y6572917D01*
X11582598D01*
X8053140Y6242701D02*
X8154707D01*
X8103923D01*
Y6090350D01*
X8230882D02*
X8281666D01*
X8307058Y6115742D01*
Y6166525D01*
X8281666Y6191917D01*
X8230882D01*
X8205491Y6166525D01*
Y6115742D01*
X8230882Y6090350D01*
X8357841Y6039567D02*
Y6191917D01*
X8434017D01*
X8459409Y6166525D01*
Y6115742D01*
X8434017Y6090350D01*
X8357841D01*
X8662543Y6242701D02*
Y6090350D01*
X8764110D01*
X8840285Y6191917D02*
X8891069D01*
X8916461Y6166525D01*
Y6090350D01*
X8840285D01*
X8814893Y6115742D01*
X8840285Y6141134D01*
X8916461D01*
X8967244Y6191917D02*
Y6115742D01*
X8992636Y6090350D01*
X9068811D01*
Y6064958D01*
X9043420Y6039567D01*
X9018028D01*
X9068811Y6090350D02*
Y6191917D01*
X9195770Y6090350D02*
X9144987D01*
X9119595Y6115742D01*
Y6166525D01*
X9144987Y6191917D01*
X9195770D01*
X9221162Y6166525D01*
Y6141134D01*
X9119595D01*
X9271946Y6191917D02*
Y6090350D01*
Y6141134D01*
X9297338Y6166525D01*
X9322729Y6191917D01*
X9348121D01*
X9576647Y6166525D02*
X9678214D01*
X9881349Y6242701D02*
Y6090350D01*
X9957524D01*
X9982916Y6115742D01*
Y6141134D01*
X9957524Y6166525D01*
X9881349D01*
X9957524D01*
X9982916Y6191917D01*
Y6217309D01*
X9957524Y6242701D01*
X9881349D01*
X10059091Y6090350D02*
X10109875D01*
X10135266Y6115742D01*
Y6166525D01*
X10109875Y6191917D01*
X10059091D01*
X10033699Y6166525D01*
Y6115742D01*
X10059091Y6090350D01*
X10211442Y6217309D02*
Y6191917D01*
X10186050D01*
X10236833D01*
X10211442D01*
Y6115742D01*
X10236833Y6090350D01*
X10338401Y6217309D02*
Y6191917D01*
X10313009D01*
X10363792D01*
X10338401D01*
Y6115742D01*
X10363792Y6090350D01*
X10465360D02*
X10516143D01*
X10541535Y6115742D01*
Y6166525D01*
X10516143Y6191917D01*
X10465360D01*
X10439968Y6166525D01*
Y6115742D01*
X10465360Y6090350D01*
X10592318D02*
Y6191917D01*
X10617710D01*
X10643102Y6166525D01*
Y6090350D01*
Y6166525D01*
X10668494Y6191917D01*
X10693886Y6166525D01*
Y6090350D01*
X10897020Y6242701D02*
Y6090350D01*
X10998587D01*
X11074762Y6191917D02*
X11125546D01*
X11150938Y6166525D01*
Y6090350D01*
X11074762D01*
X11049371Y6115742D01*
X11074762Y6141134D01*
X11150938D01*
X11201721Y6191917D02*
Y6115742D01*
X11227113Y6090350D01*
X11303289D01*
Y6064958D01*
X11277897Y6039567D01*
X11252505D01*
X11303289Y6090350D02*
Y6191917D01*
X11430247Y6090350D02*
X11379464D01*
X11354072Y6115742D01*
Y6166525D01*
X11379464Y6191917D01*
X11430247D01*
X11455639Y6166525D01*
Y6141134D01*
X11354072D01*
X11506423Y6191917D02*
Y6090350D01*
Y6141134D01*
X11531815Y6166525D01*
X11557206Y6191917D01*
X11582598D01*
X8053140Y5861701D02*
X8154707D01*
X8103923D01*
Y5709350D01*
X8230882D02*
X8281666D01*
X8307058Y5734742D01*
Y5785525D01*
X8281666Y5810917D01*
X8230882D01*
X8205491Y5785525D01*
Y5734742D01*
X8230882Y5709350D01*
X8357841Y5658567D02*
Y5810917D01*
X8434017D01*
X8459409Y5785525D01*
Y5734742D01*
X8434017Y5709350D01*
X8357841D01*
X8662543Y5861701D02*
Y5709350D01*
X8764110D01*
X8840285Y5810917D02*
X8891069D01*
X8916461Y5785525D01*
Y5709350D01*
X8840285D01*
X8814893Y5734742D01*
X8840285Y5760134D01*
X8916461D01*
X8967244Y5810917D02*
Y5734742D01*
X8992636Y5709350D01*
X9068811D01*
Y5683958D01*
X9043420Y5658567D01*
X9018028D01*
X9068811Y5709350D02*
Y5810917D01*
X9195770Y5709350D02*
X9144987D01*
X9119595Y5734742D01*
Y5785525D01*
X9144987Y5810917D01*
X9195770D01*
X9221162Y5785525D01*
Y5760134D01*
X9119595D01*
X9271946Y5810917D02*
Y5709350D01*
Y5760134D01*
X9297338Y5785525D01*
X9322729Y5810917D01*
X9348121D01*
X9576647Y5785525D02*
X9678214D01*
X9881349Y5861701D02*
Y5709350D01*
X9957524D01*
X9982916Y5734742D01*
Y5760134D01*
X9957524Y5785525D01*
X9881349D01*
X9957524D01*
X9982916Y5810917D01*
Y5836309D01*
X9957524Y5861701D01*
X9881349D01*
X10059091Y5709350D02*
X10109875D01*
X10135266Y5734742D01*
Y5785525D01*
X10109875Y5810917D01*
X10059091D01*
X10033699Y5785525D01*
Y5734742D01*
X10059091Y5709350D01*
X10211442Y5836309D02*
Y5810917D01*
X10186050D01*
X10236833D01*
X10211442D01*
Y5734742D01*
X10236833Y5709350D01*
X10338401Y5836309D02*
Y5810917D01*
X10313009D01*
X10363792D01*
X10338401D01*
Y5734742D01*
X10363792Y5709350D01*
X10465360D02*
X10516143D01*
X10541535Y5734742D01*
Y5785525D01*
X10516143Y5810917D01*
X10465360D01*
X10439968Y5785525D01*
Y5734742D01*
X10465360Y5709350D01*
X10592318D02*
Y5810917D01*
X10617710D01*
X10643102Y5785525D01*
Y5709350D01*
Y5785525D01*
X10668494Y5810917D01*
X10693886Y5785525D01*
Y5709350D01*
X10897020Y5861701D02*
Y5709350D01*
X10998587D01*
X11074762Y5810917D02*
X11125546D01*
X11150938Y5785525D01*
Y5709350D01*
X11074762D01*
X11049371Y5734742D01*
X11074762Y5760134D01*
X11150938D01*
X11201721Y5810917D02*
Y5734742D01*
X11227113Y5709350D01*
X11303289D01*
Y5683958D01*
X11277897Y5658567D01*
X11252505D01*
X11303289Y5709350D02*
Y5810917D01*
X11430247Y5709350D02*
X11379464D01*
X11354072Y5734742D01*
Y5785525D01*
X11379464Y5810917D01*
X11430247D01*
X11455639Y5785525D01*
Y5760134D01*
X11354072D01*
X11506423Y5810917D02*
Y5709350D01*
Y5760134D01*
X11531815Y5785525D01*
X11557206Y5810917D01*
X11582598D01*
X6189283Y6471350D02*
Y6623701D01*
X6265458D01*
X6290850Y6598309D01*
Y6547525D01*
X6265458Y6522134D01*
X6189283D01*
X6240066D02*
X6290850Y6471350D01*
X6367025D02*
X6417809D01*
X6443201Y6496742D01*
Y6547525D01*
X6417809Y6572917D01*
X6367025D01*
X6341633Y6547525D01*
Y6496742D01*
X6367025Y6471350D01*
X6493984Y6572917D02*
Y6496742D01*
X6519376Y6471350D01*
X6595551D01*
Y6572917D01*
X6646335Y6471350D02*
Y6572917D01*
X6722510D01*
X6747902Y6547525D01*
Y6471350D01*
X6900253Y6623701D02*
Y6471350D01*
X6824078D01*
X6798686Y6496742D01*
Y6547525D01*
X6824078Y6572917D01*
X6900253D01*
X6189283Y6090350D02*
Y6242701D01*
X6265458D01*
X6290850Y6217309D01*
Y6166525D01*
X6265458Y6141134D01*
X6189283D01*
X6240066D02*
X6290850Y6090350D01*
X6367025D02*
X6417809D01*
X6443201Y6115742D01*
Y6166525D01*
X6417809Y6191917D01*
X6367025D01*
X6341633Y6166525D01*
Y6115742D01*
X6367025Y6090350D01*
X6493984Y6191917D02*
Y6115742D01*
X6519376Y6090350D01*
X6595551D01*
Y6191917D01*
X6646335Y6090350D02*
Y6191917D01*
X6722510D01*
X6747902Y6166525D01*
Y6090350D01*
X6900253Y6242701D02*
Y6090350D01*
X6824078D01*
X6798686Y6115742D01*
Y6166525D01*
X6824078Y6191917D01*
X6900253D01*
X6189283Y5709350D02*
Y5861701D01*
X6265458D01*
X6290850Y5836309D01*
Y5785525D01*
X6265458Y5760134D01*
X6189283D01*
X6240066D02*
X6290850Y5709350D01*
X6367025D02*
X6417809D01*
X6443201Y5734742D01*
Y5785525D01*
X6417809Y5810917D01*
X6367025D01*
X6341633Y5785525D01*
Y5734742D01*
X6367025Y5709350D01*
X6493984Y5810917D02*
Y5734742D01*
X6519376Y5709350D01*
X6595551D01*
Y5810917D01*
X6646335Y5709350D02*
Y5810917D01*
X6722510D01*
X6747902Y5785525D01*
Y5709350D01*
X6900253Y5861701D02*
Y5709350D01*
X6824078D01*
X6798686Y5734742D01*
Y5785525D01*
X6824078Y5810917D01*
X6900253D01*
X4904358Y6471350D02*
Y6623701D01*
X5005925Y6471350D01*
Y6623701D01*
X5056709Y6471350D02*
Y6623701D01*
X5132884D01*
X5158276Y6598309D01*
Y6547525D01*
X5132884Y6522134D01*
X5056709D01*
X5209060Y6623701D02*
X5310627D01*
X5259843D01*
Y6471350D01*
X5361410Y6623701D02*
Y6471350D01*
Y6547525D01*
X5462978D01*
Y6623701D01*
Y6471350D01*
X4904358Y6090350D02*
Y6242701D01*
X5005925Y6090350D01*
Y6242701D01*
X5056709Y6090350D02*
Y6242701D01*
X5132884D01*
X5158276Y6217309D01*
Y6166525D01*
X5132884Y6141134D01*
X5056709D01*
X5209060Y6242701D02*
X5310627D01*
X5259843D01*
Y6090350D01*
X5361410Y6242701D02*
Y6090350D01*
Y6166525D01*
X5462978D01*
Y6242701D01*
Y6090350D01*
X4904358Y5709350D02*
Y5861701D01*
X4980534D01*
X5005925Y5836309D01*
Y5785525D01*
X4980534Y5760134D01*
X4904358D01*
X5056709Y5861701D02*
X5158276D01*
X5107492D01*
Y5709350D01*
X5209060Y5861701D02*
Y5709350D01*
Y5785525D01*
X5310627D01*
Y5861701D01*
Y5709350D01*
X2111172Y6623701D02*
X2212739D01*
Y6598309D01*
X2111172Y6496742D01*
Y6471350D01*
X2263523Y6598309D02*
X2288914Y6623701D01*
X2339698D01*
X2365090Y6598309D01*
Y6572917D01*
X2339698Y6547525D01*
X2365090Y6522134D01*
Y6496742D01*
X2339698Y6471350D01*
X2288914D01*
X2263523Y6496742D01*
Y6522134D01*
X2288914Y6547525D01*
X2263523Y6572917D01*
Y6598309D01*
X2288914Y6547525D02*
X2339698D01*
X2415873Y6471350D02*
Y6496742D01*
X2441265D01*
Y6471350D01*
X2415873D01*
X2542832Y6623701D02*
X2644399D01*
Y6598309D01*
X2542832Y6496742D01*
Y6471350D01*
X2771358D02*
Y6623701D01*
X2695183Y6547525D01*
X2796750D01*
X2847534Y6471350D02*
Y6572917D01*
X2872925D01*
X2898317Y6547525D01*
Y6471350D01*
Y6547525D01*
X2923709Y6572917D01*
X2949101Y6547525D01*
Y6471350D01*
X2999884D02*
X3050668D01*
X3025276D01*
Y6572917D01*
X2999884D01*
X3126843Y6471350D02*
X3177627D01*
X3152235D01*
Y6623701D01*
X3126843D01*
X3456936Y6471350D02*
X3406153Y6522134D01*
Y6572917D01*
X3456936Y6623701D01*
X3634679Y6471350D02*
X3533112D01*
X3634679Y6572917D01*
Y6598309D01*
X3609287Y6623701D01*
X3558503D01*
X3533112Y6598309D01*
X3685462Y6471350D02*
Y6496742D01*
X3710854D01*
Y6471350D01*
X3685462D01*
X3812421Y6598309D02*
X3837813Y6623701D01*
X3888596D01*
X3913988Y6598309D01*
Y6496742D01*
X3888596Y6471350D01*
X3837813D01*
X3812421Y6496742D01*
Y6598309D01*
X3964772D02*
X3990164Y6623701D01*
X4040947D01*
X4066339Y6598309D01*
Y6496742D01*
X4040947Y6471350D01*
X3990164D01*
X3964772Y6496742D01*
Y6598309D01*
X4117123D02*
X4142514Y6623701D01*
X4193298D01*
X4218690Y6598309D01*
Y6496742D01*
X4193298Y6471350D01*
X4142514D01*
X4117123Y6496742D01*
Y6598309D01*
X4269473Y6471350D02*
Y6572917D01*
X4294865D01*
X4320257Y6547525D01*
Y6471350D01*
Y6547525D01*
X4345649Y6572917D01*
X4371041Y6547525D01*
Y6471350D01*
X4421824D02*
Y6572917D01*
X4447216D01*
X4472608Y6547525D01*
Y6471350D01*
Y6547525D01*
X4497999Y6572917D01*
X4523391Y6547525D01*
Y6471350D01*
X4574175D02*
X4624958Y6522134D01*
Y6572917D01*
X4574175Y6623701D01*
X2111172Y6090350D02*
X2161955D01*
X2136564D01*
Y6242701D01*
X2111172Y6217309D01*
X2238131Y6090350D02*
X2288914D01*
X2263523D01*
Y6242701D01*
X2238131Y6217309D01*
X2365090Y6090350D02*
Y6115742D01*
X2390481D01*
Y6090350D01*
X2365090D01*
X2492048Y6217309D02*
X2517440Y6242701D01*
X2568224D01*
X2593616Y6217309D01*
Y6191917D01*
X2568224Y6166525D01*
X2593616Y6141134D01*
Y6115742D01*
X2568224Y6090350D01*
X2517440D01*
X2492048Y6115742D01*
Y6141134D01*
X2517440Y6166525D01*
X2492048Y6191917D01*
Y6217309D01*
X2517440Y6166525D02*
X2568224D01*
X2644399Y6090350D02*
X2695183D01*
X2669791D01*
Y6242701D01*
X2644399Y6217309D01*
X2771358Y6090350D02*
Y6191917D01*
X2796750D01*
X2822141Y6166525D01*
Y6090350D01*
Y6166525D01*
X2847533Y6191917D01*
X2872925Y6166525D01*
Y6090350D01*
X2923709D02*
X2974492D01*
X2949101D01*
Y6191917D01*
X2923709D01*
X3050668Y6090350D02*
X3101451D01*
X3076059D01*
Y6242701D01*
X3050668D01*
X3380761Y6090350D02*
X3329977Y6141134D01*
Y6191917D01*
X3380761Y6242701D01*
X3456936Y6217309D02*
X3482328Y6242701D01*
X3533111D01*
X3558503Y6217309D01*
Y6115742D01*
X3533111Y6090350D01*
X3482328D01*
X3456936Y6115742D01*
Y6217309D01*
X3609287Y6090350D02*
Y6115742D01*
X3634679D01*
Y6090350D01*
X3609287D01*
X3736246Y6217309D02*
X3761637Y6242701D01*
X3812421D01*
X3837813Y6217309D01*
Y6191917D01*
X3812421Y6166525D01*
X3787029D01*
X3812421D01*
X3837813Y6141134D01*
Y6115742D01*
X3812421Y6090350D01*
X3761637D01*
X3736246Y6115742D01*
X3888596Y6217309D02*
X3913988Y6242701D01*
X3964772D01*
X3990163Y6217309D01*
Y6115742D01*
X3964772Y6090350D01*
X3913988D01*
X3888596Y6115742D01*
Y6217309D01*
X4040947D02*
X4066339Y6242701D01*
X4117122D01*
X4142514Y6217309D01*
Y6115742D01*
X4117122Y6090350D01*
X4066339D01*
X4040947Y6115742D01*
Y6217309D01*
X4193298Y6090350D02*
Y6191917D01*
X4218690D01*
X4244081Y6166525D01*
Y6090350D01*
Y6166525D01*
X4269473Y6191917D01*
X4294865Y6166525D01*
Y6090350D01*
X4345648D02*
Y6191917D01*
X4371040D01*
X4396432Y6166525D01*
Y6090350D01*
Y6166525D01*
X4421824Y6191917D01*
X4447216Y6166525D01*
Y6090350D01*
X4497999D02*
X4548783Y6141134D01*
Y6191917D01*
X4497999Y6242701D01*
X2212739Y5861701D02*
X2111172D01*
Y5785525D01*
X2161955Y5810917D01*
X2187347D01*
X2212739Y5785525D01*
Y5734742D01*
X2187347Y5709350D01*
X2136564D01*
X2111172Y5734742D01*
X2263523Y5709350D02*
Y5734742D01*
X2288914D01*
Y5709350D01*
X2263523D01*
X2390481Y5734742D02*
X2415873Y5709350D01*
X2466657D01*
X2492049Y5734742D01*
Y5836309D01*
X2466657Y5861701D01*
X2415873D01*
X2390481Y5836309D01*
Y5810917D01*
X2415873Y5785525D01*
X2492049D01*
X2542832Y5709350D02*
X2593616D01*
X2568224D01*
Y5861701D01*
X2542832Y5836309D01*
X2669791Y5709350D02*
Y5810917D01*
X2695183D01*
X2720574Y5785525D01*
Y5709350D01*
Y5785525D01*
X2745966Y5810917D01*
X2771358Y5785525D01*
Y5709350D01*
X2822142D02*
X2872925D01*
X2847534D01*
Y5810917D01*
X2822142D01*
X2949101Y5709350D02*
X2999884D01*
X2974492D01*
Y5861701D01*
X2949101D01*
X3279194Y5709350D02*
X3228410Y5760134D01*
Y5810917D01*
X3279194Y5861701D01*
X3355369Y5836309D02*
X3380761Y5861701D01*
X3431544D01*
X3456936Y5836309D01*
Y5734742D01*
X3431544Y5709350D01*
X3380761D01*
X3355369Y5734742D01*
Y5836309D01*
X3507720Y5709350D02*
Y5734742D01*
X3533112D01*
Y5709350D01*
X3507720D01*
X3634679D02*
X3685462D01*
X3660070D01*
Y5861701D01*
X3634679Y5836309D01*
X3863205Y5861701D02*
X3761637D01*
Y5785525D01*
X3812421Y5810917D01*
X3837813D01*
X3863205Y5785525D01*
Y5734742D01*
X3837813Y5709350D01*
X3787029D01*
X3761637Y5734742D01*
X3913988Y5836309D02*
X3939380Y5861701D01*
X3990163D01*
X4015555Y5836309D01*
Y5734742D01*
X3990163Y5709350D01*
X3939380D01*
X3913988Y5734742D01*
Y5836309D01*
X4066339Y5709350D02*
Y5810917D01*
X4091731D01*
X4117122Y5785525D01*
Y5709350D01*
Y5785525D01*
X4142514Y5810917D01*
X4167906Y5785525D01*
Y5709350D01*
X4218690D02*
Y5810917D01*
X4244081D01*
X4269473Y5785525D01*
Y5709350D01*
Y5785525D01*
X4294865Y5810917D01*
X4320257Y5785525D01*
Y5709350D01*
X4371040D02*
X4421824Y5760134D01*
Y5810917D01*
X4371040Y5861701D01*
X587574Y5455309D02*
X612966Y5480701D01*
X663750D01*
X689142Y5455309D01*
Y5429917D01*
X663750Y5404525D01*
X638358D01*
X663750D01*
X689142Y5379134D01*
Y5353742D01*
X663750Y5328350D01*
X612966D01*
X587574Y5353742D01*
X739925D02*
X765317Y5328350D01*
X816100D01*
X841492Y5353742D01*
Y5455309D01*
X816100Y5480701D01*
X765317D01*
X739925Y5455309D01*
Y5429917D01*
X765317Y5404525D01*
X841492D01*
X892276Y5480701D02*
X993843D01*
Y5455309D01*
X892276Y5353742D01*
Y5328350D01*
X1196977Y5480701D02*
X1298545D01*
X1247761D01*
Y5328350D01*
X1374720D02*
X1425503D01*
X1450895Y5353742D01*
Y5404525D01*
X1425503Y5429917D01*
X1374720D01*
X1349328Y5404525D01*
Y5353742D01*
X1374720Y5328350D01*
X1527071Y5455309D02*
Y5429917D01*
X1501679D01*
X1552462D01*
X1527071D01*
Y5353742D01*
X1552462Y5328350D01*
X1654029Y5429917D02*
X1704813D01*
X1730205Y5404525D01*
Y5328350D01*
X1654029D01*
X1628638Y5353742D01*
X1654029Y5379134D01*
X1730205D01*
X1780988Y5328350D02*
X1831772D01*
X1806380D01*
Y5480701D01*
X1780988D01*
X663750Y6471350D02*
Y6623701D01*
X587574Y6547525D01*
X689142D01*
Y6090350D02*
X587574D01*
X689142Y6191917D01*
Y6217309D01*
X663750Y6242701D01*
X612966D01*
X587574Y6217309D01*
X739925D02*
X765317Y6242701D01*
X816100D01*
X841492Y6217309D01*
Y6115742D01*
X816100Y6090350D01*
X765317D01*
X739925Y6115742D01*
Y6217309D01*
X587574Y5836309D02*
X612966Y5861701D01*
X663750D01*
X689142Y5836309D01*
Y5810917D01*
X663750Y5785525D01*
X638358D01*
X663750D01*
X689142Y5760134D01*
Y5734742D01*
X663750Y5709350D01*
X612966D01*
X587574Y5734742D01*
X739925Y5861701D02*
X841492D01*
Y5836309D01*
X739925Y5734742D01*
Y5709350D01*
X892276Y5836309D02*
X917668Y5861701D01*
X968451D01*
X993843Y5836309D01*
Y5810917D01*
X968451Y5785525D01*
X943059D01*
X968451D01*
X993843Y5760134D01*
Y5734742D01*
X968451Y5709350D01*
X917668D01*
X892276Y5734742D01*
D169*
X525400Y500000D02*
G03*
X525400Y500000I-25400J0D01*
G01*
X542333D02*
G03*
X542333Y500000I-42333J0D01*
G01*
X525400Y4500000D02*
G03*
X525400Y4500000I-25400J0D01*
G01*
X542333D02*
G03*
X542333Y4500000I-42333J0D01*
G01*
X5025400D02*
G03*
X5025400Y4500000I-25400J0D01*
G01*
X5042333D02*
G03*
X5042333Y4500000I-42333J0D01*
G01*
X5025400Y500000D02*
G03*
X5025400Y500000I-25400J0D01*
G01*
X5042333D02*
G03*
X5042333Y500000I-42333J0D01*
G01*
X3102665Y3377663D02*
X3144999Y3398829D01*
X3187332Y3377663D01*
X3166165Y3419996D02*
X3187332Y3377663D01*
X3166165Y3419996D02*
X3187332Y3462329D01*
X3144999Y3441162D02*
X3187332Y3462329D01*
X3102665D02*
X3144999Y3441162D01*
X3102665Y3462329D02*
X3123832Y3419996D01*
X3102665Y3377663D02*
X3123832Y3419996D01*
X2862665Y3077663D02*
X2904999Y3098829D01*
X2947332Y3077663D01*
X2926165Y3119996D02*
X2947332Y3077663D01*
X2926165Y3119996D02*
X2947332Y3162329D01*
X2904999Y3141162D02*
X2947332Y3162329D01*
X2862665D02*
X2904999Y3141162D01*
X2862665Y3162329D02*
X2883832Y3119996D01*
X2862665Y3077663D02*
X2883832Y3119996D01*
X1457665Y3012663D02*
X1499999Y3033829D01*
X1542332Y3012663D01*
X1521165Y3054996D02*
X1542332Y3012663D01*
X1521165Y3054996D02*
X1542332Y3097329D01*
X1499999Y3076162D02*
X1542332Y3097329D01*
X1457665D02*
X1499999Y3076162D01*
X1457665Y3097329D02*
X1478832Y3054996D01*
X1457665Y3012663D02*
X1478832Y3054996D01*
X3418822Y1764679D02*
X3461155Y1785846D01*
X3503488Y1764679D01*
X3482322Y1807013D02*
X3503488Y1764679D01*
X3482322Y1807013D02*
X3503488Y1849346D01*
X3461155Y1828179D02*
X3503488Y1849346D01*
X3418822D02*
X3461155Y1828179D01*
X3418822Y1849346D02*
X3439989Y1807013D01*
X3418822Y1764679D02*
X3439989Y1807013D01*
X2982665Y2717663D02*
X3024999Y2738829D01*
X3067332Y2717663D01*
X3046165Y2759996D02*
X3067332Y2717663D01*
X3046165Y2759996D02*
X3067332Y2802329D01*
X3024999Y2781162D02*
X3067332Y2802329D01*
X2982665D02*
X3024999Y2781162D01*
X2982665Y2802329D02*
X3003832Y2759996D01*
X2982665Y2717663D02*
X3003832Y2759996D01*
X3047665Y2722663D02*
X3089998Y2743829D01*
X3132332Y2722663D01*
X3111165Y2764996D02*
X3132332Y2722663D01*
X3111165Y2764996D02*
X3132332Y2807329D01*
X3089998Y2786162D02*
X3132332Y2807329D01*
X3047665D02*
X3089998Y2786162D01*
X3047665Y2807329D02*
X3068832Y2764996D01*
X3047665Y2722663D02*
X3068832Y2764996D01*
X2917665Y2722663D02*
X2959998Y2743829D01*
X3002332Y2722663D01*
X2981165Y2764996D02*
X3002332Y2722663D01*
X2981165Y2764996D02*
X3002332Y2807329D01*
X2959998Y2786162D02*
X3002332Y2807329D01*
X2917665D02*
X2959998Y2786162D01*
X2917665Y2807329D02*
X2938832Y2764996D01*
X2917665Y2722663D02*
X2938832Y2764996D01*
X1517665Y3132663D02*
X1559998Y3153829D01*
X1602332Y3132663D01*
X1581165Y3174996D02*
X1602332Y3132663D01*
X1581165Y3174996D02*
X1602332Y3217329D01*
X1559998Y3196162D02*
X1602332Y3217329D01*
X1517665D02*
X1559998Y3196162D01*
X1517665Y3217329D02*
X1538832Y3174996D01*
X1517665Y3132663D02*
X1538832Y3174996D01*
X2661285Y1726062D02*
X2703618Y1747229D01*
X2745951Y1726062D01*
X2724784Y1768395D02*
X2745951Y1726062D01*
X2724784Y1768395D02*
X2745951Y1810728D01*
X2703618Y1789562D02*
X2745951Y1810728D01*
X2661285D02*
X2703618Y1789562D01*
X2661285Y1810728D02*
X2682451Y1768395D01*
X2661285Y1726062D02*
X2682451Y1768395D01*
X2774445Y1812421D02*
X2816778Y1833588D01*
X2859111Y1812421D01*
X2837945Y1854754D02*
X2859111Y1812421D01*
X2837945Y1854754D02*
X2859111Y1897088D01*
X2816778Y1875921D02*
X2859111Y1897088D01*
X2774445D02*
X2816778Y1875921D01*
X2774445Y1897088D02*
X2795612Y1854754D01*
X2774445Y1812421D02*
X2795612Y1854754D01*
X1461107Y2357334D02*
X1503440Y2378500D01*
X1545773Y2357334D01*
X1524606Y2399667D02*
X1545773Y2357334D01*
X1524606Y2399667D02*
X1545773Y2442000D01*
X1503440Y2420834D02*
X1545773Y2442000D01*
X1461107D02*
X1503440Y2420834D01*
X1461107Y2442000D02*
X1482273Y2399667D01*
X1461107Y2357334D02*
X1482273Y2399667D01*
X1486286Y2542269D02*
X1528619Y2563436D01*
X1570952Y2542269D01*
X1549786Y2584602D02*
X1570952Y2542269D01*
X1549786Y2584602D02*
X1570952Y2626936D01*
X1528619Y2605769D02*
X1570952Y2626936D01*
X1486286D02*
X1528619Y2605769D01*
X1486286Y2626936D02*
X1507452Y2584602D01*
X1486286Y2542269D02*
X1507452Y2584602D01*
X1467665Y2417662D02*
X1509999Y2438829D01*
X1552332Y2417662D01*
X1531165Y2459996D02*
X1552332Y2417662D01*
X1531165Y2459996D02*
X1552332Y2502329D01*
X1509999Y2481162D02*
X1552332Y2502329D01*
X1467665D02*
X1509999Y2481162D01*
X1467665Y2502329D02*
X1488832Y2459996D01*
X1467665Y2417662D02*
X1488832Y2459996D01*
X1478223Y2458830D02*
X1520556Y2479997D01*
X1562889Y2458830D01*
X1541722Y2501163D02*
X1562889Y2458830D01*
X1541722Y2501163D02*
X1562889Y2543497D01*
X1520556Y2522330D02*
X1562889Y2543497D01*
X1478223D02*
X1520556Y2522330D01*
X1478223Y2543497D02*
X1499389Y2501163D01*
X1478223Y2458830D02*
X1499389Y2501163D01*
X2352665Y1857663D02*
X2394999Y1878829D01*
X2437332Y1857663D01*
X2416165Y1899996D02*
X2437332Y1857663D01*
X2416165Y1899996D02*
X2437332Y1942329D01*
X2394999Y1921162D02*
X2437332Y1942329D01*
X2352665D02*
X2394999Y1921162D01*
X2352665Y1942329D02*
X2373832Y1899996D01*
X2352665Y1857663D02*
X2373832Y1899996D01*
X2331309Y2180041D02*
X2373642Y2201208D01*
X2415976Y2180041D01*
X2394809Y2222374D02*
X2415976Y2180041D01*
X2394809Y2222374D02*
X2415976Y2264707D01*
X2373642Y2243541D02*
X2415976Y2264707D01*
X2331309D02*
X2373642Y2243541D01*
X2331309Y2264707D02*
X2352476Y2222374D01*
X2331309Y2180041D02*
X2352476Y2222374D01*
X2322665Y2362663D02*
X2364999Y2383829D01*
X2407332Y2362663D01*
X2386165Y2404996D02*
X2407332Y2362663D01*
X2386165Y2404996D02*
X2407332Y2447329D01*
X2364999Y2426162D02*
X2407332Y2447329D01*
X2322665D02*
X2364999Y2426162D01*
X2322665Y2447329D02*
X2343832Y2404996D01*
X2322665Y2362663D02*
X2343832Y2404996D01*
X1494330Y2851587D02*
X1536663Y2872754D01*
X1578997Y2851587D01*
X1557830Y2893920D02*
X1578997Y2851587D01*
X1557830Y2893920D02*
X1578997Y2936253D01*
X1536663Y2915087D02*
X1578997Y2936253D01*
X1494330D02*
X1536663Y2915087D01*
X1494330Y2936253D02*
X1515497Y2893920D01*
X1494330Y2851587D02*
X1515497Y2893920D01*
X1482357Y2778894D02*
X1524691Y2800060D01*
X1567024Y2778894D01*
X1545857Y2821227D02*
X1567024Y2778894D01*
X1545857Y2821227D02*
X1567024Y2863560D01*
X1524691Y2842393D02*
X1567024Y2863560D01*
X1482357D02*
X1524691Y2842393D01*
X1482357Y2863560D02*
X1503524Y2821227D01*
X1482357Y2778894D02*
X1503524Y2821227D01*
X1497665Y2977661D02*
X1539998Y2998828D01*
X1582331Y2977661D01*
X1561165Y3019994D02*
X1582331Y2977661D01*
X1561165Y3019994D02*
X1582331Y3062328D01*
X1539998Y3041161D02*
X1582331Y3062328D01*
X1497665D02*
X1539998Y3041161D01*
X1497665Y3062328D02*
X1518831Y3019994D01*
X1497665Y2977661D02*
X1518831Y3019994D01*
X1462665Y2297662D02*
X1504999Y2318829D01*
X1547332Y2297662D01*
X1526165Y2339996D02*
X1547332Y2297662D01*
X1526165Y2339996D02*
X1547332Y2382329D01*
X1504999Y2361162D02*
X1547332Y2382329D01*
X1462665D02*
X1504999Y2361162D01*
X1462665Y2382329D02*
X1483832Y2339996D01*
X1462665Y2297662D02*
X1483832Y2339996D01*
X1452666Y2062663D02*
X1494999Y2083829D01*
X1537332Y2062663D01*
X1516166Y2104996D02*
X1537332Y2062663D01*
X1516166Y2104996D02*
X1537332Y2147329D01*
X1494999Y2126162D02*
X1537332Y2147329D01*
X1452666D02*
X1494999Y2126162D01*
X1452666Y2147329D02*
X1473832Y2104996D01*
X1452666Y2062663D02*
X1473832Y2104996D01*
X2332665Y2117663D02*
X2374999Y2138829D01*
X2417332Y2117663D01*
X2396165Y2159996D02*
X2417332Y2117663D01*
X2396165Y2159996D02*
X2417332Y2202329D01*
X2374999Y2181162D02*
X2417332Y2202329D01*
X2332665D02*
X2374999Y2181162D01*
X2332665Y2202329D02*
X2353832Y2159996D01*
X2332665Y2117663D02*
X2353832Y2159996D01*
X2332665Y2052662D02*
X2374999Y2073829D01*
X2417332Y2052662D01*
X2396165Y2094996D02*
X2417332Y2052662D01*
X2396165Y2094996D02*
X2417332Y2137329D01*
X2374999Y2116162D02*
X2417332Y2137329D01*
X2332665D02*
X2374999Y2116162D01*
X2332665Y2137329D02*
X2353832Y2094996D01*
X2332665Y2052662D02*
X2353832Y2094996D01*
X3057665Y3282662D02*
X3099999Y3303829D01*
X3142332Y3282662D01*
X3121165Y3324996D02*
X3142332Y3282662D01*
X3121165Y3324996D02*
X3142332Y3367329D01*
X3099999Y3346162D02*
X3142332Y3367329D01*
X3057665D02*
X3099999Y3346162D01*
X3057665Y3367329D02*
X3078832Y3324996D01*
X3057665Y3282662D02*
X3078832Y3324996D01*
X2252665Y2812662D02*
X2294998Y2833829D01*
X2337332Y2812662D01*
X2316165Y2854996D02*
X2337332Y2812662D01*
X2316165Y2854996D02*
X2337332Y2897329D01*
X2294998Y2876162D02*
X2337332Y2897329D01*
X2252665D02*
X2294998Y2876162D01*
X2252665Y2897329D02*
X2273832Y2854996D01*
X2252665Y2812662D02*
X2273832Y2854996D01*
X3352665Y1352663D02*
X3394999Y1373829D01*
X3437332Y1352663D01*
X3416165Y1394996D02*
X3437332Y1352663D01*
X3416165Y1394996D02*
X3437332Y1437329D01*
X3394999Y1416162D02*
X3437332Y1437329D01*
X3352665D02*
X3394999Y1416162D01*
X3352665Y1437329D02*
X3373832Y1394996D01*
X3352665Y1352663D02*
X3373832Y1394996D01*
X3507666Y1348843D02*
X3549999Y1370010D01*
X3592332Y1348843D01*
X3571165Y1391177D02*
X3592332Y1348843D01*
X3571165Y1391177D02*
X3592332Y1433510D01*
X3549999Y1412343D02*
X3592332Y1433510D01*
X3507666D02*
X3549999Y1412343D01*
X3507666Y1433510D02*
X3528832Y1391177D01*
X3507666Y1348843D02*
X3528832Y1391177D01*
X1672665Y3192662D02*
X1714999Y3213829D01*
X1757332Y3192662D01*
X1736165Y3234996D02*
X1757332Y3192662D01*
X1736165Y3234996D02*
X1757332Y3277329D01*
X1714999Y3256162D02*
X1757332Y3277329D01*
X1672665D02*
X1714999Y3256162D01*
X1672665Y3277329D02*
X1693832Y3234996D01*
X1672665Y3192662D02*
X1693832Y3234996D01*
X3927665Y2667662D02*
X3969998Y2688829D01*
X4012332Y2667662D01*
X3991165Y2709996D02*
X4012332Y2667662D01*
X3991165Y2709996D02*
X4012332Y2752329D01*
X3969998Y2731162D02*
X4012332Y2752329D01*
X3927665D02*
X3969998Y2731162D01*
X3927665Y2752329D02*
X3948832Y2709996D01*
X3927665Y2667662D02*
X3948832Y2709996D01*
X3587665Y2872663D02*
X3629999Y2893829D01*
X3672332Y2872663D01*
X3651165Y2914996D02*
X3672332Y2872663D01*
X3651165Y2914996D02*
X3672332Y2957329D01*
X3629999Y2936162D02*
X3672332Y2957329D01*
X3587665D02*
X3629999Y2936162D01*
X3587665Y2957329D02*
X3608832Y2914996D01*
X3587665Y2872663D02*
X3608832Y2914996D01*
X2775202Y1997793D02*
X2817535Y2018959D01*
X2859868Y1997793D01*
X2838702Y2040126D02*
X2859868Y1997793D01*
X2838702Y2040126D02*
X2859868Y2082459D01*
X2817535Y2061292D02*
X2859868Y2082459D01*
X2775202D02*
X2817535Y2061292D01*
X2775202Y2082459D02*
X2796369Y2040126D01*
X2775202Y1997793D02*
X2796369Y2040126D01*
X2872666Y1407662D02*
X2914999Y1428829D01*
X2957332Y1407662D01*
X2936165Y1449996D02*
X2957332Y1407662D01*
X2936165Y1449996D02*
X2957332Y1492329D01*
X2914999Y1471162D02*
X2957332Y1492329D01*
X2872666D02*
X2914999Y1471162D01*
X2872666Y1492329D02*
X2893832Y1449996D01*
X2872666Y1407662D02*
X2893832Y1449996D01*
X2775166Y1947680D02*
X2817499Y1968847D01*
X2859832Y1947680D01*
X2838665Y1990013D02*
X2859832Y1947680D01*
X2838665Y1990013D02*
X2859832Y2032346D01*
X2817499Y2011180D02*
X2859832Y2032346D01*
X2775166D02*
X2817499Y2011180D01*
X2775166Y2032346D02*
X2796332Y1990013D01*
X2775166Y1947680D02*
X2796332Y1990013D01*
X2902666Y1677662D02*
X2944999Y1698829D01*
X2987332Y1677662D01*
X2966165Y1719996D02*
X2987332Y1677662D01*
X2966165Y1719996D02*
X2987332Y1762329D01*
X2944999Y1741162D02*
X2987332Y1762329D01*
X2902666D02*
X2944999Y1741162D01*
X2902666Y1762329D02*
X2923832Y1719996D01*
X2902666Y1677662D02*
X2923832Y1719996D01*
X2972665Y1587663D02*
X3014999Y1608829D01*
X3057332Y1587663D01*
X3036165Y1629996D02*
X3057332Y1587663D01*
X3036165Y1629996D02*
X3057332Y1672329D01*
X3014999Y1651162D02*
X3057332Y1672329D01*
X2972665D02*
X3014999Y1651162D01*
X2972665Y1672329D02*
X2993832Y1629996D01*
X2972665Y1587663D02*
X2993832Y1629996D01*
X3022666Y1587663D02*
X3064999Y1608829D01*
X3107332Y1587663D01*
X3086165Y1629996D02*
X3107332Y1587663D01*
X3086165Y1629996D02*
X3107332Y1672329D01*
X3064999Y1651162D02*
X3107332Y1672329D01*
X3022666D02*
X3064999Y1651162D01*
X3022666Y1672329D02*
X3043832Y1629996D01*
X3022666Y1587663D02*
X3043832Y1629996D01*
X1447844Y2141233D02*
X1490177Y2162400D01*
X1532510Y2141233D01*
X1511343Y2183567D02*
X1532510Y2141233D01*
X1511343Y2183567D02*
X1532510Y2225900D01*
X1490177Y2204733D02*
X1532510Y2225900D01*
X1447844D02*
X1490177Y2204733D01*
X1447844Y2225900D02*
X1469010Y2183567D01*
X1447844Y2141233D02*
X1469010Y2183567D01*
X1452665Y1977663D02*
X1494999Y1998829D01*
X1537332Y1977663D01*
X1516165Y2019996D02*
X1537332Y1977663D01*
X1516165Y2019996D02*
X1537332Y2062329D01*
X1494999Y2041162D02*
X1537332Y2062329D01*
X1452665D02*
X1494999Y2041162D01*
X1452665Y2062329D02*
X1473832Y2019996D01*
X1452665Y1977663D02*
X1473832Y2019996D01*
X3492666Y1522662D02*
X3534999Y1543829D01*
X3577332Y1522662D01*
X3556165Y1564996D02*
X3577332Y1522662D01*
X3556165Y1564996D02*
X3577332Y1607329D01*
X3534999Y1586162D02*
X3577332Y1607329D01*
X3492666D02*
X3534999Y1586162D01*
X3492666Y1607329D02*
X3513832Y1564996D01*
X3492666Y1522662D02*
X3513832Y1564996D01*
X3050020Y1672687D02*
X3092353Y1693854D01*
X3134686Y1672687D01*
X3113520Y1715020D02*
X3134686Y1672687D01*
X3113520Y1715020D02*
X3134686Y1757354D01*
X3092353Y1736187D02*
X3134686Y1757354D01*
X3050020D02*
X3092353Y1736187D01*
X3050020Y1757354D02*
X3071187Y1715020D01*
X3050020Y1672687D02*
X3071187Y1715020D01*
X3281865Y1672893D02*
X3324198Y1694060D01*
X3366531Y1672893D01*
X3345364Y1715226D02*
X3366531Y1672893D01*
X3345364Y1715226D02*
X3366531Y1757559D01*
X3324198Y1736393D02*
X3366531Y1757559D01*
X3281865D02*
X3324198Y1736393D01*
X3281865Y1757559D02*
X3303031Y1715226D01*
X3281865Y1672893D02*
X3303031Y1715226D01*
X3235389Y1544671D02*
X3277722Y1565837D01*
X3320055Y1544671D01*
X3298888Y1587004D02*
X3320055Y1544671D01*
X3298888Y1587004D02*
X3320055Y1629337D01*
X3277722Y1608171D02*
X3320055Y1629337D01*
X3235389D02*
X3277722Y1608171D01*
X3235389Y1629337D02*
X3256555Y1587004D01*
X3235389Y1544671D02*
X3256555Y1587004D01*
X3184409Y1538270D02*
X3226742Y1559436D01*
X3269076Y1538270D01*
X3247909Y1580603D02*
X3269076Y1538270D01*
X3247909Y1580603D02*
X3269076Y1622936D01*
X3226742Y1601769D02*
X3269076Y1622936D01*
X3184409D02*
X3226742Y1601769D01*
X3184409Y1622936D02*
X3205576Y1580603D01*
X3184409Y1538270D02*
X3205576Y1580603D01*
X2461217Y1694697D02*
X2503550Y1715863D01*
X2545883Y1694697D01*
X2524717Y1737030D02*
X2545883Y1694697D01*
X2524717Y1737030D02*
X2545883Y1779363D01*
X2503550Y1758196D02*
X2545883Y1779363D01*
X2461217D02*
X2503550Y1758196D01*
X2461217Y1779363D02*
X2482384Y1737030D01*
X2461217Y1694697D02*
X2482384Y1737030D01*
X3677665Y1807663D02*
X3719998Y1828829D01*
X3762332Y1807663D01*
X3741165Y1849996D02*
X3762332Y1807663D01*
X3741165Y1849996D02*
X3762332Y1892329D01*
X3719998Y1871162D02*
X3762332Y1892329D01*
X3677665D02*
X3719998Y1871162D01*
X3677665Y1892329D02*
X3698832Y1849996D01*
X3677665Y1807663D02*
X3698832Y1849996D01*
X2762665Y1352663D02*
X2804998Y1373829D01*
X2847332Y1352663D01*
X2826165Y1394996D02*
X2847332Y1352663D01*
X2826165Y1394996D02*
X2847332Y1437329D01*
X2804998Y1416162D02*
X2847332Y1437329D01*
X2762665D02*
X2804998Y1416162D01*
X2762665Y1437329D02*
X2783832Y1394996D01*
X2762665Y1352663D02*
X2783832Y1394996D01*
X3010223Y3061719D02*
X3052556Y3082886D01*
X3094889Y3061719D01*
X3073723Y3104052D02*
X3094889Y3061719D01*
X3073723Y3104052D02*
X3094889Y3146385D01*
X3052556Y3125219D02*
X3094889Y3146385D01*
X3010223D02*
X3052556Y3125219D01*
X3010223Y3146385D02*
X3031389Y3104052D01*
X3010223Y3061719D02*
X3031389Y3104052D01*
X3154188Y3103333D02*
X3196521Y3124499D01*
X3238855Y3103333D01*
X3217688Y3145666D02*
X3238855Y3103333D01*
X3217688Y3145666D02*
X3238855Y3187999D01*
X3196521Y3166832D02*
X3238855Y3187999D01*
X3154188D02*
X3196521Y3166832D01*
X3154188Y3187999D02*
X3175355Y3145666D01*
X3154188Y3103333D02*
X3175355Y3145666D01*
X3347029Y2007340D02*
X3389363Y2028506D01*
X3431696Y2007340D01*
X3410529Y2049673D02*
X3431696Y2007340D01*
X3410529Y2049673D02*
X3431696Y2092006D01*
X3389363Y2070840D02*
X3431696Y2092006D01*
X3347029D02*
X3389363Y2070840D01*
X3347029Y2092006D02*
X3368196Y2049673D01*
X3347029Y2007340D02*
X3368196Y2049673D01*
X3182665Y2712663D02*
X3224999Y2733829D01*
X3267332Y2712663D01*
X3246165Y2754996D02*
X3267332Y2712663D01*
X3246165Y2754996D02*
X3267332Y2797329D01*
X3224999Y2776162D02*
X3267332Y2797329D01*
X3182665D02*
X3224999Y2776162D01*
X3182665Y2797329D02*
X3203832Y2754996D01*
X3182665Y2712663D02*
X3203832Y2754996D01*
X3540678Y2671461D02*
X3583012Y2692628D01*
X3625345Y2671461D01*
X3604178Y2713794D02*
X3625345Y2671461D01*
X3604178Y2713794D02*
X3625345Y2756127D01*
X3583012Y2734961D02*
X3625345Y2756127D01*
X3540678D02*
X3583012Y2734961D01*
X3540678Y2756127D02*
X3561845Y2713794D01*
X3540678Y2671461D02*
X3561845Y2713794D01*
X2857665Y2582663D02*
X2899999Y2603829D01*
X2942332Y2582663D01*
X2921165Y2624996D02*
X2942332Y2582663D01*
X2921165Y2624996D02*
X2942332Y2667329D01*
X2899999Y2646162D02*
X2942332Y2667329D01*
X2857665D02*
X2899999Y2646162D01*
X2857665Y2667329D02*
X2878832Y2624996D01*
X2857665Y2582663D02*
X2878832Y2624996D01*
X3782665Y2887663D02*
X3824998Y2908829D01*
X3867332Y2887663D01*
X3846165Y2929996D02*
X3867332Y2887663D01*
X3846165Y2929996D02*
X3867332Y2972329D01*
X3824998Y2951162D02*
X3867332Y2972329D01*
X3782665D02*
X3824998Y2951162D01*
X3782665Y2972329D02*
X3803832Y2929996D01*
X3782665Y2887663D02*
X3803832Y2929996D01*
X4137665Y2712663D02*
X4179998Y2733829D01*
X4222332Y2712663D01*
X4201165Y2754996D02*
X4222332Y2712663D01*
X4201165Y2754996D02*
X4222332Y2797329D01*
X4179998Y2776162D02*
X4222332Y2797329D01*
X4137665D02*
X4179998Y2776162D01*
X4137665Y2797329D02*
X4158832Y2754996D01*
X4137665Y2712663D02*
X4158832Y2754996D01*
X4185805Y2711493D02*
X4228138Y2732660D01*
X4270471Y2711493D01*
X4249304Y2753826D02*
X4270471Y2711493D01*
X4249304Y2753826D02*
X4270471Y2796159D01*
X4228138Y2774993D02*
X4270471Y2796159D01*
X4185805D02*
X4228138Y2774993D01*
X4185805Y2796159D02*
X4206971Y2753826D01*
X4185805Y2711493D02*
X4206971Y2753826D01*
X2642665Y1792665D02*
X2684998Y1813832D01*
X2727331Y1792665D01*
X2706165Y1834998D02*
X2727331Y1792665D01*
X2706165Y1834998D02*
X2727331Y1877331D01*
X2684998Y1856165D02*
X2727331Y1877331D01*
X2642665D02*
X2684998Y1856165D01*
X2642665Y1877331D02*
X2663832Y1834998D01*
X2642665Y1792665D02*
X2663832Y1834998D01*
X1402879Y3139199D02*
X1445212Y3160365D01*
X1487545Y3139199D01*
X1466379Y3181532D02*
X1487545Y3139199D01*
X1466379Y3181532D02*
X1487545Y3223865D01*
X1445212Y3202698D02*
X1487545Y3223865D01*
X1402879D02*
X1445212Y3202698D01*
X1402879Y3223865D02*
X1424045Y3181532D01*
X1402879Y3139199D02*
X1424045Y3181532D01*
X1647739Y3570999D02*
X1690072Y3592166D01*
X1732405Y3570999D01*
X1711238Y3613332D02*
X1732405Y3570999D01*
X1711238Y3613332D02*
X1732405Y3655666D01*
X1690072Y3634499D02*
X1732405Y3655666D01*
X1647739D02*
X1690072Y3634499D01*
X1647739Y3655666D02*
X1668905Y3613332D01*
X1647739Y3570999D02*
X1668905Y3613332D01*
X2907665Y3512663D02*
X2949998Y3533829D01*
X2992332Y3512663D01*
X2971165Y3554996D02*
X2992332Y3512663D01*
X2971165Y3554996D02*
X2992332Y3597329D01*
X2949998Y3576162D02*
X2992332Y3597329D01*
X2907665D02*
X2949998Y3576162D01*
X2907665Y3597329D02*
X2928832Y3554996D01*
X2907665Y3512663D02*
X2928832Y3554996D01*
X2832666Y3027661D02*
X2874999Y3048828D01*
X2917332Y3027661D01*
X2896165Y3069994D02*
X2917332Y3027661D01*
X2896165Y3069994D02*
X2917332Y3112328D01*
X2874999Y3091161D02*
X2917332Y3112328D01*
X2832666D02*
X2874999Y3091161D01*
X2832666Y3112328D02*
X2853832Y3069994D01*
X2832666Y3027661D02*
X2853832Y3069994D01*
X3233137Y3427809D02*
X3275470Y3448975D01*
X3317803Y3427809D01*
X3296637Y3470142D02*
X3317803Y3427809D01*
X3296637Y3470142D02*
X3317803Y3512475D01*
X3275470Y3491308D02*
X3317803Y3512475D01*
X3233137D02*
X3275470Y3491308D01*
X3233137Y3512475D02*
X3254304Y3470142D01*
X3233137Y3427809D02*
X3254304Y3470142D01*
X3742665Y3292662D02*
X3784999Y3313829D01*
X3827332Y3292662D01*
X3806165Y3334996D02*
X3827332Y3292662D01*
X3806165Y3334996D02*
X3827332Y3377329D01*
X3784999Y3356162D02*
X3827332Y3377329D01*
X3742665D02*
X3784999Y3356162D01*
X3742665Y3377329D02*
X3763832Y3334996D01*
X3742665Y3292662D02*
X3763832Y3334996D01*
X4307666Y3529661D02*
X4349999Y3550828D01*
X4392332Y3529661D01*
X4371166Y3571995D02*
X4392332Y3529661D01*
X4371166Y3571995D02*
X4392332Y3614328D01*
X4349999Y3593161D02*
X4392332Y3614328D01*
X4307666D02*
X4349999Y3593161D01*
X4307666Y3614328D02*
X4328832Y3571995D01*
X4307666Y3529661D02*
X4328832Y3571995D01*
X4037664Y3617662D02*
X4079997Y3638829D01*
X4122330Y3617662D01*
X4101164Y3659995D02*
X4122330Y3617662D01*
X4101164Y3659995D02*
X4122330Y3702329D01*
X4079997Y3681162D02*
X4122330Y3702329D01*
X4037664D02*
X4079997Y3681162D01*
X4037664Y3702329D02*
X4058830Y3659995D01*
X4037664Y3617662D02*
X4058830Y3659995D01*
X3417665Y1342663D02*
X3459998Y1363829D01*
X3502332Y1342663D01*
X3481165Y1384996D02*
X3502332Y1342663D01*
X3481165Y1384996D02*
X3502332Y1427329D01*
X3459998Y1406162D02*
X3502332Y1427329D01*
X3417665D02*
X3459998Y1406162D01*
X3417665Y1427329D02*
X3438832Y1384996D01*
X3417665Y1342663D02*
X3438832Y1384996D01*
X3082665Y1347663D02*
X3124999Y1368829D01*
X3167332Y1347663D01*
X3146165Y1389996D02*
X3167332Y1347663D01*
X3146165Y1389996D02*
X3167332Y1432329D01*
X3124999Y1411162D02*
X3167332Y1432329D01*
X3082665D02*
X3124999Y1411162D01*
X3082665Y1432329D02*
X3103832Y1389996D01*
X3082665Y1347663D02*
X3103832Y1389996D01*
X2413021Y1944781D02*
X2455354Y1965948D01*
X2497688Y1944781D01*
X2476521Y1987114D02*
X2497688Y1944781D01*
X2476521Y1987114D02*
X2497688Y2029448D01*
X2455354Y2008281D02*
X2497688Y2029448D01*
X2413021D02*
X2455354Y2008281D01*
X2413021Y2029448D02*
X2434188Y1987114D01*
X2413021Y1944781D02*
X2434188Y1987114D01*
X2413067Y2326359D02*
X2455400Y2347526D01*
X2497734Y2326359D01*
X2476567Y2368692D02*
X2497734Y2326359D01*
X2476567Y2368692D02*
X2497734Y2411025D01*
X2455400Y2389859D02*
X2497734Y2411025D01*
X2413067D02*
X2455400Y2389859D01*
X2413067Y2411025D02*
X2434234Y2368692D01*
X2413067Y2326359D02*
X2434234Y2368692D01*
X3587667Y2377663D02*
X3630000Y2398829D01*
X3672334Y2377663D01*
X3651167Y2419996D02*
X3672334Y2377663D01*
X3651167Y2419996D02*
X3672334Y2462329D01*
X3630000Y2441162D02*
X3672334Y2462329D01*
X3587667D02*
X3630000Y2441162D01*
X3587667Y2462329D02*
X3608834Y2419996D01*
X3587667Y2377663D02*
X3608834Y2419996D01*
X3587665Y2182662D02*
X3629999Y2203829D01*
X3672332Y2182662D01*
X3651165Y2224996D02*
X3672332Y2182662D01*
X3651165Y2224996D02*
X3672332Y2267329D01*
X3629999Y2246162D02*
X3672332Y2267329D01*
X3587665D02*
X3629999Y2246162D01*
X3587665Y2267329D02*
X3608832Y2224996D01*
X3587665Y2182662D02*
X3608832Y2224996D01*
X3325165Y1925914D02*
X3367498Y1947080D01*
X3409832Y1925914D01*
X3388665Y1968247D02*
X3409832Y1925914D01*
X3388665Y1968247D02*
X3409832Y2010580D01*
X3367498Y1989413D02*
X3409832Y2010580D01*
X3325165D02*
X3367498Y1989413D01*
X3325165Y2010580D02*
X3346332Y1968247D01*
X3325165Y1925914D02*
X3346332Y1968247D01*
X3832665Y2630163D02*
X3874999Y2651329D01*
X3917332Y2630163D01*
X3896165Y2672496D02*
X3917332Y2630163D01*
X3896165Y2672496D02*
X3917332Y2714829D01*
X3874999Y2693662D02*
X3917332Y2714829D01*
X3832665D02*
X3874999Y2693662D01*
X3832665Y2714829D02*
X3853832Y2672496D01*
X3832665Y2630163D02*
X3853832Y2672496D01*
X3897665Y2595162D02*
X3939998Y2616329D01*
X3982332Y2595162D01*
X3961165Y2637496D02*
X3982332Y2595162D01*
X3961165Y2637496D02*
X3982332Y2679829D01*
X3939998Y2658662D02*
X3982332Y2679829D01*
X3897665D02*
X3939998Y2658662D01*
X3897665Y2679829D02*
X3918832Y2637496D01*
X3897665Y2595162D02*
X3918832Y2637496D01*
X2996722Y2595162D02*
X3039055Y2616329D01*
X3081389Y2595162D01*
X3060222Y2637496D02*
X3081389Y2595162D01*
X3060222Y2637496D02*
X3081389Y2679829D01*
X3039055Y2658662D02*
X3081389Y2679829D01*
X2996722D02*
X3039055Y2658662D01*
X2996722Y2679829D02*
X3017889Y2637496D01*
X2996722Y2595162D02*
X3017889Y2637496D01*
X3386156Y2516152D02*
X3428489Y2537319D01*
X3470822Y2516152D01*
X3449656Y2558485D02*
X3470822Y2516152D01*
X3449656Y2558485D02*
X3470822Y2600819D01*
X3428489Y2579652D02*
X3470822Y2600819D01*
X3386156D02*
X3428489Y2579652D01*
X3386156Y2600819D02*
X3407322Y2558485D01*
X3386156Y2516152D02*
X3407322Y2558485D01*
X2697665Y2497663D02*
X2739999Y2518830D01*
X2782332Y2497663D01*
X2761165Y2539996D02*
X2782332Y2497663D01*
X2761165Y2539996D02*
X2782332Y2582329D01*
X2739999Y2561163D02*
X2782332Y2582329D01*
X2697665D02*
X2739999Y2561163D01*
X2697665Y2582329D02*
X2718832Y2539996D01*
X2697665Y2497663D02*
X2718832Y2539996D01*
X4322402Y3389201D02*
X4364735Y3410367D01*
X4407068Y3389201D01*
X4385902Y3431534D02*
X4407068Y3389201D01*
X4385902Y3431534D02*
X4407068Y3473867D01*
X4364735Y3452700D02*
X4407068Y3473867D01*
X4322402D02*
X4364735Y3452700D01*
X4322402Y3473867D02*
X4343569Y3431534D01*
X4322402Y3389201D02*
X4343569Y3431534D01*
X3459900Y3380430D02*
X3502233Y3401596D01*
X3544566Y3380430D01*
X3523399Y3422763D02*
X3544566Y3380430D01*
X3523399Y3422763D02*
X3544566Y3465096D01*
X3502233Y3443930D02*
X3544566Y3465096D01*
X3459900D02*
X3502233Y3443930D01*
X3459900Y3465096D02*
X3481066Y3422763D01*
X3459900Y3380430D02*
X3481066Y3422763D01*
X3547665Y3052662D02*
X3589998Y3073829D01*
X3632332Y3052662D01*
X3611165Y3094996D02*
X3632332Y3052662D01*
X3611165Y3094996D02*
X3632332Y3137329D01*
X3589998Y3116162D02*
X3632332Y3137329D01*
X3547665D02*
X3589998Y3116162D01*
X3547665Y3137329D02*
X3568832Y3094996D01*
X3547665Y3052662D02*
X3568832Y3094996D01*
X3557668Y3437664D02*
X3600001Y3458831D01*
X3642334Y3437664D01*
X3621167Y3479998D02*
X3642334Y3437664D01*
X3621167Y3479998D02*
X3642334Y3522331D01*
X3600001Y3501164D02*
X3642334Y3522331D01*
X3557668D02*
X3600001Y3501164D01*
X3557668Y3522331D02*
X3578834Y3479998D01*
X3557668Y3437664D02*
X3578834Y3479998D01*
X3592665Y3477663D02*
X3634999Y3498829D01*
X3677332Y3477663D01*
X3656165Y3519996D02*
X3677332Y3477663D01*
X3656165Y3519996D02*
X3677332Y3562329D01*
X3634999Y3541162D02*
X3677332Y3562329D01*
X3592665D02*
X3634999Y3541162D01*
X3592665Y3562329D02*
X3613832Y3519996D01*
X3592665Y3477663D02*
X3613832Y3519996D01*
X3577668Y3523547D02*
X3620001Y3544714D01*
X3662335Y3523547D01*
X3641168Y3565881D02*
X3662335Y3523547D01*
X3641168Y3565881D02*
X3662335Y3608214D01*
X3620001Y3587047D02*
X3662335Y3608214D01*
X3577668D02*
X3620001Y3587047D01*
X3577668Y3608214D02*
X3598835Y3565881D01*
X3577668Y3523547D02*
X3598835Y3565881D01*
X3167665Y2497663D02*
X3209998Y2518829D01*
X3252332Y2497663D01*
X3231165Y2539996D02*
X3252332Y2497663D01*
X3231165Y2539996D02*
X3252332Y2582329D01*
X3209998Y2561162D02*
X3252332Y2582329D01*
X3167665D02*
X3209998Y2561162D01*
X3167665Y2582329D02*
X3188832Y2539996D01*
X3167665Y2497663D02*
X3188832Y2539996D01*
X3182665Y2947662D02*
X3224999Y2968829D01*
X3267332Y2947662D01*
X3246165Y2989996D02*
X3267332Y2947662D01*
X3246165Y2989996D02*
X3267332Y3032329D01*
X3224999Y3011162D02*
X3267332Y3032329D01*
X3182665D02*
X3224999Y3011162D01*
X3182665Y3032329D02*
X3203832Y2989996D01*
X3182665Y2947662D02*
X3203832Y2989996D01*
X3132665Y3572662D02*
X3174998Y3593829D01*
X3217332Y3572662D01*
X3196165Y3614996D02*
X3217332Y3572662D01*
X3196165Y3614996D02*
X3217332Y3657329D01*
X3174998Y3636162D02*
X3217332Y3657329D01*
X3132665D02*
X3174998Y3636162D01*
X3132665Y3657329D02*
X3153832Y3614996D01*
X3132665Y3572662D02*
X3153832Y3614996D01*
X1742240Y3360948D02*
X1784573Y3382114D01*
X1826906Y3360948D01*
X1805740Y3403281D02*
X1826906Y3360948D01*
X1805740Y3403281D02*
X1826906Y3445614D01*
X1784573Y3424447D02*
X1826906Y3445614D01*
X1742240D02*
X1784573Y3424447D01*
X1742240Y3445614D02*
X1763406Y3403281D01*
X1742240Y3360948D02*
X1763406Y3403281D01*
X1640165Y3372663D02*
X1682499Y3393829D01*
X1724832Y3372663D01*
X1703665Y3414996D02*
X1724832Y3372663D01*
X1703665Y3414996D02*
X1724832Y3457329D01*
X1682499Y3436162D02*
X1724832Y3457329D01*
X1640165D02*
X1682499Y3436162D01*
X1640165Y3457329D02*
X1661332Y3414996D01*
X1640165Y3372663D02*
X1661332Y3414996D01*
X2787665Y2587663D02*
X2829998Y2608829D01*
X2872332Y2587663D01*
X2851165Y2629996D02*
X2872332Y2587663D01*
X2851165Y2629996D02*
X2872332Y2672329D01*
X2829998Y2651162D02*
X2872332Y2672329D01*
X2787665D02*
X2829998Y2651162D01*
X2787665Y2672329D02*
X2808832Y2629996D01*
X2787665Y2587663D02*
X2808832Y2629996D01*
X2752666Y2356996D02*
X2794999Y2378163D01*
X2837332Y2356996D01*
X2816166Y2399329D02*
X2837332Y2356996D01*
X2816166Y2399329D02*
X2837332Y2441663D01*
X2794999Y2420496D02*
X2837332Y2441663D01*
X2752666D02*
X2794999Y2420496D01*
X2752666Y2441663D02*
X2773832Y2399329D01*
X2752666Y2356996D02*
X2773832Y2399329D01*
X2947665Y1502662D02*
X2989999Y1523829D01*
X3032332Y1502662D01*
X3011165Y1544996D02*
X3032332Y1502662D01*
X3011165Y1544996D02*
X3032332Y1587329D01*
X2989999Y1566162D02*
X3032332Y1587329D01*
X2947665D02*
X2989999Y1566162D01*
X2947665Y1587329D02*
X2968832Y1544996D01*
X2947665Y1502662D02*
X2968832Y1544996D01*
X2847665Y1547662D02*
X2889999Y1568829D01*
X2932332Y1547662D01*
X2911165Y1589996D02*
X2932332Y1547662D01*
X2911165Y1589996D02*
X2932332Y1632329D01*
X2889999Y1611162D02*
X2932332Y1632329D01*
X2847665D02*
X2889999Y1611162D01*
X2847665Y1632329D02*
X2868832Y1589996D01*
X2847665Y1547662D02*
X2868832Y1589996D01*
X2717101Y1658883D02*
X2759434Y1680050D01*
X2801767Y1658883D01*
X2780600Y1701216D02*
X2801767Y1658883D01*
X2780600Y1701216D02*
X2801767Y1743549D01*
X2759434Y1722383D02*
X2801767Y1743549D01*
X2717101D02*
X2759434Y1722383D01*
X2717101Y1743549D02*
X2738267Y1701216D01*
X2717101Y1658883D02*
X2738267Y1701216D01*
X3982154Y3175333D02*
X4024488Y3196500D01*
X4066821Y3175333D01*
X4045654Y3217666D02*
X4066821Y3175333D01*
X4045654Y3217666D02*
X4066821Y3259999D01*
X4024488Y3238833D02*
X4066821Y3259999D01*
X3982154D02*
X4024488Y3238833D01*
X3982154Y3259999D02*
X4003321Y3217666D01*
X3982154Y3175333D02*
X4003321Y3217666D01*
X4327928Y3045712D02*
X4370261Y3066878D01*
X4412594Y3045712D01*
X4391427Y3088045D02*
X4412594Y3045712D01*
X4391427Y3088045D02*
X4412594Y3130378D01*
X4370261Y3109211D02*
X4412594Y3130378D01*
X4327928D02*
X4370261Y3109211D01*
X4327928Y3130378D02*
X4349094Y3088045D01*
X4327928Y3045712D02*
X4349094Y3088045D01*
X2899692Y2169274D02*
X2942026Y2190441D01*
X2984359Y2169274D01*
X2963192Y2211607D02*
X2984359Y2169274D01*
X2963192Y2211607D02*
X2984359Y2253941D01*
X2942026Y2232774D02*
X2984359Y2253941D01*
X2899692D02*
X2942026Y2232774D01*
X2899692Y2253941D02*
X2920859Y2211607D01*
X2899692Y2169274D02*
X2920859Y2211607D01*
X2857665Y2347663D02*
X2899999Y2368829D01*
X2942332Y2347663D01*
X2921165Y2389996D02*
X2942332Y2347663D01*
X2921165Y2389996D02*
X2942332Y2432329D01*
X2899999Y2411162D02*
X2942332Y2432329D01*
X2857665D02*
X2899999Y2411162D01*
X2857665Y2432329D02*
X2878832Y2389996D01*
X2857665Y2347663D02*
X2878832Y2389996D01*
X3392170Y2143452D02*
X3434503Y2164618D01*
X3476836Y2143452D01*
X3455670Y2185785D02*
X3476836Y2143452D01*
X3455670Y2185785D02*
X3476836Y2228118D01*
X3434503Y2206952D02*
X3476836Y2228118D01*
X3392170D02*
X3434503Y2206952D01*
X3392170Y2228118D02*
X3413337Y2185785D01*
X3392170Y2143452D02*
X3413337Y2185785D01*
X4063674Y2232074D02*
X4106007Y2253240D01*
X4148340Y2232074D01*
X4127174Y2274407D02*
X4148340Y2232074D01*
X4127174Y2274407D02*
X4148340Y2316740D01*
X4106007Y2295574D02*
X4148340Y2316740D01*
X4063674D02*
X4106007Y2295574D01*
X4063674Y2316740D02*
X4084841Y2274407D01*
X4063674Y2232074D02*
X4084841Y2274407D01*
X4058674Y1782074D02*
X4101007Y1803240D01*
X4143340Y1782074D01*
X4122174Y1824407D02*
X4143340Y1782074D01*
X4122174Y1824407D02*
X4143340Y1866740D01*
X4101007Y1845573D02*
X4143340Y1866740D01*
X4058674D02*
X4101007Y1845573D01*
X4058674Y1866740D02*
X4079840Y1824407D01*
X4058674Y1782074D02*
X4079840Y1824407D01*
X4368674Y1792074D02*
X4411007Y1813240D01*
X4453340Y1792074D01*
X4432174Y1834407D02*
X4453340Y1792074D01*
X4432174Y1834407D02*
X4453340Y1876740D01*
X4411007Y1855573D02*
X4453340Y1876740D01*
X4368674D02*
X4411007Y1855573D01*
X4368674Y1876740D02*
X4389841Y1834407D01*
X4368674Y1792074D02*
X4389841Y1834407D01*
X3637665Y2977663D02*
X3679998Y2998829D01*
X3722332Y2977663D01*
X3701165Y3019996D02*
X3722332Y2977663D01*
X3701165Y3019996D02*
X3722332Y3062329D01*
X3679998Y3041162D02*
X3722332Y3062329D01*
X3637665D02*
X3679998Y3041162D01*
X3637665Y3062329D02*
X3658832Y3019996D01*
X3637665Y2977663D02*
X3658832Y3019996D01*
X3637769Y3284712D02*
X3680102Y3305879D01*
X3722436Y3284712D01*
X3701269Y3327045D02*
X3722436Y3284712D01*
X3701269Y3327045D02*
X3722436Y3369379D01*
X3680102Y3348212D02*
X3722436Y3369379D01*
X3637769D02*
X3680102Y3348212D01*
X3637769Y3369379D02*
X3658936Y3327045D01*
X3637769Y3284712D02*
X3658936Y3327045D01*
X3790246Y2313457D02*
X3832579Y2334623D01*
X3874912Y2313457D01*
X3853746Y2355790D02*
X3874912Y2313457D01*
X3853746Y2355790D02*
X3874912Y2398123D01*
X3832579Y2376957D02*
X3874912Y2398123D01*
X3790246D02*
X3832579Y2376957D01*
X3790246Y2398123D02*
X3811412Y2355790D01*
X3790246Y2313457D02*
X3811412Y2355790D01*
X3122176Y2325619D02*
X3164509Y2346786D01*
X3206842Y2325619D01*
X3185675Y2367952D02*
X3206842Y2325619D01*
X3185675Y2367952D02*
X3206842Y2410286D01*
X3164509Y2389119D02*
X3206842Y2410286D01*
X3122176D02*
X3164509Y2389119D01*
X3122176Y2410286D02*
X3143342Y2367952D01*
X3122176Y2325619D02*
X3143342Y2367952D01*
X1767665Y1962663D02*
X1809998Y1983829D01*
X1852332Y1962663D01*
X1831165Y2004996D02*
X1852332Y1962663D01*
X1831165Y2004996D02*
X1852332Y2047329D01*
X1809998Y2026162D02*
X1852332Y2047329D01*
X1767665D02*
X1809998Y2026162D01*
X1767665Y2047329D02*
X1788832Y2004996D01*
X1767665Y1962663D02*
X1788832Y2004996D01*
X2142665Y1939392D02*
X2184998Y1960559D01*
X2227332Y1939392D01*
X2206165Y1981726D02*
X2227332Y1939392D01*
X2206165Y1981726D02*
X2227332Y2024059D01*
X2184998Y2002892D02*
X2227332Y2024059D01*
X2142665D02*
X2184998Y2002892D01*
X2142665Y2024059D02*
X2163832Y1981726D01*
X2142665Y1939392D02*
X2163832Y1981726D01*
X1870939Y2532662D02*
X1913272Y2553829D01*
X1955605Y2532662D01*
X1934438Y2574996D02*
X1955605Y2532662D01*
X1934438Y2574996D02*
X1955605Y2617329D01*
X1913272Y2596162D02*
X1955605Y2617329D01*
X1870939D02*
X1913272Y2596162D01*
X1870939Y2617329D02*
X1892105Y2574996D01*
X1870939Y2532662D02*
X1892105Y2574996D01*
X3432665Y2857663D02*
X3474998Y2878829D01*
X3517332Y2857663D01*
X3496165Y2899996D02*
X3517332Y2857663D01*
X3496165Y2899996D02*
X3517332Y2942329D01*
X3474998Y2921162D02*
X3517332Y2942329D01*
X3432665D02*
X3474998Y2921162D01*
X3432665Y2942329D02*
X3453832Y2899996D01*
X3432665Y2857663D02*
X3453832Y2899996D01*
X3222665Y2857663D02*
X3264999Y2878829D01*
X3307332Y2857663D01*
X3286165Y2899996D02*
X3307332Y2857663D01*
X3286165Y2899996D02*
X3307332Y2942329D01*
X3264999Y2921162D02*
X3307332Y2942329D01*
X3222665D02*
X3264999Y2921162D01*
X3222665Y2942329D02*
X3243832Y2899996D01*
X3222665Y2857663D02*
X3243832Y2899996D01*
X3381567Y3026951D02*
X3423900Y3048118D01*
X3466233Y3026951D01*
X3445067Y3069284D02*
X3466233Y3026951D01*
X3445067Y3069284D02*
X3466233Y3111617D01*
X3423900Y3090451D02*
X3466233Y3111617D01*
X3381567D02*
X3423900Y3090451D01*
X3381567Y3111617D02*
X3402733Y3069284D01*
X3381567Y3026951D02*
X3402733Y3069284D01*
X2149368Y2227635D02*
X2191701Y2248802D01*
X2234034Y2227635D01*
X2212868Y2269968D02*
X2234034Y2227635D01*
X2212868Y2269968D02*
X2234034Y2312301D01*
X2191701Y2291135D02*
X2234034Y2312301D01*
X2149368D02*
X2191701Y2291135D01*
X2149368Y2312301D02*
X2170535Y2269968D01*
X2149368Y2227635D02*
X2170535Y2269968D01*
X2155906Y2290398D02*
X2198239Y2311565D01*
X2240572Y2290398D01*
X2219405Y2332731D02*
X2240572Y2290398D01*
X2219405Y2332731D02*
X2240572Y2375065D01*
X2198239Y2353898D02*
X2240572Y2375065D01*
X2155906D02*
X2198239Y2353898D01*
X2155906Y2375065D02*
X2177072Y2332731D01*
X2155906Y2290398D02*
X2177072Y2332731D01*
X2159426Y2167026D02*
X2201759Y2188193D01*
X2244092Y2167026D01*
X2222925Y2209360D02*
X2244092Y2167026D01*
X2222925Y2209360D02*
X2244092Y2251693D01*
X2201759Y2230526D02*
X2244092Y2251693D01*
X2159426D02*
X2201759Y2230526D01*
X2159426Y2251693D02*
X2180592Y2209360D01*
X2159426Y2167026D02*
X2180592Y2209360D01*
X2209432Y2510894D02*
X2251765Y2532061D01*
X2294098Y2510894D01*
X2272932Y2553228D02*
X2294098Y2510894D01*
X2272932Y2553228D02*
X2294098Y2595561D01*
X2251765Y2574394D02*
X2294098Y2595561D01*
X2209432D02*
X2251765Y2574394D01*
X2209432Y2595561D02*
X2230599Y2553228D01*
X2209432Y2510894D02*
X2230599Y2553228D01*
X1759201Y2162438D02*
X1801534Y2183604D01*
X1843867Y2162438D01*
X1822700Y2204771D02*
X1843867Y2162438D01*
X1822700Y2204771D02*
X1843867Y2247104D01*
X1801534Y2225937D02*
X1843867Y2247104D01*
X1759201D02*
X1801534Y2225937D01*
X1759201Y2247104D02*
X1780367Y2204771D01*
X1759201Y2162438D02*
X1780367Y2204771D01*
X2051232Y1339902D02*
X2093566Y1361069D01*
X2135899Y1339902D01*
X2114732Y1382235D02*
X2135899Y1339902D01*
X2114732Y1382235D02*
X2135899Y1424568D01*
X2093566Y1403402D02*
X2135899Y1424568D01*
X2051232D02*
X2093566Y1403402D01*
X2051232Y1424568D02*
X2072399Y1382235D01*
X2051232Y1339902D02*
X2072399Y1382235D01*
X2527665Y1355162D02*
X2569998Y1376329D01*
X2612332Y1355162D01*
X2591165Y1397496D02*
X2612332Y1355162D01*
X2591165Y1397496D02*
X2612332Y1439829D01*
X2569998Y1418662D02*
X2612332Y1439829D01*
X2527665D02*
X2569998Y1418662D01*
X2527665Y1439829D02*
X2548832Y1397496D01*
X2527665Y1355162D02*
X2548832Y1397496D01*
X2659369Y1427517D02*
X2701702Y1448684D01*
X2744036Y1427517D01*
X2722869Y1469851D02*
X2744036Y1427517D01*
X2722869Y1469851D02*
X2744036Y1512184D01*
X2701702Y1491017D02*
X2744036Y1512184D01*
X2659369D02*
X2701702Y1491017D01*
X2659369Y1512184D02*
X2680536Y1469851D01*
X2659369Y1427517D02*
X2680536Y1469851D01*
X3623282Y3559348D02*
X3665615Y3580514D01*
X3707948Y3559348D01*
X3686782Y3601681D02*
X3707948Y3559348D01*
X3686782Y3601681D02*
X3707948Y3644014D01*
X3665615Y3622847D02*
X3707948Y3644014D01*
X3623282D02*
X3665615Y3622847D01*
X3623282Y3644014D02*
X3644449Y3601681D01*
X3623282Y3559348D02*
X3644449Y3601681D01*
X2298866Y2470791D02*
X2341199Y2491958D01*
X2383532Y2470791D01*
X2362366Y2513125D02*
X2383532Y2470791D01*
X2362366Y2513125D02*
X2383532Y2555458D01*
X2341199Y2534291D02*
X2383532Y2555458D01*
X2298866D02*
X2341199Y2534291D01*
X2298866Y2555458D02*
X2320032Y2513125D01*
X2298866Y2470791D02*
X2320032Y2513125D01*
X1932717Y1268722D02*
X1975050Y1289889D01*
X2017383Y1268722D01*
X1996216Y1311055D02*
X2017383Y1268722D01*
X1996216Y1311055D02*
X2017383Y1353388D01*
X1975050Y1332222D02*
X2017383Y1353388D01*
X1932717D02*
X1975050Y1332222D01*
X1932717Y1353388D02*
X1953883Y1311055D01*
X1932717Y1268722D02*
X1953883Y1311055D01*
X1647717Y1273722D02*
X1690050Y1294889D01*
X1732383Y1273722D01*
X1711216Y1316055D02*
X1732383Y1273722D01*
X1711216Y1316055D02*
X1732383Y1358388D01*
X1690050Y1337222D02*
X1732383Y1358388D01*
X1647717D02*
X1690050Y1337222D01*
X1647717Y1358388D02*
X1668883Y1316055D01*
X1647717Y1273722D02*
X1668883Y1316055D01*
X4322717Y3628722D02*
X4365050Y3649889D01*
X4407383Y3628722D01*
X4386216Y3671055D02*
X4407383Y3628722D01*
X4386216Y3671055D02*
X4407383Y3713389D01*
X4365050Y3692222D02*
X4407383Y3713389D01*
X4322717D02*
X4365050Y3692222D01*
X4322717Y3713389D02*
X4343883Y3671055D01*
X4322717Y3628722D02*
X4343883Y3671055D01*
X4392717Y2708722D02*
X4435050Y2729889D01*
X4477383Y2708722D01*
X4456216Y2751055D02*
X4477383Y2708722D01*
X4456216Y2751055D02*
X4477383Y2793389D01*
X4435050Y2772222D02*
X4477383Y2793389D01*
X4392717D02*
X4435050Y2772222D01*
X4392717Y2793389D02*
X4413883Y2751055D01*
X4392717Y2708722D02*
X4413883Y2751055D01*
X4392717Y2443722D02*
X4435050Y2464889D01*
X4477383Y2443722D01*
X4456216Y2486055D02*
X4477383Y2443722D01*
X4456216Y2486055D02*
X4477383Y2528389D01*
X4435050Y2507222D02*
X4477383Y2528389D01*
X4392717D02*
X4435050Y2507222D01*
X4392717Y2528389D02*
X4413883Y2486055D01*
X4392717Y2443722D02*
X4413883Y2486055D01*
X4397717Y1918722D02*
X4440050Y1939889D01*
X4482383Y1918722D01*
X4461216Y1961055D02*
X4482383Y1918722D01*
X4461216Y1961055D02*
X4482383Y2003388D01*
X4440050Y1982222D02*
X4482383Y2003388D01*
X4397717D02*
X4440050Y1982222D01*
X4397717Y2003388D02*
X4418883Y1961055D01*
X4397717Y1918722D02*
X4418883Y1961055D01*
X4397717Y2098722D02*
X4440050Y2119889D01*
X4482383Y2098722D01*
X4461216Y2141055D02*
X4482383Y2098722D01*
X4461216Y2141055D02*
X4482383Y2183389D01*
X4440050Y2162222D02*
X4482383Y2183389D01*
X4397717D02*
X4440050Y2162222D01*
X4397717Y2183389D02*
X4418883Y2141055D01*
X4397717Y2098722D02*
X4418883Y2141055D01*
X4022717Y2093722D02*
X4065050Y2114889D01*
X4107383Y2093722D01*
X4086216Y2136055D02*
X4107383Y2093722D01*
X4086216Y2136055D02*
X4107383Y2178389D01*
X4065050Y2157222D02*
X4107383Y2178389D01*
X4022717D02*
X4065050Y2157222D01*
X4022717Y2178389D02*
X4043883Y2136055D01*
X4022717Y2093722D02*
X4043883Y2136055D01*
X4027717Y1928722D02*
X4070050Y1949889D01*
X4112383Y1928722D01*
X4091216Y1971055D02*
X4112383Y1928722D01*
X4091216Y1971055D02*
X4112383Y2013388D01*
X4070050Y1992222D02*
X4112383Y2013388D01*
X4027717D02*
X4070050Y1992222D01*
X4027717Y2013388D02*
X4048883Y1971055D01*
X4027717Y1928722D02*
X4048883Y1971055D01*
X4327717Y1918722D02*
X4370050Y1939889D01*
X4412383Y1918722D01*
X4391217Y1961055D02*
X4412383Y1918722D01*
X4391217Y1961055D02*
X4412383Y2003388D01*
X4370050Y1982222D02*
X4412383Y2003388D01*
X4327717D02*
X4370050Y1982222D01*
X4327717Y2003388D02*
X4348883Y1961055D01*
X4327717Y1918722D02*
X4348883Y1961055D01*
X4327717Y2093722D02*
X4370050Y2114889D01*
X4412383Y2093722D01*
X4391217Y2136055D02*
X4412383Y2093722D01*
X4391217Y2136055D02*
X4412383Y2178389D01*
X4370050Y2157222D02*
X4412383Y2178389D01*
X4327717D02*
X4370050Y2157222D01*
X4327717Y2178389D02*
X4348883Y2136055D01*
X4327717Y2093722D02*
X4348883Y2136055D01*
X4212717Y2093722D02*
X4255050Y2114889D01*
X4297383Y2093722D01*
X4276216Y2136055D02*
X4297383Y2093722D01*
X4276216Y2136055D02*
X4297383Y2178389D01*
X4255050Y2157222D02*
X4297383Y2178389D01*
X4212717D02*
X4255050Y2157222D01*
X4212717Y2178389D02*
X4233883Y2136055D01*
X4212717Y2093722D02*
X4233883Y2136055D01*
X4122717Y2093722D02*
X4165050Y2114889D01*
X4207383Y2093722D01*
X4186216Y2136055D02*
X4207383Y2093722D01*
X4186216Y2136055D02*
X4207383Y2178389D01*
X4165050Y2157222D02*
X4207383Y2178389D01*
X4122717D02*
X4165050Y2157222D01*
X4122717Y2178389D02*
X4143883Y2136055D01*
X4122717Y2093722D02*
X4143883Y2136055D01*
X4112717Y1918722D02*
X4155050Y1939889D01*
X4197383Y1918722D01*
X4176216Y1961055D02*
X4197383Y1918722D01*
X4176216Y1961055D02*
X4197383Y2003388D01*
X4155050Y1982222D02*
X4197383Y2003388D01*
X4112717D02*
X4155050Y1982222D01*
X4112717Y2003388D02*
X4133883Y1961055D01*
X4112717Y1918722D02*
X4133883Y1961055D01*
X4207717Y1918722D02*
X4250050Y1939889D01*
X4292383Y1918722D01*
X4271217Y1961055D02*
X4292383Y1918722D01*
X4271217Y1961055D02*
X4292383Y2003388D01*
X4250050Y1982222D02*
X4292383Y2003388D01*
X4207717D02*
X4250050Y1982222D01*
X4207717Y2003388D02*
X4228883Y1961055D01*
X4207717Y1918722D02*
X4228883Y1961055D01*
X3917970Y1958302D02*
X3960303Y1979469D01*
X4002637Y1958302D01*
X3981470Y2000635D02*
X4002637Y1958302D01*
X3981470Y2000635D02*
X4002637Y2042968D01*
X3960303Y2021802D02*
X4002637Y2042968D01*
X3917970D02*
X3960303Y2021802D01*
X3917970Y2042968D02*
X3939137Y2000635D01*
X3917970Y1958302D02*
X3939137Y2000635D01*
X3820625Y1952778D02*
X3862958Y1973944D01*
X3905291Y1952778D01*
X3884124Y1995111D02*
X3905291Y1952778D01*
X3884124Y1995111D02*
X3905291Y2037444D01*
X3862958Y2016277D02*
X3905291Y2037444D01*
X3820625D02*
X3862958Y2016277D01*
X3820625Y2037444D02*
X3841791Y1995111D01*
X3820625Y1952778D02*
X3841791Y1995111D01*
X3917018Y2066697D02*
X3959351Y2087863D01*
X4001684Y2066697D01*
X3980518Y2109030D02*
X4001684Y2066697D01*
X3980518Y2109030D02*
X4001684Y2151363D01*
X3959351Y2130197D02*
X4001684Y2151363D01*
X3917018D02*
X3959351Y2130197D01*
X3917018Y2151363D02*
X3938184Y2109030D01*
X3917018Y2066697D02*
X3938184Y2109030D01*
X3829959Y2069554D02*
X3872292Y2090721D01*
X3914625Y2069554D01*
X3893459Y2111888D02*
X3914625Y2069554D01*
X3893459Y2111888D02*
X3914625Y2154221D01*
X3872292Y2133054D02*
X3914625Y2154221D01*
X3829959D02*
X3872292Y2133054D01*
X3829959Y2154221D02*
X3851126Y2111888D01*
X3829959Y2069554D02*
X3851126Y2111888D01*
X3627665Y2067663D02*
X3669999Y2088829D01*
X3712332Y2067663D01*
X3691165Y2109996D02*
X3712332Y2067663D01*
X3691165Y2109996D02*
X3712332Y2152329D01*
X3669999Y2131162D02*
X3712332Y2152329D01*
X3627665D02*
X3669999Y2131162D01*
X3627665Y2152329D02*
X3648832Y2109996D01*
X3627665Y2067663D02*
X3648832Y2109996D01*
X4247665Y1292662D02*
X4289999Y1313829D01*
X4332332Y1292662D01*
X4311165Y1334996D02*
X4332332Y1292662D01*
X4311165Y1334996D02*
X4332332Y1377329D01*
X4289999Y1356162D02*
X4332332Y1377329D01*
X4247665D02*
X4289999Y1356162D01*
X4247665Y1377329D02*
X4268832Y1334996D01*
X4247665Y1292662D02*
X4268832Y1334996D01*
X2687662Y2062661D02*
X2729995Y2083827D01*
X2772328Y2062661D01*
X2751162Y2104994D02*
X2772328Y2062661D01*
X2751162Y2104994D02*
X2772328Y2147327D01*
X2729995Y2126160D02*
X2772328Y2147327D01*
X2687662D02*
X2729995Y2126160D01*
X2687662Y2147327D02*
X2708828Y2104994D01*
X2687662Y2062661D02*
X2708828Y2104994D01*
X4077665Y1437663D02*
X4119998Y1458829D01*
X4162332Y1437663D01*
X4141165Y1479996D02*
X4162332Y1437663D01*
X4141165Y1479996D02*
X4162332Y1522329D01*
X4119998Y1501162D02*
X4162332Y1522329D01*
X4077665D02*
X4119998Y1501162D01*
X4077665Y1522329D02*
X4098832Y1479996D01*
X4077665Y1437663D02*
X4098832Y1479996D01*
X4072665Y1347663D02*
X4114998Y1368829D01*
X4157332Y1347663D01*
X4136165Y1389996D02*
X4157332Y1347663D01*
X4136165Y1389996D02*
X4157332Y1432329D01*
X4114998Y1411162D02*
X4157332Y1432329D01*
X4072665D02*
X4114998Y1411162D01*
X4072665Y1432329D02*
X4093832Y1389996D01*
X4072665Y1347663D02*
X4093832Y1389996D01*
X1889410Y1328792D02*
X1931743Y1349958D01*
X1974076Y1328792D01*
X1952910Y1371125D02*
X1974076Y1328792D01*
X1952910Y1371125D02*
X1974076Y1413458D01*
X1931743Y1392292D02*
X1974076Y1413458D01*
X1889410D02*
X1931743Y1392292D01*
X1889410Y1413458D02*
X1910577Y1371125D01*
X1889410Y1328792D02*
X1910577Y1371125D01*
X1687621Y2884788D02*
X1729954Y2905955D01*
X1772287Y2884788D01*
X1751121Y2927121D02*
X1772287Y2884788D01*
X1751121Y2927121D02*
X1772287Y2969454D01*
X1729954Y2948288D02*
X1772287Y2969454D01*
X1687621D02*
X1729954Y2948288D01*
X1687621Y2969454D02*
X1708788Y2927121D01*
X1687621Y2884788D02*
X1708788Y2927121D01*
X2166359Y1727484D02*
X2208692Y1748651D01*
X2251025Y1727484D01*
X2229858Y1769817D02*
X2251025Y1727484D01*
X2229858Y1769817D02*
X2251025Y1812150D01*
X2208692Y1790984D02*
X2251025Y1812150D01*
X2166359D02*
X2208692Y1790984D01*
X2166359Y1812150D02*
X2187525Y1769817D01*
X2166359Y1727484D02*
X2187525Y1769817D01*
X2832666Y3427660D02*
X2874999Y3448827D01*
X2917332Y3427660D01*
X2896165Y3469994D02*
X2917332Y3427660D01*
X2896165Y3469994D02*
X2917332Y3512327D01*
X2874999Y3491160D02*
X2917332Y3512327D01*
X2832666D02*
X2874999Y3491160D01*
X2832666Y3512327D02*
X2853832Y3469994D01*
X2832666Y3427660D02*
X2853832Y3469994D01*
X3862665Y1542662D02*
X3904999Y1563829D01*
X3947332Y1542662D01*
X3926165Y1584996D02*
X3947332Y1542662D01*
X3926165Y1584996D02*
X3947332Y1627329D01*
X3904999Y1606162D02*
X3947332Y1627329D01*
X3862665D02*
X3904999Y1606162D01*
X3862665Y1627329D02*
X3883832Y1584996D01*
X3862665Y1542662D02*
X3883832Y1584996D01*
X2162665Y1657662D02*
X2204998Y1678829D01*
X2247332Y1657662D01*
X2226165Y1699996D02*
X2247332Y1657662D01*
X2226165Y1699996D02*
X2247332Y1742329D01*
X2204998Y1721162D02*
X2247332Y1742329D01*
X2162665D02*
X2204998Y1721162D01*
X2162665Y1742329D02*
X2183832Y1699996D01*
X2162665Y1657662D02*
X2183832Y1699996D01*
X2332682Y1974459D02*
X2375016Y1995626D01*
X2417349Y1974459D01*
X2396182Y2016792D02*
X2417349Y1974459D01*
X2396182Y2016792D02*
X2417349Y2059125D01*
X2375016Y2037959D02*
X2417349Y2059125D01*
X2332682D02*
X2375016Y2037959D01*
X2332682Y2059125D02*
X2353849Y2016792D01*
X2332682Y1974459D02*
X2353849Y2016792D01*
X3816414Y2112273D02*
X3858747Y2133440D01*
X3901080Y2112273D01*
X3879913Y2154607D02*
X3901080Y2112273D01*
X3879913Y2154607D02*
X3901080Y2196940D01*
X3858747Y2175773D02*
X3901080Y2196940D01*
X3816414D02*
X3858747Y2175773D01*
X3816414Y2196940D02*
X3837580Y2154607D01*
X3816414Y2112273D02*
X3837580Y2154607D01*
X3627665Y1957663D02*
X3669999Y1978829D01*
X3712332Y1957663D01*
X3691165Y1999996D02*
X3712332Y1957663D01*
X3691165Y1999996D02*
X3712332Y2042329D01*
X3669999Y2021162D02*
X3712332Y2042329D01*
X3627665D02*
X3669999Y2021162D01*
X3627665Y2042329D02*
X3648832Y1999996D01*
X3627665Y1957663D02*
X3648832Y1999996D01*
X3185769Y2084783D02*
X3228102Y2105949D01*
X3270435Y2084783D01*
X3249269Y2127116D02*
X3270435Y2084783D01*
X3249269Y2127116D02*
X3270435Y2169449D01*
X3228102Y2148282D02*
X3270435Y2169449D01*
X3185769D02*
X3228102Y2148282D01*
X3185769Y2169449D02*
X3206936Y2127116D01*
X3185769Y2084783D02*
X3206936Y2127116D01*
X3267665Y1732663D02*
X3309998Y1753829D01*
X3352332Y1732663D01*
X3331165Y1774996D02*
X3352332Y1732663D01*
X3331165Y1774996D02*
X3352332Y1817329D01*
X3309998Y1796162D02*
X3352332Y1817329D01*
X3267665D02*
X3309998Y1796162D01*
X3267665Y1817329D02*
X3288832Y1774996D01*
X3267665Y1732663D02*
X3288832Y1774996D01*
X2972665Y1762662D02*
X3014999Y1783829D01*
X3057332Y1762662D01*
X3036165Y1804996D02*
X3057332Y1762662D01*
X3036165Y1804996D02*
X3057332Y1847329D01*
X3014999Y1826162D02*
X3057332Y1847329D01*
X2972665D02*
X3014999Y1826162D01*
X2972665Y1847329D02*
X2993832Y1804996D01*
X2972665Y1762662D02*
X2993832Y1804996D01*
X3052665Y1842663D02*
X3094998Y1863829D01*
X3137332Y1842663D01*
X3116165Y1884996D02*
X3137332Y1842663D01*
X3116165Y1884996D02*
X3137332Y1927329D01*
X3094998Y1906162D02*
X3137332Y1927329D01*
X3052665D02*
X3094998Y1906162D01*
X3052665Y1927329D02*
X3073832Y1884996D01*
X3052665Y1842663D02*
X3073832Y1884996D01*
X2832665Y1762662D02*
X2874999Y1783829D01*
X2917332Y1762662D01*
X2896165Y1804996D02*
X2917332Y1762662D01*
X2896165Y1804996D02*
X2917332Y1847329D01*
X2874999Y1826162D02*
X2917332Y1847329D01*
X2832665D02*
X2874999Y1826162D01*
X2832665Y1847329D02*
X2853832Y1804996D01*
X2832665Y1762662D02*
X2853832Y1804996D01*
X3272665Y2032662D02*
X3314998Y2053829D01*
X3357332Y2032662D01*
X3336165Y2074996D02*
X3357332Y2032662D01*
X3336165Y2074996D02*
X3357332Y2117329D01*
X3314998Y2096162D02*
X3357332Y2117329D01*
X3272665D02*
X3314998Y2096162D01*
X3272665Y2117329D02*
X3293832Y2074996D01*
X3272665Y2032662D02*
X3293832Y2074996D01*
X3272665Y2097663D02*
X3314998Y2118829D01*
X3357332Y2097663D01*
X3336165Y2139996D02*
X3357332Y2097663D01*
X3336165Y2139996D02*
X3357332Y2182329D01*
X3314998Y2161162D02*
X3357332Y2182329D01*
X3272665D02*
X3314998Y2161162D01*
X3272665Y2182329D02*
X3293832Y2139996D01*
X3272665Y2097663D02*
X3293832Y2139996D01*
X3530414Y2072327D02*
X3572747Y2093493D01*
X3615080Y2072327D01*
X3593914Y2114660D02*
X3615080Y2072327D01*
X3593914Y2114660D02*
X3615080Y2156993D01*
X3572747Y2135826D02*
X3615080Y2156993D01*
X3530414D02*
X3572747Y2135826D01*
X3530414Y2156993D02*
X3551580Y2114660D01*
X3530414Y2072327D02*
X3551580Y2114660D01*
X3540102Y1954596D02*
X3582435Y1975763D01*
X3624768Y1954596D01*
X3603602Y1996929D02*
X3624768Y1954596D01*
X3603602Y1996929D02*
X3624768Y2039262D01*
X3582435Y2018096D02*
X3624768Y2039262D01*
X3540102D02*
X3582435Y2018096D01*
X3540102Y2039262D02*
X3561269Y1996929D01*
X3540102Y1954596D02*
X3561269Y1996929D01*
X3323323Y2856297D02*
X3365656Y2877464D01*
X3407989Y2856297D01*
X3386823Y2898630D02*
X3407989Y2856297D01*
X3386823Y2898630D02*
X3407989Y2940963D01*
X3365656Y2919797D02*
X3407989Y2940963D01*
X3323323D02*
X3365656Y2919797D01*
X3323323Y2940963D02*
X3344490Y2898630D01*
X3323323Y2856297D02*
X3344490Y2898630D01*
X2503767Y2993129D02*
X2546100Y3014296D01*
X2588433Y2993129D01*
X2567267Y3035462D02*
X2588433Y2993129D01*
X2567267Y3035462D02*
X2588433Y3077795D01*
X2546100Y3056629D02*
X2588433Y3077795D01*
X2503767D02*
X2546100Y3056629D01*
X2503767Y3077795D02*
X2524934Y3035462D01*
X2503767Y2993129D02*
X2524934Y3035462D01*
X1883428Y3483427D02*
X1925761Y3504594D01*
X1968094Y3483427D01*
X1946928Y3525761D02*
X1968094Y3483427D01*
X1946928Y3525761D02*
X1968094Y3568094D01*
X1925761Y3546927D02*
X1968094Y3568094D01*
X1883428D02*
X1925761Y3546927D01*
X1883428Y3568094D02*
X1904595Y3525761D01*
X1883428Y3483427D02*
X1904595Y3525761D01*
X1942665Y3312662D02*
X1984999Y3333829D01*
X2027332Y3312662D01*
X2006165Y3354996D02*
X2027332Y3312662D01*
X2006165Y3354996D02*
X2027332Y3397329D01*
X1984999Y3376162D02*
X2027332Y3397329D01*
X1942665D02*
X1984999Y3376162D01*
X1942665Y3397329D02*
X1963832Y3354996D01*
X1942665Y3312662D02*
X1963832Y3354996D01*
X2722665Y2997663D02*
X2764999Y3018829D01*
X2807332Y2997663D01*
X2786165Y3039996D02*
X2807332Y2997663D01*
X2786165Y3039996D02*
X2807332Y3082329D01*
X2764999Y3061162D02*
X2807332Y3082329D01*
X2722665D02*
X2764999Y3061162D01*
X2722665Y3082329D02*
X2743832Y3039996D01*
X2722665Y2997663D02*
X2743832Y3039996D01*
X1722665Y1422662D02*
X1764999Y1443829D01*
X1807332Y1422662D01*
X1786165Y1464996D02*
X1807332Y1422662D01*
X1786165Y1464996D02*
X1807332Y1507329D01*
X1764999Y1486162D02*
X1807332Y1507329D01*
X1722665D02*
X1764999Y1486162D01*
X1722665Y1507329D02*
X1743832Y1464996D01*
X1722665Y1422662D02*
X1743832Y1464996D01*
X1615764Y1465924D02*
X1658097Y1487091D01*
X1700430Y1465924D01*
X1679264Y1508257D02*
X1700430Y1465924D01*
X1679264Y1508257D02*
X1700430Y1550590D01*
X1658097Y1529424D02*
X1700430Y1550590D01*
X1615764D02*
X1658097Y1529424D01*
X1615764Y1550590D02*
X1636931Y1508257D01*
X1615764Y1465924D02*
X1636931Y1508257D01*
X1892665Y1792662D02*
X1934998Y1813829D01*
X1977332Y1792662D01*
X1956165Y1834996D02*
X1977332Y1792662D01*
X1956165Y1834996D02*
X1977332Y1877329D01*
X1934998Y1856162D02*
X1977332Y1877329D01*
X1892665D02*
X1934998Y1856162D01*
X1892665Y1877329D02*
X1913832Y1834996D01*
X1892665Y1792662D02*
X1913832Y1834996D01*
X1902665Y1742663D02*
X1944998Y1763829D01*
X1987332Y1742663D01*
X1966165Y1784996D02*
X1987332Y1742663D01*
X1966165Y1784996D02*
X1987332Y1827329D01*
X1944998Y1806162D02*
X1987332Y1827329D01*
X1902665D02*
X1944998Y1806162D01*
X1902665Y1827329D02*
X1923832Y1784996D01*
X1902665Y1742663D02*
X1923832Y1784996D01*
X1822586Y3497588D02*
X1864920Y3518755D01*
X1907253Y3497588D01*
X1886086Y3539922D02*
X1907253Y3497588D01*
X1886086Y3539922D02*
X1907253Y3582255D01*
X1864920Y3561088D02*
X1907253Y3582255D01*
X1822586D02*
X1864920Y3561088D01*
X1822586Y3582255D02*
X1843753Y3539922D01*
X1822586Y3497588D02*
X1843753Y3539922D01*
X2052753Y3574306D02*
X2095086Y3595472D01*
X2137420Y3574306D01*
X2116253Y3616639D02*
X2137420Y3574306D01*
X2116253Y3616639D02*
X2137420Y3658972D01*
X2095086Y3637806D02*
X2137420Y3658972D01*
X2052753D02*
X2095086Y3637806D01*
X2052753Y3658972D02*
X2073920Y3616639D01*
X2052753Y3574306D02*
X2073920Y3616639D01*
X2117667Y3575163D02*
X2160000Y3596329D01*
X2202333Y3575163D01*
X2181166Y3617496D02*
X2202333Y3575163D01*
X2181166Y3617496D02*
X2202333Y3659829D01*
X2160000Y3638662D02*
X2202333Y3659829D01*
X2117667D02*
X2160000Y3638662D01*
X2117667Y3659829D02*
X2138833Y3617496D01*
X2117667Y3575163D02*
X2138833Y3617496D01*
X3050937Y3615162D02*
X3093270Y3636329D01*
X3135603Y3615162D01*
X3114437Y3657496D02*
X3135603Y3615162D01*
X3114437Y3657496D02*
X3135603Y3699829D01*
X3093270Y3678662D02*
X3135603Y3699829D01*
X3050937D02*
X3093270Y3678662D01*
X3050937Y3699829D02*
X3072104Y3657496D01*
X3050937Y3615162D02*
X3072104Y3657496D01*
X3207661Y2672659D02*
X3249994Y2693826D01*
X3292327Y2672659D01*
X3271161Y2714993D02*
X3292327Y2672659D01*
X3271161Y2714993D02*
X3292327Y2757326D01*
X3249994Y2736159D02*
X3292327Y2757326D01*
X3207661D02*
X3249994Y2736159D01*
X3207661Y2757326D02*
X3228827Y2714993D01*
X3207661Y2672659D02*
X3228827Y2714993D01*
X3743183Y1289644D02*
X3785516Y1310811D01*
X3827849Y1289644D01*
X3806683Y1331978D02*
X3827849Y1289644D01*
X3806683Y1331978D02*
X3827849Y1374311D01*
X3785516Y1353144D02*
X3827849Y1374311D01*
X3743183D02*
X3785516Y1353144D01*
X3743183Y1374311D02*
X3764350Y1331978D01*
X3743183Y1289644D02*
X3764350Y1331978D01*
X3282773Y2976593D02*
X3325106Y2997759D01*
X3367440Y2976593D01*
X3346273Y3018926D02*
X3367440Y2976593D01*
X3346273Y3018926D02*
X3367440Y3061259D01*
X3325106Y3040092D02*
X3367440Y3061259D01*
X3282773D02*
X3325106Y3040092D01*
X3282773Y3061259D02*
X3303940Y3018926D01*
X3282773Y2976593D02*
X3303940Y3018926D01*
X2849008Y1504005D02*
X2891341Y1525171D01*
X2933674Y1504005D01*
X2912507Y1546338D02*
X2933674Y1504005D01*
X2912507Y1546338D02*
X2933674Y1588671D01*
X2891341Y1567504D02*
X2933674Y1588671D01*
X2849008D02*
X2891341Y1567504D01*
X2849008Y1588671D02*
X2870174Y1546338D01*
X2849008Y1504005D02*
X2870174Y1546338D01*
X2597665Y1566481D02*
X2639999Y1587647D01*
X2682332Y1566481D01*
X2661165Y1608814D02*
X2682332Y1566481D01*
X2661165Y1608814D02*
X2682332Y1651147D01*
X2639999Y1629980D02*
X2682332Y1651147D01*
X2597665D02*
X2639999Y1629980D01*
X2597665Y1651147D02*
X2618832Y1608814D01*
X2597665Y1566481D02*
X2618832Y1608814D01*
X3013308Y1348263D02*
X3055641Y1369430D01*
X3097974Y1348263D01*
X3076807Y1390596D02*
X3097974Y1348263D01*
X3076807Y1390596D02*
X3097974Y1432929D01*
X3055641Y1411763D02*
X3097974Y1432929D01*
X3013308D02*
X3055641Y1411763D01*
X3013308Y1432929D02*
X3034474Y1390596D01*
X3013308Y1348263D02*
X3034474Y1390596D01*
X1455165Y1925844D02*
X1497498Y1947011D01*
X1539831Y1925844D01*
X1518664Y1968177D02*
X1539831Y1925844D01*
X1518664Y1968177D02*
X1539831Y2010510D01*
X1497498Y1989344D02*
X1539831Y2010510D01*
X1455165D02*
X1497498Y1989344D01*
X1455165Y2010510D02*
X1476331Y1968177D01*
X1455165Y1925844D02*
X1476331Y1968177D01*
X1467613Y2652610D02*
X1509946Y2673776D01*
X1552279Y2652610D01*
X1531113Y2694943D02*
X1552279Y2652610D01*
X1531113Y2694943D02*
X1552279Y2737276D01*
X1509946Y2716110D02*
X1552279Y2737276D01*
X1467613D02*
X1509946Y2716110D01*
X1467613Y2737276D02*
X1488779Y2694943D01*
X1467613Y2652610D02*
X1488779Y2694943D01*
X1763093Y1861273D02*
X1805426Y1882439D01*
X1847759Y1861273D01*
X1826592Y1903606D02*
X1847759Y1861273D01*
X1826592Y1903606D02*
X1847759Y1945939D01*
X1805426Y1924773D02*
X1847759Y1945939D01*
X1763093D02*
X1805426Y1924773D01*
X1763093Y1945939D02*
X1784259Y1903606D01*
X1763093Y1861273D02*
X1784259Y1903606D01*
X1827080Y1577077D02*
X1869413Y1598244D01*
X1911746Y1577077D01*
X1890580Y1619411D02*
X1911746Y1577077D01*
X1890580Y1619411D02*
X1911746Y1661744D01*
X1869413Y1640577D02*
X1911746Y1661744D01*
X1827080D02*
X1869413Y1640577D01*
X1827080Y1661744D02*
X1848247Y1619411D01*
X1827080Y1577077D02*
X1848247Y1619411D01*
X2962639Y3285134D02*
X3004972Y3306300D01*
X3047305Y3285134D01*
X3026139Y3327467D02*
X3047305Y3285134D01*
X3026139Y3327467D02*
X3047305Y3369800D01*
X3004972Y3348634D02*
X3047305Y3369800D01*
X2962639D02*
X3004972Y3348634D01*
X2962639Y3369800D02*
X2983806Y3327467D01*
X2962639Y3285134D02*
X2983806Y3327467D01*
X2249282Y2858777D02*
X2291615Y2879943D01*
X2333949Y2858777D01*
X2312782Y2901110D02*
X2333949Y2858777D01*
X2312782Y2901110D02*
X2333949Y2943443D01*
X2291615Y2922277D02*
X2333949Y2943443D01*
X2249282D02*
X2291615Y2922277D01*
X2249282Y2943443D02*
X2270449Y2901110D01*
X2249282Y2858777D02*
X2270449Y2901110D01*
X3452665Y2672662D02*
X3494999Y2693829D01*
X3537332Y2672662D01*
X3516165Y2714996D02*
X3537332Y2672662D01*
X3516165Y2714996D02*
X3537332Y2757329D01*
X3494999Y2736162D02*
X3537332Y2757329D01*
X3452665D02*
X3494999Y2736162D01*
X3452665Y2757329D02*
X3473832Y2714996D01*
X3452665Y2672662D02*
X3473832Y2714996D01*
X3496384Y2673128D02*
X3538717Y2694295D01*
X3581050Y2673128D01*
X3559883Y2715461D02*
X3581050Y2673128D01*
X3559883Y2715461D02*
X3581050Y2757794D01*
X3538717Y2736628D02*
X3581050Y2757794D01*
X3496384D02*
X3538717Y2736628D01*
X3496384Y2757794D02*
X3517550Y2715461D01*
X3496384Y2673128D02*
X3517550Y2715461D01*
X3267665Y1957663D02*
X3309998Y1978829D01*
X3352332Y1957663D01*
X3331165Y1999996D02*
X3352332Y1957663D01*
X3331165Y1999996D02*
X3352332Y2042329D01*
X3309998Y2021162D02*
X3352332Y2042329D01*
X3267665D02*
X3309998Y2021162D01*
X3267665Y2042329D02*
X3288832Y1999996D01*
X3267665Y1957663D02*
X3288832Y1999996D01*
X3347981Y1962889D02*
X3390314Y1984055D01*
X3432647Y1962889D01*
X3411481Y2005222D02*
X3432647Y1962889D01*
X3411481Y2005222D02*
X3432647Y2047555D01*
X3390314Y2026388D02*
X3432647Y2047555D01*
X3347981D02*
X3390314Y2026388D01*
X3347981Y2047555D02*
X3369147Y2005222D01*
X3347981Y1962889D02*
X3369147Y2005222D01*
X2697662Y2019716D02*
X2739995Y2040883D01*
X2782328Y2019716D01*
X2761162Y2062049D02*
X2782328Y2019716D01*
X2761162Y2062049D02*
X2782328Y2104383D01*
X2739995Y2083216D02*
X2782328Y2104383D01*
X2697662D02*
X2739995Y2083216D01*
X2697662Y2104383D02*
X2718828Y2062049D01*
X2697662Y2019716D02*
X2718828Y2062049D01*
X2668588Y1949716D02*
X2710921Y1970883D01*
X2753254Y1949716D01*
X2732088Y1992049D02*
X2753254Y1949716D01*
X2732088Y1992049D02*
X2753254Y2034382D01*
X2710921Y2013216D02*
X2753254Y2034382D01*
X2668588D02*
X2710921Y2013216D01*
X2668588Y2034382D02*
X2689755Y1992049D01*
X2668588Y1949716D02*
X2689755Y1992049D01*
X3246131Y1347292D02*
X3288464Y1368459D01*
X3330797Y1347292D01*
X3309631Y1389625D02*
X3330797Y1347292D01*
X3309631Y1389625D02*
X3330797Y1431959D01*
X3288464Y1410792D02*
X3330797Y1431959D01*
X3246131D02*
X3288464Y1410792D01*
X3246131Y1431959D02*
X3267298Y1389625D01*
X3246131Y1347292D02*
X3267298Y1389625D01*
X2474776Y1792665D02*
X2517110Y1813832D01*
X2559443Y1792665D01*
X2538276Y1834998D02*
X2559443Y1792665D01*
X2538276Y1834998D02*
X2559443Y1877331D01*
X2517110Y1856165D02*
X2559443Y1877331D01*
X2474776D02*
X2517110Y1856165D01*
X2474776Y1877331D02*
X2495943Y1834998D01*
X2474776Y1792665D02*
X2495943Y1834998D01*
X3282396Y2702469D02*
X3324729Y2723636D01*
X3367063Y2702469D01*
X3345896Y2744802D02*
X3367063Y2702469D01*
X3345896Y2744802D02*
X3367063Y2787136D01*
X3324729Y2765969D02*
X3367063Y2787136D01*
X3282396D02*
X3324729Y2765969D01*
X3282396Y2787136D02*
X3303563Y2744802D01*
X3282396Y2702469D02*
X3303563Y2744802D01*
X2998179Y3525604D02*
X3040512Y3546771D01*
X3082845Y3525604D01*
X3061678Y3567937D02*
X3082845Y3525604D01*
X3061678Y3567937D02*
X3082845Y3610270D01*
X3040512Y3589104D02*
X3082845Y3610270D01*
X2998179D02*
X3040512Y3589104D01*
X2998179Y3610270D02*
X3019345Y3567937D01*
X2998179Y3525604D02*
X3019345Y3567937D01*
X2554757Y3386687D02*
X2597090Y3407853D01*
X2639423Y3386687D01*
X2618257Y3429020D02*
X2639423Y3386687D01*
X2618257Y3429020D02*
X2639423Y3471353D01*
X2597090Y3450186D02*
X2639423Y3471353D01*
X2554757D02*
X2597090Y3450186D01*
X2554757Y3471353D02*
X2575923Y3429020D01*
X2554757Y3386687D02*
X2575923Y3429020D01*
X1467665Y2712663D02*
X1509999Y2733829D01*
X1552332Y2712663D01*
X1531165Y2754996D02*
X1552332Y2712663D01*
X1531165Y2754996D02*
X1552332Y2797329D01*
X1509999Y2776162D02*
X1552332Y2797329D01*
X1467665D02*
X1509999Y2776162D01*
X1467665Y2797329D02*
X1488832Y2754996D01*
X1467665Y2712663D02*
X1488832Y2754996D01*
X1856774Y2632663D02*
X1899107Y2653830D01*
X1941440Y2632663D01*
X1920274Y2674996D02*
X1941440Y2632663D01*
X1920274Y2674996D02*
X1941440Y2717330D01*
X1899107Y2696163D02*
X1941440Y2717330D01*
X1856774D02*
X1899107Y2696163D01*
X1856774Y2717330D02*
X1877941Y2674996D01*
X1856774Y2632663D02*
X1877941Y2674996D01*
X1853036Y2747663D02*
X1895370Y2768829D01*
X1937703Y2747663D01*
X1916536Y2789996D02*
X1937703Y2747663D01*
X1916536Y2789996D02*
X1937703Y2832329D01*
X1895370Y2811162D02*
X1937703Y2832329D01*
X1853036D02*
X1895370Y2811162D01*
X1853036Y2832329D02*
X1874203Y2789996D01*
X1853036Y2747663D02*
X1874203Y2789996D01*
X1471730Y2608598D02*
X1514063Y2629765D01*
X1556396Y2608598D01*
X1535230Y2650931D02*
X1556396Y2608598D01*
X1535230Y2650931D02*
X1556396Y2693264D01*
X1514063Y2672098D02*
X1556396Y2693264D01*
X1471730D02*
X1514063Y2672098D01*
X1471730Y2693264D02*
X1492896Y2650931D01*
X1471730Y2608598D02*
X1492896Y2650931D01*
X1497386Y2498356D02*
X1539719Y2519523D01*
X1582052Y2498356D01*
X1560886Y2540689D02*
X1582052Y2498356D01*
X1560886Y2540689D02*
X1582052Y2583022D01*
X1539719Y2561856D02*
X1582052Y2583022D01*
X1497386D02*
X1539719Y2561856D01*
X1497386Y2583022D02*
X1518553Y2540689D01*
X1497386Y2498356D02*
X1518553Y2540689D01*
X1945165Y2312008D02*
X1987498Y2333174D01*
X2029831Y2312008D01*
X2008665Y2354341D02*
X2029831Y2312008D01*
X2008665Y2354341D02*
X2029831Y2396674D01*
X1987498Y2375507D02*
X2029831Y2396674D01*
X1945165D02*
X1987498Y2375507D01*
X1945165Y2396674D02*
X1966332Y2354341D01*
X1945165Y2312008D02*
X1966332Y2354341D01*
X1902667Y2312456D02*
X1945000Y2333623D01*
X1987334Y2312456D01*
X1966167Y2354790D02*
X1987334Y2312456D01*
X1966167Y2354790D02*
X1987334Y2397123D01*
X1945000Y2375956D02*
X1987334Y2397123D01*
X1902667D02*
X1945000Y2375956D01*
X1902667Y2397123D02*
X1923834Y2354790D01*
X1902667Y2312456D02*
X1923834Y2354790D01*
X2382665Y2832663D02*
X2424998Y2853829D01*
X2467332Y2832663D01*
X2446165Y2874996D02*
X2467332Y2832663D01*
X2446165Y2874996D02*
X2467332Y2917329D01*
X2424998Y2896162D02*
X2467332Y2917329D01*
X2382665D02*
X2424998Y2896162D01*
X2382665Y2917329D02*
X2403832Y2874996D01*
X2382665Y2832663D02*
X2403832Y2874996D01*
X2132665Y2552662D02*
X2174998Y2573829D01*
X2217332Y2552662D01*
X2196165Y2594996D02*
X2217332Y2552662D01*
X2196165Y2594996D02*
X2217332Y2637329D01*
X2174998Y2616162D02*
X2217332Y2637329D01*
X2132665D02*
X2174998Y2616162D01*
X2132665Y2637329D02*
X2153832Y2594996D01*
X2132665Y2552662D02*
X2153832Y2594996D01*
X2129508Y2494078D02*
X2171841Y2515244D01*
X2214174Y2494078D01*
X2193007Y2536411D02*
X2214174Y2494078D01*
X2193007Y2536411D02*
X2214174Y2578744D01*
X2171841Y2557578D02*
X2214174Y2578744D01*
X2129508D02*
X2171841Y2557578D01*
X2129508Y2578744D02*
X2150674Y2536411D01*
X2129508Y2494078D02*
X2150674Y2536411D01*
X2154172Y2058754D02*
X2196506Y2079920D01*
X2238839Y2058754D01*
X2217672Y2101087D02*
X2238839Y2058754D01*
X2217672Y2101087D02*
X2238839Y2143420D01*
X2196506Y2122254D02*
X2238839Y2143420D01*
X2154172D02*
X2196506Y2122254D01*
X2154172Y2143420D02*
X2175339Y2101087D01*
X2154172Y2058754D02*
X2175339Y2101087D01*
X1442665Y2862663D02*
X1484999Y2883829D01*
X1527332Y2862663D01*
X1506165Y2904996D02*
X1527332Y2862663D01*
X1506165Y2904996D02*
X1527332Y2947329D01*
X1484999Y2926162D02*
X1527332Y2947329D01*
X1442665D02*
X1484999Y2926162D01*
X1442665Y2947329D02*
X1463832Y2904996D01*
X1442665Y2862663D02*
X1463832Y2904996D01*
X1847665Y2867663D02*
X1889998Y2888829D01*
X1932331Y2867663D01*
X1911165Y2909996D02*
X1932331Y2867663D01*
X1911165Y2909996D02*
X1932331Y2952329D01*
X1889998Y2931162D02*
X1932331Y2952329D01*
X1847665D02*
X1889998Y2931162D01*
X1847665Y2952329D02*
X1868832Y2909996D01*
X1847665Y2867663D02*
X1868832Y2909996D01*
X2465610Y3406259D02*
X2507943Y3427426D01*
X2550276Y3406259D01*
X2529109Y3448592D02*
X2550276Y3406259D01*
X2529109Y3448592D02*
X2550276Y3490925D01*
X2507943Y3469759D02*
X2550276Y3490925D01*
X2465610D02*
X2507943Y3469759D01*
X2465610Y3490925D02*
X2486776Y3448592D01*
X2465610Y3406259D02*
X2486776Y3448592D01*
X2281177Y3649562D02*
X2323510Y3670729D01*
X2365843Y3649562D01*
X2344677Y3691896D02*
X2365843Y3649562D01*
X2344677Y3691896D02*
X2365843Y3734229D01*
X2323510Y3713062D02*
X2365843Y3734229D01*
X2281177D02*
X2323510Y3713062D01*
X2281177Y3734229D02*
X2302344Y3691896D01*
X2281177Y3649562D02*
X2302344Y3691896D01*
X2447665Y3297662D02*
X2489999Y3318829D01*
X2532332Y3297662D01*
X2511165Y3339996D02*
X2532332Y3297662D01*
X2511165Y3339996D02*
X2532332Y3382329D01*
X2489999Y3361162D02*
X2532332Y3382329D01*
X2447665D02*
X2489999Y3361162D01*
X2447665Y3382329D02*
X2468832Y3339996D01*
X2447665Y3297662D02*
X2468832Y3339996D01*
X2430947Y3381291D02*
X2473280Y3402457D01*
X2515613Y3381291D01*
X2494446Y3423624D02*
X2515613Y3381291D01*
X2494446Y3423624D02*
X2515613Y3465957D01*
X2473280Y3444790D02*
X2515613Y3465957D01*
X2430947D02*
X2473280Y3444790D01*
X2430947Y3465957D02*
X2452113Y3423624D01*
X2430947Y3381291D02*
X2452113Y3423624D01*
X2105896Y2639432D02*
X2148229Y2660599D01*
X2190562Y2639432D01*
X2169395Y2681765D02*
X2190562Y2639432D01*
X2169395Y2681765D02*
X2190562Y2724098D01*
X2148229Y2702932D02*
X2190562Y2724098D01*
X2105896D02*
X2148229Y2702932D01*
X2105896Y2724098D02*
X2127062Y2681765D01*
X2105896Y2639432D02*
X2127062Y2681765D01*
X2102665Y2592663D02*
X2144999Y2613829D01*
X2187332Y2592663D01*
X2166165Y2634996D02*
X2187332Y2592663D01*
X2166165Y2634996D02*
X2187332Y2677329D01*
X2144999Y2656162D02*
X2187332Y2677329D01*
X2102665D02*
X2144999Y2656162D01*
X2102665Y2677329D02*
X2123832Y2634996D01*
X2102665Y2592663D02*
X2123832Y2634996D01*
X2099252Y2697663D02*
X2141585Y2718829D01*
X2183918Y2697663D01*
X2162752Y2739996D02*
X2183918Y2697663D01*
X2162752Y2739996D02*
X2183918Y2782329D01*
X2141585Y2761162D02*
X2183918Y2782329D01*
X2099252D02*
X2141585Y2761162D01*
X2099252Y2782329D02*
X2120418Y2739996D01*
X2099252Y2697663D02*
X2120418Y2739996D01*
X1917665Y2955871D02*
X1959998Y2977037D01*
X2002332Y2955871D01*
X1981165Y2998204D02*
X2002332Y2955871D01*
X1981165Y2998204D02*
X2002332Y3040537D01*
X1959998Y3019370D02*
X2002332Y3040537D01*
X1917665D02*
X1959998Y3019370D01*
X1917665Y3040537D02*
X1938832Y2998204D01*
X1917665Y2955871D02*
X1938832Y2998204D01*
X2222665Y3037662D02*
X2264999Y3058829D01*
X2307332Y3037662D01*
X2286165Y3079996D02*
X2307332Y3037662D01*
X2286165Y3079996D02*
X2307332Y3122329D01*
X2264999Y3101162D02*
X2307332Y3122329D01*
X2222665D02*
X2264999Y3101162D01*
X2222665Y3122329D02*
X2243832Y3079996D01*
X2222665Y3037662D02*
X2243832Y3079996D01*
X2176349Y2994696D02*
X2218683Y3015862D01*
X2261016Y2994696D01*
X2239849Y3037029D02*
X2261016Y2994696D01*
X2239849Y3037029D02*
X2261016Y3079362D01*
X2218683Y3058196D02*
X2261016Y3079362D01*
X2176349D02*
X2218683Y3058196D01*
X2176349Y3079362D02*
X2197516Y3037029D01*
X2176349Y2994696D02*
X2197516Y3037029D01*
X2140030Y3075930D02*
X2182363Y3097097D01*
X2224696Y3075930D01*
X2203530Y3118263D02*
X2224696Y3075930D01*
X2203530Y3118263D02*
X2224696Y3160596D01*
X2182363Y3139430D02*
X2224696Y3160596D01*
X2140030D02*
X2182363Y3139430D01*
X2140030Y3160596D02*
X2161196Y3118263D01*
X2140030Y3075930D02*
X2161196Y3118263D01*
X2143046Y3132281D02*
X2185379Y3153448D01*
X2227713Y3132281D01*
X2206546Y3174614D02*
X2227713Y3132281D01*
X2206546Y3174614D02*
X2227713Y3216948D01*
X2185379Y3195781D02*
X2227713Y3216948D01*
X2143046D02*
X2185379Y3195781D01*
X2143046Y3216948D02*
X2164213Y3174614D01*
X2143046Y3132281D02*
X2164213Y3174614D01*
X2037665Y3407662D02*
X2079999Y3428829D01*
X2122332Y3407662D01*
X2101165Y3449996D02*
X2122332Y3407662D01*
X2101165Y3449996D02*
X2122332Y3492329D01*
X2079999Y3471162D02*
X2122332Y3492329D01*
X2037665D02*
X2079999Y3471162D01*
X2037665Y3492329D02*
X2058832Y3449996D01*
X2037665Y3407662D02*
X2058832Y3449996D01*
X2144007Y1873330D02*
X2186340Y1894497D01*
X2228673Y1873330D01*
X2207506Y1915663D02*
X2228673Y1873330D01*
X2207506Y1915663D02*
X2228673Y1957996D01*
X2186340Y1936830D02*
X2228673Y1957996D01*
X2144007D02*
X2186340Y1936830D01*
X2144007Y1957996D02*
X2165173Y1915663D01*
X2144007Y1873330D02*
X2165173Y1915663D01*
X1447665Y1797662D02*
X1489999Y1818829D01*
X1532332Y1797662D01*
X1511165Y1839996D02*
X1532332Y1797662D01*
X1511165Y1839996D02*
X1532332Y1882329D01*
X1489999Y1861162D02*
X1532332Y1882329D01*
X1447665D02*
X1489999Y1861162D01*
X1447665Y1882329D02*
X1468832Y1839996D01*
X1447665Y1797662D02*
X1468832Y1839996D01*
X1397086Y3212062D02*
X1439419Y3233229D01*
X1481752Y3212062D01*
X1460586Y3254396D02*
X1481752Y3212062D01*
X1460586Y3254396D02*
X1481752Y3296729D01*
X1439419Y3275562D02*
X1481752Y3296729D01*
X1397086D02*
X1439419Y3275562D01*
X1397086Y3296729D02*
X1418252Y3254396D01*
X1397086Y3212062D02*
X1418252Y3254396D01*
X1402665Y2897662D02*
X1444999Y2918829D01*
X1487332Y2897662D01*
X1466165Y2939996D02*
X1487332Y2897662D01*
X1466165Y2939996D02*
X1487332Y2982329D01*
X1444999Y2961162D02*
X1487332Y2982329D01*
X1402665D02*
X1444999Y2961162D01*
X1402665Y2982329D02*
X1423832Y2939996D01*
X1402665Y2897662D02*
X1423832Y2939996D01*
X1401655Y2658077D02*
X1443988Y2679244D01*
X1486321Y2658077D01*
X1465155Y2700411D02*
X1486321Y2658077D01*
X1465155Y2700411D02*
X1486321Y2742744D01*
X1443988Y2721577D02*
X1486321Y2742744D01*
X1401655D02*
X1443988Y2721577D01*
X1401655Y2742744D02*
X1422821Y2700411D01*
X1401655Y2658077D02*
X1422821Y2700411D01*
X1401655Y2257966D02*
X1443988Y2279133D01*
X1486321Y2257966D01*
X1465155Y2300299D02*
X1486321Y2257966D01*
X1465155Y2300299D02*
X1486321Y2342633D01*
X1443988Y2321466D02*
X1486321Y2342633D01*
X1401655D02*
X1443988Y2321466D01*
X1401655Y2342633D02*
X1422821Y2300299D01*
X1401655Y2257966D02*
X1422821Y2300299D01*
X1401220Y2018639D02*
X1443553Y2039805D01*
X1485886Y2018639D01*
X1464719Y2060972D02*
X1485886Y2018639D01*
X1464719Y2060972D02*
X1485886Y2103305D01*
X1443553Y2082138D02*
X1485886Y2103305D01*
X1401220D02*
X1443553Y2082138D01*
X1401220Y2103305D02*
X1422386Y2060972D01*
X1401220Y2018639D02*
X1422386Y2060972D01*
X1380115Y1691630D02*
X1422449Y1712796D01*
X1464782Y1691630D01*
X1443615Y1733963D02*
X1464782Y1691630D01*
X1443615Y1733963D02*
X1464782Y1776296D01*
X1422449Y1755129D02*
X1464782Y1776296D01*
X1380115D02*
X1422449Y1755129D01*
X1380115Y1776296D02*
X1401282Y1733963D01*
X1380115Y1691630D02*
X1401282Y1733963D01*
X3987665Y2307662D02*
X4029999Y2328829D01*
X4072332Y2307662D01*
X4051165Y2349996D02*
X4072332Y2307662D01*
X4051165Y2349996D02*
X4072332Y2392329D01*
X4029999Y2371162D02*
X4072332Y2392329D01*
X3987665D02*
X4029999Y2371162D01*
X3987665Y2392329D02*
X4008832Y2349996D01*
X3987665Y2307662D02*
X4008832Y2349996D01*
X3997665Y1707663D02*
X4039999Y1728829D01*
X4082332Y1707663D01*
X4061165Y1749996D02*
X4082332Y1707663D01*
X4061165Y1749996D02*
X4082332Y1792329D01*
X4039999Y1771162D02*
X4082332Y1792329D01*
X3997665D02*
X4039999Y1771162D01*
X3997665Y1792329D02*
X4018832Y1749996D01*
X3997665Y1707663D02*
X4018832Y1749996D01*
X4185840Y1791844D02*
X4228173Y1813010D01*
X4270506Y1791844D01*
X4249339Y1834177D02*
X4270506Y1791844D01*
X4249339Y1834177D02*
X4270506Y1876510D01*
X4228173Y1855344D02*
X4270506Y1876510D01*
X4185840D02*
X4228173Y1855344D01*
X4185840Y1876510D02*
X4207006Y1834177D01*
X4185840Y1791844D02*
X4207006Y1834177D01*
X4178095Y2223736D02*
X4220428Y2244903D01*
X4262762Y2223736D01*
X4241595Y2266070D02*
X4262762Y2223736D01*
X4241595Y2266070D02*
X4262762Y2308403D01*
X4220428Y2287236D02*
X4262762Y2308403D01*
X4178095D02*
X4220428Y2287236D01*
X4178095Y2308403D02*
X4199262Y2266070D01*
X4178095Y2223736D02*
X4199262Y2266070D01*
X4365187Y2225323D02*
X4407520Y2246490D01*
X4449853Y2225323D01*
X4428687Y2267657D02*
X4449853Y2225323D01*
X4428687Y2267657D02*
X4449853Y2309990D01*
X4407520Y2288823D02*
X4449853Y2309990D01*
X4365187D02*
X4407520Y2288823D01*
X4365187Y2309990D02*
X4386353Y2267657D01*
X4365187Y2225323D02*
X4386353Y2267657D01*
X4234883Y1511449D02*
X4277216Y1532615D01*
X4319549Y1511449D01*
X4298382Y1553782D02*
X4319549Y1511449D01*
X4298382Y1553782D02*
X4319549Y1596115D01*
X4277216Y1574948D02*
X4319549Y1596115D01*
X4234883D02*
X4277216Y1574948D01*
X4234883Y1596115D02*
X4256049Y1553782D01*
X4234883Y1511449D02*
X4256049Y1553782D01*
X4148543Y1544418D02*
X4190876Y1565585D01*
X4233209Y1544418D01*
X4212043Y1586751D02*
X4233209Y1544418D01*
X4212043Y1586751D02*
X4233209Y1629085D01*
X4190876Y1607918D02*
X4233209Y1629085D01*
X4148543D02*
X4190876Y1607918D01*
X4148543Y1629085D02*
X4169710Y1586751D01*
X4148543Y1544418D02*
X4169710Y1586751D01*
X1617664Y1527662D02*
X1659997Y1548828D01*
X1702330Y1527662D01*
X1681164Y1569995D02*
X1702330Y1527662D01*
X1681164Y1569995D02*
X1702330Y1612328D01*
X1659997Y1591161D02*
X1702330Y1612328D01*
X1617664D02*
X1659997Y1591161D01*
X1617664Y1612328D02*
X1638831Y1569995D01*
X1617664Y1527662D02*
X1638831Y1569995D01*
X1737664Y1287662D02*
X1779997Y1308829D01*
X1822330Y1287662D01*
X1801164Y1329995D02*
X1822330Y1287662D01*
X1801164Y1329995D02*
X1822330Y1372328D01*
X1779997Y1351162D02*
X1822330Y1372328D01*
X1737664D02*
X1779997Y1351162D01*
X1737664Y1372328D02*
X1758830Y1329995D01*
X1737664Y1287662D02*
X1758830Y1329995D01*
X1767664Y1347662D02*
X1809997Y1368829D01*
X1852330Y1347662D01*
X1831163Y1389995D02*
X1852330Y1347662D01*
X1831163Y1389995D02*
X1852330Y1432328D01*
X1809997Y1411162D02*
X1852330Y1432328D01*
X1767664D02*
X1809997Y1411162D01*
X1767664Y1432328D02*
X1788830Y1389995D01*
X1767664Y1347662D02*
X1788830Y1389995D01*
X1797664Y1287662D02*
X1839997Y1308829D01*
X1882330Y1287662D01*
X1861163Y1329995D02*
X1882330Y1287662D01*
X1861163Y1329995D02*
X1882330Y1372328D01*
X1839997Y1351162D02*
X1882330Y1372328D01*
X1797664D02*
X1839997Y1351162D01*
X1797664Y1372328D02*
X1818830Y1329995D01*
X1797664Y1287662D02*
X1818830Y1329995D01*
X1827664Y1347662D02*
X1869997Y1368829D01*
X1912330Y1347662D01*
X1891163Y1389995D02*
X1912330Y1347662D01*
X1891163Y1389995D02*
X1912330Y1432328D01*
X1869997Y1411162D02*
X1912330Y1432328D01*
X1827664D02*
X1869997Y1411162D01*
X1827664Y1432328D02*
X1848830Y1389995D01*
X1827664Y1347662D02*
X1848830Y1389995D01*
X1857664Y1287662D02*
X1899997Y1308829D01*
X1942330Y1287662D01*
X1921163Y1329995D02*
X1942330Y1287662D01*
X1921163Y1329995D02*
X1942330Y1372328D01*
X1899997Y1351162D02*
X1942330Y1372328D01*
X1857664D02*
X1899997Y1351162D01*
X1857664Y1372328D02*
X1878830Y1329995D01*
X1857664Y1287662D02*
X1878830Y1329995D01*
X1857664Y3207658D02*
X1899997Y3228825D01*
X1942330Y3207658D01*
X1921163Y3249991D02*
X1942330Y3207658D01*
X1921163Y3249991D02*
X1942330Y3292325D01*
X1899997Y3271158D02*
X1942330Y3292325D01*
X1857664D02*
X1899997Y3271158D01*
X1857664Y3292325D02*
X1878830Y3249991D01*
X1857664Y3207658D02*
X1878830Y3249991D01*
X1947663Y1707661D02*
X1989997Y1728828D01*
X2032330Y1707661D01*
X2011163Y1749994D02*
X2032330Y1707661D01*
X2011163Y1749994D02*
X2032330Y1792328D01*
X1989997Y1771161D02*
X2032330Y1792328D01*
X1947663D02*
X1989997Y1771161D01*
X1947663Y1792328D02*
X1968830Y1749994D01*
X1947663Y1707661D02*
X1968830Y1749994D01*
X1917663Y2127660D02*
X1959997Y2148827D01*
X2002330Y2127660D01*
X1981163Y2169994D02*
X2002330Y2127660D01*
X1981163Y2169994D02*
X2002330Y2212327D01*
X1959997Y2191160D02*
X2002330Y2212327D01*
X1917663D02*
X1959997Y2191160D01*
X1917663Y2212327D02*
X1938830Y2169994D01*
X1917663Y2127660D02*
X1938830Y2169994D01*
X1977663Y2127660D02*
X2019996Y2148827D01*
X2062330Y2127660D01*
X2041163Y2169994D02*
X2062330Y2127660D01*
X2041163Y2169994D02*
X2062330Y2212327D01*
X2019996Y2191160D02*
X2062330Y2212327D01*
X1977663D02*
X2019996Y2191160D01*
X1977663Y2212327D02*
X1998830Y2169994D01*
X1977663Y2127660D02*
X1998830Y2169994D01*
X2067663Y1587662D02*
X2109996Y1608828D01*
X2152329Y1587662D01*
X2131163Y1629995D02*
X2152329Y1587662D01*
X2131163Y1629995D02*
X2152329Y1672328D01*
X2109996Y1651161D02*
X2152329Y1672328D01*
X2067663D02*
X2109996Y1651161D01*
X2067663Y1672328D02*
X2088830Y1629995D01*
X2067663Y1587662D02*
X2088830Y1629995D01*
X2037663Y1647661D02*
X2079996Y1668828D01*
X2122330Y1647661D01*
X2101163Y1689995D02*
X2122330Y1647661D01*
X2101163Y1689995D02*
X2122330Y1732328D01*
X2079996Y1711161D02*
X2122330Y1732328D01*
X2037663D02*
X2079996Y1711161D01*
X2037663Y1732328D02*
X2058830Y1689995D01*
X2037663Y1647661D02*
X2058830Y1689995D01*
X2127663Y1587662D02*
X2169996Y1608828D01*
X2212329Y1587662D01*
X2191163Y1629995D02*
X2212329Y1587662D01*
X2191163Y1629995D02*
X2212329Y1672328D01*
X2169996Y1651161D02*
X2212329Y1672328D01*
X2127663D02*
X2169996Y1651161D01*
X2127663Y1672328D02*
X2148830Y1629995D01*
X2127663Y1587662D02*
X2148830Y1629995D01*
X2097663Y1647661D02*
X2139996Y1668828D01*
X2182329Y1647661D01*
X2161163Y1689995D02*
X2182329Y1647661D01*
X2161163Y1689995D02*
X2182329Y1732328D01*
X2139996Y1711161D02*
X2182329Y1732328D01*
X2097663D02*
X2139996Y1711161D01*
X2097663Y1732328D02*
X2118830Y1689995D01*
X2097663Y1647661D02*
X2118830Y1689995D01*
X2217663Y2727659D02*
X2259996Y2748826D01*
X2302329Y2727659D01*
X2281163Y2769992D02*
X2302329Y2727659D01*
X2281163Y2769992D02*
X2302329Y2812326D01*
X2259996Y2791159D02*
X2302329Y2812326D01*
X2217663D02*
X2259996Y2791159D01*
X2217663Y2812326D02*
X2238829Y2769992D01*
X2217663Y2727659D02*
X2238829Y2769992D01*
X2277663Y2727659D02*
X2319996Y2748826D01*
X2362329Y2727659D01*
X2341162Y2769992D02*
X2362329Y2727659D01*
X2341162Y2769992D02*
X2362329Y2812326D01*
X2319996Y2791159D02*
X2362329Y2812326D01*
X2277663D02*
X2319996Y2791159D01*
X2277663Y2812326D02*
X2298829Y2769992D01*
X2277663Y2727659D02*
X2298829Y2769992D01*
X2307663Y2787659D02*
X2349996Y2808826D01*
X2392329Y2787659D01*
X2371162Y2829992D02*
X2392329Y2787659D01*
X2371162Y2829992D02*
X2392329Y2872325D01*
X2349996Y2851159D02*
X2392329Y2872325D01*
X2307663D02*
X2349996Y2851159D01*
X2307663Y2872325D02*
X2328829Y2829992D01*
X2307663Y2787659D02*
X2328829Y2829992D01*
X2427662Y1587662D02*
X2469996Y1608828D01*
X2512329Y1587662D01*
X2491162Y1629995D02*
X2512329Y1587662D01*
X2491162Y1629995D02*
X2512329Y1672328D01*
X2469996Y1651161D02*
X2512329Y1672328D01*
X2427662D02*
X2469996Y1651161D01*
X2427662Y1672328D02*
X2448829Y1629995D01*
X2427662Y1587662D02*
X2448829Y1629995D01*
X2487662Y2667659D02*
X2529995Y2688826D01*
X2572329Y2667659D01*
X2551162Y2709993D02*
X2572329Y2667659D01*
X2551162Y2709993D02*
X2572329Y2752326D01*
X2529995Y2731159D02*
X2572329Y2752326D01*
X2487662D02*
X2529995Y2731159D01*
X2487662Y2752326D02*
X2508829Y2709993D01*
X2487662Y2667659D02*
X2508829Y2709993D01*
X2457662Y2967659D02*
X2499996Y2988825D01*
X2542329Y2967659D01*
X2521162Y3009992D02*
X2542329Y2967659D01*
X2521162Y3009992D02*
X2542329Y3052325D01*
X2499996Y3031159D02*
X2542329Y3052325D01*
X2457662D02*
X2499996Y3031159D01*
X2457662Y3052325D02*
X2478829Y3009992D01*
X2457662Y2967659D02*
X2478829Y3009992D01*
X2547662Y2187660D02*
X2589995Y2208827D01*
X2632328Y2187660D01*
X2611162Y2229994D02*
X2632328Y2187660D01*
X2611162Y2229994D02*
X2632328Y2272327D01*
X2589995Y2251160D02*
X2632328Y2272327D01*
X2547662D02*
X2589995Y2251160D01*
X2547662Y2272327D02*
X2568829Y2229994D01*
X2547662Y2187660D02*
X2568829Y2229994D01*
X2547662Y2667659D02*
X2589995Y2688826D01*
X2632328Y2667659D01*
X2611162Y2709993D02*
X2632328Y2667659D01*
X2611162Y2709993D02*
X2632328Y2752326D01*
X2589995Y2731159D02*
X2632328Y2752326D01*
X2547662D02*
X2589995Y2731159D01*
X2547662Y2752326D02*
X2568829Y2709993D01*
X2547662Y2667659D02*
X2568829Y2709993D01*
X2517662Y2727659D02*
X2559995Y2748826D01*
X2602329Y2727659D01*
X2581162Y2769992D02*
X2602329Y2727659D01*
X2581162Y2769992D02*
X2602329Y2812326D01*
X2559995Y2791159D02*
X2602329Y2812326D01*
X2517662D02*
X2559995Y2791159D01*
X2517662Y2812326D02*
X2538829Y2769992D01*
X2517662Y2727659D02*
X2538829Y2769992D01*
X2607662Y2667659D02*
X2649995Y2688826D01*
X2692328Y2667659D01*
X2671162Y2709993D02*
X2692328Y2667659D01*
X2671162Y2709993D02*
X2692328Y2752326D01*
X2649995Y2731159D02*
X2692328Y2752326D01*
X2607662D02*
X2649995Y2731159D01*
X2607662Y2752326D02*
X2628829Y2709993D01*
X2607662Y2667659D02*
X2628829Y2709993D01*
X2577662Y2727659D02*
X2619995Y2748826D01*
X2662328Y2727659D01*
X2641162Y2769992D02*
X2662328Y2727659D01*
X2641162Y2769992D02*
X2662328Y2812326D01*
X2619995Y2791159D02*
X2662328Y2812326D01*
X2577662D02*
X2619995Y2791159D01*
X2577662Y2812326D02*
X2598829Y2769992D01*
X2577662Y2727659D02*
X2598829Y2769992D01*
X2577662Y3207658D02*
X2619995Y3228825D01*
X2662328Y3207658D01*
X2641162Y3249991D02*
X2662328Y3207658D01*
X2641162Y3249991D02*
X2662328Y3292325D01*
X2619995Y3271158D02*
X2662328Y3292325D01*
X2577662D02*
X2619995Y3271158D01*
X2577662Y3292325D02*
X2598829Y3249991D01*
X2577662Y3207658D02*
X2598829Y3249991D01*
X2637662Y2607660D02*
X2679995Y2628826D01*
X2722328Y2607660D01*
X2701162Y2649993D02*
X2722328Y2607660D01*
X2701162Y2649993D02*
X2722328Y2692326D01*
X2679995Y2671159D02*
X2722328Y2692326D01*
X2637662D02*
X2679995Y2671159D01*
X2637662Y2692326D02*
X2658829Y2649993D01*
X2637662Y2607660D02*
X2658829Y2649993D01*
X2637662Y2727659D02*
X2679995Y2748826D01*
X2722328Y2727659D01*
X2701162Y2769992D02*
X2722328Y2727659D01*
X2701162Y2769992D02*
X2722328Y2812326D01*
X2679995Y2791159D02*
X2722328Y2812326D01*
X2637662D02*
X2679995Y2791159D01*
X2637662Y2812326D02*
X2658829Y2769992D01*
X2637662Y2727659D02*
X2658829Y2769992D01*
X2637662Y3207658D02*
X2679995Y3228825D01*
X2722328Y3207658D01*
X2701162Y3249991D02*
X2722328Y3207658D01*
X2701162Y3249991D02*
X2722328Y3292325D01*
X2679995Y3271158D02*
X2722328Y3292325D01*
X2637662D02*
X2679995Y3271158D01*
X2637662Y3292325D02*
X2658829Y3249991D01*
X2637662Y3207658D02*
X2658829Y3249991D01*
X2787662Y2667659D02*
X2829995Y2688826D01*
X2872328Y2667659D01*
X2851161Y2709993D02*
X2872328Y2667659D01*
X2851161Y2709993D02*
X2872328Y2752326D01*
X2829995Y2731159D02*
X2872328Y2752326D01*
X2787662D02*
X2829995Y2731159D01*
X2787662Y2752326D02*
X2808828Y2709993D01*
X2787662Y2667659D02*
X2808828Y2709993D01*
X2757662Y2727659D02*
X2799995Y2748826D01*
X2842328Y2727659D01*
X2821161Y2769992D02*
X2842328Y2727659D01*
X2821161Y2769992D02*
X2842328Y2812326D01*
X2799995Y2791159D02*
X2842328Y2812326D01*
X2757662D02*
X2799995Y2791159D01*
X2757662Y2812326D02*
X2778828Y2769992D01*
X2757662Y2727659D02*
X2778828Y2769992D01*
X2817662Y2727659D02*
X2859995Y2748826D01*
X2902328Y2727659D01*
X2881161Y2769992D02*
X2902328Y2727659D01*
X2881161Y2769992D02*
X2902328Y2812326D01*
X2859995Y2791159D02*
X2902328Y2812326D01*
X2817662D02*
X2859995Y2791159D01*
X2817662Y2812326D02*
X2838828Y2769992D01*
X2817662Y2727659D02*
X2838828Y2769992D01*
X3387660Y2667659D02*
X3429994Y2688826D01*
X3472327Y2667659D01*
X3451160Y2709993D02*
X3472327Y2667659D01*
X3451160Y2709993D02*
X3472327Y2752326D01*
X3429994Y2731159D02*
X3472327Y2752326D01*
X3387660D02*
X3429994Y2731159D01*
X3387660Y2752326D02*
X3408827Y2709993D01*
X3387660Y2667659D02*
X3408827Y2709993D01*
X3507660Y2787659D02*
X3549993Y2808826D01*
X3592327Y2787659D01*
X3571160Y2829992D02*
X3592327Y2787659D01*
X3571160Y2829992D02*
X3592327Y2872325D01*
X3549993Y2851159D02*
X3592327Y2872325D01*
X3507660D02*
X3549993Y2851159D01*
X3507660Y2872325D02*
X3528827Y2829992D01*
X3507660Y2787659D02*
X3528827Y2829992D01*
X3477660Y2967659D02*
X3519993Y2988825D01*
X3562327Y2967659D01*
X3541160Y3009992D02*
X3562327Y2967659D01*
X3541160Y3009992D02*
X3562327Y3052325D01*
X3519993Y3031159D02*
X3562327Y3052325D01*
X3477660D02*
X3519993Y3031159D01*
X3477660Y3052325D02*
X3498827Y3009992D01*
X3477660Y2967659D02*
X3498827Y3009992D01*
X3597660Y2127660D02*
X3639993Y2148827D01*
X3682326Y2127660D01*
X3661160Y2169994D02*
X3682326Y2127660D01*
X3661160Y2169994D02*
X3682326Y2212327D01*
X3639993Y2191160D02*
X3682326Y2212327D01*
X3597660D02*
X3639993Y2191160D01*
X3597660Y2212327D02*
X3618827Y2169994D01*
X3597660Y2127660D02*
X3618827Y2169994D01*
X3597660Y2727659D02*
X3639993Y2748826D01*
X3682326Y2727659D01*
X3661160Y2769992D02*
X3682326Y2727659D01*
X3661160Y2769992D02*
X3682326Y2812326D01*
X3639993Y2791159D02*
X3682326Y2812326D01*
X3597660D02*
X3639993Y2791159D01*
X3597660Y2812326D02*
X3618827Y2769992D01*
X3597660Y2727659D02*
X3618827Y2769992D01*
X3597660Y3327658D02*
X3639993Y3348825D01*
X3682326Y3327658D01*
X3661160Y3369991D02*
X3682326Y3327658D01*
X3661160Y3369991D02*
X3682326Y3412324D01*
X3639993Y3391158D02*
X3682326Y3412324D01*
X3597660D02*
X3639993Y3391158D01*
X3597660Y3412324D02*
X3618827Y3369991D01*
X3597660Y3327658D02*
X3618827Y3369991D01*
X3687660Y1587662D02*
X3729993Y1608828D01*
X3772326Y1587662D01*
X3751160Y1629995D02*
X3772326Y1587662D01*
X3751160Y1629995D02*
X3772326Y1672328D01*
X3729993Y1651161D02*
X3772326Y1672328D01*
X3687660D02*
X3729993Y1651161D01*
X3687660Y1672328D02*
X3708826Y1629995D01*
X3687660Y1587662D02*
X3708826Y1629995D01*
X3687660Y1707661D02*
X3729993Y1728828D01*
X3772326Y1707661D01*
X3751160Y1749994D02*
X3772326Y1707661D01*
X3751160Y1749994D02*
X3772326Y1792328D01*
X3729993Y1771161D02*
X3772326Y1792328D01*
X3687660D02*
X3729993Y1771161D01*
X3687660Y1792328D02*
X3708826Y1749994D01*
X3687660Y1707661D02*
X3708826Y1749994D01*
X3687660Y3147658D02*
X3729993Y3168825D01*
X3772326Y3147658D01*
X3751160Y3189992D02*
X3772326Y3147658D01*
X3751160Y3189992D02*
X3772326Y3232325D01*
X3729993Y3211158D02*
X3772326Y3232325D01*
X3687660D02*
X3729993Y3211158D01*
X3687660Y3232325D02*
X3708826Y3189992D01*
X3687660Y3147658D02*
X3708826Y3189992D01*
X3687660Y3267658D02*
X3729993Y3288825D01*
X3772326Y3267658D01*
X3751160Y3309991D02*
X3772326Y3267658D01*
X3751160Y3309991D02*
X3772326Y3352325D01*
X3729993Y3331158D02*
X3772326Y3352325D01*
X3687660D02*
X3729993Y3331158D01*
X3687660Y3352325D02*
X3708826Y3309991D01*
X3687660Y3267658D02*
X3708826Y3309991D01*
X3687660Y3387658D02*
X3729993Y3408825D01*
X3772326Y3387658D01*
X3751160Y3429991D02*
X3772326Y3387658D01*
X3751160Y3429991D02*
X3772326Y3472324D01*
X3729993Y3451158D02*
X3772326Y3472324D01*
X3687660D02*
X3729993Y3451158D01*
X3687660Y3472324D02*
X3708826Y3429991D01*
X3687660Y3387658D02*
X3708826Y3429991D01*
X3657660Y3447658D02*
X3699993Y3468824D01*
X3742326Y3447658D01*
X3721160Y3489991D02*
X3742326Y3447658D01*
X3721160Y3489991D02*
X3742326Y3532324D01*
X3699993Y3511158D02*
X3742326Y3532324D01*
X3657660D02*
X3699993Y3511158D01*
X3657660Y3532324D02*
X3678827Y3489991D01*
X3657660Y3447658D02*
X3678827Y3489991D01*
X3717660Y1527662D02*
X3759993Y1548828D01*
X3802326Y1527662D01*
X3781160Y1569995D02*
X3802326Y1527662D01*
X3781160Y1569995D02*
X3802326Y1612328D01*
X3759993Y1591161D02*
X3802326Y1612328D01*
X3717660D02*
X3759993Y1591161D01*
X3717660Y1612328D02*
X3738826Y1569995D01*
X3717660Y1527662D02*
X3738826Y1569995D01*
X3747660Y1587662D02*
X3789993Y1608828D01*
X3832326Y1587662D01*
X3811160Y1629995D02*
X3832326Y1587662D01*
X3811160Y1629995D02*
X3832326Y1672328D01*
X3789993Y1651161D02*
X3832326Y1672328D01*
X3747660D02*
X3789993Y1651161D01*
X3747660Y1672328D02*
X3768826Y1629995D01*
X3747660Y1587662D02*
X3768826Y1629995D01*
X3717660Y1647661D02*
X3759993Y1668828D01*
X3802326Y1647661D01*
X3781160Y1689995D02*
X3802326Y1647661D01*
X3781160Y1689995D02*
X3802326Y1732328D01*
X3759993Y1711161D02*
X3802326Y1732328D01*
X3717660D02*
X3759993Y1711161D01*
X3717660Y1732328D02*
X3738826Y1689995D01*
X3717660Y1647661D02*
X3738826Y1689995D01*
X3747660Y1707661D02*
X3789993Y1728828D01*
X3832326Y1707661D01*
X3811160Y1749994D02*
X3832326Y1707661D01*
X3811160Y1749994D02*
X3832326Y1792328D01*
X3789993Y1771161D02*
X3832326Y1792328D01*
X3747660D02*
X3789993Y1771161D01*
X3747660Y1792328D02*
X3768826Y1749994D01*
X3747660Y1707661D02*
X3768826Y1749994D01*
X3747660Y3147658D02*
X3789993Y3168825D01*
X3832326Y3147658D01*
X3811160Y3189992D02*
X3832326Y3147658D01*
X3811160Y3189992D02*
X3832326Y3232325D01*
X3789993Y3211158D02*
X3832326Y3232325D01*
X3747660D02*
X3789993Y3211158D01*
X3747660Y3232325D02*
X3768826Y3189992D01*
X3747660Y3147658D02*
X3768826Y3189992D01*
X3717660Y3207658D02*
X3759993Y3228825D01*
X3802326Y3207658D01*
X3781160Y3249991D02*
X3802326Y3207658D01*
X3781160Y3249991D02*
X3802326Y3292325D01*
X3759993Y3271158D02*
X3802326Y3292325D01*
X3717660D02*
X3759993Y3271158D01*
X3717660Y3292325D02*
X3738826Y3249991D01*
X3717660Y3207658D02*
X3738826Y3249991D01*
X3747660Y3387658D02*
X3789993Y3408825D01*
X3832326Y3387658D01*
X3811160Y3429991D02*
X3832326Y3387658D01*
X3811160Y3429991D02*
X3832326Y3472324D01*
X3789993Y3451158D02*
X3832326Y3472324D01*
X3747660D02*
X3789993Y3451158D01*
X3747660Y3472324D02*
X3768826Y3429991D01*
X3747660Y3387658D02*
X3768826Y3429991D01*
X3747660Y3627657D02*
X3789993Y3648824D01*
X3832326Y3627657D01*
X3811160Y3669991D02*
X3832326Y3627657D01*
X3811160Y3669991D02*
X3832326Y3712324D01*
X3789993Y3691157D02*
X3832326Y3712324D01*
X3747660D02*
X3789993Y3691157D01*
X3747660Y3712324D02*
X3768826Y3669991D01*
X3747660Y3627657D02*
X3768826Y3669991D01*
X3777660Y1527662D02*
X3819993Y1548828D01*
X3862326Y1527662D01*
X3841159Y1569995D02*
X3862326Y1527662D01*
X3841159Y1569995D02*
X3862326Y1612328D01*
X3819993Y1591161D02*
X3862326Y1612328D01*
X3777660D02*
X3819993Y1591161D01*
X3777660Y1612328D02*
X3798826Y1569995D01*
X3777660Y1527662D02*
X3798826Y1569995D01*
X3807660Y1587662D02*
X3849993Y1608828D01*
X3892326Y1587662D01*
X3871159Y1629995D02*
X3892326Y1587662D01*
X3871159Y1629995D02*
X3892326Y1672328D01*
X3849993Y1651161D02*
X3892326Y1672328D01*
X3807660D02*
X3849993Y1651161D01*
X3807660Y1672328D02*
X3828826Y1629995D01*
X3807660Y1587662D02*
X3828826Y1629995D01*
X3777660Y1647661D02*
X3819993Y1668828D01*
X3862326Y1647661D01*
X3841159Y1689995D02*
X3862326Y1647661D01*
X3841159Y1689995D02*
X3862326Y1732328D01*
X3819993Y1711161D02*
X3862326Y1732328D01*
X3777660D02*
X3819993Y1711161D01*
X3777660Y1732328D02*
X3798826Y1689995D01*
X3777660Y1647661D02*
X3798826Y1689995D01*
X3807660Y2427660D02*
X3849993Y2448826D01*
X3892326Y2427660D01*
X3871159Y2469993D02*
X3892326Y2427660D01*
X3871159Y2469993D02*
X3892326Y2512326D01*
X3849993Y2491160D02*
X3892326Y2512326D01*
X3807660D02*
X3849993Y2491160D01*
X3807660Y2512326D02*
X3828826Y2469993D01*
X3807660Y2427660D02*
X3828826Y2469993D01*
X3807660Y3147658D02*
X3849993Y3168825D01*
X3892326Y3147658D01*
X3871159Y3189992D02*
X3892326Y3147658D01*
X3871159Y3189992D02*
X3892326Y3232325D01*
X3849993Y3211158D02*
X3892326Y3232325D01*
X3807660D02*
X3849993Y3211158D01*
X3807660Y3232325D02*
X3828826Y3189992D01*
X3807660Y3147658D02*
X3828826Y3189992D01*
X3807660Y3627657D02*
X3849993Y3648824D01*
X3892326Y3627657D01*
X3871159Y3669991D02*
X3892326Y3627657D01*
X3871159Y3669991D02*
X3892326Y3712324D01*
X3849993Y3691157D02*
X3892326Y3712324D01*
X3807660D02*
X3849993Y3691157D01*
X3807660Y3712324D02*
X3828826Y3669991D01*
X3807660Y3627657D02*
X3828826Y3669991D01*
X3867660Y1827661D02*
X3909993Y1848828D01*
X3952326Y1827661D01*
X3931159Y1869994D02*
X3952326Y1827661D01*
X3931159Y1869994D02*
X3952326Y1912327D01*
X3909993Y1891161D02*
X3952326Y1912327D01*
X3867660D02*
X3909993Y1891161D01*
X3867660Y1912327D02*
X3888826Y1869994D01*
X3867660Y1827661D02*
X3888826Y1869994D01*
X3837660Y1887661D02*
X3879993Y1908828D01*
X3922326Y1887661D01*
X3901159Y1929994D02*
X3922326Y1887661D01*
X3901159Y1929994D02*
X3922326Y1972327D01*
X3879993Y1951161D02*
X3922326Y1972327D01*
X3837660D02*
X3879993Y1951161D01*
X3837660Y1972327D02*
X3858826Y1929994D01*
X3837660Y1887661D02*
X3858826Y1929994D01*
X3867660Y2187660D02*
X3909993Y2208827D01*
X3952326Y2187660D01*
X3931159Y2229994D02*
X3952326Y2187660D01*
X3931159Y2229994D02*
X3952326Y2272327D01*
X3909993Y2251160D02*
X3952326Y2272327D01*
X3867660D02*
X3909993Y2251160D01*
X3867660Y2272327D02*
X3888826Y2229994D01*
X3867660Y2187660D02*
X3888826Y2229994D01*
X3837660Y2247660D02*
X3879993Y2268827D01*
X3922326Y2247660D01*
X3901159Y2289993D02*
X3922326Y2247660D01*
X3901159Y2289993D02*
X3922326Y2332327D01*
X3879993Y2311160D02*
X3922326Y2332327D01*
X3837660D02*
X3879993Y2311160D01*
X3837660Y2332327D02*
X3858826Y2289993D01*
X3837660Y2247660D02*
X3858826Y2289993D01*
X3867660Y2307660D02*
X3909993Y2328827D01*
X3952326Y2307660D01*
X3931159Y2349993D02*
X3952326Y2307660D01*
X3931159Y2349993D02*
X3952326Y2392326D01*
X3909993Y2371160D02*
X3952326Y2392326D01*
X3867660D02*
X3909993Y2371160D01*
X3867660Y2392326D02*
X3888826Y2349993D01*
X3867660Y2307660D02*
X3888826Y2349993D01*
X3837660Y2367660D02*
X3879993Y2388827D01*
X3922326Y2367660D01*
X3901159Y2409993D02*
X3922326Y2367660D01*
X3901159Y2409993D02*
X3922326Y2452326D01*
X3879993Y2431160D02*
X3922326Y2452326D01*
X3837660D02*
X3879993Y2431160D01*
X3837660Y2452326D02*
X3858826Y2409993D01*
X3837660Y2367660D02*
X3858826Y2409993D01*
X3867660Y2427660D02*
X3909993Y2448826D01*
X3952326Y2427660D01*
X3931159Y2469993D02*
X3952326Y2427660D01*
X3931159Y2469993D02*
X3952326Y2512326D01*
X3909993Y2491160D02*
X3952326Y2512326D01*
X3867660D02*
X3909993Y2491160D01*
X3867660Y2512326D02*
X3888826Y2469993D01*
X3867660Y2427660D02*
X3888826Y2469993D01*
X3837660Y2487660D02*
X3879993Y2508826D01*
X3922326Y2487660D01*
X3901159Y2529993D02*
X3922326Y2487660D01*
X3901159Y2529993D02*
X3922326Y2572326D01*
X3879993Y2551159D02*
X3922326Y2572326D01*
X3837660D02*
X3879993Y2551159D01*
X3837660Y2572326D02*
X3858826Y2529993D01*
X3837660Y2487660D02*
X3858826Y2529993D01*
X3867660Y3147658D02*
X3909993Y3168825D01*
X3952326Y3147658D01*
X3931159Y3189992D02*
X3952326Y3147658D01*
X3931159Y3189992D02*
X3952326Y3232325D01*
X3909993Y3211158D02*
X3952326Y3232325D01*
X3867660D02*
X3909993Y3211158D01*
X3867660Y3232325D02*
X3888826Y3189992D01*
X3867660Y3147658D02*
X3888826Y3189992D01*
X3927659Y1707661D02*
X3969993Y1728828D01*
X4012326Y1707661D01*
X3991159Y1749994D02*
X4012326Y1707661D01*
X3991159Y1749994D02*
X4012326Y1792328D01*
X3969993Y1771161D02*
X4012326Y1792328D01*
X3927659D02*
X3969993Y1771161D01*
X3927659Y1792328D02*
X3948826Y1749994D01*
X3927659Y1707661D02*
X3948826Y1749994D01*
X3897659Y1767661D02*
X3939993Y1788828D01*
X3982326Y1767661D01*
X3961159Y1809994D02*
X3982326Y1767661D01*
X3961159Y1809994D02*
X3982326Y1852328D01*
X3939993Y1831161D02*
X3982326Y1852328D01*
X3897659D02*
X3939993Y1831161D01*
X3897659Y1852328D02*
X3918826Y1809994D01*
X3897659Y1767661D02*
X3918826Y1809994D01*
X3927659Y1827661D02*
X3969993Y1848828D01*
X4012326Y1827661D01*
X3991159Y1869994D02*
X4012326Y1827661D01*
X3991159Y1869994D02*
X4012326Y1912327D01*
X3969993Y1891161D02*
X4012326Y1912327D01*
X3927659D02*
X3969993Y1891161D01*
X3927659Y1912327D02*
X3948826Y1869994D01*
X3927659Y1827661D02*
X3948826Y1869994D01*
X3897659Y1887661D02*
X3939993Y1908828D01*
X3982326Y1887661D01*
X3961159Y1929994D02*
X3982326Y1887661D01*
X3961159Y1929994D02*
X3982326Y1972327D01*
X3939993Y1951161D02*
X3982326Y1972327D01*
X3897659D02*
X3939993Y1951161D01*
X3897659Y1972327D02*
X3918826Y1929994D01*
X3897659Y1887661D02*
X3918826Y1929994D01*
X3897659Y2127660D02*
X3939993Y2148827D01*
X3982326Y2127660D01*
X3961159Y2169994D02*
X3982326Y2127660D01*
X3961159Y2169994D02*
X3982326Y2212327D01*
X3939993Y2191160D02*
X3982326Y2212327D01*
X3897659D02*
X3939993Y2191160D01*
X3897659Y2212327D02*
X3918826Y2169994D01*
X3897659Y2127660D02*
X3918826Y2169994D01*
X3927659Y2187660D02*
X3969993Y2208827D01*
X4012326Y2187660D01*
X3991159Y2229994D02*
X4012326Y2187660D01*
X3991159Y2229994D02*
X4012326Y2272327D01*
X3969993Y2251160D02*
X4012326Y2272327D01*
X3927659D02*
X3969993Y2251160D01*
X3927659Y2272327D02*
X3948826Y2229994D01*
X3927659Y2187660D02*
X3948826Y2229994D01*
X3897659Y2247660D02*
X3939993Y2268827D01*
X3982326Y2247660D01*
X3961159Y2289993D02*
X3982326Y2247660D01*
X3961159Y2289993D02*
X3982326Y2332327D01*
X3939993Y2311160D02*
X3982326Y2332327D01*
X3897659D02*
X3939993Y2311160D01*
X3897659Y2332327D02*
X3918826Y2289993D01*
X3897659Y2247660D02*
X3918826Y2289993D01*
X3927659Y2307660D02*
X3969993Y2328827D01*
X4012326Y2307660D01*
X3991159Y2349993D02*
X4012326Y2307660D01*
X3991159Y2349993D02*
X4012326Y2392326D01*
X3969993Y2371160D02*
X4012326Y2392326D01*
X3927659D02*
X3969993Y2371160D01*
X3927659Y2392326D02*
X3948826Y2349993D01*
X3927659Y2307660D02*
X3948826Y2349993D01*
X3897659Y2367660D02*
X3939993Y2388827D01*
X3982326Y2367660D01*
X3961159Y2409993D02*
X3982326Y2367660D01*
X3961159Y2409993D02*
X3982326Y2452326D01*
X3939993Y2431160D02*
X3982326Y2452326D01*
X3897659D02*
X3939993Y2431160D01*
X3897659Y2452326D02*
X3918826Y2409993D01*
X3897659Y2367660D02*
X3918826Y2409993D01*
X3927659Y2427660D02*
X3969993Y2448826D01*
X4012326Y2427660D01*
X3991159Y2469993D02*
X4012326Y2427660D01*
X3991159Y2469993D02*
X4012326Y2512326D01*
X3969993Y2491160D02*
X4012326Y2512326D01*
X3927659D02*
X3969993Y2491160D01*
X3927659Y2512326D02*
X3948826Y2469993D01*
X3927659Y2427660D02*
X3948826Y2469993D01*
X3897659Y2487660D02*
X3939993Y2508826D01*
X3982326Y2487660D01*
X3961159Y2529993D02*
X3982326Y2487660D01*
X3961159Y2529993D02*
X3982326Y2572326D01*
X3939993Y2551159D02*
X3982326Y2572326D01*
X3897659D02*
X3939993Y2551159D01*
X3897659Y2572326D02*
X3918826Y2529993D01*
X3897659Y2487660D02*
X3918826Y2529993D01*
X3927659Y3147658D02*
X3969993Y3168825D01*
X4012326Y3147658D01*
X3991159Y3189992D02*
X4012326Y3147658D01*
X3991159Y3189992D02*
X4012326Y3232325D01*
X3969993Y3211158D02*
X4012326Y3232325D01*
X3927659D02*
X3969993Y3211158D01*
X3927659Y3232325D02*
X3948826Y3189992D01*
X3927659Y3147658D02*
X3948826Y3189992D01*
X3957659Y1767661D02*
X3999993Y1788828D01*
X4042326Y1767661D01*
X4021159Y1809994D02*
X4042326Y1767661D01*
X4021159Y1809994D02*
X4042326Y1852328D01*
X3999993Y1831161D02*
X4042326Y1852328D01*
X3957659D02*
X3999993Y1831161D01*
X3957659Y1852328D02*
X3978826Y1809994D01*
X3957659Y1767661D02*
X3978826Y1809994D01*
X3987659Y1827661D02*
X4029992Y1848828D01*
X4072326Y1827661D01*
X4051159Y1869994D02*
X4072326Y1827661D01*
X4051159Y1869994D02*
X4072326Y1912327D01*
X4029992Y1891161D02*
X4072326Y1912327D01*
X3987659D02*
X4029992Y1891161D01*
X3987659Y1912327D02*
X4008826Y1869994D01*
X3987659Y1827661D02*
X4008826Y1869994D01*
X3957659Y1887661D02*
X3999993Y1908828D01*
X4042326Y1887661D01*
X4021159Y1929994D02*
X4042326Y1887661D01*
X4021159Y1929994D02*
X4042326Y1972327D01*
X3999993Y1951161D02*
X4042326Y1972327D01*
X3957659D02*
X3999993Y1951161D01*
X3957659Y1972327D02*
X3978826Y1929994D01*
X3957659Y1887661D02*
X3978826Y1929994D01*
X3957659Y2127660D02*
X3999993Y2148827D01*
X4042326Y2127660D01*
X4021159Y2169994D02*
X4042326Y2127660D01*
X4021159Y2169994D02*
X4042326Y2212327D01*
X3999993Y2191160D02*
X4042326Y2212327D01*
X3957659D02*
X3999993Y2191160D01*
X3957659Y2212327D02*
X3978826Y2169994D01*
X3957659Y2127660D02*
X3978826Y2169994D01*
X3987659Y2187660D02*
X4029992Y2208827D01*
X4072326Y2187660D01*
X4051159Y2229994D02*
X4072326Y2187660D01*
X4051159Y2229994D02*
X4072326Y2272327D01*
X4029992Y2251160D02*
X4072326Y2272327D01*
X3987659D02*
X4029992Y2251160D01*
X3987659Y2272327D02*
X4008826Y2229994D01*
X3987659Y2187660D02*
X4008826Y2229994D01*
X3957659Y2247660D02*
X3999993Y2268827D01*
X4042326Y2247660D01*
X4021159Y2289993D02*
X4042326Y2247660D01*
X4021159Y2289993D02*
X4042326Y2332327D01*
X3999993Y2311160D02*
X4042326Y2332327D01*
X3957659D02*
X3999993Y2311160D01*
X3957659Y2332327D02*
X3978826Y2289993D01*
X3957659Y2247660D02*
X3978826Y2289993D01*
X3957659Y2367660D02*
X3999993Y2388827D01*
X4042326Y2367660D01*
X4021159Y2409993D02*
X4042326Y2367660D01*
X4021159Y2409993D02*
X4042326Y2452326D01*
X3999993Y2431160D02*
X4042326Y2452326D01*
X3957659D02*
X3999993Y2431160D01*
X3957659Y2452326D02*
X3978826Y2409993D01*
X3957659Y2367660D02*
X3978826Y2409993D01*
X3987659Y2427660D02*
X4029992Y2448826D01*
X4072326Y2427660D01*
X4051159Y2469993D02*
X4072326Y2427660D01*
X4051159Y2469993D02*
X4072326Y2512326D01*
X4029992Y2491160D02*
X4072326Y2512326D01*
X3987659D02*
X4029992Y2491160D01*
X3987659Y2512326D02*
X4008826Y2469993D01*
X3987659Y2427660D02*
X4008826Y2469993D01*
X3957659Y2487660D02*
X3999993Y2508826D01*
X4042326Y2487660D01*
X4021159Y2529993D02*
X4042326Y2487660D01*
X4021159Y2529993D02*
X4042326Y2572326D01*
X3999993Y2551159D02*
X4042326Y2572326D01*
X3957659D02*
X3999993Y2551159D01*
X3957659Y2572326D02*
X3978826Y2529993D01*
X3957659Y2487660D02*
X3978826Y2529993D01*
X3957659Y3087659D02*
X3999993Y3108825D01*
X4042326Y3087659D01*
X4021159Y3129992D02*
X4042326Y3087659D01*
X4021159Y3129992D02*
X4042326Y3172325D01*
X3999993Y3151158D02*
X4042326Y3172325D01*
X3957659D02*
X3999993Y3151158D01*
X3957659Y3172325D02*
X3978826Y3129992D01*
X3957659Y3087659D02*
X3978826Y3129992D01*
X4017659Y2487660D02*
X4059992Y2508826D01*
X4102326Y2487660D01*
X4081159Y2529993D02*
X4102326Y2487660D01*
X4081159Y2529993D02*
X4102326Y2572326D01*
X4059992Y2551159D02*
X4102326Y2572326D01*
X4017659D02*
X4059992Y2551159D01*
X4017659Y2572326D02*
X4038826Y2529993D01*
X4017659Y2487660D02*
X4038826Y2529993D01*
X4017659Y3327658D02*
X4059992Y3348825D01*
X4102326Y3327658D01*
X4081159Y3369991D02*
X4102326Y3327658D01*
X4081159Y3369991D02*
X4102326Y3412324D01*
X4059992Y3391158D02*
X4102326Y3412324D01*
X4017659D02*
X4059992Y3391158D01*
X4017659Y3412324D02*
X4038826Y3369991D01*
X4017659Y3327658D02*
X4038826Y3369991D01*
X4017659Y3447658D02*
X4059992Y3468824D01*
X4102326Y3447658D01*
X4081159Y3489991D02*
X4102326Y3447658D01*
X4081159Y3489991D02*
X4102326Y3532324D01*
X4059992Y3511158D02*
X4102326Y3532324D01*
X4017659D02*
X4059992Y3511158D01*
X4017659Y3532324D02*
X4038826Y3489991D01*
X4017659Y3447658D02*
X4038826Y3489991D01*
X4077659Y2127660D02*
X4119992Y2148827D01*
X4162325Y2127660D01*
X4141159Y2169994D02*
X4162325Y2127660D01*
X4141159Y2169994D02*
X4162325Y2212327D01*
X4119992Y2191160D02*
X4162325Y2212327D01*
X4077659D02*
X4119992Y2191160D01*
X4077659Y2212327D02*
X4098826Y2169994D01*
X4077659Y2127660D02*
X4098826Y2169994D01*
X4077659Y2487660D02*
X4119992Y2508826D01*
X4162325Y2487660D01*
X4141159Y2529993D02*
X4162325Y2487660D01*
X4141159Y2529993D02*
X4162325Y2572326D01*
X4119992Y2551159D02*
X4162325Y2572326D01*
X4077659D02*
X4119992Y2551159D01*
X4077659Y2572326D02*
X4098826Y2529993D01*
X4077659Y2487660D02*
X4098826Y2529993D01*
X4077659Y3447658D02*
X4119992Y3468824D01*
X4162325Y3447658D01*
X4141159Y3489991D02*
X4162325Y3447658D01*
X4141159Y3489991D02*
X4162325Y3532324D01*
X4119992Y3511158D02*
X4162325Y3532324D01*
X4077659D02*
X4119992Y3511158D01*
X4077659Y3532324D02*
X4098826Y3489991D01*
X4077659Y3447658D02*
X4098826Y3489991D01*
X4137659Y2487660D02*
X4179992Y2508826D01*
X4222325Y2487660D01*
X4201159Y2529993D02*
X4222325Y2487660D01*
X4201159Y2529993D02*
X4222325Y2572326D01*
X4179992Y2551159D02*
X4222325Y2572326D01*
X4137659D02*
X4179992Y2551159D01*
X4137659Y2572326D02*
X4158826Y2529993D01*
X4137659Y2487660D02*
X4158826Y2529993D01*
X4167659Y2547660D02*
X4209992Y2568826D01*
X4252325Y2547660D01*
X4231159Y2589993D02*
X4252325Y2547660D01*
X4231159Y2589993D02*
X4252325Y2632326D01*
X4209992Y2611159D02*
X4252325Y2632326D01*
X4167659D02*
X4209992Y2611159D01*
X4167659Y2632326D02*
X4188826Y2589993D01*
X4167659Y2547660D02*
X4188826Y2589993D01*
X4197659Y2487660D02*
X4239992Y2508826D01*
X4282325Y2487660D01*
X4261159Y2529993D02*
X4282325Y2487660D01*
X4261159Y2529993D02*
X4282325Y2572326D01*
X4239992Y2551159D02*
X4282325Y2572326D01*
X4197659D02*
X4239992Y2551159D01*
X4197659Y2572326D02*
X4218825Y2529993D01*
X4197659Y2487660D02*
X4218825Y2529993D01*
X4197659Y2607660D02*
X4239992Y2628826D01*
X4282325Y2607660D01*
X4261159Y2649993D02*
X4282325Y2607660D01*
X4261159Y2649993D02*
X4282325Y2692326D01*
X4239992Y2671159D02*
X4282325Y2692326D01*
X4197659D02*
X4239992Y2671159D01*
X4197659Y2692326D02*
X4218825Y2649993D01*
X4197659Y2607660D02*
X4218825Y2649993D01*
X4317659Y1287662D02*
X4359992Y1308829D01*
X4402325Y1287662D01*
X4381158Y1329995D02*
X4402325Y1287662D01*
X4381158Y1329995D02*
X4402325Y1372328D01*
X4359992Y1351162D02*
X4402325Y1372328D01*
X4317659D02*
X4359992Y1351162D01*
X4317659Y1372328D02*
X4338825Y1329995D01*
X4317659Y1287662D02*
X4338825Y1329995D01*
X4347659Y2547660D02*
X4389992Y2568826D01*
X4432325Y2547660D01*
X4411158Y2589993D02*
X4432325Y2547660D01*
X4411158Y2589993D02*
X4432325Y2632326D01*
X4389992Y2611159D02*
X4432325Y2632326D01*
X4347659D02*
X4389992Y2611159D01*
X4347659Y2632326D02*
X4368825Y2589993D01*
X4347659Y2547660D02*
X4368825Y2589993D01*
X4347659Y2667659D02*
X4389992Y2688826D01*
X4432325Y2667659D01*
X4411158Y2709993D02*
X4432325Y2667659D01*
X4411158Y2709993D02*
X4432325Y2752326D01*
X4389992Y2731159D02*
X4432325Y2752326D01*
X4347659D02*
X4389992Y2731159D01*
X4347659Y2752326D02*
X4368825Y2709993D01*
X4347659Y2667659D02*
X4368825Y2709993D01*
X4347659Y3267658D02*
X4389992Y3288825D01*
X4432325Y3267658D01*
X4411158Y3309991D02*
X4432325Y3267658D01*
X4411158Y3309991D02*
X4432325Y3352325D01*
X4389992Y3331158D02*
X4432325Y3352325D01*
X4347659D02*
X4389992Y3331158D01*
X4347659Y3352325D02*
X4368825Y3309991D01*
X4347659Y3267658D02*
X4368825Y3309991D01*
X4317659Y3327658D02*
X4359992Y3348825D01*
X4402325Y3327658D01*
X4381158Y3369991D02*
X4402325Y3327658D01*
X4381158Y3369991D02*
X4402325Y3412324D01*
X4359992Y3391158D02*
X4402325Y3412324D01*
X4317659D02*
X4359992Y3391158D01*
X4317659Y3412324D02*
X4338825Y3369991D01*
X4317659Y3327658D02*
X4338825Y3369991D01*
X4377659Y2607660D02*
X4419992Y2628826D01*
X4462325Y2607660D01*
X4441158Y2649993D02*
X4462325Y2607660D01*
X4441158Y2649993D02*
X4462325Y2692326D01*
X4419992Y2671159D02*
X4462325Y2692326D01*
X4377659D02*
X4419992Y2671159D01*
X4377659Y2692326D02*
X4398825Y2649993D01*
X4377659Y2607660D02*
X4398825Y2649993D01*
X4377659Y3327658D02*
X4419992Y3348825D01*
X4462325Y3327658D01*
X4441158Y3369991D02*
X4462325Y3327658D01*
X4441158Y3369991D02*
X4462325Y3412324D01*
X4419992Y3391158D02*
X4462325Y3412324D01*
X4377659D02*
X4419992Y3391158D01*
X4377659Y3412324D02*
X4398825Y3369991D01*
X4377659Y3327658D02*
X4398825Y3369991D01*
X2949847Y2222532D02*
X2992180Y2243699D01*
X3034514Y2222532D01*
X3013347Y2264865D02*
X3034514Y2222532D01*
X3013347Y2264865D02*
X3034514Y2307199D01*
X2992180Y2286032D02*
X3034514Y2307199D01*
X2949847D02*
X2992180Y2286032D01*
X2949847Y2307199D02*
X2971014Y2264865D01*
X2949847Y2222532D02*
X2971014Y2264865D01*
X3049877Y2222532D02*
X3092210Y2243699D01*
X3134543Y2222532D01*
X3113377Y2264865D02*
X3134543Y2222532D01*
X3113377Y2264865D02*
X3134543Y2307199D01*
X3092210Y2286032D02*
X3134543Y2307199D01*
X3049877D02*
X3092210Y2286032D01*
X3049877Y2307199D02*
X3071044Y2264865D01*
X3049877Y2222532D02*
X3071044Y2264865D01*
X2774833Y2047714D02*
X2817166Y2068881D01*
X2859499Y2047714D01*
X2838332Y2090047D02*
X2859499Y2047714D01*
X2838332Y2090047D02*
X2859499Y2132380D01*
X2817166Y2111214D02*
X2859499Y2132380D01*
X2774833D02*
X2817166Y2111214D01*
X2774833Y2132380D02*
X2795999Y2090047D01*
X2774833Y2047714D02*
X2795999Y2090047D01*
X2774720Y1897551D02*
X2817054Y1918717D01*
X2859387Y1897551D01*
X2838220Y1939884D02*
X2859387Y1897551D01*
X2838220Y1939884D02*
X2859387Y1982217D01*
X2817054Y1961050D02*
X2859387Y1982217D01*
X2774720D02*
X2817054Y1961050D01*
X2774720Y1982217D02*
X2795887Y1939884D01*
X2774720Y1897551D02*
X2795887Y1939884D01*
X2999966Y1672568D02*
X3042299Y1693734D01*
X3084632Y1672568D01*
X3063465Y1714901D02*
X3084632Y1672568D01*
X3063465Y1714901D02*
X3084632Y1757234D01*
X3042299Y1736068D02*
X3084632Y1757234D01*
X2999966D02*
X3042299Y1736068D01*
X2999966Y1757234D02*
X3021132Y1714901D01*
X2999966Y1672568D02*
X3021132Y1714901D01*
X3099989Y1672734D02*
X3142322Y1693900D01*
X3184655Y1672734D01*
X3163488Y1715067D02*
X3184655Y1672734D01*
X3163488Y1715067D02*
X3184655Y1757400D01*
X3142322Y1736233D02*
X3184655Y1757400D01*
X3099989D02*
X3142322Y1736233D01*
X3099989Y1757400D02*
X3121155Y1715067D01*
X3099989Y1672734D02*
X3121155Y1715067D01*
X3149855Y1672538D02*
X3192188Y1693705D01*
X3234522Y1672538D01*
X3213355Y1714871D02*
X3234522Y1672538D01*
X3213355Y1714871D02*
X3234522Y1757205D01*
X3192188Y1736038D02*
X3234522Y1757205D01*
X3149855D02*
X3192188Y1736038D01*
X3149855Y1757205D02*
X3171022Y1714871D01*
X3149855Y1672538D02*
X3171022Y1714871D01*
X3199847Y1672639D02*
X3242180Y1693806D01*
X3284513Y1672639D01*
X3263347Y1714972D02*
X3284513Y1672639D01*
X3263347Y1714972D02*
X3284513Y1757305D01*
X3242180Y1736139D02*
X3284513Y1757305D01*
X3199847D02*
X3242180Y1736139D01*
X3199847Y1757305D02*
X3221013Y1714972D01*
X3199847Y1672639D02*
X3221013Y1714972D01*
X3324999Y1797537D02*
X3367332Y1818704D01*
X3409666Y1797537D01*
X3388499Y1839870D02*
X3409666Y1797537D01*
X3388499Y1839870D02*
X3409666Y1882203D01*
X3367332Y1861037D02*
X3409666Y1882203D01*
X3324999D02*
X3367332Y1861037D01*
X3324999Y1882203D02*
X3346166Y1839870D01*
X3324999Y1797537D02*
X3346166Y1839870D01*
X3197665Y3377663D02*
X3239999Y3398829D01*
X3282332Y3377663D01*
X3261165Y3419996D02*
X3282332Y3377663D01*
X3261165Y3419996D02*
X3282332Y3462329D01*
X3239999Y3441162D02*
X3282332Y3462329D01*
X3197665D02*
X3239999Y3441162D01*
X3197665Y3462329D02*
X3218832Y3419996D01*
X3197665Y3377663D02*
X3218832Y3419996D01*
X3192665Y3327662D02*
X3234999Y3348829D01*
X3277332Y3327662D01*
X3256165Y3369996D02*
X3277332Y3327662D01*
X3256165Y3369996D02*
X3277332Y3412329D01*
X3234999Y3391162D02*
X3277332Y3412329D01*
X3192665D02*
X3234999Y3391162D01*
X3192665Y3412329D02*
X3213832Y3369996D01*
X3192665Y3327662D02*
X3213832Y3369996D01*
X3202665Y3077663D02*
X3244999Y3098829D01*
X3287332Y3077663D01*
X3266165Y3119996D02*
X3287332Y3077663D01*
X3266165Y3119996D02*
X3287332Y3162329D01*
X3244999Y3141162D02*
X3287332Y3162329D01*
X3202665D02*
X3244999Y3141162D01*
X3202665Y3162329D02*
X3223832Y3119996D01*
X3202665Y3077663D02*
X3223832Y3119996D01*
X3202665Y3177662D02*
X3244999Y3198829D01*
X3287332Y3177662D01*
X3266165Y3219996D02*
X3287332Y3177662D01*
X3266165Y3219996D02*
X3287332Y3262329D01*
X3244999Y3241162D02*
X3287332Y3262329D01*
X3202665D02*
X3244999Y3241162D01*
X3202665Y3262329D02*
X3223832Y3219996D01*
X3202665Y3177662D02*
X3223832Y3219996D01*
X3362665Y3187662D02*
X3404999Y3208829D01*
X3447332Y3187662D01*
X3426165Y3229996D02*
X3447332Y3187662D01*
X3426165Y3229996D02*
X3447332Y3272329D01*
X3404999Y3251162D02*
X3447332Y3272329D01*
X3362665D02*
X3404999Y3251162D01*
X3362665Y3272329D02*
X3383832Y3229996D01*
X3362665Y3187662D02*
X3383832Y3229996D01*
X3081808Y2936747D02*
X3124141Y2957914D01*
X3166474Y2936747D01*
X3145308Y2979080D02*
X3166474Y2936747D01*
X3145308Y2979080D02*
X3166474Y3021413D01*
X3124141Y3000247D02*
X3166474Y3021413D01*
X3081808D02*
X3124141Y3000247D01*
X3081808Y3021413D02*
X3102974Y2979080D01*
X3081808Y2936747D02*
X3102974Y2979080D01*
X2907041Y3111417D02*
X2949375Y3132583D01*
X2991708Y3111417D01*
X2970541Y3153750D02*
X2991708Y3111417D01*
X2970541Y3153750D02*
X2991708Y3196083D01*
X2949375Y3174916D02*
X2991708Y3196083D01*
X2907041D02*
X2949375Y3174916D01*
X2907041Y3196083D02*
X2928208Y3153750D01*
X2907041Y3111417D02*
X2928208Y3153750D01*
X2966776Y3102015D02*
X3009109Y3123182D01*
X3051442Y3102015D01*
X3030276Y3144349D02*
X3051442Y3102015D01*
X3030276Y3144349D02*
X3051442Y3186682D01*
X3009109Y3165515D02*
X3051442Y3186682D01*
X2966776D02*
X3009109Y3165515D01*
X2966776Y3186682D02*
X2987943Y3144349D01*
X2966776Y3102015D02*
X2987943Y3144349D01*
X2906029Y3165655D02*
X2948362Y3186822D01*
X2990695Y3165655D01*
X2969529Y3207988D02*
X2990695Y3165655D01*
X2969529Y3207988D02*
X2990695Y3250321D01*
X2948362Y3229155D02*
X2990695Y3250321D01*
X2906029D02*
X2948362Y3229155D01*
X2906029Y3250321D02*
X2927196Y3207988D01*
X2906029Y3165655D02*
X2927196Y3207988D01*
X2877665Y3207805D02*
X2919998Y3228972D01*
X2962332Y3207805D01*
X2941165Y3250139D02*
X2962332Y3207805D01*
X2941165Y3250139D02*
X2962332Y3292472D01*
X2919998Y3271305D02*
X2962332Y3292472D01*
X2877665D02*
X2919998Y3271305D01*
X2877665Y3292472D02*
X2898832Y3250139D01*
X2877665Y3207805D02*
X2898832Y3250139D01*
X2881853Y3278523D02*
X2924186Y3299690D01*
X2966519Y3278523D01*
X2945352Y3320856D02*
X2966519Y3278523D01*
X2945352Y3320856D02*
X2966519Y3363190D01*
X2924186Y3342023D02*
X2966519Y3363190D01*
X2881853D02*
X2924186Y3342023D01*
X2881853Y3363190D02*
X2903019Y3320856D01*
X2881853Y3278523D02*
X2903019Y3320856D01*
X2880295Y3323635D02*
X2922628Y3344802D01*
X2964961Y3323635D01*
X2943794Y3365968D02*
X2964961Y3323635D01*
X2943794Y3365968D02*
X2964961Y3408302D01*
X2922628Y3387135D02*
X2964961Y3408302D01*
X2880295D02*
X2922628Y3387135D01*
X2880295Y3408302D02*
X2901461Y3365968D01*
X2880295Y3323635D02*
X2901461Y3365968D01*
X2997440Y3395474D02*
X3039773Y3416641D01*
X3082106Y3395474D01*
X3060940Y3437807D02*
X3082106Y3395474D01*
X3060940Y3437807D02*
X3082106Y3480140D01*
X3039773Y3458974D02*
X3082106Y3480140D01*
X2997440D02*
X3039773Y3458974D01*
X2997440Y3480140D02*
X3018607Y3437807D01*
X2997440Y3395474D02*
X3018607Y3437807D01*
X2948423Y3395474D02*
X2990757Y3416641D01*
X3033090Y3395474D01*
X3011923Y3437807D02*
X3033090Y3395474D01*
X3011923Y3437807D02*
X3033090Y3480140D01*
X2990757Y3458974D02*
X3033090Y3480140D01*
X2948423D02*
X2990757Y3458974D01*
X2948423Y3480140D02*
X2969590Y3437807D01*
X2948423Y3395474D02*
X2969590Y3437807D01*
X2897399Y3396050D02*
X2939732Y3417217D01*
X2982065Y3396050D01*
X2960898Y3438383D02*
X2982065Y3396050D01*
X2960898Y3438383D02*
X2982065Y3480716D01*
X2939732Y3459550D02*
X2982065Y3480716D01*
X2897399D02*
X2939732Y3459550D01*
X2897399Y3480716D02*
X2918565Y3438383D01*
X2897399Y3396050D02*
X2918565Y3438383D01*
X2862297Y3367729D02*
X2904630Y3388896D01*
X2946963Y3367729D01*
X2925797Y3410062D02*
X2946963Y3367729D01*
X2925797Y3410062D02*
X2946963Y3452395D01*
X2904630Y3431229D02*
X2946963Y3452395D01*
X2862297D02*
X2904630Y3431229D01*
X2862297Y3452395D02*
X2883463Y3410062D01*
X2862297Y3367729D02*
X2883463Y3410062D01*
X3152394Y3054933D02*
X3194727Y3076100D01*
X3237061Y3054933D01*
X3215894Y3097267D02*
X3237061Y3054933D01*
X3215894Y3097267D02*
X3237061Y3139600D01*
X3194727Y3118433D02*
X3237061Y3139600D01*
X3152394D02*
X3194727Y3118433D01*
X3152394Y3139600D02*
X3173561Y3097267D01*
X3152394Y3054933D02*
X3173561Y3097267D01*
X3217950Y3034816D02*
X3260283Y3055983D01*
X3302616Y3034816D01*
X3281450Y3077149D02*
X3302616Y3034816D01*
X3281450Y3077149D02*
X3302616Y3119482D01*
X3260283Y3098316D02*
X3302616Y3119482D01*
X3217950D02*
X3260283Y3098316D01*
X3217950Y3119482D02*
X3239116Y3077149D01*
X3217950Y3034816D02*
X3239116Y3077149D01*
X2182667Y3770000D02*
X2225000Y3727667D01*
X2267333Y3770000D01*
X2225000Y3812333D02*
X2267333Y3770000D01*
X2182667D02*
X2225000Y3812333D01*
X2032667Y3770000D02*
X2075000Y3727667D01*
X2117333Y3770000D01*
X2075000Y3812333D02*
X2117333Y3770000D01*
X2032667D02*
X2075000Y3812333D01*
X2082667Y3770000D02*
X2125000Y3727667D01*
X2167333Y3770000D01*
X2125000Y3812333D02*
X2167333Y3770000D01*
X2082667D02*
X2125000Y3812333D01*
X2132667Y3770000D02*
X2175000Y3727667D01*
X2217333Y3770000D01*
X2175000Y3812333D02*
X2217333Y3770000D01*
X2132667D02*
X2175000Y3812333D01*
X3932667Y3770000D02*
X3975000Y3727667D01*
X4017333Y3770000D01*
X3975000Y3812333D02*
X4017333Y3770000D01*
X3932667D02*
X3975000Y3812333D01*
X3882667Y3770000D02*
X3925000Y3727667D01*
X3967333Y3770000D01*
X3925000Y3812333D02*
X3967333Y3770000D01*
X3882667D02*
X3925000Y3812333D01*
X3832667Y3770000D02*
X3875000Y3727667D01*
X3917333Y3770000D01*
X3875000Y3812333D02*
X3917333Y3770000D01*
X3832667D02*
X3875000Y3812333D01*
X3982667Y3770000D02*
X4025000Y3727667D01*
X4067333Y3770000D01*
X4025000Y3812333D02*
X4067333Y3770000D01*
X3982667D02*
X4025000Y3812333D01*
X4479667Y2675000D02*
X4522000Y2632667D01*
X4564333Y2675000D01*
X4522000Y2717333D02*
X4564333Y2675000D01*
X4479667D02*
X4522000Y2717333D01*
X4479667Y2725000D02*
X4522000Y2682667D01*
X4564333Y2725000D01*
X4522000Y2767333D02*
X4564333Y2725000D01*
X4479667D02*
X4522000Y2767333D01*
X4479667Y2775000D02*
X4522000Y2732667D01*
X4564333Y2775000D01*
X4522000Y2817333D02*
X4564333Y2775000D01*
X4479667D02*
X4522000Y2817333D01*
X4479667Y2625000D02*
X4522000Y2582667D01*
X4564333Y2625000D01*
X4522000Y2667333D02*
X4564333Y2625000D01*
X4479667D02*
X4522000Y2667333D01*
X3882667Y1230000D02*
X3925000Y1187667D01*
X3967333Y1230000D01*
X3925000Y1272333D02*
X3967333Y1230000D01*
X3882667D02*
X3925000Y1272333D01*
X3932667Y1230000D02*
X3975000Y1187667D01*
X4017333Y1230000D01*
X3975000Y1272333D02*
X4017333Y1230000D01*
X3932667D02*
X3975000Y1272333D01*
X3982667Y1230000D02*
X4025000Y1187667D01*
X4067333Y1230000D01*
X4025000Y1272333D02*
X4067333Y1230000D01*
X3982667D02*
X4025000Y1272333D01*
X3832667Y1230000D02*
X3875000Y1187667D01*
X3917333Y1230000D01*
X3875000Y1272333D02*
X3917333Y1230000D01*
X3832667D02*
X3875000Y1272333D01*
X2082667Y1230000D02*
X2125000Y1187667D01*
X2167333Y1230000D01*
X2125000Y1272333D02*
X2167333Y1230000D01*
X2082667D02*
X2125000Y1272333D01*
X2132667Y1230000D02*
X2175000Y1187667D01*
X2217333Y1230000D01*
X2175000Y1272333D02*
X2217333Y1230000D01*
X2132667D02*
X2175000Y1272333D01*
X2182667Y1230000D02*
X2225000Y1187667D01*
X2267333Y1230000D01*
X2225000Y1272333D02*
X2267333Y1230000D01*
X2182667D02*
X2225000Y1272333D01*
X2032667Y1230000D02*
X2075000Y1187667D01*
X2117333Y1230000D01*
X2075000Y1272333D02*
X2117333Y1230000D01*
X2032667D02*
X2075000Y1272333D01*
D170*
X-925950Y6738050D02*
X32369193D01*
X-925950Y5595050D02*
X32369193D01*
X-925950Y5214050D02*
X32369193D01*
Y7119050D01*
X-925950D02*
X32369193D01*
X-925950Y5214050D02*
Y7119050D01*
X28806589Y5214050D02*
Y7119050D01*
X26607562Y5214050D02*
Y7119050D01*
X23220197Y5214050D02*
Y7119050D01*
X19832832Y5214050D02*
Y7119050D01*
X17664275Y5214050D02*
Y7119050D01*
X16013708Y5214050D02*
Y7119050D01*
X13245914Y5214050D02*
Y7119050D01*
X11747698Y5214050D02*
Y7119050D01*
X7938840Y5214050D02*
Y7119050D01*
X6074983Y5214050D02*
Y7119050D01*
X4790058Y5214050D02*
Y7119050D01*
X1996872Y5214050D02*
Y7119050D01*
X473274Y5214050D02*
Y7119050D01*
D171*
X28920889Y6852350D02*
Y7035171D01*
X29012299D01*
X29042770Y7004701D01*
Y6943761D01*
X29012299Y6913290D01*
X28920889D01*
X28981830D02*
X29042770Y6852350D01*
X29134180D02*
X29195120D01*
X29225592Y6882820D01*
Y6943761D01*
X29195120Y6974231D01*
X29134180D01*
X29103711Y6943761D01*
Y6882820D01*
X29134180Y6852350D01*
X29286530Y6974231D02*
Y6882820D01*
X29317001Y6852350D01*
X29408411D01*
Y6974231D01*
X29499823Y7004701D02*
Y6974231D01*
X29469351D01*
X29530292D01*
X29499823D01*
Y6882820D01*
X29530292Y6852350D01*
X29713113D02*
X29652173D01*
X29621704Y6882820D01*
Y6943761D01*
X29652173Y6974231D01*
X29713113D01*
X29743582Y6943761D01*
Y6913290D01*
X29621704D01*
X29926404Y7035171D02*
Y6852350D01*
X29834995D01*
X29804523Y6882820D01*
Y6943761D01*
X29834995Y6974231D01*
X29926404D01*
X30170166Y6852350D02*
Y7035171D01*
X30261575D01*
X30292047Y7004701D01*
Y6943761D01*
X30261575Y6913290D01*
X30170166D01*
X30383456Y6974231D02*
X30444397D01*
X30474866Y6943761D01*
Y6852350D01*
X30383456D01*
X30352985Y6882820D01*
X30383456Y6913290D01*
X30474866D01*
X30566278Y7004701D02*
Y6974231D01*
X30535806D01*
X30596747D01*
X30566278D01*
Y6882820D01*
X30596747Y6852350D01*
X30688159Y7035171D02*
Y6852350D01*
Y6943761D01*
X30718628Y6974231D01*
X30779568D01*
X30810037Y6943761D01*
Y6852350D01*
X31053799Y7035171D02*
Y6852350D01*
X31175681D01*
X31328030D02*
X31267090D01*
X31236621Y6882820D01*
Y6943761D01*
X31267090Y6974231D01*
X31328030D01*
X31358502Y6943761D01*
Y6913290D01*
X31236621D01*
X31419440Y6852350D02*
Y6974231D01*
X31510852D01*
X31541321Y6943761D01*
Y6852350D01*
X31663202Y6791410D02*
X31693671D01*
X31724142Y6821880D01*
Y6974231D01*
X31632733D01*
X31602261Y6943761D01*
Y6882820D01*
X31632733Y6852350D01*
X31724142D01*
X31815552Y7004701D02*
Y6974231D01*
X31785083D01*
X31846024D01*
X31815552D01*
Y6882820D01*
X31846024Y6852350D01*
X31937433Y7035171D02*
Y6852350D01*
Y6943761D01*
X31967902Y6974231D01*
X32028845D01*
X32059314Y6943761D01*
Y6852350D01*
X26721860Y7035171D02*
Y6852350D01*
Y6943761D01*
X26843741D01*
Y7035171D01*
Y6852350D01*
X26935153D02*
X26996091D01*
X27026562Y6882820D01*
Y6943761D01*
X26996091Y6974231D01*
X26935153D01*
X26904681Y6943761D01*
Y6882820D01*
X26935153Y6852350D01*
X27087503D02*
X27148444D01*
X27117972D01*
Y7035171D01*
X27087503D01*
X27331265Y6852350D02*
X27270322D01*
X27239853Y6882820D01*
Y6943761D01*
X27270322Y6974231D01*
X27331265D01*
X27361734Y6943761D01*
Y6913290D01*
X27239853D01*
X27605496Y7035171D02*
Y6852350D01*
X27727377D01*
X27879727D02*
X27818787D01*
X27788315Y6882820D01*
Y6943761D01*
X27818787Y6974231D01*
X27879727D01*
X27910196Y6943761D01*
Y6913290D01*
X27788315D01*
X27971136Y6852350D02*
Y6974231D01*
X28062546D01*
X28093018Y6943761D01*
Y6852350D01*
X28214899Y6791410D02*
X28245367D01*
X28275839Y6821880D01*
Y6974231D01*
X28184427D01*
X28153958Y6943761D01*
Y6882820D01*
X28184427Y6852350D01*
X28275839D01*
X28367249Y7004701D02*
Y6974231D01*
X28336777D01*
X28397717D01*
X28367249D01*
Y6882820D01*
X28397717Y6852350D01*
X28489130Y7035171D02*
Y6852350D01*
Y6943761D01*
X28519598Y6974231D01*
X28580539D01*
X28611011Y6943761D01*
Y6852350D01*
X23334497Y7035171D02*
Y6852350D01*
Y6943761D01*
X23456378D01*
Y7035171D01*
Y6852350D01*
X23547787D02*
X23608730D01*
X23639198Y6882820D01*
Y6943761D01*
X23608730Y6974231D01*
X23547787D01*
X23517319Y6943761D01*
Y6882820D01*
X23547787Y6852350D01*
X23700139D02*
X23761079D01*
X23730609D01*
Y7035171D01*
X23700139D01*
X23943900Y6852350D02*
X23882961D01*
X23852490Y6882820D01*
Y6943761D01*
X23882961Y6974231D01*
X23943900D01*
X23974370Y6943761D01*
Y6913290D01*
X23852490D01*
X24218130Y7035171D02*
X24340012D01*
X24279071D01*
Y6852350D01*
X24431422D02*
X24492361D01*
X24522833Y6882820D01*
Y6943761D01*
X24492361Y6974231D01*
X24431422D01*
X24400952Y6943761D01*
Y6882820D01*
X24431422Y6852350D01*
X24583772D02*
X24644713D01*
X24614243D01*
Y7035171D01*
X24583772D01*
X24827534Y6852350D02*
X24766594D01*
X24736124Y6882820D01*
Y6943761D01*
X24766594Y6974231D01*
X24827534D01*
X24858005Y6943761D01*
Y6913290D01*
X24736124D01*
X24918944Y6974231D02*
Y6852350D01*
Y6913290D01*
X24949414Y6943761D01*
X24979884Y6974231D01*
X25010355D01*
X25132236D02*
X25193176D01*
X25223647Y6943761D01*
Y6852350D01*
X25132236D01*
X25101765Y6882820D01*
X25132236Y6913290D01*
X25223647D01*
X25284586Y6852350D02*
Y6974231D01*
X25375996D01*
X25406467Y6943761D01*
Y6852350D01*
X25589287Y6974231D02*
X25497878D01*
X25467407Y6943761D01*
Y6882820D01*
X25497878Y6852350D01*
X25589287D01*
X25741638D02*
X25680698D01*
X25650229Y6882820D01*
Y6943761D01*
X25680698Y6974231D01*
X25741638D01*
X25772107Y6943761D01*
Y6913290D01*
X25650229D01*
X26076810Y6852350D02*
X26015869Y6913290D01*
Y6974231D01*
X26076810Y7035171D01*
X26168219Y6943761D02*
X26290100D01*
X26351041Y6852350D02*
X26411981Y6913290D01*
Y6974231D01*
X26351041Y7035171D01*
X19947133D02*
Y6852350D01*
Y6943761D01*
X20069014D01*
Y7035171D01*
Y6852350D01*
X20160423D02*
X20221365D01*
X20251836Y6882820D01*
Y6943761D01*
X20221365Y6974231D01*
X20160423D01*
X20129955Y6943761D01*
Y6882820D01*
X20160423Y6852350D01*
X20312775D02*
X20373715D01*
X20343245D01*
Y7035171D01*
X20312775D01*
X20556535Y6852350D02*
X20495596D01*
X20465126Y6882820D01*
Y6943761D01*
X20495596Y6974231D01*
X20556535D01*
X20587006Y6943761D01*
Y6913290D01*
X20465126D01*
X20830766Y7035171D02*
X20952647D01*
X20891708D01*
Y6852350D01*
X21044058D02*
X21104999D01*
X21135469Y6882820D01*
Y6943761D01*
X21104999Y6974231D01*
X21044058D01*
X21013588Y6943761D01*
Y6882820D01*
X21044058Y6852350D01*
X21196410D02*
X21257349D01*
X21226878D01*
Y7035171D01*
X21196410D01*
X21440170Y6852350D02*
X21379230D01*
X21348759Y6882820D01*
Y6943761D01*
X21379230Y6974231D01*
X21440170D01*
X21470641Y6943761D01*
Y6913290D01*
X21348759D01*
X21531581Y6974231D02*
Y6852350D01*
Y6913290D01*
X21562051Y6943761D01*
X21592522Y6974231D01*
X21622990D01*
X21744872D02*
X21805812D01*
X21836282Y6943761D01*
Y6852350D01*
X21744872D01*
X21714401Y6882820D01*
X21744872Y6913290D01*
X21836282D01*
X21897221Y6852350D02*
Y6974231D01*
X21988634D01*
X22019102Y6943761D01*
Y6852350D01*
X22201924Y6974231D02*
X22110513D01*
X22080043Y6943761D01*
Y6882820D01*
X22110513Y6852350D01*
X22201924D01*
X22354274D02*
X22293333D01*
X22262865Y6882820D01*
Y6943761D01*
X22293333Y6974231D01*
X22354274D01*
X22384744Y6943761D01*
Y6913290D01*
X22262865D01*
X22689445Y6852350D02*
X22628505Y6913290D01*
Y6974231D01*
X22689445Y7035171D01*
X22780856Y6943761D02*
X22902737D01*
X22841795Y7004701D02*
Y6882820D01*
X22963676Y6852350D02*
X23024617Y6913290D01*
Y6974231D01*
X22963676Y7035171D01*
X17778575D02*
Y6852350D01*
X17869984D01*
X17900455Y6882820D01*
Y7004701D01*
X17869984Y7035171D01*
X17778575D01*
X18052806Y6852350D02*
X17991866D01*
X17961395Y6882820D01*
Y6943761D01*
X17991866Y6974231D01*
X18052806D01*
X18083276Y6943761D01*
Y6913290D01*
X17961395D01*
X18144215Y6852350D02*
X18235628D01*
X18266096Y6882820D01*
X18235628Y6913290D01*
X18174687D01*
X18144215Y6943761D01*
X18174687Y6974231D01*
X18266096D01*
X18448918D02*
X18357507D01*
X18327037Y6943761D01*
Y6882820D01*
X18357507Y6852350D01*
X18448918D01*
X18509859Y6974231D02*
Y6852350D01*
Y6913290D01*
X18540327Y6943761D01*
X18570798Y6974231D01*
X18601270D01*
X18692679Y6852350D02*
X18753619D01*
X18723149D01*
Y6974231D01*
X18692679D01*
X18845030Y6791410D02*
Y6974231D01*
X18936440D01*
X18966910Y6943761D01*
Y6882820D01*
X18936440Y6852350D01*
X18845030D01*
X19058321Y7004701D02*
Y6974231D01*
X19027850D01*
X19088791D01*
X19058321D01*
Y6882820D01*
X19088791Y6852350D01*
X19180202D02*
X19241141D01*
X19210670D01*
Y6974231D01*
X19180202D01*
X19363022Y6852350D02*
X19423962D01*
X19454433Y6882820D01*
Y6943761D01*
X19423962Y6974231D01*
X19363022D01*
X19332552Y6943761D01*
Y6882820D01*
X19363022Y6852350D01*
X19515373D02*
Y6974231D01*
X19606783D01*
X19637253Y6943761D01*
Y6852350D01*
X16128009Y7035171D02*
X16249889D01*
X16188950D01*
Y6852350D01*
X16402240D02*
X16341299D01*
X16310829Y6882820D01*
Y6943761D01*
X16341299Y6974231D01*
X16402240D01*
X16432710Y6943761D01*
Y6913290D01*
X16310829D01*
X16493649Y6852350D02*
Y6974231D01*
X16524120D01*
X16554590Y6943761D01*
Y6852350D01*
Y6943761D01*
X16585062Y6974231D01*
X16615530Y6943761D01*
Y6852350D01*
X16676471Y6791410D02*
Y6974231D01*
X16767882D01*
X16798352Y6943761D01*
Y6882820D01*
X16767882Y6852350D01*
X16676471D01*
X16859293D02*
X16920232D01*
X16889761D01*
Y7035171D01*
X16859293D01*
X17042113Y6974231D02*
X17103053D01*
X17133524Y6943761D01*
Y6852350D01*
X17042113D01*
X17011642Y6882820D01*
X17042113Y6913290D01*
X17133524D01*
X17224934Y7004701D02*
Y6974231D01*
X17194463D01*
X17255405D01*
X17224934D01*
Y6882820D01*
X17255405Y6852350D01*
X17438225D02*
X17377284D01*
X17346814Y6882820D01*
Y6943761D01*
X17377284Y6974231D01*
X17438225D01*
X17468695Y6943761D01*
Y6913290D01*
X17346814D01*
X13360214Y6852350D02*
Y7035171D01*
X13451624D01*
X13482094Y7004701D01*
Y6943761D01*
X13451624Y6913290D01*
X13360214D01*
X13573505Y6974231D02*
X13634445D01*
X13664915Y6943761D01*
Y6852350D01*
X13573505D01*
X13543034Y6882820D01*
X13573505Y6913290D01*
X13664915D01*
X13847736Y7035171D02*
Y6852350D01*
X13756325D01*
X13725854Y6882820D01*
Y6943761D01*
X13756325Y6974231D01*
X13847736D01*
X14213377Y7004701D02*
X14182907Y7035171D01*
X14121967D01*
X14091496Y7004701D01*
Y6974231D01*
X14121967Y6943761D01*
X14182907D01*
X14213377Y6913290D01*
Y6882820D01*
X14182907Y6852350D01*
X14121967D01*
X14091496Y6882820D01*
X14274318Y7035171D02*
Y6852350D01*
Y6943761D01*
X14304788Y6974231D01*
X14365729D01*
X14396198Y6943761D01*
Y6852350D01*
X14487608Y6974231D02*
X14548549D01*
X14579019Y6943761D01*
Y6852350D01*
X14487608D01*
X14457138Y6882820D01*
X14487608Y6913290D01*
X14579019D01*
X14639960Y6791410D02*
Y6974231D01*
X14731371D01*
X14761839Y6943761D01*
Y6882820D01*
X14731371Y6852350D01*
X14639960D01*
X14914191D02*
X14853250D01*
X14822780Y6882820D01*
Y6943761D01*
X14853250Y6974231D01*
X14914191D01*
X14944661Y6943761D01*
Y6913290D01*
X14822780D01*
X11861998Y7035171D02*
Y6913290D01*
X11922938Y6852350D01*
X11983879Y6913290D01*
Y7035171D01*
X12044819Y6852350D02*
X12105759D01*
X12075289D01*
Y6974231D01*
X12044819D01*
X12227640D02*
X12288580D01*
X12319050Y6943761D01*
Y6852350D01*
X12227640D01*
X12197170Y6882820D01*
X12227640Y6913290D01*
X12319050D01*
X12379990Y6852350D02*
X12501871Y6974231D01*
X12562811Y6852350D02*
Y7035171D01*
X12654222D01*
X12684692Y7004701D01*
Y6943761D01*
X12654222Y6913290D01*
X12562811D01*
X12776102Y6974231D02*
X12837044D01*
X12867513Y6943761D01*
Y6852350D01*
X12776102D01*
X12745632Y6882820D01*
X12776102Y6913290D01*
X12867513D01*
X13050334Y7035171D02*
Y6852350D01*
X12958923D01*
X12928453Y6882820D01*
Y6943761D01*
X12958923Y6974231D01*
X13050334D01*
X8053140Y7035171D02*
Y6852350D01*
X8144550D01*
X8175020Y6882820D01*
Y7004701D01*
X8144550Y7035171D01*
X8053140D01*
X8235961Y6974231D02*
Y6852350D01*
Y6913290D01*
X8266431Y6943761D01*
X8296901Y6974231D01*
X8327371D01*
X8418781Y6852350D02*
X8479722D01*
X8449252D01*
Y6974231D01*
X8418781D01*
X8571132Y6852350D02*
X8632072D01*
X8601602D01*
Y7035171D01*
X8571132D01*
X8723483Y6852350D02*
X8784423D01*
X8753953D01*
Y7035171D01*
X8723483D01*
X9058654D02*
Y6852350D01*
X9180535D01*
X9271945Y6974231D02*
X9332886D01*
X9363356Y6943761D01*
Y6852350D01*
X9271945D01*
X9241475Y6882820D01*
X9271945Y6913290D01*
X9363356D01*
X9424296Y6974231D02*
Y6882820D01*
X9454766Y6852350D01*
X9546177D01*
Y6821880D01*
X9515707Y6791410D01*
X9485236D01*
X9546177Y6852350D02*
Y6974231D01*
X9698527Y6852350D02*
X9637587D01*
X9607117Y6882820D01*
Y6943761D01*
X9637587Y6974231D01*
X9698527D01*
X9728998Y6943761D01*
Y6913290D01*
X9607117D01*
X9789938Y6974231D02*
Y6852350D01*
Y6913290D01*
X9820408Y6943761D01*
X9850878Y6974231D01*
X9881348D01*
X10155579Y6852350D02*
Y7035171D01*
X10246990D01*
X10277460Y7004701D01*
Y6943761D01*
X10246990Y6913290D01*
X10155579D01*
X10368870Y6974231D02*
X10429811D01*
X10460281Y6943761D01*
Y6852350D01*
X10368870D01*
X10338400Y6882820D01*
X10368870Y6913290D01*
X10460281D01*
X10521221Y6852350D02*
X10582161D01*
X10551691D01*
Y6974231D01*
X10521221D01*
X10673572D02*
Y6852350D01*
Y6913290D01*
X10704042Y6943761D01*
X10734512Y6974231D01*
X10764982D01*
X6189283Y7035171D02*
Y6852350D01*
Y6943761D01*
X6311163D01*
Y7035171D01*
Y6852350D01*
X6402574D02*
X6463514D01*
X6493984Y6882820D01*
Y6943761D01*
X6463514Y6974231D01*
X6402574D01*
X6372104Y6943761D01*
Y6882820D01*
X6402574Y6852350D01*
X6554924D02*
X6615865D01*
X6585394D01*
Y7035171D01*
X6554924D01*
X6798686Y6852350D02*
X6737745D01*
X6707275Y6882820D01*
Y6943761D01*
X6737745Y6974231D01*
X6798686D01*
X6829156Y6943761D01*
Y6913290D01*
X6707275D01*
X7072917Y7035171D02*
X7194797D01*
X7133857D01*
Y6852350D01*
X7255738Y6974231D02*
Y6882820D01*
X7286208Y6852350D01*
X7377618D01*
Y6821880D01*
X7347148Y6791410D01*
X7316678D01*
X7377618Y6852350D02*
Y6974231D01*
X7438558Y6791410D02*
Y6974231D01*
X7529969D01*
X7560439Y6943761D01*
Y6882820D01*
X7529969Y6852350D01*
X7438558D01*
X7712790D02*
X7651849D01*
X7621379Y6882820D01*
Y6943761D01*
X7651849Y6974231D01*
X7712790D01*
X7743260Y6943761D01*
Y6913290D01*
X7621379D01*
X4904358Y6852350D02*
Y7035171D01*
X4995769D01*
X5026239Y7004701D01*
Y6943761D01*
X4995769Y6913290D01*
X4904358D01*
X5087179Y6852350D02*
X5148119D01*
X5117649D01*
Y7035171D01*
X5087179D01*
X5270000Y6974231D02*
X5330940D01*
X5361410Y6943761D01*
Y6852350D01*
X5270000D01*
X5239530Y6882820D01*
X5270000Y6913290D01*
X5361410D01*
X5452821Y7004701D02*
Y6974231D01*
X5422351D01*
X5483291D01*
X5452821D01*
Y6882820D01*
X5483291Y6852350D01*
X5666112D02*
X5605171D01*
X5574701Y6882820D01*
Y6943761D01*
X5605171Y6974231D01*
X5666112D01*
X5696582Y6943761D01*
Y6913290D01*
X5574701D01*
X5879403Y7035171D02*
Y6852350D01*
X5787992D01*
X5757522Y6882820D01*
Y6943761D01*
X5787992Y6974231D01*
X5879403D01*
X2111172Y7035171D02*
Y6852350D01*
Y6943761D01*
X2233052D01*
Y7035171D01*
Y6852350D01*
X2324463D02*
X2385403D01*
X2415873Y6882820D01*
Y6943761D01*
X2385403Y6974231D01*
X2324463D01*
X2293993Y6943761D01*
Y6882820D01*
X2324463Y6852350D01*
X2476813D02*
X2537754D01*
X2507284D01*
Y7035171D01*
X2476813D01*
X2720575Y6852350D02*
X2659634D01*
X2629164Y6882820D01*
Y6943761D01*
X2659634Y6974231D01*
X2720575D01*
X2751045Y6943761D01*
Y6913290D01*
X2629164D01*
X3116686Y7004701D02*
X3086216Y7035171D01*
X3025276D01*
X2994806Y7004701D01*
Y6974231D01*
X3025276Y6943761D01*
X3086216D01*
X3116686Y6913290D01*
Y6882820D01*
X3086216Y6852350D01*
X3025276D01*
X2994806Y6882820D01*
X3177627Y6852350D02*
X3238567D01*
X3208097D01*
Y6974231D01*
X3177627D01*
X3329977D02*
X3451858D01*
X3329977Y6852350D01*
X3451858D01*
X3604209D02*
X3543268D01*
X3512798Y6882820D01*
Y6943761D01*
X3543268Y6974231D01*
X3604209D01*
X3634679Y6943761D01*
Y6913290D01*
X3512798D01*
X709455Y7004701D02*
X678985Y7035171D01*
X618044D01*
X587574Y7004701D01*
Y6882820D01*
X618044Y6852350D01*
X678985D01*
X709455Y6882820D01*
X800865Y6852350D02*
X861806D01*
X892276Y6882820D01*
Y6943761D01*
X861806Y6974231D01*
X800865D01*
X770395Y6943761D01*
Y6882820D01*
X800865Y6852350D01*
X953216Y6974231D02*
Y6882820D01*
X983686Y6852350D01*
X1075097D01*
Y6974231D01*
X1136037Y6852350D02*
Y6974231D01*
X1227447D01*
X1257917Y6943761D01*
Y6852350D01*
X1349328Y7004701D02*
Y6974231D01*
X1318858D01*
X1379798D01*
X1349328D01*
Y6882820D01*
X1379798Y6852350D01*
X-575469Y7004701D02*
X-605939Y7035171D01*
X-666880D01*
X-697350Y7004701D01*
Y6974231D01*
X-666880Y6943761D01*
X-605939D01*
X-575469Y6913290D01*
Y6882820D01*
X-605939Y6852350D01*
X-666880D01*
X-697350Y6882820D01*
X-514529Y6974231D02*
Y6882820D01*
X-484059Y6852350D01*
X-392648D01*
Y6821880D01*
X-423119Y6791410D01*
X-453589D01*
X-392648Y6852350D02*
Y6974231D01*
X-331708Y6852350D02*
Y6974231D01*
X-301238D01*
X-270768Y6943761D01*
Y6852350D01*
Y6943761D01*
X-240298Y6974231D01*
X-209828Y6943761D01*
Y6852350D01*
X-148887Y7035171D02*
Y6852350D01*
X-57477D01*
X-27007Y6882820D01*
Y6913290D01*
Y6943761D01*
X-57477Y6974231D01*
X-148887D01*
X64403Y6852350D02*
X125344D01*
X155814Y6882820D01*
Y6943761D01*
X125344Y6974231D01*
X64403D01*
X33933Y6943761D01*
Y6882820D01*
X64403Y6852350D01*
X216754D02*
X277694D01*
X247224D01*
Y7035171D01*
X216754D01*
%TF.MD5,59a476bcf7132fe0b3a64e5f734f9c77*%
M02*
