%TF.GenerationSoftware,Altium Limited,Altium Designer,25.2.1 (25)*%
G04 Layer_Color=16711935*
%FSLAX45Y45*%
%MOMM*%
%TF.SameCoordinates,B7DAEB1B-2A83-4E2F-BFC4-A44EEF3E448A*%
%TF.FilePolarity,Negative*%
%TF.FileFunction,Soldermask,Bot*%
%TF.Part,CustomerPanel*%
G01*
G75*
%TA.AperFunction,ConnectorPad*%
G04:AMPARAMS|DCode=58|XSize=2.1mm|YSize=3.9mm|CornerRadius=0.55mm|HoleSize=0mm|Usage=FLASHONLY|Rotation=270.000|XOffset=0mm|YOffset=0mm|HoleType=Round|Shape=RoundedRectangle|*
%AMROUNDEDRECTD58*
21,1,2.10000,2.80000,0,0,270.0*
21,1,1.00000,3.90000,0,0,270.0*
1,1,1.10000,-1.40000,-0.50000*
1,1,1.10000,-1.40000,0.50000*
1,1,1.10000,1.40000,0.50000*
1,1,1.10000,1.40000,-0.50000*
%
%ADD58ROUNDEDRECTD58*%
%TA.AperFunction,SMDPad,CuDef*%
G04:AMPARAMS|DCode=59|XSize=3.28mm|YSize=0.58mm|CornerRadius=0.165mm|HoleSize=0mm|Usage=FLASHONLY|Rotation=0.000|XOffset=0mm|YOffset=0mm|HoleType=Round|Shape=RoundedRectangle|*
%AMROUNDEDRECTD59*
21,1,3.28000,0.25000,0,0,0.0*
21,1,2.95000,0.58000,0,0,0.0*
1,1,0.33000,1.47500,-0.12500*
1,1,0.33000,-1.47500,-0.12500*
1,1,0.33000,-1.47500,0.12500*
1,1,0.33000,1.47500,0.12500*
%
%ADD59ROUNDEDRECTD59*%
%TA.AperFunction,WasherPad*%
G04:AMPARAMS|DCode=60|XSize=0.2032mm|YSize=0.2032mm|CornerRadius=0mm|HoleSize=0mm|Usage=FLASHONLY|Rotation=180.000|XOffset=0mm|YOffset=0mm|HoleType=Round|Shape=RoundedRectangle|*
%AMROUNDEDRECTD60*
21,1,0.20320,0.20320,0,0,180.0*
21,1,0.20320,0.20320,0,0,180.0*
1,1,0.00000,-0.10160,0.10160*
1,1,0.00000,0.10160,0.10160*
1,1,0.00000,0.10160,-0.10160*
1,1,0.00000,-0.10160,-0.10160*
%
%ADD60ROUNDEDRECTD60*%
G04:AMPARAMS|DCode=61|XSize=0.2032mm|YSize=0.2032mm|CornerRadius=0mm|HoleSize=0mm|Usage=FLASHONLY|Rotation=270.000|XOffset=0mm|YOffset=0mm|HoleType=Round|Shape=RoundedRectangle|*
%AMROUNDEDRECTD61*
21,1,0.20320,0.20320,0,0,270.0*
21,1,0.20320,0.20320,0,0,270.0*
1,1,0.00000,-0.10160,-0.10160*
1,1,0.00000,-0.10160,0.10160*
1,1,0.00000,0.10160,0.10160*
1,1,0.00000,0.10160,-0.10160*
%
%ADD61ROUNDEDRECTD61*%
G36*
X1409998Y1689996D02*
X999999D01*
Y3309996D01*
X1409998D01*
Y1689996D01*
D02*
G37*
D58*
X4264997Y2349994D02*
D03*
Y1749995D02*
D03*
D59*
X1299998Y3259994D02*
D03*
Y3019994D02*
D03*
Y3099994D02*
D03*
Y3179994D02*
D03*
Y2859995D02*
D03*
Y2939995D02*
D03*
Y2779995D02*
D03*
Y2699995D02*
D03*
Y2619995D02*
D03*
Y2539995D02*
D03*
Y2459996D02*
D03*
Y2379996D02*
D03*
Y2299996D02*
D03*
Y2219996D02*
D03*
Y2139996D02*
D03*
Y2059996D02*
D03*
Y1979997D02*
D03*
Y1899997D02*
D03*
Y1819997D02*
D03*
Y1739997D02*
D03*
D60*
X5000000Y500000D02*
D03*
Y4500000D02*
D03*
X500000D02*
D03*
Y500000D02*
D03*
X2075000Y1230000D02*
D03*
X2225000D02*
D03*
X2175000D02*
D03*
X2125000D02*
D03*
X3875000D02*
D03*
X4025000D02*
D03*
X3975000D02*
D03*
X3925000D02*
D03*
X4025000Y3770000D02*
D03*
X3875000D02*
D03*
X3925000D02*
D03*
X3975000D02*
D03*
X2175000D02*
D03*
X2125000D02*
D03*
X2075000D02*
D03*
X2225000D02*
D03*
D61*
X4522000Y2625000D02*
D03*
Y2775000D02*
D03*
Y2725000D02*
D03*
Y2675000D02*
D03*
%TF.MD5,204186bf39fe7f13773467f2da58226f*%
M02*
