%TF.GenerationSoftware,Altium Limited,Altium Designer,25.2.1 (25)*%
G04 Layer_Color=255*
%FSLAX45Y45*%
%MOMM*%
%TF.SameCoordinates,B7DAEB1B-2A83-4E2F-BFC4-A44EEF3E448A*%
%TF.FilePolarity,Positive*%
%TF.FileFunction,Pads,Top*%
%TF.Part,CustomerPanel*%
G01*
G75*
%TA.AperFunction,SMDPad,CuDef*%
G04:AMPARAMS|DCode=11|XSize=0.5mm|YSize=0.5mm|CornerRadius=0.125mm|HoleSize=0mm|Usage=FLASHONLY|Rotation=0.000|XOffset=0mm|YOffset=0mm|HoleType=Round|Shape=RoundedRectangle|*
%AMROUNDEDRECTD11*
21,1,0.50000,0.25000,0,0,0.0*
21,1,0.25000,0.50000,0,0,0.0*
1,1,0.25000,0.12500,-0.12500*
1,1,0.25000,-0.12500,-0.12500*
1,1,0.25000,-0.12500,0.12500*
1,1,0.25000,0.12500,0.12500*
%
%ADD11ROUNDEDRECTD11*%
G04:AMPARAMS|DCode=12|XSize=0.6mm|YSize=0.7mm|CornerRadius=0.15mm|HoleSize=0mm|Usage=FLASHONLY|Rotation=270.000|XOffset=0mm|YOffset=0mm|HoleType=Round|Shape=RoundedRectangle|*
%AMROUNDEDRECTD12*
21,1,0.60000,0.40000,0,0,270.0*
21,1,0.30000,0.70000,0,0,270.0*
1,1,0.30000,-0.20000,-0.15000*
1,1,0.30000,-0.20000,0.15000*
1,1,0.30000,0.20000,0.15000*
1,1,0.30000,0.20000,-0.15000*
%
%ADD12ROUNDEDRECTD12*%
G04:AMPARAMS|DCode=13|XSize=0.33mm|YSize=0.7mm|CornerRadius=0.0825mm|HoleSize=0mm|Usage=FLASHONLY|Rotation=0.000|XOffset=0mm|YOffset=0mm|HoleType=Round|Shape=RoundedRectangle|*
%AMROUNDEDRECTD13*
21,1,0.33000,0.53500,0,0,0.0*
21,1,0.16500,0.70000,0,0,0.0*
1,1,0.16500,0.08250,-0.26750*
1,1,0.16500,-0.08250,-0.26750*
1,1,0.16500,-0.08250,0.26750*
1,1,0.16500,0.08250,0.26750*
%
%ADD13ROUNDEDRECTD13*%
%ADD14R,0.33000X0.70000*%
G04:AMPARAMS|DCode=15|XSize=0.6mm|YSize=0.6mm|CornerRadius=0.15mm|HoleSize=0mm|Usage=FLASHONLY|Rotation=270.000|XOffset=0mm|YOffset=0mm|HoleType=Round|Shape=RoundedRectangle|*
%AMROUNDEDRECTD15*
21,1,0.60000,0.30000,0,0,270.0*
21,1,0.30000,0.60000,0,0,270.0*
1,1,0.30000,-0.15000,-0.15000*
1,1,0.30000,-0.15000,0.15000*
1,1,0.30000,0.15000,0.15000*
1,1,0.30000,0.15000,-0.15000*
%
%ADD15ROUNDEDRECTD15*%
%TA.AperFunction,BGAPad,CuDef*%
%ADD16C,0.26000*%
%TA.AperFunction,SMDPad,CuDef*%
G04:AMPARAMS|DCode=17|XSize=4.75mm|YSize=4.75mm|CornerRadius=0.2375mm|HoleSize=0mm|Usage=FLASHONLY|Rotation=0.000|XOffset=0mm|YOffset=0mm|HoleType=Round|Shape=RoundedRectangle|*
%AMROUNDEDRECTD17*
21,1,4.75000,4.27500,0,0,0.0*
21,1,4.27500,4.75000,0,0,0.0*
1,1,0.47500,2.13750,-2.13750*
1,1,0.47500,-2.13750,-2.13750*
1,1,0.47500,-2.13750,2.13750*
1,1,0.47500,2.13750,2.13750*
%
%ADD17ROUNDEDRECTD17*%
G04:AMPARAMS|DCode=18|XSize=0.6mm|YSize=0.6mm|CornerRadius=0.15mm|HoleSize=0mm|Usage=FLASHONLY|Rotation=0.000|XOffset=0mm|YOffset=0mm|HoleType=Round|Shape=RoundedRectangle|*
%AMROUNDEDRECTD18*
21,1,0.60000,0.30000,0,0,0.0*
21,1,0.30000,0.60000,0,0,0.0*
1,1,0.30000,0.15000,-0.15000*
1,1,0.30000,-0.15000,-0.15000*
1,1,0.30000,-0.15000,0.15000*
1,1,0.30000,0.15000,0.15000*
%
%ADD18ROUNDEDRECTD18*%
G04:AMPARAMS|DCode=19|XSize=0.6mm|YSize=0.7mm|CornerRadius=0.15mm|HoleSize=0mm|Usage=FLASHONLY|Rotation=0.000|XOffset=0mm|YOffset=0mm|HoleType=Round|Shape=RoundedRectangle|*
%AMROUNDEDRECTD19*
21,1,0.60000,0.40000,0,0,0.0*
21,1,0.30000,0.70000,0,0,0.0*
1,1,0.30000,0.15000,-0.20000*
1,1,0.30000,-0.15000,-0.20000*
1,1,0.30000,-0.15000,0.20000*
1,1,0.30000,0.15000,0.20000*
%
%ADD19ROUNDEDRECTD19*%
G04:AMPARAMS|DCode=20|XSize=0.8mm|YSize=1.35mm|CornerRadius=0.2mm|HoleSize=0mm|Usage=FLASHONLY|Rotation=90.000|XOffset=0mm|YOffset=0mm|HoleType=Round|Shape=RoundedRectangle|*
%AMROUNDEDRECTD20*
21,1,0.80000,0.95000,0,0,90.0*
21,1,0.40000,1.35000,0,0,90.0*
1,1,0.40000,0.47500,0.20000*
1,1,0.40000,0.47500,-0.20000*
1,1,0.40000,-0.47500,-0.20000*
1,1,0.40000,-0.47500,0.20000*
%
%ADD20ROUNDEDRECTD20*%
%TA.AperFunction,BGAPad,CuDef*%
%ADD21C,0.25000*%
%TA.AperFunction,ConnectorPad*%
G04:AMPARAMS|DCode=22|XSize=1mm|YSize=3.8mm|CornerRadius=0.25mm|HoleSize=0mm|Usage=FLASHONLY|Rotation=270.000|XOffset=0mm|YOffset=0mm|HoleType=Round|Shape=RoundedRectangle|*
%AMROUNDEDRECTD22*
21,1,1.00000,3.30000,0,0,270.0*
21,1,0.50000,3.80000,0,0,270.0*
1,1,0.50000,-1.65000,-0.25000*
1,1,0.50000,-1.65000,0.25000*
1,1,0.50000,1.65000,0.25000*
1,1,0.50000,1.65000,-0.25000*
%
%ADD22ROUNDEDRECTD22*%
G04:AMPARAMS|DCode=23|XSize=2mm|YSize=3.8mm|CornerRadius=0.5mm|HoleSize=0mm|Usage=FLASHONLY|Rotation=270.000|XOffset=0mm|YOffset=0mm|HoleType=Round|Shape=RoundedRectangle|*
%AMROUNDEDRECTD23*
21,1,2.00000,2.80000,0,0,270.0*
21,1,1.00000,3.80000,0,0,270.0*
1,1,1.00000,-1.40000,-0.50000*
1,1,1.00000,-1.40000,0.50000*
1,1,1.00000,1.40000,0.50000*
1,1,1.00000,1.40000,-0.50000*
%
%ADD23ROUNDEDRECTD23*%
%TA.AperFunction,SMDPad,CuDef*%
G04:AMPARAMS|DCode=24|XSize=0.8mm|YSize=0.8mm|CornerRadius=0.2mm|HoleSize=0mm|Usage=FLASHONLY|Rotation=270.000|XOffset=0mm|YOffset=0mm|HoleType=Round|Shape=RoundedRectangle|*
%AMROUNDEDRECTD24*
21,1,0.80000,0.40000,0,0,270.0*
21,1,0.40000,0.80000,0,0,270.0*
1,1,0.40000,-0.20000,-0.20000*
1,1,0.40000,-0.20000,0.20000*
1,1,0.40000,0.20000,0.20000*
1,1,0.40000,0.20000,-0.20000*
%
%ADD24ROUNDEDRECTD24*%
%ADD25R,0.80000X0.80000*%
G04:AMPARAMS|DCode=26|XSize=0.75mm|YSize=0.65mm|CornerRadius=0.1625mm|HoleSize=0mm|Usage=FLASHONLY|Rotation=0.000|XOffset=0mm|YOffset=0mm|HoleType=Round|Shape=RoundedRectangle|*
%AMROUNDEDRECTD26*
21,1,0.75000,0.32500,0,0,0.0*
21,1,0.42500,0.65000,0,0,0.0*
1,1,0.32500,0.21250,-0.16250*
1,1,0.32500,-0.21250,-0.16250*
1,1,0.32500,-0.21250,0.16250*
1,1,0.32500,0.21250,0.16250*
%
%ADD26ROUNDEDRECTD26*%
%ADD27R,1.10000X1.10000*%
G04:AMPARAMS|DCode=28|XSize=1.1mm|YSize=1.1mm|CornerRadius=0.275mm|HoleSize=0mm|Usage=FLASHONLY|Rotation=270.000|XOffset=0mm|YOffset=0mm|HoleType=Round|Shape=RoundedRectangle|*
%AMROUNDEDRECTD28*
21,1,1.10000,0.55000,0,0,270.0*
21,1,0.55000,1.10000,0,0,270.0*
1,1,0.55000,-0.27500,-0.27500*
1,1,0.55000,-0.27500,0.27500*
1,1,0.55000,0.27500,0.27500*
1,1,0.55000,0.27500,-0.27500*
%
%ADD28ROUNDEDRECTD28*%
%ADD29R,0.75000X0.23000*%
G04:AMPARAMS|DCode=30|XSize=0.23mm|YSize=0.75mm|CornerRadius=0.0575mm|HoleSize=0mm|Usage=FLASHONLY|Rotation=90.000|XOffset=0mm|YOffset=0mm|HoleType=Round|Shape=RoundedRectangle|*
%AMROUNDEDRECTD30*
21,1,0.23000,0.63500,0,0,90.0*
21,1,0.11500,0.75000,0,0,90.0*
1,1,0.11500,0.31750,0.05750*
1,1,0.11500,0.31750,-0.05750*
1,1,0.11500,-0.31750,-0.05750*
1,1,0.11500,-0.31750,0.05750*
%
%ADD30ROUNDEDRECTD30*%
G04:AMPARAMS|DCode=31|XSize=0.23mm|YSize=0.75mm|CornerRadius=0.0575mm|HoleSize=0mm|Usage=FLASHONLY|Rotation=0.000|XOffset=0mm|YOffset=0mm|HoleType=Round|Shape=RoundedRectangle|*
%AMROUNDEDRECTD31*
21,1,0.23000,0.63500,0,0,0.0*
21,1,0.11500,0.75000,0,0,0.0*
1,1,0.11500,0.05750,-0.31750*
1,1,0.11500,-0.05750,-0.31750*
1,1,0.11500,-0.05750,0.31750*
1,1,0.11500,0.05750,0.31750*
%
%ADD31ROUNDEDRECTD31*%
G04:AMPARAMS|DCode=32|XSize=1.5mm|YSize=1.5mm|CornerRadius=0.375mm|HoleSize=0mm|Usage=FLASHONLY|Rotation=0.000|XOffset=0mm|YOffset=0mm|HoleType=Round|Shape=RoundedRectangle|*
%AMROUNDEDRECTD32*
21,1,1.50000,0.75000,0,0,0.0*
21,1,0.75000,1.50000,0,0,0.0*
1,1,0.75000,0.37500,-0.37500*
1,1,0.75000,-0.37500,-0.37500*
1,1,0.75000,-0.37500,0.37500*
1,1,0.75000,0.37500,0.37500*
%
%ADD32ROUNDEDRECTD32*%
G04:AMPARAMS|DCode=33|XSize=0.8mm|YSize=1.35mm|CornerRadius=0.2mm|HoleSize=0mm|Usage=FLASHONLY|Rotation=180.000|XOffset=0mm|YOffset=0mm|HoleType=Round|Shape=RoundedRectangle|*
%AMROUNDEDRECTD33*
21,1,0.80000,0.95000,0,0,180.0*
21,1,0.40000,1.35000,0,0,180.0*
1,1,0.40000,-0.20000,0.47500*
1,1,0.40000,0.20000,0.47500*
1,1,0.40000,0.20000,-0.47500*
1,1,0.40000,-0.20000,-0.47500*
%
%ADD33ROUNDEDRECTD33*%
G04:AMPARAMS|DCode=34|XSize=1.65mm|YSize=1.25mm|CornerRadius=0.3125mm|HoleSize=0mm|Usage=FLASHONLY|Rotation=0.000|XOffset=0mm|YOffset=0mm|HoleType=Round|Shape=RoundedRectangle|*
%AMROUNDEDRECTD34*
21,1,1.65000,0.62500,0,0,0.0*
21,1,1.02500,1.25000,0,0,0.0*
1,1,0.62500,0.51250,-0.31250*
1,1,0.62500,-0.51250,-0.31250*
1,1,0.62500,-0.51250,0.31250*
1,1,0.62500,0.51250,0.31250*
%
%ADD34ROUNDEDRECTD34*%
G04:AMPARAMS|DCode=35|XSize=3.2mm|YSize=0.5mm|CornerRadius=0.125mm|HoleSize=0mm|Usage=FLASHONLY|Rotation=0.000|XOffset=0mm|YOffset=0mm|HoleType=Round|Shape=RoundedRectangle|*
%AMROUNDEDRECTD35*
21,1,3.20000,0.25000,0,0,0.0*
21,1,2.95000,0.50000,0,0,0.0*
1,1,0.25000,1.47500,-0.12500*
1,1,0.25000,-1.47500,-0.12500*
1,1,0.25000,-1.47500,0.12500*
1,1,0.25000,1.47500,0.12500*
%
%ADD35ROUNDEDRECTD35*%
D11*
X1819998Y3569996D02*
D03*
D12*
X3725000Y1449995D02*
D03*
X3945000Y1544996D02*
D03*
Y1354993D02*
D03*
D13*
X1819998Y3464996D02*
D03*
X1689996D02*
D03*
Y3664995D02*
D03*
X1754995D02*
D03*
X2160000Y3369995D02*
D03*
X2029997D02*
D03*
Y3569995D02*
D03*
X2094996D02*
D03*
D14*
X1819998Y3664995D02*
D03*
X2160000Y3569995D02*
D03*
D15*
X3874997Y2804997D02*
D03*
X3974997D02*
D03*
X3875001Y2904996D02*
D03*
X3975000D02*
D03*
X2329997Y1969995D02*
D03*
X2229997D02*
D03*
X2664997Y3569995D02*
D03*
X2564997D02*
D03*
X4149998Y1344996D02*
D03*
X4049999D02*
D03*
X2329997Y2369993D02*
D03*
X2229997D02*
D03*
Y2069995D02*
D03*
X2329997D02*
D03*
X2229997Y2269996D02*
D03*
X2329997D02*
D03*
Y2169995D02*
D03*
X2229997D02*
D03*
X4049999Y1444996D02*
D03*
X4149998D02*
D03*
X4264999Y1414995D02*
D03*
X4364999D02*
D03*
X4150000Y1544995D02*
D03*
X4050000D02*
D03*
X1759999Y2894997D02*
D03*
X1659999D02*
D03*
X1759997Y2994998D02*
D03*
X1659997D02*
D03*
X2249997Y1769995D02*
D03*
X2349997D02*
D03*
X2349999Y1669994D02*
D03*
X2250000D02*
D03*
X2350000Y1569996D02*
D03*
X2250000D02*
D03*
X2229997Y1869995D02*
D03*
X2329997D02*
D03*
X2654999Y1734997D02*
D03*
X2554999D02*
D03*
X1659997Y2354996D02*
D03*
X1759997D02*
D03*
X1659997Y2254997D02*
D03*
X1759997D02*
D03*
X1959999Y2424994D02*
D03*
X1859999D02*
D03*
X1959999Y2624996D02*
D03*
X1859999D02*
D03*
X1959997Y2724996D02*
D03*
X1859997D02*
D03*
X1659999Y2574996D02*
D03*
X1759999D02*
D03*
X1760000Y2474994D02*
D03*
X1660000D02*
D03*
X1659997Y2674995D02*
D03*
X1759997D02*
D03*
X1659999Y2774995D02*
D03*
X1759999D02*
D03*
X1959996Y2524994D02*
D03*
X1859997D02*
D03*
X4019999Y2604998D02*
D03*
X4119999D02*
D03*
Y2704998D02*
D03*
X4019999D02*
D03*
X1859999Y2854993D02*
D03*
X1959999D02*
D03*
X2564999Y3469997D02*
D03*
X2664999D02*
D03*
X2579997Y3669998D02*
D03*
X2679996D02*
D03*
X1660000Y3109996D02*
D03*
X1760000D02*
D03*
X3560000Y3364997D02*
D03*
X3460000D02*
D03*
X1659997Y2054996D02*
D03*
X1759997D02*
D03*
X1659998Y2154996D02*
D03*
X1759998D02*
D03*
X3644999Y1634996D02*
D03*
X3544999D02*
D03*
X3644999Y1734996D02*
D03*
X3544999D02*
D03*
X3530001Y1849995D02*
D03*
X3630001D02*
D03*
X3630000Y2269994D02*
D03*
X3530001D02*
D03*
X3625001Y2369993D02*
D03*
X3525001D02*
D03*
X3630001Y1949994D02*
D03*
X3530001D02*
D03*
X3620000Y2054994D02*
D03*
X3720000D02*
D03*
X4010000D02*
D03*
X3910000D02*
D03*
X2554998Y1834998D02*
D03*
X2654998D02*
D03*
X4129997Y3659995D02*
D03*
X4229997D02*
D03*
X4029997D02*
D03*
X3929997D02*
D03*
X1784997Y3359995D02*
D03*
X1684997D02*
D03*
X2365001Y3664994D02*
D03*
X2265001D02*
D03*
X2044999Y3664997D02*
D03*
X2144999D02*
D03*
X2265001Y3554997D02*
D03*
X2365001D02*
D03*
X2264998Y3334993D02*
D03*
X2364998D02*
D03*
X2365001Y3444995D02*
D03*
X2265001D02*
D03*
X3452998Y3129997D02*
D03*
X3552998D02*
D03*
X2689997Y2984994D02*
D03*
X2589997D02*
D03*
X1760000Y1854995D02*
D03*
X1660000D02*
D03*
X1760000Y1954995D02*
D03*
X1660000D02*
D03*
X2504999Y2509996D02*
D03*
X2404999D02*
D03*
X2830001Y3669998D02*
D03*
X2930001D02*
D03*
X3552998Y3229997D02*
D03*
X3452998D02*
D03*
X3460001Y3664997D02*
D03*
X3560001D02*
D03*
X3459998Y3464998D02*
D03*
X3559998D02*
D03*
X3460001Y3564997D02*
D03*
X3560001D02*
D03*
D16*
X2817226Y1939998D02*
D03*
X2967223Y2314993D02*
D03*
X3017226D02*
D03*
X3367228D02*
D03*
X3317225D02*
D03*
X3267228D02*
D03*
X3217225D02*
D03*
X3167228D02*
D03*
X3117226D02*
D03*
X3067228Y1664997D02*
D03*
X2892227Y1714995D02*
D03*
X2992227D02*
D03*
X3042225D02*
D03*
X2817226Y1664997D02*
D03*
X2867224D02*
D03*
X2917226D02*
D03*
X2967223D02*
D03*
X3017226D02*
D03*
X3367228D02*
D03*
X3317225D02*
D03*
X3267228D02*
D03*
X3217225D02*
D03*
X3167228D02*
D03*
X3117226D02*
D03*
X3417225Y1714995D02*
D03*
X3292227D02*
D03*
X3242224D02*
D03*
X3192227D02*
D03*
X3142224D02*
D03*
X3092227D02*
D03*
Y2264996D02*
D03*
X2842225D02*
D03*
X2892227D02*
D03*
X2942225D02*
D03*
X2992227D02*
D03*
X3042225D02*
D03*
X3417225D02*
D03*
X3242224D02*
D03*
X3192227D02*
D03*
X3142224D02*
D03*
X3067228Y2314993D02*
D03*
X2817226Y1739993D02*
D03*
Y1789996D02*
D03*
X2767224Y1814994D02*
D03*
Y1864997D02*
D03*
X2817226Y1889995D02*
D03*
X2767224Y1914994D02*
D03*
Y1964997D02*
D03*
X2817226Y1989995D02*
D03*
X2767224Y2014994D02*
D03*
X2817226Y2039998D02*
D03*
X2767224Y2064996D02*
D03*
X2817226Y2089995D02*
D03*
X2767224Y2114994D02*
D03*
X2817226Y2139997D02*
D03*
Y2189995D02*
D03*
X2767224Y2214994D02*
D03*
Y2264996D02*
D03*
X3367228Y1939998D02*
D03*
Y1789996D02*
D03*
Y1889995D02*
D03*
Y2089995D02*
D03*
Y2139997D02*
D03*
Y2189995D02*
D03*
X3417225Y1814994D02*
D03*
Y1864997D02*
D03*
Y1914994D02*
D03*
Y1964997D02*
D03*
Y2014994D02*
D03*
Y2064996D02*
D03*
Y2164996D02*
D03*
X3367223Y1839998D02*
D03*
X3417225Y1764997D02*
D03*
D17*
X3092227Y1989995D02*
D03*
D18*
X3124998Y2899996D02*
D03*
Y2799996D02*
D03*
X2079998Y1974995D02*
D03*
Y2074995D02*
D03*
X2845001Y1429994D02*
D03*
Y1529993D02*
D03*
X2955001Y1509994D02*
D03*
Y1409994D02*
D03*
X3254998Y1524996D02*
D03*
Y1424997D02*
D03*
X3155001Y1424996D02*
D03*
Y1524996D02*
D03*
X2640000Y1544994D02*
D03*
Y1444994D02*
D03*
X2740001Y1544996D02*
D03*
Y1444996D02*
D03*
X1980000Y1974997D02*
D03*
Y2074997D02*
D03*
X4174999Y2904997D02*
D03*
Y2804997D02*
D03*
X4075000Y2904997D02*
D03*
Y2804997D02*
D03*
X4274998D02*
D03*
Y2904997D02*
D03*
X4374996Y2904996D02*
D03*
Y2804997D02*
D03*
X3574998Y1524994D02*
D03*
Y1424994D02*
D03*
X3354998Y1424995D02*
D03*
Y1524994D02*
D03*
X2794999Y2539993D02*
D03*
Y2439993D02*
D03*
X3054998Y2439996D02*
D03*
Y2539996D02*
D03*
X3264997Y2539997D02*
D03*
Y2439997D02*
D03*
X3815000Y2154994D02*
D03*
Y2054994D02*
D03*
X3530001Y2154994D02*
D03*
Y2054994D02*
D03*
X2454996Y2029995D02*
D03*
Y2129994D02*
D03*
Y2329994D02*
D03*
Y2229995D02*
D03*
X2900000Y2539996D02*
D03*
Y2439996D02*
D03*
X3054998Y1424996D02*
D03*
Y1524995D02*
D03*
X3460001Y1424995D02*
D03*
Y1524995D02*
D03*
X3158532Y2539997D02*
D03*
Y2439997D02*
D03*
X3379999Y2539996D02*
D03*
Y2439996D02*
D03*
X2690001Y2539996D02*
D03*
Y2439996D02*
D03*
X4399999Y3571995D02*
D03*
Y3471995D02*
D03*
X4299999Y3571995D02*
D03*
Y3471995D02*
D03*
X1924996Y3664994D02*
D03*
Y3564995D02*
D03*
Y3354998D02*
D03*
Y3454997D02*
D03*
X3024998Y2899996D02*
D03*
Y2799996D02*
D03*
X2924998Y2899996D02*
D03*
Y2799996D02*
D03*
X3324998Y2884995D02*
D03*
Y2784995D02*
D03*
X3224998Y2899995D02*
D03*
Y2799995D02*
D03*
X1879999Y1974994D02*
D03*
Y2074993D02*
D03*
X3434998Y2899996D02*
D03*
Y2799996D02*
D03*
X2129998Y1449995D02*
D03*
Y1349995D02*
D03*
X2529998Y3179996D02*
D03*
Y3079996D02*
D03*
Y3274996D02*
D03*
Y3374996D02*
D03*
D19*
X1990001Y1654997D02*
D03*
X1895000Y1874997D02*
D03*
X2084997D02*
D03*
D20*
X2662997Y3094994D02*
D03*
Y3334994D02*
D03*
X2594996Y2069995D02*
D03*
Y2309995D02*
D03*
D21*
X2824996Y3519996D02*
D03*
X2874999D02*
D03*
X2924996D02*
D03*
X2974999D02*
D03*
X3025001D02*
D03*
X3074998D02*
D03*
X3125001D02*
D03*
X3174998D02*
D03*
X3225001D02*
D03*
X3274998D02*
D03*
X3325000D02*
D03*
X2824996Y3469994D02*
D03*
X2874999D02*
D03*
X2924996D02*
D03*
X2974999D02*
D03*
X3025001D02*
D03*
X3074998D02*
D03*
X3125001D02*
D03*
X3174998D02*
D03*
X3225001D02*
D03*
X3325000D02*
D03*
X2824996Y3419996D02*
D03*
X2874999D02*
D03*
X3274998D02*
D03*
X3325000D02*
D03*
X2824996Y3369994D02*
D03*
X2874999D02*
D03*
X2974999D02*
D03*
X3025001D02*
D03*
X3074998D02*
D03*
X3125001D02*
D03*
X3174998D02*
D03*
X3274998D02*
D03*
X3325000D02*
D03*
X2824996Y3319996D02*
D03*
X2874999D02*
D03*
X2974999D02*
D03*
X3174998D02*
D03*
X3274998D02*
D03*
X3325000D02*
D03*
X2824996Y3269994D02*
D03*
X2874999D02*
D03*
X2974999D02*
D03*
X3174998D02*
D03*
X3274998D02*
D03*
X3325000D02*
D03*
X2824996Y3219997D02*
D03*
X2874999D02*
D03*
X2974999D02*
D03*
X3174998D02*
D03*
X3274998D02*
D03*
X3325000D02*
D03*
X2824996Y3169994D02*
D03*
X2874999D02*
D03*
X2974999D02*
D03*
X3025001D02*
D03*
X3074998D02*
D03*
X3125001D02*
D03*
X3174998D02*
D03*
X3274998D02*
D03*
X3325000D02*
D03*
X2824996Y3119997D02*
D03*
X2874999D02*
D03*
X3274998D02*
D03*
X3325000D02*
D03*
X2824996Y3069994D02*
D03*
X2874999D02*
D03*
X2924996D02*
D03*
X2974999D02*
D03*
X3025001D02*
D03*
X3074998D02*
D03*
X3125001D02*
D03*
X3174998D02*
D03*
X3225001D02*
D03*
X3325000D02*
D03*
X2824996Y3019997D02*
D03*
X2874999D02*
D03*
X2924996D02*
D03*
X2974999D02*
D03*
X3025001D02*
D03*
X3074998D02*
D03*
X3125001D02*
D03*
X3174998D02*
D03*
X3225001D02*
D03*
X3274998D02*
D03*
X3325000D02*
D03*
X3274998Y3469994D02*
D03*
D22*
X4264997Y2049994D02*
D03*
D23*
Y2349994D02*
D03*
Y1749995D02*
D03*
D24*
X2394997Y2624996D02*
D03*
X4254997Y1529995D02*
D03*
D25*
X2554997Y2624996D02*
D03*
X4414997Y1529995D02*
D03*
D26*
X3485001Y2569993D02*
D03*
X3625001D02*
D03*
Y2469994D02*
D03*
X3485001D02*
D03*
D27*
X1999997Y1399993D02*
D03*
D28*
X1699998D02*
D03*
D29*
X4080001Y3266997D02*
D03*
D30*
Y3216994D02*
D03*
Y3166997D02*
D03*
Y3116994D02*
D03*
X4369998D02*
D03*
Y3166997D02*
D03*
Y3216994D02*
D03*
Y3266997D02*
D03*
D31*
X4149998Y3046997D02*
D03*
X4200000D02*
D03*
X4249998D02*
D03*
X4300000D02*
D03*
Y3336994D02*
D03*
X4249998D02*
D03*
X4200000D02*
D03*
X4149998D02*
D03*
D32*
X4224999Y3191995D02*
D03*
D33*
X4199999Y3511995D02*
D03*
X3960000D02*
D03*
D34*
X3885000Y3054996D02*
D03*
Y3334996D02*
D03*
D35*
X1299998Y1899997D02*
D03*
Y1819997D02*
D03*
Y1979997D02*
D03*
Y1739997D02*
D03*
Y2139996D02*
D03*
Y2059996D02*
D03*
Y2379996D02*
D03*
Y2219996D02*
D03*
Y2619995D02*
D03*
Y2299996D02*
D03*
Y2539995D02*
D03*
Y2459996D02*
D03*
Y2779995D02*
D03*
Y3019994D02*
D03*
Y3099994D02*
D03*
Y3179994D02*
D03*
Y2699995D02*
D03*
Y3259994D02*
D03*
Y2859995D02*
D03*
Y2939995D02*
D03*
%TF.MD5,5bc854a2e0f3101e16781cc292dc5a53*%
M02*
