%TF.GenerationSoftware,Altium Limited,Altium Designer,25.2.1 (25)*%
G04 Layer_Color=0*
%FSLAX45Y45*%
%MOMM*%
%TF.SameCoordinates,B7DAEB1B-2A83-4E2F-BFC4-A44EEF3E448A*%
%TF.FilePolarity,Positive*%
%TF.FileFunction,Profile,NP*%
%TF.Part,CustomerPanel*%
G01*
G75*
%TA.AperFunction,Profile*%
%ADD143C,0.02540*%
G36*
X4135000Y3750000D02*
X4125126D01*
X4106051Y3755111D01*
X4088949Y3764985D01*
X4074985Y3778948D01*
X4065111Y3796051D01*
X4060000Y3815126D01*
Y3834873D01*
X4065111Y3853949D01*
X4074985Y3871051D01*
X4088949Y3885015D01*
X4106051Y3894889D01*
X4125126Y3900000D01*
X4135000D01*
D01*
X4574999Y3900000D01*
X4582386Y3900000D01*
X4596876Y3897118D01*
X4610525Y3891464D01*
X4622809Y3883256D01*
X4633256Y3872810D01*
X4641464Y3860526D01*
X4647117Y3846876D01*
X4650000Y3832387D01*
X4649999Y3825000D01*
X4650000Y3825000D01*
X4650001Y2885000D01*
Y2875126D01*
X4644889Y2856051D01*
X4635015Y2838949D01*
X4621051Y2824985D01*
X4603949Y2815111D01*
X4584874Y2810000D01*
X4565127D01*
X4546051Y2815111D01*
X4528949Y2824985D01*
X4514985Y2838949D01*
X4505111Y2856051D01*
X4500000Y2875126D01*
Y2885000D01*
D01*
X4500000Y3550000D01*
X4499037Y3569603D01*
X4491388Y3608057D01*
X4476384Y3644279D01*
X4454602Y3676878D01*
X4426879Y3704602D01*
X4394280Y3726384D01*
X4358058Y3741388D01*
X4319605Y3749037D01*
X4300001Y3750000D01*
Y3750000D01*
X4135000Y3750000D01*
D02*
G37*
G36*
X2335000D02*
X2325126D01*
X2306051Y3755111D01*
X2288949Y3764985D01*
X2274985Y3778948D01*
X2265111Y3796051D01*
X2260000Y3815126D01*
Y3834873D01*
X2265111Y3853949D01*
X2274985Y3871051D01*
X2288949Y3885015D01*
X2306051Y3894889D01*
X2325126Y3900000D01*
X2335000D01*
D01*
X3765000D01*
X3774874D01*
X3793949Y3894889D01*
X3811051Y3885015D01*
X3825015Y3871051D01*
X3834889Y3853949D01*
X3840000Y3834874D01*
Y3815126D01*
X3834889Y3796051D01*
X3825015Y3778949D01*
X3811051Y3764985D01*
X3793949Y3755111D01*
X3774874Y3750000D01*
X3765000D01*
D01*
X2335000Y3750000D01*
D02*
G37*
G36*
X4135000Y1100000D02*
X4575000Y1100000D01*
X4582387Y1100000D01*
X4596877Y1102882D01*
X4610526Y1108536D01*
X4622810Y1116744D01*
X4633256Y1127190D01*
X4641464Y1139474D01*
X4647118Y1153123D01*
X4650000Y1167613D01*
Y1175000D01*
X4650000Y1175000D01*
X4650000Y2515000D01*
Y2524874D01*
X4644889Y2543949D01*
X4635015Y2561051D01*
X4621051Y2575015D01*
X4603949Y2584889D01*
X4584874Y2590000D01*
X4565126D01*
X4546051Y2584889D01*
X4528949Y2575015D01*
X4514985Y2561051D01*
X4505111Y2543949D01*
X4500000Y2524874D01*
Y2515000D01*
D01*
X4500000Y1450000D01*
X4499037Y1430396D01*
X4491389Y1391943D01*
X4476385Y1355720D01*
X4454603Y1323121D01*
X4426879Y1295398D01*
X4394280Y1273615D01*
X4358058Y1258612D01*
X4319605Y1250963D01*
X4300001Y1250000D01*
X4300001D01*
X4135000Y1250000D01*
X4125126D01*
X4106051Y1244889D01*
X4088949Y1235015D01*
X4074985Y1221051D01*
X4065111Y1203949D01*
X4060000Y1184874D01*
Y1165126D01*
X4065111Y1146051D01*
X4074985Y1128949D01*
X4088949Y1114985D01*
X4106051Y1105111D01*
X4125126Y1100000D01*
X4135000D01*
D01*
D02*
G37*
G36*
X2915000Y1100000D02*
X3765000D01*
X3774874D01*
X3793949Y1105111D01*
X3811051Y1114985D01*
X3825015Y1128949D01*
X3834889Y1146051D01*
X3840000Y1165126D01*
Y1184874D01*
X3834889Y1203949D01*
X3825015Y1221051D01*
X3811051Y1235015D01*
X3793949Y1244889D01*
X3774874Y1250000D01*
X3765000D01*
Y1250001D01*
X2335000Y1250000D01*
X2325126D01*
X2306051Y1244888D01*
X2288949Y1235014D01*
X2274985Y1221051D01*
X2265111Y1203948D01*
X2260000Y1184873D01*
Y1165126D01*
X2265111Y1146051D01*
X2274985Y1128948D01*
X2288949Y1114985D01*
X2306051Y1105111D01*
X2325126Y1100000D01*
X2335000D01*
D01*
X2915000Y1100000D01*
D02*
G37*
G36*
X925000Y1490000D02*
X917613D01*
X903123Y1492882D01*
X889474Y1498535D01*
X877190Y1506743D01*
X866744Y1517190D01*
X858536Y1529474D01*
X852882Y1543123D01*
X850000Y1557613D01*
X850000Y1565000D01*
Y1565000D01*
Y3435000D01*
X850000Y3442387D01*
X852882Y3456876D01*
X858536Y3470525D01*
X866744Y3482809D01*
X877190Y3493256D01*
X889474Y3501464D01*
X903123Y3507117D01*
X917613Y3510000D01*
X925000Y3509999D01*
X925000Y3510000D01*
X1375000Y3510000D01*
X1382351Y3510361D01*
X1396771Y3513229D01*
X1410355Y3518856D01*
X1422580Y3527024D01*
X1432976Y3537420D01*
X1441144Y3549645D01*
X1446771Y3563229D01*
X1449639Y3577648D01*
X1450000Y3585000D01*
X1450000Y3585000D01*
X1450000Y3825000D01*
X1450000Y3832387D01*
X1452882Y3846876D01*
X1458536Y3860526D01*
X1466743Y3872809D01*
X1477190Y3883256D01*
X1489474Y3891464D01*
X1503123Y3897117D01*
X1517613Y3900000D01*
X1525000Y3900000D01*
X1525000Y3900000D01*
X1965000Y3900000D01*
X1974874D01*
X1993949Y3894889D01*
X2011051Y3885015D01*
X2025014Y3871051D01*
X2034888Y3853949D01*
X2040000Y3834874D01*
Y3815126D01*
X2034888Y3796051D01*
X2025014Y3778949D01*
X2011051Y3764985D01*
X1993949Y3755111D01*
X1974874Y3750000D01*
X1965000D01*
D01*
X1700001D01*
X1690200Y3749519D01*
X1670973Y3745694D01*
X1652862Y3738192D01*
X1636562Y3727301D01*
X1622700Y3713439D01*
X1611809Y3697140D01*
X1604307Y3679028D01*
X1600483Y3659802D01*
X1600001Y3650000D01*
D01*
X1600000Y3365000D01*
X1100001Y3364999D01*
X1090199Y3364518D01*
X1070973Y3360694D01*
X1052861Y3353192D01*
X1036562Y3342301D01*
X1022700Y3328439D01*
X1011809Y3312139D01*
X1004307Y3294028D01*
X1000483Y3274801D01*
X1000001Y3265000D01*
Y3265000D01*
Y1735000D01*
X1000483Y1725198D01*
X1004307Y1705971D01*
X1011809Y1687860D01*
X1022700Y1671561D01*
X1036562Y1657699D01*
X1052861Y1646808D01*
X1070973Y1639306D01*
X1090199Y1635481D01*
X1100001Y1635000D01*
D01*
X1600000D01*
Y1350000D01*
X1600482Y1340198D01*
X1604306Y1320971D01*
X1611808Y1302860D01*
X1622700Y1286560D01*
X1636561Y1272698D01*
X1652861Y1261807D01*
X1670973Y1254306D01*
X1690199Y1250481D01*
X1700001Y1250000D01*
X1700001D01*
X1965000D01*
X1974874D01*
X1993949Y1244889D01*
X2011051Y1235015D01*
X2025014Y1221051D01*
X2034888Y1203949D01*
X2040000Y1184874D01*
Y1165126D01*
X2034888Y1146051D01*
X2025014Y1128949D01*
X2011051Y1114985D01*
X1993949Y1105111D01*
X1974874Y1100000D01*
X1965000D01*
D01*
X1489724Y1100000D01*
X1490000Y1100000D01*
X1482613D01*
X1468123Y1102882D01*
X1454474Y1108535D01*
X1442190Y1116743D01*
X1431743Y1127190D01*
X1423536Y1139474D01*
X1417882Y1153123D01*
X1415000Y1167613D01*
X1415000Y1175000D01*
Y1175000D01*
X1414999Y1415000D01*
X1414639Y1422351D01*
X1411770Y1436771D01*
X1406144Y1450355D01*
X1397976Y1462579D01*
X1387579Y1472976D01*
X1375354Y1481144D01*
X1361771Y1486770D01*
X1347351Y1489639D01*
X1340000Y1490000D01*
X1340000Y1490000D01*
X925000Y1490000D01*
D02*
G37*
D143*
X-2Y-5D02*
X5499998D01*
Y4999995D01*
X-2D01*
Y-5D01*
%TF.MD5,f01ab042a9d0915c88fa2aec6c07bd3d*%
M02*
