%TF.GenerationSoftware,Altium Limited,Altium Designer,25.2.1 (25)*%
G04 Layer_Color=32768*
%FSLAX45Y45*%
%MOMM*%
%TF.SameCoordinates,B7DAEB1B-2A83-4E2F-BFC4-A44EEF3E448A*%
%TF.FilePolarity,Positive*%
%TF.FileFunction,Other,Mechanical_15*%
%TF.Part,CustomerPanel*%
G01*
G75*
%TA.AperFunction,NonConductor*%
%ADD62C,0.25400*%
%ADD63C,0.20000*%
%ADD141C,0.10000*%
D62*
X999999Y1073796D02*
Y1226196D01*
X923799Y1149996D02*
X1076199D01*
D63*
X1073321Y1203318D02*
X1039998Y1236641D01*
Y1269963D01*
X1073321Y1303286D01*
X1123305Y1286625D02*
X1139966Y1303286D01*
X1173289D01*
X1189950Y1286625D01*
Y1219980D01*
X1173289Y1203318D01*
X1139966D01*
X1123305Y1219980D01*
Y1286625D01*
X1239934Y1186657D02*
X1256595Y1203318D01*
Y1219980D01*
X1239934D01*
Y1203318D01*
X1256595D01*
X1239934Y1186657D01*
X1223273Y1169996D01*
X1323240Y1286625D02*
X1339902Y1303286D01*
X1373224D01*
X1389885Y1286625D01*
Y1219980D01*
X1373224Y1203318D01*
X1339902D01*
X1323240Y1219980D01*
Y1286625D01*
X1423208Y1203318D02*
X1456531Y1236641D01*
Y1269963D01*
X1423208Y1303286D01*
D141*
X1135000Y1000000D02*
G03*
X1135000Y1000000I-135000J0D01*
G01*
X1045000D02*
G03*
X1045000Y1000000I-45000J0D01*
G01*
X5134998Y4000000D02*
G03*
X5134998Y4000000I-135000J0D01*
G01*
X5044999D02*
G03*
X5044999Y4000000I-45000J0D01*
G01*
X1135000D02*
G03*
X1135000Y4000000I-135000J0D01*
G01*
X1045000D02*
G03*
X1045000Y4000000I-45000J0D01*
G01*
X5134998Y1000000D02*
G03*
X5134998Y1000000I-135000J0D01*
G01*
X5044999D02*
G03*
X5044999Y1000000I-45000J0D01*
G01*
X1000000Y950000D02*
Y1050000D01*
X950000Y1000000D02*
X1050000D01*
X4999998Y3950000D02*
Y4050000D01*
X4949998Y4000000D02*
X5049999D01*
X1000000Y3950000D02*
Y4050000D01*
X950000Y4000000D02*
X1050000D01*
X4999998Y950000D02*
Y1050000D01*
X4949998Y1000000D02*
X5049999D01*
X1322359Y3259996D02*
G03*
X1322359Y3259996I-22361J0D01*
G01*
X3994997Y1289995D02*
Y1379997D01*
X3905000Y1289995D02*
X3994997D01*
X3674998D02*
X3905000D01*
X3994997Y1379997D01*
Y1609994D01*
X3834997Y1399997D02*
Y1499997D01*
X3785000Y1449995D02*
X3885000D01*
X3674998Y1609994D02*
X3994997D01*
X3674998Y1289995D02*
Y1609994D01*
X1634995Y3414993D02*
Y3714993D01*
X1809300D01*
X1634995Y3414993D02*
X1874994D01*
X1809300Y3714993D02*
X1874994Y3649298D01*
Y3414993D02*
Y3649298D01*
X1704997Y3564995D02*
X1804997D01*
X1754995Y3514993D02*
Y3614993D01*
X1874994Y3634993D02*
Y3714993D01*
X1794995D02*
X1874994D01*
X3829999Y2759993D02*
X4020001D01*
Y2849996D01*
X3829999Y2759993D02*
Y2849996D01*
X4020001D01*
X3897497Y2804997D02*
X3952498D01*
X3925000Y2777494D02*
Y2832495D01*
X3829997Y2859997D02*
X4019999D01*
Y2949995D01*
X3829997Y2859997D02*
Y2949995D01*
X4019999D01*
X3897500Y2904996D02*
X3952496D01*
X3924998Y2877498D02*
Y2932494D01*
X3092227Y1939998D02*
Y2039998D01*
X3042225Y1989995D02*
X3142224D01*
X2737226Y1634995D02*
X3447228D01*
X2737226Y2344996D02*
X3447228D01*
Y1634995D02*
Y2344996D01*
X2737226Y1634995D02*
Y2344996D01*
X2184998Y2014994D02*
X2375001D01*
X2184998Y1924996D02*
Y2014994D01*
X2375001Y1924996D02*
Y2014994D01*
X2184998Y1924996D02*
X2375001D01*
X2252496Y1969995D02*
X2307498D01*
X2280000Y1942497D02*
Y1997493D01*
X3097500Y2849999D02*
X3152496D01*
X3124998Y2822495D02*
Y2877497D01*
X3080000Y2754998D02*
Y2944995D01*
Y2754998D02*
X3169997D01*
X3080000Y2944995D02*
X3169997D01*
Y2754998D02*
Y2944995D01*
X2059998Y1924994D02*
X2150001D01*
Y1834997D02*
Y1924994D01*
Y1604995D02*
Y1834997D01*
X2059998Y1924994D02*
X2150001Y1834997D01*
X1829996Y1924994D02*
X2059998D01*
X1939998Y1764995D02*
X2039998D01*
X1990001Y1714997D02*
Y1814997D01*
X1829996Y1604995D02*
Y1924994D01*
Y1604995D02*
X2150001D01*
X2577999Y3044997D02*
X2748001D01*
X2577999Y3384996D02*
X2748001D01*
X2577999Y3044997D02*
Y3384996D01*
X2748001Y3044997D02*
Y3384996D01*
X2662997Y3164997D02*
Y3264997D01*
X2613000Y3214994D02*
X2713000D01*
X3314404Y2962248D02*
X3383598Y3031442D01*
X3074998Y3219997D02*
Y3319996D01*
X3025001Y3269994D02*
X3125001D01*
X2770000Y3574997D02*
X3379997D01*
X2770000Y2964996D02*
X3379997D01*
X2770000D02*
Y3574997D01*
X3379997Y2964996D02*
Y3574997D01*
X1974996Y3319998D02*
Y3619997D01*
X2149306D01*
X1974996Y3319998D02*
X2215001D01*
X2149306Y3619997D02*
X2215001Y3554303D01*
Y3319998D02*
Y3554303D01*
X2044999Y3469995D02*
X2144999D01*
X2094996Y3419997D02*
Y3519997D01*
X2215001Y3539997D02*
Y3619997D01*
X2134996D02*
X2215001D01*
X2519999Y3614994D02*
X2710001D01*
X2519999Y3524996D02*
Y3614994D01*
X2710001Y3524996D02*
Y3614994D01*
X2519999Y3524996D02*
X2710001D01*
X2587496Y3569995D02*
X2642498D01*
X2615000Y3542497D02*
Y3597498D01*
X4099998Y1317496D02*
Y1372496D01*
X4072498Y1344996D02*
X4127498D01*
X4004998Y1389996D02*
X4194998D01*
X4004998Y1299996D02*
Y1389996D01*
X4194998Y1299996D02*
Y1389996D01*
X4004998Y1299996D02*
X4194998D01*
X2052500Y2024998D02*
X2107496D01*
X2079998Y1997495D02*
Y2052496D01*
X2124997Y1929997D02*
Y2119994D01*
X2035000D02*
X2124997D01*
X2035000Y1929997D02*
X2124997D01*
X2035000D02*
Y2119994D01*
X2184999Y2414997D02*
X2375001D01*
X2184999Y2324994D02*
Y2414997D01*
X2375001Y2324994D02*
Y2414997D01*
X2184999Y2324994D02*
X2375001D01*
X2252497Y2369993D02*
X2307498D01*
X2280000Y2342495D02*
Y2397496D01*
Y2042497D02*
Y2097493D01*
X2252497Y2069995D02*
X2307498D01*
X2184999Y2024996D02*
X2375001D01*
Y2114994D01*
X2184999Y2024996D02*
Y2114994D01*
X2375001D01*
X2184999Y2224997D02*
X2375001D01*
Y2314994D01*
X2184999Y2224997D02*
Y2314994D01*
X2375001D01*
X2252497Y2269996D02*
X2307498D01*
X2280000Y2242498D02*
Y2297494D01*
Y2142497D02*
Y2197493D01*
X2252497Y2169995D02*
X2307498D01*
X2184999Y2214994D02*
X2375001D01*
X2184999Y2124997D02*
Y2214994D01*
X2375001Y2124997D02*
Y2214994D01*
X2184999Y2124997D02*
X2375001D01*
X4099998Y1417496D02*
Y1472496D01*
X4072499Y1444996D02*
X4127498D01*
X4004998Y1399996D02*
X4194998D01*
Y1489995D01*
X4004998Y1399996D02*
Y1489995D01*
X4194998D01*
X2889999Y1384995D02*
Y1574997D01*
X2799997D02*
X2889999D01*
X2799997Y1384995D02*
X2889999D01*
X2799997D02*
Y1574997D01*
X2845001Y1452498D02*
Y1507494D01*
X2817498Y1479996D02*
X2872499D01*
X2927498Y1459997D02*
X2982499D01*
X2955001Y1432493D02*
Y1487495D01*
X2909997Y1364995D02*
Y1554998D01*
Y1364995D02*
X3000000D01*
X2909997Y1554998D02*
X3000000D01*
Y1364995D02*
Y1554998D01*
X3227500Y1474994D02*
X3282501D01*
X3254998Y1447496D02*
Y1502497D01*
X3209999Y1379998D02*
Y1569995D01*
Y1379998D02*
X3299996D01*
X3209999Y1569995D02*
X3299996D01*
Y1379998D02*
Y1569995D01*
X3199999Y1379997D02*
Y1569994D01*
X3109997D02*
X3199999D01*
X3109997Y1379997D02*
X3199999D01*
X3109997D02*
Y1569994D01*
X3155001Y1447495D02*
Y1502496D01*
X3127498Y1474998D02*
X3182499D01*
X4314997Y1387497D02*
Y1442498D01*
X4287499Y1414995D02*
X4342500D01*
X4220001Y1369996D02*
X4409998D01*
Y1459993D01*
X4220001Y1369996D02*
Y1459993D01*
X4409998D01*
X4099997Y1517497D02*
Y1572493D01*
X4072499Y1544995D02*
X4127501D01*
X4004996Y1589994D02*
X4194998D01*
X4004996Y1499997D02*
Y1589994D01*
X4194998Y1499997D02*
Y1589994D01*
X4004996Y1499997D02*
X4194998D01*
X1615001Y2939996D02*
X1804998D01*
X1615001Y2849993D02*
Y2939996D01*
X1804998Y2849993D02*
Y2939996D01*
X1615001Y2849993D02*
X1804998D01*
X1682499Y2894997D02*
X1737500D01*
X1709997Y2867494D02*
Y2922495D01*
X2609998Y2605570D02*
Y2684996D01*
X2569424Y2564996D02*
X2609998Y2605570D01*
X2340001Y2564996D02*
X2569424D01*
X2474997Y2579998D02*
Y2669995D01*
X2429998Y2624996D02*
X2520001D01*
X2340001Y2684996D02*
X2609998D01*
X2340001Y2564996D02*
Y2684996D01*
X2609998Y2564996D02*
Y2644996D01*
X2529998Y2564996D02*
X2609998D01*
X1614999Y3039996D02*
X1805001D01*
X1614999Y2949994D02*
Y3039996D01*
X1805001Y2949994D02*
Y3039996D01*
X1614999Y2949994D02*
X1805001D01*
X1682497Y2994998D02*
X1737498D01*
X1710000Y2967495D02*
Y3022496D01*
X2299999Y1742497D02*
Y1797498D01*
X2272496Y1769995D02*
X2327498D01*
X2204998Y1724996D02*
X2395001D01*
Y1814993D01*
X2204998Y1724996D02*
Y1814993D01*
X2395001D01*
X2299997Y1642496D02*
Y1697497D01*
X2272499Y1669994D02*
X2327500D01*
X2205001Y1714993D02*
X2394998D01*
X2205001Y1624996D02*
Y1714993D01*
X2394998Y1624996D02*
Y1714993D01*
X2205001Y1624996D02*
X2394998D01*
X2299998Y1542493D02*
Y1597494D01*
X2272500Y1569996D02*
X2327501D01*
X2204997Y1614995D02*
X2394999D01*
X2204997Y1524997D02*
Y1614995D01*
X2394999Y1524997D02*
Y1614995D01*
X2204997Y1524997D02*
X2394999D01*
X2280000Y1842497D02*
Y1897498D01*
X2252496Y1869995D02*
X2307498D01*
X2184998Y1824996D02*
X2375001D01*
Y1914994D01*
X2184998Y1824996D02*
Y1914994D01*
X2375001D01*
X2604997Y1707493D02*
Y1762495D01*
X2577499Y1734997D02*
X2632500D01*
X2510001Y1779995D02*
X2699998D01*
X2510001Y1689998D02*
Y1779995D01*
X2699998Y1689998D02*
Y1779995D01*
X2510001Y1689998D02*
X2699998D01*
X2612497Y1494996D02*
X2667498D01*
X2640000Y1467498D02*
Y1522494D01*
X2594997Y1399995D02*
Y1589997D01*
Y1399995D02*
X2684999D01*
X2594997Y1589997D02*
X2684999D01*
Y1399995D02*
Y1589997D01*
X2712498Y1494994D02*
X2767499D01*
X2740001Y1467496D02*
Y1522497D01*
X2694997Y1399998D02*
Y1589995D01*
Y1399998D02*
X2785000D01*
X2694997Y1589995D02*
X2785000D01*
Y1399998D02*
Y1589995D01*
X1710000Y2327493D02*
Y2382494D01*
X1682497Y2354996D02*
X1737498D01*
X1614999Y2309997D02*
X1805001D01*
Y2399995D01*
X1614999Y2309997D02*
Y2399995D01*
X1805001D01*
X1710000Y2227494D02*
Y2282495D01*
X1682497Y2254997D02*
X1737498D01*
X1614999Y2209998D02*
X1805001D01*
Y2299995D01*
X1614999Y2209998D02*
Y2299995D01*
X1805001D01*
X1952497Y2024994D02*
X2007498D01*
X1980000Y1997496D02*
Y2052498D01*
X2024999Y1929993D02*
Y2119996D01*
X1934996D02*
X2024999D01*
X1934996Y1929993D02*
X2024999D01*
X1934996D02*
Y2119996D01*
X4147500Y2854994D02*
X4202497D01*
X4174999Y2827496D02*
Y2882497D01*
X4130000Y2759993D02*
Y2949995D01*
Y2759993D02*
X4219997D01*
X4130000Y2949995D02*
X4219997D01*
Y2759993D02*
Y2949995D01*
X4047497Y2854994D02*
X4102499D01*
X4075000Y2827496D02*
Y2882497D01*
X4029997Y2759993D02*
Y2949995D01*
Y2759993D02*
X4119999D01*
X4029997Y2949995D02*
X4119999D01*
Y2759993D02*
Y2949995D01*
X4247500Y2854994D02*
X4302496D01*
X4274998Y2827496D02*
Y2882497D01*
X4319997Y2759993D02*
Y2949995D01*
X4230000D02*
X4319997D01*
X4230000Y2759993D02*
X4319997D01*
X4230000D02*
Y2949995D01*
X1815000Y2469997D02*
X2004998D01*
X1815000Y2379995D02*
Y2469997D01*
X2004998Y2379995D02*
Y2469997D01*
X1815000Y2379995D02*
X2004998D01*
X1882498Y2424994D02*
X1937500D01*
X1909996Y2397496D02*
Y2452497D01*
X1815000Y2669995D02*
X2004998D01*
X1815000Y2579997D02*
Y2669995D01*
X2004998Y2579997D02*
Y2669995D01*
X1815000Y2579997D02*
X2004998D01*
X1882498Y2624996D02*
X1937500D01*
X1909996Y2597498D02*
Y2652494D01*
X1814998Y2769994D02*
X2005001D01*
X1814998Y2679997D02*
Y2769994D01*
X2005001Y2679997D02*
Y2769994D01*
X1814998Y2679997D02*
X2005001D01*
X1882496Y2724996D02*
X1937498D01*
X1909999Y2697498D02*
Y2752494D01*
X1709997Y2547498D02*
Y2602494D01*
X1682499Y2574996D02*
X1737500D01*
X1615001Y2529997D02*
X1804998D01*
Y2619994D01*
X1615001Y2529997D02*
Y2619994D01*
X1804998D01*
X1615001Y2519997D02*
X1804998D01*
X1615001Y2429995D02*
Y2519997D01*
X1804998Y2429995D02*
Y2519997D01*
X1615001Y2429995D02*
X1804998D01*
X1682499Y2474994D02*
X1737500D01*
X1709997Y2447496D02*
Y2502497D01*
X1710000Y2647497D02*
Y2702493D01*
X1682497Y2674995D02*
X1737498D01*
X1614999Y2629997D02*
X1805001D01*
Y2719994D01*
X1614999Y2629997D02*
Y2719994D01*
X1805001D01*
X1709997Y2747497D02*
Y2802498D01*
X1682499Y2774995D02*
X1737500D01*
X1615001Y2729996D02*
X1804998D01*
Y2819994D01*
X1615001Y2729996D02*
Y2819994D01*
X1804998D01*
X1814998Y2569998D02*
X2005000D01*
X1814998Y2479996D02*
Y2569998D01*
X2005000Y2479996D02*
Y2569998D01*
X1814998Y2479996D02*
X2005000D01*
X1882501Y2524994D02*
X1937497D01*
X1909999Y2497496D02*
Y2552497D01*
X4347498Y2854994D02*
X4402499D01*
X4374996Y2827496D02*
Y2882497D01*
X4329998Y2759993D02*
Y2949995D01*
Y2759993D02*
X4420000D01*
X4329998Y2949995D02*
X4420000D01*
Y2759993D02*
Y2949995D01*
X4069997Y2577495D02*
Y2632496D01*
X4042499Y2604998D02*
X4097500D01*
X3975001Y2559994D02*
X4164998D01*
Y2649997D01*
X3975001Y2559994D02*
Y2649997D01*
X4164998D01*
X4069997Y2677495D02*
Y2732496D01*
X4042499Y2704998D02*
X4097500D01*
X3975001Y2749997D02*
X4164998D01*
X3975001Y2659994D02*
Y2749997D01*
X4164998Y2659994D02*
Y2749997D01*
X3975001Y2659994D02*
X4164998D01*
X1909996Y2827495D02*
Y2882496D01*
X1882498Y2854993D02*
X1937500D01*
X1815000Y2809994D02*
X2004998D01*
Y2899997D01*
X1815000Y2809994D02*
Y2899997D01*
X2004998D01*
X2614997Y3442494D02*
Y3497495D01*
X2587499Y3469997D02*
X2642500D01*
X2520001Y3424993D02*
X2709998D01*
Y3514996D01*
X2520001Y3424993D02*
Y3514996D01*
X2709998D01*
X2629999Y3642495D02*
Y3697496D01*
X2602501Y3669998D02*
X2657497D01*
X2534998Y3624994D02*
X2725000D01*
Y3714996D01*
X2534998Y3624994D02*
Y3714996D01*
X2725000D01*
X1709997Y3082493D02*
Y3137494D01*
X1682499Y3109996D02*
X1737500D01*
X1615001Y3064998D02*
X1804998D01*
Y3154995D01*
X1615001Y3064998D02*
Y3154995D01*
X1804998D01*
X3509998Y3337494D02*
Y3392495D01*
X3482500Y3364997D02*
X3537501D01*
X3414996Y3409996D02*
X3604999D01*
X3414996Y3319998D02*
Y3409996D01*
X3604999Y3319998D02*
Y3409996D01*
X3414996Y3319998D02*
X3604999D01*
X3547500Y1474997D02*
X3602501D01*
X3574998Y1447493D02*
Y1502495D01*
X3529999Y1379995D02*
Y1569998D01*
Y1379995D02*
X3619996D01*
X3529999Y1569998D02*
X3619996D01*
Y1379995D02*
Y1569998D01*
X3399997Y1379996D02*
Y1569993D01*
X3309999D02*
X3399997D01*
X3309999Y1379996D02*
X3399997D01*
X3309999D02*
Y1569993D01*
X3354998Y1447494D02*
Y1502495D01*
X3327500Y1474997D02*
X3382496D01*
X1709999Y2027493D02*
Y2082494D01*
X1682501Y2054996D02*
X1737497D01*
X1614998Y2009998D02*
X1805000D01*
Y2099995D01*
X1614998Y2009998D02*
Y2099995D01*
X1805000D01*
X1710001Y2127493D02*
Y2182494D01*
X1682498Y2154996D02*
X1737499D01*
X1615000Y2109998D02*
X1804997D01*
Y2199995D01*
X1615000Y2109998D02*
Y2199995D01*
X1804997D01*
X3594996Y1607498D02*
Y1662499D01*
X3567498Y1634996D02*
X3622499D01*
X3499995Y1679994D02*
X3689997D01*
X3499995Y1589997D02*
Y1679994D01*
X3689997Y1589997D02*
Y1679994D01*
X3499995Y1589997D02*
X3689997D01*
X3594996Y1707493D02*
Y1762494D01*
X3567498Y1734996D02*
X3622499D01*
X3499995Y1779994D02*
X3689997D01*
X3499995Y1689992D02*
Y1779994D01*
X3689997Y1689992D02*
Y1779994D01*
X3499995Y1689992D02*
X3689997D01*
X2839937Y2584997D02*
X2840181Y2394995D01*
X2749904D02*
X2750361Y2584997D01*
X2794999Y2462498D02*
Y2517494D01*
X2767501Y2489996D02*
X2822497D01*
X2750361Y2584997D02*
X2839937D01*
X2749904Y2394995D02*
X2840181D01*
X3027500Y2489994D02*
X3082501D01*
X3054998Y2462496D02*
Y2517497D01*
X3099996Y2394998D02*
Y2584995D01*
X3009999D02*
X3099996D01*
X3009999Y2394998D02*
X3099996D01*
X3009999D02*
Y2584995D01*
X3309934Y2584995D02*
X3310178Y2394993D01*
X3219902D02*
X3220364Y2584995D01*
X3264997Y2462496D02*
Y2517497D01*
X3237499Y2489994D02*
X3292500D01*
X3220364Y2584995D02*
X3309934D01*
X3219902Y2394993D02*
X3310178D01*
X3554998Y2469994D02*
Y2569998D01*
X3505001Y2519996D02*
X3605001D01*
X3439997Y2429994D02*
X3669999D01*
X3439997Y2609998D02*
X3669999D01*
Y2429994D02*
Y2609998D01*
X3439997Y2429994D02*
Y2609998D01*
X3579998Y1822496D02*
Y1877498D01*
X3552500Y1849995D02*
X3607501D01*
X3484997Y1804996D02*
X3674999D01*
Y1894993D01*
X3484997Y1804996D02*
Y1894993D01*
X3674999D01*
X3484997Y2224817D02*
X3674999Y2225061D01*
X3484997Y2315094D02*
X3674999Y2314632D01*
X3552500Y2269994D02*
X3607496D01*
X3579998Y2242496D02*
Y2297497D01*
X3674999Y2225061D02*
Y2314632D01*
X3484997Y2224817D02*
Y2315094D01*
X3479997Y2324817D02*
X3669999Y2325061D01*
X3479997Y2415094D02*
X3669999Y2414631D01*
X3547500Y2369993D02*
X3602496D01*
X3574998Y2342495D02*
Y2397497D01*
X3669999Y2325061D02*
Y2414631D01*
X3479997Y2324817D02*
Y2415094D01*
X3484997Y1904818D02*
X3674999Y1905062D01*
X3484997Y1995095D02*
X3674999Y1994632D01*
X3552500Y1949994D02*
X3607496D01*
X3579998Y1922496D02*
Y1977497D01*
X3674999Y1905062D02*
Y1994632D01*
X3484997Y1904818D02*
Y1995095D01*
X3574997Y2099932D02*
X3764999Y2100176D01*
X3574997Y2010361D02*
X3764999Y2009899D01*
X3642500Y2054994D02*
X3697501D01*
X3669998Y2027496D02*
Y2082497D01*
X3574997Y2010361D02*
Y2099932D01*
X3764999Y2009899D02*
Y2100176D01*
X4054998Y2009899D02*
Y2100176D01*
X3864996Y2010361D02*
Y2099932D01*
X3959997Y2027496D02*
Y2082497D01*
X3932499Y2054994D02*
X3987500D01*
X3864996Y2010361D02*
X4054998Y2009899D01*
X3864996Y2099932D02*
X4054998Y2100176D01*
X3859933Y2199998D02*
X3860177Y2009995D01*
X3769900D02*
X3770362Y2199998D01*
X3815000Y2077493D02*
Y2132495D01*
X3787497Y2104997D02*
X3842498D01*
X3770362Y2199998D02*
X3859933D01*
X3769900Y2009995D02*
X3860177D01*
X3574933Y2199998D02*
X3575177Y2009996D01*
X3484900D02*
X3485363Y2199998D01*
X3530001Y2077494D02*
Y2132495D01*
X3502497Y2104997D02*
X3557499D01*
X3485363Y2199998D02*
X3574933D01*
X3484900Y2009996D02*
X3575177D01*
X2510000Y1879931D02*
X2699997Y1880175D01*
X2510000Y1790360D02*
X2699997Y1789898D01*
X2577498Y1834998D02*
X2632499D01*
X2605001Y1807495D02*
Y1862496D01*
X2510000Y1790360D02*
Y1879931D01*
X2699997Y1789898D02*
Y1880175D01*
X2409820Y2174998D02*
X2410064Y1984996D01*
X2499634D02*
X2500097Y2174998D01*
X2454996Y2052494D02*
Y2107495D01*
X2427498Y2079997D02*
X2482499D01*
X2410064Y1984996D02*
X2499634D01*
X2409820Y2174998D02*
X2500097D01*
X2509998Y2019998D02*
X2680000D01*
X2509998Y2359997D02*
X2680000D01*
X2509998Y2019998D02*
Y2359997D01*
X2680000Y2019998D02*
Y2359997D01*
X2594996Y2139997D02*
Y2239997D01*
X2544999Y2189995D02*
X2644999D01*
X2499934Y2374998D02*
X2500178Y2184996D01*
X2409901D02*
X2410363Y2374998D01*
X2454996Y2252494D02*
Y2307495D01*
X2427498Y2279997D02*
X2482499D01*
X2410363Y2374998D02*
X2499934D01*
X2409901Y2184996D02*
X2500178D01*
X2944933Y2584995D02*
X2945177Y2394998D01*
X2854900D02*
X2855362Y2584995D01*
X2900000Y2462496D02*
Y2517497D01*
X2872497Y2489994D02*
X2927498D01*
X2855362Y2584995D02*
X2944933D01*
X2854900Y2394998D02*
X2945177D01*
X3009817Y1569994D02*
X3010061Y1379992D01*
X3099631D02*
X3100094Y1569994D01*
X3054998Y1447495D02*
Y1502496D01*
X3027495Y1474993D02*
X3082497D01*
X3010061Y1379992D02*
X3099631D01*
X3009817Y1569994D02*
X3100094D01*
X3414820Y1569993D02*
X3415064Y1379996D01*
X3504634D02*
X3505096Y1569993D01*
X3460001Y1447494D02*
Y1502495D01*
X3432498Y1474997D02*
X3487499D01*
X3415064Y1379996D02*
X3504634D01*
X3414820Y1569993D02*
X3505096D01*
X3203470Y2584995D02*
X3203714Y2394993D01*
X3113437D02*
X3113899Y2584995D01*
X3158532Y2462496D02*
Y2517497D01*
X3131034Y2489994D02*
X3186035D01*
X3113899Y2584995D02*
X3203470D01*
X3113437Y2394993D02*
X3203714D01*
X3424932Y2584994D02*
X3425176Y2394997D01*
X3334904D02*
X3335361Y2584994D01*
X3379999Y2462495D02*
Y2517496D01*
X3352496Y2489993D02*
X3407497D01*
X3335361Y2584994D02*
X3424932D01*
X3334904Y2394997D02*
X3425176D01*
X2734934Y2584995D02*
X2735177Y2394998D01*
X2644901D02*
X2645363Y2584995D01*
X2690001Y2462496D02*
Y2517497D01*
X2662498Y2489994D02*
X2717499D01*
X2645363Y2584995D02*
X2734934D01*
X2644901Y2394998D02*
X2735177D01*
X1630001Y1294995D02*
Y1504997D01*
X2070000D01*
X1799998Y1399993D02*
X1899997D01*
X1850000Y1349996D02*
Y1449996D01*
X1630001Y1294995D02*
X2014541D01*
X2070000Y1350453D01*
Y1504997D01*
Y1294995D02*
Y1374995D01*
X1990000Y1294995D02*
X2070000D01*
X4025000Y2991996D02*
Y3391995D01*
X4424999Y2991996D02*
Y3391995D01*
X4025000D02*
X4424999D01*
X4025000Y2991996D02*
X4424999D01*
X4174997Y3191995D02*
X4274997D01*
X4224999Y3141993D02*
Y3241998D01*
X4025000Y3311426D02*
X4100565Y3386996D01*
X4084998Y3704933D02*
X4275000Y3705177D01*
X4084998Y3615358D02*
X4275000Y3614900D01*
X4152501Y3659995D02*
X4207497D01*
X4179999Y3632497D02*
Y3687494D01*
X4084998Y3615358D02*
Y3704933D01*
X4275000Y3614900D02*
Y3705177D01*
X4249997Y3426996D02*
Y3596993D01*
X3909997Y3426996D02*
Y3596993D01*
Y3426996D02*
X4249997D01*
X3909997Y3596993D02*
X4249997D01*
X4029997Y3511995D02*
X4129997D01*
X4079999Y3461997D02*
Y3561997D01*
X3884999Y3614814D02*
X4075001Y3615058D01*
X3884999Y3705091D02*
X4075001Y3704633D01*
X3952497Y3659995D02*
X4007498D01*
X3980000Y3632497D02*
Y3687494D01*
X4075001Y3615058D02*
Y3704633D01*
X3884999Y3614814D02*
Y3705091D01*
X4444936Y3616993D02*
X4445180Y3426996D01*
X4354904D02*
X4355361Y3616993D01*
X4399999Y3494494D02*
Y3549495D01*
X4372501Y3521997D02*
X4427497D01*
X4355361Y3616993D02*
X4444936D01*
X4354904Y3426996D02*
X4445180D01*
X4344937Y3616993D02*
X4345181Y3426996D01*
X4254904D02*
X4255361Y3616993D01*
X4299999Y3494494D02*
Y3549495D01*
X4272501Y3521997D02*
X4327497D01*
X4255361Y3616993D02*
X4344937D01*
X4254904Y3426996D02*
X4345181D01*
X3834997Y3194996D02*
X3934997D01*
X3885000Y3144994D02*
Y3244994D01*
X3780001Y2974997D02*
Y3414996D01*
X3989998Y2974997D02*
Y3414996D01*
X3780001Y2974997D02*
X3989998D01*
X3780001Y3414996D02*
X3989998D01*
X1879820Y3709993D02*
X1970097D01*
X1880064Y3519996D02*
X1969634D01*
X1897498Y3614997D02*
X1952500D01*
X1924996Y3587494D02*
Y3642495D01*
X1969634Y3519996D02*
X1970097Y3709993D01*
X1879820D02*
X1880064Y3519996D01*
X1639999Y3404994D02*
X1830001D01*
X1639999Y3314996D02*
Y3404994D01*
X1830001Y3314996D02*
Y3404994D01*
X1639999Y3314996D02*
X1830001D01*
X1707497Y3359995D02*
X1762498D01*
X1735000Y3332497D02*
Y3387493D01*
X2219997Y3709993D02*
X2409999D01*
X2219997Y3619996D02*
Y3709993D01*
X2409999Y3619996D02*
Y3709993D01*
X2219997Y3619996D02*
X2409999D01*
X2287500Y3664994D02*
X2342496D01*
X2314998Y3637496D02*
Y3692498D01*
X2000000Y3619993D02*
X2189997D01*
Y3709996D01*
X2000000Y3619993D02*
Y3709996D01*
X2189997D01*
X2067498Y3664997D02*
X2122499D01*
X2094996Y3637494D02*
Y3692495D01*
X2219997Y3509993D02*
X2409999D01*
Y3599996D01*
X2219997Y3509993D02*
Y3599996D01*
X2409999D01*
X2287500Y3554997D02*
X2342496D01*
X2314998Y3527494D02*
Y3582495D01*
X2219999Y3289817D02*
Y3380094D01*
X2409996Y3290061D02*
Y3379631D01*
X2315000Y3307495D02*
Y3362496D01*
X2287497Y3334993D02*
X2342498D01*
X2219999Y3380094D02*
X2409996Y3379631D01*
X2219999Y3289817D02*
X2409996Y3290061D01*
X1879901Y3309994D02*
X1970178D01*
X1880364Y3499996D02*
X1969934D01*
X1897498Y3404995D02*
X1952500D01*
X1924996Y3377497D02*
Y3432493D01*
X1879901Y3309994D02*
X1880364Y3499996D01*
X1969934D02*
X1970178Y3309994D01*
X2219997Y3489994D02*
X2409999D01*
X2219997Y3399996D02*
Y3489994D01*
X2409999Y3399996D02*
Y3489994D01*
X2219997Y3399996D02*
X2409999D01*
X2287500Y3444995D02*
X2342496D01*
X2314998Y3417497D02*
Y3472498D01*
X3408000Y3084998D02*
X3598002D01*
Y3174995D01*
X3408000Y3084998D02*
Y3174995D01*
X3598002D01*
X3475497Y3129997D02*
X3530499D01*
X3503001Y3102494D02*
Y3157495D01*
X2735001Y2939899D02*
Y3030176D01*
X2544998Y2940361D02*
Y3029932D01*
X2640000Y2957496D02*
Y3012497D01*
X2612496Y2984994D02*
X2667498D01*
X2544998Y2940361D02*
X2735001Y2939899D01*
X2544998Y3029932D02*
X2735001Y3030176D01*
X2980000Y2754998D02*
Y2944995D01*
Y2754998D02*
X3069997D01*
X2980000Y2944995D02*
X3069997D01*
Y2754998D02*
Y2944995D01*
X3024998Y2822495D02*
Y2877497D01*
X2997500Y2849999D02*
X3052496D01*
X2880000Y2754998D02*
Y2944995D01*
Y2754998D02*
X2969997D01*
X2880000Y2944995D02*
X2969997D01*
Y2754998D02*
Y2944995D01*
X2924998Y2822495D02*
Y2877497D01*
X2897500Y2849999D02*
X2952497D01*
X1614997Y1899993D02*
X1804999D01*
X1614997Y1809996D02*
Y1899993D01*
X1804999Y1809996D02*
Y1899993D01*
X1614997Y1809996D02*
X1804999D01*
X1682500Y1854995D02*
X1737501D01*
X1709998Y1827497D02*
Y1882498D01*
X1614997Y1909818D02*
X1804999Y1910062D01*
X1614997Y2000090D02*
X1804999Y1999633D01*
X1682500Y1954995D02*
X1737501D01*
X1709998Y1927497D02*
Y1982498D01*
X1804999Y1910062D02*
Y1999633D01*
X1614997Y1909818D02*
Y2000090D01*
X3280000Y2739996D02*
Y2929993D01*
Y2739996D02*
X3369997D01*
X3280000Y2929993D02*
X3369997D01*
Y2739996D02*
Y2929993D01*
X3324998Y2807494D02*
Y2862495D01*
X3297500Y2834997D02*
X3352496D01*
X3180000Y2754997D02*
Y2944994D01*
Y2754997D02*
X3269997D01*
X3180000Y2944994D02*
X3269997D01*
Y2754997D02*
Y2944994D01*
X3224998Y2822494D02*
Y2877496D01*
X3197500Y2849998D02*
X3252496D01*
X1924997Y1929995D02*
Y2119997D01*
X1835000D02*
X1924997D01*
X1835000Y1929995D02*
X1924997D01*
X1835000D02*
Y2119997D01*
X1879999Y1997498D02*
Y2052494D01*
X1852501Y2024996D02*
X1907497D01*
X4469998Y1510401D02*
Y1589995D01*
X4429591Y1469995D02*
X4469998Y1510401D01*
X4200001Y1469995D02*
X4429591D01*
X4200001D02*
Y1589995D01*
X4469998D01*
X4289998Y1529995D02*
X4380000D01*
X4334997Y1484996D02*
Y1574994D01*
X4469998Y1469995D02*
Y1549995D01*
X4389998Y1469995D02*
X4469998D01*
X2360001Y2554995D02*
X2549998D01*
X2360001Y2464997D02*
Y2554995D01*
X2549998Y2464997D02*
Y2554995D01*
X2360001Y2464997D02*
X2549998D01*
X2427499Y2509996D02*
X2482500D01*
X2454997Y2482498D02*
Y2537494D01*
X3390000Y2754998D02*
Y2944995D01*
Y2754998D02*
X3479997D01*
X3390000Y2944995D02*
X3479997D01*
Y2754998D02*
Y2944995D01*
X3434998Y2822495D02*
Y2877497D01*
X3407500Y2849994D02*
X3462502D01*
X2784997Y3624816D02*
Y3715093D01*
X2975000Y3625060D02*
Y3714631D01*
X2879999Y3642495D02*
Y3697496D01*
X2852501Y3669998D02*
X2907497D01*
X2784997Y3715093D02*
X2975000Y3714631D01*
X2784997Y3624816D02*
X2975000Y3625060D01*
X3408000Y3274995D02*
X3598002D01*
X3408000Y3184998D02*
Y3274995D01*
X3598002Y3184998D02*
Y3274995D01*
X3408000Y3184998D02*
X3598002D01*
X3475497Y3229997D02*
X3530499D01*
X3503001Y3202493D02*
Y3257495D01*
X3414997Y3619998D02*
X3604999D01*
Y3709996D01*
X3414997Y3619998D02*
Y3709996D01*
X3604999D01*
X3482500Y3664997D02*
X3537496D01*
X3509998Y3637494D02*
Y3692495D01*
X2084821Y1494993D02*
X2175093D01*
X2085065Y1304996D02*
X2174636D01*
X2102500Y1399997D02*
X2157501D01*
X2129998Y1372494D02*
Y1427495D01*
X2174636Y1304996D02*
X2175093Y1494993D01*
X2084821D02*
X2085065Y1304996D01*
X3415000Y3419816D02*
Y3510093D01*
X3604997Y3420060D02*
Y3509631D01*
X3510001Y3437495D02*
Y3492496D01*
X3482497Y3464998D02*
X3537499D01*
X3415000Y3510093D02*
X3604997Y3509631D01*
X3415000Y3419816D02*
X3604997Y3420060D01*
X2484822Y3224994D02*
X2575099D01*
X2485066Y3034997D02*
X2574636D01*
X2502500Y3129998D02*
X2557502D01*
X2529998Y3102495D02*
Y3157496D01*
X2574636Y3034997D02*
X2575099Y3224994D01*
X2484822D02*
X2485066Y3034997D01*
X2484903Y3229992D02*
X2575180D01*
X2485361Y3419994D02*
X2574936D01*
X2502500Y3324993D02*
X2557502D01*
X2529998Y3297495D02*
Y3352491D01*
X2484903Y3229992D02*
X2485361Y3419994D01*
X2574936D02*
X2575180Y3229992D01*
X3414997Y3519993D02*
X3604999D01*
Y3609996D01*
X3414997Y3519993D02*
Y3609996D01*
X3604999D01*
X3482500Y3564997D02*
X3537496D01*
X3509998Y3537494D02*
Y3592495D01*
X1250001Y3259994D02*
X1350000D01*
X1299998Y3209997D02*
Y3309996D01*
X996996Y3369996D02*
X1591996D01*
X996996Y1629995D02*
X1591996D01*
X1590000Y3214995D02*
Y3314995D01*
X996996Y1629995D02*
Y3369996D01*
X2561676Y2628342D02*
X2570007Y2620012D01*
X2586668D01*
X2594999Y2628342D01*
Y2661665D01*
X2586668Y2669996D01*
X2570007D01*
X2561676Y2661665D01*
X1991682Y1408351D02*
X2005010Y1395022D01*
X2031669D01*
X2044998Y1408351D01*
Y1461667D01*
X2031669Y1474996D01*
X2005010D01*
X1991682Y1461667D01*
X4421675Y1533343D02*
X4430006Y1525013D01*
X4446667D01*
X4454997Y1533343D01*
Y1566666D01*
X4446667Y1574997D01*
X4430006D01*
X4421675Y1566666D01*
%TF.MD5,a5f8124a381755d2899b03b962bd1a18*%
M02*
