%TF.GenerationSoftware,Altium Limited,Altium Designer,25.2.1 (25)*%
G04 Layer_Physical_Order=4*
G04 Layer_Color=16711680*
%FSLAX45Y45*%
%MOMM*%
%TF.SameCoordinates,B7DAEB1B-2A83-4E2F-BFC4-A44EEF3E448A*%
%TF.FilePolarity,Positive*%
%TF.FileFunction,Copper,L4,Bot,Signal*%
%TF.Part,CustomerPanel*%
G01*
G75*
%TA.AperFunction,ConnectorPad*%
G04:AMPARAMS|DCode=23|XSize=2mm|YSize=3.8mm|CornerRadius=0.5mm|HoleSize=0mm|Usage=FLASHONLY|Rotation=270.000|XOffset=0mm|YOffset=0mm|HoleType=Round|Shape=RoundedRectangle|*
%AMROUNDEDRECTD23*
21,1,2.00000,2.80000,0,0,270.0*
21,1,1.00000,3.80000,0,0,270.0*
1,1,1.00000,-1.40000,-0.50000*
1,1,1.00000,-1.40000,0.50000*
1,1,1.00000,1.40000,0.50000*
1,1,1.00000,1.40000,-0.50000*
%
%ADD23ROUNDEDRECTD23*%
%TA.AperFunction,SMDPad,CuDef*%
G04:AMPARAMS|DCode=35|XSize=3.2mm|YSize=0.5mm|CornerRadius=0.125mm|HoleSize=0mm|Usage=FLASHONLY|Rotation=0.000|XOffset=0mm|YOffset=0mm|HoleType=Round|Shape=RoundedRectangle|*
%AMROUNDEDRECTD35*
21,1,3.20000,0.25000,0,0,0.0*
21,1,2.95000,0.50000,0,0,0.0*
1,1,0.25000,1.47500,-0.12500*
1,1,0.25000,-1.47500,-0.12500*
1,1,0.25000,-1.47500,0.12500*
1,1,0.25000,1.47500,0.12500*
%
%ADD35ROUNDEDRECTD35*%
%TA.AperFunction,Conductor*%
%ADD37C,0.20000*%
%ADD38C,0.30000*%
%ADD39C,0.15000*%
%ADD40C,0.25000*%
%TA.AperFunction,ViaPad*%
%ADD44C,0.30000*%
G36*
X3624286Y3509496D02*
X3623584Y3510066D01*
X3622654Y3510576D01*
X3621496Y3511026D01*
X3620110Y3511416D01*
X3618497Y3511746D01*
X3616655Y3512016D01*
X3612287Y3512376D01*
X3607008Y3512496D01*
Y3527496D01*
X3609762Y3527526D01*
X3616655Y3527976D01*
X3618497Y3528246D01*
X3620110Y3528576D01*
X3621496Y3528966D01*
X3622654Y3529416D01*
X3623584Y3529926D01*
X3624286Y3530496D01*
Y3509496D01*
D02*
G37*
G36*
X4340436Y3700909D02*
X4378117Y3685301D01*
X4410475Y3660472D01*
X4435304Y3628114D01*
X4450912Y3590433D01*
X4456163Y3550543D01*
X4456054Y3549996D01*
Y2472471D01*
X4442826Y2465400D01*
X4434416Y2471019D01*
X4404997Y2476871D01*
X4277697D01*
Y2349994D01*
Y2223116D01*
X4404997D01*
X4434416Y2228968D01*
X4442826Y2234587D01*
X4456054Y2227516D01*
Y1872472D01*
X4442826Y1865401D01*
X4434416Y1871020D01*
X4404997Y1876872D01*
X4277697D01*
Y1749995D01*
Y1623117D01*
X4404997D01*
X4434416Y1628969D01*
X4442826Y1634588D01*
X4456054Y1627517D01*
Y1449996D01*
X4456163Y1449448D01*
X4450912Y1409559D01*
X4435304Y1371877D01*
X4410475Y1339520D01*
X4378117Y1314691D01*
X4340436Y1299082D01*
X4322768Y1296756D01*
X4317553Y1305756D01*
X4316061Y1311003D01*
X4322968Y1321339D01*
X4325684Y1334996D01*
X4322968Y1348652D01*
X4315232Y1360229D01*
X4308396Y1364797D01*
X4307830Y1367644D01*
X4310352Y1380325D01*
Y1540967D01*
X4312901Y1553782D01*
X4310185Y1567438D01*
X4302449Y1579015D01*
X4290872Y1586751D01*
X4277216Y1589467D01*
X4263559Y1586751D01*
X4251982Y1579015D01*
X4244247Y1567438D01*
X4241530Y1553782D01*
X4244079Y1540967D01*
Y1394050D01*
X4188761Y1338732D01*
X3893124D01*
X3835930Y1395927D01*
X3825180Y1403110D01*
X3812499Y1405632D01*
X3752498D01*
X3739817Y1403110D01*
X3729067Y1395927D01*
X3684306Y1351165D01*
X3580115D01*
X3575232Y1365943D01*
X3582968Y1377520D01*
X3585684Y1391177D01*
X3582968Y1404833D01*
X3575232Y1416410D01*
X3563655Y1424146D01*
X3549999Y1426862D01*
X3536342Y1424146D01*
X3524765Y1416410D01*
X3517030Y1404833D01*
X3514313Y1391177D01*
X3517030Y1377520D01*
X3524765Y1365943D01*
X3519882Y1351165D01*
X3419399D01*
X3414849Y1366165D01*
X3420232Y1369762D01*
X3427968Y1381339D01*
X3430684Y1394996D01*
X3427968Y1408652D01*
X3420232Y1420229D01*
X3408655Y1427965D01*
X3394999Y1430681D01*
X3381342Y1427965D01*
X3369765Y1420229D01*
X3362029Y1408652D01*
X3359313Y1394996D01*
X3362029Y1381339D01*
X3369765Y1369762D01*
X3375148Y1366165D01*
X3370598Y1351165D01*
X3320902D01*
X3316910Y1358495D01*
X3314883Y1366165D01*
X3321433Y1375969D01*
X3324150Y1389625D01*
X3321433Y1403282D01*
X3313698Y1414859D01*
X3302120Y1422595D01*
X3288464Y1425311D01*
X3274808Y1422595D01*
X3263230Y1414859D01*
X3255495Y1403282D01*
X3252778Y1389625D01*
X3255495Y1375969D01*
X3262046Y1366165D01*
X3260019Y1358495D01*
X3256027Y1351165D01*
X3156882D01*
X3152784Y1359545D01*
X3151170Y1366165D01*
X3157968Y1376339D01*
X3160684Y1389996D01*
X3157968Y1403652D01*
X3150232Y1415229D01*
X3138655Y1422965D01*
X3124999Y1425681D01*
X3111342Y1422965D01*
X3099765Y1415229D01*
X3092029Y1403652D01*
X3089313Y1389996D01*
X3092029Y1376339D01*
X3098827Y1366165D01*
X3097214Y1359545D01*
X3093115Y1351165D01*
X2829399D01*
X2824849Y1366165D01*
X2830232Y1369762D01*
X2837968Y1381339D01*
X2840684Y1394996D01*
X2837968Y1408652D01*
X2830232Y1420229D01*
X2818655Y1427965D01*
X2804998Y1430681D01*
X2791342Y1427965D01*
X2779765Y1420229D01*
X2772029Y1408652D01*
X2769313Y1394996D01*
X2772029Y1381339D01*
X2779765Y1369762D01*
X2785148Y1366165D01*
X2780598Y1351165D01*
X2588602D01*
X2587148Y1355092D01*
X2586107Y1366165D01*
X2595232Y1372262D01*
X2602968Y1383839D01*
X2605684Y1397496D01*
X2602968Y1411152D01*
X2595232Y1422729D01*
X2583655Y1430465D01*
X2569998Y1433181D01*
X2556342Y1430465D01*
X2544765Y1422729D01*
X2537029Y1411152D01*
X2534313Y1397496D01*
X2537029Y1383839D01*
X2544765Y1372262D01*
X2553890Y1366165D01*
X2552849Y1355092D01*
X2551395Y1351165D01*
X2075692D01*
X2033430Y1393427D01*
X2022679Y1400610D01*
X2009999Y1403132D01*
X1946839D01*
X1945399Y1404094D01*
X1931743Y1406811D01*
X1918087Y1404094D01*
X1906510Y1396359D01*
X1898774Y1384781D01*
X1896057Y1371125D01*
X1898774Y1357469D01*
X1906510Y1345891D01*
X1918087Y1338156D01*
X1931743Y1335439D01*
X1938881Y1336859D01*
X1996273D01*
X2024192Y1308940D01*
X2017979Y1293940D01*
X1699999D01*
Y1294020D01*
X1678578Y1298281D01*
X1660418Y1310415D01*
X1648284Y1328575D01*
X1644023Y1349996D01*
X1643943D01*
X1643942Y1350002D01*
Y1634996D01*
X1640596Y1651813D01*
X1631071Y1666069D01*
X1616814Y1675595D01*
X1599997Y1678940D01*
X1484999D01*
Y1801757D01*
X1486140Y1807497D01*
Y1832497D01*
X1484999Y1838237D01*
Y1888743D01*
X1491042Y1892781D01*
X1519127Y1920866D01*
X1525757Y1930790D01*
X1528086Y1942495D01*
X1528086Y1942496D01*
Y1950957D01*
X1530467Y1954521D01*
X1533184Y1968177D01*
X1530467Y1981833D01*
X1522732Y1993411D01*
X1520379Y1994982D01*
X1527968Y2006339D01*
X1528768Y2010361D01*
X1545044Y2015298D01*
X1640560Y1919782D01*
X1649657Y1913704D01*
X1660387Y1911570D01*
X1763204D01*
X1769740Y1903606D01*
X1772457Y1889950D01*
X1780192Y1878372D01*
X1791770Y1870637D01*
X1805426Y1867920D01*
X1819082Y1870637D01*
X1823961Y1873897D01*
X1824793Y1873798D01*
X1825423Y1873975D01*
X1825590Y1874009D01*
X1825613Y1874009D01*
X1825641Y1874020D01*
X1825667Y1874025D01*
X1826049Y1874081D01*
X1831485Y1874436D01*
X1833652Y1874459D01*
X1836247Y1875567D01*
X1968925D01*
X1975138Y1860568D01*
X1941480Y1826910D01*
X1938923Y1825851D01*
X1930403Y1817337D01*
X1919765Y1810229D01*
X1912029Y1798652D01*
X1909313Y1784996D01*
X1912029Y1771339D01*
X1919765Y1759762D01*
X1931342Y1752026D01*
X1944998Y1749310D01*
X1958655Y1752026D01*
X1970232Y1759762D01*
X1977968Y1771339D01*
X1978812Y1775583D01*
X1984102Y1781506D01*
X1985701Y1783116D01*
X1986290Y1784551D01*
X1987627Y1785338D01*
X1988049Y1786963D01*
X2021161Y1820075D01*
X2205064D01*
X2206541Y1805075D01*
X2195035Y1802786D01*
X2183458Y1795051D01*
X2175723Y1783473D01*
X2173006Y1769817D01*
X2175723Y1756161D01*
X2183458Y1744584D01*
X2182595Y1727120D01*
X2179765Y1725229D01*
X2172029Y1713652D01*
X2169313Y1699996D01*
X2172029Y1686339D01*
X2179765Y1674762D01*
X2191342Y1667026D01*
X2204998Y1664310D01*
X2218655Y1667026D01*
X2230232Y1674762D01*
X2237968Y1686339D01*
X2240684Y1699996D01*
X2237968Y1713652D01*
X2230232Y1725229D01*
X2231095Y1742693D01*
X2233925Y1744584D01*
X2241661Y1756161D01*
X2244378Y1769817D01*
X2241661Y1783473D01*
X2233925Y1795051D01*
X2222348Y1802786D01*
X2210843Y1805075D01*
X2212320Y1820075D01*
X2301661D01*
X2448370Y1673367D01*
X2458293Y1666736D01*
X2469999Y1664408D01*
X2544994D01*
X2544996Y1664408D01*
X2556701Y1666736D01*
X2566625Y1673367D01*
X2654134Y1760876D01*
X2670410Y1755939D01*
X2670649Y1754739D01*
X2678384Y1743162D01*
X2689962Y1735426D01*
X2703618Y1732710D01*
X2717274Y1735426D01*
X2728852Y1743162D01*
X2731329Y1746869D01*
X2749714Y1749697D01*
X2856862Y1642548D01*
Y1602810D01*
X2854313Y1589996D01*
X2857029Y1576339D01*
X2863161Y1567162D01*
X2858371Y1559994D01*
X2855655Y1546338D01*
X2858371Y1532681D01*
X2866107Y1521104D01*
X2877684Y1513369D01*
X2891341Y1510652D01*
X2904997Y1513369D01*
X2909876Y1516628D01*
X2910706Y1516529D01*
X2911339Y1516707D01*
X2911505Y1516741D01*
X2911528Y1516741D01*
X2911556Y1516752D01*
X2911582Y1516757D01*
X2911965Y1516813D01*
X2917401Y1517168D01*
X2919567Y1517192D01*
X2922162Y1518300D01*
X2936341D01*
X2947071Y1520434D01*
X2964765Y1519762D01*
X2976342Y1512026D01*
X2989999Y1509310D01*
X3003655Y1512026D01*
X3008534Y1515287D01*
X3009366Y1515187D01*
X3009996Y1515365D01*
X3010163Y1515399D01*
X3010185Y1515398D01*
X3010214Y1515409D01*
X3010239Y1515415D01*
X3010622Y1515470D01*
X3016058Y1515825D01*
X3018225Y1515849D01*
X3020820Y1516957D01*
X3092102D01*
X3102832Y1519091D01*
X3111928Y1525169D01*
X3177849Y1591090D01*
X3191673Y1583700D01*
X3191057Y1580603D01*
X3193773Y1566947D01*
X3201509Y1555369D01*
X3213086Y1547634D01*
X3226742Y1544917D01*
X3240399Y1547634D01*
X3251976Y1555369D01*
X3255091Y1560031D01*
X3264066Y1554035D01*
X3277722Y1551318D01*
X3291378Y1554035D01*
X3302956Y1561770D01*
X3310691Y1573348D01*
X3313408Y1587004D01*
X3310691Y1600660D01*
X3309983Y1601720D01*
X3309888Y1603013D01*
X3309892Y1603033D01*
X3309884Y1603074D01*
X3309272Y1611397D01*
X3309256Y1613455D01*
X3308148Y1616072D01*
Y1667439D01*
X3323148Y1679749D01*
X3324198Y1679540D01*
X3337854Y1682257D01*
X3342733Y1685517D01*
X3343565Y1685418D01*
X3344195Y1685595D01*
X3344362Y1685629D01*
X3344385Y1685629D01*
X3344413Y1685640D01*
X3344439Y1685645D01*
X3344821Y1685701D01*
X3350258Y1686056D01*
X3352426Y1686080D01*
X3355019Y1687188D01*
X3523744D01*
X3534474Y1689322D01*
X3543571Y1695400D01*
X3675206Y1827035D01*
X3694517Y1825133D01*
X3694765Y1824762D01*
X3706342Y1817027D01*
X3719998Y1814310D01*
X3733655Y1817027D01*
X3742372Y1822851D01*
X3751390Y1820887D01*
X3757932Y1816770D01*
X3759507Y1808854D01*
X3765585Y1799757D01*
X4079809Y1485533D01*
X4080846Y1482929D01*
X4082401Y1481332D01*
X4084525Y1478926D01*
X4087029Y1466339D01*
X4094765Y1454762D01*
X4106342Y1447027D01*
X4110995Y1432222D01*
X4108342Y1425197D01*
X4108326Y1425180D01*
X4108184Y1425087D01*
X4107616Y1424768D01*
X4107097Y1424110D01*
X4101342Y1422965D01*
X4089765Y1415229D01*
X4082029Y1403652D01*
X4079313Y1389996D01*
X4082029Y1376339D01*
X4089765Y1364762D01*
X4101342Y1357026D01*
X4114998Y1354310D01*
X4128655Y1357026D01*
X4140232Y1364762D01*
X4147968Y1376339D01*
X4149112Y1382095D01*
X4149771Y1382613D01*
X4150089Y1383181D01*
X4150183Y1383323D01*
X4150200Y1383339D01*
X4150213Y1383368D01*
X4150229Y1383393D01*
X4150459Y1383702D01*
X4154054Y1387799D01*
X4155567Y1389345D01*
X4156618Y1391963D01*
X4164144Y1399489D01*
X4164145Y1399489D01*
X4184825Y1420169D01*
X4190903Y1429266D01*
X4193037Y1439996D01*
Y1490147D01*
X4190903Y1500877D01*
X4184825Y1509973D01*
X3843037Y1851761D01*
Y2322185D01*
X3846235Y2322821D01*
X3857813Y2330556D01*
X3865548Y2342134D01*
X3868265Y2355790D01*
X3865548Y2369446D01*
X3857813Y2381024D01*
X3846235Y2388759D01*
X3832579Y2391476D01*
X3828450Y2390654D01*
X3813449Y2401769D01*
Y2767294D01*
X3827307Y2773034D01*
X3877527Y2722814D01*
X3876555Y2717189D01*
X3871619Y2707509D01*
X3861342Y2705465D01*
X3849765Y2697729D01*
X3842029Y2686152D01*
X3839313Y2672496D01*
X3842029Y2658839D01*
X3849765Y2647262D01*
X3861342Y2639527D01*
X3874999Y2636810D01*
X3888655Y2639527D01*
X3889647Y2640190D01*
X3893511Y2639480D01*
X3905287Y2632599D01*
X3907029Y2623839D01*
X3914765Y2612262D01*
X3926342Y2604526D01*
X3939998Y2601810D01*
X3953655Y2604526D01*
X3965232Y2612262D01*
X3972968Y2623839D01*
X3975684Y2637496D01*
X3972968Y2651152D01*
X3967295Y2659642D01*
X3968376Y2665507D01*
X3970253Y2670053D01*
X3973673Y2675041D01*
X3983655Y2677026D01*
X3995232Y2684762D01*
X4002968Y2696339D01*
X4005684Y2709996D01*
X4005294Y2711957D01*
X4017426Y2726957D01*
X4149014D01*
X4151517Y2725853D01*
X4156152Y2725748D01*
X4159193Y2725497D01*
X4159758Y2725415D01*
X4159784Y2725409D01*
X4159812Y2725398D01*
X4159835Y2725399D01*
X4160001Y2725365D01*
X4160631Y2725188D01*
X4161463Y2725287D01*
X4166342Y2722027D01*
X4179998Y2719310D01*
X4193655Y2722027D01*
X4203193Y2728400D01*
X4214482Y2720857D01*
X4228138Y2718140D01*
X4241794Y2720857D01*
X4253371Y2728592D01*
X4261107Y2740170D01*
X4263824Y2753826D01*
X4261107Y2767482D01*
X4253371Y2779060D01*
X4241794Y2786795D01*
X4228138Y2789512D01*
X4214482Y2786795D01*
X4204944Y2780422D01*
X4193655Y2787965D01*
X4179998Y2790681D01*
X4166342Y2787965D01*
X4161463Y2784705D01*
X4160631Y2784804D01*
X4160002Y2784627D01*
X4159834Y2784593D01*
X4159812Y2784593D01*
X4159783Y2784582D01*
X4159758Y2784577D01*
X4159375Y2784521D01*
X4153939Y2784166D01*
X4151772Y2784143D01*
X4149177Y2783034D01*
X3962115D01*
X3849349Y2895800D01*
X3850232Y2904762D01*
X3857968Y2916339D01*
X3860684Y2929996D01*
X3857968Y2943652D01*
X3854708Y2948531D01*
X3854807Y2949363D01*
X3854630Y2949993D01*
X3854595Y2950160D01*
X3854596Y2950183D01*
X3854585Y2950211D01*
X3854580Y2950236D01*
X3854524Y2950619D01*
X3854169Y2956056D01*
X3854145Y2958223D01*
X3853037Y2960817D01*
Y3011710D01*
X3850903Y3022440D01*
X3844825Y3031536D01*
X3606397Y3269964D01*
X3612137Y3283822D01*
X3660859D01*
X3671589Y3285957D01*
X3679773Y3291425D01*
X3680102Y3291360D01*
X3693759Y3294076D01*
X3705336Y3301812D01*
X3713072Y3313389D01*
X3715788Y3327045D01*
X3713072Y3340702D01*
X3705336Y3352279D01*
X3693759Y3360015D01*
X3680102Y3362731D01*
X3666446Y3360015D01*
X3654869Y3352279D01*
X3647133Y3340702D01*
X3646974Y3339899D01*
X3275024D01*
X3267006Y3354899D01*
X3267968Y3356339D01*
X3270684Y3369996D01*
X3267968Y3383652D01*
X3261991Y3392596D01*
X3265232Y3394762D01*
X3272968Y3406339D01*
X3275684Y3419996D01*
X3272968Y3433652D01*
X3265232Y3445229D01*
X3253655Y3452965D01*
X3239999Y3455681D01*
X3226342Y3452965D01*
X3214765Y3445229D01*
X3207029Y3433652D01*
X3204313Y3419996D01*
X3207029Y3406339D01*
X3213006Y3397395D01*
X3209765Y3395229D01*
X3202029Y3383652D01*
X3199313Y3369996D01*
X3201659Y3358201D01*
X3193284Y3344484D01*
X3181380Y3343267D01*
X3153867Y3370780D01*
X3158655Y3387026D01*
X3170232Y3394762D01*
X3177968Y3406339D01*
X3180684Y3419996D01*
X3177968Y3433652D01*
X3174708Y3438531D01*
X3174807Y3439363D01*
X3174630Y3439993D01*
X3174595Y3440160D01*
X3174596Y3440183D01*
X3174585Y3440211D01*
X3174580Y3440236D01*
X3174524Y3440619D01*
X3174169Y3446055D01*
X3174145Y3448222D01*
X3173037Y3450817D01*
Y3486244D01*
X3179999Y3491957D01*
X3604014D01*
X3606516Y3490854D01*
X3611152Y3490748D01*
X3614193Y3490497D01*
X3614758Y3490415D01*
X3614784Y3490409D01*
X3614812Y3490398D01*
X3614835Y3490399D01*
X3615001Y3490365D01*
X3615631Y3490188D01*
X3616463Y3490287D01*
X3621342Y3487027D01*
X3634999Y3484310D01*
X3648655Y3487027D01*
X3660232Y3494762D01*
X3667968Y3506339D01*
X3670684Y3519996D01*
X3667968Y3533652D01*
X3660232Y3545229D01*
X3661890Y3562162D01*
X3665615Y3565995D01*
X3679272Y3568712D01*
X3690849Y3576447D01*
X3698584Y3588025D01*
X3701301Y3601681D01*
X3698584Y3615337D01*
X3690849Y3626915D01*
X3679272Y3634650D01*
X3665615Y3637367D01*
X3651959Y3634650D01*
X3640382Y3626915D01*
X3632646Y3615337D01*
X3632456Y3614383D01*
X3620001Y3601566D01*
X3606345Y3598850D01*
X3594768Y3591114D01*
X3587032Y3579537D01*
X3584316Y3565881D01*
X3584882Y3563035D01*
X3573165Y3548034D01*
X3191613D01*
X3174555Y3565092D01*
X3174581Y3565918D01*
X3180463Y3580397D01*
X3188655Y3582026D01*
X3200232Y3589762D01*
X3207968Y3601339D01*
X3210684Y3614996D01*
X3207968Y3628652D01*
X3200232Y3640229D01*
X3188655Y3647965D01*
X3174998Y3650681D01*
X3161342Y3647965D01*
X3149765Y3640229D01*
X3142029Y3628652D01*
X3140400Y3620460D01*
X3125921Y3614578D01*
X3125095Y3614552D01*
X3069952Y3669695D01*
X3060855Y3675773D01*
X3050125Y3677908D01*
X2371707D01*
X2359196Y3691896D01*
X2371674Y3706051D01*
X4299999D01*
X4300546Y3706160D01*
X4340436Y3700909D01*
D02*
G37*
G36*
X3152529Y3445232D02*
X3152978Y3438340D01*
X3153248Y3436498D01*
X3153578Y3434884D01*
X3153969Y3433498D01*
X3154419Y3432340D01*
X3154928Y3431410D01*
X3155498Y3430708D01*
X3134499D01*
X3135069Y3431410D01*
X3135578Y3432340D01*
X3136029Y3433498D01*
X3136419Y3434884D01*
X3136749Y3436498D01*
X3137019Y3438340D01*
X3137379Y3442707D01*
X3137498Y3447986D01*
X3152499D01*
X3152529Y3445232D01*
D02*
G37*
G36*
X2124314Y3617495D02*
X2127031Y3603839D01*
X2134766Y3592262D01*
X2146343Y3584526D01*
X2160000Y3581810D01*
X2173656Y3584526D01*
X2185233Y3592262D01*
X2192969Y3603839D01*
X2195685Y3617495D01*
X2205061Y3628215D01*
X2221719Y3628623D01*
X2250173Y3600169D01*
X2259269Y3594091D01*
X2269999Y3591957D01*
X2915934D01*
X2918602Y3588413D01*
X2922578Y3576957D01*
X2917029Y3568652D01*
X2914313Y3554996D01*
X2917029Y3541339D01*
X2924765Y3529762D01*
X2936342Y3522026D01*
X2949998Y3519310D01*
X2963655Y3522026D01*
X2975232Y3529762D01*
X2982968Y3541339D01*
X2985684Y3554996D01*
X2982968Y3568652D01*
X2977418Y3576957D01*
X2981395Y3588413D01*
X2983847Y3591670D01*
X2998200Y3591277D01*
X3006620Y3576957D01*
X3004826Y3567937D01*
X3007543Y3554281D01*
X3015278Y3542704D01*
X3026856Y3534968D01*
X3040512Y3532252D01*
X3054168Y3534968D01*
X3065745Y3542703D01*
X3076572Y3543770D01*
X3116960Y3503382D01*
Y3450980D01*
X3115856Y3448477D01*
X3115751Y3443842D01*
X3115500Y3440801D01*
X3115417Y3440236D01*
X3115412Y3440210D01*
X3115401Y3440182D01*
X3115402Y3440159D01*
X3115368Y3439993D01*
X3115190Y3439363D01*
X3115289Y3438531D01*
X3112029Y3433652D01*
X3109313Y3419996D01*
X3112029Y3406339D01*
X3114238Y3403034D01*
X3106220Y3388034D01*
X3045839D01*
X3044361Y3403034D01*
X3053430Y3404838D01*
X3065007Y3412574D01*
X3072742Y3424151D01*
X3075459Y3437807D01*
X3072742Y3451464D01*
X3065007Y3463041D01*
X3053430Y3470776D01*
X3039773Y3473493D01*
X3026117Y3470776D01*
X3015265Y3463525D01*
X3004413Y3470776D01*
X2990757Y3473493D01*
X2977100Y3470776D01*
X2964965Y3463617D01*
X2953388Y3471353D01*
X2939732Y3474069D01*
X2926075Y3471352D01*
X2914498Y3463617D01*
X2906763Y3452040D01*
X2905478Y3445579D01*
X2904630Y3445748D01*
X2890974Y3443031D01*
X2879396Y3435296D01*
X2871661Y3423719D01*
X2868944Y3410062D01*
X2871661Y3396406D01*
X2879396Y3384829D01*
X2889368Y3378166D01*
X2886942Y3365968D01*
X2889659Y3352312D01*
X2896384Y3342247D01*
X2891216Y3334513D01*
X2888500Y3320856D01*
X2891216Y3307200D01*
X2898952Y3295623D01*
X2898512Y3277876D01*
X2894765Y3275372D01*
X2887029Y3263795D01*
X2884313Y3250139D01*
X2887029Y3236482D01*
X2894765Y3224905D01*
X2906342Y3217169D01*
X2914192Y3215608D01*
X2912676Y3207988D01*
X2915393Y3194332D01*
X2923129Y3182755D01*
X2917237Y3168651D01*
X2916405Y3167406D01*
X2913728Y3153945D01*
X2904999Y3155682D01*
X2891342Y3152965D01*
X2879765Y3145229D01*
X2872029Y3133652D01*
X2869313Y3119996D01*
X2872029Y3106339D01*
X2879765Y3094762D01*
X2891342Y3087027D01*
X2904999Y3084310D01*
X2918655Y3087027D01*
X2930232Y3094762D01*
X2937968Y3106339D01*
X2940645Y3119800D01*
X2949375Y3118064D01*
X2963031Y3120781D01*
X2974608Y3128516D01*
X2983876Y3119115D01*
X2995453Y3111379D01*
X3002745Y3109929D01*
X3010500Y3106702D01*
X3018619Y3095261D01*
X3019587Y3090396D01*
X3027322Y3078819D01*
X3031898Y3075761D01*
X3027348Y3060761D01*
X2794701D01*
X2720232Y3135229D01*
X2708655Y3142965D01*
X2694998Y3145682D01*
X2469780D01*
X2191575Y3423886D01*
X2179998Y3431622D01*
X2166342Y3434338D01*
X2127864D01*
X2115554Y3449338D01*
X2115684Y3449996D01*
X2112968Y3463652D01*
X2105232Y3475229D01*
X2093655Y3482965D01*
X2079999Y3485681D01*
X2066342Y3482965D01*
X2054765Y3475229D01*
X2047029Y3463652D01*
X2044313Y3449996D01*
X2044444Y3449338D01*
X2032134Y3434338D01*
X1975079D01*
X1894640Y3514777D01*
Y3521403D01*
X1897889Y3526265D01*
X1900605Y3539922D01*
X1897889Y3553578D01*
X1890153Y3565155D01*
X1878576Y3572891D01*
X1864920Y3575607D01*
X1851263Y3572891D01*
X1839686Y3565155D01*
X1833720Y3559190D01*
X1825985Y3547612D01*
X1823268Y3533956D01*
Y3499996D01*
X1825985Y3486339D01*
X1833720Y3474762D01*
X1935064Y3373419D01*
X1946641Y3365683D01*
X1951256Y3364765D01*
X1949313Y3354996D01*
X1952029Y3341339D01*
X1959765Y3329762D01*
X1971342Y3322026D01*
X1984999Y3319310D01*
X2130217D01*
X2399313Y3050215D01*
Y2899553D01*
X2392029Y2888652D01*
X2389313Y2874996D01*
X2392029Y2861339D01*
X2399765Y2849762D01*
X2411342Y2842027D01*
X2424998Y2839310D01*
X2438655Y2842027D01*
X2450232Y2849762D01*
X2460232Y2859762D01*
X2467968Y2871339D01*
X2470684Y2884996D01*
Y3064996D01*
X2478328Y3074310D01*
X2680217D01*
X2714578Y3039949D01*
X2707029Y3028652D01*
X2704313Y3014996D01*
Y2724996D01*
X2707029Y2711339D01*
X2714765Y2699762D01*
X2749313Y2665214D01*
Y2409330D01*
X2752029Y2395674D01*
X2759765Y2384096D01*
X2761862Y2382695D01*
Y2283744D01*
X2634335Y2156217D01*
X2627152Y2145467D01*
X2624629Y2132786D01*
Y1862230D01*
X2627152Y1849550D01*
X2634335Y1838799D01*
X2639938Y1833196D01*
X2552745Y1746003D01*
X2536519Y1750686D01*
X2528784Y1762263D01*
X2517207Y1769999D01*
X2511451Y1771144D01*
X2510932Y1771802D01*
X2510365Y1772121D01*
X2510223Y1772214D01*
X2510207Y1772231D01*
X2510178Y1772244D01*
X2510153Y1772261D01*
X2509844Y1772490D01*
X2505747Y1776085D01*
X2504201Y1777598D01*
X2501583Y1778650D01*
X2418909Y1861324D01*
X2420232Y1874762D01*
X2427968Y1886339D01*
X2430684Y1899996D01*
X2427968Y1913652D01*
X2420232Y1925229D01*
X2408655Y1932965D01*
X2394999Y1935681D01*
X2381342Y1932965D01*
X2369765Y1925229D01*
X2362029Y1913652D01*
X2361002Y1908486D01*
X2359917Y1908702D01*
X2227739D01*
X2222026Y1915663D01*
X2219309Y1929319D01*
X2211573Y1940897D01*
X2210232Y1956492D01*
X2217968Y1968069D01*
X2220684Y1981726D01*
X2217968Y1995382D01*
X2210232Y2006959D01*
X2198655Y2014695D01*
X2184998Y2017411D01*
X2171342Y2014695D01*
X2159765Y2006959D01*
X2152029Y1995382D01*
X2149313Y1981726D01*
X2136819Y1967647D01*
X1672000D01*
X1536735Y2102912D01*
X1535746Y2105463D01*
X1532541Y2108816D01*
X1530569Y2111143D01*
X1530229Y2111600D01*
X1530213Y2111624D01*
X1530201Y2111652D01*
X1530184Y2111668D01*
X1530090Y2111810D01*
X1529772Y2112378D01*
X1529113Y2112897D01*
X1527968Y2118652D01*
X1520233Y2130229D01*
X1509276Y2137550D01*
X1507735Y2146374D01*
X1510624Y2155135D01*
X1515410Y2158333D01*
X1523146Y2169910D01*
X1525863Y2183567D01*
X1523146Y2197223D01*
X1515410Y2208800D01*
X1503833Y2216536D01*
X1490177Y2219252D01*
X1484999Y2223502D01*
Y2281756D01*
X1486140Y2287496D01*
Y2293835D01*
X1489288Y2297296D01*
X1504348Y2299427D01*
X1506966Y2298376D01*
X1555200Y2250142D01*
X1564296Y2244064D01*
X1575026Y2241930D01*
X1767601D01*
X1770573Y2237856D01*
X1774246Y2226930D01*
X1768565Y2218427D01*
X1765848Y2204771D01*
X1768565Y2191114D01*
X1776300Y2179537D01*
X1787878Y2171802D01*
X1801534Y2169085D01*
X1815190Y2171802D01*
X1826767Y2179537D01*
X1834503Y2191114D01*
X1835648Y2196870D01*
X1836306Y2197389D01*
X1836625Y2197956D01*
X1836718Y2198098D01*
X1836735Y2198114D01*
X1836748Y2198143D01*
X1836765Y2198168D01*
X1836995Y2198477D01*
X1840589Y2202574D01*
X1842102Y2204120D01*
X1843154Y2206738D01*
X1848373Y2211957D01*
X2159509D01*
X2160023Y2211443D01*
X2161012Y2208893D01*
X2164217Y2205539D01*
X2166189Y2203213D01*
X2166529Y2202756D01*
X2166545Y2202731D01*
X2166557Y2202703D01*
X2166574Y2202687D01*
X2166668Y2202546D01*
X2166986Y2201977D01*
X2167645Y2201459D01*
X2168790Y2195703D01*
X2176525Y2184126D01*
X2188103Y2176390D01*
X2201759Y2173674D01*
X2215415Y2176390D01*
X2226992Y2184126D01*
X2234728Y2195703D01*
X2237445Y2209360D01*
X2234728Y2223016D01*
X2226992Y2234593D01*
X2226877Y2234670D01*
X2216977Y2244692D01*
X2223054Y2253892D01*
X2224670Y2256312D01*
X2227387Y2269968D01*
X2224670Y2283625D01*
X2216935Y2295202D01*
X2224108Y2308449D01*
X2231208Y2319075D01*
X2233924Y2332731D01*
X2231208Y2346388D01*
X2223472Y2357965D01*
X2211895Y2365701D01*
X2198239Y2368417D01*
X2184582Y2365701D01*
X2173005Y2357965D01*
X2165269Y2346388D01*
X2163874Y2339371D01*
X2163571Y2339160D01*
X2163510Y2339065D01*
X2163395Y2338970D01*
X2163116Y2338450D01*
X2163040Y2338331D01*
X2162880Y2338112D01*
X2159382Y2334088D01*
X2157897Y2332568D01*
X2157703Y2332083D01*
X2157232Y2331856D01*
X2156416Y2329521D01*
X2154542Y2327647D01*
X2029797D01*
X2022483Y2337868D01*
X2020858Y2342647D01*
X2023184Y2354341D01*
X2020467Y2367997D01*
X2012732Y2379574D01*
X2001154Y2387310D01*
X1987498Y2390026D01*
X1973842Y2387310D01*
X1966585Y2382461D01*
X1958657Y2387759D01*
X1945000Y2390475D01*
X1931344Y2387759D01*
X1919767Y2380023D01*
X1912031Y2368446D01*
X1909315Y2354790D01*
X1911730Y2342647D01*
X1911188Y2339874D01*
X1903002Y2327647D01*
X1615112D01*
X1545175Y2397584D01*
X1544186Y2400134D01*
X1540982Y2403487D01*
X1539010Y2405814D01*
X1538670Y2406271D01*
X1538654Y2406295D01*
X1538641Y2406323D01*
X1538624Y2406340D01*
X1538531Y2406481D01*
X1538212Y2407049D01*
X1537554Y2407568D01*
X1536409Y2413323D01*
X1528673Y2424900D01*
X1536986Y2437387D01*
X1542968Y2446339D01*
X1545684Y2459996D01*
X1542968Y2473652D01*
X1542786Y2473923D01*
X1545789Y2475930D01*
X1553525Y2487507D01*
X1556241Y2501163D01*
X1554754Y2508641D01*
X1564953Y2515455D01*
X1572688Y2527033D01*
X1575405Y2540689D01*
X1572688Y2554345D01*
X1564953Y2565923D01*
X1560306Y2569027D01*
X1561588Y2570946D01*
X1564305Y2584602D01*
X1561588Y2598259D01*
X1553853Y2609836D01*
X1547985Y2613757D01*
X1542651Y2621088D01*
X1543874Y2632548D01*
X1547032Y2637275D01*
X1549749Y2650931D01*
X1547032Y2664588D01*
X1539395Y2676018D01*
X1542915Y2681287D01*
X1545632Y2694943D01*
X1542915Y2708599D01*
X1539101Y2714307D01*
X1535232Y2729762D01*
X1542968Y2741339D01*
X1545684Y2754996D01*
X1542968Y2768652D01*
X1539883Y2773269D01*
X1538693Y2784886D01*
X1544008Y2792040D01*
X1549924Y2795993D01*
X1557660Y2807570D01*
X1560376Y2821227D01*
X1557660Y2834883D01*
X1549924Y2846460D01*
X1549983Y2848601D01*
X1552778Y2862594D01*
X1561897Y2868687D01*
X1569633Y2880264D01*
X1572349Y2893920D01*
X1569633Y2907577D01*
X1561897Y2919154D01*
X1550320Y2926889D01*
X1536663Y2929606D01*
X1523007Y2926889D01*
X1515718Y2922019D01*
X1510232Y2930229D01*
X1498655Y2937965D01*
X1486140Y2940454D01*
Y2952495D01*
X1484999Y2958234D01*
Y2998281D01*
X1499220Y3008879D01*
X1506944Y3006366D01*
X1507315Y3005909D01*
X1514764Y2994761D01*
X1526342Y2987025D01*
X1539998Y2984309D01*
X1553654Y2987025D01*
X1565232Y2994761D01*
X1572967Y3006338D01*
X1575684Y3019994D01*
X1572967Y3033651D01*
X1565232Y3045228D01*
X1553654Y3052964D01*
X1539998Y3055680D01*
X1535829Y3054851D01*
X1535684Y3054996D01*
X1532968Y3068652D01*
X1525232Y3080229D01*
X1513655Y3087965D01*
X1499999Y3090681D01*
X1490095Y3098809D01*
X1491948Y3115365D01*
X1492972Y3116569D01*
X1496537Y3120322D01*
X1497511Y3122856D01*
X1521612Y3146957D01*
X1529014D01*
X1531516Y3145853D01*
X1536151Y3145748D01*
X1539193Y3145497D01*
X1539758Y3145415D01*
X1539784Y3145409D01*
X1539812Y3145398D01*
X1539835Y3145399D01*
X1540001Y3145365D01*
X1540631Y3145188D01*
X1541463Y3145287D01*
X1546342Y3142026D01*
X1559998Y3139310D01*
X1573655Y3142026D01*
X1585232Y3149762D01*
X1592968Y3161339D01*
X1595684Y3174996D01*
X1592968Y3188652D01*
X1585232Y3200229D01*
X1573655Y3207965D01*
X1559998Y3210681D01*
X1546342Y3207965D01*
X1541463Y3204705D01*
X1540631Y3204804D01*
X1540001Y3204627D01*
X1539834Y3204593D01*
X1539811Y3204593D01*
X1539783Y3204582D01*
X1539758Y3204577D01*
X1539375Y3204521D01*
X1533939Y3204166D01*
X1531771Y3204142D01*
X1529177Y3203034D01*
X1509999D01*
X1499999Y3201045D01*
X1499110Y3200995D01*
X1484999Y3209405D01*
Y3321051D01*
X1599997D01*
X1616814Y3324396D01*
X1631071Y3333922D01*
X1640596Y3348179D01*
X1643942Y3364996D01*
Y3382702D01*
X1651528Y3386722D01*
X1658942Y3388642D01*
X1668842Y3382027D01*
X1682498Y3379310D01*
X1690439Y3372794D01*
Y3267312D01*
X1689331Y3264736D01*
X1689301Y3262513D01*
X1689097Y3259230D01*
X1682029Y3248652D01*
X1679313Y3234996D01*
X1682029Y3221339D01*
X1689765Y3209762D01*
X1701342Y3202026D01*
X1714999Y3199310D01*
X1716960Y3199700D01*
X1731960Y3187567D01*
Y2968827D01*
X1729487Y2967868D01*
X1726134Y2964663D01*
X1723807Y2962691D01*
X1723350Y2962351D01*
X1723326Y2962335D01*
X1723298Y2962323D01*
X1723282Y2962306D01*
X1723140Y2962212D01*
X1722572Y2961894D01*
X1722053Y2961235D01*
X1716298Y2960090D01*
X1704720Y2952355D01*
X1696985Y2940777D01*
X1694268Y2927121D01*
X1696985Y2913465D01*
X1704720Y2901888D01*
X1716298Y2894152D01*
X1729954Y2891435D01*
X1743610Y2894152D01*
X1755188Y2901888D01*
X1762923Y2913465D01*
X1764068Y2919220D01*
X1764727Y2919739D01*
X1765045Y2920307D01*
X1765138Y2920448D01*
X1765156Y2920465D01*
X1765168Y2920494D01*
X1765185Y2920518D01*
X1765415Y2920828D01*
X1769010Y2924924D01*
X1770523Y2926470D01*
X1771574Y2929089D01*
X1779825Y2937339D01*
X1785903Y2946436D01*
X1788037Y2957166D01*
Y3309996D01*
X1785903Y3320726D01*
X1779825Y3329822D01*
X1775016Y3334631D01*
Y3359752D01*
X1784573Y3367595D01*
X1798229Y3370312D01*
X1809807Y3378047D01*
X1817542Y3389624D01*
X1820259Y3403281D01*
X1817542Y3416937D01*
X1809807Y3428514D01*
X1798229Y3436250D01*
X1784573Y3438966D01*
X1775016Y3446810D01*
Y3535361D01*
X1871398Y3631742D01*
X2111854D01*
X2124314Y3617495D01*
D02*
G37*
G36*
X3030068Y3341956D02*
X3028142Y3339988D01*
X3023586Y3334795D01*
X3022475Y3333302D01*
X3021566Y3331928D01*
X3020862Y3330672D01*
X3020362Y3329535D01*
X3020065Y3328517D01*
X3019971Y3327617D01*
X3005122Y3342466D01*
X3006022Y3342560D01*
X3007040Y3342857D01*
X3008177Y3343357D01*
X3009433Y3344061D01*
X3010807Y3344969D01*
X3012301Y3346081D01*
X3015643Y3348914D01*
X3019461Y3352563D01*
X3030068Y3341956D01*
D02*
G37*
G36*
X2939100Y3318255D02*
X2939322Y3317220D01*
X2939756Y3316069D01*
X2940402Y3314800D01*
X2941261Y3313415D01*
X2942332Y3311913D01*
X2945112Y3308558D01*
X2946821Y3306706D01*
X2948742Y3304737D01*
X2936872Y3295395D01*
X2934901Y3297329D01*
X2928272Y3303108D01*
X2926928Y3304062D01*
X2925708Y3304821D01*
X2924614Y3305384D01*
X2923645Y3305750D01*
X2922801Y3305920D01*
X2939091Y3319173D01*
X2939100Y3318255D01*
D02*
G37*
G36*
X1725994Y3260974D02*
X1727078Y3244720D01*
X1727370Y3243689D01*
X1727697Y3242981D01*
X1707269Y3247851D01*
X1707973Y3248418D01*
X1708604Y3249228D01*
X1709160Y3250281D01*
X1709642Y3251576D01*
X1710050Y3253114D01*
X1710384Y3254895D01*
X1710644Y3256919D01*
X1710940Y3261695D01*
X1710977Y3264446D01*
X1725977Y3264587D01*
X1725994Y3260974D01*
D02*
G37*
G36*
X2931413Y3260068D02*
X2932343Y3259559D01*
X2933501Y3259109D01*
X2934887Y3258718D01*
X2936500Y3258388D01*
X2938342Y3258118D01*
X2942710Y3257759D01*
X2947989Y3257638D01*
Y3242639D01*
X2945235Y3242608D01*
X2938342Y3242159D01*
X2936500Y3241889D01*
X2934887Y3241559D01*
X2933501Y3241169D01*
X2932343Y3240718D01*
X2931413Y3240209D01*
X2930711Y3239638D01*
Y3260639D01*
X2931413Y3260068D01*
D02*
G37*
G36*
X3394286Y3219496D02*
X3393584Y3220066D01*
X3392654Y3220575D01*
X3391496Y3221026D01*
X3390110Y3221416D01*
X3388497Y3221746D01*
X3386655Y3222016D01*
X3382287Y3222376D01*
X3377008Y3222495D01*
Y3237496D01*
X3379762Y3237526D01*
X3386655Y3237975D01*
X3388497Y3238245D01*
X3390110Y3238575D01*
X3391496Y3238966D01*
X3392654Y3239416D01*
X3393584Y3239925D01*
X3394286Y3240495D01*
Y3219496D01*
D02*
G37*
G36*
X1549286Y3164496D02*
X1548584Y3165066D01*
X1547654Y3165576D01*
X1546496Y3166026D01*
X1545110Y3166416D01*
X1543497Y3166746D01*
X1541655Y3167016D01*
X1537287Y3167376D01*
X1532008Y3167496D01*
Y3182496D01*
X1534762Y3182526D01*
X1541655Y3182976D01*
X1543497Y3183246D01*
X1545110Y3183576D01*
X1546496Y3183966D01*
X1547654Y3184416D01*
X1548584Y3184926D01*
X1549286Y3185496D01*
Y3164496D01*
D02*
G37*
G36*
X3256413Y3129926D02*
X3257343Y3129416D01*
X3258501Y3128966D01*
X3259887Y3128576D01*
X3261500Y3128246D01*
X3263342Y3127976D01*
X3267710Y3127616D01*
X3272989Y3127496D01*
Y3112496D01*
X3270235Y3112466D01*
X3263342Y3112016D01*
X3261500Y3111746D01*
X3259887Y3111416D01*
X3258501Y3111026D01*
X3257343Y3110576D01*
X3256413Y3110066D01*
X3255711Y3109496D01*
Y3130496D01*
X3256413Y3129926D01*
D02*
G37*
G36*
X1480842Y3135232D02*
X1476866Y3131047D01*
X1473302Y3126856D01*
X1470150Y3122659D01*
X1467411Y3118455D01*
X1465083Y3114246D01*
X1463168Y3110031D01*
X1461665Y3105809D01*
X1460573Y3101582D01*
X1459894Y3097348D01*
X1459627Y3093109D01*
X1428112Y3124624D01*
X1432352Y3124891D01*
X1436585Y3125570D01*
X1440813Y3126661D01*
X1445034Y3128164D01*
X1449250Y3130080D01*
X1453459Y3132407D01*
X1457662Y3135147D01*
X1461859Y3138299D01*
X1466050Y3141862D01*
X1470236Y3145839D01*
X1480842Y3135232D01*
D02*
G37*
G36*
X3599928Y3083581D02*
X3599419Y3082651D01*
X3598968Y3081493D01*
X3598578Y3080107D01*
X3598248Y3078494D01*
X3597978Y3076652D01*
X3597618Y3072284D01*
X3597499Y3067005D01*
X3582498D01*
X3582468Y3069759D01*
X3582018Y3076652D01*
X3581748Y3078494D01*
X3581419Y3080107D01*
X3581028Y3081493D01*
X3580578Y3082651D01*
X3580069Y3083581D01*
X3579499Y3084283D01*
X3600498D01*
X3599928Y3083581D01*
D02*
G37*
G36*
X3273204Y3085050D02*
X3274057Y3084443D01*
X3275147Y3083908D01*
X3276475Y3083445D01*
X3278039Y3083053D01*
X3279841Y3082732D01*
X3281880Y3082482D01*
X3286670Y3082197D01*
X3289421Y3082161D01*
X3286474Y3067161D01*
X3283705Y3067140D01*
X3273299Y3066390D01*
X3271906Y3066111D01*
X3270743Y3065790D01*
X3269810Y3065425D01*
X3269105Y3065018D01*
X3272588Y3085727D01*
X3273204Y3085050D01*
D02*
G37*
G36*
X1489286Y3044496D02*
X1488584Y3045066D01*
X1487654Y3045576D01*
X1486496Y3046026D01*
X1485110Y3046416D01*
X1483497Y3046746D01*
X1481655Y3047016D01*
X1477287Y3047376D01*
X1473151Y3047470D01*
X1472379Y3046673D01*
X1467436Y3040957D01*
X1465417Y3038262D01*
X1463698Y3035675D01*
X1462282Y3033197D01*
X1461166Y3030827D01*
X1460352Y3028564D01*
X1459839Y3026411D01*
X1459627Y3024365D01*
X1439368Y3044624D01*
X1441414Y3044835D01*
X1443568Y3045348D01*
X1445830Y3046163D01*
X1448200Y3047278D01*
X1450679Y3048695D01*
X1453266Y3050413D01*
X1455961Y3052433D01*
X1461676Y3057376D01*
X1464696Y3060299D01*
X1472008Y3052987D01*
Y3062496D01*
X1474762Y3062526D01*
X1481655Y3062976D01*
X1483497Y3063246D01*
X1485110Y3063576D01*
X1486496Y3063965D01*
X1487654Y3064415D01*
X1488584Y3064925D01*
X1489286Y3065495D01*
Y3044496D01*
D02*
G37*
G36*
X3689928Y3008581D02*
X3689419Y3007652D01*
X3688968Y3006494D01*
X3688578Y3005108D01*
X3688248Y3003494D01*
X3687978Y3001652D01*
X3687618Y2997285D01*
X3687498Y2992005D01*
X3672499D01*
X3672468Y2994759D01*
X3672019Y3001652D01*
X3671749Y3003494D01*
X3671419Y3005108D01*
X3671028Y3006494D01*
X3670578Y3007652D01*
X3670069Y3008581D01*
X3669498Y3009284D01*
X3690499D01*
X3689928Y3008581D01*
D02*
G37*
G36*
X1468423Y2957924D02*
X1466456Y2955939D01*
X1459266Y2947841D01*
X1458836Y2947128D01*
X1458625Y2946596D01*
X1458634Y2946246D01*
X1439966Y2954126D01*
X1453896Y2971682D01*
X1468423Y2957924D01*
D02*
G37*
G36*
X3832529Y2955232D02*
X3832978Y2948340D01*
X3833248Y2946498D01*
X3833578Y2944884D01*
X3833968Y2943498D01*
X3834419Y2942340D01*
X3834928Y2941410D01*
X3835499Y2940708D01*
X3814498D01*
X3815069Y2941410D01*
X3815578Y2942340D01*
X3816028Y2943498D01*
X3816419Y2944884D01*
X3816749Y2946498D01*
X3817019Y2948340D01*
X3817378Y2952707D01*
X3817499Y2957986D01*
X3832498D01*
X3832529Y2955232D01*
D02*
G37*
G36*
X1434286Y2939995D02*
X1434287Y2929495D01*
X1434044Y2929590D01*
X1433512Y2929675D01*
X1432689Y2929750D01*
X1426502Y2929950D01*
X1418819Y2929995D01*
Y2929996D01*
X1418818D01*
Y2939995D01*
X1418817Y2949995D01*
X1418818D01*
Y2949996D01*
X1434286Y2950495D01*
Y2939995D01*
D02*
G37*
G36*
X1755050Y2941610D02*
X1753124Y2939642D01*
X1748568Y2934450D01*
X1747456Y2932956D01*
X1746548Y2931582D01*
X1745844Y2930326D01*
X1745344Y2929189D01*
X1745047Y2928171D01*
X1744953Y2927271D01*
X1730104Y2942120D01*
X1731004Y2942214D01*
X1732022Y2942511D01*
X1733159Y2943011D01*
X1734415Y2943715D01*
X1735789Y2944624D01*
X1737283Y2945735D01*
X1740625Y2948568D01*
X1744443Y2952217D01*
X1755050Y2941610D01*
D02*
G37*
G36*
X3482528Y2925232D02*
X3482978Y2918340D01*
X3483248Y2916498D01*
X3483578Y2914884D01*
X3483968Y2913498D01*
X3484418Y2912340D01*
X3484928Y2911410D01*
X3485498Y2910708D01*
X3464499D01*
X3465069Y2911410D01*
X3465578Y2912340D01*
X3466028Y2913498D01*
X3466419Y2914884D01*
X3466748Y2916498D01*
X3467018Y2918340D01*
X3467378Y2922707D01*
X3467498Y2927986D01*
X3482498D01*
X3482528Y2925232D01*
D02*
G37*
G36*
X3290094Y2914485D02*
X3288168Y2912516D01*
X3283612Y2907324D01*
X3282501Y2905831D01*
X3281593Y2904456D01*
X3280889Y2903200D01*
X3280388Y2902064D01*
X3280091Y2901045D01*
X3279998Y2900146D01*
X3265149Y2914995D01*
X3266048Y2915088D01*
X3267066Y2915385D01*
X3268203Y2915886D01*
X3269459Y2916590D01*
X3270834Y2917498D01*
X3272327Y2918609D01*
X3275670Y2921443D01*
X3279487Y2925091D01*
X3290094Y2914485D01*
D02*
G37*
G36*
X1471579Y2904720D02*
X1472321Y2905424D01*
X1481145Y2893036D01*
X1480948Y2892828D01*
X1483082Y2890119D01*
X1482164Y2890122D01*
X1481129Y2889913D01*
X1479977Y2889489D01*
X1478708Y2888851D01*
X1477322Y2888000D01*
X1475820Y2886934D01*
X1474830Y2886116D01*
X1473496Y2884550D01*
X1470299Y2880308D01*
X1467520Y2876065D01*
X1465159Y2871823D01*
X1463217Y2867580D01*
X1461692Y2863337D01*
X1460586Y2859095D01*
X1459897Y2854852D01*
X1459627Y2850609D01*
X1430612Y2884624D01*
X1434848Y2884887D01*
X1439069Y2885554D01*
X1443275Y2886624D01*
X1447468Y2888098D01*
X1451646Y2889977D01*
X1455810Y2892258D01*
X1459959Y2894944D01*
X1464094Y2898034D01*
X1465539Y2899259D01*
X1467231Y2901191D01*
X1468192Y2902529D01*
X1468958Y2903740D01*
X1469529Y2904825D01*
X1469905Y2905783D01*
X1470086Y2906614D01*
X1471579Y2904720D01*
D02*
G37*
G36*
X3645091Y2913946D02*
X3645388Y2912928D01*
X3645889Y2911791D01*
X3646593Y2910535D01*
X3647501Y2909161D01*
X3648612Y2907667D01*
X3651446Y2904325D01*
X3655094Y2900507D01*
X3644488Y2889900D01*
X3642519Y2891826D01*
X3637327Y2896382D01*
X3635834Y2897493D01*
X3634459Y2898401D01*
X3633203Y2899105D01*
X3632066Y2899606D01*
X3631048Y2899903D01*
X3630149Y2899996D01*
X3644998Y2914846D01*
X3645091Y2913946D01*
D02*
G37*
G36*
X3559238Y3111957D02*
X3557029Y3108652D01*
X3554313Y3094996D01*
X3557029Y3081339D01*
X3560289Y3076460D01*
X3560190Y3075628D01*
X3560367Y3074999D01*
X3560402Y3074832D01*
X3560401Y3074809D01*
X3560412Y3074780D01*
X3560417Y3074755D01*
X3560473Y3074373D01*
X3560828Y3068936D01*
X3560852Y3066770D01*
X3561960Y3064174D01*
Y2898004D01*
X3564094Y2887274D01*
X3570172Y2878178D01*
X3702372Y2745978D01*
Y1933506D01*
X3512130Y1743265D01*
X3355182D01*
X3352681Y1744368D01*
X3348045Y1744474D01*
X3345003Y1744724D01*
X3344438Y1744807D01*
X3344412Y1744813D01*
X3344384Y1744824D01*
X3344362Y1744823D01*
X3344195Y1744857D01*
X3343565Y1745034D01*
X3342733Y1744935D01*
X3337854Y1748195D01*
X3324198Y1750912D01*
X3310542Y1748195D01*
X3305732Y1744982D01*
X3299935Y1753657D01*
X3213037Y1840555D01*
Y2138027D01*
X3344556Y2269545D01*
X3350634Y2278642D01*
X3352768Y2289372D01*
Y2713818D01*
X3353872Y2716321D01*
X3353977Y2720956D01*
X3354228Y2723997D01*
X3354311Y2724562D01*
X3354316Y2724588D01*
X3354327Y2724616D01*
X3354326Y2724639D01*
X3354360Y2724805D01*
X3354538Y2725435D01*
X3354439Y2726267D01*
X3357699Y2731146D01*
X3360415Y2744802D01*
X3357699Y2758459D01*
X3349963Y2770036D01*
X3338386Y2777772D01*
X3324729Y2780488D01*
X3311073Y2777772D01*
X3299496Y2770036D01*
X3287990Y2768903D01*
X3282071Y2774822D01*
X3272974Y2780900D01*
X3262244Y2783034D01*
X3255983D01*
X3253480Y2784138D01*
X3248845Y2784243D01*
X3245804Y2784494D01*
X3245239Y2784577D01*
X3245213Y2784582D01*
X3245185Y2784593D01*
X3245162Y2784593D01*
X3244996Y2784627D01*
X3244366Y2784804D01*
X3243534Y2784705D01*
X3238655Y2787965D01*
X3224999Y2790681D01*
X3211342Y2787965D01*
X3199765Y2780229D01*
X3192029Y2768652D01*
X3189313Y2754996D01*
X3192029Y2741339D01*
X3199765Y2729762D01*
X3211342Y2722027D01*
X3215541Y2721191D01*
X3214308Y2714993D01*
X3217025Y2701336D01*
X3220285Y2696457D01*
X3220186Y2695625D01*
X3220363Y2694996D01*
X3220397Y2694828D01*
X3220397Y2694806D01*
X3220408Y2694777D01*
X3220413Y2694752D01*
X3220469Y2694370D01*
X3220824Y2688933D01*
X3220847Y2686767D01*
X3221955Y2684171D01*
Y2304032D01*
X3110172Y2192249D01*
X3104094Y2183152D01*
X3101960Y2172422D01*
Y1873169D01*
X2982494Y1753703D01*
X2970232Y1745229D01*
X2958655Y1752965D01*
X2944999Y1755681D01*
X2931342Y1752965D01*
X2919765Y1745229D01*
X2912029Y1733652D01*
X2909313Y1719996D01*
X2912029Y1706339D01*
X2919765Y1694762D01*
X2931342Y1687026D01*
X2944999Y1684310D01*
X2956960Y1686689D01*
X2960424Y1685810D01*
X2971960Y1677876D01*
Y1649055D01*
X2974094Y1638325D01*
X2979392Y1630396D01*
X2979313Y1629996D01*
X2980698Y1623034D01*
X2970912Y1608034D01*
X2969998D01*
X2959268Y1605900D01*
X2950172Y1599822D01*
X2939902Y1589552D01*
X2939076Y1589578D01*
X2924597Y1595460D01*
X2923135Y1602810D01*
Y1656274D01*
X2920613Y1668955D01*
X2913430Y1679705D01*
X2734705Y1858429D01*
X2723955Y1865612D01*
X2711274Y1868135D01*
X2698724D01*
X2690902Y1875956D01*
Y1946664D01*
X2705903Y1957362D01*
X2710921Y1956363D01*
X2724577Y1959080D01*
X2736155Y1966815D01*
X2743890Y1978393D01*
X2746607Y1992049D01*
X2743890Y2005705D01*
X2739583Y2012152D01*
X2739598Y2012681D01*
X2745674Y2027250D01*
X2745961Y2027550D01*
X2753651Y2029080D01*
X2765229Y2036816D01*
X2767656Y2040448D01*
X2768765Y2040423D01*
X2782683Y2035938D01*
X2784566Y2026469D01*
X2792165Y2015097D01*
X2784530Y2003670D01*
X2781813Y1990013D01*
X2784530Y1976357D01*
X2791972Y1965219D01*
X2791820Y1965117D01*
X2784084Y1953540D01*
X2781368Y1939884D01*
X2784084Y1926228D01*
X2791820Y1914650D01*
X2803397Y1906915D01*
X2813055Y1904993D01*
Y1889700D01*
X2803122Y1887724D01*
X2791545Y1879988D01*
X2783809Y1868411D01*
X2781092Y1854754D01*
X2783809Y1841098D01*
X2791545Y1829521D01*
X2803122Y1821785D01*
X2816778Y1819069D01*
X2830435Y1821785D01*
X2842012Y1829521D01*
X2849747Y1841098D01*
X2852464Y1854754D01*
X2849747Y1868411D01*
X2842012Y1879988D01*
X2830435Y1887724D01*
X2820777Y1889645D01*
Y1904938D01*
X2830710Y1906915D01*
X2840573Y1913505D01*
X2843597Y1913622D01*
X2848414Y1915841D01*
X2853487Y1916850D01*
X2862583Y1922928D01*
X2883823Y1944168D01*
X2889901Y1953264D01*
X2892035Y1963994D01*
Y2347775D01*
X2899999Y2354310D01*
X2913655Y2357027D01*
X2925232Y2364762D01*
X2932968Y2376339D01*
X2935684Y2389996D01*
X2932968Y2403652D01*
X2925232Y2415229D01*
X2913655Y2422965D01*
X2899999Y2425681D01*
X2892035Y2432217D01*
Y2577380D01*
X2897915Y2583260D01*
X2900465Y2584249D01*
X2903819Y2587454D01*
X2906145Y2589426D01*
X2906603Y2589766D01*
X2906627Y2589782D01*
X2906655Y2589794D01*
X2906671Y2589811D01*
X2906813Y2589905D01*
X2907381Y2590223D01*
X2907899Y2590882D01*
X2913655Y2592027D01*
X2925232Y2599762D01*
X2932968Y2611339D01*
X2935684Y2624996D01*
X2932968Y2638652D01*
X2925232Y2650229D01*
X2913655Y2657965D01*
X2899999Y2660681D01*
X2886342Y2657965D01*
X2875093Y2650449D01*
X2874710Y2650234D01*
X2857649Y2651612D01*
X2855232Y2655229D01*
X2843655Y2662965D01*
X2829999Y2665681D01*
X2820684Y2673326D01*
Y2679996D01*
X2817968Y2693652D01*
X2810232Y2705229D01*
X2775684Y2739777D01*
Y2985914D01*
X2779919Y2989390D01*
X3079995D01*
X3088455Y2979080D01*
X3091172Y2965424D01*
X3098907Y2953847D01*
X3110485Y2946111D01*
X3124141Y2943394D01*
X3137797Y2946111D01*
X3149375Y2953847D01*
X3157110Y2965424D01*
X3159827Y2979080D01*
X3162871Y2982790D01*
X3180993Y2983534D01*
X3199765Y2964762D01*
X3211342Y2957026D01*
X3224999Y2954310D01*
X3238655Y2957026D01*
X3250232Y2964762D01*
X3250972Y2965869D01*
X3253586Y2966724D01*
X3266960Y2959824D01*
Y2941684D01*
X3264532Y2940742D01*
X3261178Y2937538D01*
X3258852Y2935566D01*
X3258395Y2935226D01*
X3258370Y2935210D01*
X3258342Y2935197D01*
X3258326Y2935180D01*
X3258184Y2935087D01*
X3257616Y2934768D01*
X3257098Y2934110D01*
X3251342Y2932965D01*
X3239765Y2925229D01*
X3232029Y2913652D01*
X3229313Y2899996D01*
X3232029Y2886339D01*
X3239765Y2874762D01*
X3251342Y2867027D01*
X3264999Y2864310D01*
X3278655Y2867027D01*
X3290232Y2874762D01*
X3297968Y2886339D01*
X3299113Y2892095D01*
X3299771Y2892613D01*
X3300089Y2893181D01*
X3300183Y2893323D01*
X3300200Y2893339D01*
X3300213Y2893368D01*
X3300229Y2893393D01*
X3300459Y2893702D01*
X3304054Y2897799D01*
X3305567Y2899345D01*
X3306618Y2901963D01*
X3314825Y2910169D01*
X3317882Y2914745D01*
X3332012Y2908892D01*
X3329970Y2898630D01*
X3332687Y2884974D01*
X3340423Y2873397D01*
X3352000Y2865661D01*
X3365656Y2862944D01*
X3379313Y2865661D01*
X3390890Y2873397D01*
X3398625Y2884974D01*
X3401342Y2898630D01*
X3401212Y2899282D01*
X3405903Y2906302D01*
X3408037Y2917032D01*
Y2970191D01*
X3421895Y2975931D01*
X3446960Y2950867D01*
Y2930980D01*
X3445856Y2928478D01*
X3445751Y2923843D01*
X3445500Y2920801D01*
X3445417Y2920236D01*
X3445412Y2920210D01*
X3445401Y2920182D01*
X3445402Y2920160D01*
X3445368Y2919993D01*
X3445190Y2919363D01*
X3445289Y2918531D01*
X3442029Y2913652D01*
X3439313Y2899996D01*
X3442029Y2886339D01*
X3449765Y2874762D01*
X3461342Y2867027D01*
X3474998Y2864310D01*
X3488655Y2867027D01*
X3500232Y2874762D01*
X3507968Y2886339D01*
X3510684Y2899996D01*
X3507968Y2913652D01*
X3504707Y2918531D01*
X3504807Y2919363D01*
X3504630Y2919993D01*
X3504595Y2920160D01*
X3504596Y2920183D01*
X3504585Y2920211D01*
X3504579Y2920236D01*
X3504524Y2920619D01*
X3504169Y2926055D01*
X3504145Y2928222D01*
X3503037Y2930817D01*
Y2962480D01*
X3500903Y2973210D01*
X3494825Y2982307D01*
X3447694Y3029437D01*
X3449134Y3044051D01*
X3456869Y3055628D01*
X3459586Y3069284D01*
X3456869Y3082940D01*
X3449134Y3094518D01*
X3437556Y3102253D01*
X3423900Y3104970D01*
X3410244Y3102253D01*
X3398667Y3094518D01*
X3384053Y3093079D01*
X3364032Y3113099D01*
X3369772Y3126957D01*
X3551220D01*
X3559238Y3111957D01*
D02*
G37*
G36*
X1459380Y2796511D02*
X1461291Y2794619D01*
X1463436Y2792949D01*
X1465815Y2791502D01*
X1468428Y2790278D01*
X1471275Y2789276D01*
X1474355Y2788497D01*
X1477669Y2787940D01*
X1481218Y2787607D01*
X1484999Y2787495D01*
Y2772495D01*
X1481218Y2772384D01*
X1477670Y2772050D01*
X1474355Y2771493D01*
X1471275Y2770714D01*
X1468429Y2769713D01*
X1465816Y2768488D01*
X1463437Y2767041D01*
X1461291Y2765371D01*
X1459380Y2763479D01*
X1457702Y2761364D01*
X1457702Y2798626D01*
X1459380Y2796511D01*
D02*
G37*
G36*
X1497478Y2778165D02*
X1502670Y2773609D01*
X1504163Y2772498D01*
X1505538Y2771590D01*
X1506794Y2770886D01*
X1507931Y2770385D01*
X1508949Y2770088D01*
X1509848Y2769995D01*
X1494999Y2755146D01*
X1494906Y2756045D01*
X1494609Y2757064D01*
X1494108Y2758200D01*
X1493404Y2759456D01*
X1492496Y2760831D01*
X1491385Y2762324D01*
X1488551Y2765667D01*
X1484903Y2769485D01*
X1495510Y2780091D01*
X1497478Y2778165D01*
D02*
G37*
G36*
X4169286Y2744496D02*
X4168584Y2745066D01*
X4167654Y2745576D01*
X4166496Y2746026D01*
X4165110Y2746416D01*
X4163497Y2746746D01*
X4161655Y2747016D01*
X4157287Y2747376D01*
X4152008Y2747496D01*
Y2762496D01*
X4154762Y2762526D01*
X4161655Y2762976D01*
X4163497Y2763246D01*
X4165110Y2763576D01*
X4166496Y2763966D01*
X4167654Y2764416D01*
X4168584Y2764926D01*
X4169286Y2765496D01*
Y2744496D01*
D02*
G37*
G36*
X3236413Y2764926D02*
X3237343Y2764416D01*
X3238501Y2763966D01*
X3239887Y2763576D01*
X3241501Y2763246D01*
X3243343Y2762976D01*
X3247710Y2762616D01*
X3252989Y2762496D01*
Y2747496D01*
X3250235Y2747466D01*
X3243343Y2747016D01*
X3241501Y2746746D01*
X3239887Y2746416D01*
X3238501Y2746026D01*
X3237343Y2745576D01*
X3236413Y2745066D01*
X3235711Y2744496D01*
Y2765496D01*
X3236413Y2764926D01*
D02*
G37*
G36*
X3334659Y2733388D02*
X3334150Y2732458D01*
X3333699Y2731300D01*
X3333309Y2729914D01*
X3332979Y2728301D01*
X3332709Y2726459D01*
X3332349Y2722091D01*
X3332230Y2716812D01*
X3317229D01*
X3317199Y2719566D01*
X3316750Y2726459D01*
X3316480Y2728301D01*
X3316150Y2729914D01*
X3315759Y2731300D01*
X3315309Y2732458D01*
X3314800Y2733388D01*
X3314230Y2734090D01*
X3335229D01*
X3334659Y2733388D01*
D02*
G37*
G36*
X1433276Y2689911D02*
X1433033Y2690006D01*
X1432500Y2690091D01*
X1431678Y2690166D01*
X1425491Y2690366D01*
X1417808Y2690411D01*
Y2710411D01*
X1433276Y2710911D01*
Y2689911D01*
D02*
G37*
G36*
X3259924Y2703578D02*
X3259414Y2702648D01*
X3258964Y2701490D01*
X3258574Y2700104D01*
X3258244Y2698491D01*
X3257974Y2696649D01*
X3257614Y2692281D01*
X3257494Y2687002D01*
X3242494D01*
X3242464Y2689756D01*
X3242014Y2696649D01*
X3241744Y2698491D01*
X3241414Y2700104D01*
X3241024Y2701490D01*
X3240574Y2702648D01*
X3240064Y2703578D01*
X3239494Y2704280D01*
X3260494D01*
X3259924Y2703578D01*
D02*
G37*
G36*
X1514556Y2635939D02*
X1513675Y2635812D01*
X1512673Y2635485D01*
X1511550Y2634957D01*
X1510306Y2634230D01*
X1508942Y2633302D01*
X1505850Y2630845D01*
X1504123Y2629317D01*
X1500307Y2625659D01*
X1489174Y2635740D01*
X1491098Y2637708D01*
X1495625Y2642909D01*
X1496719Y2644407D01*
X1497607Y2645788D01*
X1498287Y2647052D01*
X1498760Y2648198D01*
X1499025Y2649227D01*
X1499084Y2650138D01*
X1514556Y2635939D01*
D02*
G37*
G36*
X1459761Y2635926D02*
X1461562Y2634157D01*
X1463586Y2632596D01*
X1465835Y2631242D01*
X1468308Y2630098D01*
X1471006Y2629161D01*
X1473927Y2628432D01*
X1477073Y2627912D01*
X1480443Y2627599D01*
X1484036Y2627495D01*
Y2612495D01*
X1480443Y2612391D01*
X1477073Y2612079D01*
X1473927Y2611558D01*
X1471006Y2610830D01*
X1468308Y2609893D01*
X1465835Y2608748D01*
X1463586Y2607395D01*
X1461562Y2605833D01*
X1459761Y2604064D01*
X1458185Y2602086D01*
Y2637904D01*
X1459761Y2635926D01*
D02*
G37*
G36*
X2839928Y2618582D02*
X2839419Y2617652D01*
X2838968Y2616494D01*
X2838578Y2615108D01*
X2838248Y2613494D01*
X2837978Y2611652D01*
X2837618Y2607285D01*
X2837499Y2602005D01*
X2822498D01*
X2822468Y2604759D01*
X2822018Y2611652D01*
X2821748Y2613494D01*
X2821419Y2615108D01*
X2821028Y2616494D01*
X2820578Y2617652D01*
X2820069Y2618582D01*
X2819499Y2619284D01*
X2840498D01*
X2839928Y2618582D01*
D02*
G37*
G36*
X2899848Y2609997D02*
X2898949Y2609903D01*
X2897931Y2609606D01*
X2896794Y2609106D01*
X2895538Y2608401D01*
X2894163Y2607493D01*
X2892670Y2606382D01*
X2889327Y2603549D01*
X2885510Y2599900D01*
X2874903Y2610507D01*
X2876829Y2612475D01*
X2881385Y2617667D01*
X2882496Y2619161D01*
X2883404Y2620535D01*
X2884108Y2621791D01*
X2884609Y2622928D01*
X2884906Y2623946D01*
X2884999Y2624846D01*
X2899848Y2609997D01*
D02*
G37*
G36*
X1529253Y2529944D02*
X1528544Y2530495D01*
X1527608Y2530987D01*
X1526445Y2531422D01*
X1525054Y2531799D01*
X1523436Y2532118D01*
X1521591Y2532378D01*
X1517218Y2532726D01*
X1511936Y2532842D01*
X1511535Y2547842D01*
X1514287Y2547873D01*
X1521173Y2548338D01*
X1523010Y2548616D01*
X1524619Y2548957D01*
X1525999Y2549359D01*
X1527151Y2549824D01*
X1528073Y2550350D01*
X1528767Y2550939D01*
X1529253Y2529944D01*
D02*
G37*
G36*
X1458227Y2559787D02*
X1470433Y2553151D01*
X1474138Y2551529D01*
X1477660Y2550202D01*
X1481001Y2549169D01*
X1484160Y2548432D01*
X1487137Y2547990D01*
X1489932Y2547842D01*
Y2532842D01*
X1487334Y2532695D01*
X1484533Y2532252D01*
X1481530Y2531515D01*
X1478324Y2530483D01*
X1474916Y2529155D01*
X1467491Y2525616D01*
X1463474Y2523404D01*
X1454832Y2518096D01*
X1453795Y2562589D01*
X1458227Y2559787D01*
D02*
G37*
G36*
X1458741Y2479440D02*
X1470869Y2472804D01*
X1474527Y2471182D01*
X1481266Y2468823D01*
X1484347Y2468085D01*
X1487034Y2467674D01*
X1491655Y2467976D01*
X1493497Y2468246D01*
X1495110Y2468575D01*
X1496496Y2468966D01*
X1497654Y2469416D01*
X1498584Y2469925D01*
X1499286Y2470495D01*
Y2449496D01*
X1498584Y2450066D01*
X1497654Y2450575D01*
X1496496Y2451026D01*
X1495110Y2451416D01*
X1493497Y2451746D01*
X1491655Y2452016D01*
X1487467Y2452361D01*
X1487236Y2452348D01*
X1484347Y2451906D01*
X1481266Y2451168D01*
X1477992Y2450136D01*
X1474527Y2448809D01*
X1467018Y2445270D01*
X1462976Y2443058D01*
X1454314Y2437749D01*
Y2482242D01*
X1458741Y2479440D01*
D02*
G37*
G36*
X1518532Y2398618D02*
X1518829Y2397599D01*
X1519330Y2396462D01*
X1520034Y2395207D01*
X1520942Y2393832D01*
X1522053Y2392339D01*
X1524887Y2388996D01*
X1528535Y2385178D01*
X1517929Y2374572D01*
X1515960Y2376497D01*
X1510768Y2381053D01*
X1509275Y2382165D01*
X1507900Y2383073D01*
X1506644Y2383777D01*
X1505508Y2384277D01*
X1504489Y2384574D01*
X1503590Y2384668D01*
X1518439Y2399517D01*
X1518532Y2398618D01*
D02*
G37*
G36*
X1494327Y2361443D02*
X1497670Y2358609D01*
X1499163Y2357498D01*
X1500538Y2356590D01*
X1501794Y2355886D01*
X1502931Y2355385D01*
X1503949Y2355088D01*
X1504848Y2354995D01*
X1489999Y2340146D01*
X1489906Y2341045D01*
X1489609Y2342063D01*
X1489108Y2343200D01*
X1488404Y2344456D01*
X1487496Y2345831D01*
X1486385Y2347324D01*
X1481829Y2352516D01*
X1479903Y2354484D01*
X1490510Y2365091D01*
X1494327Y2361443D01*
D02*
G37*
G36*
X1520091Y2338946D02*
X1520388Y2337928D01*
X1520889Y2336791D01*
X1521593Y2335535D01*
X1522501Y2334160D01*
X1523612Y2332667D01*
X1526446Y2329325D01*
X1530094Y2325507D01*
X1519487Y2314900D01*
X1517519Y2316826D01*
X1512327Y2321382D01*
X1510834Y2322493D01*
X1509459Y2323401D01*
X1508203Y2324105D01*
X1507066Y2324606D01*
X1506048Y2324903D01*
X1505149Y2324996D01*
X1519998Y2339845D01*
X1520091Y2338946D01*
D02*
G37*
G36*
X1459569Y2314038D02*
X1460378Y2313190D01*
X1461552Y2312441D01*
X1463091Y2311792D01*
X1464996Y2311244D01*
X1467266Y2310794D01*
X1469901Y2310445D01*
X1476267Y2310046D01*
X1479998Y2309996D01*
Y2289996D01*
X1476267Y2289946D01*
X1467266Y2289198D01*
X1464996Y2288748D01*
X1463091Y2288199D01*
X1461552Y2287551D01*
X1460378Y2286802D01*
X1459569Y2285954D01*
X1459126Y2285006D01*
Y2289709D01*
X1454486Y2289585D01*
X1454910Y2310581D01*
X1455165Y2310469D01*
X1455707Y2310370D01*
X1456538Y2310282D01*
X1459126Y2310164D01*
Y2314986D01*
X1459569Y2314038D01*
D02*
G37*
G36*
X2198825Y2317743D02*
X2197947Y2317611D01*
X2196947Y2317280D01*
X2195827Y2316748D01*
X2194585Y2316017D01*
X2193223Y2315086D01*
X2190134Y2312626D01*
X2188407Y2311096D01*
X2184591Y2307436D01*
X2173382Y2317441D01*
X2175305Y2319409D01*
X2179828Y2324611D01*
X2180920Y2326110D01*
X2181805Y2327492D01*
X2182482Y2328756D01*
X2182950Y2329903D01*
X2183212Y2330933D01*
X2183265Y2331846D01*
X2198825Y2317743D01*
D02*
G37*
G36*
X1433276Y2289799D02*
X1433033Y2289895D01*
X1432500Y2289979D01*
X1431678Y2290054D01*
X1425491Y2290254D01*
X1417808Y2290299D01*
Y2310299D01*
X1433276Y2310800D01*
Y2289799D01*
D02*
G37*
G36*
X2189238Y2232529D02*
X2194430Y2227973D01*
X2195924Y2226862D01*
X2197298Y2225954D01*
X2198554Y2225250D01*
X2199691Y2224749D01*
X2200709Y2224452D01*
X2201609Y2224359D01*
X2186760Y2209510D01*
X2186666Y2210409D01*
X2186369Y2211427D01*
X2185869Y2212564D01*
X2185165Y2213820D01*
X2184256Y2215195D01*
X2183145Y2216688D01*
X2180312Y2220031D01*
X2176663Y2223848D01*
X2187270Y2234455D01*
X2189238Y2232529D01*
D02*
G37*
G36*
X1826629Y2219260D02*
X1824703Y2217291D01*
X1820147Y2212099D01*
X1819036Y2210606D01*
X1818128Y2209231D01*
X1817424Y2207976D01*
X1816923Y2206839D01*
X1816627Y2205820D01*
X1816533Y2204921D01*
X1801684Y2219770D01*
X1802583Y2219863D01*
X1803602Y2220160D01*
X1804739Y2220661D01*
X1805994Y2221365D01*
X1807369Y2222273D01*
X1808862Y2223384D01*
X1812205Y2226218D01*
X1816023Y2229866D01*
X1826629Y2219260D01*
D02*
G37*
G36*
X1485285Y2128622D02*
X1491870Y2122787D01*
X1493191Y2121811D01*
X1494380Y2121028D01*
X1495439Y2120438D01*
X1496368Y2120042D01*
X1497166Y2119839D01*
X1480203Y2107459D01*
X1480237Y2108375D01*
X1480054Y2109408D01*
X1479654Y2110558D01*
X1479036Y2111825D01*
X1478202Y2113210D01*
X1477151Y2114711D01*
X1475882Y2116330D01*
X1472693Y2119919D01*
X1470773Y2121889D01*
X1483312Y2130563D01*
X1485285Y2128622D01*
D02*
G37*
G36*
X1510092Y2103946D02*
X1510389Y2102928D01*
X1510889Y2101791D01*
X1511593Y2100535D01*
X1512501Y2099161D01*
X1513613Y2097667D01*
X1516446Y2094325D01*
X1520094Y2090507D01*
X1509488Y2079900D01*
X1507520Y2081826D01*
X1502327Y2086382D01*
X1500834Y2087493D01*
X1499460Y2088401D01*
X1498204Y2089106D01*
X1497067Y2089606D01*
X1496049Y2089903D01*
X1495149Y2089997D01*
X1509998Y2104846D01*
X1510092Y2103946D01*
D02*
G37*
G36*
X1432841Y2050472D02*
X1432598Y2050567D01*
X1432065Y2050652D01*
X1431243Y2050727D01*
X1425056Y2050927D01*
X1417373Y2050972D01*
Y2070972D01*
X1432841Y2071472D01*
Y2050472D01*
D02*
G37*
G36*
X1315674Y1984490D02*
X1315451Y1984377D01*
X1315047Y1984071D01*
X1314463Y1983573D01*
X1308824Y1978193D01*
X1305301Y1974693D01*
X1294695Y1985300D01*
X1304491Y1995672D01*
X1315674Y1984490D01*
D02*
G37*
G36*
X2842757Y1935254D02*
X2831167Y1934804D01*
X2828226Y1949893D01*
X2842757Y1950254D01*
Y1935254D01*
D02*
G37*
G36*
X2173819Y1938833D02*
X2179011Y1934277D01*
X2180505Y1933166D01*
X2181879Y1932258D01*
X2183135Y1931553D01*
X2184272Y1931053D01*
X2185290Y1930756D01*
X2186190Y1930662D01*
X2171341Y1915813D01*
X2171247Y1916713D01*
X2170950Y1917731D01*
X2170450Y1918868D01*
X2169745Y1920124D01*
X2168837Y1921498D01*
X2167726Y1922992D01*
X2164893Y1926334D01*
X2161244Y1930152D01*
X2171851Y1940759D01*
X2173819Y1938833D01*
D02*
G37*
G36*
X1315674Y1904490D02*
X1315451Y1904377D01*
X1315047Y1904071D01*
X1314463Y1903573D01*
X1308824Y1898193D01*
X1305301Y1894693D01*
X1294695Y1905300D01*
X1304491Y1915672D01*
X1315674Y1904490D01*
D02*
G37*
G36*
X1816840Y1913536D02*
X1817770Y1913026D01*
X1818928Y1912576D01*
X1820314Y1912186D01*
X1821928Y1911856D01*
X1823770Y1911586D01*
X1828137Y1911226D01*
X1833416Y1911106D01*
Y1896106D01*
X1830663Y1896076D01*
X1823770Y1895626D01*
X1821928Y1895356D01*
X1820314Y1895026D01*
X1818928Y1894636D01*
X1817770Y1894186D01*
X1816840Y1893676D01*
X1816138Y1893106D01*
Y1914106D01*
X1816840Y1913536D01*
D02*
G37*
G36*
X3745094Y1864485D02*
X3743168Y1862516D01*
X3738612Y1857324D01*
X3737501Y1855831D01*
X3736593Y1854456D01*
X3735889Y1853201D01*
X3735388Y1852064D01*
X3735091Y1851045D01*
X3734998Y1850146D01*
X3720149Y1864995D01*
X3721048Y1865088D01*
X3722066Y1865385D01*
X3723203Y1865886D01*
X3724459Y1866590D01*
X3725834Y1867498D01*
X3727327Y1868609D01*
X3730669Y1871443D01*
X3734487Y1875091D01*
X3745094Y1864485D01*
D02*
G37*
G36*
X2684848Y1819999D02*
X2684609Y1819894D01*
X2684172Y1819578D01*
X2683538Y1819049D01*
X2679022Y1814816D01*
X2673557Y1809415D01*
X2659415Y1823557D01*
X2669999Y1834848D01*
X2684848Y1819999D01*
D02*
G37*
G36*
X1970346Y1798376D02*
X1968339Y1796356D01*
X1959985Y1787001D01*
X1959903Y1786682D01*
X1943610Y1799931D01*
X1954225Y1810539D01*
X1970346Y1798376D01*
D02*
G37*
G36*
X2491030Y1760199D02*
X2496222Y1755643D01*
X2497715Y1754532D01*
X2499090Y1753624D01*
X2500346Y1752920D01*
X2501482Y1752419D01*
X2502501Y1752122D01*
X2503400Y1752029D01*
X2488551Y1737180D01*
X2488458Y1738079D01*
X2488161Y1739098D01*
X2487660Y1740235D01*
X2486956Y1741490D01*
X2486048Y1742865D01*
X2484937Y1744358D01*
X2482103Y1747701D01*
X2478455Y1751519D01*
X2489061Y1762125D01*
X2491030Y1760199D01*
D02*
G37*
G36*
X3099883Y1740257D02*
X3100333Y1733364D01*
X3100603Y1731522D01*
X3100933Y1729909D01*
X3101323Y1728523D01*
X3101773Y1727365D01*
X3102283Y1726435D01*
X3102853Y1725733D01*
X3081853D01*
X3082423Y1726435D01*
X3082933Y1727365D01*
X3083383Y1728523D01*
X3083773Y1729909D01*
X3084103Y1731522D01*
X3084373Y1733364D01*
X3084733Y1737732D01*
X3084853Y1743011D01*
X3099853D01*
X3099883Y1740257D01*
D02*
G37*
G36*
X3335612Y1725156D02*
X3336542Y1724646D01*
X3337700Y1724196D01*
X3339086Y1723806D01*
X3340700Y1723476D01*
X3342542Y1723206D01*
X3346909Y1722846D01*
X3352188Y1722726D01*
Y1707726D01*
X3349435Y1707696D01*
X3342542Y1707246D01*
X3340700Y1706976D01*
X3339086Y1706646D01*
X3337700Y1706256D01*
X3336542Y1705806D01*
X3335612Y1705296D01*
X3334910Y1704726D01*
Y1725726D01*
X3335612Y1725156D01*
D02*
G37*
G36*
X3152252Y1703652D02*
X3151742Y1702723D01*
X3151292Y1701565D01*
X3150902Y1700178D01*
X3150572Y1698565D01*
X3150302Y1696723D01*
X3149942Y1692356D01*
X3149822Y1687076D01*
X3134822D01*
X3134792Y1689830D01*
X3134342Y1696723D01*
X3134072Y1698565D01*
X3133742Y1700178D01*
X3133352Y1701565D01*
X3132902Y1702723D01*
X3132392Y1703652D01*
X3131822Y1704354D01*
X3152822D01*
X3152252Y1703652D01*
D02*
G37*
G36*
X3252110Y1703558D02*
X3251600Y1702628D01*
X3251150Y1701470D01*
X3250760Y1700084D01*
X3250430Y1698470D01*
X3250160Y1696628D01*
X3249800Y1692261D01*
X3249680Y1686982D01*
X3234680D01*
X3234650Y1689736D01*
X3234200Y1696628D01*
X3233930Y1698470D01*
X3233600Y1700084D01*
X3233210Y1701470D01*
X3232760Y1702628D01*
X3232250Y1703558D01*
X3231680Y1704260D01*
X3252680D01*
X3252110Y1703558D01*
D02*
G37*
G36*
X3202118Y1703457D02*
X3201609Y1702527D01*
X3201158Y1701369D01*
X3200768Y1699983D01*
X3200438Y1698369D01*
X3200168Y1696527D01*
X3199808Y1692160D01*
X3199688Y1686881D01*
X3184689D01*
X3184658Y1689635D01*
X3184209Y1696527D01*
X3183939Y1698369D01*
X3183609Y1699983D01*
X3183218Y1701369D01*
X3182768Y1702527D01*
X3182259Y1703457D01*
X3181688Y1704159D01*
X3202689D01*
X3202118Y1703457D01*
D02*
G37*
G36*
X3287609Y1613284D02*
X3287631Y1610516D01*
X3288395Y1600110D01*
X3288679Y1598716D01*
X3289007Y1597551D01*
X3289378Y1596615D01*
X3289793Y1595909D01*
X3269061Y1599251D01*
X3269735Y1599871D01*
X3270338Y1600728D01*
X3270870Y1601822D01*
X3271332Y1603152D01*
X3271722Y1604719D01*
X3272041Y1606523D01*
X3272290Y1608563D01*
X3272574Y1613355D01*
X3272609Y1616105D01*
X3287609Y1613284D01*
D02*
G37*
G36*
X3234272Y1605840D02*
X3234722Y1598947D01*
X3234992Y1597105D01*
X3235322Y1595491D01*
X3235712Y1594105D01*
X3236162Y1592947D01*
X3236672Y1592017D01*
X3237242Y1591315D01*
X3216242D01*
X3216812Y1592017D01*
X3217322Y1592947D01*
X3217772Y1594105D01*
X3218162Y1595491D01*
X3218492Y1597105D01*
X3218762Y1598947D01*
X3219122Y1603314D01*
X3219242Y1608593D01*
X3234242D01*
X3234272Y1605840D01*
D02*
G37*
G36*
X2902754Y1556268D02*
X2903685Y1555758D01*
X2904843Y1555308D01*
X2906228Y1554918D01*
X2907842Y1554588D01*
X2909684Y1554318D01*
X2914052Y1553958D01*
X2919331Y1553838D01*
X2919331Y1538838D01*
X2916578Y1538808D01*
X2909685Y1538358D01*
X2907843Y1538088D01*
X2906229Y1537758D01*
X2904843Y1537368D01*
X2903685Y1536918D01*
X2902755Y1536408D01*
X2902053Y1535838D01*
X2902052Y1556838D01*
X2902754Y1556268D01*
D02*
G37*
G36*
X3001413Y1554926D02*
X3002343Y1554416D01*
X3003501Y1553966D01*
X3004887Y1553576D01*
X3006500Y1553246D01*
X3008342Y1552976D01*
X3012710Y1552616D01*
X3017989Y1552496D01*
Y1537496D01*
X3015235Y1537466D01*
X3008342Y1537016D01*
X3006500Y1536746D01*
X3004887Y1536416D01*
X3003501Y1536026D01*
X3002343Y1535576D01*
X3001413Y1535066D01*
X3000711Y1534496D01*
Y1555495D01*
X3001413Y1554926D01*
D02*
G37*
G36*
X4109461Y1506164D02*
X4121730Y1495403D01*
X4122662Y1494879D01*
X4123388Y1494608D01*
X4105457Y1483677D01*
X4105557Y1484575D01*
X4105433Y1485593D01*
X4105084Y1486730D01*
X4104511Y1487986D01*
X4103713Y1489361D01*
X4102691Y1490856D01*
X4101445Y1492470D01*
X4098279Y1496056D01*
X4096359Y1498029D01*
X4106887Y1508714D01*
X4109461Y1506164D01*
D02*
G37*
G36*
X4140094Y1404485D02*
X4138168Y1402516D01*
X4133612Y1397324D01*
X4132501Y1395831D01*
X4131593Y1394456D01*
X4130889Y1393200D01*
X4130388Y1392064D01*
X4130091Y1391045D01*
X4129998Y1390146D01*
X4115148Y1404995D01*
X4116048Y1405088D01*
X4117066Y1405385D01*
X4118203Y1405886D01*
X4119459Y1406590D01*
X4120834Y1407498D01*
X4122327Y1408609D01*
X4125669Y1411443D01*
X4129487Y1415091D01*
X4140094Y1404485D01*
D02*
G37*
%LPC*%
G36*
X4364735Y3467220D02*
X4351079Y3464503D01*
X4339502Y3456768D01*
X4331766Y3445190D01*
X4329050Y3431534D01*
X4331766Y3417878D01*
X4339502Y3406300D01*
X4351079Y3398565D01*
X4364735Y3395848D01*
X4378392Y3398565D01*
X4389969Y3406300D01*
X4397704Y3417878D01*
X4400421Y3431534D01*
X4397704Y3445190D01*
X4389969Y3456768D01*
X4378392Y3464503D01*
X4364735Y3467220D01*
D02*
G37*
G36*
X3502233Y3458449D02*
X3488576Y3455732D01*
X3476999Y3447997D01*
X3469264Y3436419D01*
X3466547Y3422763D01*
X3469264Y3409107D01*
X3476999Y3397529D01*
X3488576Y3389794D01*
X3502233Y3387077D01*
X3515889Y3389794D01*
X3527466Y3397529D01*
X3535202Y3409107D01*
X3537919Y3422763D01*
X3535202Y3436419D01*
X3527466Y3447997D01*
X3515889Y3455732D01*
X3502233Y3458449D01*
D02*
G37*
G36*
X4252297Y2476871D02*
X4124997D01*
X4095577Y2471019D01*
X4070637Y2454354D01*
X4053972Y2429413D01*
X4048120Y2399994D01*
Y2362694D01*
X4252297D01*
Y2476871D01*
D02*
G37*
G36*
Y2337294D02*
X4048120D01*
Y2299993D01*
X4053972Y2270574D01*
X4070637Y2245633D01*
X4095577Y2228968D01*
X4124997Y2223116D01*
X4252297D01*
Y2337294D01*
D02*
G37*
G36*
Y1876872D02*
X4124997D01*
X4095577Y1871020D01*
X4070637Y1854355D01*
X4053972Y1829414D01*
X4048120Y1799995D01*
Y1762695D01*
X4252297D01*
Y1876872D01*
D02*
G37*
G36*
Y1737295D02*
X4048120D01*
Y1699995D01*
X4053972Y1670575D01*
X4070637Y1645634D01*
X4095577Y1628969D01*
X4124997Y1623117D01*
X4252297D01*
Y1737295D01*
D02*
G37*
G36*
X1869413Y1655096D02*
X1855757Y1652380D01*
X1844180Y1644644D01*
X1836444Y1633067D01*
X1833728Y1619411D01*
X1836444Y1605754D01*
X1844180Y1594177D01*
X1855757Y1586441D01*
X1869413Y1583725D01*
X1883070Y1586441D01*
X1894647Y1594177D01*
X1902383Y1605754D01*
X1905099Y1619411D01*
X1902383Y1633067D01*
X1894647Y1644644D01*
X1883070Y1652380D01*
X1869413Y1655096D01*
D02*
G37*
G36*
X2639999Y1644500D02*
X2626342Y1641783D01*
X2614765Y1634048D01*
X2607029Y1622470D01*
X2604313Y1608814D01*
X2607029Y1595158D01*
X2614765Y1583580D01*
X2626342Y1575845D01*
X2639999Y1573128D01*
X2653655Y1575845D01*
X2665232Y1583580D01*
X2672968Y1595158D01*
X2675684Y1608814D01*
X2672968Y1622470D01*
X2665232Y1634048D01*
X2653655Y1641783D01*
X2639999Y1644500D01*
D02*
G37*
G36*
X3534999Y1600681D02*
X3521342Y1597965D01*
X3509765Y1590229D01*
X3502030Y1578652D01*
X3499313Y1564996D01*
X3502030Y1551339D01*
X3509765Y1539762D01*
X3521342Y1532026D01*
X3534999Y1529310D01*
X3548655Y1532026D01*
X3560232Y1539762D01*
X3567968Y1551339D01*
X3570685Y1564996D01*
X3567968Y1578652D01*
X3560232Y1590229D01*
X3548655Y1597965D01*
X3534999Y1600681D01*
D02*
G37*
G36*
X2701702Y1505536D02*
X2688046Y1502820D01*
X2676469Y1495084D01*
X2668733Y1483507D01*
X2666017Y1469851D01*
X2668733Y1456194D01*
X2676469Y1444617D01*
X2688046Y1436881D01*
X2701702Y1434165D01*
X2715359Y1436881D01*
X2726936Y1444617D01*
X2734672Y1456194D01*
X2737388Y1469851D01*
X2734672Y1483507D01*
X2726936Y1495084D01*
X2715359Y1502820D01*
X2701702Y1505536D01*
D02*
G37*
G36*
X1764999Y1500681D02*
X1751342Y1497965D01*
X1739765Y1490229D01*
X1732029Y1478652D01*
X1729313Y1464996D01*
X1732029Y1451339D01*
X1739765Y1439762D01*
X1751342Y1432026D01*
X1764999Y1429310D01*
X1778655Y1432026D01*
X1790232Y1439762D01*
X1797968Y1451339D01*
X1800684Y1464996D01*
X1797968Y1478652D01*
X1790232Y1490229D01*
X1778655Y1497965D01*
X1764999Y1500681D01*
D02*
G37*
G36*
X2914999Y1485681D02*
X2901342Y1482965D01*
X2889765Y1475229D01*
X2882030Y1463652D01*
X2879313Y1449996D01*
X2882030Y1436339D01*
X2889765Y1424762D01*
X2901342Y1417026D01*
X2914999Y1414310D01*
X2928655Y1417026D01*
X2940232Y1424762D01*
X2947968Y1436339D01*
X2950684Y1449996D01*
X2947968Y1463652D01*
X2940232Y1475229D01*
X2928655Y1482965D01*
X2914999Y1485681D01*
D02*
G37*
G36*
X2507943Y3484278D02*
X2494287Y3481561D01*
X2482709Y3473826D01*
X2474974Y3462249D01*
X2474347Y3459097D01*
X2473280Y3459310D01*
X2459623Y3456593D01*
X2448046Y3448857D01*
X2440311Y3437280D01*
X2437594Y3423624D01*
X2440311Y3409968D01*
X2448046Y3398390D01*
X2459623Y3390655D01*
X2473280Y3387938D01*
X2486936Y3390655D01*
X2498513Y3398390D01*
X2506249Y3409968D01*
X2506876Y3413119D01*
X2507943Y3412907D01*
X2521599Y3415623D01*
X2533177Y3423359D01*
X2540912Y3434936D01*
X2543629Y3448592D01*
X2540912Y3462249D01*
X2533177Y3473826D01*
X2521599Y3481561D01*
X2507943Y3484278D01*
D02*
G37*
G36*
X2597090Y3464706D02*
X2583434Y3461989D01*
X2571856Y3454253D01*
X2564121Y3442676D01*
X2561404Y3429020D01*
X2564121Y3415364D01*
X2571856Y3403786D01*
X2583434Y3396051D01*
X2597090Y3393334D01*
X2610746Y3396051D01*
X2622324Y3403786D01*
X2630059Y3415364D01*
X2632776Y3429020D01*
X2630059Y3442676D01*
X2622324Y3454253D01*
X2610746Y3461989D01*
X2597090Y3464706D01*
D02*
G37*
G36*
X2185379Y3210300D02*
X2171723Y3207584D01*
X2160146Y3199848D01*
X2152410Y3188271D01*
X2149694Y3174614D01*
X2152410Y3160958D01*
X2153599Y3159179D01*
X2157129Y3143497D01*
X2149394Y3131920D01*
X2146677Y3118263D01*
X2149394Y3104607D01*
X2157129Y3093030D01*
X2168707Y3085294D01*
X2182363Y3082578D01*
X2196019Y3085294D01*
X2207597Y3093030D01*
X2215332Y3104607D01*
X2218049Y3118263D01*
X2215332Y3131920D01*
X2214143Y3133699D01*
X2210613Y3149381D01*
X2218349Y3160958D01*
X2221065Y3174614D01*
X2218349Y3188271D01*
X2210613Y3199848D01*
X2199036Y3207584D01*
X2185379Y3210300D01*
D02*
G37*
G36*
X2264999Y3115681D02*
X2251342Y3112965D01*
X2239765Y3105229D01*
X2232029Y3093652D01*
X2229944Y3083168D01*
X2218682Y3072715D01*
X2205026Y3069998D01*
X2193449Y3062263D01*
X2185713Y3050685D01*
X2182997Y3037029D01*
X2185713Y3023373D01*
X2193449Y3011795D01*
X2205026Y3004060D01*
X2218683Y3001343D01*
X2232339Y3004060D01*
X2243916Y3011795D01*
X2251652Y3023373D01*
X2253737Y3033856D01*
X2264999Y3044310D01*
X2278655Y3047026D01*
X2290232Y3054762D01*
X2297968Y3066339D01*
X2300684Y3079996D01*
X2297968Y3093652D01*
X2290232Y3105229D01*
X2278655Y3112965D01*
X2264999Y3115681D01*
D02*
G37*
G36*
X1959998Y3033890D02*
X1946342Y3031173D01*
X1934765Y3023437D01*
X1927029Y3011860D01*
X1924313Y2998204D01*
X1927029Y2984547D01*
X1934765Y2972970D01*
X1946342Y2965235D01*
X1959998Y2962518D01*
X1973655Y2965235D01*
X1985232Y2972970D01*
X1992968Y2984547D01*
X1995684Y2998204D01*
X1992968Y3011860D01*
X1985232Y3023437D01*
X1973655Y3031173D01*
X1959998Y3033890D01*
D02*
G37*
G36*
X1889998Y2945681D02*
X1876342Y2942965D01*
X1864765Y2935229D01*
X1857029Y2923652D01*
X1854313Y2909996D01*
X1857029Y2896339D01*
X1864765Y2884762D01*
X1876342Y2877027D01*
X1889998Y2874310D01*
X1903655Y2877027D01*
X1915232Y2884762D01*
X1922967Y2896339D01*
X1925684Y2909996D01*
X1922967Y2923652D01*
X1915232Y2935229D01*
X1903655Y2942965D01*
X1889998Y2945681D01*
D02*
G37*
G36*
X2291615Y2936796D02*
X2277959Y2934079D01*
X2266382Y2926344D01*
X2258646Y2914766D01*
X2255930Y2901110D01*
X2258646Y2887454D01*
X2266382Y2875876D01*
X2266710Y2875657D01*
X2262029Y2868652D01*
X2259313Y2854996D01*
X2262029Y2841339D01*
X2269765Y2829762D01*
X2281342Y2822026D01*
X2294998Y2819310D01*
X2308655Y2822026D01*
X2320232Y2829762D01*
X2327968Y2841339D01*
X2330684Y2854996D01*
X2327968Y2868652D01*
X2320232Y2880229D01*
X2319904Y2880448D01*
X2324585Y2887454D01*
X2327301Y2901110D01*
X2324585Y2914766D01*
X2316849Y2926344D01*
X2305272Y2934079D01*
X2291615Y2936796D01*
D02*
G37*
G36*
X1895370Y2825681D02*
X1881713Y2822965D01*
X1870136Y2815229D01*
X1862400Y2803652D01*
X1859684Y2789996D01*
X1862400Y2776339D01*
X1870136Y2764762D01*
X1881713Y2757026D01*
X1895370Y2754310D01*
X1909026Y2757026D01*
X1920603Y2764762D01*
X1928339Y2776339D01*
X1931055Y2789996D01*
X1928339Y2803652D01*
X1920603Y2815229D01*
X1909026Y2822965D01*
X1895370Y2825681D01*
D02*
G37*
G36*
X1899107Y2710682D02*
X1885451Y2707966D01*
X1873874Y2700230D01*
X1866138Y2688653D01*
X1863421Y2674996D01*
X1866138Y2661340D01*
X1873874Y2649763D01*
X1885451Y2642027D01*
X1899107Y2639311D01*
X1912764Y2642027D01*
X1924341Y2649763D01*
X1932076Y2661340D01*
X1934793Y2674996D01*
X1932076Y2688653D01*
X1924341Y2700230D01*
X1912764Y2707966D01*
X1899107Y2710682D01*
D02*
G37*
G36*
X1913272Y2610681D02*
X1899615Y2607965D01*
X1888038Y2600229D01*
X1880303Y2588652D01*
X1877586Y2574996D01*
X1880303Y2561339D01*
X1888038Y2549762D01*
X1899615Y2542026D01*
X1913272Y2539310D01*
X1926928Y2542026D01*
X1938505Y2549762D01*
X1946241Y2561339D01*
X1948957Y2574996D01*
X1946241Y2588652D01*
X1938505Y2600229D01*
X1926928Y2607965D01*
X1913272Y2610681D01*
D02*
G37*
G36*
X2141585Y2775682D02*
X2127929Y2772965D01*
X2116351Y2765229D01*
X2108616Y2753652D01*
X2105899Y2739996D01*
X2108616Y2726339D01*
X2116351Y2714762D01*
X2116197Y2696825D01*
X2115260Y2695422D01*
X2112543Y2681765D01*
X2115260Y2668109D01*
X2120290Y2660580D01*
X2119765Y2660229D01*
X2112029Y2648652D01*
X2109313Y2634996D01*
X2112029Y2621339D01*
X2119765Y2609762D01*
X2131342Y2602027D01*
X2140355Y2600234D01*
X2139313Y2594996D01*
X2142029Y2581339D01*
X2149765Y2569762D01*
Y2563754D01*
X2146607Y2561645D01*
X2138872Y2550067D01*
X2136155Y2536411D01*
X2138872Y2522755D01*
X2146607Y2511177D01*
X2158184Y2503442D01*
X2171841Y2500725D01*
X2185497Y2503442D01*
X2197074Y2511177D01*
X2204810Y2522755D01*
X2206458Y2531038D01*
X2221973Y2534816D01*
X2226531Y2527994D01*
X2238109Y2520258D01*
X2251765Y2517542D01*
X2265421Y2520258D01*
X2276999Y2527994D01*
X2284734Y2539571D01*
X2287451Y2553228D01*
X2284734Y2566884D01*
X2276999Y2578461D01*
X2265421Y2586197D01*
X2251765Y2588913D01*
X2238109Y2586197D01*
X2226531Y2578461D01*
X2219740Y2568296D01*
X2216928Y2566271D01*
X2207942Y2563321D01*
X2202939Y2564057D01*
X2200536Y2569122D01*
X2200359Y2569951D01*
X2207968Y2581339D01*
X2210684Y2594996D01*
X2207968Y2608652D01*
X2200232Y2620229D01*
X2188655Y2627965D01*
X2179642Y2629758D01*
X2180684Y2634996D01*
X2177968Y2648652D01*
X2172937Y2656181D01*
X2173463Y2656532D01*
X2181198Y2668109D01*
X2183915Y2681765D01*
X2181198Y2695422D01*
X2173463Y2706999D01*
X2173617Y2724936D01*
X2174554Y2726339D01*
X2177271Y2739996D01*
X2174554Y2753652D01*
X2166819Y2765229D01*
X2155241Y2772965D01*
X2141585Y2775682D01*
D02*
G37*
G36*
X2341199Y2548810D02*
X2327543Y2546094D01*
X2315965Y2538358D01*
X2308230Y2526781D01*
X2305513Y2513125D01*
X2308230Y2499468D01*
X2315965Y2487891D01*
X2327543Y2480155D01*
X2341199Y2477439D01*
X2354855Y2480155D01*
X2366433Y2487891D01*
X2374168Y2499468D01*
X2376885Y2513125D01*
X2374168Y2526781D01*
X2366433Y2538358D01*
X2354855Y2546094D01*
X2341199Y2548810D01*
D02*
G37*
G36*
X2364999Y2440681D02*
X2351342Y2437965D01*
X2339765Y2430229D01*
X2332029Y2418652D01*
X2329313Y2404996D01*
X2332029Y2391339D01*
X2339765Y2379762D01*
X2351342Y2372026D01*
X2364999Y2369310D01*
X2378655Y2372026D01*
X2390232Y2379762D01*
X2397968Y2391339D01*
X2400684Y2404996D01*
X2397968Y2418652D01*
X2390232Y2430229D01*
X2378655Y2437965D01*
X2364999Y2440681D01*
D02*
G37*
G36*
X2196506Y2136773D02*
X2182849Y2134056D01*
X2171272Y2126321D01*
X2163536Y2114743D01*
X2160820Y2101087D01*
X2163536Y2087431D01*
X2171272Y2075853D01*
X2182849Y2068118D01*
X2196506Y2065401D01*
X2210162Y2068118D01*
X2221739Y2075853D01*
X2229475Y2087431D01*
X2232191Y2101087D01*
X2229475Y2114743D01*
X2221739Y2126321D01*
X2210162Y2134056D01*
X2196506Y2136773D01*
D02*
G37*
G36*
X2373642Y2258060D02*
X2359986Y2255343D01*
X2348409Y2247608D01*
X2340673Y2236031D01*
X2337957Y2222374D01*
X2340673Y2208718D01*
X2345996Y2200752D01*
X2349765Y2185229D01*
X2342029Y2173652D01*
X2339313Y2159996D01*
X2342029Y2146339D01*
X2349765Y2134762D01*
Y2120229D01*
X2342029Y2108652D01*
X2339313Y2094996D01*
X2342029Y2081339D01*
X2349765Y2069762D01*
X2358056Y2064222D01*
X2359198Y2059223D01*
X2359202Y2052600D01*
X2358056Y2047555D01*
X2349782Y2042026D01*
X2342046Y2030449D01*
X2339330Y2016792D01*
X2342046Y2003136D01*
X2349782Y1991559D01*
X2361359Y1983823D01*
X2375016Y1981107D01*
X2388672Y1983823D01*
X2400249Y1991559D01*
X2407985Y2003136D01*
X2410701Y2016792D01*
X2407985Y2030449D01*
X2400249Y2042026D01*
X2391958Y2047566D01*
X2390816Y2052564D01*
X2390812Y2059187D01*
X2391958Y2064233D01*
X2400232Y2069762D01*
X2407968Y2081339D01*
X2410684Y2094996D01*
X2407968Y2108652D01*
X2400232Y2120229D01*
Y2134762D01*
X2407968Y2146339D01*
X2410684Y2159996D01*
X2407968Y2173652D01*
X2402645Y2181618D01*
X2398876Y2197141D01*
X2406612Y2208718D01*
X2409328Y2222374D01*
X2406612Y2236031D01*
X2398876Y2247608D01*
X2387299Y2255343D01*
X2373642Y2258060D01*
D02*
G37*
G36*
X3089998Y2800681D02*
X3076342Y2797965D01*
X3064880Y2790307D01*
X3064753Y2790225D01*
X3050232Y2785229D01*
X3038655Y2792965D01*
X3024999Y2795681D01*
X3011342Y2792965D01*
X2999765Y2785229D01*
X2985244Y2790225D01*
X2985117Y2790306D01*
X2973655Y2797965D01*
X2959998Y2800681D01*
X2946342Y2797965D01*
X2934765Y2790229D01*
X2927029Y2778652D01*
X2924313Y2764996D01*
X2927029Y2751339D01*
X2934765Y2739762D01*
X2946342Y2732027D01*
X2959998Y2729310D01*
X2973655Y2732027D01*
X2985232Y2739762D01*
X2999753Y2734766D01*
X2999880Y2734685D01*
X3011342Y2727027D01*
X3024999Y2724310D01*
X3038655Y2727027D01*
X3050117Y2734685D01*
X3050244Y2734766D01*
X3064765Y2739762D01*
X3076342Y2732027D01*
X3089998Y2729310D01*
X3103655Y2732027D01*
X3115232Y2739762D01*
X3122968Y2751339D01*
X3125684Y2764996D01*
X3122968Y2778652D01*
X3115232Y2790229D01*
X3103655Y2797965D01*
X3089998Y2800681D01*
D02*
G37*
G36*
X3538717Y2751147D02*
X3525061Y2748430D01*
X3516509Y2742717D01*
X3508655Y2747965D01*
X3494999Y2750681D01*
X3481342Y2747965D01*
X3469765Y2740229D01*
X3462029Y2728652D01*
X3459313Y2714996D01*
X3462029Y2701339D01*
X3465289Y2696460D01*
X3465190Y2695628D01*
X3465367Y2694999D01*
X3465402Y2694832D01*
X3465401Y2694809D01*
X3465412Y2694780D01*
X3465418Y2694755D01*
X3465473Y2694373D01*
X3465828Y2688936D01*
X3465852Y2686768D01*
X3466960Y2684174D01*
Y2561610D01*
X3455172Y2549822D01*
X3449094Y2540725D01*
X3446960Y2529995D01*
Y2230815D01*
X3435365Y2221299D01*
X3434503Y2221471D01*
X3420847Y2218754D01*
X3409270Y2211019D01*
X3401534Y2199441D01*
X3398817Y2185785D01*
X3401534Y2172129D01*
X3409270Y2160551D01*
X3420847Y2152816D01*
X3434503Y2150099D01*
X3435365Y2150271D01*
X3446960Y2140755D01*
Y2081610D01*
X3435170Y2069820D01*
X3416377Y2072241D01*
X3414596Y2074907D01*
X3403019Y2082642D01*
X3389363Y2085359D01*
X3375706Y2082642D01*
X3364129Y2074907D01*
X3356393Y2063329D01*
X3353677Y2049673D01*
X3356393Y2036017D01*
X3362595Y2026735D01*
X3357345Y2018878D01*
X3354628Y2005222D01*
X3355365Y2001519D01*
X3353842Y2001216D01*
X3342265Y1993480D01*
X3334529Y1981903D01*
X3331813Y1968247D01*
X3334529Y1954590D01*
X3342265Y1943013D01*
X3353842Y1935278D01*
X3367498Y1932561D01*
X3381155Y1935278D01*
X3388534Y1940208D01*
X3418249D01*
X3433117Y1928440D01*
Y1837997D01*
X3432013Y1835495D01*
X3431908Y1830860D01*
X3431657Y1827818D01*
X3431574Y1827253D01*
X3431569Y1827227D01*
X3431558Y1827199D01*
X3431558Y1827176D01*
X3431524Y1827010D01*
X3431347Y1826380D01*
X3431446Y1825548D01*
X3428186Y1820669D01*
X3425469Y1807013D01*
X3428186Y1793356D01*
X3435921Y1781779D01*
X3447499Y1774043D01*
X3461155Y1771327D01*
X3474811Y1774043D01*
X3486389Y1781779D01*
X3494124Y1793356D01*
X3496841Y1807013D01*
X3494124Y1820669D01*
X3490864Y1825548D01*
X3490963Y1826380D01*
X3490786Y1827010D01*
X3490752Y1827177D01*
X3490752Y1827200D01*
X3490742Y1827228D01*
X3490736Y1827253D01*
X3490680Y1827636D01*
X3490326Y1833073D01*
X3490302Y1835240D01*
X3489194Y1837834D01*
Y1939538D01*
X3550835Y2001180D01*
X3556913Y2010276D01*
X3559047Y2021006D01*
Y2464392D01*
X3601714Y2507059D01*
X3607792Y2516155D01*
X3609926Y2526885D01*
Y2681365D01*
X3610954Y2683342D01*
X3610739Y2684023D01*
X3611029Y2684676D01*
X3611143Y2689236D01*
X3611405Y2692118D01*
X3611471Y2692528D01*
X3611490Y2692610D01*
X3611656Y2693139D01*
X3611643Y2693285D01*
X3611684Y2693463D01*
X3611651Y2693657D01*
X3615981Y2700138D01*
X3618697Y2713794D01*
X3615981Y2727450D01*
X3608245Y2739028D01*
X3596668Y2746763D01*
X3583012Y2749480D01*
X3569355Y2746763D01*
X3562112Y2741923D01*
X3552373Y2748430D01*
X3538717Y2751147D01*
D02*
G37*
G36*
X3164509Y2403638D02*
X3150852Y2400922D01*
X3139275Y2393186D01*
X3131540Y2381609D01*
X3128823Y2367952D01*
X3131540Y2354296D01*
X3139275Y2342719D01*
X3150852Y2334983D01*
X3164509Y2332267D01*
X3178165Y2334983D01*
X3189742Y2342719D01*
X3197478Y2354296D01*
X3200195Y2367952D01*
X3197478Y2381609D01*
X3189742Y2393186D01*
X3178165Y2400922D01*
X3164509Y2403638D01*
D02*
G37*
G36*
X3092210Y2300551D02*
X3078554Y2297835D01*
X3066977Y2290099D01*
X3059241Y2278522D01*
X3056524Y2264865D01*
X3059241Y2251209D01*
X3066977Y2239632D01*
X3078554Y2231896D01*
X3092210Y2229180D01*
X3105867Y2231896D01*
X3117444Y2239632D01*
X3125179Y2251209D01*
X3127896Y2264865D01*
X3125179Y2278522D01*
X3117444Y2290099D01*
X3105867Y2297835D01*
X3092210Y2300551D01*
D02*
G37*
G36*
X3039055Y2673181D02*
X3025399Y2670465D01*
X3013822Y2662729D01*
X3006086Y2651152D01*
X3003370Y2637496D01*
X3006086Y2623839D01*
X3010251Y2617607D01*
X3010203Y2617332D01*
X3010236Y2617184D01*
X3010222Y2617038D01*
X3010390Y2616491D01*
X3010415Y2616384D01*
X3010452Y2616147D01*
X3010827Y2610863D01*
X3010852Y2608751D01*
X3011130Y2608102D01*
X3010908Y2607431D01*
X3011960Y2605336D01*
Y2390717D01*
X2980172Y2358930D01*
X2974094Y2349834D01*
X2971960Y2339104D01*
Y2321414D01*
X2966276Y2312908D01*
X2964142Y2302178D01*
Y2295850D01*
X2963038Y2293347D01*
X2962933Y2288712D01*
X2962682Y2285671D01*
X2962599Y2285106D01*
X2962594Y2285080D01*
X2962583Y2285052D01*
X2962584Y2285029D01*
X2962550Y2284863D01*
X2962372Y2284233D01*
X2962471Y2283401D01*
X2959211Y2278522D01*
X2956495Y2264865D01*
X2959211Y2251209D01*
X2966947Y2239632D01*
X2978524Y2231896D01*
X2992180Y2229180D01*
X3005837Y2231896D01*
X3017414Y2239632D01*
X3025150Y2251209D01*
X3027866Y2264865D01*
X3025150Y2278522D01*
X3021890Y2283401D01*
X3021989Y2284233D01*
X3021812Y2284862D01*
X3021777Y2285029D01*
X3021778Y2285052D01*
X3021767Y2285081D01*
X3021762Y2285106D01*
X3021706Y2285488D01*
X3021351Y2290925D01*
X3021334Y2292429D01*
X3025903Y2299266D01*
X3028037Y2309996D01*
Y2327490D01*
X3059825Y2359277D01*
X3065903Y2368373D01*
X3068037Y2379103D01*
Y2607282D01*
X3069145Y2609886D01*
X3069169Y2612267D01*
X3069337Y2616013D01*
X3069608Y2618472D01*
X3069615Y2618510D01*
X3069681Y2618701D01*
X3069677Y2618786D01*
X3069817Y2619341D01*
X3069673Y2620320D01*
X3072025Y2623839D01*
X3074741Y2637496D01*
X3072025Y2651152D01*
X3064289Y2662729D01*
X3052712Y2670465D01*
X3039055Y2673181D01*
D02*
G37*
G36*
X3367332Y1875556D02*
X3353676Y1872839D01*
X3342099Y1865104D01*
X3334363Y1853526D01*
X3331647Y1839870D01*
X3334363Y1826214D01*
X3342099Y1814636D01*
X3353676Y1806901D01*
X3367332Y1804184D01*
X3380989Y1806901D01*
X3392566Y1814636D01*
X3400302Y1826214D01*
X3403018Y1839870D01*
X3400302Y1853526D01*
X3392566Y1865104D01*
X3380989Y1872839D01*
X3367332Y1875556D01*
D02*
G37*
%LPD*%
G36*
X3548647Y2704047D02*
X3548137Y2703117D01*
X3547687Y2701959D01*
X3547297Y2700573D01*
X3546967Y2698959D01*
X3546697Y2697117D01*
X3546337Y2692750D01*
X3546217Y2687471D01*
X3531217D01*
X3531187Y2690224D01*
X3530737Y2697117D01*
X3530467Y2698959D01*
X3530137Y2700573D01*
X3529747Y2701959D01*
X3529297Y2703117D01*
X3528787Y2704047D01*
X3528217Y2704749D01*
X3549217D01*
X3548647Y2704047D01*
D02*
G37*
G36*
X3504928Y2703581D02*
X3504419Y2702651D01*
X3503969Y2701493D01*
X3503578Y2700107D01*
X3503249Y2698494D01*
X3502979Y2696652D01*
X3502619Y2692284D01*
X3502498Y2687005D01*
X3487499D01*
X3487469Y2689759D01*
X3487019Y2696652D01*
X3486749Y2698494D01*
X3486419Y2700107D01*
X3486029Y2701493D01*
X3485578Y2702651D01*
X3485069Y2703581D01*
X3484498Y2704283D01*
X3505499D01*
X3504928Y2703581D01*
D02*
G37*
G36*
X3592680Y2702326D02*
X3592054Y2701655D01*
X3591495Y2700753D01*
X3591001Y2699620D01*
X3590573Y2698256D01*
X3590211Y2696661D01*
X3589915Y2694835D01*
X3589520Y2690488D01*
X3589388Y2685217D01*
X3574388Y2686521D01*
X3574361Y2689280D01*
X3573726Y2698045D01*
X3573434Y2699670D01*
X3573090Y2701067D01*
X3572692Y2702238D01*
X3572242Y2703182D01*
X3571739Y2703899D01*
X3592680Y2702326D01*
D02*
G37*
G36*
X3468685Y1832249D02*
X3469135Y1825357D01*
X3469405Y1823515D01*
X3469735Y1821901D01*
X3470125Y1820515D01*
X3470575Y1819357D01*
X3471085Y1818427D01*
X3471655Y1817725D01*
X3450655D01*
X3451225Y1818427D01*
X3451735Y1819357D01*
X3452185Y1820515D01*
X3452575Y1821901D01*
X3452905Y1823515D01*
X3453175Y1825357D01*
X3453535Y1829724D01*
X3453655Y1835003D01*
X3468655D01*
X3468685Y1832249D01*
D02*
G37*
G36*
X3049693Y2626749D02*
X3049233Y2625806D01*
X3048826Y2624636D01*
X3048474Y2623240D01*
X3048176Y2621617D01*
X3047742Y2617689D01*
X3047526Y2612855D01*
X3047499Y2610098D01*
X3032498Y2609005D01*
X3032466Y2611756D01*
X3031979Y2618627D01*
X3031686Y2620456D01*
X3031329Y2622055D01*
X3030907Y2623423D01*
X3030419Y2624561D01*
X3029867Y2625468D01*
X3029250Y2626145D01*
X3050208Y2627465D01*
X3049693Y2626749D01*
D02*
G37*
G36*
X2999711Y2290102D02*
X3000160Y2283209D01*
X3000430Y2281367D01*
X3000760Y2279754D01*
X3001150Y2278368D01*
X3001601Y2277210D01*
X3002110Y2276280D01*
X3002680Y2275578D01*
X2981681D01*
X2982251Y2276280D01*
X2982760Y2277210D01*
X2983210Y2278368D01*
X2983601Y2279754D01*
X2983931Y2281367D01*
X2984201Y2283209D01*
X2984560Y2287577D01*
X2984680Y2292856D01*
X2999681D01*
X2999711Y2290102D01*
D02*
G37*
D23*
X4264997Y2349994D02*
D03*
Y1749995D02*
D03*
D35*
X1299998Y3259994D02*
D03*
Y3019994D02*
D03*
Y3099994D02*
D03*
Y3179994D02*
D03*
Y2859995D02*
D03*
Y2939995D02*
D03*
Y2779995D02*
D03*
Y2699995D02*
D03*
Y2619995D02*
D03*
Y2539995D02*
D03*
Y2459996D02*
D03*
Y2379996D02*
D03*
Y2299996D02*
D03*
Y2219996D02*
D03*
Y2139996D02*
D03*
Y2059996D02*
D03*
Y1979997D02*
D03*
Y1899997D02*
D03*
Y1819997D02*
D03*
Y1739997D02*
D03*
D37*
X1314411Y1914410D02*
X1469413D01*
X1497498Y1942495D01*
Y1968177D01*
X1300974Y2060972D02*
X1443553D01*
X1299998Y2059996D02*
X1299998D01*
X1300974Y2060972D01*
X1479998Y2299996D02*
X1509999Y2269996D01*
X1300301Y2300299D02*
X1443988D01*
X1299998Y2299996D02*
X1300301Y2300299D01*
X1443988Y2299996D02*
X1479998D01*
X1299998Y2699995D02*
X1300413Y2700411D01*
X1443988D01*
X1461352Y2964996D02*
X1494999D01*
X1436351Y2939995D02*
X1461352Y2964996D01*
X1299998Y2939995D02*
X1436351D01*
X1299999Y2939996D02*
X1444999D01*
X1299998Y2939995D02*
X1299999Y2939996D01*
X1944998Y1787170D02*
X2008491Y1850663D01*
X2314331D02*
X2469999Y1694996D01*
X2008491Y1850663D02*
X2314331D01*
X1944998Y1784996D02*
Y1787170D01*
X2544996Y1694996D02*
X2684998Y1834998D01*
X2469999Y1694996D02*
X2544996D01*
X1466535Y3181532D02*
X1514998Y3229996D01*
X1445212Y3181532D02*
X1466535D01*
X1469413Y1994410D02*
X1494999Y2019996D01*
X1314411Y1994410D02*
X1469413D01*
D38*
X1470000Y1819997D02*
X1489999Y1839996D01*
X1299998Y1819997D02*
X1470000D01*
X1434639Y3259994D02*
X1439419Y3255214D01*
Y3254396D02*
Y3255214D01*
X1299998Y3259994D02*
X1434639D01*
X2144999Y3354996D02*
X2434998Y3064996D01*
X2424998Y2874996D02*
X2434998Y2884996D01*
Y3064996D01*
X3189919Y3025075D02*
X3224999Y2989996D01*
X2764999Y3039996D02*
X2779919Y3025075D01*
X3189919D01*
X1984999Y3354996D02*
X2144999D01*
X2166342Y3398652D02*
X2454998Y3109996D01*
X2694998D01*
X1960298Y3398652D02*
X2166342D01*
X1858954Y3533956D02*
X1864920Y3539922D01*
X1858954Y3499996D02*
Y3533956D01*
Y3499996D02*
X1960298Y3398652D01*
X2784998Y2409330D02*
Y2679996D01*
X2739999Y2724996D02*
X2784998Y2679996D01*
X2739999Y3014996D02*
X2764999Y3039996D01*
X2739999Y2724996D02*
Y3014996D01*
X2694998Y3109996D02*
X2764999Y3039996D01*
D39*
X2829998Y2256474D02*
Y2629996D01*
X2694998Y2121474D02*
X2829998Y2256474D01*
X3262771Y3074661D02*
X3319662D01*
X3260283Y3077149D02*
X3262771Y3074661D01*
X3194727Y3097267D02*
X3197597Y3094397D01*
X3294998Y2929996D02*
Y2982709D01*
X3197597Y3080110D02*
Y3094397D01*
Y3080110D02*
X3294998Y2982709D01*
X2924186Y3318687D02*
X2958512Y3284361D01*
X2924186Y3318687D02*
Y3320856D01*
X2919998Y3250139D02*
X2974233D01*
X2982941Y3241430D01*
X2958512Y3284361D02*
X3552348D01*
X2982941Y3241430D02*
X3173564D01*
X3229998Y3184996D01*
X3249058Y3219996D02*
X3259057Y3229996D01*
X3244999Y3219996D02*
X3249058D01*
X3259057Y3229996D02*
X3404999D01*
X3229998Y3184996D02*
X3608535D01*
X3767177Y3026353D01*
X3217611Y3147608D02*
X3224999Y3154996D01*
X3599644D02*
X3739677Y3014962D01*
X3224999Y3154996D02*
X3599644D01*
X3244999Y3119996D02*
X3317483D01*
X3198464Y3147608D02*
X3217611D01*
X3196521Y3145666D02*
X3198464Y3147608D01*
X3317483Y3119996D02*
X3474998Y2962480D01*
X3242180Y1676628D02*
Y1714972D01*
X3226742Y1661190D02*
X3242180Y1676628D01*
X3092102Y1544996D02*
X3192188Y1645082D01*
Y1714871D01*
X3080372Y1579996D02*
X3142322Y1641945D01*
Y1715067D01*
X2819923Y1942754D02*
X2842757D01*
X2817054Y1939884D02*
X2819923Y1942754D01*
X2842757D02*
X2863997Y1963994D01*
X2992180Y2264865D02*
Y2302178D01*
X2999999Y2309996D01*
X1994187Y1903606D02*
X2017130Y1880663D01*
X1660387Y1939608D02*
X2162395D01*
X2017130Y1880663D02*
X2359917D01*
X2503550Y1737030D01*
X2162395Y1939608D02*
X2186340Y1915663D01*
X3129998Y1861555D02*
Y2172422D01*
X2999999Y1731555D02*
X3129998Y1861555D01*
X3418250Y1968247D02*
X3503509Y2053506D01*
X3531009Y2021006D02*
Y2476006D01*
X3581888Y2526885D01*
X3503509Y2513506D02*
X3538717Y2548714D01*
X3503509Y2053506D02*
Y2513506D01*
X3461155Y1951152D02*
X3531009Y2021006D01*
X3474998Y2069996D02*
Y2529995D01*
X3411786Y2006783D02*
X3474998Y2069996D01*
Y2529995D02*
X3494999Y2549996D01*
X1299998Y2859995D02*
X1437498D01*
X1482499Y2904996D02*
X1484999D01*
X1437498Y2859995D02*
X1482499Y2904996D01*
X1299998Y2539995D02*
X1300345Y2540342D01*
X1539372D01*
X1539719Y2540689D01*
X1484036Y2619995D02*
X1514063Y2650022D01*
Y2650931D01*
X1484999Y2779995D02*
X1509999Y2754996D01*
X3324729Y2289372D02*
Y2744802D01*
X2694998Y2012031D02*
Y2121474D01*
X2710921Y1992049D02*
Y1996108D01*
X2694998Y2012031D02*
X2710921Y1996108D01*
X3390314Y2005222D02*
X3391875Y2006783D01*
X3411786D01*
X3538717Y2548714D02*
Y2715461D01*
X3494999Y2549996D02*
Y2714996D01*
X3004972Y3327467D02*
X3037501Y3359996D01*
X3124999D01*
X1805426Y1903606D02*
X1994187D01*
X1494999Y2104996D02*
X1660387Y1939608D01*
X2891341Y1546338D02*
X2936341D01*
X2969998Y1579996D01*
X2891341Y1546338D02*
X2891341Y1546338D01*
X3173134Y3311861D02*
X3660859D01*
X3676043Y3327045D01*
X3124999Y3359996D02*
X3173134Y3311861D01*
X3552348Y3284361D02*
X3824998Y3011710D01*
X3379999Y2917032D02*
Y3014325D01*
X3319662Y3074661D02*
X3379999Y3014325D01*
X3474998Y2899996D02*
Y2962480D01*
X1603498Y2299608D02*
X2166156D01*
X2198239Y2331691D01*
X1503440Y2399667D02*
X1603498Y2299608D01*
X1464998Y2379996D02*
X1575026Y2269968D01*
X2191701D01*
X2999999Y1649055D02*
Y1731555D01*
X3184998Y1828941D02*
X3280109Y1733831D01*
Y1589391D02*
Y1733831D01*
X3277722Y1587004D02*
X3280109Y1589391D01*
X3284994Y2288527D02*
Y2732246D01*
X3224999Y2754996D02*
X3262244D01*
X3284994Y2732246D01*
X3249994Y2292418D02*
Y2714993D01*
X3157498Y1842495D02*
Y2161031D01*
X3284994Y2288527D01*
X3129998Y2172422D02*
X3249994Y2292418D01*
X3092353Y1777350D02*
X3157498Y1842495D01*
X3184998Y2149641D02*
X3324729Y2289372D01*
X3679998Y2914996D02*
X3785411Y2809583D01*
X3629999Y2914996D02*
X3757911Y2787084D01*
X3730411Y1921893D02*
Y2757592D01*
X3719998Y1849996D02*
X3757911Y1887908D01*
X3589998Y2898004D02*
Y3094996D01*
X3785411Y1819584D02*
Y2809583D01*
Y1819584D02*
X4112499Y1492496D01*
X3589998Y2898004D02*
X3730411Y2757592D01*
X3757911Y1887908D02*
Y2787084D01*
X3767177Y2938319D02*
Y3026353D01*
X3950501Y2754996D02*
X4179998D01*
X3767177Y2938319D02*
X3950501Y2754996D01*
X1859784Y3659781D02*
X2230214D01*
X2269999Y3619996D02*
X3039998D01*
X2230214Y3659781D02*
X2269999Y3619996D01*
X3039998D02*
X3144999Y3514996D01*
X2257713Y3687281D02*
X2295125Y3649869D01*
X3050125D01*
X3179999Y3519996D01*
X1847284Y3687281D02*
X2257713D01*
X1746977Y3546975D02*
X1859784Y3659781D01*
X1718477Y3558474D02*
X1847284Y3687281D01*
X1717869Y3237866D02*
Y3248472D01*
X1718477Y3249080D02*
Y3558474D01*
X1714999Y3234996D02*
X1717869Y3237866D01*
Y3248472D02*
X1718477Y3249080D01*
X1746977Y3323017D02*
Y3546975D01*
Y3323017D02*
X1759999Y3309996D01*
X1314411Y3114408D02*
X1449410D01*
X1509999Y3174996D02*
X1559998D01*
X1449410Y3114408D02*
X1509999Y3174996D01*
X3179999Y3519996D02*
X3634999D01*
X3144999Y3419996D02*
Y3514996D01*
X3365656Y2902689D02*
X3379999Y2917032D01*
X3365656Y2898630D02*
Y2902689D01*
X3184998Y1828941D02*
Y2149641D01*
X2989999Y1544996D02*
X3092102D01*
X4164999Y1439996D02*
Y1490147D01*
X3814998Y1840147D02*
Y2339503D01*
Y1840147D02*
X4164999Y1490147D01*
X4144318Y1419315D02*
X4144318D01*
X4164999Y1439996D01*
X4114998Y1389996D02*
X4144318Y1419315D01*
X4112499Y1491555D02*
X4119998Y1484055D01*
X4112499Y1491555D02*
Y1492496D01*
X4119998Y1479996D02*
Y1484055D01*
X3092353Y1715020D02*
Y1777350D01*
X3831285Y2355790D02*
X3832579D01*
X3814998Y2339503D02*
X3831285Y2355790D01*
X3679998Y2914996D02*
Y3019996D01*
X1729954Y2927121D02*
X1759999Y2957166D01*
Y3309996D01*
X3523744Y1715226D02*
X3730411Y1921893D01*
X3324198Y1715226D02*
X3523744D01*
X3824998Y2929996D02*
Y3011710D01*
X2863997Y1963994D02*
Y2588994D01*
X2899999Y2624996D01*
X2969998Y1579996D02*
X3080372D01*
X3226742Y1580603D02*
Y1661190D01*
X1801534Y2204771D02*
X1836759Y2239996D01*
X2171123D01*
X2201759Y2209360D01*
X2198239Y2331691D02*
Y2332731D01*
X3676043Y3327045D02*
X3680102D01*
X3739677Y2900317D02*
X3919999Y2719996D01*
X3739677Y2900317D02*
Y3014962D01*
X3264999Y2899996D02*
X3294998Y2929996D01*
X3039055Y2637496D02*
X3039998Y2636553D01*
Y2379103D02*
Y2636553D01*
X3367498Y1968247D02*
X3418250D01*
X3581888Y2526885D02*
Y2712670D01*
X2999999Y2339104D02*
X3039998Y2379103D01*
X3581888Y2712670D02*
X3583012Y2713794D01*
X3461155Y1807013D02*
Y1951152D01*
X2999999Y2309996D02*
Y2339104D01*
Y1649055D02*
X3014999Y1634055D01*
Y1629996D02*
Y1634055D01*
X1299998Y1899997D02*
X1314411Y1914410D01*
X1465288Y2137980D02*
X1494999Y2108270D01*
Y2104996D02*
Y2108270D01*
X1302014Y2137980D02*
X1465288D01*
X1299998Y2139996D02*
X1302014Y2137980D01*
X3919999Y2719996D02*
X3955940D01*
X3965939Y2709996D01*
X3969998D01*
X1299998Y1979997D02*
X1314411Y1994410D01*
X1299998Y2379996D02*
X1464998D01*
X1299998Y2779995D02*
X1484999D01*
X1299998Y2779995D02*
X1299998Y2779995D01*
X1299998Y2619995D02*
X1484036D01*
X1299998Y2459996D02*
X1509999D01*
X1299998Y3099994D02*
X1314411Y3114408D01*
X1299998Y3019994D02*
X1434998D01*
X1469999Y3054996D01*
X1499999D01*
D40*
X2794999Y2270019D02*
Y2397020D01*
X2657766Y2132786D02*
X2794999Y2270019D01*
X2794999Y2397020D02*
X2794999D01*
X4202487Y1305596D02*
X4277216Y1380325D01*
Y1553782D01*
X1299998Y1739997D02*
X1416414D01*
X1422449Y1733963D01*
X3698031Y1318028D02*
X3752498Y1372496D01*
X2061966Y1318028D02*
X3698031D01*
X3752498Y1372496D02*
X3812499D01*
X3879398Y1305596D02*
X4202487D01*
X3812499Y1372496D02*
X3879398Y1305596D01*
X2009999Y1369996D02*
X2061966Y1318028D01*
X1932872Y1369996D02*
X2009999D01*
X1931743Y1371125D02*
X1932872Y1369996D01*
X2657766Y1862230D02*
Y2132786D01*
Y1862230D02*
X2684998Y1834998D01*
X2711274D01*
X2889999Y1589996D02*
Y1656274D01*
X2711274Y1834998D02*
X2889999Y1656274D01*
X2784998Y2409330D02*
X2794999Y2399329D01*
D44*
X3260283Y3077149D02*
D03*
X3194727Y3097267D02*
D03*
X2904630Y3410062D02*
D03*
X2939732Y3438383D02*
D03*
X2990757Y3437807D02*
D03*
X3039773D02*
D03*
X2922628Y3365968D02*
D03*
X2924186Y3320856D02*
D03*
X2919998Y3250139D02*
D03*
X2948362Y3207988D02*
D03*
X3009109Y3144349D02*
D03*
X2949375Y3153750D02*
D03*
X3124141Y2979080D02*
D03*
X3404999Y3229996D02*
D03*
X3244999Y3219996D02*
D03*
Y3119996D02*
D03*
X3234999Y3369996D02*
D03*
X3239999Y3419996D02*
D03*
X3367332Y1839870D02*
D03*
X3242180Y1714972D02*
D03*
X3192188Y1714871D02*
D03*
X3142322Y1715067D02*
D03*
X3042299Y1714901D02*
D03*
X2817054Y1939884D02*
D03*
X2817166Y2090047D02*
D03*
X3092210Y2264865D02*
D03*
X2992180D02*
D03*
X4419992Y3369991D02*
D03*
Y2649993D02*
D03*
X4359992Y3369991D02*
D03*
X4389992Y3309991D02*
D03*
Y2709993D02*
D03*
Y2589993D02*
D03*
X4359992Y1329995D02*
D03*
X4239992Y2649993D02*
D03*
Y2529993D02*
D03*
X4209992Y2589993D02*
D03*
X4179992Y2529993D02*
D03*
X4119992Y3489991D02*
D03*
Y2529993D02*
D03*
Y2169994D02*
D03*
X4059992Y3489991D02*
D03*
Y3369991D02*
D03*
Y2529993D02*
D03*
X3999993Y3129992D02*
D03*
Y2529993D02*
D03*
X4029992Y2469993D02*
D03*
X3999993Y2409993D02*
D03*
Y2289993D02*
D03*
X4029992Y2229994D02*
D03*
X3999993Y2169994D02*
D03*
Y1929994D02*
D03*
X4029992Y1869994D02*
D03*
X3999993Y1809994D02*
D03*
X3969993Y3189992D02*
D03*
X3939993Y2529993D02*
D03*
X3969993Y2469993D02*
D03*
X3939993Y2409993D02*
D03*
X3969993Y2349993D02*
D03*
X3939993Y2289993D02*
D03*
X3969993Y2229994D02*
D03*
X3939993Y2169994D02*
D03*
Y1929994D02*
D03*
X3969993Y1869994D02*
D03*
X3939993Y1809994D02*
D03*
X3969993Y1749994D02*
D03*
X3909993Y3189992D02*
D03*
X3879993Y2529993D02*
D03*
X3909993Y2469993D02*
D03*
X3879993Y2409993D02*
D03*
X3909993Y2349993D02*
D03*
X3879993Y2289993D02*
D03*
X3909993Y2229994D02*
D03*
X3879993Y1929994D02*
D03*
X3909993Y1869994D02*
D03*
X3849993Y3669991D02*
D03*
Y3189992D02*
D03*
Y2469993D02*
D03*
X3819993Y1689995D02*
D03*
X3849993Y1629995D02*
D03*
X3819993Y1569995D02*
D03*
X3789993Y3669991D02*
D03*
Y3429991D02*
D03*
X3759993Y3249991D02*
D03*
X3789993Y3189992D02*
D03*
Y1749994D02*
D03*
X3759993Y1689995D02*
D03*
X3789993Y1629995D02*
D03*
X3759993Y1569995D02*
D03*
X3699993Y3489991D02*
D03*
X3729993Y3429991D02*
D03*
Y3309991D02*
D03*
Y3189992D02*
D03*
Y1749994D02*
D03*
Y1629995D02*
D03*
X3639993Y3369991D02*
D03*
Y2769992D02*
D03*
Y2169994D02*
D03*
X3519993Y3009992D02*
D03*
X3549993Y2829992D02*
D03*
X3429994Y2709993D02*
D03*
X2859995Y2769992D02*
D03*
X2799995D02*
D03*
X2829995Y2709993D02*
D03*
X2679995Y3249991D02*
D03*
Y2769992D02*
D03*
Y2649993D02*
D03*
X2619995Y3249991D02*
D03*
Y2769992D02*
D03*
X2649995Y2709993D02*
D03*
X2559995Y2769992D02*
D03*
X2589995Y2709993D02*
D03*
Y2229994D02*
D03*
X2499996Y3009992D02*
D03*
X2529995Y2709993D02*
D03*
X2469996Y1629995D02*
D03*
X2349996Y2829992D02*
D03*
X2319996Y2769992D02*
D03*
X2259996D02*
D03*
X2139996Y1689995D02*
D03*
X2169996Y1629995D02*
D03*
X2079996Y1689995D02*
D03*
X2109996Y1629995D02*
D03*
X2019996Y2169994D02*
D03*
X1959997D02*
D03*
X1989997Y1749994D02*
D03*
X1899997Y3249991D02*
D03*
Y1329995D02*
D03*
X1869997Y1389995D02*
D03*
X1839997Y1329995D02*
D03*
X1809997Y1389995D02*
D03*
X1779997Y1329995D02*
D03*
X1659997Y1569995D02*
D03*
X4190876Y1586751D02*
D03*
X4277216Y1553782D02*
D03*
X4407520Y2267657D02*
D03*
X4220428Y2266070D02*
D03*
X4228173Y1834177D02*
D03*
X4039999Y1749996D02*
D03*
X4029999Y2349996D02*
D03*
X1422449Y1733963D02*
D03*
X1443553Y2060972D02*
D03*
X1443988Y2300299D02*
D03*
Y2700411D02*
D03*
X1444999Y2939996D02*
D03*
X1439419Y3254396D02*
D03*
X1489999Y1839996D02*
D03*
X2186340Y1915663D02*
D03*
X2079999Y3449996D02*
D03*
X2185379Y3174614D02*
D03*
X2182363Y3118263D02*
D03*
X2218683Y3037029D02*
D03*
X2264999Y3079996D02*
D03*
X1959998Y2998204D02*
D03*
X2141585Y2739996D02*
D03*
X2144999Y2634996D02*
D03*
X2148229Y2681765D02*
D03*
X2473280Y3423624D02*
D03*
X2489999Y3339996D02*
D03*
X2323510Y3691896D02*
D03*
X2507943Y3448592D02*
D03*
X1889998Y2909996D02*
D03*
X1484999Y2904996D02*
D03*
X2196506Y2101087D02*
D03*
X2171841Y2536411D02*
D03*
X2174998Y2594996D02*
D03*
X2424998Y2874996D02*
D03*
X1945000Y2354790D02*
D03*
X1987498Y2354341D02*
D03*
X1539719Y2540689D02*
D03*
X1514063Y2650931D02*
D03*
X1895370Y2789996D02*
D03*
X1899107Y2674996D02*
D03*
X1509999Y2754996D02*
D03*
X2597090Y3429020D02*
D03*
X3040512Y3567937D02*
D03*
X3324729Y2744802D02*
D03*
X2517110Y1834998D02*
D03*
X3288464Y1389625D02*
D03*
X2710921Y1992049D02*
D03*
X2739995Y2062049D02*
D03*
X3390314Y2005222D02*
D03*
X3309998Y1999996D02*
D03*
X3538717Y2715461D02*
D03*
X3494999Y2714996D02*
D03*
X2291615Y2901110D02*
D03*
X3004972Y3327467D02*
D03*
X1869413Y1619411D02*
D03*
X1805426Y1903606D02*
D03*
X1509946Y2694943D02*
D03*
X1497498Y1968177D02*
D03*
X3055641Y1390596D02*
D03*
X2639999Y1608814D02*
D03*
X2891341Y1546338D02*
D03*
X3325106Y3018926D02*
D03*
X3785516Y1331978D02*
D03*
X3249994Y2714993D02*
D03*
X3093270Y3657496D02*
D03*
X2160000Y3617496D02*
D03*
X2095086Y3616639D02*
D03*
X1864920Y3539922D02*
D03*
X1944998Y1784996D02*
D03*
X1934998Y1834996D02*
D03*
X1658097Y1508257D02*
D03*
X1764999Y1464996D02*
D03*
X2764999Y3039996D02*
D03*
X1984999Y3354996D02*
D03*
X1925761Y3525761D02*
D03*
X2546100Y3035462D02*
D03*
X3365656Y2898630D02*
D03*
X3582435Y1996929D02*
D03*
X3572747Y2114660D02*
D03*
X3314998Y2139996D02*
D03*
Y2074996D02*
D03*
X2874999Y1804996D02*
D03*
X3094998Y1884996D02*
D03*
X3014999Y1804996D02*
D03*
X3309998Y1774996D02*
D03*
X3228102Y2127116D02*
D03*
X3669999Y1999996D02*
D03*
X3858747Y2154607D02*
D03*
X2375016Y2016792D02*
D03*
X2204998Y1699996D02*
D03*
X3904999Y1584996D02*
D03*
X2874999Y3469994D02*
D03*
X2208692Y1769817D02*
D03*
X1729954Y2927121D02*
D03*
X1931743Y1371125D02*
D03*
X4114998Y1389996D02*
D03*
X4119998Y1479996D02*
D03*
X2729995Y2104994D02*
D03*
X4289999Y1334996D02*
D03*
X3669999Y2109996D02*
D03*
X3872292Y2111888D02*
D03*
X3959351Y2109030D02*
D03*
X3862958Y1995111D02*
D03*
X3960303Y2000635D02*
D03*
X4250050Y1961055D02*
D03*
X4155050D02*
D03*
X4165050Y2136055D02*
D03*
X4255050D02*
D03*
X4370050D02*
D03*
Y1961055D02*
D03*
X4070050Y1971055D02*
D03*
X4065050Y2136055D02*
D03*
X4440050Y2141055D02*
D03*
Y1961055D02*
D03*
X4435050Y2486055D02*
D03*
Y2751055D02*
D03*
X4365050Y3671055D02*
D03*
X1690050Y1316055D02*
D03*
X1975050Y1311055D02*
D03*
X2341199Y2513125D02*
D03*
X3665615Y3601681D02*
D03*
X2701702Y1469851D02*
D03*
X2569998Y1397496D02*
D03*
X2093566Y1382235D02*
D03*
X1801534Y2204771D02*
D03*
X2251765Y2553228D02*
D03*
X2201759Y2209360D02*
D03*
X2198239Y2332731D02*
D03*
X2191701Y2269968D02*
D03*
X3423900Y3069284D02*
D03*
X3264999Y2899996D02*
D03*
X3474998D02*
D03*
X1913272Y2574996D02*
D03*
X2184998Y1981726D02*
D03*
X1809998Y2004996D02*
D03*
X3164509Y2367952D02*
D03*
X3832579Y2355790D02*
D03*
X3680102Y3327045D02*
D03*
X3679998Y3019996D02*
D03*
X4411007Y1834407D02*
D03*
X4101007Y1824407D02*
D03*
X4106007Y2274407D02*
D03*
X3434503Y2185785D02*
D03*
X2899999Y2389996D02*
D03*
X2942026Y2211607D02*
D03*
X4370261Y3088045D02*
D03*
X4024488Y3217666D02*
D03*
X2759434Y1701216D02*
D03*
X2889999Y1589996D02*
D03*
X2989999Y1544996D02*
D03*
X2794999Y2399329D02*
D03*
X2829998Y2629996D02*
D03*
X1682499Y3414996D02*
D03*
X1784573Y3403281D02*
D03*
X3174998Y3614996D02*
D03*
X3224999Y2989996D02*
D03*
X3209998Y2539996D02*
D03*
X3620001Y3565881D02*
D03*
X3634999Y3519996D02*
D03*
X3600001Y3479998D02*
D03*
X3589998Y3094996D02*
D03*
X3502233Y3422763D02*
D03*
X4364735Y3431534D02*
D03*
X2739999Y2539996D02*
D03*
X3428489Y2558485D02*
D03*
X3039055Y2637496D02*
D03*
X3939998D02*
D03*
X3874999Y2672496D02*
D03*
X3367498Y1968247D02*
D03*
X3629999Y2224996D02*
D03*
X3630000Y2419996D02*
D03*
X2455400Y2368692D02*
D03*
X2455354Y1987114D02*
D03*
X3124999Y1389996D02*
D03*
X3459998Y1384996D02*
D03*
X4079997Y3659995D02*
D03*
X4349999Y3571995D02*
D03*
X3784999Y3334996D02*
D03*
X3275470Y3470142D02*
D03*
X2874999Y3069994D02*
D03*
X2949998Y3554996D02*
D03*
X1690072Y3613332D02*
D03*
X1445212Y3181532D02*
D03*
X2684998Y1834998D02*
D03*
X4228138Y2753826D02*
D03*
X4179998Y2754996D02*
D03*
X3824998Y2929996D02*
D03*
X2899999Y2624996D02*
D03*
X3583012Y2713794D02*
D03*
X3224999Y2754996D02*
D03*
X3389363Y2049673D02*
D03*
X3196521Y3145666D02*
D03*
X3052556Y3104052D02*
D03*
X2804998Y1394996D02*
D03*
X3719998Y1849996D02*
D03*
X2503550Y1737030D02*
D03*
X3226742Y1580603D02*
D03*
X3277722Y1587004D02*
D03*
X3324198Y1715226D02*
D03*
X3092353Y1715020D02*
D03*
X3534999Y1564996D02*
D03*
X1494999Y2019996D02*
D03*
X1490177Y2183567D02*
D03*
X3064999Y1629996D02*
D03*
X3014999D02*
D03*
X2944999Y1719996D02*
D03*
X2817499Y1990013D02*
D03*
X2914999Y1449996D02*
D03*
X2817535Y2040126D02*
D03*
X3629999Y2914996D02*
D03*
X3969998Y2709996D02*
D03*
X1714999Y3234996D02*
D03*
X3549999Y1391177D02*
D03*
X3394999Y1394996D02*
D03*
X2294998Y2854996D02*
D03*
X3099999Y3324996D02*
D03*
X2374999Y2094996D02*
D03*
Y2159996D02*
D03*
X1494999Y2104996D02*
D03*
X1504999Y2339996D02*
D03*
X1539998Y3019994D02*
D03*
X1524691Y2821227D02*
D03*
X1536663Y2893920D02*
D03*
X2364999Y2404996D02*
D03*
X2373642Y2222374D02*
D03*
X2394999Y1899996D02*
D03*
X1520556Y2501163D02*
D03*
X1509999Y2459996D02*
D03*
X1528619Y2584602D02*
D03*
X1503440Y2399667D02*
D03*
X2816778Y1854754D02*
D03*
X2703618Y1768395D02*
D03*
X1559998Y3174996D02*
D03*
X2959998Y2764996D02*
D03*
X3089998D02*
D03*
X3024999Y2759996D02*
D03*
X3461155Y1807013D02*
D03*
X1499999Y3054996D02*
D03*
X2904999Y3119996D02*
D03*
X3144999Y3419996D02*
D03*
%TF.MD5,2d34a325bc8f63464ac20a70dec0a4bd*%
M02*
