%TF.GenerationSoftware,Altium Limited,Altium Designer,24.8.2 (39)*%
G04 Layer_Color=2752767*
%FSLAX45Y45*%
%MOMM*%
%TF.SameCoordinates,FBB41CCB-3D8C-4B0B-A071-B3836E82DD1E*%
%TF.FilePolarity,Positive*%
%TF.FileFunction,Drawing*%
%TF.Part,Single*%
G01*
G75*
%TA.AperFunction,NonConductor*%
%ADD34C,0.12700*%
%ADD35C,0.16933*%
D34*
X1019200Y2277201D02*
Y2378801D01*
X1120800D01*
Y2277201D01*
X1019200D01*
X1045200Y2023201D02*
Y2124801D01*
X1146800D01*
Y2023201D01*
X1045200D01*
X1019200Y1769201D02*
Y1870801D01*
X1120800D01*
Y1769201D01*
X1019200D01*
X1045200Y1515201D02*
Y1616801D01*
X1146800D01*
Y1515201D01*
X1045200D01*
X1019200Y1261201D02*
Y1362801D01*
X1120800D01*
Y1261201D01*
X1019200D01*
X1045200Y1007201D02*
Y1108801D01*
X1146800D01*
Y1007201D01*
X1045200D01*
X1019200Y753201D02*
Y854801D01*
X1120800D01*
Y753201D01*
X1019200D01*
X1273200Y2277201D02*
Y2378801D01*
X1374800D01*
Y2277201D01*
X1273200D01*
X1299200Y2023201D02*
Y2124801D01*
X1400800D01*
Y2023201D01*
X1299200D01*
X1273200Y1769201D02*
Y1870801D01*
X1374800D01*
Y1769201D01*
X1273200D01*
X1299200Y1515201D02*
Y1616801D01*
X1400800D01*
Y1515201D01*
X1299200D01*
X1273200Y1261201D02*
Y1362801D01*
X1374800D01*
Y1261201D01*
X1273200D01*
X1299200Y1007201D02*
Y1108801D01*
X1400800D01*
Y1007201D01*
X1299200D01*
X1273200Y753201D02*
Y854801D01*
X1374800D01*
Y753201D01*
X1273200D01*
X1045200Y499201D02*
Y600801D01*
X1146800D01*
Y499201D01*
X1045200D01*
X1019200Y245201D02*
Y346801D01*
X1120800D01*
Y245201D01*
X1019200D01*
X1299200Y499201D02*
Y600801D01*
X1400800D01*
Y499201D01*
X1299200D01*
X1273200Y245201D02*
Y346801D01*
X1374800D01*
Y245201D01*
X1273200D01*
X443001Y369199D02*
X392201Y470799D01*
X493801D01*
X443001Y369199D01*
X292999Y2189201D02*
X242199Y2290801D01*
X343799D01*
X292999Y2189201D01*
D35*
X574297Y1620087D02*
G03*
X574297Y1620087I-50800J0D01*
G01*
X412573Y1595124D02*
G03*
X412573Y1595124I-50800J0D01*
G01*
X412574Y1678728D02*
G03*
X412574Y1678728I-50800J0D01*
G01*
X946658Y1874378D02*
G03*
X946658Y1874378I-50800J0D01*
G01*
X859551Y891705D02*
G03*
X859551Y891705I-50800J0D01*
G01*
X959552Y1031705D02*
G03*
X959552Y1031705I-50800J0D01*
G01*
X859551Y1131705D02*
G03*
X859551Y1131705I-50800J0D01*
G01*
X1290800Y1950000D02*
G03*
X1290800Y1950000I-50800J0D01*
G01*
Y670000D02*
G03*
X1290800Y670000I-50800J0D01*
G01*
X881162Y579264D02*
G03*
X881162Y579264I-50800J0D01*
G01*
X730800Y2170000D02*
G03*
X730800Y2170000I-50800J0D01*
G01*
X360800Y490000D02*
G03*
X360800Y490000I-50800J0D01*
G01*
X756619Y497038D02*
G03*
X756619Y497038I-50800J0D01*
G01*
X860800Y2010000D02*
G03*
X860800Y2010000I-50800J0D01*
G01*
X421816Y1850527D02*
G03*
X421816Y1850527I-50800J0D01*
G01*
X422028Y1930501D02*
G03*
X422028Y1930501I-50800J0D01*
G01*
X416682Y1450076D02*
G03*
X416682Y1450076I-50800J0D01*
G01*
X506156Y1763670D02*
G03*
X506156Y1763670I-50800J0D01*
G01*
X870800Y1550000D02*
G03*
X870800Y1550000I-50800J0D01*
G01*
X910800Y200000D02*
G03*
X910800Y200000I-50800J0D01*
G01*
X880800Y2440000D02*
G03*
X880800Y2440000I-50800J0D01*
G01*
X930800Y2270000D02*
G03*
X930800Y2270000I-50800J0D01*
G01*
X130800Y1530000D02*
G03*
X130800Y1530000I-50800J0D01*
G01*
Y1770000D02*
G03*
X130800Y1770000I-50800J0D01*
G01*
Y2010000D02*
G03*
X130800Y2010000I-50800J0D01*
G01*
Y2440000D02*
G03*
X130800Y2440000I-50800J0D01*
G01*
X480800Y2160000D02*
G03*
X480800Y2160000I-50800J0D01*
G01*
X490800Y2010000D02*
G03*
X490800Y2010000I-50800J0D01*
G01*
X130800Y1130000D02*
G03*
X130800Y1130000I-50800J0D01*
G01*
Y890000D02*
G03*
X130800Y890000I-50800J0D01*
G01*
Y650000D02*
G03*
X130800Y650000I-50800J0D01*
G01*
X180800Y220000D02*
G03*
X180800Y220000I-50800J0D01*
G01*
X430800Y810000D02*
G03*
X430800Y810000I-50800J0D01*
G01*
Y730000D02*
G03*
X430800Y730000I-50800J0D01*
G01*
Y970000D02*
G03*
X430800Y970000I-50800J0D01*
G01*
X450800Y890000D02*
G03*
X450800Y890000I-50800J0D01*
G01*
X490800Y1130000D02*
G03*
X490800Y1130000I-50800J0D01*
G01*
Y650000D02*
G03*
X490800Y650000I-50800J0D01*
G01*
%TF.MD5,0df5bf68a909b078d18f08c3db1af400*%
M02*
