%TF.GenerationSoftware,Altium Limited,Altium Designer,24.8.2 (39)*%
G04 Layer_Color=255*
%FSLAX45Y45*%
%MOMM*%
%TF.SameCoordinates,FBB41CCB-3D8C-4B0B-A071-B3836E82DD1E*%
%TF.FilePolarity,Positive*%
%TF.FileFunction,Pads,Top*%
%TF.Part,Single*%
G01*
G75*
%TA.AperFunction,SMDPad,CuDef*%
G04:AMPARAMS|DCode=10|XSize=2.2mm|YSize=0.5mm|CornerRadius=0.125mm|HoleSize=0mm|Usage=FLASHONLY|Rotation=0.000|XOffset=0mm|YOffset=0mm|HoleType=Round|Shape=RoundedRectangle|*
%AMROUNDEDRECTD10*
21,1,2.20000,0.25000,0,0,0.0*
21,1,1.95000,0.50000,0,0,0.0*
1,1,0.25000,0.97500,-0.12500*
1,1,0.25000,-0.97500,-0.12500*
1,1,0.25000,-0.97500,0.12500*
1,1,0.25000,0.97500,0.12500*
%
%ADD10ROUNDEDRECTD10*%
%TA.AperFunction,ComponentPad*%
G04:AMPARAMS|DCode=14|XSize=1.7mm|YSize=2.1mm|CornerRadius=0mm|HoleSize=0mm|Usage=FLASHONLY|Rotation=270.000|XOffset=0mm|YOffset=0mm|HoleType=Round|Shape=Octagon|*
%AMOCTAGOND14*
4,1,8,1.05000,0.42500,1.05000,-0.42500,0.62500,-0.85000,-0.62500,-0.85000,-1.05000,-0.42500,-1.05000,0.42500,-0.62500,0.85000,0.62500,0.85000,1.05000,0.42500,0.0*
%
%ADD14OCTAGOND14*%

G04:AMPARAMS|DCode=15|XSize=1.7mm|YSize=2.1mm|CornerRadius=0.425mm|HoleSize=0mm|Usage=FLASHONLY|Rotation=270.000|XOffset=0mm|YOffset=0mm|HoleType=Round|Shape=RoundedRectangle|*
%AMROUNDEDRECTD15*
21,1,1.70000,1.25001,0,0,270.0*
21,1,0.85000,2.10000,0,0,270.0*
1,1,0.85000,-0.62500,-0.42500*
1,1,0.85000,-0.62500,0.42500*
1,1,0.85000,0.62500,0.42500*
1,1,0.85000,0.62500,-0.42500*
%
%ADD15ROUNDEDRECTD15*%
G04:AMPARAMS|DCode=16|XSize=1.55mm|YSize=1.6mm|CornerRadius=0.3875mm|HoleSize=0mm|Usage=FLASHONLY|Rotation=270.000|XOffset=0mm|YOffset=0mm|HoleType=Round|Shape=RoundedRectangle|*
%AMROUNDEDRECTD16*
21,1,1.55000,0.82500,0,0,270.0*
21,1,0.77500,1.60000,0,0,270.0*
1,1,0.77500,-0.41250,-0.38750*
1,1,0.77500,-0.41250,0.38750*
1,1,0.77500,0.41250,0.38750*
1,1,0.77500,0.41250,-0.38750*
%
%ADD16ROUNDEDRECTD16*%
D10*
X240002Y2089998D02*
D03*
X646001D02*
D03*
X240002Y2009999D02*
D03*
Y1929999D02*
D03*
Y1849999D02*
D03*
Y1769999D02*
D03*
Y1689999D02*
D03*
Y1609999D02*
D03*
Y1529999D02*
D03*
Y1450000D02*
D03*
Y1370000D02*
D03*
Y1290000D02*
D03*
Y1210000D02*
D03*
Y1130000D02*
D03*
Y1050000D02*
D03*
Y970001D02*
D03*
Y890001D02*
D03*
Y810001D02*
D03*
Y730001D02*
D03*
Y650001D02*
D03*
Y570001D02*
D03*
X646001Y2009999D02*
D03*
Y1929999D02*
D03*
Y1849999D02*
D03*
Y1769999D02*
D03*
Y1689999D02*
D03*
Y1609999D02*
D03*
Y1529999D02*
D03*
Y1450000D02*
D03*
Y1370000D02*
D03*
Y1290000D02*
D03*
Y1210000D02*
D03*
Y1130000D02*
D03*
Y1050000D02*
D03*
Y970001D02*
D03*
Y890001D02*
D03*
Y810001D02*
D03*
Y730001D02*
D03*
Y650001D02*
D03*
Y570001D02*
D03*
D14*
X1050000Y2328001D02*
D03*
D15*
X1076000Y2074001D02*
D03*
X1050000Y1820001D02*
D03*
X1076000Y1566001D02*
D03*
X1050000Y1312001D02*
D03*
X1076000Y1058001D02*
D03*
X1050000Y804001D02*
D03*
X1344000Y2328001D02*
D03*
X1370000Y2074001D02*
D03*
X1344000Y1820001D02*
D03*
X1370000Y1566001D02*
D03*
X1344000Y1312001D02*
D03*
X1370000Y1058001D02*
D03*
X1344000Y804001D02*
D03*
X1076000Y550001D02*
D03*
X1050000Y296001D02*
D03*
X1370000Y550001D02*
D03*
X1344000Y296001D02*
D03*
D16*
X443001Y419999D02*
D03*
X292999Y2240001D02*
D03*
%TF.MD5,7e6b727089e0b7d69f916026f5bf223b*%
M02*
