%TF.GenerationSoftware,Altium Limited,Altium Designer,24.8.2 (39)*%
G04 Layer_Color=8421504*
%FSLAX45Y45*%
%MOMM*%
%TF.SameCoordinates,FBB41CCB-3D8C-4B0B-A071-B3836E82DD1E*%
%TF.FilePolarity,Positive*%
%TF.FileFunction,Paste,Top*%
%TF.Part,Single*%
G01*
G75*
G36*
X172500Y595000D02*
X170013D01*
X165419Y593097D01*
X161903Y589581D01*
X160000Y584986D01*
Y582500D01*
D01*
Y557500D01*
Y555014D01*
X161903Y550419D01*
X165419Y546903D01*
X170013Y545000D01*
X172500D01*
D01*
X307500D01*
X309986D01*
X314581Y546903D01*
X318097Y550419D01*
X320000Y555014D01*
Y557500D01*
D01*
Y582500D01*
Y584986D01*
X318097Y589581D01*
X314581Y593097D01*
X309986Y595000D01*
X307500D01*
D01*
X172500D01*
D02*
G37*
G36*
Y675000D02*
X170013D01*
X165419Y673097D01*
X161903Y669581D01*
X160000Y664986D01*
Y662500D01*
D01*
Y637500D01*
Y635013D01*
X161903Y630419D01*
X165419Y626903D01*
X170013Y625000D01*
X172500D01*
D01*
X307500D01*
X309986D01*
X314581Y626903D01*
X318097Y630419D01*
X320000Y635013D01*
Y637500D01*
D01*
Y662500D01*
Y664986D01*
X318097Y669581D01*
X314581Y673097D01*
X309986Y675000D01*
X307500D01*
D01*
X172500D01*
D02*
G37*
G36*
Y755000D02*
X170013D01*
X165419Y753097D01*
X161903Y749581D01*
X160000Y744987D01*
Y742500D01*
D01*
Y717500D01*
Y715014D01*
X161903Y710419D01*
X165419Y706903D01*
X170013Y705000D01*
X172500D01*
D01*
X307500D01*
X309986D01*
X314581Y706903D01*
X318097Y710419D01*
X320000Y715014D01*
Y717500D01*
D01*
Y742500D01*
Y744987D01*
X318097Y749581D01*
X314581Y753097D01*
X309986Y755000D01*
X307500D01*
D01*
X172500D01*
D02*
G37*
G36*
Y835000D02*
X170013D01*
X165419Y833097D01*
X161903Y829581D01*
X160000Y824986D01*
Y822500D01*
D01*
Y797500D01*
Y795014D01*
X161903Y790419D01*
X165419Y786903D01*
X170013Y785000D01*
X172500D01*
D01*
X307500D01*
X309986D01*
X314581Y786903D01*
X318097Y790419D01*
X320000Y795014D01*
Y797500D01*
D01*
Y822500D01*
Y824986D01*
X318097Y829581D01*
X314581Y833097D01*
X309986Y835000D01*
X307500D01*
D01*
X172500D01*
D02*
G37*
G36*
Y915000D02*
X170013D01*
X165419Y913097D01*
X161903Y909581D01*
X160000Y904986D01*
Y902500D01*
D01*
Y877500D01*
Y875013D01*
X161903Y870419D01*
X165419Y866903D01*
X170013Y865000D01*
X172500D01*
D01*
X307500D01*
X309986D01*
X314581Y866903D01*
X318097Y870419D01*
X320000Y875013D01*
Y877500D01*
D01*
Y902500D01*
Y904986D01*
X318097Y909581D01*
X314581Y913097D01*
X309986Y915000D01*
X307500D01*
D01*
X172500D01*
D02*
G37*
G36*
X578500Y595000D02*
X713500D01*
X715986D01*
X720581Y593097D01*
X724097Y589581D01*
X726000Y584986D01*
Y582500D01*
D01*
Y557500D01*
Y555014D01*
X724097Y550419D01*
X720581Y546903D01*
X715986Y545000D01*
X713500D01*
D01*
X578500D01*
X576013D01*
X571419Y546903D01*
X567903Y550419D01*
X566000Y555014D01*
Y557500D01*
D01*
Y582500D01*
Y584986D01*
X567903Y589581D01*
X571419Y593097D01*
X576013Y595000D01*
X578500D01*
D01*
D02*
G37*
G36*
Y675000D02*
X713500D01*
X715986D01*
X720581Y673097D01*
X724097Y669581D01*
X726000Y664986D01*
Y662500D01*
D01*
Y637500D01*
Y635013D01*
X724097Y630419D01*
X720581Y626903D01*
X715986Y625000D01*
X713500D01*
D01*
X578500D01*
X576013D01*
X571419Y626903D01*
X567903Y630419D01*
X566000Y635013D01*
Y637500D01*
D01*
Y662500D01*
Y664986D01*
X567903Y669581D01*
X571419Y673097D01*
X576013Y675000D01*
X578500D01*
D01*
D02*
G37*
G36*
Y755000D02*
X713500D01*
X715986D01*
X720581Y753097D01*
X724097Y749581D01*
X726000Y744987D01*
Y742500D01*
D01*
Y717500D01*
Y715014D01*
X724097Y710419D01*
X720581Y706903D01*
X715986Y705000D01*
X713500D01*
D01*
X578500D01*
X576013D01*
X571419Y706903D01*
X567903Y710419D01*
X566000Y715014D01*
Y717500D01*
D01*
Y742500D01*
Y744987D01*
X567903Y749581D01*
X571419Y753097D01*
X576013Y755000D01*
X578500D01*
D01*
D02*
G37*
G36*
Y835000D02*
X713500D01*
X715986D01*
X720581Y833097D01*
X724097Y829581D01*
X726000Y824986D01*
Y822500D01*
D01*
Y797500D01*
Y795014D01*
X724097Y790419D01*
X720581Y786903D01*
X715986Y785000D01*
X713500D01*
D01*
X578500D01*
X576013D01*
X571419Y786903D01*
X567903Y790419D01*
X566000Y795014D01*
Y797500D01*
D01*
Y822500D01*
Y824986D01*
X567903Y829581D01*
X571419Y833097D01*
X576013Y835000D01*
X578500D01*
D01*
D02*
G37*
G36*
Y915000D02*
X713500D01*
X715986D01*
X720581Y913097D01*
X724097Y909581D01*
X726000Y904986D01*
Y902500D01*
D01*
Y877500D01*
Y875013D01*
X724097Y870419D01*
X720581Y866903D01*
X715986Y865000D01*
X713500D01*
D01*
X578500D01*
X576013D01*
X571419Y866903D01*
X567903Y870419D01*
X566000Y875013D01*
Y877500D01*
D01*
Y902500D01*
Y904986D01*
X567903Y909581D01*
X571419Y913097D01*
X576013Y915000D01*
X578500D01*
D01*
D02*
G37*
G36*
X172500Y995000D02*
X170013D01*
X165419Y993097D01*
X161903Y989581D01*
X160000Y984986D01*
Y982500D01*
D01*
Y957500D01*
Y955014D01*
X161903Y950419D01*
X165419Y946903D01*
X170013Y945000D01*
X172500D01*
D01*
X307500D01*
X309986D01*
X314581Y946903D01*
X318097Y950419D01*
X320000Y955014D01*
Y957500D01*
D01*
Y982500D01*
Y984986D01*
X318097Y989581D01*
X314581Y993097D01*
X309986Y995000D01*
X307500D01*
D01*
X172500D01*
D02*
G37*
G36*
Y1075000D02*
X170013D01*
X165419Y1073097D01*
X161903Y1069581D01*
X160000Y1064986D01*
Y1062500D01*
D01*
Y1037500D01*
Y1035014D01*
X161903Y1030419D01*
X165419Y1026903D01*
X170013Y1025000D01*
X172500D01*
D01*
X307500D01*
X309986D01*
X314581Y1026903D01*
X318097Y1030419D01*
X320000Y1035014D01*
Y1037500D01*
D01*
Y1062500D01*
Y1064986D01*
X318097Y1069581D01*
X314581Y1073097D01*
X309986Y1075000D01*
X307500D01*
D01*
X172500D01*
D02*
G37*
G36*
Y1155000D02*
X170013D01*
X165419Y1153097D01*
X161903Y1149581D01*
X160000Y1144986D01*
Y1142500D01*
D01*
Y1117500D01*
Y1115014D01*
X161903Y1110419D01*
X165419Y1106903D01*
X170013Y1105000D01*
X172500D01*
D01*
X307500D01*
X309986D01*
X314581Y1106903D01*
X318097Y1110419D01*
X320000Y1115014D01*
Y1117500D01*
D01*
Y1142500D01*
Y1144986D01*
X318097Y1149581D01*
X314581Y1153097D01*
X309986Y1155000D01*
X307500D01*
D01*
X172500D01*
D02*
G37*
G36*
Y1315000D02*
X170013D01*
X165419Y1313097D01*
X161903Y1309581D01*
X160000Y1304986D01*
Y1302500D01*
D01*
Y1277500D01*
Y1275014D01*
X161903Y1270419D01*
X165419Y1266903D01*
X170013Y1265000D01*
X172500D01*
D01*
X307500D01*
X309986D01*
X314581Y1266903D01*
X318097Y1270419D01*
X320000Y1275014D01*
Y1277500D01*
D01*
Y1302500D01*
Y1304986D01*
X318097Y1309581D01*
X314581Y1313097D01*
X309986Y1315000D01*
X307500D01*
D01*
X172500D01*
D02*
G37*
G36*
Y1235000D02*
X170013D01*
X165419Y1233097D01*
X161903Y1229581D01*
X160000Y1224986D01*
Y1222500D01*
D01*
Y1197500D01*
Y1195014D01*
X161903Y1190419D01*
X165419Y1186903D01*
X170013Y1185000D01*
X172500D01*
D01*
X307500D01*
X309986D01*
X314581Y1186903D01*
X318097Y1190419D01*
X320000Y1195014D01*
Y1197500D01*
D01*
Y1222500D01*
Y1224986D01*
X318097Y1229581D01*
X314581Y1233097D01*
X309986Y1235000D01*
X307500D01*
D01*
X172500D01*
D02*
G37*
G36*
X578500Y995000D02*
X713500D01*
X715986D01*
X720581Y993097D01*
X724097Y989581D01*
X726000Y984986D01*
Y982500D01*
D01*
Y957500D01*
Y955014D01*
X724097Y950419D01*
X720581Y946903D01*
X715986Y945000D01*
X713500D01*
D01*
X578500D01*
X576013D01*
X571419Y946903D01*
X567903Y950419D01*
X566000Y955014D01*
Y957500D01*
D01*
Y982500D01*
Y984986D01*
X567903Y989581D01*
X571419Y993097D01*
X576013Y995000D01*
X578500D01*
D01*
D02*
G37*
G36*
Y1075000D02*
X713500D01*
X715986D01*
X720581Y1073097D01*
X724097Y1069581D01*
X726000Y1064986D01*
Y1062500D01*
D01*
Y1037500D01*
Y1035014D01*
X724097Y1030419D01*
X720581Y1026903D01*
X715986Y1025000D01*
X713500D01*
D01*
X578500D01*
X576013D01*
X571419Y1026903D01*
X567903Y1030419D01*
X566000Y1035014D01*
Y1037500D01*
D01*
Y1062500D01*
Y1064986D01*
X567903Y1069581D01*
X571419Y1073097D01*
X576013Y1075000D01*
X578500D01*
D01*
D02*
G37*
G36*
Y1155000D02*
X713500D01*
X715986D01*
X720581Y1153097D01*
X724097Y1149581D01*
X726000Y1144986D01*
Y1142500D01*
D01*
Y1117500D01*
Y1115014D01*
X724097Y1110419D01*
X720581Y1106903D01*
X715986Y1105000D01*
X713500D01*
D01*
X578500D01*
X576013D01*
X571419Y1106903D01*
X567903Y1110419D01*
X566000Y1115014D01*
Y1117500D01*
D01*
Y1142500D01*
Y1144986D01*
X567903Y1149581D01*
X571419Y1153097D01*
X576013Y1155000D01*
X578500D01*
D01*
D02*
G37*
G36*
Y1235000D02*
X713500D01*
X715986D01*
X720581Y1233097D01*
X724097Y1229581D01*
X726000Y1224986D01*
Y1222500D01*
D01*
Y1197500D01*
Y1195014D01*
X724097Y1190419D01*
X720581Y1186903D01*
X715986Y1185000D01*
X713500D01*
D01*
X578500D01*
X576013D01*
X571419Y1186903D01*
X567903Y1190419D01*
X566000Y1195014D01*
Y1197500D01*
D01*
Y1222500D01*
Y1224986D01*
X567903Y1229581D01*
X571419Y1233097D01*
X576013Y1235000D01*
X578500D01*
D01*
D02*
G37*
G36*
Y1315000D02*
X713500D01*
X715986D01*
X720581Y1313097D01*
X724097Y1309581D01*
X726000Y1304986D01*
Y1302500D01*
D01*
Y1277500D01*
Y1275014D01*
X724097Y1270419D01*
X720581Y1266903D01*
X715986Y1265000D01*
X713500D01*
D01*
X578500D01*
X576013D01*
X571419Y1266903D01*
X567903Y1270419D01*
X566000Y1275014D01*
Y1277500D01*
D01*
Y1302500D01*
Y1304986D01*
X567903Y1309581D01*
X571419Y1313097D01*
X576013Y1315000D01*
X578500D01*
D01*
D02*
G37*
G36*
X172500Y1395000D02*
X170013D01*
X165419Y1393097D01*
X161903Y1389581D01*
X160000Y1384986D01*
Y1382500D01*
D01*
Y1357500D01*
Y1355014D01*
X161903Y1350419D01*
X165419Y1346903D01*
X170013Y1345000D01*
X172500D01*
D01*
X307500D01*
X309986D01*
X314581Y1346903D01*
X318097Y1350419D01*
X320000Y1355014D01*
Y1357500D01*
D01*
Y1382500D01*
Y1384986D01*
X318097Y1389581D01*
X314581Y1393097D01*
X309986Y1395000D01*
X307500D01*
D01*
X172500D01*
D02*
G37*
G36*
Y1475000D02*
X170013D01*
X165419Y1473097D01*
X161903Y1469581D01*
X160000Y1464986D01*
Y1462500D01*
D01*
Y1437500D01*
Y1435014D01*
X161903Y1430419D01*
X165419Y1426903D01*
X170013Y1425000D01*
X172500D01*
D01*
X307500D01*
X309986D01*
X314581Y1426903D01*
X318097Y1430419D01*
X320000Y1435014D01*
Y1437500D01*
D01*
Y1462500D01*
Y1464986D01*
X318097Y1469581D01*
X314581Y1473097D01*
X309986Y1475000D01*
X307500D01*
D01*
X172500D01*
D02*
G37*
G36*
Y1555000D02*
X170013D01*
X165419Y1553097D01*
X161903Y1549581D01*
X160000Y1544986D01*
Y1542500D01*
D01*
Y1517500D01*
Y1515014D01*
X161903Y1510419D01*
X165419Y1506903D01*
X170013Y1505000D01*
X172500D01*
D01*
X307500D01*
X309986D01*
X314581Y1506903D01*
X318097Y1510419D01*
X320000Y1515014D01*
Y1517500D01*
D01*
Y1542500D01*
Y1544986D01*
X318097Y1549581D01*
X314581Y1553097D01*
X309986Y1555000D01*
X307500D01*
D01*
X172500D01*
D02*
G37*
G36*
Y1635000D02*
X170013D01*
X165419Y1633097D01*
X161903Y1629581D01*
X160000Y1624986D01*
Y1622500D01*
D01*
Y1597500D01*
Y1595014D01*
X161903Y1590419D01*
X165419Y1586903D01*
X170013Y1585000D01*
X172500D01*
D01*
X307500D01*
X309986D01*
X314581Y1586903D01*
X318097Y1590419D01*
X320000Y1595014D01*
Y1597500D01*
D01*
Y1622500D01*
Y1624986D01*
X318097Y1629581D01*
X314581Y1633097D01*
X309986Y1635000D01*
X307500D01*
D01*
X172500D01*
D02*
G37*
G36*
Y1715000D02*
X170013D01*
X165419Y1713097D01*
X161903Y1709581D01*
X160000Y1704986D01*
Y1702500D01*
D01*
Y1677500D01*
Y1675014D01*
X161903Y1670419D01*
X165419Y1666903D01*
X170013Y1665000D01*
X172500D01*
D01*
X307500D01*
X309986D01*
X314581Y1666903D01*
X318097Y1670419D01*
X320000Y1675014D01*
Y1677500D01*
D01*
Y1702500D01*
Y1704986D01*
X318097Y1709581D01*
X314581Y1713097D01*
X309986Y1715000D01*
X307500D01*
D01*
X172500D01*
D02*
G37*
G36*
X578500Y1395000D02*
X713500D01*
X715986D01*
X720581Y1393097D01*
X724097Y1389581D01*
X726000Y1384986D01*
Y1382500D01*
D01*
Y1357500D01*
Y1355014D01*
X724097Y1350419D01*
X720581Y1346903D01*
X715986Y1345000D01*
X713500D01*
D01*
X578500D01*
X576013D01*
X571419Y1346903D01*
X567903Y1350419D01*
X566000Y1355014D01*
Y1357500D01*
D01*
Y1382500D01*
Y1384986D01*
X567903Y1389581D01*
X571419Y1393097D01*
X576013Y1395000D01*
X578500D01*
D01*
D02*
G37*
G36*
Y1475000D02*
X713500D01*
X715986D01*
X720581Y1473097D01*
X724097Y1469581D01*
X726000Y1464986D01*
Y1462500D01*
D01*
Y1437500D01*
Y1435014D01*
X724097Y1430419D01*
X720581Y1426903D01*
X715986Y1425000D01*
X713500D01*
D01*
X578500D01*
X576013D01*
X571419Y1426903D01*
X567903Y1430419D01*
X566000Y1435014D01*
Y1437500D01*
D01*
Y1462500D01*
Y1464986D01*
X567903Y1469581D01*
X571419Y1473097D01*
X576013Y1475000D01*
X578500D01*
D01*
D02*
G37*
G36*
Y1555000D02*
X713500D01*
X715986D01*
X720581Y1553097D01*
X724097Y1549581D01*
X726000Y1544986D01*
Y1542500D01*
D01*
Y1517500D01*
Y1515014D01*
X724097Y1510419D01*
X720581Y1506903D01*
X715986Y1505000D01*
X713500D01*
D01*
X578500D01*
X576013D01*
X571419Y1506903D01*
X567903Y1510419D01*
X566000Y1515014D01*
Y1517500D01*
D01*
Y1542500D01*
Y1544986D01*
X567903Y1549581D01*
X571419Y1553097D01*
X576013Y1555000D01*
X578500D01*
D01*
D02*
G37*
G36*
Y1635000D02*
X713500D01*
X715986D01*
X720581Y1633097D01*
X724097Y1629581D01*
X726000Y1624986D01*
Y1622500D01*
D01*
Y1597500D01*
Y1595014D01*
X724097Y1590419D01*
X720581Y1586903D01*
X715986Y1585000D01*
X713500D01*
D01*
X578500D01*
X576013D01*
X571419Y1586903D01*
X567903Y1590419D01*
X566000Y1595014D01*
Y1597500D01*
D01*
Y1622500D01*
Y1624986D01*
X567903Y1629581D01*
X571419Y1633097D01*
X576013Y1635000D01*
X578500D01*
D01*
D02*
G37*
G36*
Y1715000D02*
X713500D01*
X715986D01*
X720581Y1713097D01*
X724097Y1709581D01*
X726000Y1704986D01*
Y1702500D01*
D01*
Y1677500D01*
Y1675014D01*
X724097Y1670419D01*
X720581Y1666903D01*
X715986Y1665000D01*
X713500D01*
D01*
X578500D01*
X576013D01*
X571419Y1666903D01*
X567903Y1670419D01*
X566000Y1675014D01*
Y1677500D01*
D01*
Y1702500D01*
Y1704986D01*
X567903Y1709581D01*
X571419Y1713097D01*
X576013Y1715000D01*
X578500D01*
D01*
D02*
G37*
G36*
X172500Y1795000D02*
X170013D01*
X165419Y1793097D01*
X161903Y1789581D01*
X160000Y1784987D01*
Y1782500D01*
D01*
Y1757500D01*
Y1755014D01*
X161903Y1750419D01*
X165419Y1746903D01*
X170013Y1745000D01*
X172500D01*
D01*
X307500D01*
X309986D01*
X314581Y1746903D01*
X318097Y1750419D01*
X320000Y1755014D01*
Y1757500D01*
D01*
Y1782500D01*
Y1784987D01*
X318097Y1789581D01*
X314581Y1793097D01*
X309986Y1795000D01*
X307500D01*
D01*
X172500D01*
D02*
G37*
G36*
Y1875000D02*
X170013D01*
X165419Y1873097D01*
X161903Y1869581D01*
X160000Y1864986D01*
Y1862500D01*
D01*
Y1837500D01*
Y1835014D01*
X161903Y1830419D01*
X165419Y1826903D01*
X170013Y1825000D01*
X172500D01*
D01*
X307500D01*
X309986D01*
X314581Y1826903D01*
X318097Y1830419D01*
X320000Y1835014D01*
Y1837500D01*
D01*
Y1862500D01*
Y1864986D01*
X318097Y1869581D01*
X314581Y1873097D01*
X309986Y1875000D01*
X307500D01*
D01*
X172500D01*
D02*
G37*
G36*
Y1955000D02*
X170013D01*
X165419Y1953097D01*
X161903Y1949581D01*
X160000Y1944986D01*
Y1942500D01*
D01*
Y1917500D01*
Y1915014D01*
X161903Y1910419D01*
X165419Y1906903D01*
X170013Y1905000D01*
X172500D01*
D01*
X307500D01*
X309986D01*
X314581Y1906903D01*
X318097Y1910419D01*
X320000Y1915014D01*
Y1917500D01*
D01*
Y1942500D01*
Y1944986D01*
X318097Y1949581D01*
X314581Y1953097D01*
X309986Y1955000D01*
X307500D01*
D01*
X172500D01*
D02*
G37*
G36*
Y2035000D02*
X170013D01*
X165419Y2033097D01*
X161903Y2029581D01*
X160000Y2024986D01*
Y2022500D01*
D01*
Y1997500D01*
Y1995014D01*
X161903Y1990419D01*
X165419Y1986903D01*
X170013Y1985000D01*
X172500D01*
D01*
X307500D01*
X309986D01*
X314581Y1986903D01*
X318097Y1990419D01*
X320000Y1995014D01*
Y1997500D01*
D01*
Y2022500D01*
Y2024986D01*
X318097Y2029581D01*
X314581Y2033097D01*
X309986Y2035000D01*
X307500D01*
D01*
X172500D01*
D02*
G37*
G36*
Y2115000D02*
X170013D01*
X165419Y2113097D01*
X161903Y2109581D01*
X160000Y2104986D01*
Y2102500D01*
D01*
Y2077500D01*
Y2075014D01*
X161903Y2070419D01*
X165419Y2066903D01*
X170013Y2065000D01*
X172500D01*
D01*
X307500D01*
X309986D01*
X314581Y2066903D01*
X318097Y2070419D01*
X320000Y2075014D01*
Y2077500D01*
D01*
Y2102500D01*
Y2104986D01*
X318097Y2109581D01*
X314581Y2113097D01*
X309986Y2115000D01*
X307500D01*
D01*
X172500D01*
D02*
G37*
G36*
X578500Y1795000D02*
X713500D01*
X715986D01*
X720581Y1793097D01*
X724097Y1789581D01*
X726000Y1784987D01*
Y1782500D01*
D01*
Y1757500D01*
Y1755014D01*
X724097Y1750419D01*
X720581Y1746903D01*
X715986Y1745000D01*
X713500D01*
D01*
X578500D01*
X576013D01*
X571419Y1746903D01*
X567903Y1750419D01*
X566000Y1755014D01*
Y1757500D01*
D01*
Y1782500D01*
Y1784987D01*
X567903Y1789581D01*
X571419Y1793097D01*
X576013Y1795000D01*
X578500D01*
D01*
D02*
G37*
G36*
Y1875000D02*
X713500D01*
X715986D01*
X720581Y1873097D01*
X724097Y1869581D01*
X726000Y1864986D01*
Y1862500D01*
D01*
Y1837500D01*
Y1835014D01*
X724097Y1830419D01*
X720581Y1826903D01*
X715986Y1825000D01*
X713500D01*
D01*
X578500D01*
X576013D01*
X571419Y1826903D01*
X567903Y1830419D01*
X566000Y1835014D01*
Y1837500D01*
D01*
Y1862500D01*
Y1864986D01*
X567903Y1869581D01*
X571419Y1873097D01*
X576013Y1875000D01*
X578500D01*
D01*
D02*
G37*
G36*
Y1955000D02*
X713500D01*
X715986D01*
X720581Y1953097D01*
X724097Y1949581D01*
X726000Y1944986D01*
Y1942500D01*
D01*
Y1917500D01*
Y1915014D01*
X724097Y1910419D01*
X720581Y1906903D01*
X715986Y1905000D01*
X713500D01*
D01*
X578500D01*
X576013D01*
X571419Y1906903D01*
X567903Y1910419D01*
X566000Y1915014D01*
Y1917500D01*
D01*
Y1942500D01*
Y1944986D01*
X567903Y1949581D01*
X571419Y1953097D01*
X576013Y1955000D01*
X578500D01*
D01*
D02*
G37*
G36*
Y2035000D02*
X713500D01*
X715986D01*
X720581Y2033097D01*
X724097Y2029581D01*
X726000Y2024986D01*
Y2022500D01*
D01*
Y1997500D01*
Y1995014D01*
X724097Y1990419D01*
X720581Y1986903D01*
X715986Y1985000D01*
X713500D01*
D01*
X578500D01*
X576013D01*
X571419Y1986903D01*
X567903Y1990419D01*
X566000Y1995014D01*
Y1997500D01*
D01*
Y2022500D01*
Y2024986D01*
X567903Y2029581D01*
X571419Y2033097D01*
X576013Y2035000D01*
X578500D01*
D01*
D02*
G37*
G36*
Y2115000D02*
X713500D01*
X715986D01*
X720581Y2113097D01*
X724097Y2109581D01*
X726000Y2104986D01*
Y2102500D01*
D01*
Y2077500D01*
Y2075014D01*
X724097Y2070419D01*
X720581Y2066903D01*
X715986Y2065000D01*
X713500D01*
D01*
X578500D01*
X576013D01*
X571419Y2066903D01*
X567903Y2070419D01*
X566000Y2075014D01*
Y2077500D01*
D01*
Y2102500D01*
Y2104986D01*
X567903Y2109581D01*
X571419Y2113097D01*
X576013Y2115000D01*
X578500D01*
D01*
D02*
G37*
%TF.MD5,66d8123af2a73ae73dc03137d7b820e1*%
M02*
