%TF.GenerationSoftware,Altium Limited,Altium Designer,24.8.2 (39)*%
G04 Layer_Color=255*
%FSLAX45Y45*%
%MOMM*%
%TF.SameCoordinates,FBB41CCB-3D8C-4B0B-A071-B3836E82DD1E*%
%TF.FilePolarity,Positive*%
%TF.FileFunction,Pads,Bot*%
%TF.Part,Single*%
G01*
G75*
%TA.AperFunction,ComponentPad*%
G04:AMPARAMS|DCode=14|XSize=1.7mm|YSize=2.1mm|CornerRadius=0mm|HoleSize=0mm|Usage=FLASHONLY|Rotation=270.000|XOffset=0mm|YOffset=0mm|HoleType=Round|Shape=Octagon|*
%AMOCTAGOND14*
4,1,8,1.05000,0.42500,1.05000,-0.42500,0.62500,-0.85000,-0.62500,-0.85000,-1.05000,-0.42500,-1.05000,0.42500,-0.62500,0.85000,0.62500,0.85000,1.05000,0.42500,0.0*
%
%ADD14OCTAGOND14*%

G04:AMPARAMS|DCode=15|XSize=1.7mm|YSize=2.1mm|CornerRadius=0.425mm|HoleSize=0mm|Usage=FLASHONLY|Rotation=270.000|XOffset=0mm|YOffset=0mm|HoleType=Round|Shape=RoundedRectangle|*
%AMROUNDEDRECTD15*
21,1,1.70000,1.25001,0,0,270.0*
21,1,0.85000,2.10000,0,0,270.0*
1,1,0.85000,-0.62500,-0.42500*
1,1,0.85000,-0.62500,0.42500*
1,1,0.85000,0.62500,0.42500*
1,1,0.85000,0.62500,-0.42500*
%
%ADD15ROUNDEDRECTD15*%
G04:AMPARAMS|DCode=16|XSize=1.55mm|YSize=1.6mm|CornerRadius=0.3875mm|HoleSize=0mm|Usage=FLASHONLY|Rotation=270.000|XOffset=0mm|YOffset=0mm|HoleType=Round|Shape=RoundedRectangle|*
%AMROUNDEDRECTD16*
21,1,1.55000,0.82500,0,0,270.0*
21,1,0.77500,1.60000,0,0,270.0*
1,1,0.77500,-0.41250,-0.38750*
1,1,0.77500,-0.41250,0.38750*
1,1,0.77500,0.41250,0.38750*
1,1,0.77500,0.41250,-0.38750*
%
%ADD16ROUNDEDRECTD16*%
%TA.AperFunction,SMDPad,CuDef*%
G04:AMPARAMS|DCode=18|XSize=0.6mm|YSize=0.6mm|CornerRadius=0.15mm|HoleSize=0mm|Usage=FLASHONLY|Rotation=180.000|XOffset=0mm|YOffset=0mm|HoleType=Round|Shape=RoundedRectangle|*
%AMROUNDEDRECTD18*
21,1,0.60000,0.30000,0,0,180.0*
21,1,0.30000,0.60000,0,0,180.0*
1,1,0.30000,-0.15000,0.15000*
1,1,0.30000,0.15000,0.15000*
1,1,0.30000,0.15000,-0.15000*
1,1,0.30000,-0.15000,-0.15000*
%
%ADD18ROUNDEDRECTD18*%
D14*
X1050000Y2328001D02*
D03*
D15*
X1076000Y2074001D02*
D03*
X1050000Y1820001D02*
D03*
X1076000Y1566001D02*
D03*
X1050000Y1312001D02*
D03*
X1076000Y1058001D02*
D03*
X1050000Y804001D02*
D03*
X1344000Y2328001D02*
D03*
X1370000Y2074001D02*
D03*
X1344000Y1820001D02*
D03*
X1370000Y1566001D02*
D03*
X1344000Y1312001D02*
D03*
X1370000Y1058001D02*
D03*
X1344000Y804001D02*
D03*
X1076000Y550001D02*
D03*
X1050000Y296001D02*
D03*
X1370000Y550001D02*
D03*
X1344000Y296001D02*
D03*
D16*
X443001Y419999D02*
D03*
X292999Y2240001D02*
D03*
D18*
X360000Y1080000D02*
D03*
Y1180000D02*
D03*
%TF.MD5,34108c718c61bc9edefe6a3f26f49265*%
M02*
