%TF.GenerationSoftware,Altium Limited,Altium Designer,24.8.2 (39)*%
G04 Layer_Physical_Order=2*
G04 Layer_Color=16711680*
%FSLAX45Y45*%
%MOMM*%
%TF.SameCoordinates,FBB41CCB-3D8C-4B0B-A071-B3836E82DD1E*%
%TF.FilePolarity,Positive*%
%TF.FileFunction,Copper,L2,Bot,Signal*%
%TF.Part,Single*%
G01*
G75*
%TA.AperFunction,Conductor*%
%ADD11C,0.30000*%
%TA.AperFunction,ComponentPad*%
G04:AMPARAMS|DCode=14|XSize=1.7mm|YSize=2.1mm|CornerRadius=0mm|HoleSize=0mm|Usage=FLASHONLY|Rotation=270.000|XOffset=0mm|YOffset=0mm|HoleType=Round|Shape=Octagon|*
%AMOCTAGOND14*
4,1,8,1.05000,0.42500,1.05000,-0.42500,0.62500,-0.85000,-0.62500,-0.85000,-1.05000,-0.42500,-1.05000,0.42500,-0.62500,0.85000,0.62500,0.85000,1.05000,0.42500,0.0*
%
%ADD14OCTAGOND14*%

G04:AMPARAMS|DCode=15|XSize=1.7mm|YSize=2.1mm|CornerRadius=0.425mm|HoleSize=0mm|Usage=FLASHONLY|Rotation=270.000|XOffset=0mm|YOffset=0mm|HoleType=Round|Shape=RoundedRectangle|*
%AMROUNDEDRECTD15*
21,1,1.70000,1.25001,0,0,270.0*
21,1,0.85000,2.10000,0,0,270.0*
1,1,0.85000,-0.62500,-0.42500*
1,1,0.85000,-0.62500,0.42500*
1,1,0.85000,0.62500,0.42500*
1,1,0.85000,0.62500,-0.42500*
%
%ADD15ROUNDEDRECTD15*%
G04:AMPARAMS|DCode=16|XSize=1.55mm|YSize=1.6mm|CornerRadius=0.3875mm|HoleSize=0mm|Usage=FLASHONLY|Rotation=270.000|XOffset=0mm|YOffset=0mm|HoleType=Round|Shape=RoundedRectangle|*
%AMROUNDEDRECTD16*
21,1,1.55000,0.82500,0,0,270.0*
21,1,0.77500,1.60000,0,0,270.0*
1,1,0.77500,-0.41250,-0.38750*
1,1,0.77500,-0.41250,0.38750*
1,1,0.77500,0.41250,0.38750*
1,1,0.77500,0.41250,-0.38750*
%
%ADD16ROUNDEDRECTD16*%
%TA.AperFunction,ViaPad*%
%ADD17C,0.50800*%
%TA.AperFunction,SMDPad,CuDef*%
G04:AMPARAMS|DCode=18|XSize=0.6mm|YSize=0.6mm|CornerRadius=0.15mm|HoleSize=0mm|Usage=FLASHONLY|Rotation=180.000|XOffset=0mm|YOffset=0mm|HoleType=Round|Shape=RoundedRectangle|*
%AMROUNDEDRECTD18*
21,1,0.60000,0.30000,0,0,180.0*
21,1,0.30000,0.60000,0,0,180.0*
1,1,0.30000,-0.15000,0.15000*
1,1,0.30000,0.15000,0.15000*
1,1,0.30000,0.15000,-0.15000*
1,1,0.30000,-0.15000,-0.15000*
%
%ADD18ROUNDEDRECTD18*%
G36*
X1476058Y2405898D02*
X1461058Y2401348D01*
X1451560Y2415561D01*
X1430887Y2429375D01*
X1406501Y2434226D01*
X1281500D01*
X1257114Y2429375D01*
X1236440Y2415561D01*
X1222626Y2394888D01*
X1217776Y2370501D01*
Y2285501D01*
X1222626Y2261115D01*
X1236440Y2240442D01*
X1257114Y2226628D01*
X1281500Y2221777D01*
X1406501D01*
X1430887Y2226628D01*
X1451560Y2240442D01*
X1461058Y2254655D01*
X1476058Y2250105D01*
Y2178475D01*
X1462829Y2171404D01*
X1456886Y2175375D01*
X1432500Y2180226D01*
X1307500D01*
X1283113Y2175375D01*
X1271340Y2167508D01*
X1213614Y2225234D01*
X1202037Y2232969D01*
X1188380Y2235686D01*
X1162883D01*
X1157143Y2249544D01*
X1180400Y2272802D01*
Y2315301D01*
X919600D01*
Y2272802D01*
X942858Y2249544D01*
X937118Y2235686D01*
X802842D01*
X789186Y2232969D01*
X777609Y2225234D01*
X426702Y1874326D01*
X410105Y1876578D01*
X403876Y1890099D01*
X405525Y1900112D01*
X413994Y1912786D01*
X417518Y1930501D01*
X413994Y1948215D01*
X403960Y1963232D01*
X388943Y1973267D01*
X371228Y1976790D01*
X353514Y1973267D01*
X338497Y1963232D01*
X328462Y1948215D01*
X325976Y1935716D01*
X188141Y1797881D01*
X180406Y1786303D01*
X177689Y1772647D01*
Y1452090D01*
X180406Y1438434D01*
X188141Y1426857D01*
X324314Y1290683D01*
Y1223272D01*
X319766Y1220234D01*
X312031Y1208656D01*
X309314Y1195000D01*
Y1165000D01*
X312031Y1151344D01*
X319766Y1139766D01*
X320883Y1139020D01*
Y1120980D01*
X319766Y1120234D01*
X312031Y1108656D01*
X309314Y1095000D01*
Y1065000D01*
X312031Y1051344D01*
X319766Y1039767D01*
X324314Y1036728D01*
Y995629D01*
X327031Y981972D01*
X334013Y971522D01*
X333711Y970000D01*
X337234Y952286D01*
X347268Y937268D01*
X362286Y927234D01*
X380000Y923711D01*
X397714Y927234D01*
X412732Y937268D01*
X422766Y952286D01*
X426289Y970000D01*
X422766Y987714D01*
X412732Y1002732D01*
X397714Y1012766D01*
X395686Y1013169D01*
Y1036728D01*
X400234Y1039767D01*
X407969Y1051344D01*
X410686Y1065000D01*
Y1095000D01*
X407969Y1108656D01*
X400234Y1120234D01*
X399117Y1120980D01*
Y1139020D01*
X400234Y1139766D01*
X407969Y1151344D01*
X410686Y1165000D01*
Y1195000D01*
X407969Y1208656D01*
X400234Y1220234D01*
X395686Y1223272D01*
Y1290361D01*
X729172D01*
X934394Y1085139D01*
X945971Y1077404D01*
X949775Y1076647D01*
Y1015501D01*
X954626Y991115D01*
X968440Y970442D01*
X989113Y956628D01*
X1013500Y951777D01*
X1138500D01*
X1162886Y956628D01*
X1183560Y970442D01*
X1197374Y991115D01*
X1202224Y1015501D01*
Y1100501D01*
X1197374Y1124888D01*
X1190044Y1135858D01*
X1198061Y1150858D01*
X1198543D01*
X1212199Y1153575D01*
X1223776Y1161310D01*
X1270443Y1207977D01*
X1281500Y1205777D01*
X1406501D01*
X1430887Y1210628D01*
X1451560Y1224442D01*
X1461058Y1238655D01*
X1476058Y1234105D01*
Y1162475D01*
X1462829Y1155404D01*
X1456886Y1159375D01*
X1432500Y1164226D01*
X1307500D01*
X1283113Y1159375D01*
X1262440Y1145561D01*
X1248626Y1124888D01*
X1243775Y1100501D01*
Y1015501D01*
X1248626Y991115D01*
X1262440Y970442D01*
X1283113Y956628D01*
X1307500Y951777D01*
X1432500D01*
X1456886Y956628D01*
X1462829Y960599D01*
X1476058Y953528D01*
Y881898D01*
X1461058Y877348D01*
X1451560Y891561D01*
X1430887Y905375D01*
X1406501Y910226D01*
X1281500D01*
X1257114Y905375D01*
X1236440Y891561D01*
X1222626Y870888D01*
X1217776Y846501D01*
Y790888D01*
X1209357Y789214D01*
X1197780Y781478D01*
X1191225Y774923D01*
X1176225Y781136D01*
Y846501D01*
X1171374Y870888D01*
X1157561Y891561D01*
X1136887Y905375D01*
X1112501Y910226D01*
X987500D01*
X963114Y905375D01*
X942440Y891561D01*
X928627Y870888D01*
X923776Y846501D01*
Y839687D01*
X414766D01*
X412732Y842732D01*
X397714Y852766D01*
X380000Y856289D01*
X362286Y852766D01*
X347268Y842732D01*
X337234Y827714D01*
X333711Y810000D01*
X337234Y792286D01*
X347268Y777268D01*
Y762732D01*
X337234Y747714D01*
X333711Y730000D01*
X337234Y712286D01*
X347268Y697268D01*
X362286Y687234D01*
X380000Y683711D01*
X397714Y687234D01*
X408311Y694314D01*
X875218D01*
X914767Y654766D01*
X926344Y647031D01*
X940000Y644314D01*
X954911D01*
X962929Y629314D01*
X954626Y616888D01*
X949775Y592501D01*
Y507501D01*
X954626Y483115D01*
X968440Y462442D01*
X989113Y448628D01*
X1013500Y443777D01*
X1138500D01*
X1162886Y448628D01*
X1183560Y462442D01*
X1197374Y483115D01*
X1202224Y507501D01*
Y592501D01*
X1197374Y616888D01*
X1183560Y637561D01*
X1177100Y641878D01*
X1177133Y659896D01*
X1233926Y716689D01*
X1236441Y716441D01*
X1257114Y702628D01*
X1281500Y697777D01*
X1406501D01*
X1430887Y702628D01*
X1451560Y716442D01*
X1461058Y730655D01*
X1476058Y726105D01*
Y654475D01*
X1462829Y647404D01*
X1456886Y651375D01*
X1432500Y656226D01*
X1307500D01*
X1283113Y651375D01*
X1262440Y637561D01*
X1248626Y616888D01*
X1243775Y592501D01*
Y507501D01*
X1248626Y483115D01*
X1262440Y462442D01*
X1283113Y448628D01*
X1307500Y443777D01*
X1432500D01*
X1456886Y448628D01*
X1462829Y452599D01*
X1476058Y445528D01*
Y383617D01*
X1461058Y379067D01*
X1455454Y387454D01*
X1432994Y402462D01*
X1406501Y407731D01*
X1356700D01*
Y296001D01*
Y184271D01*
X1406501D01*
X1432994Y189541D01*
X1455454Y204548D01*
X1461058Y212936D01*
X1476058Y208385D01*
Y143944D01*
X200000D01*
X199453Y143835D01*
X159563Y149087D01*
X121882Y164695D01*
X89524Y189524D01*
X64695Y221882D01*
X49087Y259563D01*
X43836Y299453D01*
X43944Y299999D01*
Y2476056D01*
X1476058D01*
Y2405898D01*
D02*
G37*
G36*
X1236121Y2101792D02*
X1243775Y2096678D01*
Y2031501D01*
X1248626Y2007115D01*
X1262440Y1986442D01*
X1283113Y1972628D01*
X1307500Y1967777D01*
X1432500D01*
X1456886Y1972628D01*
X1462829Y1976599D01*
X1476058Y1969528D01*
Y1897898D01*
X1461058Y1893348D01*
X1451560Y1907561D01*
X1430887Y1921375D01*
X1406501Y1926226D01*
X1281500D01*
X1257114Y1921375D01*
X1236440Y1907561D01*
X1222626Y1886888D01*
X1217776Y1862501D01*
Y1777501D01*
X1222626Y1753115D01*
X1236440Y1732442D01*
X1257114Y1718628D01*
X1281500Y1713777D01*
X1406501D01*
X1430887Y1718628D01*
X1451560Y1732442D01*
X1461058Y1746655D01*
X1476058Y1742105D01*
Y1670475D01*
X1462829Y1663404D01*
X1456886Y1667375D01*
X1432500Y1672226D01*
X1307500D01*
X1283113Y1667375D01*
X1262440Y1653561D01*
X1248626Y1632888D01*
X1243775Y1608501D01*
Y1559314D01*
X1243629D01*
X1229972Y1556598D01*
X1218395Y1548862D01*
X1216082Y1546550D01*
X1202224Y1552290D01*
Y1608501D01*
X1197374Y1632888D01*
X1183560Y1653561D01*
X1162886Y1667375D01*
X1138500Y1672226D01*
X1013500D01*
X989113Y1667375D01*
X968440Y1653561D01*
X954626Y1632888D01*
X949775Y1608501D01*
Y1525127D01*
X945750Y1521102D01*
X504419D01*
X454340Y1571180D01*
Y1618005D01*
X451624Y1631661D01*
X443888Y1643239D01*
X407981Y1679146D01*
X404540Y1696442D01*
X394506Y1711460D01*
X389397Y1714874D01*
X387367Y1734057D01*
X470456Y1817146D01*
X484314Y1811406D01*
Y1643164D01*
X480731Y1637801D01*
X477207Y1620087D01*
X480731Y1602373D01*
X490765Y1587355D01*
X505783Y1577321D01*
X523497Y1573797D01*
X541211Y1577321D01*
X556229Y1587355D01*
X566263Y1602373D01*
X569786Y1620087D01*
X566263Y1637801D01*
X556229Y1652819D01*
X555686Y1653181D01*
Y1825219D01*
X834781Y2104314D01*
X949775D01*
Y2031501D01*
X954626Y2007115D01*
X968440Y1986442D01*
X989113Y1972628D01*
X1013500Y1967777D01*
X1138500D01*
X1162886Y1972628D01*
X1183560Y1986442D01*
X1197374Y2007115D01*
X1202224Y2031501D01*
Y2114475D01*
X1211130Y2121261D01*
X1214728Y2123185D01*
X1236121Y2101792D01*
D02*
G37*
%LPC*%
G36*
X1125201Y2438401D02*
X1062700D01*
Y2340701D01*
X1180400D01*
Y2383201D01*
X1125201Y2438401D01*
D02*
G37*
G36*
X1037300D02*
X974800D01*
X919600Y2383201D01*
Y2340701D01*
X1037300D01*
Y2438401D01*
D02*
G37*
G36*
X334249Y2344157D02*
X305699D01*
Y2252701D01*
X399656D01*
Y2278751D01*
X394677Y2303781D01*
X380499Y2325000D01*
X359279Y2339178D01*
X334249Y2344157D01*
D02*
G37*
G36*
X280299D02*
X251749D01*
X226719Y2339178D01*
X205500Y2325000D01*
X191321Y2303781D01*
X186343Y2278751D01*
Y2252701D01*
X280299D01*
Y2344157D01*
D02*
G37*
G36*
X399656Y2227301D02*
X305699D01*
Y2135844D01*
X334249D01*
X359279Y2140823D01*
X380499Y2155001D01*
X394677Y2176220D01*
X399656Y2201251D01*
Y2227301D01*
D02*
G37*
G36*
X280299D02*
X186343D01*
Y2201251D01*
X191321Y2176220D01*
X205500Y2155001D01*
X226719Y2140823D01*
X251749Y2135844D01*
X280299D01*
Y2227301D01*
D02*
G37*
G36*
X484251Y524156D02*
X455701D01*
Y432699D01*
X549658D01*
Y458749D01*
X544679Y483779D01*
X530501Y504999D01*
X509281Y519177D01*
X484251Y524156D01*
D02*
G37*
G36*
X430301D02*
X401752D01*
X376721Y519177D01*
X355502Y504999D01*
X341324Y483779D01*
X336345Y458749D01*
Y432699D01*
X430301D01*
Y524156D01*
D02*
G37*
G36*
X549658Y407299D02*
X455701D01*
Y315842D01*
X484251D01*
X509281Y320821D01*
X530501Y335000D01*
X544679Y356219D01*
X549658Y381249D01*
Y407299D01*
D02*
G37*
G36*
X430301D02*
X336345D01*
Y381249D01*
X341324Y356219D01*
X355502Y335000D01*
X376721Y320821D01*
X401752Y315842D01*
X430301D01*
Y407299D01*
D02*
G37*
G36*
X1331300Y407731D02*
X1281500D01*
X1255007Y402462D01*
X1232547Y387454D01*
X1217540Y364995D01*
X1212270Y338501D01*
Y308701D01*
X1331300D01*
Y407731D01*
D02*
G37*
G36*
X1112501Y402226D02*
X987500D01*
X963114Y397375D01*
X942440Y383561D01*
X928627Y362888D01*
X923776Y338501D01*
Y253501D01*
X928627Y229115D01*
X942440Y208442D01*
X963114Y194628D01*
X987500Y189777D01*
X1112501D01*
X1136887Y194628D01*
X1157561Y208442D01*
X1171374Y229115D01*
X1176225Y253501D01*
Y338501D01*
X1171374Y362888D01*
X1157561Y383561D01*
X1136887Y397375D01*
X1112501Y402226D01*
D02*
G37*
G36*
X1331300Y283301D02*
X1212270D01*
Y253501D01*
X1217540Y227008D01*
X1232547Y204548D01*
X1255007Y189541D01*
X1281500Y184271D01*
X1331300D01*
Y283301D01*
D02*
G37*
G36*
X1112501Y1926226D02*
X987500D01*
X963114Y1921375D01*
X942440Y1907561D01*
X928627Y1886888D01*
X923776Y1862501D01*
Y1777501D01*
X928627Y1753115D01*
X942440Y1732442D01*
X963114Y1718628D01*
X987500Y1713777D01*
X1112501D01*
X1136887Y1718628D01*
X1157561Y1732442D01*
X1171374Y1753115D01*
X1176225Y1777501D01*
Y1862501D01*
X1171374Y1886888D01*
X1157561Y1907561D01*
X1136887Y1921375D01*
X1112501Y1926226D01*
D02*
G37*
%LPD*%
D11*
X418655Y1556399D02*
X489638Y1485416D01*
X361774Y1674885D02*
X418655Y1618005D01*
Y1556399D02*
Y1618005D01*
X520000Y1623584D02*
X523497Y1620087D01*
X520000Y1623584D02*
Y1840000D01*
X361774Y1674885D02*
Y1678728D01*
X365753Y1544247D02*
Y1591145D01*
Y1544247D02*
X470797Y1439203D01*
X361773Y1595124D02*
X365753Y1591145D01*
X305375Y1510583D02*
X365882Y1450076D01*
X259375Y1471144D02*
X347549Y1382969D01*
X213375Y1452090D02*
Y1772647D01*
X371228Y1930501D01*
X305375Y1510583D02*
Y1702532D01*
X259375Y1471144D02*
Y1738886D01*
X305375Y1702532D02*
X802842Y2200000D01*
X213375Y1452090D02*
X341686Y1323779D01*
X259375Y1738886D02*
X371016Y1850527D01*
X489638Y1485416D02*
X960531D01*
X520000Y1840000D02*
X820000Y2140000D01*
X470797Y1439203D02*
X1159203D01*
X1223014Y756244D02*
X1276243D01*
X940000Y680000D02*
X1146769D01*
X1276243Y756244D02*
X1324000Y804001D01*
X1146769Y680000D02*
X1223014Y756244D01*
X1041117Y2074001D02*
X1096000D01*
X975118Y2140000D02*
X1041117Y2074001D01*
X820000Y2140000D02*
X975118D01*
X802842Y2200000D02*
X1188380D01*
X341686Y1323779D02*
X360000Y1305465D01*
Y1180000D02*
Y1305465D01*
X347549Y1382969D02*
X757031D01*
X959627Y1110373D02*
X1043628D01*
X743954Y1326047D02*
X959627Y1110373D01*
X343953Y1326047D02*
X743954D01*
X1043628Y1110373D02*
X1096000Y1058001D01*
X953457Y1186544D02*
X1198543D01*
X757031Y1382969D02*
X953457Y1186544D01*
X1296976Y2127025D02*
X1350000Y2074001D01*
X1188380Y2200000D02*
X1261355Y2127025D01*
X1296976D01*
X960531Y1485416D02*
X1041117Y1566001D01*
X1159203Y1439203D02*
X1243629Y1523629D01*
X1041117Y1566001D02*
X1096000D01*
X360000Y995629D02*
X380000Y975629D01*
Y970000D02*
Y975629D01*
X360000Y995629D02*
Y1080000D01*
X1198543Y1186544D02*
X1324000Y1312001D01*
X391627Y804001D02*
X1070000D01*
X385629Y810000D02*
X391627Y804001D01*
X380000Y810000D02*
X385629D01*
X380000Y730000D02*
X890000D01*
X940000Y680000D01*
X1243629Y1523629D02*
X1307627D01*
X1350000Y1566001D01*
D14*
X1050000Y2328001D02*
D03*
D15*
X1076000Y2074001D02*
D03*
X1050000Y1820001D02*
D03*
X1076000Y1566001D02*
D03*
X1050000Y1312001D02*
D03*
X1076000Y1058001D02*
D03*
X1050000Y804001D02*
D03*
X1344000Y2328001D02*
D03*
X1370000Y2074001D02*
D03*
X1344000Y1820001D02*
D03*
X1370000Y1566001D02*
D03*
X1344000Y1312001D02*
D03*
X1370000Y1058001D02*
D03*
X1344000Y804001D02*
D03*
X1076000Y550001D02*
D03*
X1050000Y296001D02*
D03*
X1370000Y550001D02*
D03*
X1344000Y296001D02*
D03*
D16*
X443001Y419999D02*
D03*
X292999Y2240001D02*
D03*
D17*
X523497Y1620087D02*
D03*
X361773Y1595124D02*
D03*
X361774Y1678728D02*
D03*
X895858Y1874378D02*
D03*
X808751Y891705D02*
D03*
X908752Y1031705D02*
D03*
X808751Y1131705D02*
D03*
X1240000Y1950000D02*
D03*
Y670000D02*
D03*
X830362Y579264D02*
D03*
X680000Y2170000D02*
D03*
X310000Y490000D02*
D03*
X705819Y497038D02*
D03*
X810000Y2010000D02*
D03*
X371016Y1850527D02*
D03*
X371228Y1930501D02*
D03*
X365882Y1450076D02*
D03*
X455356Y1763670D02*
D03*
X820000Y1550000D02*
D03*
X860000Y200000D02*
D03*
X830000Y2440000D02*
D03*
X880000Y2270000D02*
D03*
X80000Y1530000D02*
D03*
Y1770000D02*
D03*
Y2010000D02*
D03*
Y2440000D02*
D03*
X430000Y2160000D02*
D03*
X440000Y2010000D02*
D03*
X80000Y1130000D02*
D03*
Y890000D02*
D03*
Y650000D02*
D03*
X130000Y220000D02*
D03*
X380000Y810000D02*
D03*
Y730000D02*
D03*
Y970000D02*
D03*
X400000Y890000D02*
D03*
X440000Y1130000D02*
D03*
Y650000D02*
D03*
D18*
X360000Y1080000D02*
D03*
Y1180000D02*
D03*
%TF.MD5,6a21ca48f129d8763030ea4fd49e280b*%
M02*
