%TF.GenerationSoftware,Altium Limited,Altium Designer,24.8.2 (39)*%
G04 Layer_Physical_Order=1*
G04 Layer_Color=255*
%FSLAX45Y45*%
%MOMM*%
%TF.SameCoordinates,FBB41CCB-3D8C-4B0B-A071-B3836E82DD1E*%
%TF.FilePolarity,Positive*%
%TF.FileFunction,Copper,L1,Top,Signal*%
%TF.Part,Single*%
G01*
G75*
%TA.AperFunction,SMDPad,CuDef*%
G04:AMPARAMS|DCode=10|XSize=2.2mm|YSize=0.5mm|CornerRadius=0.125mm|HoleSize=0mm|Usage=FLASHONLY|Rotation=0.000|XOffset=0mm|YOffset=0mm|HoleType=Round|Shape=RoundedRectangle|*
%AMROUNDEDRECTD10*
21,1,2.20000,0.25000,0,0,0.0*
21,1,1.95000,0.50000,0,0,0.0*
1,1,0.25000,0.97500,-0.12500*
1,1,0.25000,-0.97500,-0.12500*
1,1,0.25000,-0.97500,0.12500*
1,1,0.25000,0.97500,0.12500*
%
%ADD10ROUNDEDRECTD10*%
%TA.AperFunction,Conductor*%
%ADD11C,0.30000*%
%ADD12C,0.35000*%
%ADD13C,0.40000*%
%TA.AperFunction,ComponentPad*%
G04:AMPARAMS|DCode=14|XSize=1.7mm|YSize=2.1mm|CornerRadius=0mm|HoleSize=0mm|Usage=FLASHONLY|Rotation=270.000|XOffset=0mm|YOffset=0mm|HoleType=Round|Shape=Octagon|*
%AMOCTAGOND14*
4,1,8,1.05000,0.42500,1.05000,-0.42500,0.62500,-0.85000,-0.62500,-0.85000,-1.05000,-0.42500,-1.05000,0.42500,-0.62500,0.85000,0.62500,0.85000,1.05000,0.42500,0.0*
%
%ADD14OCTAGOND14*%

G04:AMPARAMS|DCode=15|XSize=1.7mm|YSize=2.1mm|CornerRadius=0.425mm|HoleSize=0mm|Usage=FLASHONLY|Rotation=270.000|XOffset=0mm|YOffset=0mm|HoleType=Round|Shape=RoundedRectangle|*
%AMROUNDEDRECTD15*
21,1,1.70000,1.25001,0,0,270.0*
21,1,0.85000,2.10000,0,0,270.0*
1,1,0.85000,-0.62500,-0.42500*
1,1,0.85000,-0.62500,0.42500*
1,1,0.85000,0.62500,0.42500*
1,1,0.85000,0.62500,-0.42500*
%
%ADD15ROUNDEDRECTD15*%
G04:AMPARAMS|DCode=16|XSize=1.55mm|YSize=1.6mm|CornerRadius=0.3875mm|HoleSize=0mm|Usage=FLASHONLY|Rotation=270.000|XOffset=0mm|YOffset=0mm|HoleType=Round|Shape=RoundedRectangle|*
%AMROUNDEDRECTD16*
21,1,1.55000,0.82500,0,0,270.0*
21,1,0.77500,1.60000,0,0,270.0*
1,1,0.77500,-0.41250,-0.38750*
1,1,0.77500,-0.41250,0.38750*
1,1,0.77500,0.41250,0.38750*
1,1,0.77500,0.41250,-0.38750*
%
%ADD16ROUNDEDRECTD16*%
%TA.AperFunction,ViaPad*%
%ADD17C,0.50800*%
G36*
X1476058Y2405898D02*
X1461058Y2401348D01*
X1451560Y2415561D01*
X1430887Y2429375D01*
X1406501Y2434226D01*
X1281500D01*
X1257114Y2429375D01*
X1236440Y2415561D01*
X1222626Y2394888D01*
X1217776Y2370501D01*
Y2285501D01*
X1219377Y2277450D01*
X1180162Y2238234D01*
X1165432D01*
X1159691Y2252092D01*
X1180400Y2272802D01*
Y2315301D01*
X1050000D01*
X919600D01*
Y2272802D01*
X940310Y2252092D01*
X934569Y2238234D01*
X860000D01*
X845368Y2235324D01*
X832964Y2227036D01*
X741661Y2135733D01*
X663501D01*
X663010Y2135635D01*
X548501D01*
X535820Y2133113D01*
X528517Y2128233D01*
X367020D01*
X362886Y2143233D01*
X380499Y2155001D01*
X394677Y2176220D01*
X399656Y2201251D01*
Y2227301D01*
X292999D01*
X186343D01*
Y2201251D01*
X191321Y2176220D01*
X205500Y2155001D01*
X212034Y2150635D01*
X207484Y2135635D01*
X142502D01*
X129821Y2133113D01*
X119071Y2125929D01*
X111888Y2115179D01*
X109365Y2102498D01*
Y2077498D01*
X111888Y2064818D01*
X115178Y2049823D01*
X106801Y2037287D01*
X103899Y2022699D01*
X376105D01*
X373307Y2036764D01*
X373235Y2037342D01*
X381570Y2051764D01*
X504433D01*
X512767Y2037342D01*
X512696Y2036764D01*
X509898Y2022699D01*
X646001D01*
X782103D01*
X779202Y2037287D01*
X770825Y2049823D01*
X775735Y2064583D01*
X784534Y2070462D01*
X875837Y2161766D01*
X950536D01*
X958553Y2146766D01*
X954626Y2140888D01*
X949775Y2116501D01*
Y2031501D01*
X954626Y2007115D01*
X968440Y1986442D01*
X989113Y1972628D01*
X1013500Y1967777D01*
X1138500D01*
X1162886Y1972628D01*
X1183560Y1986442D01*
X1197374Y2007115D01*
X1202224Y2031501D01*
Y2116501D01*
X1197374Y2140888D01*
X1193446Y2146766D01*
X1194261Y2151550D01*
X1200823Y2162725D01*
X1210631Y2164676D01*
X1223035Y2172964D01*
X1273449Y2223379D01*
X1281500Y2221777D01*
X1406501D01*
X1430887Y2226628D01*
X1451560Y2240442D01*
X1461058Y2254655D01*
X1476058Y2250105D01*
Y2178475D01*
X1462829Y2171404D01*
X1456886Y2175375D01*
X1432500Y2180226D01*
X1307500D01*
X1283113Y2175375D01*
X1262440Y2161561D01*
X1248626Y2140888D01*
X1243775Y2116501D01*
Y2031501D01*
X1248626Y2007115D01*
X1262440Y1986442D01*
X1283113Y1972628D01*
X1307500Y1967777D01*
X1432500D01*
X1456886Y1972628D01*
X1462829Y1976599D01*
X1476058Y1969528D01*
Y1897898D01*
X1461058Y1893348D01*
X1451560Y1907561D01*
X1430887Y1921375D01*
X1406501Y1926226D01*
X1281500D01*
X1257114Y1921375D01*
X1236440Y1907561D01*
X1222626Y1886888D01*
X1217776Y1862501D01*
Y1777501D01*
X1219975Y1766444D01*
X1184493Y1730961D01*
X1175065Y1732034D01*
X1167590Y1747451D01*
X1171374Y1753115D01*
X1176225Y1777501D01*
Y1862501D01*
X1171374Y1886888D01*
X1157561Y1907561D01*
X1136887Y1921375D01*
X1112501Y1926226D01*
X987500D01*
X963114Y1921375D01*
X942440Y1907561D01*
X928627Y1886888D01*
X923776Y1862501D01*
Y1825686D01*
X904782D01*
X785235Y1945232D01*
X774692Y1952277D01*
X774115Y1955179D01*
X770825Y1970174D01*
X779202Y1982711D01*
X782103Y1997299D01*
X646001D01*
X509898D01*
X512800Y1982711D01*
X521176Y1970174D01*
X517886Y1955179D01*
X515364Y1942499D01*
Y1917499D01*
X517886Y1904818D01*
X525070Y1894068D01*
Y1885930D01*
X517886Y1875180D01*
X515364Y1862499D01*
Y1837499D01*
X517886Y1824818D01*
X521176Y1809823D01*
X512800Y1797287D01*
X509898Y1782699D01*
X646001D01*
Y1757299D01*
X509898D01*
X512800Y1742711D01*
X521176Y1730175D01*
X517886Y1715180D01*
X515364Y1702499D01*
Y1677499D01*
X515733Y1675646D01*
X507399Y1663174D01*
X505783Y1662853D01*
X490765Y1652819D01*
X480731Y1637801D01*
X477207Y1620087D01*
X480731Y1602373D01*
X490765Y1587355D01*
X505783Y1577321D01*
X507868Y1576906D01*
X514772Y1560239D01*
X512800Y1557287D01*
X509898Y1542699D01*
X646001D01*
X782103D01*
X779202Y1557287D01*
X770825Y1569824D01*
X774115Y1584819D01*
X776638Y1597499D01*
Y1622499D01*
X774115Y1635180D01*
X771353Y1639313D01*
X779330Y1654313D01*
X797897D01*
X884314Y1567896D01*
Y1422002D01*
X887031Y1408346D01*
X894766Y1396768D01*
X925975Y1365559D01*
X923776Y1354501D01*
Y1269501D01*
X928627Y1245115D01*
X942440Y1224442D01*
X963114Y1210628D01*
X987500Y1205777D01*
X1112501D01*
X1136887Y1210628D01*
X1157561Y1224442D01*
X1171374Y1245115D01*
X1176225Y1269501D01*
Y1354501D01*
X1171374Y1378888D01*
X1157561Y1399561D01*
X1136887Y1413375D01*
X1112501Y1418226D01*
X987500D01*
X976443Y1416026D01*
X955686Y1436784D01*
Y1472585D01*
X970686Y1476941D01*
X989113Y1464628D01*
X1013500Y1459777D01*
X1138500D01*
X1162886Y1464628D01*
X1183560Y1478442D01*
X1197374Y1499115D01*
X1202224Y1523501D01*
Y1608501D01*
X1197374Y1632888D01*
X1193080Y1639314D01*
X1193270Y1642411D01*
X1200265Y1655561D01*
X1207655Y1657031D01*
X1219233Y1664766D01*
X1270443Y1715977D01*
X1281500Y1713777D01*
X1406501D01*
X1430887Y1718628D01*
X1451560Y1732442D01*
X1461058Y1746655D01*
X1476058Y1742105D01*
Y1670475D01*
X1462829Y1663404D01*
X1456886Y1667375D01*
X1432500Y1672226D01*
X1307500D01*
X1283113Y1667375D01*
X1262440Y1653561D01*
X1248626Y1632888D01*
X1243775Y1608501D01*
Y1523501D01*
X1248626Y1499115D01*
X1262440Y1478442D01*
X1283113Y1464628D01*
X1307500Y1459777D01*
X1432500D01*
X1456886Y1464628D01*
X1462829Y1468599D01*
X1476058Y1461528D01*
Y1389898D01*
X1461058Y1385348D01*
X1451560Y1399561D01*
X1430887Y1413375D01*
X1406501Y1418226D01*
X1281500D01*
X1257114Y1413375D01*
X1236440Y1399561D01*
X1222626Y1378888D01*
X1217776Y1354501D01*
Y1269501D01*
X1222626Y1245115D01*
X1236440Y1224442D01*
X1257114Y1210628D01*
X1281500Y1205777D01*
X1406501D01*
X1430887Y1210628D01*
X1451560Y1224442D01*
X1461058Y1238655D01*
X1476058Y1234105D01*
Y1162475D01*
X1462829Y1155404D01*
X1456886Y1159375D01*
X1432500Y1164226D01*
X1307500D01*
X1283113Y1159375D01*
X1262440Y1145561D01*
X1248626Y1124888D01*
X1243775Y1100501D01*
Y1039570D01*
X1239793Y1038777D01*
X1228216Y1031042D01*
X1217224Y1020051D01*
X1202224Y1026264D01*
Y1100501D01*
X1197374Y1124888D01*
X1183560Y1145561D01*
X1162886Y1159375D01*
X1138500Y1164226D01*
X1013500D01*
X989113Y1159375D01*
X968440Y1145561D01*
X954626Y1124888D01*
X949775Y1100501D01*
Y1015501D01*
X953151Y998529D01*
X939327Y991140D01*
X935233Y995234D01*
X923656Y1002970D01*
X909999Y1005686D01*
X779330D01*
X771353Y1020686D01*
X774115Y1024820D01*
X776638Y1037500D01*
Y1062501D01*
X774115Y1075181D01*
X770825Y1090176D01*
X779202Y1102712D01*
X782103Y1117300D01*
X646001D01*
X509898D01*
X512800Y1102712D01*
X521176Y1090176D01*
X517886Y1075181D01*
X515364Y1062501D01*
Y1037500D01*
X517886Y1024820D01*
X525070Y1014070D01*
Y1005931D01*
X517886Y995181D01*
X515364Y982501D01*
Y957500D01*
X517886Y944820D01*
X521176Y929825D01*
X512800Y917289D01*
X509898Y902701D01*
X646001D01*
X782103D01*
X779202Y917289D01*
X777848Y919315D01*
X785866Y934315D01*
X895218D01*
X919770Y909763D01*
X931347Y902027D01*
X932600Y901778D01*
X932807Y901563D01*
X938291Y885352D01*
X928627Y870888D01*
X923776Y846501D01*
Y761501D01*
X928627Y737115D01*
X942440Y716442D01*
X963114Y702628D01*
X987500Y697777D01*
X1112501D01*
X1136887Y702628D01*
X1157561Y716442D01*
X1171374Y737115D01*
X1176225Y761501D01*
Y846501D01*
X1171374Y870888D01*
X1162405Y884311D01*
X1170423Y899311D01*
X1182637D01*
X1196294Y902027D01*
X1207871Y909763D01*
X1266102Y967994D01*
X1283113Y956628D01*
X1307500Y951777D01*
X1432500D01*
X1456886Y956628D01*
X1462829Y960599D01*
X1476058Y953528D01*
Y881898D01*
X1461058Y877348D01*
X1451560Y891561D01*
X1430887Y905375D01*
X1406501Y910226D01*
X1281500D01*
X1257114Y905375D01*
X1236440Y891561D01*
X1222626Y870888D01*
X1217776Y846501D01*
Y761501D01*
X1222626Y737115D01*
X1236440Y716442D01*
X1257114Y702628D01*
X1281500Y697777D01*
X1406501D01*
X1430887Y702628D01*
X1451560Y716442D01*
X1461058Y730655D01*
X1476058Y726105D01*
Y654475D01*
X1462829Y647404D01*
X1456886Y651375D01*
X1432500Y656226D01*
X1307500D01*
X1283113Y651375D01*
X1262440Y637561D01*
X1248626Y616888D01*
X1243775Y592501D01*
Y507501D01*
X1245975Y496444D01*
X1210492Y460961D01*
X1201064Y462034D01*
X1193589Y477451D01*
X1197374Y483115D01*
X1202224Y507501D01*
Y592501D01*
X1197374Y616888D01*
X1183560Y637561D01*
X1162886Y651375D01*
X1138500Y656226D01*
X1013500D01*
X989113Y651375D01*
X974673Y641726D01*
X791164Y825235D01*
X779587Y832970D01*
X774348Y834012D01*
X774115Y835181D01*
X770825Y850177D01*
X779202Y862713D01*
X782103Y877301D01*
X646001D01*
X509898D01*
X512800Y862713D01*
X521176Y850177D01*
X517886Y835182D01*
X515364Y822501D01*
Y797501D01*
X517886Y784820D01*
X525070Y774070D01*
Y765932D01*
X517886Y755182D01*
X515364Y742501D01*
Y717501D01*
X517886Y704821D01*
X521176Y689825D01*
X512800Y677289D01*
X509898Y662701D01*
X646001D01*
Y637301D01*
X509898D01*
X512189Y625785D01*
X504103Y610785D01*
X381900D01*
X373814Y625785D01*
X376105Y637301D01*
X103899D01*
X106801Y622713D01*
X115178Y610177D01*
X111888Y595182D01*
X109365Y582502D01*
Y557501D01*
X111888Y544821D01*
X119071Y534070D01*
X129821Y526887D01*
X142502Y524365D01*
X337502D01*
X350183Y526887D01*
X350623Y527181D01*
X358827Y525261D01*
X361746Y509171D01*
X355502Y504999D01*
X341324Y483779D01*
X336345Y458749D01*
Y432699D01*
X443001D01*
X549658D01*
Y458749D01*
X544679Y483779D01*
X530501Y504999D01*
X524257Y509171D01*
X527176Y525261D01*
X535379Y527181D01*
X535820Y526887D01*
X548501Y524365D01*
X718961D01*
X923776Y319550D01*
Y253501D01*
X928627Y229115D01*
X942440Y208442D01*
X963114Y194628D01*
X987500Y189777D01*
X1112501D01*
X1136887Y194628D01*
X1157561Y208442D01*
X1171374Y229115D01*
X1176225Y253501D01*
Y338501D01*
X1171374Y362888D01*
X1167080Y369314D01*
X1175098Y384314D01*
X1212408D01*
X1220590Y369559D01*
X1217540Y364995D01*
X1212270Y338501D01*
Y308701D01*
X1344000D01*
Y296001D01*
X1356700D01*
Y184271D01*
X1406501D01*
X1432994Y189541D01*
X1455454Y204548D01*
X1461058Y212936D01*
X1476058Y208385D01*
Y143944D01*
X200000D01*
X199453Y143835D01*
X159563Y149087D01*
X121882Y164695D01*
X89524Y189524D01*
X64695Y221882D01*
X49087Y259563D01*
X43836Y299453D01*
X43944Y299999D01*
Y2476056D01*
X1476058D01*
Y2405898D01*
D02*
G37*
%LPC*%
G36*
X1125201Y2438401D02*
X1062700D01*
Y2340701D01*
X1180400D01*
Y2383201D01*
X1125201Y2438401D01*
D02*
G37*
G36*
X1037300D02*
X974800D01*
X919600Y2383201D01*
Y2340701D01*
X1037300D01*
Y2438401D01*
D02*
G37*
G36*
X334249Y2344157D02*
X305699D01*
Y2252701D01*
X399656D01*
Y2278751D01*
X394677Y2303781D01*
X380499Y2325000D01*
X359279Y2339178D01*
X334249Y2344157D01*
D02*
G37*
G36*
X280299D02*
X251749D01*
X226719Y2339178D01*
X205500Y2325000D01*
X191321Y2303781D01*
X186343Y2278751D01*
Y2252701D01*
X280299D01*
Y2344157D01*
D02*
G37*
G36*
X376105Y1997299D02*
X103899D01*
X106801Y1982711D01*
X115178Y1970174D01*
X111888Y1955179D01*
X109365Y1942499D01*
Y1917499D01*
X111888Y1904818D01*
X119071Y1894068D01*
Y1885930D01*
X111888Y1875180D01*
X109365Y1862499D01*
Y1837499D01*
X111888Y1824818D01*
X115178Y1809823D01*
X106801Y1797287D01*
X103899Y1782699D01*
X376105D01*
X374716Y1789680D01*
X382850Y1805365D01*
X384771Y1806974D01*
X388730Y1807761D01*
X403748Y1817795D01*
X413782Y1832813D01*
X417306Y1850527D01*
X413782Y1868241D01*
X403748Y1883259D01*
Y1889325D01*
X405525Y1900112D01*
X413994Y1912786D01*
X417518Y1930501D01*
X413994Y1948215D01*
X403960Y1963232D01*
X388943Y1973267D01*
X385404Y1973970D01*
X383638Y1975236D01*
X374921Y1991349D01*
X376105Y1997299D01*
D02*
G37*
G36*
Y1757299D02*
X103899D01*
X106801Y1742711D01*
X115178Y1730175D01*
X111888Y1715180D01*
X109365Y1702499D01*
Y1677499D01*
X111888Y1664818D01*
X119071Y1654068D01*
Y1645930D01*
X111888Y1635180D01*
X109365Y1622499D01*
Y1597499D01*
X111888Y1584819D01*
X115178Y1569824D01*
X106801Y1557287D01*
X103899Y1542699D01*
X376105D01*
X375400Y1546241D01*
X379488Y1552359D01*
X394505Y1562393D01*
X404539Y1577410D01*
X408063Y1595124D01*
X404539Y1612839D01*
X394505Y1627856D01*
X392156Y1629426D01*
Y1644426D01*
X394506Y1645996D01*
X404540Y1661014D01*
X408064Y1678728D01*
X404540Y1696442D01*
X394506Y1711460D01*
X379489Y1721494D01*
X377351Y1721919D01*
X370447Y1738586D01*
X373203Y1742711D01*
X376105Y1757299D01*
D02*
G37*
G36*
Y1517299D02*
X103899D01*
X106801Y1502711D01*
X115178Y1490175D01*
X111888Y1475180D01*
X109365Y1462500D01*
Y1437500D01*
X111888Y1424819D01*
X119071Y1414069D01*
Y1405931D01*
X111888Y1395181D01*
X109365Y1382500D01*
Y1357500D01*
X111888Y1344819D01*
X119071Y1334069D01*
Y1325931D01*
X111888Y1315181D01*
X109365Y1302500D01*
Y1277500D01*
X111888Y1264819D01*
X119071Y1254069D01*
Y1245931D01*
X111888Y1235181D01*
X109365Y1222500D01*
Y1197500D01*
X111888Y1184820D01*
X115178Y1169824D01*
X106801Y1157288D01*
X103899Y1142700D01*
X376105D01*
X373203Y1157288D01*
X364827Y1169824D01*
X368116Y1184819D01*
X370639Y1197500D01*
Y1222500D01*
X368116Y1235181D01*
X360933Y1245931D01*
Y1254069D01*
X368116Y1264819D01*
X370639Y1277500D01*
Y1302500D01*
X368116Y1315181D01*
X360933Y1325931D01*
Y1334069D01*
X368116Y1344819D01*
X370639Y1357500D01*
Y1382500D01*
X369311Y1389174D01*
X376470Y1403983D01*
X378703Y1406336D01*
X383596Y1407310D01*
X398614Y1417344D01*
X408648Y1432361D01*
X412172Y1450076D01*
X408648Y1467790D01*
X398614Y1482807D01*
X383596Y1492842D01*
X383313Y1492898D01*
X374636Y1509918D01*
X376105Y1517299D01*
D02*
G37*
G36*
X782103D02*
X646001D01*
X509898D01*
X512800Y1502711D01*
X521176Y1490175D01*
X517886Y1475180D01*
X515364Y1462500D01*
Y1437500D01*
X517886Y1424819D01*
X525070Y1414069D01*
Y1405931D01*
X517886Y1395181D01*
X515364Y1382500D01*
Y1357500D01*
X517886Y1344819D01*
X525070Y1334069D01*
Y1325931D01*
X517886Y1315181D01*
X515364Y1302500D01*
Y1277500D01*
X517886Y1264819D01*
X525070Y1254069D01*
Y1245931D01*
X517886Y1235181D01*
X515364Y1222500D01*
Y1197500D01*
X517886Y1184820D01*
X521176Y1169824D01*
X512800Y1157288D01*
X509898Y1142700D01*
X646001D01*
X782103D01*
X779202Y1157288D01*
X770825Y1169824D01*
X774115Y1184819D01*
X776638Y1197500D01*
Y1222500D01*
X774115Y1235181D01*
X766932Y1245931D01*
Y1254069D01*
X774115Y1264819D01*
X776638Y1277500D01*
Y1302500D01*
X774115Y1315181D01*
X766932Y1325931D01*
Y1334069D01*
X774115Y1344819D01*
X776638Y1357500D01*
Y1382500D01*
X774115Y1395181D01*
X766932Y1405931D01*
Y1414069D01*
X774115Y1424819D01*
X776638Y1437500D01*
Y1462500D01*
X774115Y1475180D01*
X770825Y1490175D01*
X779202Y1502711D01*
X782103Y1517299D01*
D02*
G37*
G36*
X376105Y1117300D02*
X103899D01*
X106801Y1102712D01*
X115178Y1090176D01*
X111888Y1075181D01*
X109365Y1062501D01*
Y1037500D01*
X111888Y1024820D01*
X119071Y1014070D01*
Y1005931D01*
X111888Y995181D01*
X109365Y982501D01*
Y957500D01*
X111888Y944820D01*
X115178Y929825D01*
X106801Y917289D01*
X103899Y902701D01*
X376105D01*
X374760Y909459D01*
X375880Y912504D01*
X384440Y924038D01*
X385825Y924869D01*
X397714Y927234D01*
X412732Y937268D01*
X422766Y952286D01*
X426289Y970000D01*
X422766Y987714D01*
X412732Y1002732D01*
X397714Y1012766D01*
X380000Y1016290D01*
X377395Y1018159D01*
X369028Y1029401D01*
X370639Y1037500D01*
Y1062501D01*
X368116Y1075181D01*
X364827Y1090176D01*
X373203Y1102712D01*
X376105Y1117300D01*
D02*
G37*
G36*
Y877301D02*
X103899D01*
X106801Y862713D01*
X115178Y850177D01*
X111888Y835182D01*
X109365Y822501D01*
Y797501D01*
X111888Y784820D01*
X119071Y774070D01*
Y765932D01*
X111888Y755182D01*
X109365Y742501D01*
Y717501D01*
X111888Y704821D01*
X115178Y689825D01*
X106801Y677289D01*
X103899Y662701D01*
X376105D01*
X374760Y669459D01*
X375880Y672504D01*
X384441Y684038D01*
X385825Y684869D01*
X397714Y687234D01*
X412732Y697268D01*
X422766Y712286D01*
X426289Y730000D01*
X422766Y747714D01*
X412732Y762732D01*
Y777268D01*
X422766Y792286D01*
X426289Y810000D01*
X422766Y827714D01*
X412732Y842732D01*
X397714Y852766D01*
X385825Y855131D01*
X384439Y855963D01*
X375880Y867495D01*
X374760Y870541D01*
X376105Y877301D01*
D02*
G37*
G36*
X549658Y407299D02*
X455701D01*
Y315842D01*
X484251D01*
X509281Y320821D01*
X530501Y335000D01*
X544679Y356219D01*
X549658Y381249D01*
Y407299D01*
D02*
G37*
G36*
X430301D02*
X336345D01*
Y381249D01*
X341324Y356219D01*
X355502Y335000D01*
X376721Y320821D01*
X401752Y315842D01*
X430301D01*
Y407299D01*
D02*
G37*
G36*
X1331300Y283301D02*
X1212270D01*
Y253501D01*
X1217540Y227008D01*
X1232547Y204548D01*
X1255007Y189541D01*
X1281500Y184271D01*
X1331300D01*
Y283301D01*
D02*
G37*
%LPD*%
D10*
X240002Y2089998D02*
D03*
X646001D02*
D03*
X240002Y2009999D02*
D03*
Y1929999D02*
D03*
Y1849999D02*
D03*
Y1769999D02*
D03*
Y1689999D02*
D03*
Y1609999D02*
D03*
Y1529999D02*
D03*
Y1450000D02*
D03*
Y1370000D02*
D03*
Y1290000D02*
D03*
Y1210000D02*
D03*
Y1130000D02*
D03*
Y1050000D02*
D03*
Y970001D02*
D03*
Y890001D02*
D03*
Y810001D02*
D03*
Y730001D02*
D03*
Y650001D02*
D03*
Y570001D02*
D03*
X646001Y2009999D02*
D03*
Y1929999D02*
D03*
Y1849999D02*
D03*
Y1769999D02*
D03*
Y1689999D02*
D03*
Y1609999D02*
D03*
Y1529999D02*
D03*
Y1450000D02*
D03*
Y1370000D02*
D03*
Y1290000D02*
D03*
Y1210000D02*
D03*
Y1130000D02*
D03*
Y1050000D02*
D03*
Y970001D02*
D03*
Y890001D02*
D03*
Y810001D02*
D03*
Y730001D02*
D03*
Y650001D02*
D03*
Y570001D02*
D03*
D11*
X649893Y1616107D02*
X656001Y1609999D01*
X527476Y1616107D02*
X649893D01*
X523497Y1620087D02*
X527476Y1616107D01*
X351270Y1599999D02*
X356145Y1595124D01*
X240002Y1599999D02*
X351270D01*
X230002Y1609999D02*
X240002Y1599999D01*
X356145Y1595124D02*
X361773D01*
X230002Y1689999D02*
X237294Y1682708D01*
X357795D02*
X361774Y1678728D01*
X237294Y1682708D02*
X357795D01*
X890000Y1790000D02*
X1039999D01*
X1070000Y1820001D01*
X760002Y1919999D02*
X890000Y1790000D01*
X666001Y1919999D02*
X760002D01*
X666001Y1839999D02*
X760001D01*
X910000Y1690000D01*
X1193999D01*
X1182637Y934996D02*
X1253449Y1005808D01*
X909999Y970001D02*
X945003Y934996D01*
X1182637D01*
X1253449Y1005808D02*
X1297807D01*
X1350000Y1058001D01*
X962906Y603025D02*
X1042976D01*
X666001Y800001D02*
X765931D01*
X962906Y603025D01*
X656001Y810001D02*
X666001Y800001D01*
X930000Y460000D02*
Y559388D01*
X830362Y579264D02*
Y580138D01*
X664966Y721035D02*
X768352D01*
X768909Y641592D02*
X830362Y580138D01*
X768352Y721035D02*
X930000Y559388D01*
X656001Y730001D02*
X664966Y721035D01*
X656001Y650001D02*
X664410Y641592D01*
X768909D01*
X1042976Y603025D02*
X1096000Y550001D01*
X230002Y1849999D02*
X230266Y1850263D01*
X370752D02*
X371016Y1850527D01*
X230266Y1850263D02*
X370752D01*
X230002Y1929999D02*
X230253Y1930250D01*
X370977D01*
X371228Y1930501D01*
X230002Y1450000D02*
X230040Y1450037D01*
X365844D02*
X365882Y1450076D01*
X230040Y1450037D02*
X365844D01*
X920000Y1422002D02*
Y1582678D01*
X656001Y1689999D02*
X812678D01*
X920000Y1582678D01*
X656001Y970001D02*
X909999D01*
X379999Y730001D02*
X380000Y730000D01*
X230003Y730001D02*
X379999D01*
X230002Y730001D02*
X230003Y730001D01*
X379999Y810000D02*
X380000Y810000D01*
X230003Y810000D02*
X379999D01*
X230002Y810001D02*
X230003Y810000D01*
X380000Y970000D02*
X380000Y970000D01*
X230002Y970000D02*
X380000D01*
X230002Y970001D02*
X230002Y970000D01*
X970000Y420000D02*
X1219998D01*
X930000Y460000D02*
X970000Y420000D01*
X1219998D02*
X1350000Y550001D01*
X656001Y1849999D02*
X666001Y1839999D01*
X656001Y1929999D02*
X666001Y1919999D01*
X920000Y1422002D02*
X1030000Y1312001D01*
X1193999Y1690000D02*
X1324000Y1820001D01*
D12*
X757498Y2097498D02*
X860000Y2200000D01*
X1195999D01*
X230002Y2089998D02*
X656001D01*
X663501Y2097498D01*
X757498D01*
X1195999Y2200000D02*
X1324000Y2328001D01*
D13*
X1018890Y347112D02*
X1070000Y296001D01*
X953890Y347112D02*
X1018890D01*
X731001Y570001D02*
X953890Y347112D01*
X230002Y570001D02*
X731001D01*
D14*
X1050000Y2328001D02*
D03*
D15*
X1076000Y2074001D02*
D03*
X1050000Y1820001D02*
D03*
X1076000Y1566001D02*
D03*
X1050000Y1312001D02*
D03*
X1076000Y1058001D02*
D03*
X1050000Y804001D02*
D03*
X1344000Y2328001D02*
D03*
X1370000Y2074001D02*
D03*
X1344000Y1820001D02*
D03*
X1370000Y1566001D02*
D03*
X1344000Y1312001D02*
D03*
X1370000Y1058001D02*
D03*
X1344000Y804001D02*
D03*
X1076000Y550001D02*
D03*
X1050000Y296001D02*
D03*
X1370000Y550001D02*
D03*
X1344000Y296001D02*
D03*
D16*
X443001Y419999D02*
D03*
X292999Y2240001D02*
D03*
D17*
X523497Y1620087D02*
D03*
X361773Y1595124D02*
D03*
X361774Y1678728D02*
D03*
X895858Y1874378D02*
D03*
X808751Y891705D02*
D03*
X908752Y1031705D02*
D03*
X808751Y1131705D02*
D03*
X1240000Y1950000D02*
D03*
Y670000D02*
D03*
X830362Y579264D02*
D03*
X680000Y2170000D02*
D03*
X310000Y490000D02*
D03*
X705819Y497038D02*
D03*
X810000Y2010000D02*
D03*
X371016Y1850527D02*
D03*
X371228Y1930501D02*
D03*
X365882Y1450076D02*
D03*
X455356Y1763670D02*
D03*
X820000Y1550000D02*
D03*
X860000Y200000D02*
D03*
X830000Y2440000D02*
D03*
X880000Y2270000D02*
D03*
X80000Y1530000D02*
D03*
Y1770000D02*
D03*
Y2010000D02*
D03*
Y2440000D02*
D03*
X430000Y2160000D02*
D03*
X440000Y2010000D02*
D03*
X80000Y1130000D02*
D03*
Y890000D02*
D03*
Y650000D02*
D03*
X130000Y220000D02*
D03*
X380000Y810000D02*
D03*
Y730000D02*
D03*
Y970000D02*
D03*
X400000Y890000D02*
D03*
X440000Y1130000D02*
D03*
Y650000D02*
D03*
%TF.MD5,c18199d341f70147d0b55334d5ad82e5*%
M02*
