%TF.GenerationSoftware,Altium Limited,Altium Designer,24.8.2 (39)*%
G04 Layer_Color=32896*
%FSLAX45Y45*%
%MOMM*%
%TF.SameCoordinates,FBB41CCB-3D8C-4B0B-A071-B3836E82DD1E*%
%TF.FilePolarity,Positive*%
%TF.FileFunction,Legend,Bot*%
%TF.Part,Single*%
G01*
G75*
%TA.AperFunction,NonConductor*%
%ADD19C,0.15000*%
%ADD20C,0.20000*%
G36*
X930000Y2328000D02*
X890000Y2360158D01*
Y2295843D01*
X930000Y2328000D01*
D02*
G37*
D19*
X392000Y1118000D02*
Y1142000D01*
X328000Y1118000D02*
Y1142000D01*
X861671Y1294974D02*
Y1281645D01*
X875000D01*
X848342D01*
X861671D01*
Y1241658D01*
X848342Y1228329D01*
X795026D02*
X768368D01*
X755039Y1241658D01*
Y1268316D01*
X768368Y1281645D01*
X795026D01*
X808355Y1268316D01*
Y1241658D01*
X795026Y1228329D01*
X648407D02*
Y1308303D01*
X608419D01*
X595091Y1294974D01*
Y1268316D01*
X608419Y1254987D01*
X648407D01*
X568432Y1308303D02*
Y1228329D01*
X541774Y1254987D01*
X515116Y1228329D01*
Y1308303D01*
X488458Y1228329D02*
Y1308303D01*
X448471D01*
X435142Y1294974D01*
Y1268316D01*
X448471Y1254987D01*
X488458D01*
X461800D02*
X435142Y1228329D01*
X355168Y1294974D02*
X368497Y1308303D01*
X395155D01*
X408484Y1294974D01*
Y1241658D01*
X395155Y1228329D01*
X368497D01*
X355168Y1241658D01*
Y1268316D01*
X381826D01*
X328510Y1308303D02*
Y1228329D01*
X288523D01*
X275194Y1241658D01*
Y1294974D01*
X288523Y1308303D01*
X328510D01*
X248536Y1215000D02*
X195220D01*
X168562Y1308303D02*
Y1228329D01*
X115245D01*
X875000Y1414974D02*
Y1348329D01*
X861671Y1335000D01*
X835013D01*
X821684Y1348329D01*
Y1414974D01*
X795026Y1335000D02*
Y1388316D01*
X768368Y1414974D01*
X741710Y1388316D01*
Y1335000D01*
Y1374987D01*
X795026D01*
X715052Y1335000D02*
Y1414974D01*
X675065D01*
X661736Y1401645D01*
Y1374987D01*
X675065Y1361658D01*
X715052D01*
X688394D02*
X661736Y1335000D01*
X635078Y1414974D02*
X581762D01*
X608420D01*
Y1335000D01*
X555104Y1374987D02*
X501787D01*
X475129Y1335000D02*
Y1414974D01*
X435142D01*
X421813Y1401645D01*
Y1374987D01*
X435142Y1361658D01*
X475129D01*
X448471D02*
X421813Y1335000D01*
X395155Y1414974D02*
X341839Y1335000D01*
Y1414974D02*
X395155Y1335000D01*
X821684Y1511645D02*
X835013Y1524974D01*
X861671D01*
X875000Y1511645D01*
Y1458329D01*
X861671Y1445000D01*
X835013D01*
X821684Y1458329D01*
Y1484987D01*
X848342D01*
X795026Y1445000D02*
Y1524974D01*
X755039D01*
X741710Y1511645D01*
Y1484987D01*
X755039Y1471658D01*
X795026D01*
X715052Y1524974D02*
X688394D01*
X701723D01*
Y1445000D01*
X715052D01*
X688394D01*
X608419Y1524974D02*
X635077D01*
X648407Y1511645D01*
Y1458329D01*
X635077Y1445000D01*
X608419D01*
X595091Y1458329D01*
Y1511645D01*
X608419Y1524974D01*
X568432Y1445000D02*
Y1458329D01*
X555103D01*
Y1445000D01*
X568432D01*
X501787Y1511645D02*
X488458Y1524974D01*
X461800D01*
X448471Y1511645D01*
Y1458329D01*
X461800Y1445000D01*
X488458D01*
X501787Y1458329D01*
Y1511645D01*
X421813Y1445000D02*
X368497Y1498316D01*
D20*
X905002Y138999D02*
X1490000D01*
X945002Y143002D02*
Y192999D01*
X1450000Y143002D02*
Y192999D01*
Y1163000D02*
Y1207999D01*
X945002Y1163000D02*
Y1207999D01*
X913999Y1185001D02*
X1479001D01*
X945002Y1163000D02*
Y1207999D01*
X1450000Y1163000D02*
Y1207999D01*
X905002Y1185001D02*
X1490000D01*
X945002Y2428001D02*
Y2477999D01*
X905002Y2480000D02*
X1490000D01*
X1450000Y2428001D02*
Y2477999D01*
%TF.MD5,1e4770a76253f3cf3cc6cc5a86e59323*%
M02*
