%TF.GenerationSoftware,Altium Limited,Altium Designer,24.8.2 (39)*%
G04 Layer_Color=32768*
%FSLAX45Y45*%
%MOMM*%
%TF.SameCoordinates,FBB41CCB-3D8C-4B0B-A071-B3836E82DD1E*%
%TF.FilePolarity,Positive*%
%TF.FileFunction,Other,Assembly_Notes*%
%TF.Part,Single*%
G01*
G75*
%TA.AperFunction,NonConductor*%
%ADD20C,0.20000*%
%ADD27C,0.10000*%
%ADD28C,0.25400*%
D20*
X73322Y53322D02*
X40000Y86645D01*
Y119968D01*
X73322Y153290D01*
X123306Y136629D02*
X139968Y153290D01*
X173290D01*
X189951Y136629D01*
Y69984D01*
X173290Y53322D01*
X139968D01*
X123306Y69984D01*
Y136629D01*
X239936Y36661D02*
X256597Y53322D01*
Y69984D01*
X239936D01*
Y53322D01*
X256597D01*
X239936Y36661D01*
X223274Y20000D01*
X323242Y136629D02*
X339903Y153290D01*
X373226D01*
X389887Y136629D01*
Y69984D01*
X373226Y53322D01*
X339903D01*
X323242Y69984D01*
Y136629D01*
X423210Y53322D02*
X456532Y86645D01*
Y119968D01*
X423210Y153290D01*
D27*
X252361Y2090000D02*
G03*
X252361Y2090000I-22361J0D01*
G01*
X315000Y1035000D02*
Y1225000D01*
X405000D01*
X315000Y1035000D02*
X405000D01*
Y1225000D01*
X360000Y1102500D02*
Y1157500D01*
X332500Y1130000D02*
X387500D01*
X339999Y2354077D02*
X395000D01*
X100000D02*
X339999D01*
X395000D02*
X399080D01*
X180000Y2089998D02*
X279999D01*
X230002Y2040001D02*
Y2140001D01*
X100000Y1300002D02*
Y2354077D01*
X785002Y304998D02*
Y2354077D01*
X100000Y304998D02*
X785002D01*
X399080Y2354077D02*
X785002D01*
X100000Y304998D02*
Y1300002D01*
D28*
X0Y-76200D02*
Y76200D01*
X-76200Y0D02*
X76200D01*
%TF.MD5,2c9790afee1e96f554ace2fd5405f1e5*%
M02*
