%TF.GenerationSoftware,Altium Limited,Altium Designer,24.8.2 (39)*%
G04 Layer_Color=128*
%FSLAX45Y45*%
%MOMM*%
%TF.SameCoordinates,FBB41CCB-3D8C-4B0B-A071-B3836E82DD1E*%
%TF.FilePolarity,Positive*%
%TF.FileFunction,Drillmap*%
%TF.Part,Single*%
G01*
G75*
%TA.AperFunction,NonConductor*%
%ADD34C,0.12700*%
D34*
X1020001Y2328001D02*
X1120000D01*
X1070000Y2278002D02*
Y2378001D01*
X1046000Y2074001D02*
X1146000D01*
X1096000Y2024002D02*
Y2124001D01*
X1020001Y1820001D02*
X1120000D01*
X1070000Y1770002D02*
Y1870001D01*
X1046000Y1566001D02*
X1146000D01*
X1096000Y1516002D02*
Y1616001D01*
X1020001Y1312001D02*
X1120000D01*
X1070000Y1262002D02*
Y1362001D01*
X1046000Y1058001D02*
X1146000D01*
X1096000Y1008002D02*
Y1108001D01*
X1020001Y804001D02*
X1120000D01*
X1070000Y754002D02*
Y854001D01*
X1274000Y2328001D02*
X1374000D01*
X1324000Y2278002D02*
Y2378001D01*
X1300000Y2074001D02*
X1400000D01*
X1350000Y2024002D02*
Y2124001D01*
X1274000Y1820001D02*
X1374000D01*
X1324000Y1770002D02*
Y1870001D01*
X1300000Y1566001D02*
X1400000D01*
X1350000Y1516002D02*
Y1616001D01*
X1274000Y1312001D02*
X1374000D01*
X1324000Y1262002D02*
Y1362001D01*
X1300000Y1058001D02*
X1400000D01*
X1350000Y1008002D02*
Y1108001D01*
X1274000Y804001D02*
X1374000D01*
X1324000Y754002D02*
Y854001D01*
X1046000Y550001D02*
X1146000D01*
X1096000Y500002D02*
Y600001D01*
X1020001Y296001D02*
X1120000D01*
X1070000Y246002D02*
Y346001D01*
X1300000Y550001D02*
X1400000D01*
X1350000Y500002D02*
Y600001D01*
X1274000Y296001D02*
X1374000D01*
X1324000Y246002D02*
Y346001D01*
X383002Y419999D02*
X503001D01*
X443001Y359999D02*
Y479999D01*
X232999Y2240001D02*
X352999D01*
X292999Y2180001D02*
Y2300000D01*
X510797Y1620087D02*
X536197D01*
X523497Y1607387D02*
Y1632787D01*
X349073Y1595124D02*
X374473D01*
X361773Y1582424D02*
Y1607824D01*
X349074Y1678728D02*
X374474D01*
X361774Y1666028D02*
Y1691428D01*
X883158Y1874378D02*
X908558D01*
X895858Y1861678D02*
Y1887078D01*
X796051Y891705D02*
X821451D01*
X808751Y879005D02*
Y904405D01*
X896052Y1031705D02*
X921452D01*
X908752Y1019005D02*
Y1044405D01*
X796051Y1131705D02*
X821451D01*
X808751Y1119005D02*
Y1144405D01*
X1227300Y1950000D02*
X1252700D01*
X1240000Y1937300D02*
Y1962700D01*
X1227300Y670000D02*
X1252700D01*
X1240000Y657300D02*
Y682700D01*
X817662Y579264D02*
X843062D01*
X830362Y566564D02*
Y591964D01*
X667300Y2170000D02*
X692700D01*
X680000Y2157300D02*
Y2182700D01*
X297300Y490000D02*
X322700D01*
X310000Y477300D02*
Y502700D01*
X693119Y497038D02*
X718519D01*
X705819Y484338D02*
Y509738D01*
X797300Y2010000D02*
X822700D01*
X810000Y1997300D02*
Y2022700D01*
X358316Y1850527D02*
X383716D01*
X371016Y1837827D02*
Y1863227D01*
X358528Y1930501D02*
X383928D01*
X371228Y1917801D02*
Y1943201D01*
X353182Y1450076D02*
X378582D01*
X365882Y1437376D02*
Y1462776D01*
X442656Y1763670D02*
X468056D01*
X455356Y1750970D02*
Y1776370D01*
X807300Y1550000D02*
X832700D01*
X820000Y1537300D02*
Y1562700D01*
X847300Y200000D02*
X872700D01*
X860000Y187300D02*
Y212700D01*
X817300Y2440000D02*
X842700D01*
X830000Y2427300D02*
Y2452700D01*
X867300Y2270000D02*
X892700D01*
X880000Y2257300D02*
Y2282700D01*
X67300Y1530000D02*
X92700D01*
X80000Y1517300D02*
Y1542700D01*
X67300Y1770000D02*
X92700D01*
X80000Y1757300D02*
Y1782700D01*
X67300Y2010000D02*
X92700D01*
X80000Y1997300D02*
Y2022700D01*
X67300Y2440000D02*
X92700D01*
X80000Y2427300D02*
Y2452700D01*
X417300Y2160000D02*
X442700D01*
X430000Y2147300D02*
Y2172700D01*
X427300Y2010000D02*
X452700D01*
X440000Y1997300D02*
Y2022700D01*
X67300Y1130000D02*
X92700D01*
X80000Y1117300D02*
Y1142700D01*
X67300Y890000D02*
X92700D01*
X80000Y877300D02*
Y902700D01*
X67300Y650000D02*
X92700D01*
X80000Y637300D02*
Y662700D01*
X117300Y220000D02*
X142700D01*
X130000Y207300D02*
Y232700D01*
X367300Y810000D02*
X392700D01*
X380000Y797300D02*
Y822700D01*
X367300Y730000D02*
X392700D01*
X380000Y717300D02*
Y742700D01*
X367300Y970000D02*
X392700D01*
X380000Y957300D02*
Y982700D01*
X387300Y890000D02*
X412700D01*
X400000Y877300D02*
Y902700D01*
X427300Y1130000D02*
X452700D01*
X440000Y1117300D02*
Y1142700D01*
X427300Y650000D02*
X452700D01*
X440000Y637300D02*
Y662700D01*
%TF.MD5,2d80c5205e9de3c3ed9d9fe6260dbdaf*%
M02*
