%TF.GenerationSoftware,Altium Limited,Altium Designer,24.8.2 (39)*%
G04 Layer_Color=8388736*
%FSLAX45Y45*%
%MOMM*%
%TF.SameCoordinates,FBB41CCB-3D8C-4B0B-A071-B3836E82DD1E*%
%TF.FilePolarity,Negative*%
%TF.FileFunction,Soldermask,Top*%
%TF.Part,Single*%
G01*
G75*
%TA.AperFunction,ComponentPad*%
G04:AMPARAMS|DCode=22|XSize=1.85mm|YSize=2.25mm|CornerRadius=0mm|HoleSize=0mm|Usage=FLASHONLY|Rotation=270.000|XOffset=0mm|YOffset=0mm|HoleType=Round|Shape=Octagon|*
%AMOCTAGOND22*
4,1,8,1.12500,0.46250,1.12500,-0.46250,0.66250,-0.92500,-0.66250,-0.92500,-1.12500,-0.46250,-1.12500,0.46250,-0.66250,0.92500,0.66250,0.92500,1.12500,0.46250,0.0*
%
%ADD22OCTAGOND22*%

G04:AMPARAMS|DCode=23|XSize=1.85mm|YSize=2.25mm|CornerRadius=0.5mm|HoleSize=0mm|Usage=FLASHONLY|Rotation=270.000|XOffset=0mm|YOffset=0mm|HoleType=Round|Shape=RoundedRectangle|*
%AMROUNDEDRECTD23*
21,1,1.85000,1.25001,0,0,270.0*
21,1,0.85000,2.25000,0,0,270.0*
1,1,1.00000,-0.62500,-0.42500*
1,1,1.00000,-0.62500,0.42500*
1,1,1.00000,0.62500,0.42500*
1,1,1.00000,0.62500,-0.42500*
%
%ADD23ROUNDEDRECTD23*%
G04:AMPARAMS|DCode=24|XSize=1.7mm|YSize=1.75mm|CornerRadius=0.4625mm|HoleSize=0mm|Usage=FLASHONLY|Rotation=270.000|XOffset=0mm|YOffset=0mm|HoleType=Round|Shape=RoundedRectangle|*
%AMROUNDEDRECTD24*
21,1,1.70000,0.82500,0,0,270.0*
21,1,0.77500,1.75000,0,0,270.0*
1,1,0.92500,-0.41250,-0.38750*
1,1,0.92500,-0.41250,0.38750*
1,1,0.92500,0.41250,0.38750*
1,1,0.92500,0.41250,-0.38750*
%
%ADD24ROUNDEDRECTD24*%
%TA.AperFunction,SMDPad,CuDef*%
G04:AMPARAMS|DCode=26|XSize=2.28mm|YSize=0.58mm|CornerRadius=0.165mm|HoleSize=0mm|Usage=FLASHONLY|Rotation=0.000|XOffset=0mm|YOffset=0mm|HoleType=Round|Shape=RoundedRectangle|*
%AMROUNDEDRECTD26*
21,1,2.28000,0.25000,0,0,0.0*
21,1,1.95000,0.58000,0,0,0.0*
1,1,0.33000,0.97500,-0.12500*
1,1,0.33000,-0.97500,-0.12500*
1,1,0.33000,-0.97500,0.12500*
1,1,0.33000,0.97500,0.12500*
%
%ADD26ROUNDEDRECTD26*%
D22*
X1050000Y2328001D02*
D03*
D23*
X1076000Y2074001D02*
D03*
X1050000Y1820001D02*
D03*
X1076000Y1566001D02*
D03*
X1050000Y1312001D02*
D03*
X1076000Y1058001D02*
D03*
X1050000Y804001D02*
D03*
X1344000Y2328001D02*
D03*
X1370000Y2074001D02*
D03*
X1344000Y1820001D02*
D03*
X1370000Y1566001D02*
D03*
X1344000Y1312001D02*
D03*
X1370000Y1058001D02*
D03*
X1344000Y804001D02*
D03*
X1076000Y550001D02*
D03*
X1050000Y296001D02*
D03*
X1370000Y550001D02*
D03*
X1344000Y296001D02*
D03*
D24*
X443001Y419999D02*
D03*
X292999Y2240001D02*
D03*
D26*
X240002Y2089998D02*
D03*
X646001D02*
D03*
X240002Y2009999D02*
D03*
Y1929999D02*
D03*
Y1849999D02*
D03*
Y1769999D02*
D03*
Y1689999D02*
D03*
Y1609999D02*
D03*
Y1529999D02*
D03*
Y1450000D02*
D03*
Y1370000D02*
D03*
Y1290000D02*
D03*
Y1210000D02*
D03*
Y1130000D02*
D03*
Y1050000D02*
D03*
Y970001D02*
D03*
Y890001D02*
D03*
Y810001D02*
D03*
Y730001D02*
D03*
Y650001D02*
D03*
Y570001D02*
D03*
X646001Y2009999D02*
D03*
Y1929999D02*
D03*
Y1849999D02*
D03*
Y1769999D02*
D03*
Y1689999D02*
D03*
Y1609999D02*
D03*
Y1529999D02*
D03*
Y1450000D02*
D03*
Y1370000D02*
D03*
Y1290000D02*
D03*
Y1210000D02*
D03*
Y1130000D02*
D03*
Y1050000D02*
D03*
Y970001D02*
D03*
Y890001D02*
D03*
Y810001D02*
D03*
Y730001D02*
D03*
Y650001D02*
D03*
Y570001D02*
D03*
%TF.MD5,4decb502f42170f80b185268b3289988*%
M02*
