%TF.GenerationSoftware,Altium Limited,Altium Designer,24.8.2 (39)*%
G04 Layer_Color=0*
%FSLAX45Y45*%
%MOMM*%
%TF.SameCoordinates,FBB41CCB-3D8C-4B0B-A071-B3836E82DD1E*%
%TF.FilePolarity,Positive*%
%TF.FileFunction,Plated,1,2,PTH,Drill*%
%TF.Part,Single*%
G01*
G75*
%TA.AperFunction,ComponentDrill*%
%ADD30C,1.00000*%
%ADD31C,1.20000*%
%TA.AperFunction,ViaDrill,NotFilled*%
%ADD32C,0.25400*%
D30*
X1070000Y2328001D02*
D03*
X1096000Y2074001D02*
D03*
X1070000Y1820001D02*
D03*
X1096000Y1566001D02*
D03*
X1070000Y1312001D02*
D03*
X1096000Y1058001D02*
D03*
X1070000Y804001D02*
D03*
X1324000Y2328001D02*
D03*
X1350000Y2074001D02*
D03*
X1324000Y1820001D02*
D03*
X1350000Y1566001D02*
D03*
X1324000Y1312001D02*
D03*
X1350000Y1058001D02*
D03*
X1324000Y804001D02*
D03*
X1096000Y550001D02*
D03*
X1070000Y296001D02*
D03*
X1350000Y550001D02*
D03*
X1324000Y296001D02*
D03*
D31*
X443001Y419999D02*
D03*
X292999Y2240001D02*
D03*
D32*
X523497Y1620087D02*
D03*
X361773Y1595124D02*
D03*
X361774Y1678728D02*
D03*
X895858Y1874378D02*
D03*
X808751Y891705D02*
D03*
X908752Y1031705D02*
D03*
X808751Y1131705D02*
D03*
X1240000Y1950000D02*
D03*
Y670000D02*
D03*
X830362Y579264D02*
D03*
X680000Y2170000D02*
D03*
X310000Y490000D02*
D03*
X705819Y497038D02*
D03*
X810000Y2010000D02*
D03*
X371016Y1850527D02*
D03*
X371228Y1930501D02*
D03*
X365882Y1450076D02*
D03*
X455356Y1763670D02*
D03*
X820000Y1550000D02*
D03*
X860000Y200000D02*
D03*
X830000Y2440000D02*
D03*
X880000Y2270000D02*
D03*
X80000Y1530000D02*
D03*
Y1770000D02*
D03*
Y2010000D02*
D03*
Y2440000D02*
D03*
X430000Y2160000D02*
D03*
X440000Y2010000D02*
D03*
X80000Y1130000D02*
D03*
Y890000D02*
D03*
Y650000D02*
D03*
X130000Y220000D02*
D03*
X380000Y810000D02*
D03*
Y730000D02*
D03*
Y970000D02*
D03*
X400000Y890000D02*
D03*
X440000Y1130000D02*
D03*
Y650000D02*
D03*
%TF.MD5,9a80cb2fd4b9ecec2858769297af4b04*%
M02*
