%TF.GenerationSoftware,Altium Limited,Altium Designer,23.3.1 (30)*%
G04 Layer_Color=255*
%FSLAX45Y45*%
%MOMM*%
%TF.SameCoordinates,B56B3050-E4CE-4FE9-8081-1B6FDF6B35C2*%
%TF.FilePolarity,Positive*%
%TF.FileFunction,Pads,Bot*%
%TF.Part,Single*%
G01*
G75*
%TA.AperFunction,SMDPad,CuDef*%
G04:AMPARAMS|DCode=11|XSize=0.6mm|YSize=0.6mm|CornerRadius=0.15mm|HoleSize=0mm|Usage=FLASHONLY|Rotation=90.000|XOffset=0mm|YOffset=0mm|HoleType=Round|Shape=RoundedRectangle|*
%AMROUNDEDRECTD11*
21,1,0.60000,0.30000,0,0,90.0*
21,1,0.30000,0.60000,0,0,90.0*
1,1,0.30000,0.15000,0.15000*
1,1,0.30000,0.15000,-0.15000*
1,1,0.30000,-0.15000,-0.15000*
1,1,0.30000,-0.15000,0.15000*
%
%ADD11ROUNDEDRECTD11*%
G04:AMPARAMS|DCode=12|XSize=0.6mm|YSize=0.6mm|CornerRadius=0.15mm|HoleSize=0mm|Usage=FLASHONLY|Rotation=0.000|XOffset=0mm|YOffset=0mm|HoleType=Round|Shape=RoundedRectangle|*
%AMROUNDEDRECTD12*
21,1,0.60000,0.30000,0,0,0.0*
21,1,0.30000,0.60000,0,0,0.0*
1,1,0.30000,0.15000,-0.15000*
1,1,0.30000,-0.15000,-0.15000*
1,1,0.30000,-0.15000,0.15000*
1,1,0.30000,0.15000,0.15000*
%
%ADD12ROUNDEDRECTD12*%
%TA.AperFunction,ComponentPad*%
G04:AMPARAMS|DCode=31|XSize=1.7mm|YSize=2.1mm|CornerRadius=0mm|HoleSize=0mm|Usage=FLASHONLY|Rotation=270.000|XOffset=0mm|YOffset=0mm|HoleType=Round|Shape=Octagon|*
%AMOCTAGOND31*
4,1,8,1.05000,0.42500,1.05000,-0.42500,0.62500,-0.85000,-0.62500,-0.85000,-1.05000,-0.42500,-1.05000,0.42500,-0.62500,0.85000,0.62500,0.85000,1.05000,0.42500,0.0*
%
%ADD31OCTAGOND31*%

G04:AMPARAMS|DCode=32|XSize=1.7mm|YSize=2.1mm|CornerRadius=0.425mm|HoleSize=0mm|Usage=FLASHONLY|Rotation=270.000|XOffset=0mm|YOffset=0mm|HoleType=Round|Shape=RoundedRectangle|*
%AMROUNDEDRECTD32*
21,1,1.70000,1.25001,0,0,270.0*
21,1,0.85000,2.10000,0,0,270.0*
1,1,0.85000,-0.62500,-0.42500*
1,1,0.85000,-0.62500,0.42500*
1,1,0.85000,0.62500,0.42500*
1,1,0.85000,0.62500,-0.42500*
%
%ADD32ROUNDEDRECTD32*%
D11*
X1100000Y2380000D02*
D03*
X1000000D02*
D03*
X1850000Y1530000D02*
D03*
X1750000D02*
D03*
X760000Y390000D02*
D03*
X660000D02*
D03*
X2330000Y2270000D02*
D03*
X2430000D02*
D03*
X750000Y1670000D02*
D03*
X650000D02*
D03*
X759999Y889998D02*
D03*
X659999D02*
D03*
X1000000Y1250000D02*
D03*
X900000D02*
D03*
X1000000Y1830000D02*
D03*
X900000D02*
D03*
X750000Y2000000D02*
D03*
X650000D02*
D03*
X1300000Y2380000D02*
D03*
X1200000D02*
D03*
X1610000Y2310000D02*
D03*
X1510000D02*
D03*
X1000000Y1540000D02*
D03*
X900000D02*
D03*
X1810000Y2210000D02*
D03*
X1710000D02*
D03*
X1000000Y1030000D02*
D03*
X900000D02*
D03*
X1000000Y2160000D02*
D03*
X900000D02*
D03*
X740000Y2280000D02*
D03*
X640000D02*
D03*
X2330000Y2370000D02*
D03*
X2430000D02*
D03*
X750000Y1410000D02*
D03*
X650000D02*
D03*
X650000Y1570000D02*
D03*
X750000D02*
D03*
X1510000Y2210000D02*
D03*
X1410000D02*
D03*
X650000Y1310000D02*
D03*
X750000D02*
D03*
X1200000Y2280000D02*
D03*
X1300000D02*
D03*
X900000Y1440000D02*
D03*
X1000000D02*
D03*
X660000Y790000D02*
D03*
X760000D02*
D03*
X1000000Y1150000D02*
D03*
X900000D02*
D03*
X760000Y670000D02*
D03*
X660000D02*
D03*
X760000Y570000D02*
D03*
X660000D02*
D03*
X1000000Y930000D02*
D03*
X900000D02*
D03*
X1000000Y1730000D02*
D03*
X900000D02*
D03*
X750000Y1910000D02*
D03*
X650000D02*
D03*
X900000Y2060000D02*
D03*
X1000000D02*
D03*
X640000Y2180000D02*
D03*
X740000D02*
D03*
D12*
X1610000Y2110000D02*
D03*
Y2010000D02*
D03*
X2660000Y1830000D02*
D03*
Y1730000D02*
D03*
X990000Y320000D02*
D03*
Y420000D02*
D03*
X1710000Y2010000D02*
D03*
Y2110000D02*
D03*
X2660000Y1510000D02*
D03*
Y1610000D02*
D03*
X1570000Y1070000D02*
D03*
Y970000D02*
D03*
D31*
X160000Y2326000D02*
D03*
D32*
Y2072000D02*
D03*
Y1818000D02*
D03*
Y1564000D02*
D03*
Y1310000D02*
D03*
Y1056000D02*
D03*
Y802000D02*
D03*
X454000Y2326000D02*
D03*
Y2072000D02*
D03*
Y1818000D02*
D03*
Y1564000D02*
D03*
Y1310000D02*
D03*
Y1056000D02*
D03*
Y802000D02*
D03*
X160000Y548000D02*
D03*
Y294000D02*
D03*
X454000Y548000D02*
D03*
Y294000D02*
D03*
%TF.MD5,9a2fae66cf12bc5d6a8ae1fefb45448d*%
M02*
