%TF.GenerationSoftware,Altium Limited,Altium Designer,24.8.2 (39)*%
G04 Layer_Color=0*
%FSLAX45Y45*%
%MOMM*%
%TF.SameCoordinates,B03309B8-0E9A-45A2-8570-9956D1A1A338*%
%TF.FilePolarity,Positive*%
%TF.FileFunction,Profile,NP*%
%TF.Part,CustomerPanel*%
G01*
G75*
%TA.AperFunction,Profile*%
%ADD142C,0.02540*%
G36*
X925000Y1490000D02*
X917613D01*
X903123Y1492882D01*
X889474Y1498535D01*
X877190Y1506743D01*
X866744Y1517190D01*
X858536Y1529474D01*
X852882Y1543123D01*
X850000Y1557613D01*
X850000Y1565000D01*
Y1565000D01*
Y3435000D01*
X850000Y3442387D01*
X852882Y3456876D01*
X858536Y3470525D01*
X866744Y3482809D01*
X877190Y3493256D01*
X889474Y3501464D01*
X903123Y3507117D01*
X917613Y3510000D01*
X925000Y3509999D01*
X925000Y3510000D01*
X1375000Y3510000D01*
X1382351Y3510361D01*
X1396771Y3513229D01*
X1410355Y3518856D01*
X1422580Y3527024D01*
X1432976Y3537420D01*
X1441144Y3549645D01*
X1446771Y3563229D01*
X1449639Y3577648D01*
X1450000Y3585000D01*
X1450000Y3585000D01*
X1450000Y3825000D01*
X1450000Y3832387D01*
X1452882Y3846876D01*
X1458536Y3860526D01*
X1466743Y3872809D01*
X1477190Y3883256D01*
X1489474Y3891464D01*
X1503123Y3897117D01*
X1517613Y3900000D01*
X1525000Y3900000D01*
X1525000Y3900000D01*
X1975000Y3900000D01*
X1984874D01*
X2003949Y3894889D01*
X2021051Y3885015D01*
X2035015Y3871051D01*
X2044889Y3853949D01*
X2050000Y3834874D01*
Y3815126D01*
X2044889Y3796051D01*
X2035015Y3778949D01*
X2021051Y3764985D01*
X2003949Y3755111D01*
X1984874Y3750000D01*
X1975000D01*
D01*
X1700001D01*
X1690200Y3749519D01*
X1670973Y3745694D01*
X1652862Y3738192D01*
X1636562Y3727301D01*
X1622700Y3713439D01*
X1611809Y3697140D01*
X1604307Y3679028D01*
X1600483Y3659802D01*
X1600001Y3650000D01*
D01*
X1600000Y3360000D01*
X1100001D01*
X1090199Y3359518D01*
X1070972Y3355694D01*
X1052861Y3348192D01*
X1036562Y3337301D01*
X1022700Y3323439D01*
X1011809Y3307139D01*
X1004307Y3289028D01*
X1000483Y3269802D01*
X1000001Y3260000D01*
D01*
Y1740000D01*
X1000483Y1730198D01*
X1004307Y1710971D01*
X1011809Y1692860D01*
X1022700Y1676561D01*
X1036562Y1662699D01*
X1052861Y1651808D01*
X1070973Y1644306D01*
X1090199Y1640481D01*
X1100001Y1640000D01*
D01*
X1600000D01*
Y1350000D01*
X1600482Y1340198D01*
X1604306Y1320971D01*
X1611808Y1302860D01*
X1622700Y1286560D01*
X1636561Y1272698D01*
X1652861Y1261807D01*
X1670973Y1254306D01*
X1690199Y1250481D01*
X1700001Y1250000D01*
X1700001D01*
X1975000D01*
X1984874D01*
X2003949Y1244889D01*
X2021051Y1235015D01*
X2035015Y1221051D01*
X2044889Y1203949D01*
X2050000Y1184874D01*
Y1165126D01*
X2044889Y1146051D01*
X2035015Y1128949D01*
X2021051Y1114985D01*
X2003949Y1105111D01*
X1984874Y1100000D01*
X1975000D01*
D01*
X1489724Y1100000D01*
X1490000Y1100000D01*
X1482613D01*
X1468123Y1102882D01*
X1454474Y1108535D01*
X1442190Y1116743D01*
X1431743Y1127190D01*
X1423536Y1139474D01*
X1417882Y1153123D01*
X1415000Y1167613D01*
X1415000Y1175000D01*
Y1175000D01*
X1414999Y1415000D01*
X1414639Y1422351D01*
X1411770Y1436771D01*
X1406144Y1450355D01*
X1397976Y1462579D01*
X1387579Y1472976D01*
X1375354Y1481144D01*
X1361771Y1486770D01*
X1347351Y1489639D01*
X1340000Y1490000D01*
X1340000Y1490000D01*
X925000Y1490000D01*
D02*
G37*
G36*
X4125000Y1100000D02*
X4115126D01*
X4096051Y1105111D01*
X4078949Y1114985D01*
X4064985Y1128949D01*
X4055111Y1146051D01*
X4050000Y1165126D01*
Y1184874D01*
X4055111Y1203949D01*
X4064985Y1221051D01*
X4078949Y1235015D01*
X4096051Y1244889D01*
X4115126Y1250000D01*
X4125000D01*
D01*
X4300000D01*
X4319604Y1250963D01*
X4358057Y1258612D01*
X4394280Y1273615D01*
X4426879Y1295397D01*
X4454603Y1323121D01*
X4476385Y1355720D01*
X4491389Y1391943D01*
X4499038Y1430396D01*
X4500001Y1450000D01*
X4500001Y1450000D01*
X4500000Y2525000D01*
Y2534874D01*
X4505111Y2553949D01*
X4514985Y2571051D01*
X4528949Y2585015D01*
X4546051Y2594889D01*
X4565126Y2600000D01*
X4584874D01*
X4603949Y2594889D01*
X4621051Y2585015D01*
X4635015Y2571051D01*
X4644889Y2553949D01*
X4650000Y2534874D01*
Y2525000D01*
D01*
X4650000Y1175000D01*
X4650000Y1167613D01*
X4647117Y1153123D01*
X4641464Y1139474D01*
X4633256Y1127190D01*
X4622809Y1116744D01*
X4610525Y1108536D01*
X4596876Y1102882D01*
X4582387Y1100000D01*
X4575000Y1100000D01*
X4575000D01*
X4125000Y1100000D01*
D02*
G37*
G36*
Y3750000D02*
X4115126D01*
X4096051Y3755111D01*
X4078949Y3764985D01*
X4064985Y3778948D01*
X4055111Y3796051D01*
X4050000Y3815126D01*
Y3834873D01*
X4055111Y3853949D01*
X4064985Y3871051D01*
X4078949Y3885015D01*
X4096051Y3894889D01*
X4115126Y3900000D01*
X4125000D01*
D01*
X4574999Y3900000D01*
X4582386Y3900000D01*
X4596876Y3897118D01*
X4610525Y3891464D01*
X4622809Y3883256D01*
X4633256Y3872810D01*
X4641464Y3860526D01*
X4647117Y3846876D01*
X4650000Y3832387D01*
X4649999Y3825000D01*
X4650000Y3825000D01*
X4650001Y2875000D01*
Y2865126D01*
X4644889Y2846051D01*
X4635015Y2828949D01*
X4621051Y2814985D01*
X4603949Y2805111D01*
X4584874Y2800000D01*
X4565127D01*
X4546051Y2805111D01*
X4528949Y2814985D01*
X4514985Y2828949D01*
X4505111Y2846051D01*
X4500000Y2865126D01*
Y2875000D01*
D01*
X4500000Y3550000D01*
X4499037Y3569603D01*
X4491388Y3608057D01*
X4476384Y3644279D01*
X4454602Y3676878D01*
X4426879Y3704602D01*
X4394280Y3726384D01*
X4358058Y3741388D01*
X4319605Y3749037D01*
X4300001Y3750000D01*
Y3750000D01*
X4125000Y3750000D01*
D02*
G37*
G36*
X2325000D02*
X2315126D01*
X2296051Y3755111D01*
X2278949Y3764985D01*
X2264985Y3778948D01*
X2255111Y3796051D01*
X2250000Y3815126D01*
Y3834873D01*
X2255111Y3853949D01*
X2264985Y3871051D01*
X2278949Y3885015D01*
X2296051Y3894889D01*
X2315126Y3900000D01*
X2325000D01*
D01*
X3775000D01*
X3784874D01*
X3803949Y3894889D01*
X3821051Y3885015D01*
X3835015Y3871051D01*
X3844889Y3853949D01*
X3850000Y3834874D01*
Y3815126D01*
X3844889Y3796051D01*
X3835015Y3778949D01*
X3821051Y3764985D01*
X3803949Y3755111D01*
X3784874Y3750000D01*
X3775000D01*
D01*
X2325000Y3750000D01*
D02*
G37*
G36*
Y1100000D02*
X2315126D01*
X2296051Y1105111D01*
X2278949Y1114985D01*
X2264985Y1128949D01*
X2255111Y1146051D01*
X2250000Y1165126D01*
Y1184874D01*
X2255111Y1203949D01*
X2264985Y1221051D01*
X2278949Y1235015D01*
X2296051Y1244889D01*
X2315126Y1250000D01*
X2325000D01*
D01*
X3775000D01*
X3784874D01*
X3803949Y1244889D01*
X3821051Y1235015D01*
X3835015Y1221051D01*
X3844889Y1203949D01*
X3850000Y1184874D01*
Y1165126D01*
X3844889Y1146051D01*
X3835015Y1128949D01*
X3821051Y1114985D01*
X3803949Y1105111D01*
X3784874Y1100000D01*
X3775000D01*
D01*
X2325000Y1100000D01*
D02*
G37*
D142*
X-2Y-5D02*
Y4999995D01*
X5499998D01*
Y-5D01*
X-2D01*
%TF.MD5,4d5d879dadc9c567f7eea81c8fdc5f2d*%
M02*
