%TF.GenerationSoftware,Altium Limited,Altium Designer,24.8.2 (39)*%
G04 Layer_Color=8388736*
%FSLAX45Y45*%
%MOMM*%
%TF.SameCoordinates,B03309B8-0E9A-45A2-8570-9956D1A1A338*%
%TF.FilePolarity,Negative*%
%TF.FileFunction,Soldermask,Top*%
%TF.Part,CustomerPanel*%
G01*
G75*
%TA.AperFunction,NonConductor*%
%ADD43C,0.15000*%
%TA.AperFunction,ConnectorPad*%
G04:AMPARAMS|DCode=57|XSize=2.1mm|YSize=3.9mm|CornerRadius=0.55mm|HoleSize=0mm|Usage=FLASHONLY|Rotation=270.000|XOffset=0mm|YOffset=0mm|HoleType=Round|Shape=RoundedRectangle|*
%AMROUNDEDRECTD57*
21,1,2.10000,2.80000,0,0,270.0*
21,1,1.00000,3.90000,0,0,270.0*
1,1,1.10000,-1.40000,-0.50000*
1,1,1.10000,-1.40000,0.50000*
1,1,1.10000,1.40000,0.50000*
1,1,1.10000,1.40000,-0.50000*
%
%ADD57ROUNDEDRECTD57*%
%TA.AperFunction,SMDPad,CuDef*%
G04:AMPARAMS|DCode=58|XSize=3.28mm|YSize=0.58mm|CornerRadius=0.165mm|HoleSize=0mm|Usage=FLASHONLY|Rotation=0.000|XOffset=0mm|YOffset=0mm|HoleType=Round|Shape=RoundedRectangle|*
%AMROUNDEDRECTD58*
21,1,3.28000,0.25000,0,0,0.0*
21,1,2.95000,0.58000,0,0,0.0*
1,1,0.33000,1.47500,-0.12500*
1,1,0.33000,-1.47500,-0.12500*
1,1,0.33000,-1.47500,0.12500*
1,1,0.33000,1.47500,0.12500*
%
%ADD58ROUNDEDRECTD58*%
%TA.AperFunction,WasherPad*%
G04:AMPARAMS|DCode=59|XSize=0.2032mm|YSize=0.2032mm|CornerRadius=0mm|HoleSize=0mm|Usage=FLASHONLY|Rotation=180.000|XOffset=0mm|YOffset=0mm|HoleType=Round|Shape=RoundedRectangle|*
%AMROUNDEDRECTD59*
21,1,0.20320,0.20320,0,0,180.0*
21,1,0.20320,0.20320,0,0,180.0*
1,1,0.00000,-0.10160,0.10160*
1,1,0.00000,0.10160,0.10160*
1,1,0.00000,0.10160,-0.10160*
1,1,0.00000,-0.10160,-0.10160*
%
%ADD59ROUNDEDRECTD59*%
G04:AMPARAMS|DCode=60|XSize=0.2032mm|YSize=0.2032mm|CornerRadius=0mm|HoleSize=0mm|Usage=FLASHONLY|Rotation=270.000|XOffset=0mm|YOffset=0mm|HoleType=Round|Shape=RoundedRectangle|*
%AMROUNDEDRECTD60*
21,1,0.20320,0.20320,0,0,270.0*
21,1,0.20320,0.20320,0,0,270.0*
1,1,0.00000,-0.10160,-0.10160*
1,1,0.00000,-0.10160,0.10160*
1,1,0.00000,0.10160,0.10160*
1,1,0.00000,0.10160,-0.10160*
%
%ADD60ROUNDEDRECTD60*%
%TA.AperFunction,NonConductor*%
%ADD115C,2.14000*%
%TA.AperFunction,SMDPad,CuDef*%
G04:AMPARAMS|DCode=116|XSize=0.6mm|YSize=0.6mm|CornerRadius=0.175mm|HoleSize=0mm|Usage=FLASHONLY|Rotation=0.000|XOffset=0mm|YOffset=0mm|HoleType=Round|Shape=RoundedRectangle|*
%AMROUNDEDRECTD116*
21,1,0.60000,0.25000,0,0,0.0*
21,1,0.25000,0.60000,0,0,0.0*
1,1,0.35000,0.12500,-0.12500*
1,1,0.35000,-0.12500,-0.12500*
1,1,0.35000,-0.12500,0.12500*
1,1,0.35000,0.12500,0.12500*
%
%ADD116ROUNDEDRECTD116*%
G04:AMPARAMS|DCode=117|XSize=0.7mm|YSize=0.8mm|CornerRadius=0.2mm|HoleSize=0mm|Usage=FLASHONLY|Rotation=270.000|XOffset=0mm|YOffset=0mm|HoleType=Round|Shape=RoundedRectangle|*
%AMROUNDEDRECTD117*
21,1,0.70000,0.40000,0,0,270.0*
21,1,0.30000,0.80000,0,0,270.0*
1,1,0.40000,-0.20000,-0.15000*
1,1,0.40000,-0.20000,0.15000*
1,1,0.40000,0.20000,0.15000*
1,1,0.40000,0.20000,-0.15000*
%
%ADD117ROUNDEDRECTD117*%
G04:AMPARAMS|DCode=118|XSize=0.41mm|YSize=0.78mm|CornerRadius=0.1225mm|HoleSize=0mm|Usage=FLASHONLY|Rotation=0.000|XOffset=0mm|YOffset=0mm|HoleType=Round|Shape=RoundedRectangle|*
%AMROUNDEDRECTD118*
21,1,0.41000,0.53500,0,0,0.0*
21,1,0.16500,0.78000,0,0,0.0*
1,1,0.24500,0.08250,-0.26750*
1,1,0.24500,-0.08250,-0.26750*
1,1,0.24500,-0.08250,0.26750*
1,1,0.24500,0.08250,0.26750*
%
%ADD118ROUNDEDRECTD118*%
%ADD119R,0.41000X0.78000*%
G04:AMPARAMS|DCode=120|XSize=0.7mm|YSize=0.7mm|CornerRadius=0.2mm|HoleSize=0mm|Usage=FLASHONLY|Rotation=270.000|XOffset=0mm|YOffset=0mm|HoleType=Round|Shape=RoundedRectangle|*
%AMROUNDEDRECTD120*
21,1,0.70000,0.30000,0,0,270.0*
21,1,0.30000,0.70000,0,0,270.0*
1,1,0.40000,-0.15000,-0.15000*
1,1,0.40000,-0.15000,0.15000*
1,1,0.40000,0.15000,0.15000*
1,1,0.40000,0.15000,-0.15000*
%
%ADD120ROUNDEDRECTD120*%
%TA.AperFunction,BGAPad,CuDef*%
%ADD121C,0.28000*%
%TA.AperFunction,SMDPad,CuDef*%
G04:AMPARAMS|DCode=122|XSize=4.77mm|YSize=4.77mm|CornerRadius=0.2475mm|HoleSize=0mm|Usage=FLASHONLY|Rotation=0.000|XOffset=0mm|YOffset=0mm|HoleType=Round|Shape=RoundedRectangle|*
%AMROUNDEDRECTD122*
21,1,4.77000,4.27500,0,0,0.0*
21,1,4.27500,4.77000,0,0,0.0*
1,1,0.49500,2.13750,-2.13750*
1,1,0.49500,-2.13750,-2.13750*
1,1,0.49500,-2.13750,2.13750*
1,1,0.49500,2.13750,2.13750*
%
%ADD122ROUNDEDRECTD122*%
G04:AMPARAMS|DCode=123|XSize=0.7mm|YSize=0.7mm|CornerRadius=0.2mm|HoleSize=0mm|Usage=FLASHONLY|Rotation=0.000|XOffset=0mm|YOffset=0mm|HoleType=Round|Shape=RoundedRectangle|*
%AMROUNDEDRECTD123*
21,1,0.70000,0.30000,0,0,0.0*
21,1,0.30000,0.70000,0,0,0.0*
1,1,0.40000,0.15000,-0.15000*
1,1,0.40000,-0.15000,-0.15000*
1,1,0.40000,-0.15000,0.15000*
1,1,0.40000,0.15000,0.15000*
%
%ADD123ROUNDEDRECTD123*%
G04:AMPARAMS|DCode=124|XSize=0.7mm|YSize=0.8mm|CornerRadius=0.2mm|HoleSize=0mm|Usage=FLASHONLY|Rotation=0.000|XOffset=0mm|YOffset=0mm|HoleType=Round|Shape=RoundedRectangle|*
%AMROUNDEDRECTD124*
21,1,0.70000,0.40000,0,0,0.0*
21,1,0.30000,0.80000,0,0,0.0*
1,1,0.40000,0.15000,-0.20000*
1,1,0.40000,-0.15000,-0.20000*
1,1,0.40000,-0.15000,0.20000*
1,1,0.40000,0.15000,0.20000*
%
%ADD124ROUNDEDRECTD124*%
G04:AMPARAMS|DCode=125|XSize=0.84mm|YSize=1.39mm|CornerRadius=0.22mm|HoleSize=0mm|Usage=FLASHONLY|Rotation=90.000|XOffset=0mm|YOffset=0mm|HoleType=Round|Shape=RoundedRectangle|*
%AMROUNDEDRECTD125*
21,1,0.84000,0.95000,0,0,90.0*
21,1,0.40000,1.39000,0,0,90.0*
1,1,0.44000,0.47500,0.20000*
1,1,0.44000,0.47500,-0.20000*
1,1,0.44000,-0.47500,-0.20000*
1,1,0.44000,-0.47500,0.20000*
%
%ADD125ROUNDEDRECTD125*%
%TA.AperFunction,BGAPad,CuDef*%
%ADD126C,0.27000*%
%TA.AperFunction,ConnectorPad*%
G04:AMPARAMS|DCode=127|XSize=1.1mm|YSize=3.9mm|CornerRadius=0.3mm|HoleSize=0mm|Usage=FLASHONLY|Rotation=270.000|XOffset=0mm|YOffset=0mm|HoleType=Round|Shape=RoundedRectangle|*
%AMROUNDEDRECTD127*
21,1,1.10000,3.30000,0,0,270.0*
21,1,0.50000,3.90000,0,0,270.0*
1,1,0.60000,-1.65000,-0.25000*
1,1,0.60000,-1.65000,0.25000*
1,1,0.60000,1.65000,0.25000*
1,1,0.60000,1.65000,-0.25000*
%
%ADD127ROUNDEDRECTD127*%
%TA.AperFunction,SMDPad,CuDef*%
G04:AMPARAMS|DCode=128|XSize=0.9mm|YSize=0.9mm|CornerRadius=0.25mm|HoleSize=0mm|Usage=FLASHONLY|Rotation=270.000|XOffset=0mm|YOffset=0mm|HoleType=Round|Shape=RoundedRectangle|*
%AMROUNDEDRECTD128*
21,1,0.90000,0.40000,0,0,270.0*
21,1,0.40000,0.90000,0,0,270.0*
1,1,0.50000,-0.20000,-0.20000*
1,1,0.50000,-0.20000,0.20000*
1,1,0.50000,0.20000,0.20000*
1,1,0.50000,0.20000,-0.20000*
%
%ADD128ROUNDEDRECTD128*%
%ADD129R,0.90000X0.90000*%
G04:AMPARAMS|DCode=130|XSize=0.79mm|YSize=0.69mm|CornerRadius=0.1825mm|HoleSize=0mm|Usage=FLASHONLY|Rotation=0.000|XOffset=0mm|YOffset=0mm|HoleType=Round|Shape=RoundedRectangle|*
%AMROUNDEDRECTD130*
21,1,0.79000,0.32500,0,0,0.0*
21,1,0.42500,0.69000,0,0,0.0*
1,1,0.36500,0.21250,-0.16250*
1,1,0.36500,-0.21250,-0.16250*
1,1,0.36500,-0.21250,0.16250*
1,1,0.36500,0.21250,0.16250*
%
%ADD130ROUNDEDRECTD130*%
%ADD131R,1.20000X1.20000*%
G04:AMPARAMS|DCode=132|XSize=1.2mm|YSize=1.2mm|CornerRadius=0.325mm|HoleSize=0mm|Usage=FLASHONLY|Rotation=270.000|XOffset=0mm|YOffset=0mm|HoleType=Round|Shape=RoundedRectangle|*
%AMROUNDEDRECTD132*
21,1,1.20000,0.55000,0,0,270.0*
21,1,0.55000,1.20000,0,0,270.0*
1,1,0.65000,-0.27500,-0.27500*
1,1,0.65000,-0.27500,0.27500*
1,1,0.65000,0.27500,0.27500*
1,1,0.65000,0.27500,-0.27500*
%
%ADD132ROUNDEDRECTD132*%
%ADD133R,0.81000X0.29000*%
G04:AMPARAMS|DCode=134|XSize=0.29mm|YSize=0.81mm|CornerRadius=0.0875mm|HoleSize=0mm|Usage=FLASHONLY|Rotation=90.000|XOffset=0mm|YOffset=0mm|HoleType=Round|Shape=RoundedRectangle|*
%AMROUNDEDRECTD134*
21,1,0.29000,0.63500,0,0,90.0*
21,1,0.11500,0.81000,0,0,90.0*
1,1,0.17500,0.31750,0.05750*
1,1,0.17500,0.31750,-0.05750*
1,1,0.17500,-0.31750,-0.05750*
1,1,0.17500,-0.31750,0.05750*
%
%ADD134ROUNDEDRECTD134*%
G04:AMPARAMS|DCode=135|XSize=0.29mm|YSize=0.81mm|CornerRadius=0.0875mm|HoleSize=0mm|Usage=FLASHONLY|Rotation=0.000|XOffset=0mm|YOffset=0mm|HoleType=Round|Shape=RoundedRectangle|*
%AMROUNDEDRECTD135*
21,1,0.29000,0.63500,0,0,0.0*
21,1,0.11500,0.81000,0,0,0.0*
1,1,0.17500,0.05750,-0.31750*
1,1,0.17500,-0.05750,-0.31750*
1,1,0.17500,-0.05750,0.31750*
1,1,0.17500,0.05750,0.31750*
%
%ADD135ROUNDEDRECTD135*%
G04:AMPARAMS|DCode=136|XSize=1.56mm|YSize=1.56mm|CornerRadius=0.405mm|HoleSize=0mm|Usage=FLASHONLY|Rotation=0.000|XOffset=0mm|YOffset=0mm|HoleType=Round|Shape=RoundedRectangle|*
%AMROUNDEDRECTD136*
21,1,1.56000,0.75000,0,0,0.0*
21,1,0.75000,1.56000,0,0,0.0*
1,1,0.81000,0.37500,-0.37500*
1,1,0.81000,-0.37500,-0.37500*
1,1,0.81000,-0.37500,0.37500*
1,1,0.81000,0.37500,0.37500*
%
%ADD136ROUNDEDRECTD136*%
G04:AMPARAMS|DCode=137|XSize=0.84mm|YSize=1.39mm|CornerRadius=0.22mm|HoleSize=0mm|Usage=FLASHONLY|Rotation=180.000|XOffset=0mm|YOffset=0mm|HoleType=Round|Shape=RoundedRectangle|*
%AMROUNDEDRECTD137*
21,1,0.84000,0.95000,0,0,180.0*
21,1,0.40000,1.39000,0,0,180.0*
1,1,0.44000,-0.20000,0.47500*
1,1,0.44000,0.20000,0.47500*
1,1,0.44000,0.20000,-0.47500*
1,1,0.44000,-0.20000,-0.47500*
%
%ADD137ROUNDEDRECTD137*%
G04:AMPARAMS|DCode=138|XSize=1.75mm|YSize=1.35mm|CornerRadius=0.3625mm|HoleSize=0mm|Usage=FLASHONLY|Rotation=0.000|XOffset=0mm|YOffset=0mm|HoleType=Round|Shape=RoundedRectangle|*
%AMROUNDEDRECTD138*
21,1,1.75000,0.62500,0,0,0.0*
21,1,1.02500,1.35000,0,0,0.0*
1,1,0.72500,0.51250,-0.31250*
1,1,0.72500,-0.51250,-0.31250*
1,1,0.72500,-0.51250,0.31250*
1,1,0.72500,0.51250,0.31250*
%
%ADD138ROUNDEDRECTD138*%
%TA.AperFunction,NonConductor*%
%ADD139C,0.25000*%
G36*
X1409998Y1609996D02*
X999999D01*
Y3409996D01*
X1409998D01*
Y1609996D01*
D02*
G37*
D43*
X3354998Y3569998D02*
X3394998D01*
X3374962Y3549993D02*
Y3589993D01*
X2754999Y2970000D02*
X2794999D01*
X2774963Y2949995D02*
Y2989995D01*
X2754999Y3569998D02*
X2794999D01*
X2774963Y3549993D02*
Y3589993D01*
X3354998Y2970000D02*
X3394998D01*
X3374962Y2949995D02*
Y2989995D01*
D57*
X4264997Y2349994D02*
D03*
Y1749995D02*
D03*
D58*
X1299998Y1899997D02*
D03*
Y1819997D02*
D03*
Y1979997D02*
D03*
Y1739997D02*
D03*
Y2139996D02*
D03*
Y2059996D02*
D03*
Y2379996D02*
D03*
Y2219996D02*
D03*
Y2619995D02*
D03*
Y2299996D02*
D03*
Y2539995D02*
D03*
Y2459996D02*
D03*
Y2779995D02*
D03*
Y3019994D02*
D03*
Y3099994D02*
D03*
Y3179994D02*
D03*
Y2699995D02*
D03*
Y3259994D02*
D03*
Y2859995D02*
D03*
Y2939995D02*
D03*
D59*
X5000000Y500000D02*
D03*
Y4500000D02*
D03*
X500000D02*
D03*
Y500000D02*
D03*
X2075000Y1235000D02*
D03*
X2225000D02*
D03*
X2175000D02*
D03*
X2125000D02*
D03*
X3875000D02*
D03*
X4025000D02*
D03*
X3975000D02*
D03*
X3925000D02*
D03*
X4025000Y3765000D02*
D03*
X3875000D02*
D03*
X3925000D02*
D03*
X3975000D02*
D03*
X2175000D02*
D03*
X2125000D02*
D03*
X2075000D02*
D03*
X2225000D02*
D03*
D60*
X4515000Y2625000D02*
D03*
Y2775000D02*
D03*
Y2725000D02*
D03*
Y2675000D02*
D03*
D115*
X1033000Y1000000D02*
G03*
X1033000Y1000000I-33000J0D01*
G01*
X5032998Y4000000D02*
G03*
X5032998Y4000000I-33000J0D01*
G01*
X1033000D02*
G03*
X1033000Y4000000I-33000J0D01*
G01*
X5032998Y1000000D02*
G03*
X5032998Y1000000I-33000J0D01*
G01*
D116*
X1819998Y3569996D02*
D03*
D117*
X3725000Y1449995D02*
D03*
X3945000Y1544996D02*
D03*
Y1354993D02*
D03*
D118*
X1819998Y3464996D02*
D03*
X1689996D02*
D03*
Y3664995D02*
D03*
X1754995D02*
D03*
X2160000Y3369995D02*
D03*
X2029997D02*
D03*
Y3569995D02*
D03*
X2094996D02*
D03*
D119*
X1819998Y3664995D02*
D03*
X2160000Y3569995D02*
D03*
D120*
X3874997Y2804997D02*
D03*
X3974997D02*
D03*
X3875001Y2904996D02*
D03*
X3975000D02*
D03*
X2329997Y1969995D02*
D03*
X2229997D02*
D03*
X2664997Y3569995D02*
D03*
X2564997D02*
D03*
X4149998Y1344996D02*
D03*
X4049999D02*
D03*
X2329997Y2369993D02*
D03*
X2229997D02*
D03*
Y2069995D02*
D03*
X2329997D02*
D03*
X2229997Y2269996D02*
D03*
X2329997D02*
D03*
Y2169995D02*
D03*
X2229997D02*
D03*
X4049999Y1444996D02*
D03*
X4149998D02*
D03*
X4264999Y1414995D02*
D03*
X4364999D02*
D03*
X4150000Y1544995D02*
D03*
X4050000D02*
D03*
X1759999Y2894997D02*
D03*
X1659999D02*
D03*
X1759997Y2994998D02*
D03*
X1659997D02*
D03*
X2249997Y1769995D02*
D03*
X2349997D02*
D03*
X2349999Y1669994D02*
D03*
X2250000D02*
D03*
X2350000Y1569996D02*
D03*
X2250000D02*
D03*
X2229997Y1869995D02*
D03*
X2329997D02*
D03*
X2654999Y1734997D02*
D03*
X2554999D02*
D03*
X1659997Y2354996D02*
D03*
X1759997D02*
D03*
X1659997Y2254997D02*
D03*
X1759997D02*
D03*
X1959999Y2424994D02*
D03*
X1859999D02*
D03*
X1959999Y2624996D02*
D03*
X1859999D02*
D03*
X1959997Y2724996D02*
D03*
X1859997D02*
D03*
X1659999Y2574996D02*
D03*
X1759999D02*
D03*
X1760000Y2474994D02*
D03*
X1660000D02*
D03*
X1659997Y2674995D02*
D03*
X1759997D02*
D03*
X1659999Y2774995D02*
D03*
X1759999D02*
D03*
X1959996Y2524994D02*
D03*
X1859997D02*
D03*
X4019999Y2604998D02*
D03*
X4119999D02*
D03*
Y2704998D02*
D03*
X4019999D02*
D03*
X1859999Y2854993D02*
D03*
X1959999D02*
D03*
X2564999Y3469997D02*
D03*
X2664999D02*
D03*
X2579997Y3669998D02*
D03*
X2679996D02*
D03*
X1660000Y3109996D02*
D03*
X1760000D02*
D03*
X3560000Y3364997D02*
D03*
X3460000D02*
D03*
X1659997Y2054996D02*
D03*
X1759997D02*
D03*
X1659998Y2154996D02*
D03*
X1759998D02*
D03*
X3644999Y1634996D02*
D03*
X3544999D02*
D03*
X3644999Y1734996D02*
D03*
X3544999D02*
D03*
X3530001Y1849995D02*
D03*
X3630001D02*
D03*
X3630000Y2269994D02*
D03*
X3530001D02*
D03*
X3625001Y2369993D02*
D03*
X3525001D02*
D03*
X3630001Y1949994D02*
D03*
X3530001D02*
D03*
X3620000Y2054994D02*
D03*
X3720000D02*
D03*
X4010000D02*
D03*
X3910000D02*
D03*
X2554998Y1834998D02*
D03*
X2654998D02*
D03*
X4129997Y3659995D02*
D03*
X4229997D02*
D03*
X4029997D02*
D03*
X3929997D02*
D03*
X1784997Y3359995D02*
D03*
X1684997D02*
D03*
X2365001Y3664994D02*
D03*
X2265001D02*
D03*
X2044999Y3664997D02*
D03*
X2144999D02*
D03*
X2265001Y3554997D02*
D03*
X2365001D02*
D03*
X2264998Y3334993D02*
D03*
X2364998D02*
D03*
X2365001Y3444995D02*
D03*
X2265001D02*
D03*
X3452998Y3129997D02*
D03*
X3552998D02*
D03*
X2689997Y2984994D02*
D03*
X2589997D02*
D03*
X1760000Y1854995D02*
D03*
X1660000D02*
D03*
X1760000Y1954995D02*
D03*
X1660000D02*
D03*
X2504999Y2509996D02*
D03*
X2404999D02*
D03*
X2830001Y3669998D02*
D03*
X2930001D02*
D03*
X3552998Y3229997D02*
D03*
X3452998D02*
D03*
X3460001Y3664997D02*
D03*
X3560001D02*
D03*
X3459998Y3464998D02*
D03*
X3559998D02*
D03*
X3460001Y3564997D02*
D03*
X3560001D02*
D03*
D121*
X2817226Y1939998D02*
D03*
X2967223Y2314993D02*
D03*
X3017226D02*
D03*
X3367228D02*
D03*
X3317225D02*
D03*
X3267228D02*
D03*
X3217225D02*
D03*
X3167228D02*
D03*
X3117226D02*
D03*
X3067228Y1664997D02*
D03*
X2892227Y1714995D02*
D03*
X2992227D02*
D03*
X3042225D02*
D03*
X2817226Y1664997D02*
D03*
X2867224D02*
D03*
X2917226D02*
D03*
X2967223D02*
D03*
X3017226D02*
D03*
X3367228D02*
D03*
X3317225D02*
D03*
X3267228D02*
D03*
X3217225D02*
D03*
X3167228D02*
D03*
X3117226D02*
D03*
X3417225Y1714995D02*
D03*
X3292227D02*
D03*
X3242224D02*
D03*
X3192227D02*
D03*
X3142224D02*
D03*
X3092227D02*
D03*
Y2264996D02*
D03*
X2842225D02*
D03*
X2892227D02*
D03*
X2942225D02*
D03*
X2992227D02*
D03*
X3042225D02*
D03*
X3417225D02*
D03*
X3242224D02*
D03*
X3192227D02*
D03*
X3142224D02*
D03*
X3067228Y2314993D02*
D03*
X2817226Y1739993D02*
D03*
Y1789996D02*
D03*
X2767224Y1814994D02*
D03*
Y1864997D02*
D03*
X2817226Y1889995D02*
D03*
X2767224Y1914994D02*
D03*
Y1964997D02*
D03*
X2817226Y1989995D02*
D03*
X2767224Y2014994D02*
D03*
X2817226Y2039998D02*
D03*
X2767224Y2064996D02*
D03*
X2817226Y2089995D02*
D03*
X2767224Y2114994D02*
D03*
X2817226Y2139997D02*
D03*
Y2189995D02*
D03*
X2767224Y2214994D02*
D03*
Y2264996D02*
D03*
X3367228Y1939998D02*
D03*
Y1789996D02*
D03*
Y1889995D02*
D03*
Y2089995D02*
D03*
Y2139997D02*
D03*
Y2189995D02*
D03*
X3417225Y1814994D02*
D03*
Y1864997D02*
D03*
Y1914994D02*
D03*
Y1964997D02*
D03*
Y2014994D02*
D03*
Y2064996D02*
D03*
Y2164996D02*
D03*
X3367223Y1839998D02*
D03*
X3417225Y1764997D02*
D03*
D122*
X3092227Y1989995D02*
D03*
D123*
X3124998Y2899996D02*
D03*
Y2799996D02*
D03*
X2079998Y1974995D02*
D03*
Y2074995D02*
D03*
X2845001Y1429994D02*
D03*
Y1529993D02*
D03*
X2955001Y1509994D02*
D03*
Y1409994D02*
D03*
X3254998Y1524996D02*
D03*
Y1424997D02*
D03*
X3155001Y1424996D02*
D03*
Y1524996D02*
D03*
X2640000Y1544994D02*
D03*
Y1444994D02*
D03*
X2740001Y1544996D02*
D03*
Y1444996D02*
D03*
X1980000Y1974997D02*
D03*
Y2074997D02*
D03*
X4174999Y2904997D02*
D03*
Y2804997D02*
D03*
X4075000Y2904997D02*
D03*
Y2804997D02*
D03*
X4274998D02*
D03*
Y2904997D02*
D03*
X4374996Y2904996D02*
D03*
Y2804997D02*
D03*
X3574998Y1524994D02*
D03*
Y1424994D02*
D03*
X3354998Y1424995D02*
D03*
Y1524994D02*
D03*
X2794999Y2539993D02*
D03*
Y2439993D02*
D03*
X3054998Y2439996D02*
D03*
Y2539996D02*
D03*
X3264997Y2539997D02*
D03*
Y2439997D02*
D03*
X3815000Y2154994D02*
D03*
Y2054994D02*
D03*
X3530001Y2154994D02*
D03*
Y2054994D02*
D03*
X2454996Y2029995D02*
D03*
Y2129994D02*
D03*
Y2329994D02*
D03*
Y2229995D02*
D03*
X2900000Y2539996D02*
D03*
Y2439996D02*
D03*
X3054998Y1424996D02*
D03*
Y1524995D02*
D03*
X3460001Y1424995D02*
D03*
Y1524995D02*
D03*
X3158532Y2539997D02*
D03*
Y2439997D02*
D03*
X3379999Y2539996D02*
D03*
Y2439996D02*
D03*
X2690001Y2539996D02*
D03*
Y2439996D02*
D03*
X4399999Y3571995D02*
D03*
Y3471995D02*
D03*
X4299999Y3571995D02*
D03*
Y3471995D02*
D03*
X1924996Y3664994D02*
D03*
Y3564995D02*
D03*
Y3354998D02*
D03*
Y3454997D02*
D03*
X3024998Y2899996D02*
D03*
Y2799996D02*
D03*
X2924998Y2899996D02*
D03*
Y2799996D02*
D03*
X3324998Y2884995D02*
D03*
Y2784995D02*
D03*
X3224998Y2899995D02*
D03*
Y2799995D02*
D03*
X1879999Y1974994D02*
D03*
Y2074993D02*
D03*
X3434998Y2899996D02*
D03*
Y2799996D02*
D03*
X2129998Y1449995D02*
D03*
Y1349995D02*
D03*
X2529998Y3179996D02*
D03*
Y3079996D02*
D03*
Y3274996D02*
D03*
Y3374996D02*
D03*
D124*
X1990001Y1654997D02*
D03*
X1895000Y1874997D02*
D03*
X2084997D02*
D03*
D125*
X2662997Y3094994D02*
D03*
Y3334994D02*
D03*
X2594996Y2069995D02*
D03*
Y2309995D02*
D03*
D126*
X2824996Y3519996D02*
D03*
X2874999D02*
D03*
X2924996D02*
D03*
X2974999D02*
D03*
X3025001D02*
D03*
X3074998D02*
D03*
X3125001D02*
D03*
X3174998D02*
D03*
X3225001D02*
D03*
X3274998D02*
D03*
X3325000D02*
D03*
X2824996Y3469994D02*
D03*
X2874999D02*
D03*
X2924996D02*
D03*
X2974999D02*
D03*
X3025001D02*
D03*
X3074998D02*
D03*
X3125001D02*
D03*
X3174998D02*
D03*
X3225001D02*
D03*
X3325000D02*
D03*
X2824996Y3419996D02*
D03*
X2874999D02*
D03*
X3274998D02*
D03*
X3325000D02*
D03*
X2824996Y3369994D02*
D03*
X2874999D02*
D03*
X2974999D02*
D03*
X3025001D02*
D03*
X3074998D02*
D03*
X3125001D02*
D03*
X3174998D02*
D03*
X3274998D02*
D03*
X3325000D02*
D03*
X2824996Y3319996D02*
D03*
X2874999D02*
D03*
X2974999D02*
D03*
X3174998D02*
D03*
X3274998D02*
D03*
X3325000D02*
D03*
X2824996Y3269994D02*
D03*
X2874999D02*
D03*
X2974999D02*
D03*
X3174998D02*
D03*
X3274998D02*
D03*
X3325000D02*
D03*
X2824996Y3219997D02*
D03*
X2874999D02*
D03*
X2974999D02*
D03*
X3174998D02*
D03*
X3274998D02*
D03*
X3325000D02*
D03*
X2824996Y3169994D02*
D03*
X2874999D02*
D03*
X2974999D02*
D03*
X3025001D02*
D03*
X3074998D02*
D03*
X3125001D02*
D03*
X3174998D02*
D03*
X3274998D02*
D03*
X3325000D02*
D03*
X2824996Y3119997D02*
D03*
X2874999D02*
D03*
X3274998D02*
D03*
X3325000D02*
D03*
X2824996Y3069994D02*
D03*
X2874999D02*
D03*
X2924996D02*
D03*
X2974999D02*
D03*
X3025001D02*
D03*
X3074998D02*
D03*
X3125001D02*
D03*
X3174998D02*
D03*
X3225001D02*
D03*
X3325000D02*
D03*
X2824996Y3019997D02*
D03*
X2874999D02*
D03*
X2924996D02*
D03*
X2974999D02*
D03*
X3025001D02*
D03*
X3074998D02*
D03*
X3125001D02*
D03*
X3174998D02*
D03*
X3225001D02*
D03*
X3274998D02*
D03*
X3325000D02*
D03*
X3274998Y3469994D02*
D03*
D127*
X4264997Y2049994D02*
D03*
D128*
X2394997Y2624996D02*
D03*
X4254997Y1529995D02*
D03*
D129*
X2554997Y2624996D02*
D03*
X4414997Y1529995D02*
D03*
D130*
X3485001Y2569993D02*
D03*
X3625001D02*
D03*
Y2469994D02*
D03*
X3485001D02*
D03*
D131*
X1999997Y1399993D02*
D03*
D132*
X1699998D02*
D03*
D133*
X4080001Y3266997D02*
D03*
D134*
Y3216994D02*
D03*
Y3166997D02*
D03*
Y3116994D02*
D03*
X4369998D02*
D03*
Y3166997D02*
D03*
Y3216994D02*
D03*
Y3266997D02*
D03*
D135*
X4149998Y3046997D02*
D03*
X4200000D02*
D03*
X4249998D02*
D03*
X4300000D02*
D03*
Y3336994D02*
D03*
X4249998D02*
D03*
X4200000D02*
D03*
X4149998D02*
D03*
D136*
X4224999Y3191995D02*
D03*
D137*
X4199999Y3511995D02*
D03*
X3960000D02*
D03*
D138*
X3885000Y3054996D02*
D03*
Y3334996D02*
D03*
D139*
X2722225Y2339997D02*
X2762225D01*
X3422224D02*
X3462224D01*
X3442224Y2319997D02*
Y2359997D01*
X3422224Y1639993D02*
X3462224D01*
X3442224Y1619993D02*
Y1659993D01*
X2722225Y1639993D02*
X2762225D01*
X2742225Y1619993D02*
Y1659993D01*
Y2319997D02*
Y2359997D01*
X3354998Y3569993D02*
X3394998D01*
X3374998Y3549993D02*
Y3589993D01*
X2754999Y2969995D02*
X2794999D01*
X2774999Y2949995D02*
Y2989995D01*
X2754999Y3569993D02*
X2794999D01*
X2774999Y3549993D02*
Y3589993D01*
X3354998Y2969995D02*
X3394998D01*
X3374998Y2949995D02*
Y2989995D01*
%TF.MD5,1ed9effeb2e91b277ae1f33ddb0d2da9*%
M02*
