%TF.GenerationSoftware,Altium Limited,Altium Designer,24.8.2 (39)*%
G04 Layer_Color=128*
%FSLAX45Y45*%
%MOMM*%
%TF.SameCoordinates,B03309B8-0E9A-45A2-8570-9956D1A1A338*%
%TF.FilePolarity,Positive*%
%TF.FileFunction,Paste,Bot*%
%TF.Part,CustomerPanel*%
G01*
G75*
G36*
X1377499Y1714996D02*
X1242498D01*
X1240012D01*
X1235417Y1716899D01*
X1231901Y1720415D01*
X1229998Y1725009D01*
Y1727496D01*
D01*
Y1752496D01*
Y1754982D01*
X1231901Y1759576D01*
X1235417Y1763092D01*
X1240012Y1764996D01*
X1242498D01*
D01*
X1377499D01*
X1379985D01*
X1384579Y1763092D01*
X1388095Y1759576D01*
X1389998Y1754982D01*
Y1752496D01*
D01*
Y1727496D01*
Y1725009D01*
X1388095Y1720415D01*
X1384579Y1716899D01*
X1379985Y1714996D01*
X1377499D01*
D01*
D02*
G37*
G36*
Y1794996D02*
X1242498D01*
X1240012D01*
X1235417Y1796899D01*
X1231901Y1800415D01*
X1229998Y1805009D01*
Y1807495D01*
D01*
Y1832496D01*
Y1834982D01*
X1231901Y1839576D01*
X1235417Y1843092D01*
X1240012Y1844996D01*
X1242498D01*
D01*
X1377499D01*
X1379985D01*
X1384579Y1843092D01*
X1388095Y1839576D01*
X1389998Y1834982D01*
Y1832496D01*
D01*
Y1807495D01*
Y1805009D01*
X1388095Y1800415D01*
X1384579Y1796899D01*
X1379985Y1794996D01*
X1377499D01*
D01*
D02*
G37*
G36*
Y1874996D02*
X1242498D01*
X1240012D01*
X1235417Y1876899D01*
X1231901Y1880415D01*
X1229998Y1885009D01*
Y1887496D01*
D01*
Y1912496D01*
Y1914982D01*
X1231901Y1919577D01*
X1235417Y1923093D01*
X1240012Y1924996D01*
X1242498D01*
D01*
X1377499D01*
X1379985D01*
X1384579Y1923093D01*
X1388095Y1919577D01*
X1389998Y1914982D01*
Y1912496D01*
D01*
Y1887496D01*
Y1885009D01*
X1388095Y1880415D01*
X1384579Y1876899D01*
X1379985Y1874996D01*
X1377499D01*
D01*
D02*
G37*
G36*
Y1954996D02*
X1242498D01*
X1240012D01*
X1235417Y1956899D01*
X1231901Y1960415D01*
X1229998Y1965009D01*
Y1967496D01*
D01*
Y1992496D01*
Y1994982D01*
X1231901Y1999576D01*
X1235417Y2003093D01*
X1240012Y2004996D01*
X1242498D01*
D01*
X1377499D01*
X1379985D01*
X1384579Y2003093D01*
X1388095Y1999576D01*
X1389998Y1994982D01*
Y1992496D01*
D01*
Y1967496D01*
Y1965009D01*
X1388095Y1960415D01*
X1384579Y1956899D01*
X1379985Y1954996D01*
X1377499D01*
D01*
D02*
G37*
G36*
Y2034996D02*
X1242498D01*
X1240012D01*
X1235417Y2036899D01*
X1231901Y2040415D01*
X1229998Y2045009D01*
Y2047496D01*
D01*
Y2072496D01*
Y2074982D01*
X1231901Y2079576D01*
X1235417Y2083092D01*
X1240012Y2084996D01*
X1242498D01*
D01*
X1377499D01*
X1379985D01*
X1384579Y2083092D01*
X1388095Y2079576D01*
X1389998Y2074982D01*
Y2072496D01*
D01*
Y2047496D01*
Y2045009D01*
X1388095Y2040415D01*
X1384579Y2036899D01*
X1379985Y2034996D01*
X1377499D01*
D01*
D02*
G37*
G36*
Y2114996D02*
X1242498D01*
X1240012D01*
X1235417Y2116899D01*
X1231901Y2120415D01*
X1229998Y2125009D01*
Y2127496D01*
D01*
Y2152496D01*
Y2154982D01*
X1231901Y2159576D01*
X1235417Y2163092D01*
X1240012Y2164996D01*
X1242498D01*
D01*
X1377499D01*
X1379985D01*
X1384579Y2163092D01*
X1388095Y2159576D01*
X1389998Y2154982D01*
Y2152496D01*
D01*
Y2127496D01*
Y2125009D01*
X1388095Y2120415D01*
X1384579Y2116899D01*
X1379985Y2114996D01*
X1377499D01*
D01*
D02*
G37*
G36*
Y2194996D02*
X1242498D01*
X1240012D01*
X1235417Y2196899D01*
X1231901Y2200415D01*
X1229998Y2205009D01*
Y2207496D01*
D01*
Y2232496D01*
Y2234982D01*
X1231901Y2239576D01*
X1235417Y2243093D01*
X1240012Y2244996D01*
X1242498D01*
D01*
X1377499D01*
X1379985D01*
X1384579Y2243093D01*
X1388095Y2239576D01*
X1389998Y2234982D01*
Y2232496D01*
D01*
Y2207496D01*
Y2205009D01*
X1388095Y2200415D01*
X1384579Y2196899D01*
X1379985Y2194996D01*
X1377499D01*
D01*
D02*
G37*
G36*
Y2274996D02*
X1242498D01*
X1240012D01*
X1235417Y2276899D01*
X1231901Y2280415D01*
X1229998Y2285009D01*
Y2287496D01*
D01*
Y2312496D01*
Y2314982D01*
X1231901Y2319576D01*
X1235417Y2323092D01*
X1240012Y2324996D01*
X1242498D01*
D01*
X1377499D01*
X1379985D01*
X1384579Y2323092D01*
X1388095Y2319576D01*
X1389998Y2314982D01*
Y2312496D01*
D01*
Y2287496D01*
Y2285009D01*
X1388095Y2280415D01*
X1384579Y2276899D01*
X1379985Y2274996D01*
X1377499D01*
D01*
D02*
G37*
G36*
Y2354996D02*
X1242498D01*
X1240012D01*
X1235417Y2356899D01*
X1231901Y2360415D01*
X1229998Y2365009D01*
Y2367496D01*
D01*
Y2392496D01*
Y2394982D01*
X1231901Y2399576D01*
X1235417Y2403092D01*
X1240012Y2404996D01*
X1242498D01*
D01*
X1377499D01*
X1379985D01*
X1384579Y2403092D01*
X1388095Y2399576D01*
X1389998Y2394982D01*
Y2392496D01*
D01*
Y2367496D01*
Y2365009D01*
X1388095Y2360415D01*
X1384579Y2356899D01*
X1379985Y2354996D01*
X1377499D01*
D01*
D02*
G37*
G36*
Y2434996D02*
X1242498D01*
X1240012D01*
X1235417Y2436899D01*
X1231901Y2440415D01*
X1229998Y2445009D01*
Y2447496D01*
D01*
Y2472496D01*
Y2474982D01*
X1231901Y2479576D01*
X1235417Y2483093D01*
X1240012Y2484996D01*
X1242498D01*
D01*
X1377499D01*
X1379985D01*
X1384579Y2483093D01*
X1388095Y2479576D01*
X1389998Y2474982D01*
Y2472496D01*
D01*
Y2447496D01*
Y2445009D01*
X1388095Y2440415D01*
X1384579Y2436899D01*
X1379985Y2434996D01*
X1377499D01*
D01*
D02*
G37*
G36*
Y2514996D02*
X1242498D01*
X1240012D01*
X1235417Y2516899D01*
X1231901Y2520415D01*
X1229998Y2525009D01*
Y2527496D01*
D01*
Y2552496D01*
Y2554982D01*
X1231901Y2559576D01*
X1235417Y2563092D01*
X1240012Y2564996D01*
X1242498D01*
D01*
X1377499D01*
X1379985D01*
X1384579Y2563092D01*
X1388095Y2559576D01*
X1389998Y2554982D01*
Y2552496D01*
D01*
Y2527496D01*
Y2525009D01*
X1388095Y2520415D01*
X1384579Y2516899D01*
X1379985Y2514996D01*
X1377499D01*
D01*
D02*
G37*
G36*
Y2594996D02*
X1242498D01*
X1240012D01*
X1235417Y2596899D01*
X1231901Y2600415D01*
X1229998Y2605009D01*
Y2607496D01*
D01*
Y2632496D01*
Y2634982D01*
X1231901Y2639576D01*
X1235417Y2643093D01*
X1240012Y2644996D01*
X1242498D01*
D01*
X1377499D01*
X1379985D01*
X1384579Y2643093D01*
X1388095Y2639576D01*
X1389998Y2634982D01*
Y2632496D01*
D01*
Y2607496D01*
Y2605009D01*
X1388095Y2600415D01*
X1384579Y2596899D01*
X1379985Y2594996D01*
X1377499D01*
D01*
D02*
G37*
G36*
Y2674996D02*
X1242498D01*
X1240012D01*
X1235417Y2676899D01*
X1231901Y2680415D01*
X1229998Y2685009D01*
Y2687496D01*
D01*
Y2712496D01*
Y2714982D01*
X1231901Y2719576D01*
X1235417Y2723093D01*
X1240012Y2724996D01*
X1242498D01*
D01*
X1377499D01*
X1379985D01*
X1384579Y2723093D01*
X1388095Y2719576D01*
X1389998Y2714982D01*
Y2712496D01*
D01*
Y2687496D01*
Y2685009D01*
X1388095Y2680415D01*
X1384579Y2676899D01*
X1379985Y2674996D01*
X1377499D01*
D01*
D02*
G37*
G36*
Y2754996D02*
X1242498D01*
X1240012D01*
X1235417Y2756899D01*
X1231901Y2760415D01*
X1229998Y2765009D01*
Y2767496D01*
D01*
Y2792496D01*
Y2794982D01*
X1231901Y2799576D01*
X1235417Y2803092D01*
X1240012Y2804996D01*
X1242498D01*
D01*
X1377499D01*
X1379985D01*
X1384579Y2803092D01*
X1388095Y2799576D01*
X1389998Y2794982D01*
Y2792496D01*
D01*
Y2767496D01*
Y2765009D01*
X1388095Y2760415D01*
X1384579Y2756899D01*
X1379985Y2754996D01*
X1377499D01*
D01*
D02*
G37*
G36*
Y2834996D02*
X1242498D01*
X1240012D01*
X1235417Y2836899D01*
X1231901Y2840415D01*
X1229998Y2845009D01*
Y2847496D01*
D01*
Y2872496D01*
Y2874982D01*
X1231901Y2879576D01*
X1235417Y2883093D01*
X1240012Y2884996D01*
X1242498D01*
D01*
X1377499D01*
X1379985D01*
X1384579Y2883093D01*
X1388095Y2879576D01*
X1389998Y2874982D01*
Y2872496D01*
D01*
Y2847496D01*
Y2845009D01*
X1388095Y2840415D01*
X1384579Y2836899D01*
X1379985Y2834996D01*
X1377499D01*
D01*
D02*
G37*
G36*
Y2914996D02*
X1242498D01*
X1240012D01*
X1235417Y2916899D01*
X1231901Y2920415D01*
X1229998Y2925009D01*
Y2927496D01*
D01*
Y2952496D01*
Y2954982D01*
X1231901Y2959577D01*
X1235417Y2963093D01*
X1240012Y2964996D01*
X1242498D01*
D01*
X1377499D01*
X1379985D01*
X1384579Y2963093D01*
X1388095Y2959577D01*
X1389998Y2954982D01*
Y2952496D01*
D01*
Y2927496D01*
Y2925009D01*
X1388095Y2920415D01*
X1384579Y2916899D01*
X1379985Y2914996D01*
X1377499D01*
D01*
D02*
G37*
G36*
Y2994996D02*
X1242498D01*
X1240012D01*
X1235417Y2996899D01*
X1231901Y3000415D01*
X1229998Y3005009D01*
Y3007496D01*
D01*
Y3032496D01*
Y3034982D01*
X1231901Y3039576D01*
X1235417Y3043092D01*
X1240012Y3044996D01*
X1242498D01*
D01*
X1377499D01*
X1379985D01*
X1384579Y3043092D01*
X1388095Y3039576D01*
X1389998Y3034982D01*
Y3032496D01*
D01*
Y3007496D01*
Y3005009D01*
X1388095Y3000415D01*
X1384579Y2996899D01*
X1379985Y2994996D01*
X1377499D01*
D01*
D02*
G37*
G36*
Y3074996D02*
X1242498D01*
X1240012D01*
X1235417Y3076899D01*
X1231901Y3080415D01*
X1229998Y3085009D01*
Y3087496D01*
D01*
Y3112496D01*
Y3114982D01*
X1231901Y3119576D01*
X1235417Y3123093D01*
X1240012Y3124996D01*
X1242498D01*
D01*
X1377499D01*
X1379985D01*
X1384579Y3123093D01*
X1388095Y3119576D01*
X1389998Y3114982D01*
Y3112496D01*
D01*
Y3087496D01*
Y3085009D01*
X1388095Y3080415D01*
X1384579Y3076899D01*
X1379985Y3074996D01*
X1377499D01*
D01*
D02*
G37*
G36*
Y3154996D02*
X1242498D01*
X1240012D01*
X1235417Y3156899D01*
X1231901Y3160415D01*
X1229998Y3165009D01*
Y3167496D01*
D01*
Y3192496D01*
Y3194982D01*
X1231901Y3199576D01*
X1235417Y3203092D01*
X1240012Y3204996D01*
X1242498D01*
D01*
X1377499D01*
X1379985D01*
X1384579Y3203092D01*
X1388095Y3199576D01*
X1389998Y3194982D01*
Y3192496D01*
D01*
Y3167496D01*
Y3165009D01*
X1388095Y3160415D01*
X1384579Y3156899D01*
X1379985Y3154996D01*
X1377499D01*
D01*
D02*
G37*
G36*
Y3234996D02*
X1242498D01*
X1240012D01*
X1235417Y3236899D01*
X1231901Y3240415D01*
X1229998Y3245009D01*
Y3247496D01*
D01*
Y3272496D01*
Y3274982D01*
X1231901Y3279576D01*
X1235417Y3283092D01*
X1240012Y3284996D01*
X1242498D01*
D01*
X1377499D01*
X1379985D01*
X1384579Y3283092D01*
X1388095Y3279576D01*
X1389998Y3274982D01*
Y3272496D01*
D01*
Y3247496D01*
Y3245009D01*
X1388095Y3240415D01*
X1384579Y3236899D01*
X1379985Y3234996D01*
X1377499D01*
D01*
D02*
G37*
%TF.MD5,a806652224f597ad9f98473e40cf902f*%
M02*
