%TF.GenerationSoftware,Altium Limited,Altium Designer,24.8.2 (39)*%
G04 Layer_Color=32896*
%FSLAX45Y45*%
%MOMM*%
%TF.SameCoordinates,B03309B8-0E9A-45A2-8570-9956D1A1A338*%
%TF.FilePolarity,Positive*%
%TF.FileFunction,Legend,Bot*%
%TF.Part,CustomerPanel*%
G01*
G75*
%TA.AperFunction,NonConductor*%
%ADD43C,0.15000*%
%ADD45R,0.14996X0.20000*%
%ADD46R,0.15001X0.40000*%
%ADD47R,0.15001X0.20000*%
%ADD48R,0.15001X0.80000*%
%ADD49R,0.15001X0.60000*%
%ADD50R,0.15001X1.40000*%
%ADD51R,0.14996X0.60000*%
%ADD52R,0.14996X1.40000*%
%ADD53R,0.15001X1.20000*%
%ADD54R,0.15001X1.00000*%
%ADD55R,0.14996X0.60005*%
%ADD56R,0.15001X0.60005*%
G36*
X4484999Y2123818D02*
Y1997265D01*
X4034999D01*
Y2123818D01*
Y2249996D01*
X4484999D01*
Y2123818D01*
D02*
G37*
G36*
Y1849996D02*
X4034999D01*
Y1997265D01*
X4484999D01*
Y1849996D01*
D02*
G37*
G36*
X2849999Y2414997D02*
X2690612D01*
Y2819518D01*
X2799730D01*
X2690612D01*
Y2414997D01*
X2560402D01*
Y3131290D01*
X2560402D01*
Y2414996D01*
X2379999D01*
Y3414996D01*
X2560402D01*
Y3217015D01*
X2592025D01*
X2591415Y3216939D01*
X2590577Y3216863D01*
X2589662Y3216710D01*
X2588596Y3216558D01*
X2587453Y3216406D01*
X2586157Y3216101D01*
X2584786Y3215796D01*
X2583414Y3215339D01*
X2581966Y3214882D01*
X2580442Y3214272D01*
X2578918Y3213586D01*
X2577470Y3212824D01*
X2575946Y3211910D01*
X2575870Y3211834D01*
X2575642Y3211681D01*
X2575184Y3211376D01*
X2574651Y3210995D01*
X2574041Y3210462D01*
X2573279Y3209852D01*
X2572441Y3209090D01*
X2571527Y3208252D01*
X2570612Y3207262D01*
X2569622Y3206195D01*
X2568631Y3205052D01*
X2567717Y3203756D01*
X2566726Y3202385D01*
X2565812Y3200937D01*
X2564974Y3199337D01*
X2564212Y3197660D01*
X2564135Y3197584D01*
X2564059Y3197279D01*
X2563831Y3196746D01*
X2563602Y3195984D01*
X2563297Y3195146D01*
X2562992Y3194079D01*
X2562688Y3192784D01*
X2562307Y3191412D01*
X2561926Y3189812D01*
X2561621Y3188059D01*
X2561316Y3186154D01*
X2561011Y3184173D01*
X2560783Y3182039D01*
X2560554Y3179753D01*
X2560478Y3177315D01*
X2560402Y3174801D01*
Y3173429D01*
X2560478Y3172895D01*
Y3172210D01*
X2560554Y3171524D01*
X2560706Y3169847D01*
X2560859Y3167866D01*
X2561164Y3165733D01*
X2561545Y3163447D01*
X2562078Y3161008D01*
X2562688Y3158494D01*
X2563373Y3155903D01*
X2564288Y3153388D01*
X2565355Y3150874D01*
X2566574Y3148435D01*
X2568022Y3146149D01*
X2569622Y3144016D01*
X2569698Y3143863D01*
X2570079Y3143558D01*
X2570612Y3143025D01*
X2571374Y3142339D01*
X2572289Y3141501D01*
X2573508Y3140510D01*
X2574880Y3139520D01*
X2576480Y3138453D01*
X2578232Y3137310D01*
X2580290Y3136243D01*
X2582500Y3135176D01*
X2584862Y3134186D01*
X2587529Y3133195D01*
X2590348Y3132433D01*
X2593396Y3131747D01*
X2596597Y3131290D01*
D01*
X2598578Y3152017D01*
X2598425D01*
X2598121Y3152093D01*
X2597587Y3152245D01*
X2596901Y3152398D01*
X2595987Y3152626D01*
X2594996Y3152931D01*
X2593930Y3153236D01*
X2592787Y3153617D01*
X2590272Y3154684D01*
X2588977Y3155293D01*
X2587681Y3155979D01*
X2586462Y3156741D01*
X2585319Y3157579D01*
X2584252Y3158570D01*
X2583262Y3159560D01*
X2583185Y3159637D01*
X2583033Y3159865D01*
X2582804Y3160170D01*
X2582500Y3160627D01*
X2582119Y3161161D01*
X2581738Y3161923D01*
X2581280Y3162685D01*
X2580823Y3163675D01*
X2580366Y3164666D01*
X2579909Y3165885D01*
X2579528Y3167104D01*
X2579147Y3168476D01*
X2578842Y3170000D01*
X2578613Y3171600D01*
X2578461Y3173276D01*
X2578385Y3175029D01*
Y3176020D01*
X2578461Y3176705D01*
X2578537Y3177544D01*
X2578613Y3178534D01*
X2578766Y3179677D01*
X2578918Y3180820D01*
X2579452Y3183335D01*
X2579833Y3184630D01*
X2580214Y3185926D01*
X2580747Y3187145D01*
X2581280Y3188364D01*
X2581966Y3189507D01*
X2582728Y3190498D01*
X2582804Y3190574D01*
X2582957Y3190726D01*
X2583185Y3190955D01*
X2583490Y3191336D01*
X2583947Y3191717D01*
X2584405Y3192174D01*
X2585014Y3192631D01*
X2585624Y3193165D01*
X2587148Y3194079D01*
X2588824Y3194917D01*
X2589815Y3195298D01*
X2590729Y3195527D01*
X2591796Y3195679D01*
X2592863Y3195755D01*
X2592939D01*
X2593015D01*
X2593472D01*
X2594158Y3195679D01*
X2595073Y3195451D01*
X2596063Y3195222D01*
X2597130Y3194841D01*
X2598197Y3194308D01*
X2599187Y3193546D01*
X2599340Y3193469D01*
X2599645Y3193088D01*
X2600102Y3192555D01*
X2600788Y3191793D01*
X2601473Y3190726D01*
X2602312Y3189355D01*
X2603074Y3187754D01*
X2603455Y3186840D01*
X2603836Y3185849D01*
Y3185773D01*
X2603912Y3185697D01*
X2603988Y3185392D01*
X2604064Y3185087D01*
X2604217Y3184554D01*
X2604445Y3183944D01*
X2604674Y3183182D01*
X2604902Y3182344D01*
X2605207Y3181277D01*
X2605512Y3180058D01*
X2605893Y3178687D01*
X2606350Y3177086D01*
X2606807Y3175334D01*
X2607265Y3173353D01*
X2607798Y3171143D01*
X2608408Y3168781D01*
Y3168704D01*
X2608484Y3168552D01*
Y3168323D01*
X2608636Y3168019D01*
X2608712Y3167638D01*
X2608865Y3167180D01*
X2609170Y3166037D01*
X2609551Y3164590D01*
X2610084Y3162989D01*
X2610694Y3161237D01*
X2611303Y3159408D01*
X2612065Y3157427D01*
X2612827Y3155446D01*
X2613665Y3153388D01*
X2614580Y3151483D01*
X2615570Y3149578D01*
X2616637Y3147826D01*
X2617704Y3146225D01*
X2618847Y3144778D01*
X2618923Y3144701D01*
X2619228Y3144397D01*
X2619761Y3143863D01*
X2620371Y3143254D01*
X2621209Y3142568D01*
X2622276Y3141730D01*
X2623419Y3140815D01*
X2624791Y3139977D01*
X2626238Y3139063D01*
X2627839Y3138148D01*
X2629591Y3137310D01*
X2631420Y3136624D01*
X2633401Y3136015D01*
X2635535Y3135481D01*
X2637745Y3135176D01*
X2640031Y3135100D01*
X2640107D01*
X2640412D01*
X2640793D01*
X2641402Y3135176D01*
X2642088Y3135253D01*
X2642926Y3135329D01*
X2643917Y3135481D01*
X2644984Y3135634D01*
X2646050Y3135938D01*
X2647270Y3136167D01*
X2648489Y3136548D01*
X2649784Y3137005D01*
X2651156Y3137539D01*
X2652451Y3138148D01*
X2653823Y3138834D01*
X2655118Y3139596D01*
X2655194Y3139672D01*
X2655423Y3139825D01*
X2655804Y3140053D01*
X2656261Y3140434D01*
X2656871Y3140891D01*
X2657557Y3141501D01*
X2658242Y3142187D01*
X2659081Y3142949D01*
X2659919Y3143863D01*
X2660833Y3144854D01*
X2661671Y3145921D01*
X2662586Y3147064D01*
X2663424Y3148359D01*
X2664262Y3149731D01*
X2665100Y3151178D01*
X2665786Y3152779D01*
X2665862Y3152855D01*
X2665939Y3153160D01*
X2666167Y3153693D01*
X2666396Y3154303D01*
X2666624Y3155141D01*
X2667005Y3156131D01*
X2667310Y3157274D01*
X2667691Y3158570D01*
X2667996Y3160018D01*
X2668377Y3161618D01*
X2668682Y3163294D01*
X2668910Y3165123D01*
X2669215Y3167104D01*
X2669368Y3169162D01*
X2669444Y3171295D01*
X2669520Y3173505D01*
Y3174877D01*
X2669444Y3175410D01*
Y3176020D01*
X2669368Y3176782D01*
X2669291Y3178458D01*
X2669063Y3180363D01*
X2668758Y3182420D01*
X2668453Y3184706D01*
X2667996Y3187069D01*
X2667386Y3189507D01*
X2666701Y3192022D01*
X2665862Y3194536D01*
X2664796Y3196898D01*
X2663653Y3199261D01*
X2662281Y3201394D01*
X2660757Y3203375D01*
X2660681Y3203528D01*
X2660376Y3203833D01*
X2659843Y3204290D01*
X2659157Y3204976D01*
X2658319Y3205738D01*
X2657252Y3206576D01*
X2656033Y3207490D01*
X2654585Y3208481D01*
X2653061Y3209471D01*
X2651308Y3210386D01*
X2649403Y3211300D01*
X2647346Y3212062D01*
X2645136Y3212824D01*
X2642774Y3213358D01*
X2640259Y3213739D01*
X2637592Y3213967D01*
X2636678Y3192707D01*
X2636754D01*
X2637059Y3192631D01*
X2637440Y3192555D01*
X2637973Y3192403D01*
X2638659Y3192250D01*
X2639421Y3192022D01*
X2640259Y3191793D01*
X2641174Y3191488D01*
X2643079Y3190650D01*
X2644984Y3189659D01*
X2646812Y3188364D01*
X2647651Y3187678D01*
X2648336Y3186840D01*
X2648413Y3186764D01*
X2648489Y3186611D01*
X2648641Y3186383D01*
X2648870Y3186002D01*
X2649175Y3185545D01*
X2649479Y3184935D01*
X2649784Y3184249D01*
X2650165Y3183487D01*
X2650470Y3182573D01*
X2650775Y3181582D01*
X2651080Y3180439D01*
X2651384Y3179220D01*
X2651613Y3177925D01*
X2651765Y3176553D01*
X2651918Y3174953D01*
Y3172438D01*
X2651842Y3171829D01*
X2651765Y3171067D01*
X2651689Y3170152D01*
X2651613Y3169162D01*
X2651461Y3168019D01*
X2651003Y3165733D01*
X2650318Y3163294D01*
X2649860Y3162075D01*
X2649327Y3160932D01*
X2648717Y3159865D01*
X2648032Y3158798D01*
X2647955Y3158646D01*
X2647574Y3158265D01*
X2647041Y3157732D01*
X2646279Y3157122D01*
X2645365Y3156512D01*
X2644298Y3155979D01*
X2643002Y3155598D01*
X2642317Y3155522D01*
X2641555Y3155446D01*
X2641478D01*
X2641402D01*
X2640945Y3155522D01*
X2640259Y3155598D01*
X2639345Y3155827D01*
X2638354Y3156208D01*
X2637287Y3156741D01*
X2636221Y3157503D01*
X2635154Y3158570D01*
Y3158646D01*
X2635001Y3158798D01*
X2634849Y3159027D01*
X2634544Y3159484D01*
X2634239Y3160018D01*
X2633858Y3160703D01*
X2633477Y3161542D01*
X2633020Y3162532D01*
X2632487Y3163751D01*
X2631953Y3165123D01*
X2631344Y3166723D01*
X2630734Y3168552D01*
X2630048Y3170609D01*
X2629439Y3172819D01*
X2628753Y3175410D01*
X2628067Y3178153D01*
Y3178229D01*
X2627991Y3178306D01*
Y3178534D01*
X2627915Y3178839D01*
X2627686Y3179601D01*
X2627458Y3180668D01*
X2627077Y3181963D01*
X2626696Y3183487D01*
X2626238Y3185087D01*
X2625781Y3186840D01*
X2625172Y3188669D01*
X2624638Y3190574D01*
X2623343Y3194384D01*
X2622657Y3196213D01*
X2621895Y3197965D01*
X2621209Y3199642D01*
X2620447Y3201089D01*
X2620371Y3201166D01*
X2620295Y3201394D01*
X2620066Y3201775D01*
X2619761Y3202309D01*
X2619304Y3202918D01*
X2618847Y3203680D01*
X2618314Y3204442D01*
X2617628Y3205357D01*
X2616942Y3206271D01*
X2616104Y3207185D01*
X2615266Y3208176D01*
X2614275Y3209167D01*
X2612141Y3211072D01*
X2610922Y3211910D01*
X2609703Y3212748D01*
X2609627Y3212824D01*
X2609398Y3212900D01*
X2609017Y3213129D01*
X2608484Y3213434D01*
X2607798Y3213739D01*
X2607036Y3214120D01*
X2606122Y3214501D01*
X2605055Y3214882D01*
X2603912Y3215263D01*
X2602616Y3215644D01*
X2601245Y3216025D01*
X2599797Y3216329D01*
X2598197Y3216634D01*
X2596520Y3216863D01*
X2594768Y3216939D01*
X2592939Y3217015D01*
X2669520D01*
X2560402D01*
Y3414997D01*
X2690612D01*
Y2905243D01*
D01*
Y3414997D01*
X2849999D01*
Y2414997D01*
D02*
G37*
%LPC*%
G36*
X2635306Y3315618D02*
X2562307D01*
X2634392D01*
X2633706Y3315542D01*
X2632868D01*
X2631877Y3315466D01*
X2630810Y3315313D01*
X2629591Y3315161D01*
X2628372Y3315008D01*
X2627000Y3314780D01*
X2624257Y3314094D01*
X2621514Y3313256D01*
X2620219Y3312646D01*
X2618923Y3312037D01*
X2618847Y3311960D01*
X2618618Y3311884D01*
X2618314Y3311656D01*
X2617856Y3311427D01*
X2617323Y3311046D01*
X2616637Y3310665D01*
X2615189Y3309598D01*
X2613513Y3308303D01*
X2611760Y3306779D01*
X2610084Y3305026D01*
X2608560Y3303121D01*
X2608484Y3303045D01*
X2608408Y3302893D01*
X2608179Y3302588D01*
X2607950Y3302207D01*
X2607646Y3301673D01*
X2607265Y3301140D01*
X2606884Y3300454D01*
X2606503Y3299692D01*
X2605664Y3298016D01*
X2604826Y3296187D01*
X2604064Y3294206D01*
X2603531Y3292072D01*
Y3291996D01*
X2603455Y3291691D01*
X2603378Y3291310D01*
X2603302Y3290624D01*
X2603226Y3289862D01*
X2603074Y3288872D01*
X2602921Y3287805D01*
X2602845Y3286433D01*
X2602693Y3284986D01*
X2602540Y3283385D01*
X2602388Y3281557D01*
X2602312Y3279575D01*
X2602235Y3277442D01*
X2602159Y3275156D01*
X2602083Y3272641D01*
Y3256182D01*
X2562307D01*
Y3234922D01*
X2667767D01*
Y3272108D01*
X2667691Y3273708D01*
Y3275461D01*
X2667615Y3277366D01*
X2667539Y3279423D01*
X2667386Y3283690D01*
X2667234Y3285824D01*
X2667082Y3287881D01*
X2666929Y3289786D01*
X2666701Y3291539D01*
X2666472Y3293063D01*
X2666320Y3293672D01*
X2666167Y3294282D01*
Y3294358D01*
X2666015Y3294663D01*
X2665862Y3295196D01*
X2665710Y3295806D01*
X2665405Y3296568D01*
X2665024Y3297482D01*
X2664567Y3298473D01*
X2663957Y3299616D01*
X2663348Y3300759D01*
X2662586Y3301978D01*
X2661748Y3303197D01*
X2660833Y3304493D01*
X2659766Y3305788D01*
X2658547Y3307084D01*
X2657252Y3308303D01*
X2655804Y3309446D01*
X2655728Y3309522D01*
X2655423Y3309751D01*
X2654966Y3310055D01*
X2654356Y3310436D01*
X2653594Y3310894D01*
X2652604Y3311427D01*
X2651537Y3311960D01*
X2650241Y3312570D01*
X2648870Y3313103D01*
X2647346Y3313637D01*
X2645669Y3314170D01*
X2643841Y3314627D01*
X2641859Y3315085D01*
X2639802Y3315389D01*
X2637592Y3315542D01*
X2635306Y3315618D01*
D02*
G37*
G36*
X2537938Y3221282D02*
D01*
Y3186002D01*
X2537862Y3186764D01*
X2537785Y3187754D01*
X2537633Y3189050D01*
X2537404Y3190498D01*
X2537176Y3192098D01*
X2536719Y3193850D01*
X2536261Y3195755D01*
X2535652Y3197660D01*
X2534814Y3199642D01*
X2533899Y3201623D01*
X2532832Y3203604D01*
X2531537Y3205585D01*
X2530089Y3207414D01*
X2528413Y3209167D01*
X2528337Y3209243D01*
X2528032Y3209471D01*
X2527651Y3209852D01*
X2527041Y3210310D01*
X2526279Y3210919D01*
X2525441Y3211529D01*
X2524450Y3212215D01*
X2523307Y3212900D01*
X2522088Y3213586D01*
X2520717Y3214272D01*
X2519269Y3214882D01*
X2517745Y3215491D01*
X2516145Y3215948D01*
X2514468Y3216329D01*
X2512716Y3216558D01*
X2510887Y3216634D01*
X2510734D01*
X2510277D01*
X2509591Y3216558D01*
X2508601Y3216406D01*
X2507382Y3216177D01*
X2506086Y3215796D01*
X2504562Y3215339D01*
X2502886Y3214729D01*
X2501209Y3213891D01*
X2499381Y3212900D01*
X2497552Y3211681D01*
X2495647Y3210233D01*
X2493818Y3208481D01*
X2492904Y3207490D01*
X2492065Y3206423D01*
X2491151Y3205280D01*
X2490313Y3204061D01*
X2489475Y3202766D01*
X2488713Y3201394D01*
Y3201470D01*
X2488636Y3201775D01*
X2488484Y3202232D01*
X2488332Y3202918D01*
X2488103Y3203680D01*
X2487722Y3204518D01*
X2487341Y3205509D01*
X2486884Y3206576D01*
X2486350Y3207719D01*
X2485741Y3208938D01*
X2485055Y3210157D01*
X2484217Y3211300D01*
X2483379Y3212519D01*
X2482312Y3213662D01*
X2481245Y3214805D01*
X2480026Y3215872D01*
X2479950Y3215948D01*
X2479721Y3216101D01*
X2479340Y3216406D01*
X2478807Y3216710D01*
X2478197Y3217091D01*
X2477359Y3217549D01*
X2476444Y3218082D01*
X2475454Y3218615D01*
X2474311Y3219073D01*
X2473092Y3219606D01*
X2471720Y3220063D01*
X2470272Y3220444D01*
X2468748Y3220749D01*
X2467148Y3221054D01*
X2465472Y3221206D01*
X2463719Y3221282D01*
X2463109D01*
X2462347Y3221206D01*
X2461357Y3221130D01*
X2460214Y3220978D01*
X2458766Y3220749D01*
X2457242Y3220444D01*
X2455566Y3219987D01*
X2453737Y3219454D01*
X2451832Y3218768D01*
X2449851Y3217930D01*
X2447869Y3217015D01*
X2445812Y3215796D01*
X2443831Y3214424D01*
X2441926Y3212900D01*
X2440021Y3211072D01*
X2439945Y3210919D01*
X2439640Y3210614D01*
X2439106Y3210005D01*
X2438497Y3209243D01*
X2437735Y3208252D01*
X2436973Y3207109D01*
X2436058Y3205661D01*
X2435144Y3204137D01*
X2434230Y3202385D01*
X2433391Y3200480D01*
X2432553Y3198422D01*
X2431791Y3196136D01*
X2431182Y3193774D01*
X2430724Y3191260D01*
X2430343Y3188593D01*
X2430267Y3185849D01*
Y3185240D01*
X2430343Y3184478D01*
X2430420Y3183487D01*
X2430496Y3182268D01*
X2430724Y3180820D01*
X2430953Y3179296D01*
X2431334Y3177544D01*
X2431715Y3175715D01*
X2432248Y3173810D01*
X2432934Y3171829D01*
X2433772Y3169847D01*
X2434687Y3167866D01*
X2435754Y3165885D01*
X2437049Y3163980D01*
X2438497Y3162151D01*
X2438573Y3162075D01*
X2438878Y3161770D01*
X2439335Y3161237D01*
X2440021Y3160627D01*
X2440783Y3159941D01*
X2441773Y3159103D01*
X2442993Y3158189D01*
X2444288Y3157274D01*
X2445736Y3156284D01*
X2447336Y3155369D01*
X2449165Y3154455D01*
X2451070Y3153541D01*
X2453051Y3152779D01*
X2455261Y3152169D01*
X2457547Y3151636D01*
X2459985Y3151255D01*
X2462424Y3170838D01*
X2462347D01*
X2462119Y3170914D01*
X2461738D01*
X2461204Y3171067D01*
X2460519Y3171143D01*
X2459833Y3171371D01*
X2458995Y3171524D01*
X2458156Y3171829D01*
X2456328Y3172438D01*
X2454423Y3173353D01*
X2452518Y3174419D01*
X2451679Y3175105D01*
X2450917Y3175791D01*
X2450841Y3175867D01*
X2450765Y3176020D01*
X2450536Y3176248D01*
X2450308Y3176553D01*
X2450003Y3176934D01*
X2449698Y3177391D01*
X2449012Y3178610D01*
X2448250Y3180058D01*
X2447641Y3181735D01*
X2447184Y3183640D01*
X2447107Y3184630D01*
X2447031Y3185697D01*
Y3186307D01*
X2447107Y3186764D01*
X2447184Y3187297D01*
X2447260Y3187907D01*
X2447641Y3189355D01*
X2448174Y3191031D01*
X2448555Y3191869D01*
X2449012Y3192784D01*
X2449546Y3193698D01*
X2450232Y3194536D01*
X2450917Y3195374D01*
X2451756Y3196213D01*
X2451832Y3196289D01*
X2451984Y3196365D01*
X2452213Y3196594D01*
X2452594Y3196898D01*
X2453127Y3197203D01*
X2453661Y3197584D01*
X2454346Y3197965D01*
X2455108Y3198422D01*
X2456023Y3198803D01*
X2456937Y3199184D01*
X2458004Y3199565D01*
X2459147Y3199870D01*
X2460366Y3200175D01*
X2461662Y3200404D01*
X2463109Y3200480D01*
X2464557Y3200556D01*
X2464633D01*
X2464862D01*
X2465319D01*
X2465853Y3200480D01*
X2466462Y3200404D01*
X2467224Y3200327D01*
X2468062Y3200251D01*
X2468901Y3200023D01*
X2470882Y3199565D01*
X2472863Y3198803D01*
X2473854Y3198346D01*
X2474844Y3197813D01*
X2475835Y3197203D01*
X2476673Y3196441D01*
X2476749Y3196365D01*
X2476902Y3196289D01*
X2477054Y3196060D01*
X2477359Y3195679D01*
X2477740Y3195298D01*
X2478121Y3194841D01*
X2478959Y3193622D01*
X2479721Y3192174D01*
X2480483Y3190498D01*
X2480788Y3189583D01*
X2480940Y3188593D01*
X2481093Y3187526D01*
X2481169Y3186459D01*
Y3185773D01*
X2481093Y3185392D01*
Y3184935D01*
X2481016Y3183868D01*
X2480788Y3182497D01*
X2480559Y3180896D01*
X2480178Y3179144D01*
X2479645Y3177239D01*
X2496104Y3179449D01*
Y3180820D01*
X2496180Y3181506D01*
X2496256Y3182268D01*
X2496333Y3183182D01*
X2496485Y3184097D01*
X2496866Y3186154D01*
X2497476Y3188212D01*
X2497933Y3189278D01*
X2498390Y3190269D01*
X2498923Y3191183D01*
X2499609Y3192022D01*
X2499685Y3192098D01*
X2499762Y3192174D01*
X2499990Y3192403D01*
X2500295Y3192707D01*
X2500676Y3193012D01*
X2501133Y3193393D01*
X2501667Y3193774D01*
X2502276Y3194231D01*
X2503724Y3194993D01*
X2505477Y3195679D01*
X2506391Y3195984D01*
X2507458Y3196213D01*
X2508525Y3196289D01*
X2509668Y3196365D01*
X2509744D01*
X2509896D01*
X2510201D01*
X2510582Y3196289D01*
X2511039D01*
X2511496Y3196213D01*
X2512716Y3195984D01*
X2514087Y3195603D01*
X2515459Y3194993D01*
X2516830Y3194231D01*
X2518126Y3193165D01*
X2518278Y3193012D01*
X2518659Y3192555D01*
X2519116Y3191869D01*
X2519726Y3190879D01*
X2520336Y3189659D01*
X2520793Y3188212D01*
X2521174Y3186611D01*
X2521326Y3184706D01*
Y3184173D01*
X2521250Y3183868D01*
Y3183411D01*
X2521174Y3182878D01*
X2520869Y3181658D01*
X2520412Y3180287D01*
X2519802Y3178763D01*
X2518888Y3177239D01*
X2518278Y3176477D01*
X2517669Y3175791D01*
X2517592Y3175715D01*
X2517516Y3175639D01*
X2517288Y3175486D01*
X2516983Y3175181D01*
X2516602Y3174953D01*
X2516145Y3174572D01*
X2515611Y3174267D01*
X2515002Y3173886D01*
X2514316Y3173505D01*
X2513554Y3173124D01*
X2512716Y3172743D01*
X2511725Y3172362D01*
X2510734Y3172057D01*
X2509668Y3171752D01*
X2508448Y3171524D01*
X2507229Y3171371D01*
X2510353Y3152779D01*
X2510430D01*
X2510811Y3152855D01*
X2511268Y3153007D01*
X2511954Y3153160D01*
X2512792Y3153312D01*
X2513706Y3153617D01*
X2514773Y3153845D01*
X2515840Y3154226D01*
X2518278Y3155065D01*
X2520869Y3156055D01*
X2523384Y3157198D01*
X2524527Y3157884D01*
X2525670Y3158570D01*
X2525746Y3158646D01*
X2525898Y3158722D01*
X2526203Y3158951D01*
X2526584Y3159332D01*
X2527117Y3159713D01*
X2527651Y3160170D01*
X2528260Y3160780D01*
X2528946Y3161465D01*
X2529632Y3162151D01*
X2530394Y3162989D01*
X2531156Y3163904D01*
X2531842Y3164894D01*
X2532604Y3165961D01*
X2533366Y3167028D01*
X2534661Y3169543D01*
X2534737Y3169619D01*
X2534814Y3169847D01*
X2534966Y3170228D01*
X2535195Y3170762D01*
X2535423Y3171448D01*
X2535728Y3172210D01*
X2536033Y3173124D01*
X2536338Y3174115D01*
X2536642Y3175258D01*
X2536871Y3176477D01*
X2537176Y3177772D01*
X2537404Y3179144D01*
X2537785Y3182116D01*
X2537938Y3183716D01*
Y3151255D01*
X2430267D01*
X2537938D01*
Y3221282D01*
D02*
G37*
G36*
X2797978Y3209509D02*
Y3155103D01*
X2759954D01*
X2760106Y3155179D01*
X2760411Y3155560D01*
X2760945Y3156017D01*
X2761630Y3156779D01*
X2762469Y3157617D01*
X2763307Y3158684D01*
X2764297Y3159979D01*
X2765288Y3161351D01*
X2766279Y3162875D01*
X2767269Y3164551D01*
X2768184Y3166380D01*
X2768946Y3168361D01*
X2769631Y3170419D01*
X2770165Y3172552D01*
X2770470Y3174838D01*
X2770622Y3177201D01*
Y3177810D01*
X2770546Y3178572D01*
X2770470Y3179563D01*
X2770317Y3180706D01*
X2770089Y3182154D01*
X2769784Y3183678D01*
X2769327Y3185354D01*
X2768793Y3187183D01*
X2768184Y3189012D01*
X2767345Y3190917D01*
X2766355Y3192898D01*
X2765212Y3194803D01*
X2763840Y3196784D01*
X2762240Y3198613D01*
X2760487Y3200365D01*
X2760335Y3200442D01*
X2760030Y3200746D01*
X2759421Y3201204D01*
X2758582Y3201813D01*
X2757592Y3202499D01*
X2756296Y3203261D01*
X2754772Y3204099D01*
X2753096Y3204937D01*
X2751115Y3205776D01*
X2748981Y3206614D01*
X2746543Y3207376D01*
X2743952Y3208062D01*
X2741133Y3208671D01*
X2738161Y3209128D01*
X2734884Y3209433D01*
X2731455Y3209509D01*
X2797978D01*
X2731455D01*
D01*
X2730160D01*
X2729550Y3209433D01*
X2728941D01*
X2728255Y3209357D01*
X2726578Y3209205D01*
X2724673Y3209052D01*
X2722616Y3208747D01*
X2720330Y3208366D01*
X2717968Y3207833D01*
X2715453Y3207223D01*
X2712939Y3206461D01*
X2710500Y3205547D01*
X2707986Y3204480D01*
X2705623Y3203261D01*
X2703337Y3201813D01*
X2701280Y3200137D01*
X2701128Y3200061D01*
X2700823Y3199680D01*
X2700289Y3199222D01*
X2699604Y3198460D01*
X2698842Y3197546D01*
X2697927Y3196479D01*
X2697013Y3195260D01*
X2696022Y3193812D01*
X2695032Y3192288D01*
X2694117Y3190536D01*
X2693203Y3188631D01*
X2692441Y3186649D01*
X2691755Y3184516D01*
X2691222Y3182306D01*
X2690917Y3179944D01*
X2690764Y3177505D01*
Y3176896D01*
X2690841Y3176362D01*
Y3175829D01*
X2690917Y3175067D01*
X2691069Y3174305D01*
X2691145Y3173467D01*
X2691603Y3171486D01*
X2692136Y3169276D01*
X2692974Y3166914D01*
X2693431Y3165771D01*
X2694041Y3164551D01*
X2694117Y3164475D01*
X2694193Y3164247D01*
X2694422Y3163942D01*
X2694651Y3163485D01*
X2695032Y3162951D01*
X2695413Y3162342D01*
X2695946Y3161580D01*
X2696479Y3160818D01*
X2697851Y3159141D01*
X2699527Y3157312D01*
X2701432Y3155407D01*
X2703718Y3153655D01*
X2692517D01*
Y3134910D01*
X2690764D01*
D01*
X2797978D01*
Y3209509D01*
D02*
G37*
G36*
X2452289Y3135557D02*
X2432096D01*
Y3115364D01*
X2452289D01*
Y3135557D01*
D02*
G37*
G36*
X2537938Y3080846D02*
X2432096D01*
Y3060653D01*
X2508220D01*
X2508067Y3060500D01*
X2507763Y3060119D01*
X2507229Y3059510D01*
X2506543Y3058672D01*
X2505705Y3057605D01*
X2504715Y3056309D01*
X2503572Y3054862D01*
X2502429Y3053185D01*
X2501209Y3051356D01*
X2499914Y3049375D01*
X2498619Y3047242D01*
X2497399Y3044956D01*
X2496180Y3042517D01*
X2494961Y3039926D01*
X2493894Y3037259D01*
X2492904Y3034516D01*
X2432096D01*
X2537938D01*
Y3061605D01*
Y3034516D01*
X2511268D01*
Y3034592D01*
X2511420Y3034897D01*
X2511573Y3035278D01*
X2511801Y3035888D01*
X2512106Y3036650D01*
X2512411Y3037488D01*
X2512868Y3038479D01*
X2513401Y3039622D01*
X2514087Y3040841D01*
X2514773Y3042136D01*
X2515535Y3043584D01*
X2516449Y3045032D01*
X2517440Y3046632D01*
X2518507Y3048232D01*
X2519726Y3049909D01*
X2521021Y3051661D01*
X2521098Y3051737D01*
X2521326Y3052042D01*
X2521783Y3052576D01*
X2522317Y3053185D01*
X2523003Y3053947D01*
X2523841Y3054785D01*
X2524755Y3055700D01*
X2525822Y3056767D01*
X2527041Y3057757D01*
X2528337Y3058824D01*
X2529708Y3059891D01*
X2531232Y3060958D01*
X2532756Y3061948D01*
X2534433Y3062863D01*
X2536185Y3063701D01*
X2537938Y3064387D01*
Y3061910D01*
D01*
Y3080846D01*
D02*
G37*
G36*
X2692517Y3120279D02*
D01*
Y3100315D01*
X2692593D01*
X2692898Y3100162D01*
X2693355Y3100010D01*
X2694041Y3099781D01*
X2694879Y3099477D01*
X2695870Y3099096D01*
X2697089Y3098715D01*
X2698461Y3098334D01*
X2698537D01*
X2698765Y3098257D01*
X2699070Y3098181D01*
X2699451Y3098029D01*
X2700213Y3097800D01*
X2700518Y3097724D01*
X2700823Y3097648D01*
X2700747Y3097572D01*
X2700594Y3097419D01*
X2700366Y3097114D01*
X2699985Y3096733D01*
X2699604Y3096276D01*
X2699070Y3095667D01*
X2698537Y3095057D01*
X2698003Y3094295D01*
X2696784Y3092695D01*
X2695489Y3090790D01*
X2694346Y3088732D01*
X2693279Y3086523D01*
Y3086446D01*
X2693203Y3086294D01*
X2693050Y3085913D01*
X2692898Y3085532D01*
X2692669Y3084922D01*
X2692517Y3084313D01*
X2692288Y3083551D01*
X2692060Y3082789D01*
X2691755Y3081874D01*
X2691526Y3080884D01*
X2691145Y3078750D01*
X2690841Y3076388D01*
X2690764Y3073950D01*
Y3048575D01*
X2770622D01*
D01*
X2713929D01*
X2714386Y3048651D01*
X2714996D01*
X2715606Y3048727D01*
X2716368Y3048804D01*
X2717206Y3048956D01*
X2718958Y3049337D01*
X2720940Y3049870D01*
X2722921Y3050632D01*
X2724826Y3051623D01*
X2724902Y3051699D01*
X2725054Y3051775D01*
X2725283Y3051928D01*
X2725664Y3052233D01*
X2726578Y3052918D01*
X2727721Y3053909D01*
X2728941Y3055128D01*
X2730236Y3056576D01*
X2731531Y3058329D01*
X2732598Y3060310D01*
Y3060386D01*
X2732751Y3060538D01*
X2732903Y3060919D01*
X2733055Y3061377D01*
X2733284Y3061910D01*
X2733589Y3062596D01*
X2733894Y3063434D01*
X2734198Y3064425D01*
X2734579Y3065491D01*
X2734960Y3066711D01*
X2735341Y3068006D01*
X2735722Y3069454D01*
X2736180Y3070978D01*
X2736561Y3072654D01*
X2736942Y3074483D01*
X2737323Y3076388D01*
Y3076540D01*
X2737475Y3076998D01*
X2737551Y3077760D01*
X2737780Y3078674D01*
X2738008Y3079817D01*
X2738313Y3081189D01*
X2738618Y3082636D01*
X2738923Y3084160D01*
X2739761Y3087437D01*
X2740599Y3090637D01*
X2740980Y3092161D01*
X2741437Y3093609D01*
X2741895Y3094905D01*
X2742352Y3096048D01*
X2744333D01*
X2744409D01*
X2744562D01*
X2744866D01*
X2745247Y3095971D01*
X2745781D01*
X2746314Y3095895D01*
X2747533Y3095667D01*
X2748905Y3095362D01*
X2750277Y3094828D01*
X2751572Y3094143D01*
X2752105Y3093685D01*
X2752639Y3093152D01*
X2752715Y3093000D01*
X2752867Y3092847D01*
X2753020Y3092542D01*
X2753248Y3092238D01*
X2753401Y3091780D01*
X2753629Y3091323D01*
X2753934Y3090714D01*
X2754163Y3090028D01*
X2754391Y3089190D01*
X2754544Y3088351D01*
X2754772Y3087361D01*
X2754925Y3086218D01*
X2755077Y3084999D01*
X2755153Y3083703D01*
Y3081341D01*
X2755077Y3080884D01*
Y3080350D01*
X2754925Y3079207D01*
X2754620Y3077836D01*
X2754239Y3076388D01*
X2753706Y3075016D01*
X2753020Y3073797D01*
X2752944Y3073645D01*
X2752639Y3073340D01*
X2752029Y3072730D01*
X2751267Y3072121D01*
X2750277Y3071359D01*
X2748981Y3070521D01*
X2747381Y3069759D01*
X2745552Y3068997D01*
X2748829Y3050632D01*
X2748981Y3050709D01*
X2749286Y3050785D01*
X2749896Y3050937D01*
X2750658Y3051242D01*
X2751572Y3051547D01*
X2752639Y3052004D01*
X2753782Y3052537D01*
X2755001Y3053071D01*
X2756373Y3053757D01*
X2757668Y3054595D01*
X2759040Y3055433D01*
X2760411Y3056424D01*
X2761707Y3057414D01*
X2763002Y3058633D01*
X2764145Y3059853D01*
X2765212Y3061224D01*
X2765288Y3061300D01*
X2765440Y3061605D01*
X2765745Y3062062D01*
X2766050Y3062672D01*
X2766431Y3063434D01*
X2766888Y3064425D01*
X2767422Y3065568D01*
X2767955Y3066939D01*
X2768412Y3068387D01*
X2768946Y3070063D01*
X2769403Y3071968D01*
X2769784Y3073950D01*
X2770089Y3076159D01*
X2770393Y3078522D01*
X2770546Y3081036D01*
X2770622Y3083779D01*
Y3085075D01*
X2770546Y3085989D01*
Y3087132D01*
X2770470Y3088428D01*
X2770393Y3089875D01*
X2770241Y3091399D01*
X2770089Y3093000D01*
X2769860Y3094676D01*
X2769250Y3098029D01*
X2768946Y3099629D01*
X2768488Y3101229D01*
X2767955Y3102677D01*
X2767422Y3103972D01*
Y3104049D01*
X2767269Y3104277D01*
X2767117Y3104582D01*
X2766812Y3105039D01*
X2766507Y3105573D01*
X2766126Y3106182D01*
X2765212Y3107630D01*
X2763993Y3109154D01*
X2762621Y3110678D01*
X2761021Y3112126D01*
X2760183Y3112735D01*
X2759268Y3113269D01*
X2759192D01*
X2759040Y3113421D01*
X2758735Y3113497D01*
X2758278Y3113726D01*
X2757744Y3113878D01*
X2756982Y3114107D01*
X2756144Y3114412D01*
X2755153Y3114640D01*
X2754010Y3114869D01*
X2752639Y3115174D01*
X2751191Y3115402D01*
X2749515Y3115555D01*
X2747686Y3115783D01*
X2745705Y3115860D01*
X2743495Y3116012D01*
X2741133D01*
X2717587Y3115707D01*
X2717511D01*
X2717130D01*
X2716596D01*
X2715910D01*
X2715072D01*
X2714158Y3115783D01*
X2713091D01*
X2711948Y3115860D01*
X2709510Y3115936D01*
X2707071Y3116088D01*
X2705852Y3116164D01*
X2704709Y3116317D01*
X2703718Y3116469D01*
X2702728Y3116622D01*
X2702652D01*
X2702499Y3116698D01*
X2702271D01*
X2701890Y3116850D01*
X2701432Y3116926D01*
X2700899Y3117079D01*
X2699680Y3117460D01*
X2698156Y3117917D01*
X2696403Y3118603D01*
X2694498Y3119365D01*
X2692517Y3120279D01*
D02*
G37*
G36*
X2667767Y3115441D02*
X2562307D01*
Y3095705D01*
X2645288Y3095629D01*
X2562307Y3074750D01*
Y3054252D01*
X2645288Y3033449D01*
X2562307D01*
Y3013714D01*
X2667767D01*
Y3045565D01*
X2595758Y3064615D01*
X2667767Y3083437D01*
Y3115441D01*
D02*
G37*
G36*
X2797063Y3038821D02*
Y2985862D01*
X2710348D01*
Y3038821D01*
X2692517D01*
Y2964603D01*
X2797063D01*
Y3038821D01*
D02*
G37*
G36*
X2610617Y3002207D02*
X2590424D01*
Y2962507D01*
X2610617D01*
Y3002207D01*
D02*
G37*
G36*
X2508525Y3021105D02*
D01*
X2432096Y2990777D01*
Y2972566D01*
X2508525Y2941781D01*
X2432096D01*
D01*
X2508525D01*
Y3021105D01*
D02*
G37*
G36*
X2638735Y2946810D02*
X2562307D01*
Y2875944D01*
X2668148D01*
Y2915644D01*
Y2913968D01*
X2668072Y2914806D01*
X2667996Y2915873D01*
X2667920Y2917168D01*
X2667691Y2918692D01*
X2667463Y2920369D01*
X2667082Y2922197D01*
X2666624Y2924102D01*
X2666091Y2926160D01*
X2665405Y2928217D01*
X2664567Y2930198D01*
X2663576Y2932256D01*
X2662510Y2934237D01*
X2661214Y2936066D01*
X2659690Y2937818D01*
X2659614Y2937895D01*
X2659309Y2938199D01*
X2658852Y2938657D01*
X2658166Y2939190D01*
X2657328Y2939876D01*
X2656414Y2940638D01*
X2655194Y2941476D01*
X2653899Y2942314D01*
X2652451Y2943152D01*
X2650927Y2943991D01*
X2649175Y2944753D01*
X2647346Y2945438D01*
X2645365Y2945972D01*
X2643231Y2946429D01*
X2641021Y2946734D01*
X2638735Y2946810D01*
D02*
G37*
G36*
X2723149Y2905243D02*
X2699756D01*
X2722235D01*
X2721625Y2905167D01*
X2720787Y2905090D01*
X2719873Y2904938D01*
X2718806Y2904786D01*
X2717663Y2904633D01*
X2716368Y2904328D01*
X2714996Y2904024D01*
X2713624Y2903566D01*
X2712177Y2903109D01*
X2710653Y2902500D01*
X2709129Y2901814D01*
X2707681Y2901052D01*
X2706157Y2900137D01*
X2706081Y2900061D01*
X2705852Y2899909D01*
X2705395Y2899604D01*
X2704861Y2899223D01*
X2704252Y2898690D01*
X2703490Y2898080D01*
X2702652Y2897318D01*
X2701737Y2896480D01*
X2700823Y2895489D01*
X2699832Y2894422D01*
X2698842Y2893279D01*
X2697927Y2891984D01*
X2696937Y2890612D01*
X2696022Y2889165D01*
X2695184Y2887564D01*
X2694422Y2885888D01*
X2694346Y2885812D01*
X2694270Y2885507D01*
X2694041Y2884974D01*
X2693812Y2884212D01*
X2693508Y2883373D01*
X2693203Y2882307D01*
X2692898Y2881011D01*
X2692517Y2879640D01*
X2692136Y2878039D01*
X2691831Y2876287D01*
X2691526Y2874382D01*
X2691222Y2872401D01*
X2690993Y2870267D01*
X2690764Y2867981D01*
X2690688Y2865543D01*
X2690612Y2863037D01*
Y2861655D01*
X2690688Y2861123D01*
Y2860437D01*
X2690764Y2859751D01*
X2690917Y2858075D01*
X2691069Y2856094D01*
X2691374Y2853960D01*
X2691755Y2851674D01*
X2692288Y2849236D01*
X2692898Y2846721D01*
X2693584Y2844130D01*
X2694498Y2841616D01*
X2695565Y2839101D01*
X2696784Y2836663D01*
X2698232Y2834377D01*
X2699832Y2832243D01*
X2699908Y2832091D01*
X2700289Y2831786D01*
X2700823Y2831253D01*
X2701585Y2830567D01*
X2702499Y2829729D01*
X2703718Y2828738D01*
X2705090Y2827747D01*
X2706690Y2826681D01*
X2708443Y2825538D01*
X2710500Y2824471D01*
X2712710Y2823404D01*
X2715072Y2822413D01*
X2717739Y2821423D01*
X2720559Y2820661D01*
X2723607Y2819975D01*
X2726807Y2819518D01*
X2728788Y2840244D01*
X2728636D01*
X2728331Y2840320D01*
X2727798Y2840473D01*
X2727112Y2840625D01*
X2726197Y2840854D01*
X2725207Y2841159D01*
X2724140Y2841463D01*
X2722997Y2841844D01*
X2720482Y2842911D01*
X2719187Y2843521D01*
X2717892Y2844207D01*
X2716672Y2844969D01*
X2715529Y2845807D01*
X2714463Y2846797D01*
X2713472Y2847788D01*
X2713396Y2847864D01*
X2713243Y2848093D01*
X2713015Y2848398D01*
X2712710Y2848855D01*
X2712329Y2849388D01*
X2711948Y2850150D01*
X2711491Y2850912D01*
X2711034Y2851903D01*
X2710576Y2852893D01*
X2710119Y2854113D01*
X2709738Y2855332D01*
X2709357Y2856703D01*
X2709052Y2858227D01*
X2708824Y2859828D01*
X2708671Y2861504D01*
X2708595Y2863257D01*
Y2864247D01*
X2708671Y2864933D01*
X2708748Y2865771D01*
X2708824Y2866762D01*
X2708976Y2867905D01*
X2709129Y2869048D01*
X2709662Y2871562D01*
X2710043Y2872858D01*
X2710424Y2874153D01*
X2710957Y2875372D01*
X2711491Y2876592D01*
X2712177Y2877735D01*
X2712939Y2878725D01*
X2713015Y2878801D01*
X2713167Y2878954D01*
X2713396Y2879182D01*
X2713701Y2879563D01*
X2714158Y2879944D01*
X2714615Y2880402D01*
X2715225Y2880859D01*
X2715834Y2881392D01*
X2717358Y2882307D01*
X2719035Y2883145D01*
X2720025Y2883526D01*
X2720940Y2883754D01*
X2722006Y2883907D01*
X2723073Y2883983D01*
X2723149D01*
X2723226D01*
X2723683D01*
X2724369Y2883907D01*
X2725283Y2883678D01*
X2726274Y2883450D01*
X2727340Y2883069D01*
X2728407Y2882535D01*
X2729398Y2881773D01*
X2729550Y2881697D01*
X2729855Y2881316D01*
X2730312Y2880783D01*
X2730998Y2880021D01*
X2731684Y2878954D01*
X2732522Y2877582D01*
X2733284Y2875982D01*
X2733665Y2875068D01*
X2734046Y2874077D01*
Y2874001D01*
X2734122Y2873925D01*
X2734198Y2873620D01*
X2734275Y2873315D01*
X2734427Y2872782D01*
X2734656Y2872172D01*
X2734884Y2871410D01*
X2735113Y2870572D01*
X2735418Y2869505D01*
X2735722Y2868286D01*
X2736103Y2866914D01*
X2736561Y2865314D01*
X2737018Y2863561D01*
X2737475Y2861580D01*
X2738008Y2859370D01*
X2738618Y2857008D01*
Y2856932D01*
X2738694Y2856780D01*
Y2856551D01*
X2738847Y2856246D01*
X2738923Y2855865D01*
X2739075Y2855408D01*
X2739380Y2854265D01*
X2739761Y2852817D01*
X2740294Y2851217D01*
X2740904Y2849464D01*
X2741514Y2847636D01*
X2742276Y2845654D01*
X2743038Y2843673D01*
X2743876Y2841616D01*
X2744790Y2839711D01*
X2745781Y2837806D01*
X2746848Y2836053D01*
X2747914Y2834453D01*
X2749057Y2833005D01*
X2749134Y2832929D01*
X2749438Y2832624D01*
X2749972Y2832091D01*
X2750581Y2831481D01*
X2751420Y2830795D01*
X2752486Y2829957D01*
X2753629Y2829043D01*
X2755001Y2828205D01*
X2756449Y2827290D01*
X2758049Y2826376D01*
X2759802Y2825538D01*
X2761630Y2824852D01*
X2763612Y2824242D01*
X2765745Y2823709D01*
X2767955Y2823404D01*
X2770241Y2823328D01*
X2770317D01*
X2770622D01*
X2771003D01*
X2771613Y2823404D01*
X2772298Y2823480D01*
X2773137Y2823556D01*
X2774127Y2823709D01*
X2775194Y2823861D01*
X2776261Y2824166D01*
X2777480Y2824395D01*
X2778699Y2824776D01*
X2779995Y2825233D01*
X2781366Y2825766D01*
X2782662Y2826376D01*
X2784033Y2827062D01*
X2785329Y2827824D01*
X2785405Y2827900D01*
X2785633Y2828052D01*
X2786014Y2828281D01*
X2786472Y2828662D01*
X2787081Y2829119D01*
X2787767Y2829729D01*
X2788453Y2830414D01*
X2789291Y2831176D01*
X2790129Y2832091D01*
X2791044Y2833081D01*
X2791882Y2834148D01*
X2792796Y2835291D01*
X2793634Y2836587D01*
X2794473Y2837958D01*
X2795311Y2839406D01*
X2795997Y2841006D01*
X2796073Y2841082D01*
X2796149Y2841387D01*
X2796378Y2841921D01*
X2796606Y2842530D01*
X2796835Y2843368D01*
X2797216Y2844359D01*
X2797521Y2845502D01*
X2797902Y2846797D01*
X2798206Y2848245D01*
X2798587Y2849845D01*
X2798892Y2851522D01*
X2799121Y2853351D01*
X2799426Y2855332D01*
X2799578Y2857389D01*
X2799654Y2859523D01*
X2799730Y2861733D01*
Y2863104D01*
X2799654Y2863638D01*
Y2864247D01*
X2799578Y2865009D01*
X2799502Y2866686D01*
X2799273Y2868591D01*
X2798968Y2870648D01*
X2798664Y2872934D01*
X2798206Y2875296D01*
X2797597Y2877735D01*
X2796911Y2880249D01*
X2796073Y2882764D01*
X2795006Y2885126D01*
X2793863Y2887488D01*
X2792491Y2889622D01*
X2790967Y2891603D01*
X2790891Y2891755D01*
X2790586Y2892060D01*
X2790053Y2892517D01*
X2789367Y2893203D01*
X2788529Y2893965D01*
X2787462Y2894803D01*
X2786243Y2895718D01*
X2784795Y2896708D01*
X2783271Y2897699D01*
X2781519Y2898613D01*
X2779614Y2899528D01*
X2777556Y2900290D01*
X2775346Y2901052D01*
X2772984Y2901585D01*
X2770470Y2901966D01*
X2767803Y2902195D01*
X2766888Y2880935D01*
X2766964D01*
X2767269Y2880859D01*
X2767650Y2880783D01*
X2768184Y2880630D01*
X2768869Y2880478D01*
X2769631Y2880249D01*
X2770470Y2880021D01*
X2771384Y2879716D01*
X2773289Y2878878D01*
X2775194Y2877887D01*
X2777023Y2876592D01*
X2777861Y2875906D01*
X2778547Y2875068D01*
X2778623Y2874991D01*
X2778699Y2874839D01*
X2778852Y2874610D01*
X2779080Y2874229D01*
X2779385Y2873772D01*
X2779690Y2873163D01*
X2779995Y2872477D01*
X2780376Y2871715D01*
X2780680Y2870800D01*
X2780985Y2869810D01*
X2781290Y2868667D01*
X2781595Y2867448D01*
X2781823Y2866152D01*
X2781976Y2864781D01*
X2782128Y2863180D01*
Y2860666D01*
X2782052Y2860056D01*
X2781976Y2859294D01*
X2781900Y2858380D01*
X2781823Y2857389D01*
X2781671Y2856246D01*
X2781214Y2853960D01*
X2780528Y2851522D01*
X2780071Y2850303D01*
X2779537Y2849160D01*
X2778928Y2848093D01*
X2778242Y2847026D01*
X2778166Y2846874D01*
X2777785Y2846493D01*
X2777251Y2845959D01*
X2776489Y2845350D01*
X2775575Y2844740D01*
X2774508Y2844207D01*
X2773213Y2843826D01*
X2772527Y2843749D01*
X2771765Y2843673D01*
X2771689D01*
X2771613D01*
X2771155Y2843749D01*
X2770470Y2843826D01*
X2769555Y2844054D01*
X2768565Y2844435D01*
X2767498Y2844969D01*
X2766431Y2845731D01*
X2765364Y2846797D01*
Y2846874D01*
X2765212Y2847026D01*
X2765059Y2847255D01*
X2764755Y2847712D01*
X2764450Y2848245D01*
X2764069Y2848931D01*
X2763688Y2849769D01*
X2763231Y2850760D01*
X2762697Y2851979D01*
X2762164Y2853351D01*
X2761554Y2854951D01*
X2760945Y2856780D01*
X2760259Y2858837D01*
X2759649Y2861047D01*
X2758963Y2863638D01*
X2758278Y2866381D01*
Y2866457D01*
X2758201Y2866533D01*
Y2866762D01*
X2758125Y2867067D01*
X2757897Y2867829D01*
X2757668Y2868895D01*
X2757287Y2870191D01*
X2756906Y2871715D01*
X2756449Y2873315D01*
X2755992Y2875068D01*
X2755382Y2876896D01*
X2754849Y2878801D01*
X2753553Y2882611D01*
X2752867Y2884440D01*
X2752105Y2886193D01*
X2751420Y2887869D01*
X2750658Y2889317D01*
X2750581Y2889393D01*
X2750505Y2889622D01*
X2750277Y2890003D01*
X2749972Y2890536D01*
X2749515Y2891146D01*
X2749057Y2891908D01*
X2748524Y2892670D01*
X2747838Y2893584D01*
X2747152Y2894499D01*
X2746314Y2895413D01*
X2745476Y2896404D01*
X2744485Y2897394D01*
X2742352Y2899299D01*
X2741133Y2900137D01*
X2739913Y2900976D01*
X2739837Y2901052D01*
X2739609Y2901128D01*
X2739228Y2901357D01*
X2738694Y2901661D01*
X2738008Y2901966D01*
X2737246Y2902347D01*
X2736332Y2902728D01*
X2735265Y2903109D01*
X2734122Y2903490D01*
X2732827Y2903871D01*
X2731455Y2904252D01*
X2730007Y2904557D01*
X2728407Y2904862D01*
X2726731Y2905090D01*
X2724978Y2905167D01*
X2723149Y2905243D01*
D02*
G37*
G36*
X2666396Y2867791D02*
Y2863142D01*
X2647498D01*
Y2825042D01*
X2629515Y2821766D01*
X2629591Y2821842D01*
X2629667Y2822071D01*
X2629820Y2822452D01*
X2630048Y2822909D01*
X2630277Y2823595D01*
X2630582Y2824280D01*
X2630887Y2825119D01*
X2631268Y2826033D01*
X2631572Y2827024D01*
X2631877Y2828167D01*
X2632411Y2830453D01*
X2632792Y2833043D01*
X2632944Y2834339D01*
Y2836244D01*
X2632868Y2836930D01*
X2632792Y2837844D01*
X2632639Y2839063D01*
X2632411Y2840359D01*
X2632106Y2841883D01*
X2631725Y2843483D01*
X2631191Y2845235D01*
X2630582Y2847064D01*
X2629744Y2848969D01*
X2628829Y2850874D01*
X2627686Y2852855D01*
X2626391Y2854760D01*
X2624867Y2856589D01*
X2623114Y2858418D01*
X2623038Y2858494D01*
X2622657Y2858799D01*
X2622124Y2859256D01*
X2621362Y2859866D01*
X2620371Y2860628D01*
X2619152Y2861390D01*
X2617780Y2862228D01*
X2616256Y2863142D01*
X2614504Y2863981D01*
X2612599Y2864819D01*
X2610465Y2865657D01*
X2608255Y2866343D01*
X2605817Y2866952D01*
X2603226Y2867410D01*
X2600559Y2867714D01*
X2597663Y2867791D01*
X2666396D01*
X2560478D01*
D01*
X2597054D01*
X2596368Y2867714D01*
X2595454Y2867638D01*
X2594311Y2867562D01*
X2593015Y2867410D01*
X2591491Y2867181D01*
X2589891Y2866876D01*
X2588138Y2866419D01*
X2586233Y2865962D01*
X2584328Y2865352D01*
X2582347Y2864590D01*
X2580366Y2863676D01*
X2578385Y2862685D01*
X2576404Y2861542D01*
X2574422Y2860171D01*
X2574270Y2860018D01*
X2573813Y2859713D01*
X2573127Y2859104D01*
X2572213Y2858266D01*
X2571222Y2857275D01*
X2570003Y2855980D01*
X2568784Y2854456D01*
X2567488Y2852779D01*
X2566117Y2850874D01*
X2564897Y2848741D01*
X2563678Y2846378D01*
X2562688Y2843864D01*
X2561773Y2841121D01*
X2561087Y2838149D01*
X2560630Y2835025D01*
X2560554Y2833348D01*
X2560478Y2831672D01*
Y2831062D01*
X2560554Y2830300D01*
X2560630Y2829233D01*
X2560706Y2828014D01*
X2560859Y2826566D01*
X2561164Y2824966D01*
X2561468Y2823214D01*
X2561849Y2821385D01*
X2562383Y2819480D01*
X2562992Y2817499D01*
X2563754Y2815517D01*
X2564669Y2813536D01*
X2565659Y2811555D01*
X2566879Y2809650D01*
X2568250Y2807897D01*
X2568326Y2807821D01*
X2568631Y2807516D01*
X2569088Y2807059D01*
X2569698Y2806450D01*
X2570460Y2805688D01*
X2571451Y2804926D01*
X2572517Y2804011D01*
X2573813Y2803097D01*
X2575261Y2802106D01*
X2576861Y2801192D01*
X2578537Y2800277D01*
X2580442Y2799363D01*
X2582423Y2798601D01*
X2584633Y2797915D01*
X2586843Y2797306D01*
X2589281Y2796925D01*
X2591415Y2817041D01*
X2591339D01*
X2591110Y2817118D01*
X2590729D01*
X2590272Y2817270D01*
X2589739Y2817346D01*
X2589053Y2817499D01*
X2587529Y2817956D01*
X2585776Y2818642D01*
X2583947Y2819556D01*
X2582195Y2820623D01*
X2581357Y2821309D01*
X2580595Y2822071D01*
X2580518Y2822147D01*
X2580442Y2822299D01*
X2580214Y2822528D01*
X2579985Y2822833D01*
X2579680Y2823214D01*
X2579375Y2823747D01*
X2578613Y2824890D01*
X2577851Y2826338D01*
X2577242Y2828014D01*
X2576785Y2829919D01*
X2576708Y2830910D01*
X2576632Y2831900D01*
Y2832510D01*
X2576708Y2832967D01*
X2576785Y2833501D01*
X2576937Y2834110D01*
X2577242Y2835634D01*
X2577851Y2837311D01*
X2578309Y2838149D01*
X2578766Y2839063D01*
X2579375Y2839978D01*
X2580061Y2840892D01*
X2580823Y2841730D01*
X2581738Y2842568D01*
X2581814Y2842645D01*
X2581966Y2842797D01*
X2582271Y2842949D01*
X2582728Y2843254D01*
X2583262Y2843559D01*
X2583947Y2843940D01*
X2584709Y2844397D01*
X2585624Y2844778D01*
X2586691Y2845159D01*
X2587834Y2845616D01*
X2589129Y2845997D01*
X2590501Y2846302D01*
X2592025Y2846607D01*
X2593701Y2846836D01*
X2595454Y2846912D01*
X2597359Y2846988D01*
X2597435D01*
X2597816D01*
X2598273D01*
X2598959Y2846912D01*
X2599797Y2846836D01*
X2600711Y2846759D01*
X2601702Y2846607D01*
X2602845Y2846455D01*
X2605207Y2845921D01*
X2606426Y2845540D01*
X2607646Y2845159D01*
X2608865Y2844626D01*
X2609932Y2844016D01*
X2610998Y2843330D01*
X2611989Y2842568D01*
X2612065Y2842492D01*
X2612218Y2842340D01*
X2612446Y2842111D01*
X2612751Y2841806D01*
X2613132Y2841349D01*
X2613513Y2840816D01*
X2613970Y2840206D01*
X2614427Y2839520D01*
X2614885Y2838758D01*
X2615342Y2837920D01*
X2616104Y2836015D01*
X2616409Y2834872D01*
X2616637Y2833805D01*
X2616790Y2832586D01*
X2616866Y2831291D01*
Y2830910D01*
X2616790Y2830453D01*
X2616713Y2829843D01*
X2616637Y2829081D01*
X2616485Y2828167D01*
X2616256Y2827176D01*
X2615875Y2826109D01*
X2615494Y2824890D01*
X2614961Y2823671D01*
X2614351Y2822375D01*
X2613589Y2821004D01*
X2612751Y2819708D01*
X2611684Y2818337D01*
X2610541Y2816965D01*
X2609170Y2815670D01*
X2611532Y2799363D01*
X2666396Y2809726D01*
Y2796925D01*
D01*
Y2867791D01*
D02*
G37*
G36*
X2537557Y2897128D02*
X2519726D01*
Y2865886D01*
X2432096D01*
Y2844626D01*
X2519726D01*
Y2813308D01*
X2432096D01*
D01*
X2537557D01*
Y2897128D01*
D02*
G37*
G36*
X2539309Y2801116D02*
D01*
Y2756158D01*
X2539233Y2756767D01*
Y2757377D01*
X2539157Y2758063D01*
X2539081Y2759739D01*
X2538852Y2761644D01*
X2538624Y2763778D01*
X2538243Y2766064D01*
X2537862Y2768426D01*
X2537252Y2770940D01*
X2536642Y2773531D01*
X2535804Y2776046D01*
X2534890Y2778560D01*
X2533747Y2780999D01*
X2532451Y2783361D01*
X2531004Y2785495D01*
X2530927Y2785647D01*
X2530623Y2785952D01*
X2530165Y2786561D01*
X2529480Y2787247D01*
X2528641Y2788162D01*
X2527651Y2789152D01*
X2526432Y2790295D01*
X2525060Y2791438D01*
X2523536Y2792657D01*
X2521860Y2793800D01*
X2519955Y2795020D01*
X2517973Y2796163D01*
X2515764Y2797229D01*
X2513401Y2798220D01*
X2510963Y2799058D01*
X2508296Y2799744D01*
X2504334Y2778637D01*
X2504410D01*
X2504638Y2778560D01*
X2505096Y2778408D01*
X2505629Y2778179D01*
X2506239Y2777951D01*
X2507001Y2777570D01*
X2507839Y2777189D01*
X2508753Y2776732D01*
X2509668Y2776198D01*
X2510658Y2775589D01*
X2511725Y2774903D01*
X2512716Y2774141D01*
X2513706Y2773226D01*
X2514697Y2772312D01*
X2515687Y2771321D01*
X2516526Y2770178D01*
X2516602Y2770102D01*
X2516754Y2769874D01*
X2516983Y2769569D01*
X2517211Y2769112D01*
X2517592Y2768502D01*
X2517973Y2767740D01*
X2518354Y2766902D01*
X2518812Y2765987D01*
X2519269Y2764921D01*
X2519650Y2763778D01*
X2520031Y2762482D01*
X2520412Y2761111D01*
X2520640Y2759739D01*
X2520869Y2758139D01*
X2521021Y2756539D01*
X2521098Y2754862D01*
Y2754253D01*
X2521021Y2753491D01*
X2520945Y2752576D01*
X2520793Y2751357D01*
X2520640Y2749985D01*
X2520336Y2748538D01*
X2519955Y2746861D01*
X2519497Y2745109D01*
X2518888Y2743356D01*
X2518202Y2741451D01*
X2517364Y2739622D01*
X2516297Y2737793D01*
X2515154Y2736041D01*
X2513782Y2734288D01*
X2512182Y2732688D01*
X2512106Y2732612D01*
X2511801Y2732307D01*
X2511268Y2731926D01*
X2510506Y2731393D01*
X2509591Y2730783D01*
X2508448Y2730097D01*
X2507153Y2729335D01*
X2505629Y2728573D01*
X2503876Y2727811D01*
X2501895Y2727049D01*
X2499762Y2726363D01*
X2497399Y2725754D01*
X2494809Y2725220D01*
X2492065Y2724839D01*
X2489094Y2724535D01*
X2485969Y2724458D01*
X2485893D01*
X2485741D01*
X2485512D01*
X2485131D01*
X2484674D01*
X2484217Y2724535D01*
X2483607D01*
X2482921Y2724611D01*
X2481321Y2724687D01*
X2479569Y2724916D01*
X2477587Y2725144D01*
X2475454Y2725525D01*
X2473168Y2725906D01*
X2470882Y2726516D01*
X2468520Y2727125D01*
X2466234Y2727964D01*
X2463948Y2728878D01*
X2461738Y2730021D01*
X2459680Y2731316D01*
X2457852Y2732764D01*
X2457775Y2732840D01*
X2457471Y2733145D01*
X2457013Y2733602D01*
X2456404Y2734288D01*
X2455718Y2735126D01*
X2454880Y2736117D01*
X2454042Y2737336D01*
X2453203Y2738632D01*
X2452289Y2740156D01*
X2451451Y2741756D01*
X2450689Y2743585D01*
X2449927Y2745566D01*
X2449317Y2747623D01*
X2448860Y2749833D01*
X2448555Y2752195D01*
X2448479Y2754634D01*
Y2755319D01*
X2448555Y2755777D01*
Y2756386D01*
X2448631Y2757148D01*
X2448708Y2757910D01*
X2448784Y2758825D01*
X2448936Y2759815D01*
X2449089Y2760882D01*
X2449546Y2763092D01*
X2450232Y2765530D01*
X2451070Y2768045D01*
Y2768121D01*
X2451222Y2768350D01*
X2451298Y2768731D01*
X2451527Y2769188D01*
X2451756Y2769721D01*
X2452060Y2770407D01*
X2452441Y2771169D01*
X2452822Y2772007D01*
X2453737Y2773836D01*
X2454804Y2775741D01*
X2456023Y2777722D01*
X2457394Y2779627D01*
X2470806D01*
Y2755243D01*
X2488636D01*
Y2801116D01*
X2446574D01*
X2446498Y2801039D01*
X2446269Y2800811D01*
X2445964Y2800430D01*
X2445507Y2799896D01*
X2444898Y2799211D01*
X2444288Y2798296D01*
X2443526Y2797306D01*
X2442688Y2796163D01*
X2441850Y2794867D01*
X2440935Y2793419D01*
X2440021Y2791819D01*
X2439030Y2790067D01*
X2438040Y2788238D01*
X2437049Y2786180D01*
X2436058Y2783971D01*
X2435144Y2781685D01*
X2435068Y2781532D01*
X2434915Y2781151D01*
X2434687Y2780465D01*
X2434382Y2779475D01*
X2434001Y2778332D01*
X2433620Y2776960D01*
X2433163Y2775436D01*
X2432706Y2773760D01*
X2432248Y2771855D01*
X2431791Y2769874D01*
X2431410Y2767740D01*
X2431029Y2765530D01*
X2430724Y2763244D01*
X2430496Y2760882D01*
X2430343Y2758444D01*
X2430267Y2756005D01*
Y2754862D01*
X2430343Y2754405D01*
Y2753262D01*
X2430496Y2751814D01*
X2430648Y2750138D01*
X2430877Y2748233D01*
X2431105Y2746175D01*
X2431486Y2743966D01*
X2431944Y2741680D01*
X2432553Y2739317D01*
X2433163Y2736879D01*
X2434001Y2734364D01*
X2434915Y2731926D01*
X2435982Y2729488D01*
X2437201Y2727125D01*
X2437278Y2726973D01*
X2437506Y2726592D01*
X2437963Y2725982D01*
X2438497Y2725144D01*
X2439183Y2724077D01*
X2440097Y2722934D01*
X2441088Y2721639D01*
X2442307Y2720191D01*
X2443602Y2718743D01*
X2445050Y2717219D01*
X2446726Y2715695D01*
X2448479Y2714171D01*
X2450384Y2712647D01*
X2452441Y2711276D01*
X2454651Y2709904D01*
X2457013Y2708685D01*
X2457166Y2708609D01*
X2457623Y2708456D01*
X2458309Y2708152D01*
X2459299Y2707694D01*
X2460519Y2707237D01*
X2461890Y2706704D01*
X2463567Y2706170D01*
X2465395Y2705637D01*
X2467377Y2705027D01*
X2469586Y2704494D01*
X2471872Y2703961D01*
X2474311Y2703503D01*
X2476902Y2703122D01*
X2479569Y2702818D01*
X2482312Y2702589D01*
X2485131Y2702513D01*
X2430267D01*
X2539309D01*
Y2801116D01*
D02*
G37*
G36*
X2797978Y2806869D02*
D01*
Y2804887D01*
X2780147D01*
Y2747966D01*
X2756754D01*
Y2800925D01*
X2738923D01*
Y2747966D01*
X2710348D01*
Y2806869D01*
X2692517D01*
Y2726706D01*
X2797978D01*
Y2806869D01*
D02*
G37*
G36*
X2667767Y2783513D02*
X2562307D01*
X2649937D01*
Y2732459D01*
X2624943D01*
Y2776503D01*
X2607112D01*
Y2732459D01*
X2562307D01*
Y2711200D01*
X2667767D01*
Y2783513D01*
D02*
G37*
G36*
X2797978Y2704151D02*
X2692517D01*
Y2620483D01*
X2797978D01*
Y2641134D01*
X2727340Y2684415D01*
X2797978D01*
Y2704151D01*
D02*
G37*
G36*
X2537557Y2692531D02*
X2519726D01*
Y2661289D01*
X2432096D01*
Y2640029D01*
X2519726D01*
Y2608711D01*
X2432096D01*
D01*
X2537557D01*
Y2692531D01*
D02*
G37*
G36*
X2667767Y2699541D02*
X2562307D01*
Y2604824D01*
X2667767D01*
Y2651154D01*
X2667691Y2652297D01*
Y2653745D01*
X2667615Y2655345D01*
X2667539Y2657098D01*
X2667386Y2659003D01*
X2667234Y2660984D01*
X2667082Y2662965D01*
X2666548Y2667080D01*
X2666243Y2668985D01*
X2665862Y2670814D01*
X2665405Y2672566D01*
X2664872Y2674090D01*
Y2674166D01*
X2664719Y2674395D01*
X2664567Y2674852D01*
X2664338Y2675386D01*
X2664034Y2675995D01*
X2663576Y2676757D01*
X2663119Y2677595D01*
X2662586Y2678510D01*
X2661900Y2679500D01*
X2661138Y2680491D01*
X2660300Y2681482D01*
X2659385Y2682548D01*
X2658395Y2683539D01*
X2657252Y2684530D01*
X2656033Y2685444D01*
X2654737Y2686358D01*
X2654661Y2686435D01*
X2654432Y2686587D01*
X2653975Y2686816D01*
X2653442Y2687120D01*
X2652756Y2687425D01*
X2651994Y2687806D01*
X2651003Y2688263D01*
X2649937Y2688721D01*
X2648794Y2689102D01*
X2647498Y2689559D01*
X2646127Y2689940D01*
X2644679Y2690321D01*
X2643155Y2690549D01*
X2641555Y2690778D01*
X2639954Y2690930D01*
X2638202Y2691007D01*
X2638049D01*
X2637668D01*
X2637059Y2690930D01*
X2636221D01*
X2635230Y2690778D01*
X2634011Y2690626D01*
X2632715Y2690397D01*
X2631268Y2690168D01*
X2629744Y2689787D01*
X2628143Y2689330D01*
X2626543Y2688721D01*
X2624867Y2688035D01*
X2623267Y2687273D01*
X2621590Y2686282D01*
X2620066Y2685215D01*
X2618542Y2683996D01*
X2618466Y2683920D01*
X2618237Y2683691D01*
X2617856Y2683234D01*
X2617323Y2682701D01*
X2616713Y2681939D01*
X2616028Y2681101D01*
X2615266Y2680034D01*
X2614427Y2678815D01*
X2613589Y2677367D01*
X2612827Y2675843D01*
X2611989Y2674166D01*
X2611227Y2672261D01*
X2610465Y2670204D01*
X2609855Y2667994D01*
X2609322Y2665632D01*
X2608865Y2663117D01*
X2608789Y2663194D01*
X2608712Y2663422D01*
X2608484Y2663803D01*
X2608179Y2664260D01*
X2607798Y2664870D01*
X2607341Y2665556D01*
X2606807Y2666318D01*
X2606274Y2667156D01*
X2604902Y2668985D01*
X2603378Y2670890D01*
X2601702Y2672795D01*
X2599949Y2674547D01*
X2599873Y2674624D01*
X2599721Y2674776D01*
X2599416Y2675005D01*
X2599035Y2675386D01*
X2598502Y2675843D01*
X2597816Y2676376D01*
X2596978Y2676986D01*
X2595987Y2677748D01*
X2594920Y2678586D01*
X2593701Y2679500D01*
X2592253Y2680491D01*
X2590729Y2681558D01*
X2588977Y2682701D01*
X2587148Y2683920D01*
X2585090Y2685292D01*
X2582881Y2686663D01*
X2562307Y2699541D01*
X2667767D01*
D02*
G37*
G36*
X2640412Y2584098D02*
X2562307D01*
Y2563905D01*
X2601245D01*
X2601397D01*
X2601778D01*
X2602388D01*
X2603226D01*
X2604217Y2563829D01*
X2605360D01*
X2606579D01*
X2607874Y2563753D01*
X2610541Y2563600D01*
X2611913Y2563448D01*
X2613208Y2563295D01*
X2614427Y2563143D01*
X2615494Y2562991D01*
X2616485Y2562762D01*
X2617247Y2562533D01*
X2617323D01*
X2617399Y2562457D01*
X2617856Y2562305D01*
X2618542Y2562000D01*
X2619304Y2561543D01*
X2620219Y2560933D01*
X2621209Y2560247D01*
X2622047Y2559333D01*
X2622886Y2558342D01*
X2622962Y2558190D01*
X2623190Y2557809D01*
X2623571Y2557199D01*
X2623952Y2556361D01*
X2624257Y2555371D01*
X2624638Y2554151D01*
X2624867Y2552780D01*
X2624943Y2551332D01*
Y2550799D01*
X2624867Y2550418D01*
Y2549960D01*
X2624791Y2549427D01*
X2624562Y2548132D01*
X2624257Y2546684D01*
X2623724Y2545084D01*
X2623038Y2543407D01*
X2622047Y2541807D01*
Y2541731D01*
X2621895Y2541655D01*
X2621743Y2541426D01*
X2621514Y2541121D01*
X2620904Y2540435D01*
X2619990Y2539521D01*
X2618923Y2538607D01*
X2617552Y2537616D01*
X2616028Y2536778D01*
X2614351Y2536092D01*
X2614275D01*
X2614123Y2536016D01*
X2613818Y2535940D01*
X2613437Y2535863D01*
X2612903Y2535711D01*
X2612218Y2535635D01*
X2611379Y2535482D01*
X2610389Y2535330D01*
X2609246Y2535178D01*
X2608027Y2535025D01*
X2606579Y2534949D01*
X2604979Y2534797D01*
X2603226Y2534720D01*
X2601245Y2534644D01*
X2599111Y2534568D01*
X2596825D01*
X2562307D01*
Y2514375D01*
X2640412D01*
Y2559485D01*
X2640335Y2560095D01*
X2640259Y2560781D01*
X2640183Y2561543D01*
X2640107Y2562381D01*
X2639802Y2564286D01*
X2639421Y2566343D01*
X2638811Y2568401D01*
X2637973Y2570534D01*
Y2570611D01*
X2637897Y2570763D01*
X2637745Y2571068D01*
X2637516Y2571449D01*
X2637287Y2571906D01*
X2636983Y2572439D01*
X2636297Y2573659D01*
X2635382Y2575030D01*
X2634316Y2576402D01*
X2633173Y2577773D01*
X2631801Y2578916D01*
X2631725D01*
X2631649Y2579069D01*
X2631420Y2579221D01*
X2631115Y2579374D01*
X2630353Y2579907D01*
X2629363Y2580517D01*
X2628067Y2581202D01*
X2626696Y2581812D01*
X2625095Y2582422D01*
X2623343Y2582955D01*
X2623267D01*
X2623114Y2583031D01*
X2622886D01*
X2622505Y2583107D01*
X2621971Y2583260D01*
X2621362Y2583336D01*
X2620676Y2583412D01*
X2619838Y2583565D01*
X2618923Y2583641D01*
X2617933Y2583717D01*
X2616790Y2583869D01*
X2615570Y2583946D01*
X2614275Y2584022D01*
X2612827D01*
X2611303Y2584098D01*
X2640412D01*
D02*
G37*
%LPD*%
G36*
X2635916Y3293596D02*
X2636373D01*
X2636983Y3293520D01*
X2638278Y3293215D01*
X2639802Y3292834D01*
X2641402Y3292225D01*
X2643002Y3291386D01*
X2643764Y3290853D01*
X2644450Y3290243D01*
X2644526D01*
X2644603Y3290091D01*
X2645060Y3289634D01*
X2645669Y3288948D01*
X2646508Y3287957D01*
X2647270Y3286662D01*
X2648032Y3285214D01*
X2648717Y3283538D01*
X2649175Y3281709D01*
Y3281557D01*
X2649251Y3281252D01*
X2649327Y3280947D01*
Y3280490D01*
X2649403Y3279880D01*
X2649479Y3279194D01*
X2649556Y3278356D01*
X2649632Y3277366D01*
X2649708Y3276299D01*
X2649784Y3275080D01*
Y3273632D01*
X2649860Y3272108D01*
X2649937Y3270355D01*
Y3256182D01*
X2619914D01*
Y3269822D01*
X2619990Y3270812D01*
Y3271955D01*
X2620066Y3273251D01*
X2620142Y3274546D01*
X2620295Y3277366D01*
X2620600Y3280109D01*
X2620752Y3281404D01*
X2620981Y3282623D01*
X2621209Y3283614D01*
X2621514Y3284528D01*
Y3284605D01*
X2621590Y3284757D01*
X2621666Y3284909D01*
X2621819Y3285214D01*
X2622200Y3285976D01*
X2622809Y3286967D01*
X2623495Y3288034D01*
X2624410Y3289177D01*
X2625476Y3290243D01*
X2626696Y3291234D01*
X2626772D01*
X2626848Y3291310D01*
X2627077Y3291463D01*
X2627305Y3291615D01*
X2628067Y3291996D01*
X2629058Y3292453D01*
X2630277Y3292910D01*
X2631649Y3293291D01*
X2633249Y3293596D01*
X2634925Y3293672D01*
X2635001D01*
X2635154D01*
X2635459D01*
X2635916Y3293596D01*
D02*
G37*
G36*
X2732598Y3188707D02*
X2733665Y3188631D01*
X2734884Y3188554D01*
X2736256Y3188402D01*
X2737780Y3188173D01*
X2740828Y3187640D01*
X2742428Y3187259D01*
X2743952Y3186726D01*
X2745476Y3186192D01*
X2746924Y3185583D01*
X2748219Y3184821D01*
X2749362Y3183982D01*
X2749438Y3183906D01*
X2749591Y3183754D01*
X2749896Y3183525D01*
X2750277Y3183144D01*
X2750734Y3182687D01*
X2751191Y3182077D01*
X2751724Y3181468D01*
X2752258Y3180706D01*
X2752791Y3179868D01*
X2753325Y3178953D01*
X2753782Y3177963D01*
X2754239Y3176896D01*
X2754620Y3175753D01*
X2754925Y3174534D01*
X2755077Y3173238D01*
X2755153Y3171867D01*
Y3171181D01*
X2755077Y3170647D01*
X2755001Y3170038D01*
X2754849Y3169276D01*
X2754696Y3168514D01*
X2754468Y3167599D01*
X2754163Y3166685D01*
X2753782Y3165694D01*
X2753325Y3164704D01*
X2752715Y3163637D01*
X2752105Y3162646D01*
X2751343Y3161656D01*
X2750429Y3160665D01*
X2749438Y3159751D01*
X2749362Y3159675D01*
X2749210Y3159522D01*
X2748829Y3159294D01*
X2748372Y3158989D01*
X2747762Y3158608D01*
X2747076Y3158227D01*
X2746162Y3157770D01*
X2745171Y3157389D01*
X2744028Y3156931D01*
X2742809Y3156474D01*
X2741361Y3156093D01*
X2739837Y3155712D01*
X2738161Y3155407D01*
X2736332Y3155179D01*
X2734351Y3155026D01*
X2732293Y3154950D01*
X2732141D01*
X2731760D01*
X2731150D01*
X2730388Y3155026D01*
X2729398Y3155103D01*
X2728255Y3155179D01*
X2727036Y3155255D01*
X2725664Y3155407D01*
X2722845Y3155865D01*
X2719949Y3156550D01*
X2718501Y3156931D01*
X2717130Y3157465D01*
X2715910Y3157998D01*
X2714767Y3158684D01*
X2714691Y3158760D01*
X2714463Y3158913D01*
X2714005Y3159217D01*
X2713548Y3159675D01*
X2712939Y3160208D01*
X2712253Y3160818D01*
X2711491Y3161580D01*
X2710805Y3162418D01*
X2710043Y3163332D01*
X2709281Y3164399D01*
X2708595Y3165542D01*
X2707986Y3166761D01*
X2707528Y3168133D01*
X2707147Y3169504D01*
X2706843Y3171028D01*
X2706766Y3172629D01*
Y3172933D01*
X2706843Y3173314D01*
Y3173772D01*
X2706919Y3174305D01*
X2707071Y3174991D01*
X2707224Y3175753D01*
X2707452Y3176591D01*
X2707757Y3177429D01*
X2708138Y3178344D01*
X2708595Y3179334D01*
X2709205Y3180249D01*
X2709814Y3181239D01*
X2710576Y3182230D01*
X2711491Y3183144D01*
X2712481Y3184059D01*
X2712558Y3184135D01*
X2712786Y3184287D01*
X2713091Y3184516D01*
X2713548Y3184821D01*
X2714158Y3185125D01*
X2714920Y3185583D01*
X2715834Y3185964D01*
X2716901Y3186421D01*
X2718044Y3186878D01*
X2719416Y3187259D01*
X2720863Y3187716D01*
X2722464Y3188021D01*
X2724216Y3188326D01*
X2726197Y3188554D01*
X2728255Y3188707D01*
X2730465Y3188783D01*
X2730541D01*
X2730617D01*
X2731074D01*
X2731684D01*
X2732598Y3188707D01*
D02*
G37*
G36*
X2729169Y3095971D02*
X2729093Y3095895D01*
X2729017Y3095667D01*
X2728941Y3095286D01*
X2728788Y3094905D01*
X2728636Y3094371D01*
X2728483Y3093762D01*
X2728331Y3093000D01*
X2728102Y3092161D01*
X2727874Y3091247D01*
X2727569Y3090256D01*
X2727340Y3089113D01*
X2727036Y3087894D01*
X2726731Y3086599D01*
X2726350Y3085151D01*
X2726045Y3083627D01*
Y3083551D01*
X2725969Y3083246D01*
X2725893Y3082865D01*
X2725740Y3082255D01*
X2725588Y3081570D01*
X2725359Y3080808D01*
X2724902Y3079131D01*
X2724369Y3077302D01*
X2723835Y3075474D01*
X2723454Y3074635D01*
X2723149Y3073873D01*
X2722845Y3073188D01*
X2722540Y3072654D01*
Y3072578D01*
X2722387Y3072502D01*
X2722006Y3072045D01*
X2721397Y3071435D01*
X2720559Y3070749D01*
X2719568Y3069987D01*
X2718349Y3069378D01*
X2716901Y3068920D01*
X2716139Y3068844D01*
X2715377Y3068768D01*
X2715301D01*
X2715225D01*
X2714996D01*
X2714691Y3068844D01*
X2713853Y3068920D01*
X2712862Y3069149D01*
X2711719Y3069530D01*
X2710500Y3070063D01*
X2709281Y3070825D01*
X2708062Y3071892D01*
X2707909Y3072045D01*
X2707605Y3072502D01*
X2707071Y3073188D01*
X2706538Y3074102D01*
X2706004Y3075245D01*
X2705471Y3076617D01*
X2705166Y3078217D01*
X2705014Y3079969D01*
Y3080503D01*
X2705090Y3080884D01*
Y3081417D01*
X2705242Y3081951D01*
X2705471Y3083322D01*
X2705928Y3084922D01*
X2706538Y3086675D01*
X2707452Y3088504D01*
X2707986Y3089494D01*
X2708595Y3090409D01*
Y3090485D01*
X2708748Y3090561D01*
X2709052Y3091018D01*
X2709662Y3091628D01*
X2710424Y3092390D01*
X2711415Y3093228D01*
X2712558Y3093990D01*
X2713853Y3094676D01*
X2715225Y3095209D01*
X2715377Y3095286D01*
X2715758Y3095362D01*
X2716063Y3095438D01*
X2716444Y3095514D01*
X2716901Y3095590D01*
X2717434Y3095667D01*
X2718044Y3095743D01*
X2718806Y3095819D01*
X2719568D01*
X2720482Y3095895D01*
X2721473Y3095971D01*
X2722616Y3096048D01*
X2723835D01*
X2725131D01*
X2729169D01*
Y3095971D01*
D02*
G37*
G36*
X2690841Y3072807D02*
Y3071968D01*
X2690993Y3070978D01*
X2691069Y3069835D01*
X2691298Y3068616D01*
X2691603Y3067168D01*
X2691907Y3065720D01*
X2692365Y3064196D01*
X2692822Y3062672D01*
X2693431Y3061148D01*
X2694193Y3059624D01*
X2695032Y3058100D01*
X2696022Y3056652D01*
X2697165Y3055357D01*
X2697241Y3055281D01*
X2697470Y3055052D01*
X2697851Y3054747D01*
X2698308Y3054290D01*
X2698918Y3053757D01*
X2699680Y3053223D01*
X2700594Y3052614D01*
X2701585Y3052004D01*
X2702728Y3051318D01*
X2703947Y3050709D01*
X2705242Y3050175D01*
X2706690Y3049642D01*
X2708214Y3049185D01*
X2709814Y3048880D01*
X2711567Y3048651D01*
X2713320Y3048575D01*
X2690764D01*
Y3073416D01*
X2690841Y3072807D01*
D02*
G37*
G36*
X2508525Y2962964D02*
X2469510Y2977366D01*
X2456480Y2981557D01*
X2456556D01*
X2456709Y2981633D01*
X2456937Y2981710D01*
X2457318Y2981862D01*
X2458156Y2982091D01*
X2459147Y2982472D01*
X2460290Y2982776D01*
X2461357Y2983157D01*
X2462271Y2983386D01*
X2462728Y2983538D01*
X2463033Y2983615D01*
X2463186Y2983691D01*
X2463567Y2983767D01*
X2464252Y2983996D01*
X2465014Y2984300D01*
X2466005Y2984605D01*
X2467148Y2984986D01*
X2468291Y2985367D01*
X2469510Y2985824D01*
X2508525Y3000302D01*
Y2962964D01*
D02*
G37*
G36*
X2636906Y2946734D02*
X2636144Y2946658D01*
X2635306Y2946581D01*
X2634392Y2946505D01*
X2632334Y2946200D01*
X2630048Y2945743D01*
X2627610Y2945057D01*
X2625172Y2944219D01*
X2625095D01*
X2624867Y2944067D01*
X2624562Y2943914D01*
X2624029Y2943762D01*
X2623495Y2943457D01*
X2622809Y2943076D01*
X2621971Y2942695D01*
X2621133Y2942238D01*
X2620142Y2941705D01*
X2619076Y2941095D01*
X2616790Y2939723D01*
X2614351Y2938047D01*
X2611760Y2936142D01*
X2611684Y2936066D01*
X2611532Y2935990D01*
X2611303Y2935761D01*
X2610922Y2935456D01*
X2610389Y2934999D01*
X2609779Y2934466D01*
X2609093Y2933856D01*
X2608331Y2933094D01*
X2607417Y2932256D01*
X2606426Y2931265D01*
X2605283Y2930198D01*
X2604064Y2928979D01*
X2602769Y2927684D01*
X2601397Y2926236D01*
X2599873Y2924636D01*
X2598273Y2922883D01*
X2598197Y2922807D01*
X2597892Y2922502D01*
X2597435Y2921969D01*
X2596825Y2921359D01*
X2596139Y2920597D01*
X2595377Y2919683D01*
X2594463Y2918768D01*
X2593549Y2917778D01*
X2591567Y2915720D01*
X2589662Y2913663D01*
X2588748Y2912749D01*
X2587986Y2911987D01*
X2587224Y2911225D01*
X2586614Y2910691D01*
X2586462Y2910615D01*
X2586157Y2910310D01*
X2585548Y2909777D01*
X2584862Y2909243D01*
X2584024Y2908558D01*
X2583033Y2907872D01*
X2582042Y2907186D01*
X2581052Y2906576D01*
Y2946810D01*
X2637516D01*
X2636906Y2946734D01*
D02*
G37*
G36*
X2638507Y2926465D02*
X2639040D01*
X2639650Y2926388D01*
X2641174Y2926084D01*
X2642850Y2925626D01*
X2644603Y2925017D01*
X2646203Y2924102D01*
X2647041Y2923493D01*
X2647727Y2922883D01*
X2647803Y2922807D01*
X2647879Y2922731D01*
X2648032Y2922502D01*
X2648336Y2922197D01*
X2648565Y2921816D01*
X2648870Y2921359D01*
X2649251Y2920826D01*
X2649556Y2920292D01*
X2650241Y2918845D01*
X2650851Y2917092D01*
X2651232Y2915111D01*
X2651308Y2913968D01*
X2651384Y2912825D01*
Y2912215D01*
X2651308Y2911758D01*
Y2911225D01*
X2651156Y2910615D01*
X2650927Y2909167D01*
X2650470Y2907567D01*
X2649784Y2905814D01*
X2649327Y2905052D01*
X2648870Y2904214D01*
X2648260Y2903452D01*
X2647574Y2902690D01*
X2647498Y2902614D01*
X2647422Y2902538D01*
X2647193Y2902309D01*
X2646812Y2902081D01*
X2646431Y2901776D01*
X2645898Y2901471D01*
X2645288Y2901166D01*
X2644603Y2900785D01*
X2643764Y2900404D01*
X2642850Y2900023D01*
X2641783Y2899642D01*
X2640640Y2899337D01*
X2639345Y2899033D01*
X2637973Y2898728D01*
X2636525Y2898575D01*
X2634925Y2898423D01*
X2636906Y2878306D01*
X2636983D01*
X2637135D01*
X2637364Y2878382D01*
X2637668D01*
X2638049Y2878459D01*
X2638507Y2878535D01*
X2639650Y2878763D01*
X2641021Y2878992D01*
X2642545Y2879373D01*
X2644298Y2879830D01*
X2646127Y2880364D01*
X2648108Y2881049D01*
X2650089Y2881811D01*
X2652070Y2882726D01*
X2654051Y2883793D01*
X2655956Y2884936D01*
X2657709Y2886307D01*
X2659385Y2887831D01*
X2660833Y2889508D01*
X2660909Y2889584D01*
X2661138Y2889965D01*
X2661519Y2890498D01*
X2661976Y2891184D01*
X2662510Y2892175D01*
X2663119Y2893241D01*
X2663805Y2894613D01*
X2664491Y2896061D01*
X2665177Y2897661D01*
X2665862Y2899490D01*
X2666472Y2901471D01*
X2667005Y2903528D01*
X2667463Y2905814D01*
X2667844Y2908177D01*
X2668072Y2910691D01*
X2668148Y2913282D01*
Y2875944D01*
X2562459D01*
X2562764Y2876020D01*
X2563373Y2876096D01*
X2564135Y2876249D01*
X2565050Y2876401D01*
X2566193Y2876630D01*
X2567412Y2876858D01*
X2568784Y2877239D01*
X2570308Y2877620D01*
X2571908Y2878154D01*
X2573508Y2878687D01*
X2575261Y2879297D01*
X2577013Y2880059D01*
X2578842Y2880897D01*
X2580595Y2881811D01*
X2582423Y2882802D01*
X2582500Y2882878D01*
X2582881Y2883107D01*
X2583414Y2883488D01*
X2584176Y2883945D01*
X2585090Y2884631D01*
X2586233Y2885545D01*
X2587605Y2886612D01*
X2589129Y2887831D01*
X2590882Y2889279D01*
X2592787Y2890879D01*
X2594844Y2892784D01*
X2597130Y2894842D01*
X2599568Y2897204D01*
X2602083Y2899718D01*
X2604826Y2902538D01*
X2607722Y2905586D01*
X2607798Y2905662D01*
X2607874Y2905738D01*
X2608255Y2906195D01*
X2608941Y2906881D01*
X2609779Y2907796D01*
X2610846Y2908862D01*
X2611989Y2910082D01*
X2613284Y2911377D01*
X2614656Y2912825D01*
X2617552Y2915644D01*
X2618923Y2917092D01*
X2620371Y2918387D01*
X2621666Y2919683D01*
X2622886Y2920750D01*
X2624029Y2921664D01*
X2624943Y2922350D01*
X2625019Y2922426D01*
X2625248Y2922502D01*
X2625553Y2922731D01*
X2626010Y2923036D01*
X2626619Y2923340D01*
X2627229Y2923645D01*
X2627991Y2924026D01*
X2628829Y2924483D01*
X2630734Y2925245D01*
X2632792Y2925855D01*
X2635078Y2926388D01*
X2636221Y2926465D01*
X2637364Y2926541D01*
X2637440D01*
X2637668D01*
X2637973D01*
X2638507Y2926465D01*
D02*
G37*
G36*
X2539309Y2702513D02*
X2486274D01*
X2486731Y2702589D01*
X2487874D01*
X2489322Y2702741D01*
X2490999Y2702894D01*
X2492904Y2703122D01*
X2494961Y2703351D01*
X2497171Y2703732D01*
X2499533Y2704189D01*
X2501971Y2704723D01*
X2504410Y2705408D01*
X2506924Y2706170D01*
X2509439Y2707085D01*
X2511954Y2708152D01*
X2514392Y2709371D01*
X2514544Y2709447D01*
X2514925Y2709676D01*
X2515611Y2710133D01*
X2516526Y2710666D01*
X2517592Y2711352D01*
X2518812Y2712266D01*
X2520183Y2713333D01*
X2521631Y2714476D01*
X2523231Y2715848D01*
X2524831Y2717372D01*
X2526432Y2718972D01*
X2528108Y2720801D01*
X2529708Y2722782D01*
X2531232Y2724916D01*
X2532680Y2727125D01*
X2534052Y2729564D01*
X2534128Y2729716D01*
X2534280Y2730021D01*
X2534509Y2730631D01*
X2534890Y2731393D01*
X2535271Y2732383D01*
X2535728Y2733602D01*
X2536185Y2734974D01*
X2536719Y2736498D01*
X2537176Y2738251D01*
X2537633Y2740232D01*
X2538090Y2742289D01*
X2538471Y2744499D01*
X2538852Y2746861D01*
X2539081Y2749452D01*
X2539233Y2752119D01*
X2539309Y2754862D01*
Y2702513D01*
D02*
G37*
G36*
X2761554Y2640219D02*
X2692517D01*
Y2682815D01*
X2761554Y2640219D01*
D02*
G37*
G36*
X2637745Y2668985D02*
X2638202D01*
X2638659Y2668909D01*
X2639878Y2668680D01*
X2641250Y2668375D01*
X2642698Y2667842D01*
X2644069Y2667156D01*
X2645365Y2666165D01*
X2645441D01*
X2645517Y2666013D01*
X2645898Y2665632D01*
X2646431Y2665022D01*
X2647117Y2664108D01*
X2647803Y2662965D01*
X2648489Y2661593D01*
X2649098Y2659993D01*
X2649556Y2658164D01*
Y2657860D01*
X2649632Y2657555D01*
Y2657174D01*
X2649708Y2656640D01*
Y2656031D01*
X2649784Y2655269D01*
Y2653211D01*
X2649860Y2651992D01*
Y2650544D01*
X2649937Y2648868D01*
Y2626084D01*
X2623190D01*
Y2644220D01*
X2623267Y2645439D01*
Y2648335D01*
X2623343Y2649935D01*
X2623495Y2653211D01*
X2623571Y2654812D01*
X2623724Y2656336D01*
X2623876Y2657707D01*
X2624029Y2659003D01*
X2624181Y2660069D01*
X2624410Y2660908D01*
Y2660984D01*
X2624486Y2661060D01*
X2624638Y2661517D01*
X2625019Y2662203D01*
X2625476Y2663117D01*
X2626086Y2664032D01*
X2626848Y2665022D01*
X2627762Y2666013D01*
X2628905Y2666851D01*
X2629058Y2666927D01*
X2629515Y2667232D01*
X2630201Y2667537D01*
X2631115Y2667994D01*
X2632258Y2668375D01*
X2633630Y2668756D01*
X2635154Y2668985D01*
X2636830Y2669061D01*
X2636906D01*
X2637059D01*
X2637364D01*
X2637745Y2668985D01*
D02*
G37*
G36*
X2585243Y2658698D02*
X2585395Y2658622D01*
X2585776Y2658317D01*
X2586386Y2657936D01*
X2587224Y2657402D01*
X2588215Y2656717D01*
X2589281Y2655955D01*
X2590501Y2655116D01*
X2591796Y2654202D01*
X2594387Y2652297D01*
X2595682Y2651383D01*
X2596978Y2650468D01*
X2598121Y2649630D01*
X2599111Y2648792D01*
X2600026Y2648030D01*
X2600711Y2647420D01*
X2600864Y2647268D01*
X2601245Y2646887D01*
X2601778Y2646277D01*
X2602464Y2645515D01*
X2603226Y2644525D01*
X2603912Y2643458D01*
X2604598Y2642315D01*
X2605131Y2641019D01*
X2605207Y2640867D01*
X2605283Y2640638D01*
X2605360Y2640410D01*
X2605436Y2640029D01*
X2605512Y2639572D01*
X2605664Y2639038D01*
X2605741Y2638429D01*
X2605893Y2637743D01*
X2605969Y2636981D01*
X2606045Y2636066D01*
X2606198Y2635076D01*
X2606274Y2634085D01*
Y2632942D01*
X2606350Y2631647D01*
Y2626084D01*
X2562307D01*
Y2674014D01*
X2585243Y2658698D01*
D02*
G37*
G36*
X2640412Y2514375D02*
X2638735D01*
Y2533120D01*
X2627458D01*
X2627610Y2533273D01*
X2627991Y2533577D01*
X2628677Y2534111D01*
X2629515Y2534949D01*
X2630429Y2535940D01*
X2631572Y2537083D01*
X2632715Y2538454D01*
X2633935Y2540054D01*
X2635154Y2541731D01*
X2636297Y2543636D01*
X2637440Y2545769D01*
X2638354Y2547979D01*
X2639192Y2550341D01*
X2639878Y2552856D01*
X2640259Y2555523D01*
X2640412Y2558342D01*
Y2514375D01*
D02*
G37*
D43*
X1484998Y3333311D02*
Y3279995D01*
X1538314Y3333311D01*
X1551643D01*
X1564972Y3319982D01*
Y3293324D01*
X1551643Y3279995D01*
X1484997Y1709984D02*
X1564971D01*
X1524984Y1669996D01*
Y1723313D01*
X1551642Y1749971D02*
X1564971Y1763300D01*
Y1789958D01*
X1551642Y1803287D01*
X1498326D01*
X1484997Y1789958D01*
Y1763300D01*
X1498326Y1749971D01*
X1551642D01*
D45*
X4257493Y2974994D02*
D03*
Y3034994D02*
D03*
X4137493Y3094994D02*
D03*
Y3134993D02*
D03*
X4197493Y2994994D02*
D03*
X4037494Y2874994D02*
D03*
X4057494D02*
D03*
Y2994994D02*
D03*
X4077493Y3054994D02*
D03*
X4017494Y2994994D02*
D03*
Y2874994D02*
D03*
Y3054994D02*
D03*
X4037494Y2994994D02*
D03*
X4237493Y2874994D02*
D03*
Y2934994D02*
D03*
X4217493Y2894994D02*
D03*
Y2954994D02*
D03*
X4157493Y2934994D02*
D03*
X4137493D02*
D03*
X4037494Y3034994D02*
D03*
X4097493D02*
D03*
X4117493Y3054994D02*
D03*
X3977494Y3034994D02*
D03*
X4017494Y3114994D02*
D03*
X4197493Y2874994D02*
D03*
Y2954994D02*
D03*
X4177493Y2874994D02*
D03*
X3997494Y2994994D02*
D03*
X3977494Y2874994D02*
D03*
Y2994994D02*
D03*
X3997494Y2874994D02*
D03*
X4397493Y3154993D02*
D03*
X4337498Y2874994D02*
D03*
X4417498D02*
D03*
X4377498D02*
D03*
X4397493D02*
D03*
X4357498D02*
D03*
X4337493Y2994994D02*
D03*
X4357493D02*
D03*
X4317493Y3034994D02*
D03*
X4397498Y2994994D02*
D03*
X4377493D02*
D03*
X4417493D02*
D03*
X4437493Y3034994D02*
D03*
X4417493D02*
D03*
X4397493Y3114994D02*
D03*
D46*
X4237496Y2984994D02*
D03*
Y3064994D02*
D03*
X4157496Y3304993D02*
D03*
X4197496D02*
D03*
X4217496Y3324993D02*
D03*
X4257496Y3284993D02*
D03*
X4177496Y3064994D02*
D03*
X4197496Y3144993D02*
D03*
X4177496Y3264993D02*
D03*
X4257496Y2884994D02*
D03*
X4117496Y2984994D02*
D03*
X3957496Y3124993D02*
D03*
X4117496D02*
D03*
X4097496Y3144993D02*
D03*
X4037496Y3084994D02*
D03*
X3977496D02*
D03*
X4037496Y3144993D02*
D03*
X4097496Y3324993D02*
D03*
X3957496Y3044994D02*
D03*
X4017496Y3344993D02*
D03*
X3977496Y3324993D02*
D03*
X3997496D02*
D03*
Y3244993D02*
D03*
X4057496Y3324993D02*
D03*
X4277496Y2884994D02*
D03*
X4357495Y3064994D02*
D03*
X4297496Y3084994D02*
D03*
X4397495Y3044994D02*
D03*
X4417495Y3104994D02*
D03*
X4357495Y3124993D02*
D03*
D47*
X4277498Y3074996D02*
D03*
Y3114996D02*
D03*
X4137493Y3254996D02*
D03*
Y3174996D02*
D03*
Y3314996D02*
D03*
Y3354996D02*
D03*
X4237493Y3234996D02*
D03*
X4277493Y3254996D02*
D03*
X4237493Y3314996D02*
D03*
Y3274996D02*
D03*
X4197493Y3094996D02*
D03*
X4217493Y3114996D02*
D03*
X4177493D02*
D03*
X3977494Y3134996D02*
D03*
X3957494Y3214996D02*
D03*
X3977494Y3174996D02*
D03*
Y3214996D02*
D03*
Y3274996D02*
D03*
X4057494Y3114996D02*
D03*
X4017494Y3174996D02*
D03*
X4057494Y3154996D02*
D03*
X4097493Y3194996D02*
D03*
Y3274996D02*
D03*
X4117493Y3354996D02*
D03*
Y3314996D02*
D03*
X4057494Y3194996D02*
D03*
X4017494Y3294996D02*
D03*
X4057494Y3274996D02*
D03*
X4077493Y3194996D02*
D03*
Y3234996D02*
D03*
X4317498Y3154996D02*
D03*
X4297493Y3194996D02*
D03*
X4317493D02*
D03*
X4337498Y3154996D02*
D03*
X4357493Y3174996D02*
D03*
X4317498Y3074996D02*
D03*
Y3114996D02*
D03*
X4377493Y3194996D02*
D03*
X4337493Y3234996D02*
D03*
X4357493D02*
D03*
X4377493D02*
D03*
X4397498D02*
D03*
X4417493D02*
D03*
X4397493Y3354996D02*
D03*
X4337498D02*
D03*
X4357498D02*
D03*
X4377498D02*
D03*
X4417498D02*
D03*
D48*
X4257496Y3164993D02*
D03*
X4277496Y3324993D02*
D03*
X4157496Y3004994D02*
D03*
X4117496Y2904994D02*
D03*
X4177496Y2944994D02*
D03*
D49*
X4237493Y3154996D02*
D03*
X4217493Y3034996D02*
D03*
X4177493Y3174996D02*
D03*
X4197493Y3234996D02*
D03*
X4077493Y3294996D02*
D03*
X4017494Y3234996D02*
D03*
X4037494Y3334996D02*
D03*
X4357493Y3294996D02*
D03*
X4377493D02*
D03*
X4377498Y3134996D02*
D03*
X4437498Y3174996D02*
D03*
D50*
X4157493Y3134996D02*
D03*
X4217493Y3214996D02*
D03*
X4317493Y3294996D02*
D03*
X4437498D02*
D03*
D51*
X4037494Y2934994D02*
D03*
X4017494D02*
D03*
X4057494Y3054994D02*
D03*
X3997494Y2934994D02*
D03*
X4377493D02*
D03*
X4357493D02*
D03*
X4277493Y2974994D02*
D03*
X4337493Y3054994D02*
D03*
X4377493D02*
D03*
D52*
X4077493Y2934994D02*
D03*
X3957494D02*
D03*
X4317493D02*
D03*
X4437498D02*
D03*
D53*
X3957496Y3304993D02*
D03*
X4117496Y3224993D02*
D03*
D54*
X3997494Y3114996D02*
D03*
X4037494Y3234996D02*
D03*
D55*
X4397495Y2934994D02*
D03*
D56*
Y3294996D02*
D03*
%TF.MD5,196ed197928a8f27b208db6aa1fc9f54*%
M02*
