%TF.GenerationSoftware,Altium Limited,Altium Designer,24.8.2 (39)*%
G04 Layer_Color=16711935*
%FSLAX45Y45*%
%MOMM*%
%TF.SameCoordinates,B03309B8-0E9A-45A2-8570-9956D1A1A338*%
%TF.FilePolarity,Positive*%
%TF.FileFunction,Keep-out,Top*%
%TF.Part,CustomerPanel*%
G01*
G75*
%TA.AperFunction,NonConductor*%
%ADD140C,0.10000*%
D140*
X4650000Y3825000D02*
G03*
X4575000Y3900000I-75000J0D01*
G01*
X4575000Y1100000D02*
G03*
X4650000Y1175000I0J75000D01*
G01*
X1415000Y1175000D02*
G03*
X1490000Y1100000I75000J-0D01*
G01*
X1415000Y1415000D02*
G03*
X1340000Y1490000I-75000J0D01*
G01*
X850000Y1565000D02*
G03*
X925000Y1490000I75000J-0D01*
G01*
X925000Y3510000D02*
G03*
X850000Y3435000I-0J-75000D01*
G01*
X1375000Y3510000D02*
G03*
X1450000Y3585000I0J75000D01*
G01*
X1525000Y3900000D02*
G03*
X1450000Y3825000I-0J-75000D01*
G01*
X2325000Y1250000D02*
G03*
X2325000Y1100000I0J-75000D01*
G01*
X1975000Y1100000D02*
G03*
X1975000Y1250001I0J75000D01*
G01*
X4125000Y1250000D02*
G03*
X4125000Y1100000I0J-75000D01*
G01*
X3775000Y1100000D02*
G03*
X3775000Y1250001I0J75000D01*
G01*
X4650000Y2525000D02*
G03*
X4500000Y2525000I-75000J0D01*
G01*
X4500000Y2875000D02*
G03*
X4650001Y2875000I75000J0D01*
G01*
X3775000Y3750000D02*
G03*
X3775000Y3900000I0J75000D01*
G01*
X4125000Y3900000D02*
G03*
X4125000Y3750000I0J-75000D01*
G01*
X2325000Y3900000D02*
G03*
X2325000Y3750000I0J-75000D01*
G01*
X1975000Y3750000D02*
G03*
X1975000Y3900000I0J75000D01*
G01*
X4500001Y3550000D02*
G03*
X4300001Y3750000I-200000J0D01*
G01*
Y1250000D02*
G03*
X4500001Y1450000I0J200000D01*
G01*
X1700001Y3750000D02*
G03*
X1600001Y3650000I0J-100000D01*
G01*
Y1350000D02*
G03*
X1700001Y1250000I100000J0D01*
G01*
X1100001Y3360000D02*
G03*
X1000001Y3260000I0J-100000D01*
G01*
Y1740000D02*
G03*
X1100001Y1640000I100000J0D01*
G01*
X1100001D02*
X1600000D01*
Y1350000D02*
Y1640000D01*
X1100001Y3360000D02*
X1600000D01*
Y3650000D01*
X4500000Y2525000D02*
X4500001Y1450000D01*
X4125000Y3750000D02*
X4300001D01*
X4500000Y3550000D02*
X4500000Y2875000D01*
X2325000Y3750000D02*
X3775000Y3750000D01*
X1700001Y1250000D02*
X1975000D01*
X1700001Y3750000D02*
X1975000D01*
X4125000Y1250000D02*
X4300000D01*
X4125000Y1100000D02*
X4575000D01*
X4650000Y1175000D02*
Y2524999D01*
X1415000Y1174724D02*
Y1415000D01*
X1489724Y1100000D02*
X1975000D01*
X925000Y1490000D02*
X1340000D01*
X850000Y1565000D02*
Y3435000D01*
X925000Y3510000D02*
X1375000D01*
X1450000Y3585000D02*
Y3825000D01*
X1525000Y3900000D02*
X1975000D01*
X4125001D02*
X4575000D01*
X4650000Y3825000D02*
X4650001Y2875000D01*
X2325000Y3900000D02*
X3775000D01*
X2915000Y1100000D02*
X3775000D01*
X2325000D02*
X2914999D01*
X2325000Y1250000D02*
X3775000Y1250000D01*
X1000001Y1740000D02*
Y3260000D01*
X-2Y4999995D02*
X5499998D01*
Y-5D02*
Y4999995D01*
X-2Y-5D02*
Y4999995D01*
Y-5D02*
X5499998D01*
X999999Y1739996D02*
G03*
X1099999Y1639996I100000J0D01*
G01*
Y3359996D02*
G03*
X999999Y3259996I0J-100000D01*
G01*
X1599999Y1349996D02*
G03*
X1699999Y1249996I100000J0D01*
G01*
Y3749996D02*
G03*
X1599999Y3649996I0J-100000D01*
G01*
X4299999Y1249995D02*
G03*
X4499999Y1449996I0J200000D01*
G01*
Y3549996D02*
G03*
X4299999Y3749996I-200000J0D01*
G01*
X999999Y1739996D02*
Y3259996D01*
X1599997Y1349996D02*
Y1639996D01*
X1099998D02*
X1599997D01*
Y3359996D02*
Y3649996D01*
X1099998Y3359996D02*
X1599997D01*
X4499999Y1449996D02*
Y3549996D01*
X1699997Y1249996D02*
X4299999D01*
X1699997Y3749996D02*
X4299999D01*
%TF.MD5,3edeb7f5c83c6fde994e09dfce4da72a*%
M02*
