%TF.GenerationSoftware,Altium Limited,Altium Designer,24.8.2 (39)*%
G04 Layer_Color=8421504*
%FSLAX45Y45*%
%MOMM*%
%TF.SameCoordinates,B03309B8-0E9A-45A2-8570-9956D1A1A338*%
%TF.FilePolarity,Positive*%
%TF.FileFunction,Paste,Top*%
%TF.Part,CustomerPanel*%
G01*
G75*
%TA.AperFunction,SMDPad,CuDef*%
G04:AMPARAMS|DCode=11|XSize=0.5mm|YSize=0.5mm|CornerRadius=0.125mm|HoleSize=0mm|Usage=FLASHONLY|Rotation=0.000|XOffset=0mm|YOffset=0mm|HoleType=Round|Shape=RoundedRectangle|*
%AMROUNDEDRECTD11*
21,1,0.50000,0.25000,0,0,0.0*
21,1,0.25000,0.50000,0,0,0.0*
1,1,0.25000,0.12500,-0.12500*
1,1,0.25000,-0.12500,-0.12500*
1,1,0.25000,-0.12500,0.12500*
1,1,0.25000,0.12500,0.12500*
%
%ADD11ROUNDEDRECTD11*%
%TA.AperFunction,NonConductor*%
%ADD63C,0.14500*%
%ADD64C,0.14000*%
%TA.AperFunction,OtherPad,Free Pad (16.9mm,34.65mm)*%
G04:AMPARAMS|DCode=65|XSize=0.5mm|YSize=0.35mm|CornerRadius=0.1575mm|HoleSize=0mm|Usage=FLASHONLY|Rotation=270.000|XOffset=0mm|YOffset=0mm|HoleType=Round|Shape=RoundedRectangle|*
%AMROUNDEDRECTD65*
21,1,0.50000,0.03500,0,0,270.0*
21,1,0.18500,0.35000,0,0,270.0*
1,1,0.31500,-0.01750,-0.09250*
1,1,0.31500,-0.01750,0.09250*
1,1,0.31500,0.01750,0.09250*
1,1,0.31500,0.01750,-0.09250*
%
%ADD65ROUNDEDRECTD65*%
%TA.AperFunction,OtherPad,Free Pad (18.2mm,34.65mm)*%
G04:AMPARAMS|DCode=66|XSize=0.5mm|YSize=0.35mm|CornerRadius=0.1575mm|HoleSize=0mm|Usage=FLASHONLY|Rotation=270.000|XOffset=0mm|YOffset=0mm|HoleType=Round|Shape=RoundedRectangle|*
%AMROUNDEDRECTD66*
21,1,0.50000,0.03500,0,0,270.0*
21,1,0.18500,0.35000,0,0,270.0*
1,1,0.31500,-0.01750,-0.09250*
1,1,0.31500,-0.01750,0.09250*
1,1,0.31500,0.01750,0.09250*
1,1,0.31500,0.01750,-0.09250*
%
%ADD66ROUNDEDRECTD66*%
%TA.AperFunction,OtherPad,Free Pad (16.9mm,36.65mm)*%
G04:AMPARAMS|DCode=67|XSize=0.5mm|YSize=0.35mm|CornerRadius=0.1575mm|HoleSize=0mm|Usage=FLASHONLY|Rotation=270.000|XOffset=0mm|YOffset=0mm|HoleType=Round|Shape=RoundedRectangle|*
%AMROUNDEDRECTD67*
21,1,0.50000,0.03500,0,0,270.0*
21,1,0.18500,0.35000,0,0,270.0*
1,1,0.31500,-0.01750,-0.09250*
1,1,0.31500,-0.01750,0.09250*
1,1,0.31500,0.01750,0.09250*
1,1,0.31500,0.01750,-0.09250*
%
%ADD67ROUNDEDRECTD67*%
%TA.AperFunction,OtherPad,Free Pad (17.55mm,36.65mm)*%
G04:AMPARAMS|DCode=68|XSize=0.5mm|YSize=0.35mm|CornerRadius=0.1575mm|HoleSize=0mm|Usage=FLASHONLY|Rotation=270.000|XOffset=0mm|YOffset=0mm|HoleType=Round|Shape=RoundedRectangle|*
%AMROUNDEDRECTD68*
21,1,0.50000,0.03500,0,0,270.0*
21,1,0.18500,0.35000,0,0,270.0*
1,1,0.31500,-0.01750,-0.09250*
1,1,0.31500,-0.01750,0.09250*
1,1,0.31500,0.01750,0.09250*
1,1,0.31500,0.01750,-0.09250*
%
%ADD68ROUNDEDRECTD68*%
%TA.AperFunction,OtherPad,Free Pad (18.2mm,36.65mm)*%
G04:AMPARAMS|DCode=69|XSize=0.5mm|YSize=0.35mm|CornerRadius=0.1575mm|HoleSize=0mm|Usage=FLASHONLY|Rotation=270.000|XOffset=0mm|YOffset=0mm|HoleType=Round|Shape=RoundedRectangle|*
%AMROUNDEDRECTD69*
21,1,0.50000,0.03500,0,0,270.0*
21,1,0.18500,0.35000,0,0,270.0*
1,1,0.31500,-0.01750,-0.09250*
1,1,0.31500,-0.01750,0.09250*
1,1,0.31500,0.01750,0.09250*
1,1,0.31500,0.01750,-0.09250*
%
%ADD69ROUNDEDRECTD69*%
%TA.AperFunction,OtherPad,Free Pad (30.922mm,19.9mm)*%
G04:AMPARAMS|DCode=70|XSize=1.1mm|YSize=1.1mm|CornerRadius=0.495mm|HoleSize=0mm|Usage=FLASHONLY|Rotation=0.000|XOffset=0mm|YOffset=0mm|HoleType=Round|Shape=RoundedRectangle|*
%AMROUNDEDRECTD70*
21,1,1.10000,0.11000,0,0,0.0*
21,1,0.11000,1.10000,0,0,0.0*
1,1,0.99000,0.05500,-0.05500*
1,1,0.99000,-0.05500,-0.05500*
1,1,0.99000,-0.05500,0.05500*
1,1,0.99000,0.05500,0.05500*
%
%ADD70ROUNDEDRECTD70*%
%TA.AperFunction,OtherPad,Free Pad (32.622mm,19.9mm)*%
G04:AMPARAMS|DCode=71|XSize=1.1mm|YSize=1.1mm|CornerRadius=0.495mm|HoleSize=0mm|Usage=FLASHONLY|Rotation=0.000|XOffset=0mm|YOffset=0mm|HoleType=Round|Shape=RoundedRectangle|*
%AMROUNDEDRECTD71*
21,1,1.10000,0.11000,0,0,0.0*
21,1,0.11000,1.10000,0,0,0.0*
1,1,0.99000,0.05500,-0.05500*
1,1,0.99000,-0.05500,-0.05500*
1,1,0.99000,-0.05500,0.05500*
1,1,0.99000,0.05500,0.05500*
%
%ADD71ROUNDEDRECTD71*%
%TA.AperFunction,OtherPad,Free Pad (30.922mm,18.2mm)*%
G04:AMPARAMS|DCode=72|XSize=1.1mm|YSize=1.1mm|CornerRadius=0.495mm|HoleSize=0mm|Usage=FLASHONLY|Rotation=0.000|XOffset=0mm|YOffset=0mm|HoleType=Round|Shape=RoundedRectangle|*
%AMROUNDEDRECTD72*
21,1,1.10000,0.11000,0,0,0.0*
21,1,0.11000,1.10000,0,0,0.0*
1,1,0.99000,0.05500,-0.05500*
1,1,0.99000,-0.05500,-0.05500*
1,1,0.99000,-0.05500,0.05500*
1,1,0.99000,0.05500,0.05500*
%
%ADD72ROUNDEDRECTD72*%
%TA.AperFunction,OtherPad,Free Pad (29.222mm,19.9mm)*%
G04:AMPARAMS|DCode=73|XSize=1.1mm|YSize=1.1mm|CornerRadius=0.495mm|HoleSize=0mm|Usage=FLASHONLY|Rotation=0.000|XOffset=0mm|YOffset=0mm|HoleType=Round|Shape=RoundedRectangle|*
%AMROUNDEDRECTD73*
21,1,1.10000,0.11000,0,0,0.0*
21,1,0.11000,1.10000,0,0,0.0*
1,1,0.99000,0.05500,-0.05500*
1,1,0.99000,-0.05500,-0.05500*
1,1,0.99000,-0.05500,0.05500*
1,1,0.99000,0.05500,0.05500*
%
%ADD73ROUNDEDRECTD73*%
%TA.AperFunction,OtherPad,Free Pad (30.922mm,21.6mm)*%
G04:AMPARAMS|DCode=74|XSize=1.1mm|YSize=1.1mm|CornerRadius=0.495mm|HoleSize=0mm|Usage=FLASHONLY|Rotation=0.000|XOffset=0mm|YOffset=0mm|HoleType=Round|Shape=RoundedRectangle|*
%AMROUNDEDRECTD74*
21,1,1.10000,0.11000,0,0,0.0*
21,1,0.11000,1.10000,0,0,0.0*
1,1,0.99000,0.05500,-0.05500*
1,1,0.99000,-0.05500,-0.05500*
1,1,0.99000,-0.05500,0.05500*
1,1,0.99000,0.05500,0.05500*
%
%ADD74ROUNDEDRECTD74*%
%TA.AperFunction,OtherPad,Free Pad (32.622mm,21.6mm)*%
G04:AMPARAMS|DCode=75|XSize=1.1mm|YSize=1.1mm|CornerRadius=0.495mm|HoleSize=0mm|Usage=FLASHONLY|Rotation=0.000|XOffset=0mm|YOffset=0mm|HoleType=Round|Shape=RoundedRectangle|*
%AMROUNDEDRECTD75*
21,1,1.10000,0.11000,0,0,0.0*
21,1,0.11000,1.10000,0,0,0.0*
1,1,0.99000,0.05500,-0.05500*
1,1,0.99000,-0.05500,-0.05500*
1,1,0.99000,-0.05500,0.05500*
1,1,0.99000,0.05500,0.05500*
%
%ADD75ROUNDEDRECTD75*%
%TA.AperFunction,OtherPad,Free Pad (32.622mm,18.2mm)*%
G04:AMPARAMS|DCode=76|XSize=1.1mm|YSize=1.1mm|CornerRadius=0.495mm|HoleSize=0mm|Usage=FLASHONLY|Rotation=270.000|XOffset=0mm|YOffset=0mm|HoleType=Round|Shape=RoundedRectangle|*
%AMROUNDEDRECTD76*
21,1,1.10000,0.11000,0,0,270.0*
21,1,0.11000,1.10000,0,0,270.0*
1,1,0.99000,-0.05500,-0.05500*
1,1,0.99000,-0.05500,0.05500*
1,1,0.99000,0.05500,0.05500*
1,1,0.99000,0.05500,-0.05500*
%
%ADD76ROUNDEDRECTD76*%
%TA.AperFunction,OtherPad,Free Pad (29.222mm,18.2mm)*%
G04:AMPARAMS|DCode=77|XSize=1.1mm|YSize=1.1mm|CornerRadius=0.495mm|HoleSize=0mm|Usage=FLASHONLY|Rotation=180.000|XOffset=0mm|YOffset=0mm|HoleType=Round|Shape=RoundedRectangle|*
%AMROUNDEDRECTD77*
21,1,1.10000,0.11000,0,0,180.0*
21,1,0.11000,1.10000,0,0,180.0*
1,1,0.99000,-0.05500,0.05500*
1,1,0.99000,0.05500,0.05500*
1,1,0.99000,0.05500,-0.05500*
1,1,0.99000,-0.05500,-0.05500*
%
%ADD77ROUNDEDRECTD77*%
%TA.AperFunction,OtherPad,Free Pad (29.222mm,21.6mm)*%
G04:AMPARAMS|DCode=78|XSize=1.1mm|YSize=1.1mm|CornerRadius=0.495mm|HoleSize=0mm|Usage=FLASHONLY|Rotation=90.000|XOffset=0mm|YOffset=0mm|HoleType=Round|Shape=RoundedRectangle|*
%AMROUNDEDRECTD78*
21,1,1.10000,0.11000,0,0,90.0*
21,1,0.11000,1.10000,0,0,90.0*
1,1,0.99000,0.05500,0.05500*
1,1,0.99000,0.05500,-0.05500*
1,1,0.99000,-0.05500,-0.05500*
1,1,0.99000,-0.05500,0.05500*
%
%ADD78ROUNDEDRECTD78*%
%TA.AperFunction,OtherPad,Free Pad (20.3mm,33.7mm)*%
G04:AMPARAMS|DCode=79|XSize=0.5mm|YSize=0.35mm|CornerRadius=0.1575mm|HoleSize=0mm|Usage=FLASHONLY|Rotation=270.000|XOffset=0mm|YOffset=0mm|HoleType=Round|Shape=RoundedRectangle|*
%AMROUNDEDRECTD79*
21,1,0.50000,0.03500,0,0,270.0*
21,1,0.18500,0.35000,0,0,270.0*
1,1,0.31500,-0.01750,-0.09250*
1,1,0.31500,-0.01750,0.09250*
1,1,0.31500,0.01750,0.09250*
1,1,0.31500,0.01750,-0.09250*
%
%ADD79ROUNDEDRECTD79*%
%TA.AperFunction,OtherPad,Free Pad (21.6mm,33.7mm)*%
G04:AMPARAMS|DCode=80|XSize=0.5mm|YSize=0.35mm|CornerRadius=0.1575mm|HoleSize=0mm|Usage=FLASHONLY|Rotation=270.000|XOffset=0mm|YOffset=0mm|HoleType=Round|Shape=RoundedRectangle|*
%AMROUNDEDRECTD80*
21,1,0.50000,0.03500,0,0,270.0*
21,1,0.18500,0.35000,0,0,270.0*
1,1,0.31500,-0.01750,-0.09250*
1,1,0.31500,-0.01750,0.09250*
1,1,0.31500,0.01750,0.09250*
1,1,0.31500,0.01750,-0.09250*
%
%ADD80ROUNDEDRECTD80*%
%TA.AperFunction,OtherPad,Free Pad (20.3mm,35.7mm)*%
G04:AMPARAMS|DCode=81|XSize=0.5mm|YSize=0.35mm|CornerRadius=0.1575mm|HoleSize=0mm|Usage=FLASHONLY|Rotation=270.000|XOffset=0mm|YOffset=0mm|HoleType=Round|Shape=RoundedRectangle|*
%AMROUNDEDRECTD81*
21,1,0.50000,0.03500,0,0,270.0*
21,1,0.18500,0.35000,0,0,270.0*
1,1,0.31500,-0.01750,-0.09250*
1,1,0.31500,-0.01750,0.09250*
1,1,0.31500,0.01750,0.09250*
1,1,0.31500,0.01750,-0.09250*
%
%ADD81ROUNDEDRECTD81*%
%TA.AperFunction,OtherPad,Free Pad (20.95mm,35.7mm)*%
G04:AMPARAMS|DCode=82|XSize=0.5mm|YSize=0.35mm|CornerRadius=0.1575mm|HoleSize=0mm|Usage=FLASHONLY|Rotation=270.000|XOffset=0mm|YOffset=0mm|HoleType=Round|Shape=RoundedRectangle|*
%AMROUNDEDRECTD82*
21,1,0.50000,0.03500,0,0,270.0*
21,1,0.18500,0.35000,0,0,270.0*
1,1,0.31500,-0.01750,-0.09250*
1,1,0.31500,-0.01750,0.09250*
1,1,0.31500,0.01750,0.09250*
1,1,0.31500,0.01750,-0.09250*
%
%ADD82ROUNDEDRECTD82*%
%TA.AperFunction,OtherPad,Free Pad (21.6mm,35.7mm)*%
G04:AMPARAMS|DCode=83|XSize=0.5mm|YSize=0.35mm|CornerRadius=0.1575mm|HoleSize=0mm|Usage=FLASHONLY|Rotation=270.000|XOffset=0mm|YOffset=0mm|HoleType=Round|Shape=RoundedRectangle|*
%AMROUNDEDRECTD83*
21,1,0.50000,0.03500,0,0,270.0*
21,1,0.18500,0.35000,0,0,270.0*
1,1,0.31500,-0.01750,-0.09250*
1,1,0.31500,-0.01750,0.09250*
1,1,0.31500,0.01750,0.09250*
1,1,0.31500,0.01750,-0.09250*
%
%ADD83ROUNDEDRECTD83*%
%TA.AperFunction,OtherPad,Free Pad (25.55mm,26.25mm)*%
G04:AMPARAMS|DCode=84|XSize=0.73mm|YSize=0.73mm|CornerRadius=0.3285mm|HoleSize=0mm|Usage=FLASHONLY|Rotation=180.000|XOffset=0mm|YOffset=0mm|HoleType=Round|Shape=RoundedRectangle|*
%AMROUNDEDRECTD84*
21,1,0.73000,0.07300,0,0,180.0*
21,1,0.07300,0.73000,0,0,180.0*
1,1,0.65700,-0.03650,0.03650*
1,1,0.65700,0.03650,0.03650*
1,1,0.65700,0.03650,-0.03650*
1,1,0.65700,-0.03650,-0.03650*
%
%ADD84ROUNDEDRECTD84*%
%TA.AperFunction,OtherPad,Free Pad (23.95mm,26.25mm)*%
G04:AMPARAMS|DCode=85|XSize=0.73mm|YSize=0.73mm|CornerRadius=0.3285mm|HoleSize=0mm|Usage=FLASHONLY|Rotation=180.000|XOffset=0mm|YOffset=0mm|HoleType=Round|Shape=RoundedRectangle|*
%AMROUNDEDRECTD85*
21,1,0.73000,0.07300,0,0,180.0*
21,1,0.07300,0.73000,0,0,180.0*
1,1,0.65700,-0.03650,0.03650*
1,1,0.65700,0.03650,0.03650*
1,1,0.65700,0.03650,-0.03650*
1,1,0.65700,-0.03650,-0.03650*
%
%ADD85ROUNDEDRECTD85*%
%TA.AperFunction,OtherPad,Free Pad (20mm,14mm)*%
G04:AMPARAMS|DCode=86|XSize=1mm|YSize=1mm|CornerRadius=0.45mm|HoleSize=0mm|Usage=FLASHONLY|Rotation=180.000|XOffset=0mm|YOffset=0mm|HoleType=Round|Shape=RoundedRectangle|*
%AMROUNDEDRECTD86*
21,1,1.00000,0.10000,0,0,180.0*
21,1,0.10000,1.00000,0,0,180.0*
1,1,0.90000,-0.05000,0.05000*
1,1,0.90000,0.05000,0.05000*
1,1,0.90000,0.05000,-0.05000*
1,1,0.90000,-0.05000,-0.05000*
%
%ADD86ROUNDEDRECTD86*%
%TA.AperFunction,OtherPad,Free Pad (17mm,14mm)*%
G04:AMPARAMS|DCode=87|XSize=1mm|YSize=1mm|CornerRadius=0.45mm|HoleSize=0mm|Usage=FLASHONLY|Rotation=180.000|XOffset=0mm|YOffset=0mm|HoleType=Round|Shape=RoundedRectangle|*
%AMROUNDEDRECTD87*
21,1,1.00000,0.10000,0,0,180.0*
21,1,0.10000,1.00000,0,0,180.0*
1,1,0.90000,-0.05000,0.05000*
1,1,0.90000,0.05000,0.05000*
1,1,0.90000,0.05000,-0.05000*
1,1,0.90000,-0.05000,-0.05000*
%
%ADD87ROUNDEDRECTD87*%
%TA.AperFunction,OtherPad,Free Pad (41.5mm,33.32mm)*%
G04:AMPARAMS|DCode=88|XSize=0.44mm|YSize=0.27mm|CornerRadius=0.1215mm|HoleSize=0mm|Usage=FLASHONLY|Rotation=270.000|XOffset=0mm|YOffset=0mm|HoleType=Round|Shape=RoundedRectangle|*
%AMROUNDEDRECTD88*
21,1,0.44000,0.02700,0,0,270.0*
21,1,0.19700,0.27000,0,0,270.0*
1,1,0.24300,-0.01350,-0.09850*
1,1,0.24300,-0.01350,0.09850*
1,1,0.24300,0.01350,0.09850*
1,1,0.24300,0.01350,-0.09850*
%
%ADD88ROUNDEDRECTD88*%
%TA.AperFunction,OtherPad,Free Pad (42mm,33.32mm)*%
G04:AMPARAMS|DCode=89|XSize=0.44mm|YSize=0.27mm|CornerRadius=0.1215mm|HoleSize=0mm|Usage=FLASHONLY|Rotation=270.000|XOffset=0mm|YOffset=0mm|HoleType=Round|Shape=RoundedRectangle|*
%AMROUNDEDRECTD89*
21,1,0.44000,0.02700,0,0,270.0*
21,1,0.19700,0.27000,0,0,270.0*
1,1,0.24300,-0.01350,-0.09850*
1,1,0.24300,-0.01350,0.09850*
1,1,0.24300,0.01350,0.09850*
1,1,0.24300,0.01350,-0.09850*
%
%ADD89ROUNDEDRECTD89*%
%TA.AperFunction,OtherPad,Free Pad (42.5mm,33.32mm)*%
G04:AMPARAMS|DCode=90|XSize=0.44mm|YSize=0.27mm|CornerRadius=0.1215mm|HoleSize=0mm|Usage=FLASHONLY|Rotation=270.000|XOffset=0mm|YOffset=0mm|HoleType=Round|Shape=RoundedRectangle|*
%AMROUNDEDRECTD90*
21,1,0.44000,0.02700,0,0,270.0*
21,1,0.19700,0.27000,0,0,270.0*
1,1,0.24300,-0.01350,-0.09850*
1,1,0.24300,-0.01350,0.09850*
1,1,0.24300,0.01350,0.09850*
1,1,0.24300,0.01350,-0.09850*
%
%ADD90ROUNDEDRECTD90*%
%TA.AperFunction,OtherPad,Free Pad (43mm,33.32mm)*%
G04:AMPARAMS|DCode=91|XSize=0.44mm|YSize=0.27mm|CornerRadius=0.1215mm|HoleSize=0mm|Usage=FLASHONLY|Rotation=270.000|XOffset=0mm|YOffset=0mm|HoleType=Round|Shape=RoundedRectangle|*
%AMROUNDEDRECTD91*
21,1,0.44000,0.02700,0,0,270.0*
21,1,0.19700,0.27000,0,0,270.0*
1,1,0.24300,-0.01350,-0.09850*
1,1,0.24300,-0.01350,0.09850*
1,1,0.24300,0.01350,0.09850*
1,1,0.24300,0.01350,-0.09850*
%
%ADD91ROUNDEDRECTD91*%
%TA.AperFunction,OtherPad,Free Pad (43.65mm,32.67mm)*%
G04:AMPARAMS|DCode=92|XSize=0.44mm|YSize=0.27mm|CornerRadius=0.1215mm|HoleSize=0mm|Usage=FLASHONLY|Rotation=180.000|XOffset=0mm|YOffset=0mm|HoleType=Round|Shape=RoundedRectangle|*
%AMROUNDEDRECTD92*
21,1,0.44000,0.02700,0,0,180.0*
21,1,0.19700,0.27000,0,0,180.0*
1,1,0.24300,-0.09850,0.01350*
1,1,0.24300,0.09850,0.01350*
1,1,0.24300,0.09850,-0.01350*
1,1,0.24300,-0.09850,-0.01350*
%
%ADD92ROUNDEDRECTD92*%
%TA.AperFunction,OtherPad,Free Pad (43.65mm,32.17mm)*%
G04:AMPARAMS|DCode=93|XSize=0.44mm|YSize=0.27mm|CornerRadius=0.1215mm|HoleSize=0mm|Usage=FLASHONLY|Rotation=180.000|XOffset=0mm|YOffset=0mm|HoleType=Round|Shape=RoundedRectangle|*
%AMROUNDEDRECTD93*
21,1,0.44000,0.02700,0,0,180.0*
21,1,0.19700,0.27000,0,0,180.0*
1,1,0.24300,-0.09850,0.01350*
1,1,0.24300,0.09850,0.01350*
1,1,0.24300,0.09850,-0.01350*
1,1,0.24300,-0.09850,-0.01350*
%
%ADD93ROUNDEDRECTD93*%
%TA.AperFunction,OtherPad,Free Pad (43.65mm,31.67mm)*%
G04:AMPARAMS|DCode=94|XSize=0.44mm|YSize=0.27mm|CornerRadius=0.1215mm|HoleSize=0mm|Usage=FLASHONLY|Rotation=180.000|XOffset=0mm|YOffset=0mm|HoleType=Round|Shape=RoundedRectangle|*
%AMROUNDEDRECTD94*
21,1,0.44000,0.02700,0,0,180.0*
21,1,0.19700,0.27000,0,0,180.0*
1,1,0.24300,-0.09850,0.01350*
1,1,0.24300,0.09850,0.01350*
1,1,0.24300,0.09850,-0.01350*
1,1,0.24300,-0.09850,-0.01350*
%
%ADD94ROUNDEDRECTD94*%
%TA.AperFunction,OtherPad,Free Pad (43.65mm,31.17mm)*%
G04:AMPARAMS|DCode=95|XSize=0.44mm|YSize=0.27mm|CornerRadius=0.1215mm|HoleSize=0mm|Usage=FLASHONLY|Rotation=180.000|XOffset=0mm|YOffset=0mm|HoleType=Round|Shape=RoundedRectangle|*
%AMROUNDEDRECTD95*
21,1,0.44000,0.02700,0,0,180.0*
21,1,0.19700,0.27000,0,0,180.0*
1,1,0.24300,-0.09850,0.01350*
1,1,0.24300,0.09850,0.01350*
1,1,0.24300,0.09850,-0.01350*
1,1,0.24300,-0.09850,-0.01350*
%
%ADD95ROUNDEDRECTD95*%
%TA.AperFunction,OtherPad,Free Pad (43mm,30.52mm)*%
G04:AMPARAMS|DCode=96|XSize=0.44mm|YSize=0.27mm|CornerRadius=0.1215mm|HoleSize=0mm|Usage=FLASHONLY|Rotation=90.000|XOffset=0mm|YOffset=0mm|HoleType=Round|Shape=RoundedRectangle|*
%AMROUNDEDRECTD96*
21,1,0.44000,0.02700,0,0,90.0*
21,1,0.19700,0.27000,0,0,90.0*
1,1,0.24300,0.01350,0.09850*
1,1,0.24300,0.01350,-0.09850*
1,1,0.24300,-0.01350,-0.09850*
1,1,0.24300,-0.01350,0.09850*
%
%ADD96ROUNDEDRECTD96*%
%TA.AperFunction,OtherPad,Free Pad (42.5mm,30.52mm)*%
G04:AMPARAMS|DCode=97|XSize=0.44mm|YSize=0.27mm|CornerRadius=0.1215mm|HoleSize=0mm|Usage=FLASHONLY|Rotation=90.000|XOffset=0mm|YOffset=0mm|HoleType=Round|Shape=RoundedRectangle|*
%AMROUNDEDRECTD97*
21,1,0.44000,0.02700,0,0,90.0*
21,1,0.19700,0.27000,0,0,90.0*
1,1,0.24300,0.01350,0.09850*
1,1,0.24300,0.01350,-0.09850*
1,1,0.24300,-0.01350,-0.09850*
1,1,0.24300,-0.01350,0.09850*
%
%ADD97ROUNDEDRECTD97*%
%TA.AperFunction,OtherPad,Free Pad (42mm,30.52mm)*%
G04:AMPARAMS|DCode=98|XSize=0.44mm|YSize=0.27mm|CornerRadius=0.1215mm|HoleSize=0mm|Usage=FLASHONLY|Rotation=90.000|XOffset=0mm|YOffset=0mm|HoleType=Round|Shape=RoundedRectangle|*
%AMROUNDEDRECTD98*
21,1,0.44000,0.02700,0,0,90.0*
21,1,0.19700,0.27000,0,0,90.0*
1,1,0.24300,0.01350,0.09850*
1,1,0.24300,0.01350,-0.09850*
1,1,0.24300,-0.01350,-0.09850*
1,1,0.24300,-0.01350,0.09850*
%
%ADD98ROUNDEDRECTD98*%
%TA.AperFunction,OtherPad,Free Pad (41.5mm,30.52mm)*%
G04:AMPARAMS|DCode=99|XSize=0.44mm|YSize=0.27mm|CornerRadius=0.1215mm|HoleSize=0mm|Usage=FLASHONLY|Rotation=90.000|XOffset=0mm|YOffset=0mm|HoleType=Round|Shape=RoundedRectangle|*
%AMROUNDEDRECTD99*
21,1,0.44000,0.02700,0,0,90.0*
21,1,0.19700,0.27000,0,0,90.0*
1,1,0.24300,0.01350,0.09850*
1,1,0.24300,0.01350,-0.09850*
1,1,0.24300,-0.01350,-0.09850*
1,1,0.24300,-0.01350,0.09850*
%
%ADD99ROUNDEDRECTD99*%
%TA.AperFunction,OtherPad,Free Pad (40.85mm,31.17mm)*%
G04:AMPARAMS|DCode=100|XSize=0.44mm|YSize=0.27mm|CornerRadius=0.1215mm|HoleSize=0mm|Usage=FLASHONLY|Rotation=0.000|XOffset=0mm|YOffset=0mm|HoleType=Round|Shape=RoundedRectangle|*
%AMROUNDEDRECTD100*
21,1,0.44000,0.02700,0,0,0.0*
21,1,0.19700,0.27000,0,0,0.0*
1,1,0.24300,0.09850,-0.01350*
1,1,0.24300,-0.09850,-0.01350*
1,1,0.24300,-0.09850,0.01350*
1,1,0.24300,0.09850,0.01350*
%
%ADD100ROUNDEDRECTD100*%
%TA.AperFunction,OtherPad,Free Pad (40.85mm,31.67mm)*%
G04:AMPARAMS|DCode=101|XSize=0.44mm|YSize=0.27mm|CornerRadius=0.1215mm|HoleSize=0mm|Usage=FLASHONLY|Rotation=0.000|XOffset=0mm|YOffset=0mm|HoleType=Round|Shape=RoundedRectangle|*
%AMROUNDEDRECTD101*
21,1,0.44000,0.02700,0,0,0.0*
21,1,0.19700,0.27000,0,0,0.0*
1,1,0.24300,0.09850,-0.01350*
1,1,0.24300,-0.09850,-0.01350*
1,1,0.24300,-0.09850,0.01350*
1,1,0.24300,0.09850,0.01350*
%
%ADD101ROUNDEDRECTD101*%
%TA.AperFunction,OtherPad,Free Pad (40.85mm,32.17mm)*%
G04:AMPARAMS|DCode=102|XSize=0.44mm|YSize=0.27mm|CornerRadius=0.1215mm|HoleSize=0mm|Usage=FLASHONLY|Rotation=0.000|XOffset=0mm|YOffset=0mm|HoleType=Round|Shape=RoundedRectangle|*
%AMROUNDEDRECTD102*
21,1,0.44000,0.02700,0,0,0.0*
21,1,0.19700,0.27000,0,0,0.0*
1,1,0.24300,0.09850,-0.01350*
1,1,0.24300,-0.09850,-0.01350*
1,1,0.24300,-0.09850,0.01350*
1,1,0.24300,0.09850,0.01350*
%
%ADD102ROUNDEDRECTD102*%
%TA.AperFunction,OtherPad,Free Pad (40.85mm,32.67mm)*%
G04:AMPARAMS|DCode=103|XSize=0.44mm|YSize=0.27mm|CornerRadius=0.1215mm|HoleSize=0mm|Usage=FLASHONLY|Rotation=0.000|XOffset=0mm|YOffset=0mm|HoleType=Round|Shape=RoundedRectangle|*
%AMROUNDEDRECTD103*
21,1,0.44000,0.02700,0,0,0.0*
21,1,0.19700,0.27000,0,0,0.0*
1,1,0.24300,0.09850,-0.01350*
1,1,0.24300,-0.09850,-0.01350*
1,1,0.24300,-0.09850,0.01350*
1,1,0.24300,0.09850,0.01350*
%
%ADD103ROUNDEDRECTD103*%
%TA.AperFunction,OtherPad,Free Pad (44.15mm,15.3mm)*%
G04:AMPARAMS|DCode=104|XSize=0.73mm|YSize=0.73mm|CornerRadius=0.3285mm|HoleSize=0mm|Usage=FLASHONLY|Rotation=180.000|XOffset=0mm|YOffset=0mm|HoleType=Round|Shape=RoundedRectangle|*
%AMROUNDEDRECTD104*
21,1,0.73000,0.07300,0,0,180.0*
21,1,0.07300,0.73000,0,0,180.0*
1,1,0.65700,-0.03650,0.03650*
1,1,0.65700,0.03650,0.03650*
1,1,0.65700,0.03650,-0.03650*
1,1,0.65700,-0.03650,-0.03650*
%
%ADD104ROUNDEDRECTD104*%
%TA.AperFunction,OtherPad,Free Pad (42.55mm,15.3mm)*%
G04:AMPARAMS|DCode=105|XSize=0.73mm|YSize=0.73mm|CornerRadius=0.3285mm|HoleSize=0mm|Usage=FLASHONLY|Rotation=180.000|XOffset=0mm|YOffset=0mm|HoleType=Round|Shape=RoundedRectangle|*
%AMROUNDEDRECTD105*
21,1,0.73000,0.07300,0,0,180.0*
21,1,0.07300,0.73000,0,0,180.0*
1,1,0.65700,-0.03650,0.03650*
1,1,0.65700,0.03650,0.03650*
1,1,0.65700,0.03650,-0.03650*
1,1,0.65700,-0.03650,-0.03650*
%
%ADD105ROUNDEDRECTD105*%
%TA.AperFunction,SMDPad,CuDef*%
G04:AMPARAMS|DCode=106|XSize=0.51315mm|YSize=0.61315mm|CornerRadius=0.10658mm|HoleSize=0mm|Usage=FLASHONLY|Rotation=270.000|XOffset=0mm|YOffset=0mm|HoleType=Round|Shape=RoundedRectangle|*
%AMROUNDEDRECTD106*
21,1,0.51315,0.40000,0,0,270.0*
21,1,0.30000,0.61315,0,0,270.0*
1,1,0.21315,-0.20000,-0.15000*
1,1,0.21315,-0.20000,0.15000*
1,1,0.21315,0.20000,0.15000*
1,1,0.21315,0.20000,-0.15000*
%
%ADD106ROUNDEDRECTD106*%
G04:AMPARAMS|DCode=107|XSize=0.53666mm|YSize=0.53666mm|CornerRadius=0.11833mm|HoleSize=0mm|Usage=FLASHONLY|Rotation=270.000|XOffset=0mm|YOffset=0mm|HoleType=Round|Shape=RoundedRectangle|*
%AMROUNDEDRECTD107*
21,1,0.53666,0.30000,0,0,270.0*
21,1,0.30000,0.53666,0,0,270.0*
1,1,0.23666,-0.15000,-0.15000*
1,1,0.23666,-0.15000,0.15000*
1,1,0.23666,0.15000,0.15000*
1,1,0.23666,0.15000,-0.15000*
%
%ADD107ROUNDEDRECTD107*%
G04:AMPARAMS|DCode=108|XSize=0.53666mm|YSize=0.53666mm|CornerRadius=0.11833mm|HoleSize=0mm|Usage=FLASHONLY|Rotation=0.000|XOffset=0mm|YOffset=0mm|HoleType=Round|Shape=RoundedRectangle|*
%AMROUNDEDRECTD108*
21,1,0.53666,0.30000,0,0,0.0*
21,1,0.30000,0.53666,0,0,0.0*
1,1,0.23666,0.15000,-0.15000*
1,1,0.23666,-0.15000,-0.15000*
1,1,0.23666,-0.15000,0.15000*
1,1,0.23666,0.15000,0.15000*
%
%ADD108ROUNDEDRECTD108*%
G04:AMPARAMS|DCode=109|XSize=0.51315mm|YSize=0.61315mm|CornerRadius=0.10658mm|HoleSize=0mm|Usage=FLASHONLY|Rotation=0.000|XOffset=0mm|YOffset=0mm|HoleType=Round|Shape=RoundedRectangle|*
%AMROUNDEDRECTD109*
21,1,0.51315,0.40000,0,0,0.0*
21,1,0.30000,0.61315,0,0,0.0*
1,1,0.21315,0.15000,-0.20000*
1,1,0.21315,-0.15000,-0.20000*
1,1,0.21315,-0.15000,0.20000*
1,1,0.21315,0.15000,0.20000*
%
%ADD109ROUNDEDRECTD109*%
G04:AMPARAMS|DCode=110|XSize=0.64749mm|YSize=1.19749mm|CornerRadius=0.12375mm|HoleSize=0mm|Usage=FLASHONLY|Rotation=90.000|XOffset=0mm|YOffset=0mm|HoleType=Round|Shape=RoundedRectangle|*
%AMROUNDEDRECTD110*
21,1,0.64749,0.95000,0,0,90.0*
21,1,0.40000,1.19749,0,0,90.0*
1,1,0.24749,0.47500,0.20000*
1,1,0.24749,0.47500,-0.20000*
1,1,0.24749,-0.47500,-0.20000*
1,1,0.24749,-0.47500,0.20000*
%
%ADD110ROUNDEDRECTD110*%
G04:AMPARAMS|DCode=111|XSize=0.64419mm|YSize=0.5442mm|CornerRadius=0.1096mm|HoleSize=0mm|Usage=FLASHONLY|Rotation=0.000|XOffset=0mm|YOffset=0mm|HoleType=Round|Shape=RoundedRectangle|*
%AMROUNDEDRECTD111*
21,1,0.64419,0.32500,0,0,0.0*
21,1,0.42500,0.54420,0,0,0.0*
1,1,0.21919,0.21250,-0.16250*
1,1,0.21919,-0.21250,-0.16250*
1,1,0.21919,-0.21250,0.16250*
1,1,0.21919,0.21250,0.16250*
%
%ADD111ROUNDEDRECTD111*%
G04:AMPARAMS|DCode=112|XSize=0.88741mm|YSize=0.88741mm|CornerRadius=0.06871mm|HoleSize=0mm|Usage=FLASHONLY|Rotation=0.000|XOffset=0mm|YOffset=0mm|HoleType=Round|Shape=RoundedRectangle|*
%AMROUNDEDRECTD112*
21,1,0.88741,0.75000,0,0,0.0*
21,1,0.75000,0.88741,0,0,0.0*
1,1,0.13741,0.37500,-0.37500*
1,1,0.13741,-0.37500,-0.37500*
1,1,0.13741,-0.37500,0.37500*
1,1,0.13741,0.37500,0.37500*
%
%ADD112ROUNDEDRECTD112*%
G04:AMPARAMS|DCode=113|XSize=0.64749mm|YSize=1.19749mm|CornerRadius=0.12375mm|HoleSize=0mm|Usage=FLASHONLY|Rotation=180.000|XOffset=0mm|YOffset=0mm|HoleType=Round|Shape=RoundedRectangle|*
%AMROUNDEDRECTD113*
21,1,0.64749,0.95000,0,0,180.0*
21,1,0.40000,1.19749,0,0,180.0*
1,1,0.24749,-0.20000,0.47500*
1,1,0.24749,0.20000,0.47500*
1,1,0.24749,0.20000,-0.47500*
1,1,0.24749,-0.20000,-0.47500*
%
%ADD113ROUNDEDRECTD113*%
G04:AMPARAMS|DCode=114|XSize=1.45862mm|YSize=1.05862mm|CornerRadius=0.21681mm|HoleSize=0mm|Usage=FLASHONLY|Rotation=0.000|XOffset=0mm|YOffset=0mm|HoleType=Round|Shape=RoundedRectangle|*
%AMROUNDEDRECTD114*
21,1,1.45862,0.62500,0,0,0.0*
21,1,1.02500,1.05862,0,0,0.0*
1,1,0.43362,0.51250,-0.31250*
1,1,0.43362,-0.51250,-0.31250*
1,1,0.43362,-0.51250,0.31250*
1,1,0.43362,0.51250,0.31250*
%
%ADD114ROUNDEDRECTD114*%
D11*
X1819998Y3569996D02*
D03*
D63*
X2824476Y1939996D02*
G03*
X2824476Y1939996I-7250J0D01*
G01*
X2974476Y2314996D02*
G03*
X2974476Y2314996I-7250J0D01*
G01*
X3024476D02*
G03*
X3024476Y2314996I-7250J0D01*
G01*
X3374476D02*
G03*
X3374476Y2314996I-7250J0D01*
G01*
X3324476D02*
G03*
X3324476Y2314996I-7250J0D01*
G01*
X3274476D02*
G03*
X3274476Y2314996I-7250J0D01*
G01*
X3224476D02*
G03*
X3224476Y2314996I-7250J0D01*
G01*
X3174476D02*
G03*
X3174476Y2314996I-7250J0D01*
G01*
X3124476D02*
G03*
X3124476Y2314996I-7250J0D01*
G01*
X3074476Y1664995D02*
G03*
X3074476Y1664995I-7250J0D01*
G01*
X2899476Y1714996D02*
G03*
X2899476Y1714996I-7250J0D01*
G01*
X2999476D02*
G03*
X2999476Y1714996I-7250J0D01*
G01*
X3049476D02*
G03*
X3049476Y1714996I-7250J0D01*
G01*
X2824476Y1664995D02*
G03*
X2824476Y1664995I-7250J0D01*
G01*
X2874476D02*
G03*
X2874476Y1664995I-7250J0D01*
G01*
X2924476D02*
G03*
X2924476Y1664995I-7250J0D01*
G01*
X2974476D02*
G03*
X2974476Y1664995I-7250J0D01*
G01*
X3024476D02*
G03*
X3024476Y1664995I-7250J0D01*
G01*
X3374476D02*
G03*
X3374476Y1664995I-7250J0D01*
G01*
X3324476D02*
G03*
X3324476Y1664995I-7250J0D01*
G01*
X3274476D02*
G03*
X3274476Y1664995I-7250J0D01*
G01*
X3224476D02*
G03*
X3224476Y1664995I-7250J0D01*
G01*
X3174476D02*
G03*
X3174476Y1664995I-7250J0D01*
G01*
X3124476D02*
G03*
X3124476Y1664995I-7250J0D01*
G01*
X3424476Y1714996D02*
G03*
X3424476Y1714996I-7250J0D01*
G01*
X3299476D02*
G03*
X3299476Y1714996I-7250J0D01*
G01*
X3249476D02*
G03*
X3249476Y1714996I-7250J0D01*
G01*
X3199476D02*
G03*
X3199476Y1714996I-7250J0D01*
G01*
X3149476D02*
G03*
X3149476Y1714996I-7250J0D01*
G01*
X3099476D02*
G03*
X3099476Y1714996I-7250J0D01*
G01*
Y2264995D02*
G03*
X3099476Y2264995I-7250J0D01*
G01*
X2849476D02*
G03*
X2849476Y2264995I-7250J0D01*
G01*
X2899476D02*
G03*
X2899476Y2264995I-7250J0D01*
G01*
X2949476D02*
G03*
X2949476Y2264995I-7250J0D01*
G01*
X2999476D02*
G03*
X2999476Y2264995I-7250J0D01*
G01*
X3049476D02*
G03*
X3049476Y2264995I-7250J0D01*
G01*
X3424476D02*
G03*
X3424476Y2264995I-7250J0D01*
G01*
X3249476D02*
G03*
X3249476Y2264995I-7250J0D01*
G01*
X3199476D02*
G03*
X3199476Y2264995I-7250J0D01*
G01*
X3149476D02*
G03*
X3149476Y2264995I-7250J0D01*
G01*
X3074476Y2314996D02*
G03*
X3074476Y2314996I-7250J0D01*
G01*
X2824476Y1739996D02*
G03*
X2824476Y1739996I-7250J0D01*
G01*
Y1789995D02*
G03*
X2824476Y1789995I-7250J0D01*
G01*
X2774476Y1814996D02*
G03*
X2774476Y1814996I-7250J0D01*
G01*
Y1864996D02*
G03*
X2774476Y1864996I-7250J0D01*
G01*
X2824476Y1889995D02*
G03*
X2824476Y1889995I-7250J0D01*
G01*
X2774476Y1914995D02*
G03*
X2774476Y1914995I-7250J0D01*
G01*
Y1964996D02*
G03*
X2774476Y1964996I-7250J0D01*
G01*
X2824476Y1989996D02*
G03*
X2824476Y1989996I-7250J0D01*
G01*
X2774476Y2014995D02*
G03*
X2774476Y2014995I-7250J0D01*
G01*
X2824476Y2039995D02*
G03*
X2824476Y2039995I-7250J0D01*
G01*
X2774476Y2064996D02*
G03*
X2774476Y2064996I-7250J0D01*
G01*
X2824476Y2089996D02*
G03*
X2824476Y2089996I-7250J0D01*
G01*
X2774476Y2114996D02*
G03*
X2774476Y2114996I-7250J0D01*
G01*
X2824476Y2139995D02*
G03*
X2824476Y2139995I-7250J0D01*
G01*
Y2189996D02*
G03*
X2824476Y2189996I-7250J0D01*
G01*
X2774476Y2214996D02*
G03*
X2774476Y2214996I-7250J0D01*
G01*
Y2264995D02*
G03*
X2774476Y2264995I-7250J0D01*
G01*
X3374476Y1939996D02*
G03*
X3374476Y1939996I-7250J0D01*
G01*
Y1789995D02*
G03*
X3374476Y1789995I-7250J0D01*
G01*
Y1889995D02*
G03*
X3374476Y1889995I-7250J0D01*
G01*
Y2089996D02*
G03*
X3374476Y2089996I-7250J0D01*
G01*
Y2139995D02*
G03*
X3374476Y2139995I-7250J0D01*
G01*
Y2189996D02*
G03*
X3374476Y2189996I-7250J0D01*
G01*
X3424476Y1814996D02*
G03*
X3424476Y1814996I-7250J0D01*
G01*
Y1864996D02*
G03*
X3424476Y1864996I-7250J0D01*
G01*
Y1914995D02*
G03*
X3424476Y1914995I-7250J0D01*
G01*
Y1964996D02*
G03*
X3424476Y1964996I-7250J0D01*
G01*
Y2014995D02*
G03*
X3424476Y2014995I-7250J0D01*
G01*
Y2064996D02*
G03*
X3424476Y2064996I-7250J0D01*
G01*
Y2164995D02*
G03*
X3424476Y2164995I-7250J0D01*
G01*
X3374470Y1839996D02*
G03*
X3374470Y1839996I-7250J0D01*
G01*
X3424476Y1764995D02*
G03*
X3424476Y1764995I-7250J0D01*
G01*
D64*
X2831998Y3519996D02*
G03*
X2831998Y3519996I-7000J0D01*
G01*
X2881998D02*
G03*
X2881998Y3519996I-7000J0D01*
G01*
X2931998D02*
G03*
X2931998Y3519996I-7000J0D01*
G01*
X2981998D02*
G03*
X2981998Y3519996I-7000J0D01*
G01*
X3031999D02*
G03*
X3031999Y3519996I-7000J0D01*
G01*
X3081998D02*
G03*
X3081998Y3519996I-7000J0D01*
G01*
X3131998D02*
G03*
X3131998Y3519996I-7000J0D01*
G01*
X3181998D02*
G03*
X3181998Y3519996I-7000J0D01*
G01*
X3231998D02*
G03*
X3231998Y3519996I-7000J0D01*
G01*
X3281999D02*
G03*
X3281999Y3519996I-7000J0D01*
G01*
X3331998D02*
G03*
X3331998Y3519996I-7000J0D01*
G01*
X2831998Y3469996D02*
G03*
X2831998Y3469996I-7000J0D01*
G01*
X2881998D02*
G03*
X2881998Y3469996I-7000J0D01*
G01*
X2931998D02*
G03*
X2931998Y3469996I-7000J0D01*
G01*
X2981998D02*
G03*
X2981998Y3469996I-7000J0D01*
G01*
X3031999D02*
G03*
X3031999Y3469996I-7000J0D01*
G01*
X3081998D02*
G03*
X3081998Y3469996I-7000J0D01*
G01*
X3131998D02*
G03*
X3131998Y3469996I-7000J0D01*
G01*
X3181998D02*
G03*
X3181998Y3469996I-7000J0D01*
G01*
X3231998D02*
G03*
X3231998Y3469996I-7000J0D01*
G01*
X3331998D02*
G03*
X3331998Y3469996I-7000J0D01*
G01*
X2831998Y3419996D02*
G03*
X2831998Y3419996I-7000J0D01*
G01*
X2881998D02*
G03*
X2881998Y3419996I-7000J0D01*
G01*
X3281999D02*
G03*
X3281999Y3419996I-7000J0D01*
G01*
X3331998D02*
G03*
X3331998Y3419996I-7000J0D01*
G01*
X2831998Y3369996D02*
G03*
X2831998Y3369996I-7000J0D01*
G01*
X2881998D02*
G03*
X2881998Y3369996I-7000J0D01*
G01*
X2981998D02*
G03*
X2981998Y3369996I-7000J0D01*
G01*
X3031999D02*
G03*
X3031999Y3369996I-7000J0D01*
G01*
X3081998D02*
G03*
X3081998Y3369996I-7000J0D01*
G01*
X3131998D02*
G03*
X3131998Y3369996I-7000J0D01*
G01*
X3181998D02*
G03*
X3181998Y3369996I-7000J0D01*
G01*
X3281999D02*
G03*
X3281999Y3369996I-7000J0D01*
G01*
X3331998D02*
G03*
X3331998Y3369996I-7000J0D01*
G01*
X2831998Y3319996D02*
G03*
X2831998Y3319996I-7000J0D01*
G01*
X2881998D02*
G03*
X2881998Y3319996I-7000J0D01*
G01*
X2981998D02*
G03*
X2981998Y3319996I-7000J0D01*
G01*
X3181998D02*
G03*
X3181998Y3319996I-7000J0D01*
G01*
X3281999D02*
G03*
X3281999Y3319996I-7000J0D01*
G01*
X3331998D02*
G03*
X3331998Y3319996I-7000J0D01*
G01*
X2831998Y3269996D02*
G03*
X2831998Y3269996I-7000J0D01*
G01*
X2881998D02*
G03*
X2881998Y3269996I-7000J0D01*
G01*
X2981998D02*
G03*
X2981998Y3269996I-7000J0D01*
G01*
X3181998D02*
G03*
X3181998Y3269996I-7000J0D01*
G01*
X3281999D02*
G03*
X3281999Y3269996I-7000J0D01*
G01*
X3331998D02*
G03*
X3331998Y3269996I-7000J0D01*
G01*
X2831998Y3219996D02*
G03*
X2831998Y3219996I-7000J0D01*
G01*
X2881998D02*
G03*
X2881998Y3219996I-7000J0D01*
G01*
X2981998D02*
G03*
X2981998Y3219996I-7000J0D01*
G01*
X3181998D02*
G03*
X3181998Y3219996I-7000J0D01*
G01*
X3281999D02*
G03*
X3281999Y3219996I-7000J0D01*
G01*
X3331998D02*
G03*
X3331998Y3219996I-7000J0D01*
G01*
X2831998Y3169996D02*
G03*
X2831998Y3169996I-7000J0D01*
G01*
X2881998D02*
G03*
X2881998Y3169996I-7000J0D01*
G01*
X2981998D02*
G03*
X2981998Y3169996I-7000J0D01*
G01*
X3031999D02*
G03*
X3031999Y3169996I-7000J0D01*
G01*
X3081998D02*
G03*
X3081998Y3169996I-7000J0D01*
G01*
X3131998D02*
G03*
X3131998Y3169996I-7000J0D01*
G01*
X3181998D02*
G03*
X3181998Y3169996I-7000J0D01*
G01*
X3281999D02*
G03*
X3281999Y3169996I-7000J0D01*
G01*
X3331998D02*
G03*
X3331998Y3169996I-7000J0D01*
G01*
X2831998Y3119996D02*
G03*
X2831998Y3119996I-7000J0D01*
G01*
X2881998D02*
G03*
X2881998Y3119996I-7000J0D01*
G01*
X3281999D02*
G03*
X3281999Y3119996I-7000J0D01*
G01*
X3331998D02*
G03*
X3331998Y3119996I-7000J0D01*
G01*
X2831998Y3069996D02*
G03*
X2831998Y3069996I-7000J0D01*
G01*
X2881998D02*
G03*
X2881998Y3069996I-7000J0D01*
G01*
X2931998D02*
G03*
X2931998Y3069996I-7000J0D01*
G01*
X2981998D02*
G03*
X2981998Y3069996I-7000J0D01*
G01*
X3031999D02*
G03*
X3031999Y3069996I-7000J0D01*
G01*
X3081998D02*
G03*
X3081998Y3069996I-7000J0D01*
G01*
X3131998D02*
G03*
X3131998Y3069996I-7000J0D01*
G01*
X3181998D02*
G03*
X3181998Y3069996I-7000J0D01*
G01*
X3231998D02*
G03*
X3231998Y3069996I-7000J0D01*
G01*
X3331998D02*
G03*
X3331998Y3069996I-7000J0D01*
G01*
X2831998Y3019996D02*
G03*
X2831998Y3019996I-7000J0D01*
G01*
X2881998D02*
G03*
X2881998Y3019996I-7000J0D01*
G01*
X2931998D02*
G03*
X2931998Y3019996I-7000J0D01*
G01*
X2981998D02*
G03*
X2981998Y3019996I-7000J0D01*
G01*
X3031999D02*
G03*
X3031999Y3019996I-7000J0D01*
G01*
X3081998D02*
G03*
X3081998Y3019996I-7000J0D01*
G01*
X3131998D02*
G03*
X3131998Y3019996I-7000J0D01*
G01*
X3181998D02*
G03*
X3181998Y3019996I-7000J0D01*
G01*
X3231998D02*
G03*
X3231998Y3019996I-7000J0D01*
G01*
X3281999D02*
G03*
X3281999Y3019996I-7000J0D01*
G01*
X3331998D02*
G03*
X3331998Y3019996I-7000J0D01*
G01*
X3281999Y3469996D02*
G03*
X3281999Y3469996I-7000J0D01*
G01*
D65*
X1689996Y3464996D02*
D03*
D66*
X1819998D02*
D03*
D67*
X1689996Y3664995D02*
D03*
D68*
X1754995D02*
D03*
D69*
X1819998D02*
D03*
D70*
X3092227Y1989995D02*
D03*
D71*
X3262224D02*
D03*
D72*
X3092227Y1819998D02*
D03*
D73*
X2922225Y1989995D02*
D03*
D74*
X3092227Y2159997D02*
D03*
D75*
X3262224D02*
D03*
D76*
Y1819998D02*
D03*
D77*
X2922225D02*
D03*
D78*
Y2159997D02*
D03*
D79*
X2029997Y3369995D02*
D03*
D80*
X2160000D02*
D03*
D81*
X2029997Y3569995D02*
D03*
D82*
X2094996D02*
D03*
D83*
X2160000D02*
D03*
D84*
X2554997Y2624996D02*
D03*
D85*
X2394997D02*
D03*
D86*
X1999997Y1399993D02*
D03*
D87*
X1699998D02*
D03*
D88*
X4149998Y3331995D02*
D03*
D89*
X4200000D02*
D03*
D90*
X4249998D02*
D03*
D91*
X4300000D02*
D03*
D92*
X4364999Y3266997D02*
D03*
D93*
Y3216994D02*
D03*
D94*
Y3166997D02*
D03*
D95*
Y3116994D02*
D03*
D96*
X4300000Y3051996D02*
D03*
D97*
X4249998D02*
D03*
D98*
X4200000D02*
D03*
D99*
X4149998D02*
D03*
D100*
X4084999Y3116994D02*
D03*
D101*
Y3166997D02*
D03*
D102*
Y3216994D02*
D03*
D103*
Y3266997D02*
D03*
D104*
X4414997Y1529995D02*
D03*
D105*
X4254997D02*
D03*
D106*
X3725000Y1449995D02*
D03*
X3945000Y1544996D02*
D03*
Y1354993D02*
D03*
D107*
X3874997Y2804997D02*
D03*
X3974997D02*
D03*
X3875001Y2904996D02*
D03*
X3975000D02*
D03*
X2329997Y1969995D02*
D03*
X2229997D02*
D03*
X2664997Y3569995D02*
D03*
X2564997D02*
D03*
X4149998Y1344996D02*
D03*
X4049999D02*
D03*
X2329997Y2369993D02*
D03*
X2229997D02*
D03*
Y2069995D02*
D03*
X2329997D02*
D03*
X2229997Y2269996D02*
D03*
X2329997D02*
D03*
Y2169995D02*
D03*
X2229997D02*
D03*
X4049999Y1444996D02*
D03*
X4149998D02*
D03*
X4264999Y1414995D02*
D03*
X4364999D02*
D03*
X4150000Y1544995D02*
D03*
X4050000D02*
D03*
X1759999Y2894997D02*
D03*
X1659999D02*
D03*
X1759997Y2994998D02*
D03*
X1659997D02*
D03*
X2249997Y1769995D02*
D03*
X2349997D02*
D03*
X2349999Y1669994D02*
D03*
X2250000D02*
D03*
X2350000Y1569996D02*
D03*
X2250000D02*
D03*
X2229997Y1869995D02*
D03*
X2329997D02*
D03*
X2654999Y1734997D02*
D03*
X2554999D02*
D03*
X1659997Y2354996D02*
D03*
X1759997D02*
D03*
X1659997Y2254997D02*
D03*
X1759997D02*
D03*
X1959999Y2424994D02*
D03*
X1859999D02*
D03*
X1959999Y2624996D02*
D03*
X1859999D02*
D03*
X1959997Y2724996D02*
D03*
X1859997D02*
D03*
X1659999Y2574996D02*
D03*
X1759999D02*
D03*
X1760000Y2474994D02*
D03*
X1660000D02*
D03*
X1659997Y2674995D02*
D03*
X1759997D02*
D03*
X1659999Y2774995D02*
D03*
X1759999D02*
D03*
X1959996Y2524994D02*
D03*
X1859997D02*
D03*
X4019999Y2604998D02*
D03*
X4119999D02*
D03*
Y2704998D02*
D03*
X4019999D02*
D03*
X1859999Y2854993D02*
D03*
X1959999D02*
D03*
X2564999Y3469997D02*
D03*
X2664999D02*
D03*
X2579997Y3669998D02*
D03*
X2679996D02*
D03*
X1660000Y3109996D02*
D03*
X1760000D02*
D03*
X3560000Y3364997D02*
D03*
X3460000D02*
D03*
X1659997Y2054996D02*
D03*
X1759997D02*
D03*
X1659998Y2154996D02*
D03*
X1759998D02*
D03*
X3644999Y1634996D02*
D03*
X3544999D02*
D03*
X3644999Y1734996D02*
D03*
X3544999D02*
D03*
X3530001Y1849995D02*
D03*
X3630001D02*
D03*
X3630000Y2269994D02*
D03*
X3530001D02*
D03*
X3625001Y2369993D02*
D03*
X3525001D02*
D03*
X3630001Y1949994D02*
D03*
X3530001D02*
D03*
X3620000Y2054994D02*
D03*
X3720000D02*
D03*
X4010000D02*
D03*
X3910000D02*
D03*
X2554998Y1834998D02*
D03*
X2654998D02*
D03*
X4129997Y3659995D02*
D03*
X4229997D02*
D03*
X4029997D02*
D03*
X3929997D02*
D03*
X1784997Y3359995D02*
D03*
X1684997D02*
D03*
X2365001Y3664994D02*
D03*
X2265001D02*
D03*
X2044999Y3664997D02*
D03*
X2144999D02*
D03*
X2265001Y3554997D02*
D03*
X2365001D02*
D03*
X2264998Y3334993D02*
D03*
X2364998D02*
D03*
X2365001Y3444995D02*
D03*
X2265001D02*
D03*
X3452998Y3129997D02*
D03*
X3552998D02*
D03*
X2689997Y2984994D02*
D03*
X2589997D02*
D03*
X1760000Y1854995D02*
D03*
X1660000D02*
D03*
X1760000Y1954995D02*
D03*
X1660000D02*
D03*
X2504999Y2509996D02*
D03*
X2404999D02*
D03*
X2830001Y3669998D02*
D03*
X2930001D02*
D03*
X3552998Y3229997D02*
D03*
X3452998D02*
D03*
X3460001Y3664997D02*
D03*
X3560001D02*
D03*
X3459998Y3464998D02*
D03*
X3559998D02*
D03*
X3460001Y3564997D02*
D03*
X3560001D02*
D03*
D108*
X3124998Y2899996D02*
D03*
Y2799996D02*
D03*
X2079998Y1974995D02*
D03*
Y2074995D02*
D03*
X2845001Y1429994D02*
D03*
Y1529993D02*
D03*
X2955001Y1509994D02*
D03*
Y1409994D02*
D03*
X3254998Y1524996D02*
D03*
Y1424997D02*
D03*
X3155001Y1424996D02*
D03*
Y1524996D02*
D03*
X2640000Y1544994D02*
D03*
Y1444994D02*
D03*
X2740001Y1544996D02*
D03*
Y1444996D02*
D03*
X1980000Y1974997D02*
D03*
Y2074997D02*
D03*
X4174999Y2904997D02*
D03*
Y2804997D02*
D03*
X4075000Y2904997D02*
D03*
Y2804997D02*
D03*
X4274998D02*
D03*
Y2904997D02*
D03*
X4374996Y2904996D02*
D03*
Y2804997D02*
D03*
X3574998Y1524994D02*
D03*
Y1424994D02*
D03*
X3354998Y1424995D02*
D03*
Y1524994D02*
D03*
X2794999Y2539993D02*
D03*
Y2439993D02*
D03*
X3054998Y2439996D02*
D03*
Y2539996D02*
D03*
X3264997Y2539997D02*
D03*
Y2439997D02*
D03*
X3815000Y2154994D02*
D03*
Y2054994D02*
D03*
X3530001Y2154994D02*
D03*
Y2054994D02*
D03*
X2454996Y2029995D02*
D03*
Y2129994D02*
D03*
Y2329994D02*
D03*
Y2229995D02*
D03*
X2900000Y2539996D02*
D03*
Y2439996D02*
D03*
X3054998Y1424996D02*
D03*
Y1524995D02*
D03*
X3460001Y1424995D02*
D03*
Y1524995D02*
D03*
X3158532Y2539997D02*
D03*
Y2439997D02*
D03*
X3379999Y2539996D02*
D03*
Y2439996D02*
D03*
X2690001Y2539996D02*
D03*
Y2439996D02*
D03*
X4399999Y3571995D02*
D03*
Y3471995D02*
D03*
X4299999Y3571995D02*
D03*
Y3471995D02*
D03*
X1924996Y3664994D02*
D03*
Y3564995D02*
D03*
Y3354998D02*
D03*
Y3454997D02*
D03*
X3024998Y2899996D02*
D03*
Y2799996D02*
D03*
X2924998Y2899996D02*
D03*
Y2799996D02*
D03*
X3324998Y2884995D02*
D03*
Y2784995D02*
D03*
X3224998Y2899995D02*
D03*
Y2799995D02*
D03*
X1879999Y1974994D02*
D03*
Y2074993D02*
D03*
X3434998Y2899996D02*
D03*
Y2799996D02*
D03*
X2129998Y1449995D02*
D03*
Y1349995D02*
D03*
X2529998Y3179996D02*
D03*
Y3079996D02*
D03*
Y3274996D02*
D03*
Y3374996D02*
D03*
D109*
X1990001Y1654997D02*
D03*
X1895000Y1874997D02*
D03*
X2084997D02*
D03*
D110*
X2662997Y3094994D02*
D03*
Y3334994D02*
D03*
X2594996Y2069995D02*
D03*
Y2309995D02*
D03*
D111*
X3485001Y2569993D02*
D03*
X3625001D02*
D03*
Y2469994D02*
D03*
X3485001D02*
D03*
D112*
X4224999Y3191995D02*
D03*
D113*
X4199999Y3511995D02*
D03*
X3960000D02*
D03*
D114*
X3885000Y3054996D02*
D03*
Y3334996D02*
D03*
%TF.MD5,418f43d361fed22bdbb445b3146a2213*%
M02*
