%TF.GenerationSoftware,Altium Limited,Altium Designer,23.3.1 (30)*%
G04 Layer_Color=0*
%FSLAX45Y45*%
%MOMM*%
%TF.SameCoordinates,B56B3050-E4CE-4FE9-8081-1B6FDF6B35C2*%
%TF.FilePolarity,Positive*%
%TF.FileFunction,Plated,1,4,PTH,Drill*%
%TF.Part,Single*%
G01*
G75*
%TA.AperFunction,ComponentDrill*%
%ADD101C,1.10000*%
%TA.AperFunction,ViaDrill,NotFilled*%
%ADD102C,0.10000*%
D101*
X180000Y2326000D02*
D03*
Y2072000D02*
D03*
Y1818000D02*
D03*
Y1564000D02*
D03*
Y1310000D02*
D03*
Y1056000D02*
D03*
Y802000D02*
D03*
X434000Y2326000D02*
D03*
Y2072000D02*
D03*
Y1818000D02*
D03*
Y1564000D02*
D03*
Y1310000D02*
D03*
Y1056000D02*
D03*
Y802000D02*
D03*
X180000Y548000D02*
D03*
Y294000D02*
D03*
X434000Y548000D02*
D03*
Y294000D02*
D03*
D102*
X2380000Y1450000D02*
D03*
X2141288Y2183656D02*
D03*
X2069996Y1709997D02*
D03*
X2730000Y1270000D02*
D03*
X2131965Y2123167D02*
D03*
X2124907Y1919570D02*
D03*
X848025Y2256789D02*
D03*
X1120000Y1460000D02*
D03*
X1260000Y970000D02*
D03*
X1254246Y1115754D02*
D03*
X807577Y846170D02*
D03*
X1085595Y418969D02*
D03*
X803632Y491892D02*
D03*
X300000Y710000D02*
D03*
X280000Y1190000D02*
D03*
X916197Y2454400D02*
D03*
X68494Y1944575D02*
D03*
X66973Y1689810D02*
D03*
Y1437325D02*
D03*
X67734Y929314D02*
D03*
X66213Y673788D02*
D03*
X70000Y420000D02*
D03*
X1330000Y180000D02*
D03*
X2550000Y190000D02*
D03*
X1949999Y2199959D02*
D03*
X1989463Y2246418D02*
D03*
X2203302Y2185130D02*
D03*
X2125334Y2017238D02*
D03*
X2490358Y1832265D02*
D03*
X2480000Y1600000D02*
D03*
X2333948Y1707651D02*
D03*
X2266583Y2454400D02*
D03*
X1370000Y940000D02*
D03*
X950000Y748696D02*
D03*
X1090000Y2028696D02*
D03*
X1408560Y1610730D02*
D03*
X1190000Y1880000D02*
D03*
X1090000Y1780000D02*
D03*
X1280000Y670000D02*
D03*
Y610000D02*
D03*
X1066793Y2268972D02*
D03*
X2445783Y2165241D02*
D03*
X880000Y2350000D02*
D03*
X944117Y2377704D02*
D03*
X1370000Y2380000D02*
D03*
X1318797Y1533032D02*
D03*
X824640Y1522606D02*
D03*
X820780Y1384933D02*
D03*
X818744Y997965D02*
D03*
X920000Y400000D02*
D03*
X1735000Y578425D02*
D03*
X2700000Y1420000D02*
D03*
X2688620Y2162523D02*
D03*
X1169668Y2157572D02*
D03*
X1610000Y780000D02*
D03*
X1855269Y1316304D02*
D03*
X1952440Y684512D02*
D03*
X2834363Y362722D02*
D03*
X2505010Y352712D02*
D03*
X2510000Y680000D02*
D03*
X2506511Y911311D02*
D03*
X2830000Y1120000D02*
D03*
X1749999Y1719999D02*
D03*
X2000839Y1869999D02*
D03*
X2596075Y2250201D02*
D03*
X2625000Y2135000D02*
D03*
X2600000Y2060000D02*
D03*
X1637398Y2185442D02*
D03*
X1920000Y1690000D02*
D03*
X1011971Y1649847D02*
D03*
X1001269Y1358257D02*
D03*
X2020000Y2420000D02*
D03*
X2249679Y2313689D02*
D03*
X2188658Y2313714D02*
D03*
X1990000Y2110000D02*
D03*
X2120000Y1520000D02*
D03*
X1680000Y1530000D02*
D03*
X1769996Y1339997D02*
D03*
X1900886Y1137501D02*
D03*
X1290000Y750000D02*
D03*
Y850000D02*
D03*
X1065000Y1250000D02*
D03*
X810000Y1060000D02*
D03*
X2480000Y1540000D02*
D03*
X1498957Y1070472D02*
D03*
X1500000Y990000D02*
D03*
X1520000Y1150000D02*
D03*
X1590000D02*
D03*
X2350000Y2070000D02*
D03*
X2580000Y1330000D02*
D03*
X2054090Y1135303D02*
D03*
X2060000Y910000D02*
D03*
X2650000Y1330000D02*
D03*
X2065112Y576690D02*
D03*
X2320000Y1450000D02*
D03*
X2055556Y1005327D02*
D03*
X1450000Y460000D02*
D03*
X1850000Y330000D02*
D03*
X1950000Y460000D02*
D03*
X1740357Y440437D02*
D03*
X1050000Y320000D02*
D03*
X2521896Y1718716D02*
D03*
X2230000Y2020000D02*
D03*
X1620000Y560000D02*
D03*
X1728526Y775509D02*
D03*
X1510000Y2060000D02*
D03*
Y2120000D02*
D03*
X2440003Y1962909D02*
D03*
X2438995Y1865410D02*
D03*
X2297087Y2170001D02*
D03*
X749431Y1740605D02*
D03*
X2360680Y2164135D02*
D03*
X2378143Y1866454D02*
D03*
X2600000Y1820000D02*
D03*
X2446412Y2097825D02*
D03*
X820539Y390244D02*
D03*
X1646820Y916820D02*
D03*
X2270000Y810000D02*
D03*
X2410000Y1030000D02*
D03*
X2386147Y810321D02*
D03*
%TF.MD5,13b73071cea58cf85de666abb6d263b9*%
M02*
