%TF.GenerationSoftware,Altium Limited,Altium Designer,23.3.1 (30)*%
G04 Layer_Physical_Order=2*
G04 Layer_Color=36540*
%FSLAX45Y45*%
%MOMM*%
%TF.SameCoordinates,B56B3050-E4CE-4FE9-8081-1B6FDF6B35C2*%
%TF.FilePolarity,Positive*%
%TF.FileFunction,Copper,L2,Inr,Signal*%
%TF.Part,Single*%
G01*
G75*
%TA.AperFunction,ViaPad*%
%ADD33C,0.45000*%
%TA.AperFunction,ComponentPad*%
G04:AMPARAMS|DCode=34|XSize=1.5mm|YSize=1.9mm|CornerRadius=0.375mm|HoleSize=0mm|Usage=FLASHONLY|Rotation=270.000|XOffset=0mm|YOffset=0mm|HoleType=Round|Shape=RoundedRectangle|*
%AMROUNDEDRECTD34*
21,1,1.50000,1.15000,0,0,270.0*
21,1,0.75000,1.90000,0,0,270.0*
1,1,0.75000,-0.57500,-0.37500*
1,1,0.75000,-0.57500,0.37500*
1,1,0.75000,0.57500,0.37500*
1,1,0.75000,0.57500,-0.37500*
%
%ADD34ROUNDEDRECTD34*%
G36*
X2956055Y1033945D02*
X2640000D01*
X2623183Y1030600D01*
X2608926Y1021074D01*
X2599401Y1006817D01*
X2596056Y990001D01*
Y490002D01*
X2599401Y473185D01*
X2608926Y458928D01*
X2623183Y449402D01*
X2640000Y446057D01*
X2956055D01*
Y299999D01*
X2956164Y299449D01*
X2950913Y259563D01*
X2935305Y221881D01*
X2910476Y189524D01*
X2878118Y164695D01*
X2840437Y149087D01*
X2814295Y145645D01*
X2800000Y143944D01*
Y143944D01*
X200000D01*
X199453Y143835D01*
X159563Y149087D01*
X121882Y164695D01*
X97751Y183211D01*
X102167Y196650D01*
X103283Y197874D01*
X217500D01*
X239935Y202336D01*
X258955Y215045D01*
X271663Y234065D01*
X276126Y256500D01*
Y331500D01*
X271663Y353935D01*
X258955Y372955D01*
X239935Y385663D01*
X217500Y390126D01*
X102500D01*
X80065Y385663D01*
X61045Y372955D01*
X58944Y369811D01*
X43944Y374361D01*
Y467639D01*
X58944Y472189D01*
X61045Y469045D01*
X80065Y456336D01*
X102500Y451874D01*
X217500D01*
X239935Y456336D01*
X258955Y469045D01*
X271663Y488065D01*
X276126Y510500D01*
Y585500D01*
X271663Y607935D01*
X258955Y626955D01*
X239935Y639663D01*
X217500Y644126D01*
X102500D01*
X80065Y639663D01*
X61045Y626955D01*
X58944Y623811D01*
X43944Y628361D01*
Y721639D01*
X58944Y726189D01*
X61045Y723045D01*
X80065Y710336D01*
X102500Y705874D01*
X217500D01*
X239935Y710336D01*
X242173Y711832D01*
X244587Y711527D01*
X257813Y704242D01*
X259966Y693417D01*
X269359Y679360D01*
X283417Y669966D01*
X300000Y666668D01*
X316583Y669966D01*
X330640Y679360D01*
X340034Y693417D01*
X343332Y710000D01*
X342320Y715090D01*
X351720Y720966D01*
X356183Y722285D01*
X374065Y710336D01*
X396500Y705874D01*
X511500D01*
X533935Y710336D01*
X552955Y723045D01*
X565663Y742065D01*
X570126Y764500D01*
Y839500D01*
X565663Y861935D01*
X552955Y880955D01*
X533935Y893663D01*
X511500Y898126D01*
X396500D01*
X374065Y893663D01*
X355045Y880955D01*
X342336Y861935D01*
X337874Y839500D01*
Y764500D01*
X340632Y750631D01*
X340630Y750630D01*
X326817Y743195D01*
X316583Y750034D01*
X300000Y753333D01*
X288754Y751096D01*
X275514Y761420D01*
X276126Y764500D01*
Y839500D01*
X271663Y861935D01*
X258955Y880955D01*
X239935Y893663D01*
X217500Y898126D01*
X102500D01*
X80065Y893663D01*
X61045Y880955D01*
X58944Y877811D01*
X43944Y882361D01*
Y975639D01*
X58944Y980189D01*
X61045Y977045D01*
X80065Y964336D01*
X102500Y959874D01*
X217500D01*
X239935Y964336D01*
X258955Y977045D01*
X271663Y996065D01*
X276126Y1018500D01*
Y1093500D01*
X271663Y1115935D01*
X258955Y1134955D01*
X255185Y1137474D01*
X263418Y1149966D01*
X280000Y1146668D01*
X296583Y1149966D01*
X310640Y1159359D01*
X320034Y1173417D01*
X323332Y1190000D01*
X320034Y1206583D01*
X310640Y1220640D01*
X296583Y1230034D01*
X280000Y1233332D01*
X278297Y1232994D01*
X269277Y1246493D01*
X271663Y1250065D01*
X276126Y1272500D01*
Y1347500D01*
X271663Y1369935D01*
X258955Y1388955D01*
X239935Y1401663D01*
X217500Y1406126D01*
X102500D01*
X80065Y1401663D01*
X61045Y1388955D01*
X58944Y1385811D01*
X43944Y1390361D01*
Y1483639D01*
X58944Y1488189D01*
X61045Y1485045D01*
X80065Y1472336D01*
X102500Y1467874D01*
X217500D01*
X239935Y1472336D01*
X258955Y1485045D01*
X271663Y1504065D01*
X276126Y1526500D01*
Y1601500D01*
X271663Y1623935D01*
X258955Y1642955D01*
X239935Y1655663D01*
X217500Y1660126D01*
X102500D01*
X80065Y1655663D01*
X61045Y1642955D01*
X58944Y1639811D01*
X43944Y1644361D01*
Y1737639D01*
X58944Y1742189D01*
X61045Y1739045D01*
X80065Y1726336D01*
X102500Y1721874D01*
X217500D01*
X239935Y1726336D01*
X258955Y1739045D01*
X271663Y1758065D01*
X276126Y1780500D01*
Y1855500D01*
X271663Y1877935D01*
X258955Y1896955D01*
X239935Y1909663D01*
X217500Y1914126D01*
X102500D01*
X80065Y1909663D01*
X61045Y1896955D01*
X58944Y1893811D01*
X43944Y1898361D01*
Y1991639D01*
X58944Y1996189D01*
X61045Y1993045D01*
X80065Y1980336D01*
X102500Y1975874D01*
X217500D01*
X239935Y1980336D01*
X258955Y1993045D01*
X271663Y2012065D01*
X276126Y2034500D01*
Y2109500D01*
X271663Y2131935D01*
X258955Y2150955D01*
X239935Y2163663D01*
X217500Y2168126D01*
X102500D01*
X80065Y2163663D01*
X61045Y2150955D01*
X58944Y2147811D01*
X43944Y2152361D01*
Y2237974D01*
X58944Y2241954D01*
X77958Y2229250D01*
X102500Y2224368D01*
X147300D01*
Y2326000D01*
Y2427632D01*
X102500D01*
X77958Y2422750D01*
X58944Y2410046D01*
X43944Y2414026D01*
Y2476056D01*
X862885D01*
X874188Y2461056D01*
X872864Y2454400D01*
X876163Y2437817D01*
X885556Y2423759D01*
X899614Y2414366D01*
X905026Y2401060D01*
X894554Y2390437D01*
X880000Y2393333D01*
X863417Y2390034D01*
X849359Y2380641D01*
X839966Y2366583D01*
X836668Y2350000D01*
X839966Y2333417D01*
X849359Y2319360D01*
X858329Y2313366D01*
X852476Y2299237D01*
X848025Y2300122D01*
X831443Y2296823D01*
X817385Y2287430D01*
X807991Y2273372D01*
X804693Y2256789D01*
X807991Y2240207D01*
X817385Y2226149D01*
X831443Y2216756D01*
X848025Y2213457D01*
X864608Y2216756D01*
X878666Y2226149D01*
X888059Y2240207D01*
X891358Y2256789D01*
X888059Y2273372D01*
X878666Y2287430D01*
X869697Y2293423D01*
X875549Y2307553D01*
X880000Y2306668D01*
X896583Y2309966D01*
X910641Y2319360D01*
X915980Y2327350D01*
X927535Y2337670D01*
X944117Y2334372D01*
X960700Y2337670D01*
X974758Y2347063D01*
X984151Y2361121D01*
X987450Y2377704D01*
X984151Y2394287D01*
X974758Y2408344D01*
X960700Y2417738D01*
X953932Y2434378D01*
X956230Y2437817D01*
X959529Y2454400D01*
X958205Y2461056D01*
X969508Y2476056D01*
X2007077D01*
X2008555Y2461056D01*
X2003417Y2460034D01*
X1989359Y2450641D01*
X1979966Y2436583D01*
X1976668Y2420000D01*
X1979966Y2403417D01*
X1989359Y2389359D01*
X2003417Y2379966D01*
X2020000Y2376668D01*
X2036583Y2379966D01*
X2050641Y2389359D01*
X2060034Y2403417D01*
X2063332Y2420000D01*
X2060034Y2436583D01*
X2050641Y2450641D01*
X2036583Y2460034D01*
X2031446Y2461056D01*
X2032923Y2476056D01*
X2956055D01*
Y1033945D01*
D02*
G37*
%LPC*%
G36*
X217500Y2427632D02*
X172700D01*
Y2338700D01*
X281632D01*
Y2363500D01*
X276750Y2388042D01*
X262848Y2408848D01*
X242042Y2422750D01*
X217500Y2427632D01*
D02*
G37*
G36*
X1370000Y2423332D02*
X1353417Y2420034D01*
X1339360Y2410641D01*
X1329966Y2396583D01*
X1326668Y2380000D01*
X1329966Y2363417D01*
X1339360Y2349360D01*
X1353417Y2339966D01*
X1370000Y2336668D01*
X1386583Y2339966D01*
X1400641Y2349360D01*
X1410034Y2363417D01*
X1413332Y2380000D01*
X1410034Y2396583D01*
X1400641Y2410641D01*
X1386583Y2420034D01*
X1370000Y2423332D01*
D02*
G37*
G36*
X2188658Y2357047D02*
X2172075Y2353748D01*
X2158017Y2344355D01*
X2148624Y2330297D01*
X2145325Y2313714D01*
X2148624Y2297132D01*
X2158017Y2283074D01*
X2172075Y2273680D01*
X2188658Y2270382D01*
X2205240Y2273680D01*
X2219149Y2282975D01*
X2233097Y2273655D01*
X2249679Y2270357D01*
X2266262Y2273655D01*
X2280320Y2283049D01*
X2289713Y2297107D01*
X2293012Y2313689D01*
X2289713Y2330272D01*
X2280320Y2344330D01*
X2266262Y2353723D01*
X2249679Y2357022D01*
X2233097Y2353723D01*
X2219187Y2344429D01*
X2205240Y2353748D01*
X2188658Y2357047D01*
D02*
G37*
G36*
X511500Y2422126D02*
X396500D01*
X374065Y2417663D01*
X355045Y2404955D01*
X342336Y2385935D01*
X337874Y2363500D01*
Y2288500D01*
X342336Y2266065D01*
X355045Y2247045D01*
X374065Y2234336D01*
X396500Y2229874D01*
X511500D01*
X533935Y2234336D01*
X552955Y2247045D01*
X565663Y2266065D01*
X570126Y2288500D01*
Y2363500D01*
X565663Y2385935D01*
X552955Y2404955D01*
X533935Y2417663D01*
X511500Y2422126D01*
D02*
G37*
G36*
X281632Y2313300D02*
X172700D01*
Y2224368D01*
X217500D01*
X242042Y2229250D01*
X262848Y2243152D01*
X276750Y2263958D01*
X281632Y2288500D01*
Y2313300D01*
D02*
G37*
G36*
X2203302Y2228462D02*
X2186720Y2225164D01*
X2172662Y2215770D01*
X2171755Y2214413D01*
X2157871Y2223690D01*
X2141288Y2226989D01*
X2124705Y2223690D01*
X2110648Y2214297D01*
X2101254Y2200239D01*
X2097956Y2183656D01*
X2101254Y2167074D01*
X2107404Y2157869D01*
X2101325Y2153807D01*
X2091931Y2139749D01*
X2088633Y2123167D01*
X2091931Y2106584D01*
X2101325Y2092526D01*
X2115383Y2083133D01*
X2131965Y2079834D01*
X2148548Y2083133D01*
X2162606Y2092526D01*
X2171999Y2106584D01*
X2175298Y2123167D01*
X2172655Y2136453D01*
X2180987Y2144394D01*
X2184812Y2146370D01*
X2186720Y2145096D01*
X2203302Y2141797D01*
X2219885Y2145096D01*
X2233943Y2154489D01*
X2239802Y2163258D01*
X2255726Y2160091D01*
X2257053Y2153418D01*
X2266447Y2139360D01*
X2280505Y2129967D01*
X2297087Y2126668D01*
X2313670Y2129967D01*
X2326616Y2138617D01*
X2330039Y2133494D01*
X2340232Y2126683D01*
X2338599Y2111065D01*
X2333417Y2110034D01*
X2319360Y2100640D01*
X2309966Y2086583D01*
X2306668Y2070000D01*
X2309966Y2053417D01*
X2319360Y2039359D01*
X2333417Y2029966D01*
X2350000Y2026668D01*
X2366583Y2029966D01*
X2380641Y2039359D01*
X2390034Y2053417D01*
X2393333Y2070000D01*
X2391684Y2078291D01*
X2406328Y2081232D01*
X2409576Y2076457D01*
X2409741Y2076209D01*
X2415772Y2067185D01*
X2429830Y2057791D01*
X2446412Y2054493D01*
X2462995Y2057791D01*
X2477053Y2067185D01*
X2486446Y2081243D01*
X2489745Y2097825D01*
X2486446Y2114408D01*
X2482358Y2120526D01*
X2477934Y2131017D01*
X2482117Y2143122D01*
X2485817Y2148658D01*
X2489115Y2165241D01*
X2485817Y2181824D01*
X2476423Y2195882D01*
X2462365Y2205275D01*
X2445783Y2208573D01*
X2429200Y2205275D01*
X2415142Y2195882D01*
X2411882Y2191002D01*
X2393841D01*
X2391320Y2194775D01*
X2377262Y2204169D01*
X2360680Y2207467D01*
X2344097Y2204169D01*
X2331151Y2195518D01*
X2327728Y2200641D01*
X2313670Y2210035D01*
X2297087Y2213333D01*
X2280505Y2210035D01*
X2266447Y2200641D01*
X2260587Y2191872D01*
X2244663Y2195040D01*
X2243336Y2201712D01*
X2233943Y2215770D01*
X2219885Y2225164D01*
X2203302Y2228462D01*
D02*
G37*
G36*
X2688620Y2205856D02*
X2672038Y2202557D01*
X2657980Y2193164D01*
X2648586Y2179106D01*
X2645288Y2162523D01*
X2648586Y2145941D01*
X2657980Y2131883D01*
X2672038Y2122489D01*
X2688620Y2119191D01*
X2705203Y2122489D01*
X2719261Y2131883D01*
X2728654Y2145941D01*
X2731953Y2162523D01*
X2728654Y2179106D01*
X2719261Y2193164D01*
X2705203Y2202557D01*
X2688620Y2205856D01*
D02*
G37*
G36*
X1169668Y2200904D02*
X1153086Y2197605D01*
X1139028Y2188212D01*
X1129635Y2174154D01*
X1126336Y2157572D01*
X1129635Y2140989D01*
X1139028Y2126931D01*
X1153086Y2117538D01*
X1169668Y2114239D01*
X1186251Y2117538D01*
X1200309Y2126931D01*
X1209702Y2140989D01*
X1213001Y2157572D01*
X1209702Y2174154D01*
X1200309Y2188212D01*
X1186251Y2197605D01*
X1169668Y2200904D01*
D02*
G37*
G36*
X1989463Y2289751D02*
X1972881Y2286452D01*
X1958823Y2277059D01*
X1949429Y2263001D01*
X1946131Y2246418D01*
X1946876Y2242670D01*
X1933417Y2239993D01*
X1919359Y2230600D01*
X1909965Y2216542D01*
X1906667Y2199959D01*
X1909965Y2183377D01*
X1919359Y2169319D01*
X1933417Y2159925D01*
X1949999Y2156627D01*
X1958949Y2158407D01*
X1964802Y2144277D01*
X1959360Y2140641D01*
X1949966Y2126583D01*
X1946668Y2110000D01*
X1949966Y2093417D01*
X1959360Y2079360D01*
X1973417Y2069966D01*
X1990000Y2066668D01*
X2006583Y2069966D01*
X2020641Y2079360D01*
X2030034Y2093417D01*
X2033332Y2110000D01*
X2030034Y2126583D01*
X2020641Y2140641D01*
X2006583Y2150034D01*
X1990000Y2153332D01*
X1981050Y2151552D01*
X1975197Y2165682D01*
X1980640Y2169319D01*
X1990033Y2183377D01*
X1993332Y2199959D01*
X1992586Y2203707D01*
X2006046Y2206384D01*
X2020104Y2215778D01*
X2029497Y2229836D01*
X2032796Y2246418D01*
X2029497Y2263001D01*
X2020104Y2277059D01*
X2006046Y2286452D01*
X1989463Y2289751D01*
D02*
G37*
G36*
X2600000Y2103332D02*
X2583417Y2100034D01*
X2569359Y2090640D01*
X2559966Y2076583D01*
X2556667Y2060000D01*
X2559966Y2043417D01*
X2569359Y2029359D01*
X2583417Y2019966D01*
X2600000Y2016668D01*
X2616583Y2019966D01*
X2630640Y2029359D01*
X2640034Y2043417D01*
X2643332Y2060000D01*
X2640034Y2076583D01*
X2630640Y2090640D01*
X2616583Y2100034D01*
X2600000Y2103332D01*
D02*
G37*
G36*
X1510000Y2163332D02*
X1493417Y2160034D01*
X1479359Y2150641D01*
X1469966Y2136583D01*
X1466668Y2120000D01*
X1469966Y2103417D01*
X1478932Y2090000D01*
X1469966Y2076583D01*
X1466668Y2060000D01*
X1469966Y2043417D01*
X1479359Y2029359D01*
X1493417Y2019966D01*
X1510000Y2016668D01*
X1526583Y2019966D01*
X1540641Y2029359D01*
X1550034Y2043417D01*
X1553332Y2060000D01*
X1550034Y2076583D01*
X1541069Y2090000D01*
X1550034Y2103417D01*
X1553332Y2120000D01*
X1550034Y2136583D01*
X1540641Y2150641D01*
X1526583Y2160034D01*
X1510000Y2163332D01*
D02*
G37*
G36*
X2230000Y2063332D02*
X2213417Y2060034D01*
X2199360Y2050641D01*
X2189966Y2036583D01*
X2186668Y2020000D01*
X2189966Y2003417D01*
X2199360Y1989359D01*
X2213417Y1979966D01*
X2230000Y1976668D01*
X2246583Y1979966D01*
X2260641Y1989359D01*
X2270034Y2003417D01*
X2273333Y2020000D01*
X2270034Y2036583D01*
X2260641Y2050641D01*
X2246583Y2060034D01*
X2230000Y2063332D01*
D02*
G37*
G36*
X511500Y2168126D02*
X396500D01*
X374065Y2163663D01*
X355045Y2150955D01*
X342336Y2131935D01*
X337874Y2109500D01*
Y2034500D01*
X342336Y2012065D01*
X355045Y1993045D01*
X374065Y1980336D01*
X396500Y1975874D01*
X511500D01*
X533935Y1980336D01*
X552955Y1993045D01*
X565663Y2012065D01*
X570126Y2034500D01*
Y2109500D01*
X565663Y2131935D01*
X552955Y2150955D01*
X533935Y2163663D01*
X511500Y2168126D01*
D02*
G37*
G36*
X2125334Y2060570D02*
X2108751Y2057272D01*
X2094694Y2047879D01*
X2085300Y2033821D01*
X2082002Y2017238D01*
X2085300Y2000655D01*
X2094694Y1986597D01*
X2108751Y1977204D01*
X2125334Y1973906D01*
X2141917Y1977204D01*
X2155975Y1986597D01*
X2165368Y2000655D01*
X2168666Y2017238D01*
X2165368Y2033821D01*
X2155975Y2047879D01*
X2141917Y2057272D01*
X2125334Y2060570D01*
D02*
G37*
G36*
X2440003Y2006241D02*
X2423420Y2002943D01*
X2409362Y1993549D01*
X2399969Y1979492D01*
X2396670Y1962909D01*
X2399969Y1946326D01*
X2409362Y1932268D01*
X2423420Y1922875D01*
X2428288Y1921907D01*
Y1906613D01*
X2422412Y1905444D01*
X2409133Y1896571D01*
X2408783Y1897094D01*
X2394725Y1906488D01*
X2378143Y1909786D01*
X2361560Y1906488D01*
X2347502Y1897094D01*
X2338109Y1883036D01*
X2334810Y1866454D01*
X2338109Y1849871D01*
X2347502Y1835813D01*
X2361560Y1826420D01*
X2378143Y1823121D01*
X2394725Y1826420D01*
X2408004Y1835293D01*
X2408354Y1834770D01*
X2422412Y1825376D01*
X2438995Y1822078D01*
X2448669Y1824002D01*
X2450324Y1815683D01*
X2459718Y1801625D01*
X2473776Y1792231D01*
X2490358Y1788933D01*
X2506941Y1792231D01*
X2520999Y1801625D01*
X2530392Y1815683D01*
X2533691Y1832265D01*
X2530392Y1848848D01*
X2520999Y1862906D01*
X2506941Y1872299D01*
X2490358Y1875598D01*
X2480683Y1873673D01*
X2479029Y1881993D01*
X2469635Y1896051D01*
X2455577Y1905444D01*
X2450709Y1906412D01*
Y1921706D01*
X2456585Y1922875D01*
X2470643Y1932268D01*
X2480037Y1946326D01*
X2483335Y1962909D01*
X2480037Y1979492D01*
X2470643Y1993549D01*
X2456585Y2002943D01*
X2440003Y2006241D01*
D02*
G37*
G36*
X1190000Y1923332D02*
X1173417Y1920034D01*
X1159359Y1910641D01*
X1149966Y1896583D01*
X1146668Y1880000D01*
X1149966Y1863417D01*
X1159359Y1849360D01*
X1173417Y1839966D01*
X1190000Y1836668D01*
X1206583Y1839966D01*
X1220640Y1849360D01*
X1230034Y1863417D01*
X1233332Y1880000D01*
X1230034Y1896583D01*
X1220640Y1910641D01*
X1206583Y1920034D01*
X1190000Y1923332D01*
D02*
G37*
G36*
X2600000Y1863332D02*
X2583417Y1860034D01*
X2569359Y1850640D01*
X2559966Y1836583D01*
X2556667Y1820000D01*
X2559966Y1803417D01*
X2569359Y1789359D01*
X2583417Y1779966D01*
X2600000Y1776668D01*
X2616583Y1779966D01*
X2630640Y1789359D01*
X2640034Y1803417D01*
X2643332Y1820000D01*
X2640034Y1836583D01*
X2630640Y1850640D01*
X2616583Y1860034D01*
X2600000Y1863332D01*
D02*
G37*
G36*
X1090000Y1823332D02*
X1073417Y1820034D01*
X1059360Y1810641D01*
X1049966Y1796583D01*
X1046668Y1780000D01*
X1049966Y1763417D01*
X1059360Y1749359D01*
X1073417Y1739966D01*
X1090000Y1736668D01*
X1106583Y1739966D01*
X1120641Y1749359D01*
X1130034Y1763417D01*
X1133333Y1780000D01*
X1130034Y1796583D01*
X1120641Y1810641D01*
X1106583Y1820034D01*
X1090000Y1823332D01*
D02*
G37*
G36*
X511500Y1914126D02*
X396500D01*
X374065Y1909663D01*
X355045Y1896955D01*
X342336Y1877935D01*
X337874Y1855500D01*
Y1780500D01*
X342336Y1758065D01*
X355045Y1739045D01*
X374065Y1726336D01*
X396500Y1721874D01*
X511500D01*
X533935Y1726336D01*
X552955Y1739045D01*
X565663Y1758065D01*
X570126Y1780500D01*
Y1855500D01*
X565663Y1877935D01*
X552955Y1896955D01*
X533935Y1909663D01*
X511500Y1914126D01*
D02*
G37*
G36*
X749431Y1783937D02*
X732848Y1780639D01*
X718791Y1771245D01*
X709397Y1757187D01*
X706099Y1740605D01*
X709397Y1724022D01*
X718791Y1709964D01*
X732848Y1700571D01*
X749431Y1697272D01*
X766014Y1700571D01*
X780072Y1709964D01*
X789465Y1724022D01*
X792763Y1740605D01*
X789465Y1757187D01*
X780072Y1771245D01*
X766014Y1780639D01*
X749431Y1783937D01*
D02*
G37*
G36*
X2333948Y1750984D02*
X2317365Y1747685D01*
X2303308Y1738292D01*
X2293914Y1724234D01*
X2290616Y1707651D01*
X2293914Y1691069D01*
X2303308Y1677011D01*
X2317365Y1667617D01*
X2333948Y1664319D01*
X2350531Y1667617D01*
X2364589Y1677011D01*
X2373982Y1691069D01*
X2377280Y1707651D01*
X2373982Y1724234D01*
X2364589Y1738292D01*
X2350531Y1747685D01*
X2333948Y1750984D01*
D02*
G37*
G36*
X1920000Y1733332D02*
X1903417Y1730034D01*
X1889359Y1720640D01*
X1879966Y1706583D01*
X1876668Y1690000D01*
X1879966Y1673417D01*
X1889359Y1659359D01*
X1903417Y1649966D01*
X1920000Y1646668D01*
X1936583Y1649966D01*
X1950640Y1659359D01*
X1960034Y1673417D01*
X1963332Y1690000D01*
X1960034Y1706583D01*
X1950640Y1720640D01*
X1936583Y1730034D01*
X1920000Y1733332D01*
D02*
G37*
G36*
X1011971Y1693179D02*
X995389Y1689881D01*
X981331Y1680487D01*
X971937Y1666429D01*
X968639Y1649847D01*
X971937Y1633264D01*
X981331Y1619206D01*
X995389Y1609813D01*
X1011971Y1606514D01*
X1028554Y1609813D01*
X1042612Y1619206D01*
X1052005Y1633264D01*
X1055304Y1649847D01*
X1052005Y1666429D01*
X1042612Y1680487D01*
X1028554Y1689881D01*
X1011971Y1693179D01*
D02*
G37*
G36*
X2480000Y1643333D02*
X2463417Y1640034D01*
X2449360Y1630641D01*
X2439966Y1616583D01*
X2436668Y1600000D01*
X2439966Y1583417D01*
X2448932Y1570000D01*
X2439966Y1556583D01*
X2436668Y1540000D01*
X2439966Y1523417D01*
X2449360Y1509359D01*
X2463417Y1499966D01*
X2480000Y1496668D01*
X2496583Y1499966D01*
X2510641Y1509359D01*
X2520034Y1523417D01*
X2523333Y1540000D01*
X2520034Y1556583D01*
X2511069Y1570000D01*
X2520034Y1583417D01*
X2523333Y1600000D01*
X2520034Y1616583D01*
X2510641Y1630641D01*
X2496583Y1640034D01*
X2480000Y1643333D01*
D02*
G37*
G36*
X1680000Y1573332D02*
X1663417Y1570034D01*
X1649359Y1560641D01*
X1639966Y1546583D01*
X1636668Y1530000D01*
X1639966Y1513417D01*
X1649359Y1499359D01*
X1663417Y1489966D01*
X1680000Y1486668D01*
X1696583Y1489966D01*
X1710640Y1499359D01*
X1720034Y1513417D01*
X1723332Y1530000D01*
X1720034Y1546583D01*
X1710640Y1560641D01*
X1696583Y1570034D01*
X1680000Y1573332D01*
D02*
G37*
G36*
X2380000Y1493332D02*
X2363417Y1490034D01*
X2350000Y1481068D01*
X2336583Y1490034D01*
X2320000Y1493332D01*
X2303417Y1490034D01*
X2289359Y1480640D01*
X2279966Y1466583D01*
X2276668Y1450000D01*
X2279966Y1433417D01*
X2289359Y1419359D01*
X2303417Y1409966D01*
X2320000Y1406667D01*
X2336583Y1409966D01*
X2350000Y1418931D01*
X2363417Y1409966D01*
X2380000Y1406667D01*
X2396583Y1409966D01*
X2410641Y1419359D01*
X2420034Y1433417D01*
X2423332Y1450000D01*
X2420034Y1466583D01*
X2410641Y1480640D01*
X2396583Y1490034D01*
X2380000Y1493332D01*
D02*
G37*
G36*
X2120000Y1563332D02*
X2103417Y1560034D01*
X2089360Y1550641D01*
X2079966Y1536583D01*
X2076668Y1520000D01*
X2079966Y1503417D01*
X2089360Y1489359D01*
X2103417Y1479966D01*
X2120000Y1476668D01*
X2136583Y1479966D01*
X2150641Y1489359D01*
X2160034Y1503417D01*
X2163332Y1520000D01*
X2160034Y1536583D01*
X2150641Y1550641D01*
X2136583Y1560034D01*
X2120000Y1563332D01*
D02*
G37*
G36*
X511500Y1660126D02*
X396500D01*
X374065Y1655663D01*
X355045Y1642955D01*
X342336Y1623935D01*
X337874Y1601500D01*
Y1526500D01*
X342336Y1504065D01*
X355045Y1485045D01*
X374065Y1472336D01*
X396500Y1467874D01*
X511500D01*
X533935Y1472336D01*
X552955Y1485045D01*
X565663Y1504065D01*
X570126Y1526500D01*
Y1601500D01*
X565663Y1623935D01*
X552955Y1642955D01*
X533935Y1655663D01*
X511500Y1660126D01*
D02*
G37*
G36*
X1120000Y1503332D02*
X1103417Y1500034D01*
X1089360Y1490640D01*
X1079966Y1476583D01*
X1076668Y1460000D01*
X1079966Y1443417D01*
X1089360Y1429359D01*
X1103417Y1419966D01*
X1120000Y1416667D01*
X1136583Y1419966D01*
X1150641Y1429359D01*
X1160034Y1443417D01*
X1163332Y1460000D01*
X1160034Y1476583D01*
X1150641Y1490640D01*
X1136583Y1500034D01*
X1120000Y1503332D01*
D02*
G37*
G36*
X2700000Y1463332D02*
X2683417Y1460034D01*
X2669359Y1450640D01*
X2659966Y1436583D01*
X2656668Y1420000D01*
X2659966Y1403417D01*
X2669359Y1389359D01*
X2683417Y1379966D01*
X2700000Y1376668D01*
X2716583Y1379966D01*
X2730640Y1389359D01*
X2740034Y1403417D01*
X2743332Y1420000D01*
X2740034Y1436583D01*
X2730640Y1450640D01*
X2716583Y1460034D01*
X2700000Y1463332D01*
D02*
G37*
G36*
X2650000Y1373332D02*
X2633417Y1370034D01*
X2619360Y1360640D01*
X2610640D01*
X2596583Y1370034D01*
X2580000Y1373332D01*
X2563417Y1370034D01*
X2549359Y1360640D01*
X2539966Y1346583D01*
X2536668Y1330000D01*
X2539966Y1313417D01*
X2549359Y1299359D01*
X2563417Y1289966D01*
X2580000Y1286667D01*
X2596583Y1289966D01*
X2604196Y1295053D01*
X2615000Y1298121D01*
X2625804Y1295053D01*
X2633417Y1289966D01*
X2650000Y1286667D01*
X2666583Y1289966D01*
X2678105Y1297665D01*
X2680641Y1299359D01*
X2692791Y1290811D01*
X2689966Y1286583D01*
X2686667Y1270000D01*
X2689966Y1253417D01*
X2699359Y1239359D01*
X2713417Y1229966D01*
X2730000Y1226668D01*
X2746583Y1229966D01*
X2760640Y1239359D01*
X2770034Y1253417D01*
X2773332Y1270000D01*
X2770034Y1286583D01*
X2760640Y1300641D01*
X2746583Y1310034D01*
X2730000Y1313332D01*
X2713417Y1310034D01*
X2701895Y1302334D01*
X2699359Y1300641D01*
X2687209Y1309189D01*
X2690034Y1313417D01*
X2693332Y1330000D01*
X2690034Y1346583D01*
X2680641Y1360640D01*
X2666583Y1370034D01*
X2650000Y1373332D01*
D02*
G37*
G36*
X820780Y1428265D02*
X804198Y1424967D01*
X790140Y1415573D01*
X780746Y1401516D01*
X777448Y1384933D01*
X780746Y1368350D01*
X790140Y1354292D01*
X804198Y1344899D01*
X820780Y1341601D01*
X837363Y1344899D01*
X851421Y1354292D01*
X860814Y1368350D01*
X864113Y1384933D01*
X860814Y1401516D01*
X851421Y1415573D01*
X837363Y1424967D01*
X820780Y1428265D01*
D02*
G37*
G36*
X1001269Y1401590D02*
X984687Y1398291D01*
X970629Y1388898D01*
X961235Y1374840D01*
X957937Y1358257D01*
X961235Y1341674D01*
X970629Y1327617D01*
X984687Y1318223D01*
X1001269Y1314925D01*
X1017852Y1318223D01*
X1031910Y1327617D01*
X1041303Y1341674D01*
X1044602Y1358257D01*
X1041303Y1374840D01*
X1031910Y1388898D01*
X1017852Y1398291D01*
X1001269Y1401590D01*
D02*
G37*
G36*
X1769996Y1383330D02*
X1753414Y1380031D01*
X1739356Y1370638D01*
X1729963Y1356580D01*
X1726664Y1339997D01*
X1729963Y1323415D01*
X1739356Y1309357D01*
X1753414Y1299963D01*
X1769996Y1296665D01*
X1786579Y1299963D01*
X1800637Y1309357D01*
X1810030Y1323415D01*
X1813329Y1339997D01*
X1810030Y1356580D01*
X1800637Y1370638D01*
X1786579Y1380031D01*
X1769996Y1383330D01*
D02*
G37*
G36*
X511500Y1406126D02*
X396500D01*
X374065Y1401663D01*
X355045Y1388955D01*
X342336Y1369935D01*
X337874Y1347500D01*
Y1272500D01*
X342336Y1250065D01*
X355045Y1231045D01*
X374065Y1218336D01*
X396500Y1213874D01*
X511500D01*
X533935Y1218336D01*
X552955Y1231045D01*
X565663Y1250065D01*
X570126Y1272500D01*
Y1347500D01*
X565663Y1369935D01*
X552955Y1388955D01*
X533935Y1401663D01*
X511500Y1406126D01*
D02*
G37*
G36*
X1065000Y1293332D02*
X1048418Y1290034D01*
X1034360Y1280641D01*
X1024966Y1266583D01*
X1021668Y1250000D01*
X1024966Y1233417D01*
X1034360Y1219360D01*
X1048418Y1209966D01*
X1065000Y1206668D01*
X1081583Y1209966D01*
X1095641Y1219360D01*
X1105034Y1233417D01*
X1108333Y1250000D01*
X1105034Y1266583D01*
X1095641Y1280641D01*
X1081583Y1290034D01*
X1065000Y1293332D01*
D02*
G37*
G36*
X1590000Y1193332D02*
X1573417Y1190034D01*
X1559360Y1180641D01*
X1550640D01*
X1536583Y1190034D01*
X1520000Y1193332D01*
X1503417Y1190034D01*
X1489359Y1180641D01*
X1479966Y1166583D01*
X1476668Y1150000D01*
X1479966Y1133417D01*
X1484741Y1126271D01*
X1482579Y1111869D01*
X1479770Y1108766D01*
X1468317Y1101113D01*
X1458923Y1087055D01*
X1455625Y1070472D01*
X1458923Y1053890D01*
X1468317Y1039832D01*
X1469699Y1038908D01*
Y1020867D01*
X1469360Y1020641D01*
X1459966Y1006583D01*
X1456668Y990000D01*
X1459966Y973417D01*
X1469360Y959360D01*
X1483417Y949966D01*
X1500000Y946668D01*
X1516583Y949966D01*
X1530641Y959360D01*
X1540034Y973417D01*
X1543332Y990000D01*
X1540034Y1006583D01*
X1530641Y1020641D01*
X1529258Y1021564D01*
Y1039605D01*
X1529598Y1039832D01*
X1538991Y1053890D01*
X1542290Y1070472D01*
X1538991Y1087055D01*
X1534216Y1094201D01*
X1536378Y1108603D01*
X1539187Y1111706D01*
X1550640Y1119359D01*
X1559360D01*
X1573417Y1109966D01*
X1590000Y1106668D01*
X1606583Y1109966D01*
X1620641Y1119359D01*
X1630034Y1133417D01*
X1633333Y1150000D01*
X1630034Y1166583D01*
X1620641Y1180641D01*
X1606583Y1190034D01*
X1590000Y1193332D01*
D02*
G37*
G36*
X2054090Y1178636D02*
X2037507Y1175337D01*
X2023449Y1165944D01*
X2014056Y1151886D01*
X2010757Y1135303D01*
X2014056Y1118721D01*
X2023449Y1104663D01*
X2037507Y1095269D01*
X2054090Y1091971D01*
X2070673Y1095269D01*
X2084730Y1104663D01*
X2094124Y1118721D01*
X2097422Y1135303D01*
X2094124Y1151886D01*
X2084730Y1165944D01*
X2070673Y1175337D01*
X2054090Y1178636D01*
D02*
G37*
G36*
X1254246Y1159087D02*
X1237663Y1155788D01*
X1223605Y1146395D01*
X1214212Y1132337D01*
X1210914Y1115754D01*
X1214212Y1099172D01*
X1223605Y1085114D01*
X1237663Y1075720D01*
X1254246Y1072422D01*
X1270829Y1075720D01*
X1284886Y1085114D01*
X1294280Y1099172D01*
X1297578Y1115754D01*
X1294280Y1132337D01*
X1284886Y1146395D01*
X1270829Y1155788D01*
X1254246Y1159087D01*
D02*
G37*
G36*
X810000Y1103332D02*
X793417Y1100034D01*
X779359Y1090640D01*
X769966Y1076583D01*
X766668Y1060000D01*
X769966Y1043417D01*
X779359Y1029359D01*
X793417Y1019966D01*
X810000Y1016668D01*
X826583Y1019966D01*
X840640Y1029359D01*
X850034Y1043417D01*
X853332Y1060000D01*
X850034Y1076583D01*
X840640Y1090640D01*
X826583Y1100034D01*
X810000Y1103332D01*
D02*
G37*
G36*
X2410000Y1073332D02*
X2393417Y1070034D01*
X2379359Y1060641D01*
X2369966Y1046583D01*
X2366668Y1030000D01*
X2369966Y1013417D01*
X2379359Y999359D01*
X2393417Y989966D01*
X2410000Y986668D01*
X2426583Y989966D01*
X2440641Y999359D01*
X2450034Y1013417D01*
X2453332Y1030000D01*
X2450034Y1046583D01*
X2440641Y1060641D01*
X2426583Y1070034D01*
X2410000Y1073332D01*
D02*
G37*
G36*
X511500Y1152126D02*
X396500D01*
X374065Y1147663D01*
X355045Y1134955D01*
X342336Y1115935D01*
X337874Y1093500D01*
Y1018500D01*
X342336Y996065D01*
X355045Y977045D01*
X374065Y964336D01*
X396500Y959874D01*
X511500D01*
X533935Y964336D01*
X552955Y977045D01*
X565663Y996065D01*
X570126Y1018500D01*
Y1093500D01*
X565663Y1115935D01*
X552955Y1134955D01*
X533935Y1147663D01*
X511500Y1152126D01*
D02*
G37*
G36*
X1260000Y1013332D02*
X1243417Y1010034D01*
X1229359Y1000641D01*
X1219966Y986583D01*
X1216668Y970000D01*
X1219966Y953417D01*
X1229359Y939360D01*
X1243417Y929966D01*
X1260000Y926668D01*
X1276583Y929966D01*
X1290641Y939360D01*
X1300034Y953417D01*
X1303332Y970000D01*
X1300034Y986583D01*
X1290641Y1000641D01*
X1276583Y1010034D01*
X1260000Y1013332D01*
D02*
G37*
G36*
X1370000Y983332D02*
X1353417Y980034D01*
X1339360Y970640D01*
X1329966Y956583D01*
X1326668Y940000D01*
X1329966Y923417D01*
X1339360Y909359D01*
X1353417Y899966D01*
X1370000Y896667D01*
X1386583Y899966D01*
X1400641Y909359D01*
X1410034Y923417D01*
X1413332Y940000D01*
X1410034Y956583D01*
X1400641Y970640D01*
X1386583Y980034D01*
X1370000Y983332D01*
D02*
G37*
G36*
X1646820Y960152D02*
X1630237Y956854D01*
X1616179Y947460D01*
X1606786Y933402D01*
X1603487Y916820D01*
X1606786Y900237D01*
X1616179Y886179D01*
X1630237Y876786D01*
X1646820Y873487D01*
X1663402Y876786D01*
X1677460Y886179D01*
X1686854Y900237D01*
X1690152Y916820D01*
X1686854Y933402D01*
X1677460Y947460D01*
X1663402Y956854D01*
X1646820Y960152D01*
D02*
G37*
G36*
X2055556Y1048659D02*
X2038973Y1045361D01*
X2024915Y1035967D01*
X2015522Y1021910D01*
X2012224Y1005327D01*
X2015522Y988744D01*
X2024915Y974686D01*
X2038973Y965293D01*
X2041108Y964869D01*
X2042847Y953695D01*
X2042358Y949326D01*
X2029359Y940640D01*
X2019966Y926583D01*
X2016668Y910000D01*
X2019966Y893417D01*
X2029359Y879359D01*
X2043417Y869966D01*
X2060000Y866668D01*
X2076583Y869966D01*
X2090640Y879359D01*
X2100034Y893417D01*
X2103332Y910000D01*
X2100034Y926583D01*
X2090640Y940640D01*
X2076583Y950034D01*
X2074448Y950458D01*
X2072709Y961632D01*
X2073198Y966001D01*
X2086196Y974686D01*
X2095590Y988744D01*
X2098888Y1005327D01*
X2095590Y1021910D01*
X2086196Y1035967D01*
X2072139Y1045361D01*
X2055556Y1048659D01*
D02*
G37*
G36*
X1290000Y893332D02*
X1273417Y890034D01*
X1259359Y880641D01*
X1249966Y866583D01*
X1246668Y850000D01*
X1249966Y833417D01*
X1259359Y819360D01*
X1273417Y809966D01*
X1290000Y806668D01*
X1306583Y809966D01*
X1320640Y819360D01*
X1330034Y833417D01*
X1333332Y850000D01*
X1330034Y866583D01*
X1320640Y880641D01*
X1306583Y890034D01*
X1290000Y893332D01*
D02*
G37*
G36*
X807577Y889502D02*
X790994Y886204D01*
X776936Y876810D01*
X767543Y862752D01*
X764245Y846170D01*
X767543Y829587D01*
X776936Y815529D01*
X790994Y806136D01*
X807577Y802837D01*
X824160Y806136D01*
X838218Y815529D01*
X847611Y829587D01*
X850909Y846170D01*
X847611Y862752D01*
X838218Y876810D01*
X824160Y886204D01*
X807577Y889502D01*
D02*
G37*
G36*
X2386147Y853654D02*
X2369564Y850355D01*
X2355507Y840962D01*
X2346113Y826904D01*
X2342815Y810321D01*
X2346113Y793739D01*
X2355507Y779681D01*
X2369564Y770287D01*
X2386147Y766989D01*
X2402730Y770287D01*
X2416788Y779681D01*
X2426181Y793739D01*
X2429480Y810321D01*
X2426181Y826904D01*
X2416788Y840962D01*
X2402730Y850355D01*
X2386147Y853654D01*
D02*
G37*
G36*
X2270000Y853332D02*
X2253417Y850034D01*
X2239360Y840640D01*
X2229966Y826583D01*
X2226668Y810000D01*
X2229966Y793417D01*
X2239360Y779359D01*
X2253417Y769966D01*
X2270000Y766668D01*
X2286583Y769966D01*
X2300641Y779359D01*
X2310034Y793417D01*
X2313332Y810000D01*
X2310034Y826583D01*
X2300641Y840640D01*
X2286583Y850034D01*
X2270000Y853332D01*
D02*
G37*
G36*
X1728526Y818842D02*
X1711943Y815543D01*
X1697886Y806150D01*
X1688492Y792092D01*
X1685194Y775509D01*
X1688492Y758927D01*
X1697886Y744869D01*
X1711943Y735476D01*
X1728526Y732177D01*
X1745109Y735476D01*
X1759167Y744869D01*
X1768560Y758927D01*
X1771859Y775509D01*
X1768560Y792092D01*
X1759167Y806150D01*
X1745109Y815543D01*
X1728526Y818842D01*
D02*
G37*
G36*
X1280000Y713332D02*
X1263417Y710034D01*
X1249359Y700640D01*
X1239966Y686583D01*
X1236668Y670000D01*
X1239966Y653417D01*
X1248931Y640000D01*
X1239966Y626583D01*
X1236668Y610000D01*
X1239966Y593417D01*
X1249359Y579360D01*
X1263417Y569966D01*
X1280000Y566668D01*
X1296583Y569966D01*
X1310641Y579360D01*
X1320034Y593417D01*
X1323332Y610000D01*
X1320034Y626583D01*
X1311068Y640000D01*
X1320034Y653417D01*
X1323332Y670000D01*
X1320034Y686583D01*
X1310641Y700640D01*
X1296583Y710034D01*
X1280000Y713332D01*
D02*
G37*
G36*
X1735000Y621758D02*
X1718417Y618459D01*
X1704360Y609066D01*
X1694966Y595008D01*
X1691668Y578425D01*
X1694966Y561843D01*
X1704360Y547785D01*
X1718417Y538391D01*
X1735000Y535093D01*
X1751583Y538391D01*
X1765641Y547785D01*
X1775034Y561843D01*
X1778332Y578425D01*
X1775034Y595008D01*
X1765641Y609066D01*
X1751583Y618459D01*
X1735000Y621758D01*
D02*
G37*
G36*
X2065112Y620023D02*
X2048529Y616724D01*
X2034471Y607331D01*
X2025078Y593273D01*
X2021779Y576690D01*
X2025078Y560108D01*
X2034471Y546050D01*
X2048529Y536657D01*
X2065112Y533358D01*
X2081694Y536657D01*
X2095752Y546050D01*
X2105146Y560108D01*
X2108444Y576690D01*
X2105146Y593273D01*
X2095752Y607331D01*
X2081694Y616724D01*
X2065112Y620023D01*
D02*
G37*
G36*
X1620000Y603332D02*
X1603417Y600034D01*
X1589360Y590640D01*
X1579966Y576583D01*
X1576668Y560000D01*
X1579966Y543417D01*
X1589360Y529359D01*
X1603417Y519966D01*
X1620000Y516667D01*
X1636583Y519966D01*
X1650641Y529359D01*
X1660034Y543417D01*
X1663332Y560000D01*
X1660034Y576583D01*
X1650641Y590640D01*
X1636583Y600034D01*
X1620000Y603332D01*
D02*
G37*
G36*
X511500Y644126D02*
X396500D01*
X374065Y639663D01*
X355045Y626955D01*
X342336Y607935D01*
X337874Y585500D01*
Y510500D01*
X342336Y488065D01*
X355045Y469045D01*
X374065Y456336D01*
X396500Y451874D01*
X511500D01*
X533935Y456336D01*
X552955Y469045D01*
X565663Y488065D01*
X570126Y510500D01*
Y585500D01*
X565663Y607935D01*
X552955Y626955D01*
X533935Y639663D01*
X511500Y644126D01*
D02*
G37*
G36*
X1950000Y503332D02*
X1933417Y500034D01*
X1919359Y490641D01*
X1909966Y476583D01*
X1906668Y460000D01*
X1909966Y443417D01*
X1919359Y429360D01*
X1933417Y419966D01*
X1950000Y416668D01*
X1966583Y419966D01*
X1980640Y429360D01*
X1990034Y443417D01*
X1993332Y460000D01*
X1990034Y476583D01*
X1980640Y490641D01*
X1966583Y500034D01*
X1950000Y503332D01*
D02*
G37*
G36*
X1450000D02*
X1433417Y500034D01*
X1419359Y490641D01*
X1409966Y476583D01*
X1406667Y460000D01*
X1409966Y443417D01*
X1419359Y429360D01*
X1433417Y419966D01*
X1450000Y416668D01*
X1466583Y419966D01*
X1480640Y429360D01*
X1490034Y443417D01*
X1493332Y460000D01*
X1490034Y476583D01*
X1480640Y490641D01*
X1466583Y500034D01*
X1450000Y503332D01*
D02*
G37*
G36*
X1740357Y483770D02*
X1723774Y480471D01*
X1709716Y471078D01*
X1700323Y457020D01*
X1697024Y440437D01*
X1700323Y423855D01*
X1709716Y409797D01*
X1723774Y400403D01*
X1740357Y397105D01*
X1756939Y400403D01*
X1770997Y409797D01*
X1780391Y423855D01*
X1783689Y440437D01*
X1780391Y457020D01*
X1770997Y471078D01*
X1756939Y480471D01*
X1740357Y483770D01*
D02*
G37*
G36*
X1085595Y462301D02*
X1069012Y459003D01*
X1054954Y449609D01*
X1045561Y435551D01*
X1042262Y418969D01*
X1045561Y402386D01*
X1054954Y388328D01*
X1069012Y378935D01*
X1085595Y375636D01*
X1102177Y378935D01*
X1116235Y388328D01*
X1125629Y402386D01*
X1128927Y418969D01*
X1125629Y435551D01*
X1116235Y449609D01*
X1102177Y459003D01*
X1085595Y462301D01*
D02*
G37*
G36*
X820539Y433577D02*
X803957Y430278D01*
X789899Y420885D01*
X780505Y406827D01*
X777207Y390244D01*
X780505Y373662D01*
X789899Y359604D01*
X803957Y350210D01*
X820539Y346912D01*
X837122Y350210D01*
X851180Y359604D01*
X860573Y373662D01*
X863872Y390244D01*
X860573Y406827D01*
X851180Y420885D01*
X837122Y430278D01*
X820539Y433577D01*
D02*
G37*
G36*
X511500Y395632D02*
X466700D01*
Y306700D01*
X575632D01*
Y331500D01*
X570750Y356042D01*
X556848Y376848D01*
X536042Y390750D01*
X511500Y395632D01*
D02*
G37*
G36*
X441300D02*
X396500D01*
X371958Y390750D01*
X351152Y376848D01*
X337250Y356042D01*
X332368Y331500D01*
Y306700D01*
X441300D01*
Y395632D01*
D02*
G37*
G36*
X1850000Y373333D02*
X1833417Y370034D01*
X1819360Y360641D01*
X1809966Y346583D01*
X1806668Y330000D01*
X1809966Y313417D01*
X1819360Y299360D01*
X1833417Y289966D01*
X1850000Y286668D01*
X1866583Y289966D01*
X1880641Y299360D01*
X1890034Y313417D01*
X1893333Y330000D01*
X1890034Y346583D01*
X1880641Y360641D01*
X1866583Y370034D01*
X1850000Y373333D01*
D02*
G37*
G36*
X1050000Y363333D02*
X1033417Y360034D01*
X1019359Y350641D01*
X1009966Y336583D01*
X1006668Y320000D01*
X1009966Y303417D01*
X1019359Y289360D01*
X1033417Y279966D01*
X1050000Y276668D01*
X1066583Y279966D01*
X1080640Y289360D01*
X1090034Y303417D01*
X1093332Y320000D01*
X1090034Y336583D01*
X1080640Y350641D01*
X1066583Y360034D01*
X1050000Y363333D01*
D02*
G37*
G36*
X575632Y281300D02*
X466700D01*
Y192368D01*
X511500D01*
X536042Y197250D01*
X556848Y211152D01*
X570750Y231958D01*
X575632Y256500D01*
Y281300D01*
D02*
G37*
G36*
X441300D02*
X332368D01*
Y256500D01*
X337250Y231958D01*
X351152Y211152D01*
X371958Y197250D01*
X396500Y192368D01*
X441300D01*
Y281300D01*
D02*
G37*
%LPD*%
D33*
X2380000Y1450000D02*
D03*
X2141288Y2183656D02*
D03*
X2069996Y1709997D02*
D03*
X2730000Y1270000D02*
D03*
X2131965Y2123167D02*
D03*
X2124907Y1919570D02*
D03*
X848025Y2256789D02*
D03*
X1120000Y1460000D02*
D03*
X1260000Y970000D02*
D03*
X1254246Y1115754D02*
D03*
X807577Y846170D02*
D03*
X1085595Y418969D02*
D03*
X803632Y491892D02*
D03*
X300000Y710000D02*
D03*
X280000Y1190000D02*
D03*
X916197Y2454400D02*
D03*
X68494Y1944575D02*
D03*
X66973Y1689810D02*
D03*
Y1437325D02*
D03*
X67734Y929314D02*
D03*
X66213Y673788D02*
D03*
X70000Y420000D02*
D03*
X1330000Y180000D02*
D03*
X2550000Y190000D02*
D03*
X1949999Y2199959D02*
D03*
X1989463Y2246418D02*
D03*
X2203302Y2185130D02*
D03*
X2125334Y2017238D02*
D03*
X2490358Y1832265D02*
D03*
X2480000Y1600000D02*
D03*
X2333948Y1707651D02*
D03*
X2266583Y2454400D02*
D03*
X1370000Y940000D02*
D03*
X950000Y748696D02*
D03*
X1090000Y2028696D02*
D03*
X1408560Y1610730D02*
D03*
X1190000Y1880000D02*
D03*
X1090000Y1780000D02*
D03*
X1280000Y670000D02*
D03*
Y610000D02*
D03*
X1066793Y2268972D02*
D03*
X2445783Y2165241D02*
D03*
X880000Y2350000D02*
D03*
X944117Y2377704D02*
D03*
X1370000Y2380000D02*
D03*
X1318797Y1533032D02*
D03*
X824640Y1522606D02*
D03*
X820780Y1384933D02*
D03*
X818744Y997965D02*
D03*
X920000Y400000D02*
D03*
X1735000Y578425D02*
D03*
X2700000Y1420000D02*
D03*
X2688620Y2162523D02*
D03*
X1169668Y2157572D02*
D03*
X1610000Y780000D02*
D03*
X1855269Y1316304D02*
D03*
X1952440Y684512D02*
D03*
X2834363Y362722D02*
D03*
X2505010Y352712D02*
D03*
X2510000Y680000D02*
D03*
X2506511Y911311D02*
D03*
X2830000Y1120000D02*
D03*
X1749999Y1719999D02*
D03*
X2000839Y1869999D02*
D03*
X2596075Y2250201D02*
D03*
X2625000Y2135000D02*
D03*
X2600000Y2060000D02*
D03*
X1637398Y2185442D02*
D03*
X1920000Y1690000D02*
D03*
X1011971Y1649847D02*
D03*
X1001269Y1358257D02*
D03*
X2020000Y2420000D02*
D03*
X2249679Y2313689D02*
D03*
X2188658Y2313714D02*
D03*
X1990000Y2110000D02*
D03*
X2120000Y1520000D02*
D03*
X1680000Y1530000D02*
D03*
X1769996Y1339997D02*
D03*
X1900886Y1137501D02*
D03*
X1290000Y750000D02*
D03*
Y850000D02*
D03*
X1065000Y1250000D02*
D03*
X810000Y1060000D02*
D03*
X2480000Y1540000D02*
D03*
X1498957Y1070472D02*
D03*
X1500000Y990000D02*
D03*
X1520000Y1150000D02*
D03*
X1590000D02*
D03*
X2350000Y2070000D02*
D03*
X2580000Y1330000D02*
D03*
X2054090Y1135303D02*
D03*
X2060000Y910000D02*
D03*
X2650000Y1330000D02*
D03*
X2065112Y576690D02*
D03*
X2320000Y1450000D02*
D03*
X2055556Y1005327D02*
D03*
X1450000Y460000D02*
D03*
X1850000Y330000D02*
D03*
X1950000Y460000D02*
D03*
X1740357Y440437D02*
D03*
X1050000Y320000D02*
D03*
X2521896Y1718716D02*
D03*
X2230000Y2020000D02*
D03*
X1620000Y560000D02*
D03*
X1728526Y775509D02*
D03*
X1510000Y2060000D02*
D03*
Y2120000D02*
D03*
X2440003Y1962909D02*
D03*
X2438995Y1865410D02*
D03*
X2297087Y2170001D02*
D03*
X749431Y1740605D02*
D03*
X2360680Y2164135D02*
D03*
X2378143Y1866454D02*
D03*
X2600000Y1820000D02*
D03*
X2446412Y2097825D02*
D03*
X820539Y390244D02*
D03*
X1646820Y916820D02*
D03*
X2270000Y810000D02*
D03*
X2410000Y1030000D02*
D03*
X2386147Y810321D02*
D03*
D34*
X160000Y2326000D02*
D03*
Y2072000D02*
D03*
Y1818000D02*
D03*
Y1564000D02*
D03*
Y1310000D02*
D03*
Y1056000D02*
D03*
Y802000D02*
D03*
X454000Y2326000D02*
D03*
Y2072000D02*
D03*
Y1818000D02*
D03*
Y1564000D02*
D03*
Y1310000D02*
D03*
Y1056000D02*
D03*
Y802000D02*
D03*
X160000Y548000D02*
D03*
Y294000D02*
D03*
X454000Y548000D02*
D03*
Y294000D02*
D03*
%TF.MD5,1feaf9ec6fc9e012e0e871e19b9192e7*%
M02*
