%TF.GenerationSoftware,Altium Limited,Altium Designer,23.9.2 (47)*%
G04 Layer_Color=32768*
%FSLAX45Y45*%
%MOMM*%
%TF.SameCoordinates,AC4A3DE0-5486-420A-B1FF-1F5B93080124*%
%TF.FilePolarity,Positive*%
%TF.FileFunction,Other,Bottom_Designator*%
%TF.Part,Single*%
G01*
G75*
%TA.AperFunction,NonConductor*%
%ADD26C,0.15000*%
D26*
X1609984Y1010010D02*
Y1069990D01*
X1579993D01*
X1569997Y1059993D01*
Y1040000D01*
X1579993Y1030003D01*
X1609984D01*
X1589990D02*
X1569997Y1010010D01*
X1550003Y1059993D02*
X1540006Y1069990D01*
X1520013D01*
X1510016Y1059993D01*
Y1049997D01*
X1520013Y1040000D01*
X1510016Y1030003D01*
Y1020006D01*
X1520013Y1010010D01*
X1540006D01*
X1550003Y1020006D01*
Y1030003D01*
X1540006Y1040000D01*
X1550003Y1049997D01*
Y1059993D01*
X1540006Y1040000D02*
X1520013D01*
X999984Y2030010D02*
Y2089990D01*
X969993D01*
X959997Y2079993D01*
Y2060000D01*
X969993Y2050003D01*
X999984D01*
X979990D02*
X959997Y2030010D01*
X940003Y2040006D02*
X930007Y2030010D01*
X910013D01*
X900016Y2040006D01*
Y2079993D01*
X910013Y2089990D01*
X930007D01*
X940003Y2079993D01*
Y2069997D01*
X930007Y2060000D01*
X900016D01*
X2674975Y1520010D02*
Y1579990D01*
X2644985D01*
X2634988Y1569993D01*
Y1550000D01*
X2644985Y1540003D01*
X2674975D01*
X2654982D02*
X2634988Y1520010D01*
X2614995D02*
X2595001D01*
X2604998D01*
Y1579990D01*
X2614995Y1569993D01*
X2565011D02*
X2555014Y1579990D01*
X2535021D01*
X2525024Y1569993D01*
Y1530006D01*
X2535021Y1520010D01*
X2555014D01*
X2565011Y1530006D01*
Y1569993D01*
X764979Y1880010D02*
Y1939990D01*
X734988D01*
X724992Y1929993D01*
Y1910000D01*
X734988Y1900003D01*
X764979D01*
X744985D02*
X724992Y1880010D01*
X704998D02*
X685004D01*
X695001D01*
Y1939990D01*
X704998Y1929993D01*
X655014Y1880010D02*
X635021D01*
X645018D01*
Y1939990D01*
X655014Y1929993D01*
X1024976Y1700010D02*
Y1759990D01*
X994985D01*
X984989Y1749993D01*
Y1730000D01*
X994985Y1720003D01*
X1024976D01*
X1004982D02*
X984989Y1700010D01*
X964995D02*
X945001D01*
X954998D01*
Y1759990D01*
X964995Y1749993D01*
X875024Y1700010D02*
X915011D01*
X875024Y1739997D01*
Y1749993D01*
X885021Y1759990D01*
X905015D01*
X915011Y1749993D01*
X1024975Y900010D02*
Y959990D01*
X994985D01*
X984988Y949993D01*
Y930000D01*
X994985Y920003D01*
X1024975D01*
X1004982D02*
X984988Y900010D01*
X964995D02*
X945001D01*
X954998D01*
Y959990D01*
X964995Y949993D01*
X915011D02*
X905014Y959990D01*
X885021D01*
X875024Y949993D01*
Y939997D01*
X885021Y930000D01*
X895018D01*
X885021D01*
X875024Y920003D01*
Y910006D01*
X885021Y900010D01*
X905014D01*
X915011Y910006D01*
X1734975Y1970010D02*
Y2029990D01*
X1704985D01*
X1694988Y2019993D01*
Y2000000D01*
X1704985Y1990003D01*
X1734975D01*
X1714982D02*
X1694988Y1970010D01*
X1674995D02*
X1655001D01*
X1664998D01*
Y2029990D01*
X1674995Y2019993D01*
X1595021Y1970010D02*
Y2029990D01*
X1625011Y2000000D01*
X1585024D01*
X784976Y540010D02*
Y599990D01*
X754985D01*
X744989Y589993D01*
Y570000D01*
X754985Y560003D01*
X784976D01*
X764982D02*
X744989Y540010D01*
X724995D02*
X705001D01*
X714998D01*
Y599990D01*
X724995Y589993D01*
X635024Y599990D02*
X675011D01*
Y570000D01*
X655018Y579997D01*
X645021D01*
X635024Y570000D01*
Y550006D01*
X645021Y540010D01*
X665015D01*
X675011Y550006D01*
X1174976Y360010D02*
Y419990D01*
X1144985D01*
X1134989Y409993D01*
Y390000D01*
X1144985Y380003D01*
X1174976D01*
X1154982D02*
X1134989Y360010D01*
X1114995D02*
X1095001D01*
X1104998D01*
Y419990D01*
X1114995Y409993D01*
X1025024Y419990D02*
X1045018Y409993D01*
X1065011Y390000D01*
Y370006D01*
X1055015Y360010D01*
X1035021D01*
X1025024Y370006D01*
Y380003D01*
X1035021Y390000D01*
X1065011D01*
X784976Y640010D02*
Y699990D01*
X754985D01*
X744989Y689993D01*
Y670000D01*
X754985Y660003D01*
X784976D01*
X764982D02*
X744989Y640010D01*
X724995D02*
X705001D01*
X714998D01*
Y699990D01*
X724995Y689993D01*
X675011Y699990D02*
X635024D01*
Y689993D01*
X675011Y650006D01*
Y640010D01*
X1024976Y1120010D02*
Y1179991D01*
X994985D01*
X984989Y1169994D01*
Y1150000D01*
X994985Y1140004D01*
X1024976D01*
X1004982D02*
X984989Y1120010D01*
X964995D02*
X945001D01*
X954998D01*
Y1179991D01*
X964995Y1169994D01*
X915011D02*
X905015Y1179991D01*
X885021D01*
X875024Y1169994D01*
Y1159997D01*
X885021Y1150000D01*
X875024Y1140004D01*
Y1130007D01*
X885021Y1120010D01*
X905015D01*
X915011Y1130007D01*
Y1140004D01*
X905015Y1150000D01*
X915011Y1159997D01*
Y1169994D01*
X905015Y1150000D02*
X885021D01*
X784976Y760010D02*
Y819990D01*
X754985D01*
X744989Y809994D01*
Y790000D01*
X754985Y780004D01*
X784976D01*
X764982D02*
X744989Y760010D01*
X724995D02*
X705001D01*
X714998D01*
Y819990D01*
X724995Y809994D01*
X675011Y770007D02*
X665015Y760010D01*
X645021D01*
X635024Y770007D01*
Y809994D01*
X645021Y819990D01*
X665015D01*
X675011Y809994D01*
Y799997D01*
X665015Y790000D01*
X635024D01*
X1029974Y1410010D02*
Y1469990D01*
X999984D01*
X989987Y1459993D01*
Y1440000D01*
X999984Y1430003D01*
X1029974D01*
X1009980D02*
X989987Y1410010D01*
X930006D02*
X969993D01*
X930006Y1449997D01*
Y1459993D01*
X940003Y1469990D01*
X959997D01*
X969993Y1459993D01*
X910013D02*
X900016Y1469990D01*
X880022D01*
X870026Y1459993D01*
Y1420006D01*
X880022Y1410010D01*
X900016D01*
X910013Y1420006D01*
Y1459993D01*
X1319977Y2250009D02*
Y2309990D01*
X1289987D01*
X1279990Y2299993D01*
Y2280000D01*
X1289987Y2270003D01*
X1319977D01*
X1299984D02*
X1279990Y2250009D01*
X1220010D02*
X1259997D01*
X1220010Y2289996D01*
Y2299993D01*
X1230006Y2309990D01*
X1250000D01*
X1259997Y2299993D01*
X1200016Y2250009D02*
X1180023D01*
X1190019D01*
Y2309990D01*
X1200016Y2299993D01*
X779974Y1280010D02*
Y1339990D01*
X749984D01*
X739987Y1329993D01*
Y1310000D01*
X749984Y1300003D01*
X779974D01*
X759980D02*
X739987Y1280010D01*
X680006D02*
X719993D01*
X680006Y1319997D01*
Y1329993D01*
X690003Y1339990D01*
X709997D01*
X719993Y1329993D01*
X620026Y1280010D02*
X660013D01*
X620026Y1319997D01*
Y1329993D01*
X630022Y1339990D01*
X650016D01*
X660013Y1329993D01*
X1539974Y2180009D02*
Y2239990D01*
X1509984D01*
X1499987Y2229993D01*
Y2210000D01*
X1509984Y2200003D01*
X1539974D01*
X1519980D02*
X1499987Y2180009D01*
X1440006D02*
X1479993D01*
X1440006Y2219996D01*
Y2229993D01*
X1450003Y2239990D01*
X1469997D01*
X1479993Y2229993D01*
X1420013D02*
X1410016Y2239990D01*
X1390022D01*
X1380026Y2229993D01*
Y2219996D01*
X1390022Y2210000D01*
X1400019D01*
X1390022D01*
X1380026Y2200003D01*
Y2190006D01*
X1390022Y2180009D01*
X1410016D01*
X1420013Y2190006D01*
X779974Y1540010D02*
Y1599990D01*
X749984D01*
X739987Y1589993D01*
Y1570000D01*
X749984Y1560003D01*
X779974D01*
X759980D02*
X739987Y1540010D01*
X680007D02*
X719993D01*
X680007Y1579997D01*
Y1589993D01*
X690003Y1599990D01*
X709997D01*
X719993Y1589993D01*
X630023Y1540010D02*
Y1599990D01*
X660013Y1570000D01*
X620026D01*
X779974Y1380010D02*
Y1439990D01*
X749984D01*
X739987Y1429993D01*
Y1410000D01*
X749984Y1400003D01*
X779974D01*
X759980D02*
X739987Y1380010D01*
X680006D02*
X719993D01*
X680006Y1419997D01*
Y1429993D01*
X690003Y1439990D01*
X709997D01*
X719993Y1429993D01*
X620026Y1439990D02*
X660013D01*
Y1410000D01*
X640019Y1419997D01*
X630022D01*
X620026Y1410000D01*
Y1390006D01*
X630022Y1380010D01*
X650016D01*
X660013Y1390006D01*
X2459974Y2340010D02*
Y2399990D01*
X2429984D01*
X2419987Y2389993D01*
Y2370000D01*
X2429984Y2360003D01*
X2459974D01*
X2439980D02*
X2419987Y2340010D01*
X2360006D02*
X2399993D01*
X2360006Y2379997D01*
Y2389993D01*
X2370003Y2399990D01*
X2389997D01*
X2399993Y2389993D01*
X2300026Y2399990D02*
X2320019Y2389993D01*
X2340013Y2370000D01*
Y2350006D01*
X2330016Y2340010D01*
X2310023D01*
X2300026Y2350006D01*
Y2360003D01*
X2310023Y2370000D01*
X2340013D01*
X769974Y2250010D02*
Y2309990D01*
X739984D01*
X729987Y2299993D01*
Y2280000D01*
X739984Y2270003D01*
X769974D01*
X749980D02*
X729987Y2250010D01*
X670006D02*
X709993D01*
X670006Y2289997D01*
Y2299993D01*
X680003Y2309990D01*
X699997D01*
X709993Y2299993D01*
X650013Y2309990D02*
X610026D01*
Y2299993D01*
X650013Y2260006D01*
Y2250010D01*
X1029974Y2130009D02*
Y2189990D01*
X999984D01*
X989987Y2179993D01*
Y2160000D01*
X999984Y2150003D01*
X1029974D01*
X1009980D02*
X989987Y2130009D01*
X930007D02*
X969993D01*
X930007Y2169996D01*
Y2179993D01*
X940003Y2189990D01*
X959997D01*
X969993Y2179993D01*
X910013D02*
X900016Y2189990D01*
X880023D01*
X870026Y2179993D01*
Y2169996D01*
X880023Y2160000D01*
X870026Y2150003D01*
Y2140006D01*
X880023Y2130009D01*
X900016D01*
X910013Y2140006D01*
Y2150003D01*
X900016Y2160000D01*
X910013Y2169996D01*
Y2179993D01*
X900016Y2160000D02*
X880023D01*
X1029974Y1000010D02*
Y1059990D01*
X999984D01*
X989987Y1049993D01*
Y1030000D01*
X999984Y1020003D01*
X1029974D01*
X1009980D02*
X989987Y1000010D01*
X930007D02*
X969993D01*
X930007Y1039997D01*
Y1049993D01*
X940003Y1059990D01*
X959997D01*
X969993Y1049993D01*
X910013Y1010006D02*
X900016Y1000010D01*
X880023D01*
X870026Y1010006D01*
Y1049993D01*
X880023Y1059990D01*
X900016D01*
X910013Y1049993D01*
Y1039997D01*
X900016Y1030000D01*
X870026D01*
X1839974Y2180010D02*
Y2239990D01*
X1809984D01*
X1799987Y2229993D01*
Y2210000D01*
X1809984Y2200003D01*
X1839974D01*
X1819980D02*
X1799987Y2180010D01*
X1779993Y2229993D02*
X1769997Y2239990D01*
X1750003D01*
X1740006Y2229993D01*
Y2219997D01*
X1750003Y2210000D01*
X1760000D01*
X1750003D01*
X1740006Y2200003D01*
Y2190006D01*
X1750003Y2180010D01*
X1769997D01*
X1779993Y2190006D01*
X1680026Y2180010D02*
X1720013D01*
X1680026Y2219997D01*
Y2229993D01*
X1690023Y2239990D01*
X1710016D01*
X1720013Y2229993D01*
X1029974Y1510010D02*
Y1569990D01*
X999984D01*
X989987Y1559993D01*
Y1540000D01*
X999984Y1530003D01*
X1029974D01*
X1009980D02*
X989987Y1510010D01*
X969993Y1559993D02*
X959997Y1569990D01*
X940003D01*
X930006Y1559993D01*
Y1549997D01*
X940003Y1540000D01*
X950000D01*
X940003D01*
X930006Y1530003D01*
Y1520006D01*
X940003Y1510010D01*
X959997D01*
X969993Y1520006D01*
X910013Y1559993D02*
X900016Y1569990D01*
X880022D01*
X870026Y1559993D01*
Y1549997D01*
X880022Y1540000D01*
X890019D01*
X880022D01*
X870026Y1530003D01*
Y1520006D01*
X880022Y1510010D01*
X900016D01*
X910013Y1520006D01*
X1639974Y2280010D02*
Y2339990D01*
X1609984D01*
X1599987Y2329993D01*
Y2310000D01*
X1609984Y2300003D01*
X1639974D01*
X1619980D02*
X1599987Y2280010D01*
X1579993Y2329993D02*
X1569997Y2339990D01*
X1550003D01*
X1540006Y2329993D01*
Y2319997D01*
X1550003Y2310000D01*
X1560000D01*
X1550003D01*
X1540006Y2300003D01*
Y2290006D01*
X1550003Y2280010D01*
X1569997D01*
X1579993Y2290006D01*
X1490022Y2280010D02*
Y2339990D01*
X1520013Y2310000D01*
X1480026D01*
X1329974Y2350010D02*
Y2409990D01*
X1299984D01*
X1289987Y2399993D01*
Y2380000D01*
X1299984Y2370003D01*
X1329974D01*
X1309980D02*
X1289987Y2350010D01*
X1269993Y2399993D02*
X1259997Y2409990D01*
X1240003D01*
X1230006Y2399993D01*
Y2389996D01*
X1240003Y2380000D01*
X1250000D01*
X1240003D01*
X1230006Y2370003D01*
Y2360006D01*
X1240003Y2350010D01*
X1259997D01*
X1269993Y2360006D01*
X1210013Y2409990D02*
X1170026D01*
Y2399993D01*
X1210013Y2360006D01*
Y2350010D01*
X779974Y1970010D02*
Y2029990D01*
X749984D01*
X739987Y2019993D01*
Y2000000D01*
X749984Y1990003D01*
X779974D01*
X759980D02*
X739987Y1970010D01*
X719993Y2019993D02*
X709997Y2029990D01*
X690003D01*
X680006Y2019993D01*
Y2009997D01*
X690003Y2000000D01*
X700000D01*
X690003D01*
X680006Y1990003D01*
Y1980006D01*
X690003Y1970010D01*
X709997D01*
X719993Y1980006D01*
X660013Y2019993D02*
X650016Y2029990D01*
X630022D01*
X620026Y2019993D01*
Y2009997D01*
X630022Y2000000D01*
X620026Y1990003D01*
Y1980006D01*
X630022Y1970010D01*
X650016D01*
X660013Y1980006D01*
Y1990003D01*
X650016Y2000000D01*
X660013Y2009997D01*
Y2019993D01*
X650016Y2000000D02*
X630022D01*
X1029974Y1800010D02*
Y1859990D01*
X999984D01*
X989987Y1849994D01*
Y1830000D01*
X999984Y1820003D01*
X1029974D01*
X1009980D02*
X989987Y1800010D01*
X969993Y1849994D02*
X959997Y1859990D01*
X940003D01*
X930007Y1849994D01*
Y1839997D01*
X940003Y1830000D01*
X950000D01*
X940003D01*
X930007Y1820003D01*
Y1810007D01*
X940003Y1800010D01*
X959997D01*
X969993Y1810007D01*
X910013D02*
X900016Y1800010D01*
X880023D01*
X870026Y1810007D01*
Y1849994D01*
X880023Y1859990D01*
X900016D01*
X910013Y1849994D01*
Y1839997D01*
X900016Y1830000D01*
X870026D01*
X1029974Y1220010D02*
Y1279990D01*
X999984D01*
X989987Y1269993D01*
Y1250000D01*
X999984Y1240003D01*
X1029974D01*
X1009980D02*
X989987Y1220010D01*
X940003D02*
Y1279990D01*
X969993Y1250000D01*
X930007D01*
X910013Y1269993D02*
X900016Y1279990D01*
X880023D01*
X870026Y1269993D01*
Y1230006D01*
X880023Y1220010D01*
X900016D01*
X910013Y1230006D01*
Y1269993D01*
X779977Y860008D02*
Y919989D01*
X749986D01*
X739990Y909992D01*
Y889998D01*
X749986Y880002D01*
X779977D01*
X759983D02*
X739990Y860008D01*
X690006D02*
Y919989D01*
X719996Y889998D01*
X680009D01*
X660015Y860008D02*
X640022D01*
X650019D01*
Y919989D01*
X660015Y909992D01*
X779974Y1640010D02*
Y1699990D01*
X749984D01*
X739987Y1689993D01*
Y1670000D01*
X749984Y1660003D01*
X779974D01*
X759980D02*
X739987Y1640010D01*
X690003D02*
Y1699990D01*
X719993Y1670000D01*
X680007D01*
X620026Y1640010D02*
X660013D01*
X620026Y1679997D01*
Y1689993D01*
X630023Y1699990D01*
X650016D01*
X660013Y1689993D01*
X2459974Y2240010D02*
Y2299991D01*
X2429984D01*
X2419987Y2289994D01*
Y2270000D01*
X2429984Y2260004D01*
X2459974D01*
X2439980D02*
X2419987Y2240010D01*
X2370003D02*
Y2299991D01*
X2399993Y2270000D01*
X2360006D01*
X2340013Y2289994D02*
X2330016Y2299991D01*
X2310023D01*
X2300026Y2289994D01*
Y2279997D01*
X2310023Y2270000D01*
X2320019D01*
X2310023D01*
X2300026Y2260004D01*
Y2250007D01*
X2310023Y2240010D01*
X2330016D01*
X2340013Y2250007D01*
X2679974Y1620010D02*
Y1679990D01*
X2649984D01*
X2639987Y1669993D01*
Y1650000D01*
X2649984Y1640003D01*
X2679974D01*
X2659980D02*
X2639987Y1620010D01*
X2590003D02*
Y1679990D01*
X2619993Y1650000D01*
X2580006D01*
X2530022Y1620010D02*
Y1679990D01*
X2560013Y1650000D01*
X2520026D01*
X789974Y360010D02*
Y419990D01*
X759984D01*
X749987Y409993D01*
Y390000D01*
X759984Y380003D01*
X789974D01*
X769980D02*
X749987Y360010D01*
X700003D02*
Y419990D01*
X729993Y390000D01*
X690006D01*
X630026Y419990D02*
X650019Y409993D01*
X670013Y390000D01*
Y370006D01*
X660016Y360010D01*
X640023D01*
X630026Y370006D01*
Y380003D01*
X640023Y390000D01*
X670013D01*
X1879974Y1500010D02*
Y1559990D01*
X1849984D01*
X1839987Y1549993D01*
Y1530000D01*
X1849984Y1520003D01*
X1879974D01*
X1859980D02*
X1839987Y1500010D01*
X1790003D02*
Y1559990D01*
X1819993Y1530000D01*
X1780006D01*
X1760013Y1559990D02*
X1720026D01*
Y1549993D01*
X1760013Y1510006D01*
Y1500010D01*
X1739974Y2070010D02*
Y2129990D01*
X1709984D01*
X1699987Y2119993D01*
Y2100000D01*
X1709984Y2090003D01*
X1739974D01*
X1719980D02*
X1699987Y2070010D01*
X1650003D02*
Y2129990D01*
X1679993Y2100000D01*
X1640006D01*
X1620013Y2080007D02*
X1610016Y2070010D01*
X1590022D01*
X1580026Y2080007D01*
Y2119993D01*
X1590022Y2129990D01*
X1610016D01*
X1620013Y2119993D01*
Y2109997D01*
X1610016Y2100000D01*
X1580026D01*
X1129974Y2350010D02*
Y2409990D01*
X1099984D01*
X1089987Y2399993D01*
Y2380000D01*
X1099984Y2370003D01*
X1129974D01*
X1109980D02*
X1089987Y2350010D01*
X1030006Y2409990D02*
X1069993D01*
Y2380000D01*
X1050000Y2389996D01*
X1040003D01*
X1030006Y2380000D01*
Y2360006D01*
X1040003Y2350010D01*
X1059997D01*
X1069993Y2360006D01*
X1010013Y2399993D02*
X1000016Y2409990D01*
X980022D01*
X970026Y2399993D01*
Y2360006D01*
X980022Y2350010D01*
X1000016D01*
X1010013Y2360006D01*
Y2399993D01*
X739984Y2150010D02*
Y2209990D01*
X709993D01*
X699997Y2199993D01*
Y2180000D01*
X709993Y2170003D01*
X739984D01*
X719990D02*
X699997Y2150010D01*
X650013D02*
Y2209990D01*
X680003Y2180000D01*
X640016D01*
%TF.MD5,4429e0f23c76c49f5e2297a0ad0a05b1*%
M02*
