%TF.GenerationSoftware,Altium Limited,Altium Designer,23.9.2 (47)*%
G04 Layer_Physical_Order=4*
G04 Layer_Color=16711680*
%FSLAX45Y45*%
%MOMM*%
%TF.SameCoordinates,AC4A3DE0-5486-420A-B1FF-1F5B93080124*%
%TF.FilePolarity,Positive*%
%TF.FileFunction,Copper,L4,Bot,Signal*%
%TF.Part,Single*%
G01*
G75*
%TA.AperFunction,SMDPad,CuDef*%
G04:AMPARAMS|DCode=25|XSize=0.6mm|YSize=0.6mm|CornerRadius=0.15mm|HoleSize=0mm|Usage=FLASHONLY|Rotation=90.000|XOffset=0mm|YOffset=0mm|HoleType=Round|Shape=RoundedRectangle|*
%AMROUNDEDRECTD25*
21,1,0.60000,0.30000,0,0,90.0*
21,1,0.30000,0.60000,0,0,90.0*
1,1,0.30000,0.15000,0.15000*
1,1,0.30000,0.15000,-0.15000*
1,1,0.30000,-0.15000,-0.15000*
1,1,0.30000,-0.15000,0.15000*
%
%ADD25ROUNDEDRECTD25*%
%TA.AperFunction,Conductor*%
%ADD27C,0.20000*%
%ADD28C,0.15000*%
%TA.AperFunction,ComponentPad*%
G04:AMPARAMS|DCode=30|XSize=1.7mm|YSize=2.1mm|CornerRadius=0.425mm|HoleSize=0mm|Usage=FLASHONLY|Rotation=270.000|XOffset=0mm|YOffset=0mm|HoleType=Round|Shape=RoundedRectangle|*
%AMROUNDEDRECTD30*
21,1,1.70000,1.25001,0,0,270.0*
21,1,0.85000,2.10000,0,0,270.0*
1,1,0.85000,-0.62500,-0.42500*
1,1,0.85000,-0.62500,0.42500*
1,1,0.85000,0.62500,0.42500*
1,1,0.85000,0.62500,-0.42500*
%
%ADD30ROUNDEDRECTD30*%
G04:AMPARAMS|DCode=31|XSize=1.7mm|YSize=2.1mm|CornerRadius=0mm|HoleSize=0mm|Usage=FLASHONLY|Rotation=270.000|XOffset=0mm|YOffset=0mm|HoleType=Round|Shape=Octagon|*
%AMOCTAGOND31*
4,1,8,1.05000,0.42500,1.05000,-0.42500,0.62500,-0.85000,-0.62500,-0.85000,-1.05000,-0.42500,-1.05000,0.42500,-0.62500,0.85000,0.62500,0.85000,1.05000,0.42500,0.0*
%
%ADD31OCTAGOND31*%

%TA.AperFunction,ViaPad*%
%ADD32C,0.45000*%
G36*
X1179266Y2359266D02*
X1228843D01*
X1225263Y2353698D01*
X1219234Y2342992D01*
X1216785Y2337852D01*
X1213747Y2329909D01*
X1214713Y2327144D01*
X1216785Y2322147D01*
X1222060Y2311726D01*
X1225263Y2306301D01*
X1228843Y2300734D01*
X1171158D01*
X1174738Y2306303D01*
X1180769Y2317011D01*
X1183219Y2322151D01*
X1186256Y2330091D01*
X1185292Y2332852D01*
X1183219Y2337849D01*
X1177942Y2348271D01*
X1174738Y2353697D01*
X1174331Y2354331D01*
X1173698Y2354737D01*
X1162990Y2360767D01*
X1157850Y2363217D01*
X1149909Y2366255D01*
X1147146Y2365290D01*
X1142150Y2363217D01*
X1131728Y2357941D01*
X1126302Y2354737D01*
X1120734Y2351157D01*
Y2408842D01*
X1126302Y2405262D01*
X1137010Y2399233D01*
X1142149Y2396783D01*
X1150091Y2393745D01*
X1152855Y2394711D01*
X1157851Y2396783D01*
X1168273Y2402059D01*
X1173698Y2405262D01*
X1179266Y2408842D01*
Y2359266D01*
D02*
G37*
G36*
X874188Y2461056D02*
X872864Y2454400D01*
X876163Y2437817D01*
X885556Y2423759D01*
X899614Y2414366D01*
X905026Y2401060D01*
X894554Y2390437D01*
X880000Y2393333D01*
X863417Y2390034D01*
X849359Y2380641D01*
X839966Y2366583D01*
X836668Y2350000D01*
X839966Y2333417D01*
X848849Y2320123D01*
X849410Y2318777D01*
X849631Y2316249D01*
X845998Y2303566D01*
X841415Y2302589D01*
X840361Y2302445D01*
X835449Y2304455D01*
X829754Y2308260D01*
X818049Y2310588D01*
X818048Y2310588D01*
X813161D01*
X810935Y2311628D01*
X807550Y2311777D01*
X804841Y2312123D01*
X801819Y2312746D01*
X798799Y2313592D01*
X790687Y2316695D01*
X786990Y2318457D01*
X777476Y2323814D01*
X772441Y2327052D01*
X769136Y2327649D01*
X768656Y2327969D01*
X765124Y2328672D01*
X760734Y2330490D01*
X759192Y2329852D01*
X755000Y2330686D01*
X725000D01*
X711344Y2327969D01*
X699766Y2320234D01*
X699020Y2319117D01*
X680980D01*
X680234Y2320234D01*
X668656Y2327969D01*
X655000Y2330686D01*
X625000D01*
X611344Y2327969D01*
X599766Y2320234D01*
X595224Y2313436D01*
X580224Y2317986D01*
Y2368500D01*
X575374Y2392886D01*
X561560Y2413560D01*
X540886Y2427374D01*
X516500Y2432224D01*
X391500D01*
X367113Y2427374D01*
X346440Y2413560D01*
X332626Y2392886D01*
X327775Y2368500D01*
Y2283500D01*
X332626Y2259114D01*
X341664Y2245588D01*
X333646Y2230588D01*
X308001D01*
X308000Y2230588D01*
X296294Y2228259D01*
X286371Y2221629D01*
X286370Y2221628D01*
X260332Y2195590D01*
X257883Y2194633D01*
X251220Y2188236D01*
X245509Y2183253D01*
X240541Y2179419D01*
X236455Y2176739D01*
X234660Y2175806D01*
X223415Y2178042D01*
X222578Y2178389D01*
X222180Y2178224D01*
X97500D01*
X73113Y2173374D01*
X58944Y2163906D01*
X43944Y2171790D01*
Y2236857D01*
X57802Y2242597D01*
X84800Y2215600D01*
X147300D01*
Y2326000D01*
Y2436400D01*
X84800D01*
X57802Y2409402D01*
X43944Y2415142D01*
Y2476056D01*
X862885D01*
X874188Y2461056D01*
D02*
G37*
G36*
X970909Y2388266D02*
X973569Y2387616D01*
X976698Y2387063D01*
X980044Y2386668D01*
X987389Y2386352D01*
X988202Y2371352D01*
X984391Y2371267D01*
X977493Y2370582D01*
X974407Y2369983D01*
X971563Y2369213D01*
X971146Y2369062D01*
X971253Y2360348D01*
X970969Y2362439D01*
X970170Y2364309D01*
X968857Y2365960D01*
X967053Y2367372D01*
X966600Y2367159D01*
X964481Y2365875D01*
X962604Y2364420D01*
X960968Y2362794D01*
X960607Y2369872D01*
X958462Y2370362D01*
X954578Y2370912D01*
X950179Y2371242D01*
X945266Y2371352D01*
Y2386352D01*
X950141Y2386462D01*
X954500Y2386792D01*
X958344Y2387342D01*
X959698Y2387656D01*
X959361Y2394253D01*
X961186Y2392752D01*
X963227Y2391409D01*
X965487Y2390224D01*
X966113Y2389963D01*
X966777Y2390313D01*
X968556Y2391744D01*
X969819Y2393395D01*
X970566Y2395265D01*
X970797Y2397356D01*
X970909Y2388266D01*
D02*
G37*
G36*
X2956055Y1033945D02*
X2640000D01*
X2623183Y1030600D01*
X2623038Y1030503D01*
X2608038Y1038521D01*
Y1172026D01*
X2678937Y1242924D01*
X2698248Y1241022D01*
X2699359Y1239359D01*
X2713417Y1229966D01*
X2730000Y1226668D01*
X2746583Y1229966D01*
X2760640Y1239359D01*
X2770034Y1253417D01*
X2772470Y1265666D01*
X2774120Y1269147D01*
X2774174Y1270238D01*
X2774176Y1270248D01*
X2774259Y1270548D01*
X2774494Y1271157D01*
X2774941Y1272069D01*
X2775647Y1273266D01*
X2776472Y1274468D01*
X2779774Y1278468D01*
X2781850Y1280636D01*
X2782844Y1283191D01*
X2803428Y1303776D01*
X2809506Y1312872D01*
X2811641Y1323602D01*
Y2196398D01*
X2809507Y2207128D01*
X2803428Y2216224D01*
X2649826Y2369826D01*
X2640730Y2375904D01*
X2630000Y2378039D01*
X2480686D01*
Y2385000D01*
X2477969Y2398656D01*
X2470234Y2410234D01*
X2458656Y2417969D01*
X2445000Y2420686D01*
X2415000D01*
X2401344Y2417969D01*
X2389766Y2410234D01*
X2389020Y2409117D01*
X2370980D01*
X2370234Y2410234D01*
X2358656Y2417969D01*
X2345000Y2420686D01*
X2315000D01*
X2301344Y2417969D01*
X2289767Y2410234D01*
X2282031Y2398656D01*
X2281552Y2396251D01*
X2279801Y2395902D01*
X2270704Y2389824D01*
X2253923Y2373043D01*
X2251294Y2371982D01*
X2244197Y2365011D01*
X2236022Y2357468D01*
X2232493Y2354555D01*
X2231750Y2354013D01*
X2231731Y2354000D01*
X2231478Y2353874D01*
X2231412Y2353797D01*
X2230797Y2353406D01*
X2229626Y2351732D01*
X2228954Y2350955D01*
X2219187Y2344429D01*
X2205240Y2353748D01*
X2188658Y2357047D01*
X2172075Y2353748D01*
X2158017Y2344355D01*
X2148624Y2330297D01*
X2145325Y2313714D01*
X2148624Y2297132D01*
X2158017Y2283074D01*
X2172075Y2273680D01*
X2188658Y2270382D01*
X2205240Y2273680D01*
X2219149Y2282975D01*
X2233097Y2273655D01*
X2249679Y2270357D01*
X2264314Y2273268D01*
X2271480Y2270866D01*
X2279314Y2266678D01*
Y2255000D01*
X2282031Y2241344D01*
X2289767Y2229767D01*
X2291931Y2228321D01*
X2292037Y2228065D01*
X2292217Y2227621D01*
X2292263Y2227498D01*
X2292362Y2227166D01*
X2292572Y2219261D01*
X2289593Y2211842D01*
X2280505Y2210035D01*
X2266447Y2200641D01*
X2260587Y2191872D01*
X2244663Y2195040D01*
X2243336Y2201712D01*
X2233943Y2215770D01*
X2219885Y2225164D01*
X2203302Y2228462D01*
X2186720Y2225164D01*
X2172662Y2215770D01*
X2171755Y2214413D01*
X2157871Y2223690D01*
X2141288Y2226989D01*
X2124705Y2223690D01*
X2110648Y2214297D01*
X2101254Y2200239D01*
X2097956Y2183656D01*
X2101254Y2167074D01*
X2107404Y2157869D01*
X2101325Y2153807D01*
X2091931Y2139749D01*
X2088633Y2123167D01*
X2091931Y2106584D01*
X2101325Y2092526D01*
X2115383Y2083133D01*
X2131965Y2079834D01*
X2148548Y2083133D01*
X2162606Y2092526D01*
X2171999Y2106584D01*
X2175298Y2123167D01*
X2172655Y2136453D01*
X2180987Y2144394D01*
X2184812Y2146370D01*
X2186720Y2145096D01*
X2203302Y2141797D01*
X2219885Y2145096D01*
X2233943Y2154489D01*
X2239802Y2163258D01*
X2255726Y2160091D01*
X2257053Y2153418D01*
X2266447Y2139360D01*
X2280505Y2129967D01*
X2297087Y2126668D01*
X2313670Y2129967D01*
X2326616Y2138617D01*
X2330039Y2133494D01*
X2340232Y2126683D01*
X2338599Y2111065D01*
X2333417Y2110034D01*
X2319360Y2100640D01*
X2309966Y2086583D01*
X2306668Y2070000D01*
X2309966Y2053417D01*
X2319360Y2039359D01*
X2324835Y2035701D01*
X2327384Y2017036D01*
X2220174Y1909826D01*
X2214096Y1900730D01*
X2211962Y1890000D01*
Y1671614D01*
X2138386Y1598038D01*
X1970000D01*
X1959270Y1595904D01*
X1950174Y1589826D01*
X1918388Y1558040D01*
X1912994D01*
X1910501Y1559143D01*
X1904918Y1559277D01*
X1900749Y1559612D01*
X1897581Y1560093D01*
X1896897Y1560261D01*
X1893934Y1564694D01*
X1892714Y1567641D01*
X1891680Y1568069D01*
X1890233Y1570234D01*
X1878656Y1577969D01*
X1865000Y1580686D01*
X1835000D01*
X1821344Y1577969D01*
X1809766Y1570234D01*
X1809020Y1569117D01*
X1790980D01*
X1790234Y1570234D01*
X1778656Y1577969D01*
X1765000Y1580686D01*
X1735000D01*
X1721344Y1577969D01*
X1709767Y1570234D01*
X1696582Y1570034D01*
X1680000Y1573332D01*
X1663417Y1570034D01*
X1649359Y1560641D01*
X1639966Y1546583D01*
X1636668Y1530000D01*
X1639966Y1513417D01*
X1649359Y1499359D01*
X1663417Y1489966D01*
X1680000Y1486668D01*
X1696582Y1489966D01*
X1709767Y1489766D01*
X1721344Y1482031D01*
X1735000Y1479314D01*
X1765000D01*
X1778656Y1482031D01*
X1790234Y1489766D01*
X1790980Y1490883D01*
X1809020D01*
X1809766Y1489766D01*
X1821344Y1482031D01*
X1835000Y1479314D01*
X1865000D01*
X1878656Y1482031D01*
X1890233Y1489766D01*
X1891683Y1491936D01*
X1892718Y1492365D01*
X1893939Y1495312D01*
X1896900Y1499743D01*
X1897582Y1499911D01*
X1900750Y1500391D01*
X1904918Y1500726D01*
X1910501Y1500860D01*
X1912994Y1501963D01*
X1930002D01*
X1940732Y1504098D01*
X1949828Y1510176D01*
X1981614Y1541961D01*
X2066893D01*
X2078052Y1526961D01*
X2076668Y1520000D01*
X2079966Y1503417D01*
X2089360Y1489359D01*
X2103417Y1479966D01*
X2120000Y1476668D01*
X2136583Y1479966D01*
X2150641Y1489359D01*
X2153867Y1494189D01*
X2162550Y1495915D01*
X2171646Y1501993D01*
X2289826Y1620174D01*
X2295904Y1629270D01*
X2298039Y1640000D01*
Y1662491D01*
X2313039Y1670508D01*
X2317365Y1667617D01*
X2333948Y1664319D01*
X2346961Y1666907D01*
X2361961Y1658588D01*
Y1547736D01*
X2305914Y1491689D01*
X2305021Y1490353D01*
X2303417Y1490034D01*
X2289359Y1480640D01*
X2279966Y1466583D01*
X2276668Y1450000D01*
X2279966Y1433417D01*
X2289359Y1419359D01*
X2303417Y1409966D01*
X2320000Y1406667D01*
X2336583Y1409966D01*
X2350000Y1418931D01*
X2363417Y1409966D01*
X2380000Y1406667D01*
X2396583Y1409966D01*
X2410641Y1419359D01*
X2420034Y1433417D01*
X2422470Y1445666D01*
X2424120Y1449147D01*
X2424174Y1450238D01*
X2424176Y1450248D01*
X2424259Y1450548D01*
X2424494Y1451157D01*
X2424941Y1452069D01*
X2425647Y1453266D01*
X2426472Y1454468D01*
X2429774Y1458468D01*
X2431850Y1460636D01*
X2432844Y1463191D01*
X2453081Y1483428D01*
X2459159Y1492524D01*
X2459299Y1493232D01*
X2463418Y1499966D01*
X2480000Y1496668D01*
X2496583Y1499966D01*
X2510508Y1509271D01*
X2521344Y1502031D01*
X2535000Y1499314D01*
X2540063D01*
X2545804Y1485456D01*
X2378386Y1318039D01*
X2130000D01*
X2119270Y1315904D01*
X2110174Y1309826D01*
X1982805Y1182457D01*
X1976727Y1173361D01*
X1974592Y1162631D01*
Y897369D01*
X1976727Y886639D01*
X1982805Y877543D01*
X2037073Y823274D01*
Y623384D01*
X2035969Y620874D01*
X2035898Y617589D01*
X2035726Y615121D01*
X2035465Y613006D01*
X2035144Y611278D01*
X2034797Y609934D01*
X2034468Y608971D01*
X2034203Y608373D01*
X2034051Y608104D01*
X2034044Y608095D01*
X2033311Y607285D01*
X2032015Y603656D01*
X2025078Y593273D01*
X2021779Y576690D01*
X2025078Y560108D01*
X2034471Y546050D01*
X2048529Y536657D01*
X2065112Y533358D01*
X2081694Y536657D01*
X2095752Y546050D01*
X2105146Y560108D01*
X2108444Y576690D01*
X2105146Y593273D01*
X2098208Y603656D01*
X2096913Y607285D01*
X2096179Y608095D01*
X2096173Y608104D01*
X2096020Y608374D01*
X2095756Y608972D01*
X2095426Y609933D01*
X2095080Y611277D01*
X2094813Y612714D01*
X2094320Y617873D01*
X2094254Y620874D01*
X2093150Y623384D01*
Y834888D01*
X2091016Y845618D01*
X2084938Y854715D01*
X2082616Y857036D01*
X2085165Y875701D01*
X2090640Y879359D01*
X2100034Y893417D01*
X2102470Y905666D01*
X2104120Y909147D01*
X2104174Y910238D01*
X2104176Y910248D01*
X2104259Y910548D01*
X2104494Y911157D01*
X2104941Y912069D01*
X2105647Y913266D01*
X2106472Y914468D01*
X2109774Y918468D01*
X2111850Y920636D01*
X2112844Y923191D01*
X2129826Y940174D01*
X2135904Y949270D01*
X2138039Y960000D01*
Y1073534D01*
X2216466Y1151961D01*
X2500000D01*
X2510730Y1154096D01*
X2519826Y1160174D01*
X2536961Y1177309D01*
X2551961Y1171095D01*
Y351614D01*
X2408386Y208038D01*
X2307289D01*
X2301549Y221896D01*
X2389826Y310174D01*
X2395904Y319270D01*
X2398039Y330000D01*
Y769354D01*
X2402730Y770287D01*
X2416788Y779681D01*
X2426181Y793739D01*
X2429480Y810321D01*
X2426181Y826904D01*
X2416788Y840962D01*
X2407820Y846954D01*
X2403904Y864252D01*
X2429826Y890174D01*
X2435904Y899270D01*
X2438039Y910000D01*
Y983306D01*
X2439143Y985816D01*
X2439214Y989101D01*
X2439386Y991569D01*
X2439647Y993685D01*
X2439968Y995413D01*
X2440315Y996757D01*
X2440644Y997719D01*
X2440909Y998317D01*
X2441061Y998586D01*
X2441068Y998595D01*
X2441801Y999406D01*
X2443096Y1003035D01*
X2450034Y1013417D01*
X2453332Y1030000D01*
X2450034Y1046583D01*
X2440641Y1060641D01*
X2426583Y1070034D01*
X2410000Y1073332D01*
X2393417Y1070034D01*
X2379359Y1060641D01*
X2369966Y1046583D01*
X2366668Y1030000D01*
X2369966Y1013417D01*
X2376904Y1003035D01*
X2378199Y999406D01*
X2378932Y998595D01*
X2378939Y998587D01*
X2379092Y998316D01*
X2379356Y997719D01*
X2379685Y996757D01*
X2380032Y995413D01*
X2380299Y993977D01*
X2380792Y988818D01*
X2380857Y985816D01*
X2381961Y983307D01*
Y921614D01*
X2310840Y850493D01*
X2310146Y849822D01*
X2291203Y846947D01*
X2286583Y850034D01*
X2270000Y853332D01*
X2253417Y850034D01*
X2239360Y840640D01*
X2229966Y826583D01*
X2226668Y810000D01*
X2229966Y793417D01*
X2239360Y779359D01*
X2253417Y769966D01*
X2261961Y768266D01*
Y361614D01*
X2198386Y298039D01*
X1897799D01*
X1889781Y313038D01*
X1890034Y313417D01*
X1893333Y330000D01*
X1890034Y346583D01*
X1880641Y360641D01*
X1866583Y370034D01*
X1850000Y373333D01*
X1833417Y370034D01*
X1819360Y360641D01*
X1809966Y346583D01*
X1806668Y330000D01*
X1792148Y328038D01*
X1488893D01*
X1261971Y554960D01*
X1269360Y568784D01*
X1280000Y566668D01*
X1296583Y569966D01*
X1310641Y579360D01*
X1320034Y593417D01*
X1323332Y610000D01*
X1320034Y626583D01*
X1311068Y640000D01*
X1320034Y653417D01*
X1323332Y670000D01*
X1320034Y686583D01*
X1310641Y700640D01*
X1296583Y710034D01*
X1280000Y713332D01*
X1263417Y710034D01*
X1253035Y703096D01*
X1249406Y701801D01*
X1248595Y701068D01*
X1248587Y701061D01*
X1248316Y700908D01*
X1247719Y700644D01*
X1246757Y700315D01*
X1245413Y699968D01*
X1243977Y699701D01*
X1238818Y699208D01*
X1235816Y699143D01*
X1233307Y698038D01*
X1211614D01*
X1138039Y771614D01*
Y1235137D01*
X1151897Y1240877D01*
X1221961Y1170812D01*
Y1160374D01*
X1220856Y1157835D01*
X1220800Y1154754D01*
X1220370Y1149258D01*
X1220093Y1147402D01*
X1219727Y1145608D01*
X1219329Y1144108D01*
X1218923Y1142902D01*
X1218538Y1141984D01*
X1218201Y1141329D01*
X1217410Y1140067D01*
X1216742Y1136124D01*
X1214212Y1132337D01*
X1210914Y1115754D01*
X1214212Y1099172D01*
X1223605Y1085114D01*
X1237663Y1075720D01*
X1254246Y1072422D01*
X1270829Y1075720D01*
X1276961Y1079818D01*
X1291961Y1071800D01*
Y1017799D01*
X1276961Y1009781D01*
X1276583Y1010034D01*
X1260000Y1013332D01*
X1243417Y1010034D01*
X1229359Y1000641D01*
X1219966Y986583D01*
X1216668Y970000D01*
X1219966Y953417D01*
X1229359Y939360D01*
X1243417Y929966D01*
X1260000Y926668D01*
X1276583Y929966D01*
X1276961Y930219D01*
X1283475Y928543D01*
X1292692Y922690D01*
X1294096Y915631D01*
X1300121Y906613D01*
X1300063Y906331D01*
X1292699Y892796D01*
X1290000Y893332D01*
X1273417Y890034D01*
X1259359Y880641D01*
X1249966Y866583D01*
X1246668Y850000D01*
X1249966Y833417D01*
X1259359Y819360D01*
X1273417Y809966D01*
X1290000Y806668D01*
X1306583Y809966D01*
X1320640Y819360D01*
X1330034Y833417D01*
X1333332Y850000D01*
X1332795Y852699D01*
X1346620Y860088D01*
X1401962Y804746D01*
Y535148D01*
X1404096Y524418D01*
X1410174Y515321D01*
X1420996Y504499D01*
X1420857Y504184D01*
X1420786Y500899D01*
X1420614Y498431D01*
X1420353Y496315D01*
X1420032Y494587D01*
X1419685Y493243D01*
X1419356Y492281D01*
X1419091Y491683D01*
X1418939Y491414D01*
X1418932Y491405D01*
X1418199Y490594D01*
X1416903Y486965D01*
X1409966Y476583D01*
X1406667Y460000D01*
X1409966Y443417D01*
X1419359Y429360D01*
X1433417Y419966D01*
X1450000Y416668D01*
X1466583Y419966D01*
X1480640Y429360D01*
X1490034Y443417D01*
X1492233Y454475D01*
X1506829Y460364D01*
X1507538Y460383D01*
X1607748Y360174D01*
X1616844Y354096D01*
X1627574Y351961D01*
X1750000D01*
X1760730Y354096D01*
X1769826Y360174D01*
X1841614Y431962D01*
X1903307D01*
X1905818Y430857D01*
X1909101Y430786D01*
X1911569Y430615D01*
X1913685Y430353D01*
X1915413Y430032D01*
X1916757Y429685D01*
X1917719Y429356D01*
X1918317Y429091D01*
X1918586Y428939D01*
X1918595Y428932D01*
X1919406Y428199D01*
X1923035Y426904D01*
X1933417Y419966D01*
X1950000Y416668D01*
X1966583Y419966D01*
X1980640Y429360D01*
X1990034Y443417D01*
X1993332Y460000D01*
X1990034Y476583D01*
X1980640Y490641D01*
X1966583Y500034D01*
X1950000Y503332D01*
X1933417Y500034D01*
X1923035Y493097D01*
X1919406Y491801D01*
X1918595Y491068D01*
X1918587Y491062D01*
X1918316Y490909D01*
X1917719Y490644D01*
X1916757Y490315D01*
X1915413Y489968D01*
X1913977Y489701D01*
X1908818Y489208D01*
X1905818Y489143D01*
X1903307Y488039D01*
X1830000D01*
X1819270Y485904D01*
X1810174Y479826D01*
X1793334Y462986D01*
X1774688Y465554D01*
X1770997Y471078D01*
X1756939Y480471D01*
X1740357Y483770D01*
X1723774Y480471D01*
X1709716Y471078D01*
X1702059Y459618D01*
X1700577Y459400D01*
X1698336Y459221D01*
X1695026Y459141D01*
X1693639Y458527D01*
X1692164Y458881D01*
X1690788Y458038D01*
X1631614D01*
X1518039Y571614D01*
Y850000D01*
X1515904Y860730D01*
X1509826Y869826D01*
X1480379Y899273D01*
X1481596Y911198D01*
X1495293Y919593D01*
X1510000Y916668D01*
X1526583Y919966D01*
X1540641Y929360D01*
X1550034Y943417D01*
X1553332Y960000D01*
X1550034Y976583D01*
X1547455Y980443D01*
X1546570Y985446D01*
X1546952Y989685D01*
X1549449Y998913D01*
X1550234Y999767D01*
X1550980Y1000883D01*
X1569020D01*
X1569766Y999766D01*
X1581344Y992031D01*
X1595000Y989314D01*
X1625000D01*
X1636961Y991694D01*
X1640424Y990815D01*
X1651961Y982881D01*
Y963794D01*
X1651538Y963464D01*
X1650088Y962468D01*
X1648891Y961762D01*
X1647975Y961313D01*
X1647369Y961079D01*
X1647068Y960996D01*
X1647057Y960994D01*
X1645966Y960939D01*
X1642486Y959290D01*
X1630237Y956854D01*
X1616179Y947460D01*
X1606786Y933402D01*
X1603487Y916820D01*
X1606786Y900237D01*
X1616179Y886179D01*
X1630237Y876786D01*
X1646820Y873487D01*
X1663402Y876786D01*
X1666961Y879164D01*
X1681961Y871146D01*
Y841614D01*
X1651712Y811364D01*
X1645634Y802268D01*
X1643499Y791538D01*
Y758463D01*
X1645634Y747733D01*
X1651712Y738636D01*
X1706962Y683386D01*
Y625119D01*
X1705857Y622609D01*
X1705786Y619324D01*
X1705615Y616856D01*
X1705353Y614741D01*
X1705032Y613012D01*
X1704685Y611668D01*
X1704356Y610706D01*
X1704091Y610108D01*
X1703939Y609839D01*
X1703932Y609830D01*
X1703199Y609019D01*
X1701904Y605390D01*
X1694966Y595008D01*
X1691668Y578425D01*
X1692770Y572887D01*
X1680943Y557886D01*
X1664393D01*
X1663913Y558644D01*
X1663629Y559179D01*
X1663409Y559948D01*
X1663321Y560058D01*
X1660034Y576583D01*
X1650641Y590640D01*
X1636583Y600034D01*
X1620000Y603332D01*
X1603417Y600034D01*
X1589360Y590640D01*
X1579966Y576583D01*
X1576668Y560000D01*
X1579966Y543417D01*
X1589360Y529359D01*
X1603417Y519966D01*
X1619942Y516679D01*
X1620052Y516591D01*
X1620821Y516371D01*
X1621355Y516088D01*
X1622355Y515453D01*
X1623520Y514604D01*
X1627534Y511172D01*
X1629809Y508974D01*
X1634889Y506972D01*
X1639422Y503944D01*
X1650152Y501809D01*
X1752155D01*
X1762885Y503944D01*
X1771981Y510022D01*
X1799826Y537867D01*
X1805904Y546963D01*
X1808039Y557693D01*
Y1179705D01*
X1805904Y1190434D01*
X1799826Y1199531D01*
X1608038Y1391319D01*
Y1949314D01*
X1625000D01*
X1638656Y1952031D01*
X1650234Y1959766D01*
X1650980Y1960883D01*
X1669020D01*
X1669766Y1959766D01*
X1681344Y1952031D01*
X1695000Y1949314D01*
X1725000D01*
X1738656Y1952031D01*
X1750233Y1959766D01*
X1757969Y1971344D01*
X1760686Y1985000D01*
Y2015000D01*
X1759852Y2019192D01*
X1760490Y2020734D01*
X1758672Y2025124D01*
X1757969Y2028656D01*
X1757648Y2029136D01*
X1757051Y2032441D01*
X1753692Y2037666D01*
X1751057Y2042129D01*
X1747047Y2050051D01*
X1748458Y2053011D01*
X1753814Y2062523D01*
X1757052Y2067559D01*
X1757649Y2070864D01*
X1757969Y2071344D01*
X1758672Y2074876D01*
X1760490Y2079266D01*
X1759852Y2080808D01*
X1760686Y2085000D01*
Y2115000D01*
X1759852Y2119192D01*
X1760490Y2120734D01*
X1758672Y2125124D01*
X1757969Y2128656D01*
X1757648Y2129136D01*
X1757051Y2132441D01*
X1753692Y2137667D01*
X1751057Y2142129D01*
X1746466Y2151199D01*
X1744970Y2154804D01*
X1746695Y2159313D01*
X1748458Y2163012D01*
X1752017Y2169331D01*
X1761105Y2171281D01*
X1769735Y2169813D01*
X1769766Y2169766D01*
X1781344Y2162031D01*
X1795000Y2159314D01*
X1797321D01*
X1803340Y2150306D01*
X2005432Y1948214D01*
X2014529Y1942136D01*
X2025259Y1940001D01*
X2158040D01*
X2168770Y1942136D01*
X2177866Y1948214D01*
X2204424Y1974771D01*
X2205042Y1974854D01*
X2206665Y1976975D01*
X2209156Y1977942D01*
X2211608Y1980288D01*
X2212188Y1980788D01*
X2213417Y1979966D01*
X2230000Y1976668D01*
X2246583Y1979966D01*
X2260641Y1989359D01*
X2270034Y2003417D01*
X2273333Y2020000D01*
X2270034Y2036583D01*
X2260641Y2050641D01*
X2246583Y2060034D01*
X2230000Y2063332D01*
X2213417Y2060034D01*
X2199360Y2050641D01*
X2196545Y2046428D01*
X2194792Y2045715D01*
X2181004Y2032101D01*
X2174706Y2032794D01*
X2163789Y2036183D01*
X2155975Y2047879D01*
X2141917Y2057272D01*
X2125334Y2060570D01*
X2108751Y2057272D01*
X2094694Y2047879D01*
X2088342Y2038373D01*
X2037640D01*
X2017076Y2058937D01*
X2018978Y2078249D01*
X2020641Y2079360D01*
X2030034Y2093417D01*
X2033332Y2110000D01*
X2030034Y2126583D01*
X2020641Y2140641D01*
X2006583Y2150034D01*
X1990000Y2153332D01*
X1981050Y2151552D01*
X1975197Y2165682D01*
X1980640Y2169319D01*
X1990033Y2183377D01*
X1993332Y2199959D01*
X1992586Y2203707D01*
X2006046Y2206384D01*
X2020104Y2215778D01*
X2029497Y2229836D01*
X2032796Y2246418D01*
X2029497Y2263001D01*
X2020104Y2277059D01*
X2006046Y2286452D01*
X1989463Y2289751D01*
X1972881Y2286452D01*
X1958823Y2277059D01*
X1949429Y2263001D01*
X1946131Y2246418D01*
X1946876Y2242670D01*
X1933417Y2239993D01*
X1922737Y2232857D01*
X1910692Y2235693D01*
X1906405Y2238212D01*
X1905904Y2240730D01*
X1899826Y2249826D01*
X1859826Y2289826D01*
X1850730Y2295904D01*
X1840000Y2298039D01*
X1675184D01*
X1671150Y2299082D01*
X1660879Y2306001D01*
X1660686Y2306286D01*
Y2325000D01*
X1657969Y2338656D01*
X1650233Y2350234D01*
X1638656Y2357969D01*
X1625000Y2360686D01*
X1595000D01*
X1581344Y2357969D01*
X1569766Y2350234D01*
X1569020Y2349117D01*
X1550980D01*
X1550234Y2350234D01*
X1538656Y2357969D01*
X1525000Y2360686D01*
X1495000D01*
X1481344Y2357969D01*
X1469766Y2350234D01*
X1462031Y2338656D01*
X1459314Y2325000D01*
Y2295000D01*
X1460148Y2290808D01*
X1459510Y2289266D01*
X1461328Y2284876D01*
X1462031Y2281344D01*
X1462351Y2280864D01*
X1462948Y2277559D01*
X1466308Y2272334D01*
X1468941Y2267873D01*
X1470778Y2264245D01*
X1464716Y2252008D01*
X1449752Y2250555D01*
X1438656Y2257969D01*
X1425000Y2260685D01*
X1395000D01*
X1381344Y2257969D01*
X1369766Y2250233D01*
X1366507Y2245356D01*
X1350489Y2248110D01*
X1347969Y2251344D01*
X1350686Y2265000D01*
Y2295000D01*
X1347969Y2308656D01*
X1340234Y2320233D01*
X1339117Y2320980D01*
Y2339020D01*
X1340233Y2339766D01*
X1353418Y2339966D01*
X1370000Y2336668D01*
X1386583Y2339966D01*
X1400641Y2349360D01*
X1410034Y2363417D01*
X1413332Y2380000D01*
X1410034Y2396583D01*
X1400641Y2410641D01*
X1386583Y2420034D01*
X1370000Y2423332D01*
X1353418Y2420034D01*
X1340233Y2420233D01*
X1328656Y2427969D01*
X1315000Y2430686D01*
X1285000D01*
X1271344Y2427969D01*
X1259766Y2420233D01*
X1259020Y2419117D01*
X1240980D01*
X1240234Y2420233D01*
X1228656Y2427969D01*
X1215000Y2430686D01*
X1185000D01*
X1180808Y2429852D01*
X1179266Y2430490D01*
X1174876Y2428672D01*
X1171344Y2427969D01*
X1170864Y2427648D01*
X1167560Y2427052D01*
X1162334Y2423692D01*
X1157873Y2421058D01*
X1149949Y2417047D01*
X1146990Y2418457D01*
X1137476Y2423814D01*
X1132441Y2427052D01*
X1129136Y2427648D01*
X1128656Y2427969D01*
X1125124Y2428672D01*
X1120734Y2430490D01*
X1119192Y2429852D01*
X1115000Y2430686D01*
X1085000D01*
X1071344Y2427969D01*
X1059766Y2420233D01*
X1059020Y2419117D01*
X1040980D01*
X1040234Y2420233D01*
X1028656Y2427969D01*
X1015000Y2430686D01*
X985000D01*
X971344Y2427969D01*
X964744Y2423559D01*
X953935Y2434368D01*
X953932Y2434378D01*
X956230Y2437817D01*
X959529Y2454400D01*
X958205Y2461056D01*
X969508Y2476056D01*
X2007077D01*
X2008555Y2461056D01*
X2003417Y2460034D01*
X1989359Y2450641D01*
X1979966Y2436583D01*
X1976668Y2420000D01*
X1979966Y2403417D01*
X1989359Y2389359D01*
X2003417Y2379966D01*
X2020000Y2376668D01*
X2036583Y2379966D01*
X2050641Y2389359D01*
X2060034Y2403417D01*
X2063332Y2420000D01*
X2060034Y2436583D01*
X2050641Y2450641D01*
X2036583Y2460034D01*
X2031446Y2461056D01*
X2032923Y2476056D01*
X2956055D01*
Y1033945D01*
D02*
G37*
G36*
X1327734Y2399513D02*
X1328712Y2396992D01*
X1330340Y2394767D01*
X1332620Y2392839D01*
X1335552Y2391208D01*
X1339135Y2389873D01*
X1341722Y2389239D01*
X1342978Y2389563D01*
X1345627Y2390470D01*
X1348048Y2391543D01*
X1350239Y2392780D01*
X1352200Y2394183D01*
X1353932Y2395750D01*
Y2387645D01*
X1359983Y2387500D01*
Y2372500D01*
X1353932Y2372355D01*
Y2364250D01*
X1352200Y2365818D01*
X1350238Y2367220D01*
X1348047Y2368458D01*
X1345627Y2369530D01*
X1342977Y2370438D01*
X1341722Y2370762D01*
X1339135Y2370127D01*
X1335553Y2368793D01*
X1332621Y2367161D01*
X1330341Y2365233D01*
X1328712Y2363009D01*
X1327735Y2360488D01*
X1327409Y2357670D01*
X1327409Y2372476D01*
X1326287Y2372500D01*
Y2387500D01*
X1327409Y2387525D01*
X1327409Y2402331D01*
X1327734Y2399513D01*
D02*
G37*
G36*
X2278888Y2347748D02*
X2276187Y2344915D01*
X2273872Y2342202D01*
X2271942Y2339608D01*
X2270399Y2337135D01*
X2269241Y2334781D01*
X2268468Y2332548D01*
X2268082Y2330435D01*
X2268081Y2328442D01*
X2268465Y2326569D01*
X2269236Y2324816D01*
X2241186Y2334525D01*
X2242431Y2335149D01*
X2243961Y2336124D01*
X2245776Y2337449D01*
X2250261Y2341151D01*
X2259127Y2349332D01*
X2266464Y2356538D01*
X2278888Y2347748D01*
D02*
G37*
G36*
X2475303Y2304697D02*
X2471371Y2300658D01*
X2462736Y2290418D01*
X2460910Y2287630D01*
X2459611Y2285154D01*
X2458838Y2282991D01*
X2458592Y2281140D01*
X2458872Y2279601D01*
X2459678Y2278375D01*
X2438375Y2299678D01*
X2439601Y2298872D01*
X2441139Y2298592D01*
X2442990Y2298838D01*
X2445154Y2299611D01*
X2447630Y2300911D01*
X2450418Y2302736D01*
X2453519Y2305088D01*
X2460658Y2311372D01*
X2464696Y2315303D01*
X2475303Y2304697D01*
D02*
G37*
G36*
X1638872Y2300397D02*
X1638592Y2298859D01*
X1638838Y2297009D01*
X1639611Y2294846D01*
X1640910Y2292370D01*
X1642736Y2289582D01*
X1645088Y2286481D01*
X1651371Y2279343D01*
X1655302Y2275305D01*
X1644695Y2264698D01*
X1640657Y2268629D01*
X1630418Y2277264D01*
X1627630Y2279090D01*
X1625154Y2280389D01*
X1622991Y2281162D01*
X1621141Y2281408D01*
X1619602Y2281128D01*
X1618376Y2280322D01*
X1639678Y2301623D01*
X1638872Y2300397D01*
D02*
G37*
G36*
X827239Y2284971D02*
X836524Y2276834D01*
X837059Y2276610D01*
X837395Y2276620D01*
X825571Y2258219D01*
X825426Y2258386D01*
X824260Y2259590D01*
X810978Y2272929D01*
X825120Y2287072D01*
X827239Y2284971D01*
D02*
G37*
G36*
X766302Y2305263D02*
X777010Y2299233D01*
X782149Y2296784D01*
X791999Y2293015D01*
X796709Y2291696D01*
X801277Y2290754D01*
X805701Y2290189D01*
X809983Y2290001D01*
Y2270001D01*
X805701Y2269812D01*
X801277Y2269247D01*
X796710Y2268305D01*
X791999Y2266986D01*
X787146Y2265290D01*
X782150Y2263217D01*
X771728Y2257941D01*
X766302Y2254738D01*
X760734Y2251158D01*
Y2308842D01*
X766302Y2305263D01*
D02*
G37*
G36*
X1535262Y2283698D02*
X1529233Y2272990D01*
X1526783Y2267850D01*
X1523745Y2259909D01*
X1524710Y2257146D01*
X1526783Y2252149D01*
X1532059Y2241727D01*
X1535262Y2236302D01*
X1538842Y2230733D01*
X1481157D01*
X1484737Y2236302D01*
X1490767Y2247009D01*
X1493216Y2252149D01*
X1496255Y2260091D01*
X1495289Y2262855D01*
X1493216Y2267851D01*
X1487941Y2278273D01*
X1484737Y2283698D01*
X1481158Y2289266D01*
X1538842D01*
X1535262Y2283698D01*
D02*
G37*
G36*
X2352329Y2242590D02*
X2349511Y2242264D01*
X2346989Y2241287D01*
X2344765Y2239659D01*
X2342837Y2237379D01*
X2341206Y2234447D01*
X2339871Y2230864D01*
X2338833Y2226630D01*
X2338091Y2221744D01*
X2337646Y2216206D01*
X2337498Y2210017D01*
X2322498D01*
X2322350Y2216207D01*
X2321905Y2221744D01*
X2321163Y2226631D01*
X2320125Y2230865D01*
X2318790Y2234448D01*
X2317159Y2237380D01*
X2315231Y2239661D01*
X2313006Y2241290D01*
X2310485Y2242267D01*
X2307667Y2242593D01*
X2352329Y2242590D01*
D02*
G37*
G36*
X665262Y2253698D02*
X659232Y2242989D01*
X656783Y2237850D01*
X653744Y2229909D01*
X654710Y2227147D01*
X656783Y2222150D01*
X662059Y2211728D01*
X665262Y2206302D01*
X668842Y2200734D01*
X621605D01*
X610322Y2170000D01*
X611240Y2173800D01*
X611059Y2177200D01*
X609778Y2180200D01*
X607397Y2182800D01*
X603917Y2185000D01*
X599336Y2186800D01*
X593656Y2188200D01*
X586876Y2189200D01*
X578997Y2189800D01*
X570017Y2190000D01*
X571012Y2210000D01*
X616812Y2209985D01*
X620767Y2217009D01*
X623216Y2222148D01*
X626255Y2230091D01*
X625289Y2232855D01*
X623216Y2237852D01*
X617940Y2248273D01*
X614737Y2253698D01*
X611158Y2259266D01*
X668842D01*
X665262Y2253698D01*
D02*
G37*
G36*
X2333300Y2195607D02*
X2330674Y2192864D01*
X2326258Y2187515D01*
X2324468Y2184908D01*
X2322957Y2182347D01*
X2321725Y2179832D01*
X2320772Y2177362D01*
X2320098Y2174937D01*
X2319702Y2172559D01*
X2319586Y2170226D01*
X2297312Y2192500D01*
X2299645Y2192616D01*
X2302024Y2193011D01*
X2304449Y2193685D01*
X2306918Y2194638D01*
X2309434Y2195870D01*
X2311995Y2197381D01*
X2314601Y2199171D01*
X2317253Y2201240D01*
X2319951Y2203587D01*
X2322694Y2206214D01*
X2333300Y2195607D01*
D02*
G37*
G36*
X767734Y2199514D02*
X768711Y2196992D01*
X770340Y2194768D01*
X772620Y2192840D01*
X775552Y2191208D01*
X779135Y2189874D01*
X783370Y2188835D01*
X788256Y2188094D01*
X793794Y2187649D01*
X799983Y2187501D01*
Y2172501D01*
X793794Y2172353D01*
X788256Y2171908D01*
X783370Y2171166D01*
X779136Y2170128D01*
X775552Y2168793D01*
X772621Y2167162D01*
X770341Y2165234D01*
X768712Y2163009D01*
X767735Y2160488D01*
X767409Y2157670D01*
X767408Y2202331D01*
X767734Y2199514D01*
D02*
G37*
G36*
X287018Y2164876D02*
X280264Y2157841D01*
X269773Y2145108D01*
X266036Y2139410D01*
X263305Y2134158D01*
X261581Y2129350D01*
X260862Y2124989D01*
X261149Y2121073D01*
X262442Y2117602D01*
X264742Y2114577D01*
X222578Y2156741D01*
X225603Y2154442D01*
X229073Y2153149D01*
X232989Y2152862D01*
X237351Y2153580D01*
X242158Y2155305D01*
X247410Y2158036D01*
X253108Y2161772D01*
X259252Y2166515D01*
X265841Y2172264D01*
X272876Y2179018D01*
X287018Y2164876D01*
D02*
G37*
G36*
X2438117Y2144087D02*
X2436102Y2144623D01*
X2433999Y2144802D01*
X2431808Y2144624D01*
X2429528Y2144089D01*
X2427160Y2143198D01*
X2424704Y2141950D01*
X2422159Y2140345D01*
X2419526Y2138383D01*
X2416805Y2136064D01*
X2413995Y2133389D01*
X2407411Y2148018D01*
X2410054Y2150730D01*
X2416708Y2158434D01*
X2418501Y2160857D01*
X2421452Y2165488D01*
X2422610Y2167695D01*
X2423555Y2169830D01*
X2424288Y2171892D01*
X2438117Y2144087D01*
D02*
G37*
G36*
X1151994Y2143648D02*
X1150471Y2145330D01*
X1148692Y2146835D01*
X1146658Y2148163D01*
X1144367Y2149314D01*
X1141820Y2150288D01*
X1139018Y2151084D01*
X1135959Y2151704D01*
X1132645Y2152147D01*
X1129074Y2152412D01*
X1125247Y2152501D01*
X1126978Y2167501D01*
X1130740Y2167575D01*
X1137651Y2168172D01*
X1140799Y2168695D01*
X1143743Y2169367D01*
X1146483Y2170188D01*
X1149018Y2171158D01*
X1151348Y2172277D01*
X1153473Y2173546D01*
X1155395Y2174964D01*
X1151994Y2143648D01*
D02*
G37*
G36*
X1027734Y2179514D02*
X1028711Y2176992D01*
X1030340Y2174768D01*
X1032620Y2172840D01*
X1035552Y2171209D01*
X1039135Y2169874D01*
X1043370Y2168835D01*
X1048256Y2168094D01*
X1053794Y2167649D01*
X1059983Y2167501D01*
Y2152501D01*
X1053794Y2152353D01*
X1048256Y2151908D01*
X1043370Y2151166D01*
X1039136Y2150128D01*
X1035553Y2148793D01*
X1032621Y2147162D01*
X1030341Y2145234D01*
X1028712Y2143009D01*
X1027735Y2140488D01*
X1027410Y2137670D01*
X1027408Y2182331D01*
X1027734Y2179514D01*
D02*
G37*
G36*
X1535262Y2183697D02*
X1529233Y2172990D01*
X1526783Y2167850D01*
X1523014Y2158001D01*
X1521695Y2153290D01*
X1520849Y2149187D01*
X1520920Y2148345D01*
X1521437Y2145533D01*
X1522070Y2143028D01*
X1522817Y2140828D01*
X1523680Y2138936D01*
X1524657Y2137349D01*
X1525750Y2136068D01*
X1494250Y2136068D01*
X1495342Y2137349D01*
X1496320Y2138935D01*
X1497182Y2140828D01*
X1497930Y2143027D01*
X1498562Y2145533D01*
X1499080Y2148345D01*
X1499174Y2149073D01*
X1498304Y2153290D01*
X1496985Y2158001D01*
X1495289Y2162854D01*
X1493216Y2167850D01*
X1487941Y2178272D01*
X1484737Y2183697D01*
X1481157Y2189266D01*
X1538842D01*
X1535262Y2183697D01*
D02*
G37*
G36*
X1735262Y2183698D02*
X1729233Y2172990D01*
X1726783Y2167850D01*
X1723015Y2158001D01*
X1722174Y2154999D01*
X1723015Y2151999D01*
X1724711Y2147146D01*
X1726783Y2142150D01*
X1732059Y2131728D01*
X1735262Y2126302D01*
X1738842Y2120734D01*
X1681157D01*
X1684738Y2126302D01*
X1690767Y2137010D01*
X1693217Y2142150D01*
X1696985Y2151999D01*
X1697825Y2155000D01*
X1696985Y2158001D01*
X1695289Y2162854D01*
X1693217Y2167851D01*
X1687941Y2178273D01*
X1684738Y2183698D01*
X1681158Y2189266D01*
X1738843D01*
X1735262Y2183698D01*
D02*
G37*
G36*
X1050470Y2099863D02*
X1044638Y2093822D01*
X1035475Y2082987D01*
X1032145Y2078193D01*
X1029649Y2073815D01*
X1027987Y2069853D01*
X1027159Y2066307D01*
X1027165Y2063176D01*
X1028004Y2060462D01*
X1029678Y2058163D01*
X998163Y2089678D01*
X1000462Y2088004D01*
X1003177Y2087164D01*
X1006307Y2087159D01*
X1009853Y2087987D01*
X1013815Y2089649D01*
X1018193Y2092145D01*
X1022987Y2095475D01*
X1028197Y2099639D01*
X1039864Y2110470D01*
X1050470Y2099863D01*
D02*
G37*
G36*
X873727Y2139266D02*
X928843D01*
X925262Y2133697D01*
X919232Y2122988D01*
X916782Y2117849D01*
X913744Y2109909D01*
X914709Y2107147D01*
X916782Y2102151D01*
X922059Y2091729D01*
X925262Y2086303D01*
X928843Y2080734D01*
X871158D01*
X874737Y2086302D01*
X880766Y2097009D01*
X883216Y2102148D01*
X886254Y2110090D01*
X885288Y2112855D01*
X883216Y2117852D01*
X877940Y2128273D01*
X874737Y2133698D01*
X872439Y2137273D01*
X871817Y2137627D01*
X870080Y2138256D01*
X867882Y2138789D01*
X865226Y2139225D01*
X862109Y2139564D01*
X854496Y2139952D01*
X850000Y2140000D01*
Y2160000D01*
X853981Y2160050D01*
X863324Y2160802D01*
X865573Y2161253D01*
X867389Y2161805D01*
X868771Y2162456D01*
X869721Y2163208D01*
X870238Y2164060D01*
X870322Y2165013D01*
X873727Y2139266D01*
D02*
G37*
G36*
X550891Y2136050D02*
X552756Y2132681D01*
X555473Y2129709D01*
X559042Y2127133D01*
X563462Y2124954D01*
X568733Y2123171D01*
X574856Y2121783D01*
X581831Y2120793D01*
X589657Y2120198D01*
X598335Y2120000D01*
X599059Y2100000D01*
X590867Y2099800D01*
X583600Y2099200D01*
X577257Y2098200D01*
X571839Y2096800D01*
X567346Y2095000D01*
X563778Y2092800D01*
X561135Y2090200D01*
X559417Y2087200D01*
X558623Y2083800D01*
X558754Y2080000D01*
X549877Y2139814D01*
X550891Y2136050D01*
D02*
G37*
G36*
X844360Y2085253D02*
X849761Y2077246D01*
X849315Y2075000D01*
Y2045000D01*
X852031Y2031344D01*
X859767Y2019766D01*
X871344Y2012031D01*
X885000Y2009314D01*
X915000D01*
X928657Y2012031D01*
X940234Y2019766D01*
X940980Y2020883D01*
X959020D01*
X959766Y2019766D01*
X971344Y2012031D01*
X985000Y2009314D01*
X1015000D01*
X1028656Y2012031D01*
X1040234Y2019766D01*
X1047969Y2031344D01*
X1050686Y2045000D01*
Y2054181D01*
X1051063Y2054798D01*
X1050686Y2056362D01*
Y2056617D01*
X1051326Y2058163D01*
X1050686Y2059709D01*
Y2066939D01*
X1052668Y2069793D01*
X1060707Y2079299D01*
X1063277Y2081962D01*
X1238386D01*
X1431962Y1888386D01*
Y1577289D01*
X1418104Y1571549D01*
X1156268Y1833385D01*
X1165830Y1845036D01*
X1173417Y1839966D01*
X1190000Y1836668D01*
X1206583Y1839966D01*
X1220640Y1849360D01*
X1230034Y1863417D01*
X1233332Y1880000D01*
X1230034Y1896583D01*
X1220640Y1910641D01*
X1206583Y1920034D01*
X1194334Y1922470D01*
X1190853Y1924120D01*
X1189762Y1924174D01*
X1189751Y1924176D01*
X1189452Y1924259D01*
X1188843Y1924494D01*
X1187931Y1924941D01*
X1186734Y1925647D01*
X1185532Y1926472D01*
X1181532Y1929774D01*
X1179364Y1931850D01*
X1176809Y1932844D01*
X1169826Y1939826D01*
X1160730Y1945904D01*
X1150000Y1948039D01*
X841616D01*
X817248Y1972407D01*
X816335Y1974865D01*
X806051Y1985943D01*
X802840Y1989960D01*
X800685Y1993061D01*
Y2000291D01*
X801326Y2001837D01*
X800685Y2003383D01*
Y2003638D01*
X801063Y2005202D01*
X800685Y2005819D01*
Y2015000D01*
X797969Y2028656D01*
X790233Y2040234D01*
X778656Y2047969D01*
X765000Y2050686D01*
X735000D01*
X721343Y2047969D01*
X709766Y2040234D01*
X709020Y2039117D01*
X690980D01*
X690234Y2040234D01*
X678656Y2047969D01*
X665000Y2050686D01*
X635000D01*
X621344Y2047969D01*
X609766Y2040234D01*
X602031Y2028656D01*
X599314Y2015000D01*
Y1985000D01*
X592895Y1974725D01*
X586869Y1970588D01*
X567828D01*
X563653Y1979814D01*
X562327Y1985588D01*
X575374Y2005114D01*
X580224Y2029500D01*
Y2076608D01*
X581660Y2076979D01*
X586178Y2077691D01*
X592022Y2078174D01*
X599587Y2078359D01*
X599713Y2078414D01*
X599842Y2078366D01*
X602130Y2079412D01*
X809999D01*
X810000Y2079412D01*
X821705Y2081741D01*
X831629Y2088371D01*
X844360Y2085253D01*
D02*
G37*
G36*
X1601625Y2070322D02*
X1600735Y2070793D01*
X1599497Y2070772D01*
X1597912Y2070261D01*
X1595978Y2069258D01*
X1593697Y2067764D01*
X1591067Y2065779D01*
X1584765Y2060336D01*
X1577071Y2052929D01*
X1562929Y2067071D01*
X1566878Y2071092D01*
X1577764Y2083697D01*
X1579258Y2085978D01*
X1580260Y2087912D01*
X1580772Y2089497D01*
X1580793Y2090735D01*
X1580322Y2091625D01*
X1601625Y2070322D01*
D02*
G37*
G36*
X2461348Y2080998D02*
X2459724Y2079360D01*
X2458270Y2077480D01*
X2456988Y2075359D01*
X2455877Y2072996D01*
X2454936Y2070392D01*
X2454167Y2067547D01*
X2453569Y2064460D01*
X2453141Y2061132D01*
X2452885Y2057562D01*
X2452799Y2053751D01*
X2437799Y2054539D01*
X2437720Y2058321D01*
X2437087Y2065231D01*
X2436533Y2068360D01*
X2435821Y2071270D01*
X2434951Y2073963D01*
X2433922Y2076438D01*
X2432735Y2078695D01*
X2431390Y2080734D01*
X2429887Y2082556D01*
X2461348Y2080998D01*
D02*
G37*
G36*
X1527348Y2074658D02*
X1528935Y2073680D01*
X1530828Y2072817D01*
X1533027Y2072070D01*
X1535533Y2071437D01*
X1538345Y2070920D01*
X1541463Y2070517D01*
X1548618Y2070057D01*
X1552656Y2070000D01*
Y2050000D01*
X1548618Y2049943D01*
X1538345Y2049080D01*
X1535533Y2048563D01*
X1533027Y2047930D01*
X1530828Y2047183D01*
X1528935Y2046320D01*
X1527348Y2045342D01*
X1526068Y2044250D01*
Y2075750D01*
X1527348Y2074658D01*
D02*
G37*
G36*
X1735262Y2073698D02*
X1729233Y2062990D01*
X1726783Y2057851D01*
X1723745Y2049910D01*
X1724711Y2047146D01*
X1726783Y2042150D01*
X1732059Y2031728D01*
X1735262Y2026302D01*
X1738842Y2020734D01*
X1681157D01*
X1684738Y2026302D01*
X1690767Y2037010D01*
X1693217Y2042150D01*
X1696255Y2050091D01*
X1695289Y2052854D01*
X1693217Y2057851D01*
X1687941Y2068272D01*
X1684738Y2073698D01*
X1681157Y2079266D01*
X1738842D01*
X1735262Y2073698D01*
D02*
G37*
G36*
X2215683Y2002642D02*
X2214242Y2003564D01*
X2212643Y2004079D01*
X2210887Y2004188D01*
X2208974Y2003891D01*
X2206904Y2003189D01*
X2204676Y2002080D01*
X2202291Y2000565D01*
X2199749Y1998645D01*
X2197049Y1996319D01*
X2194193Y1993586D01*
X2186413Y2007019D01*
X2210001Y2030310D01*
X2215683Y2002642D01*
D02*
G37*
G36*
X778004Y1999538D02*
X777164Y1996824D01*
X777158Y1993693D01*
X777987Y1990147D01*
X779649Y1986185D01*
X782145Y1981807D01*
X785475Y1977013D01*
X789639Y1971803D01*
X800470Y1960137D01*
X789863Y1949530D01*
X783822Y1955362D01*
X772987Y1964525D01*
X768193Y1967855D01*
X763815Y1970351D01*
X759853Y1972013D01*
X756307Y1972841D01*
X753176Y1972836D01*
X750462Y1971996D01*
X748163Y1970322D01*
X779678Y2001837D01*
X778004Y1999538D01*
D02*
G37*
G36*
X660033Y1979266D02*
X678842D01*
X675263Y1973698D01*
X669233Y1962991D01*
X666784Y1957852D01*
X665649Y1954885D01*
X666784Y1952148D01*
X672060Y1941727D01*
X675263Y1936302D01*
X678842Y1930734D01*
X660033D01*
X660001Y1930017D01*
X640001D01*
X639970Y1930734D01*
X621158D01*
X624738Y1936302D01*
X630768Y1947011D01*
X633217Y1952150D01*
X634352Y1955115D01*
X633217Y1957850D01*
X627941Y1968272D01*
X624738Y1973698D01*
X621158Y1979266D01*
X639970D01*
X640001Y1979983D01*
X660001D01*
X660033Y1979266D01*
D02*
G37*
G36*
X287018Y1910876D02*
X280264Y1903841D01*
X269773Y1891108D01*
X266036Y1885410D01*
X263305Y1880158D01*
X261581Y1875350D01*
X260862Y1870989D01*
X261149Y1867073D01*
X262442Y1863602D01*
X264742Y1860577D01*
X222578Y1902741D01*
X225603Y1900442D01*
X229073Y1899149D01*
X232989Y1898862D01*
X237351Y1899580D01*
X242158Y1901305D01*
X247410Y1904036D01*
X253108Y1907772D01*
X259252Y1912515D01*
X265841Y1918264D01*
X272876Y1925018D01*
X287018Y1910876D01*
D02*
G37*
G36*
X1167137Y1913587D02*
X1172486Y1909170D01*
X1175093Y1907380D01*
X1177654Y1905870D01*
X1180169Y1904638D01*
X1182639Y1903685D01*
X1185063Y1903010D01*
X1187442Y1902615D01*
X1189775Y1902499D01*
X1167501Y1880225D01*
X1167385Y1882558D01*
X1166990Y1884937D01*
X1166315Y1887361D01*
X1165362Y1889831D01*
X1164130Y1892346D01*
X1162619Y1894907D01*
X1160830Y1897514D01*
X1158761Y1900166D01*
X1156413Y1902863D01*
X1153787Y1905607D01*
X1164393Y1916213D01*
X1167137Y1913587D01*
D02*
G37*
G36*
X2450124Y1845855D02*
X2448344Y1844642D01*
X2446751Y1843134D01*
X2445346Y1841332D01*
X2444127Y1839236D01*
X2443097Y1836845D01*
X2442254Y1834160D01*
X2441598Y1831181D01*
X2441129Y1827908D01*
X2440848Y1824341D01*
X2440755Y1820479D01*
X2425754Y1824718D01*
X2425694Y1828422D01*
X2425206Y1835306D01*
X2424781Y1838486D01*
X2423563Y1844320D01*
X2422771Y1846975D01*
X2421858Y1849456D01*
X2420823Y1851761D01*
X2419666Y1853892D01*
X2450124Y1845855D01*
D02*
G37*
G36*
X559157Y1844200D02*
X560366Y1840800D01*
X562382Y1837800D01*
X565203Y1835200D01*
X568830Y1833000D01*
X573264Y1831200D01*
X578504Y1829800D01*
X584549Y1828800D01*
X591401Y1828200D01*
X599059Y1828000D01*
Y1808000D01*
X591401Y1807800D01*
X584549Y1807200D01*
X578504Y1806200D01*
X573264Y1804800D01*
X568830Y1803000D01*
X565203Y1800800D01*
X562382Y1798200D01*
X560366Y1795200D01*
X559157Y1791800D01*
X558754Y1788000D01*
Y1848000D01*
X559157Y1844200D01*
D02*
G37*
G36*
X2622632Y1818097D02*
X2623062Y1816284D01*
X2623791Y1814335D01*
X2624817Y1812252D01*
X2626142Y1810033D01*
X2627764Y1807679D01*
X2629685Y1805189D01*
X2634419Y1799804D01*
X2637233Y1796909D01*
X2623091Y1782767D01*
X2620195Y1785581D01*
X2612321Y1792235D01*
X2609967Y1793858D01*
X2607748Y1795182D01*
X2605664Y1796209D01*
X2603716Y1796937D01*
X2601903Y1797368D01*
X2600225Y1797501D01*
X2622499Y1819775D01*
X2622632Y1818097D01*
D02*
G37*
G36*
X1028004Y1829538D02*
X1027165Y1826824D01*
X1027159Y1823693D01*
X1027987Y1820147D01*
X1029649Y1816185D01*
X1032145Y1811807D01*
X1035475Y1807013D01*
X1039640Y1801803D01*
X1050470Y1790137D01*
X1039864Y1779530D01*
X1033822Y1785362D01*
X1022987Y1794525D01*
X1018193Y1797855D01*
X1013815Y1800351D01*
X1009853Y1802013D01*
X1006307Y1802841D01*
X1003177Y1802836D01*
X1000462Y1801996D01*
X998163Y1800322D01*
X1029678Y1831837D01*
X1028004Y1829538D01*
D02*
G37*
G36*
X1071127Y1767750D02*
X1070361Y1768652D01*
X1069296Y1769460D01*
X1067931Y1770172D01*
X1066267Y1770790D01*
X1064304Y1771312D01*
X1062041Y1771740D01*
X1059480Y1772072D01*
X1053459Y1772452D01*
X1050000Y1772500D01*
Y1787500D01*
X1053459Y1787548D01*
X1062041Y1788260D01*
X1064304Y1788688D01*
X1066267Y1789210D01*
X1067931Y1789828D01*
X1069296Y1790540D01*
X1070361Y1791348D01*
X1071127Y1792250D01*
Y1767750D01*
D02*
G37*
G36*
X877819Y1809266D02*
X928843D01*
X925262Y1803697D01*
X919232Y1792989D01*
X916782Y1787849D01*
X913744Y1779910D01*
X914709Y1777148D01*
X916782Y1772151D01*
X922059Y1761729D01*
X925262Y1756303D01*
X928843Y1750734D01*
X871158D01*
X874737Y1756302D01*
X880766Y1767009D01*
X883216Y1772148D01*
X886254Y1780091D01*
X885288Y1782856D01*
X883216Y1787852D01*
X877940Y1798274D01*
X875000Y1803253D01*
X874099Y1803621D01*
X870712Y1804647D01*
X866789Y1805537D01*
X862331Y1806290D01*
X851807Y1807384D01*
X839141Y1807932D01*
X832004Y1808000D01*
X830017Y1828000D01*
X838428Y1828199D01*
X845879Y1828797D01*
X852370Y1829795D01*
X857899Y1831190D01*
X862469Y1832985D01*
X866079Y1835178D01*
X868728Y1837771D01*
X870417Y1840762D01*
X871145Y1844152D01*
X870913Y1847940D01*
X877819Y1809266D01*
D02*
G37*
G36*
X1401962Y1508386D02*
Y1237500D01*
X1404096Y1226770D01*
X1404096Y1226769D01*
X1392445Y1217207D01*
X1223038Y1386614D01*
Y1535000D01*
X1220904Y1545730D01*
X1214826Y1554826D01*
X1067250Y1702402D01*
X1066335Y1704865D01*
X1056051Y1715943D01*
X1052840Y1719960D01*
X1050686Y1723061D01*
Y1730291D01*
X1051326Y1731837D01*
X1050686Y1733383D01*
Y1733638D01*
X1051063Y1735202D01*
X1063139Y1743894D01*
X1065610Y1745183D01*
X1073417Y1739966D01*
X1090000Y1736668D01*
X1106583Y1739966D01*
X1120641Y1749359D01*
X1128305Y1760830D01*
X1144623Y1765725D01*
X1401962Y1508386D01*
D02*
G37*
G36*
X721791Y1723384D02*
X721845Y1721124D01*
X722224Y1718798D01*
X722928Y1716407D01*
X723958Y1713951D01*
X725312Y1711429D01*
X726679Y1709322D01*
X730176Y1706371D01*
X734977Y1703034D01*
X739402Y1700490D01*
X743451Y1698741D01*
X747126Y1697785D01*
X750424Y1697622D01*
X753348Y1698253D01*
X755896Y1699678D01*
X720322Y1672222D01*
X722248Y1674268D01*
X723308Y1676763D01*
X723500Y1679707D01*
X722826Y1683099D01*
X721284Y1686941D01*
X718875Y1691231D01*
X715600Y1695971D01*
X712429Y1699941D01*
X710698Y1701222D01*
X708159Y1702899D01*
X705657Y1704347D01*
X703192Y1705567D01*
X700764Y1706558D01*
X698374Y1707321D01*
X696020Y1707855D01*
X701695Y1711717D01*
X700570Y1712883D01*
X713522Y1721143D01*
X714359Y1720336D01*
X722061Y1725578D01*
X721791Y1723384D01*
D02*
G37*
G36*
X1028004Y1729538D02*
X1027165Y1726824D01*
X1027159Y1723693D01*
X1027987Y1720147D01*
X1029649Y1716185D01*
X1032145Y1711807D01*
X1035475Y1707013D01*
X1039640Y1701803D01*
X1050470Y1690137D01*
X1039864Y1679530D01*
X1033822Y1685362D01*
X1022987Y1694525D01*
X1018193Y1697855D01*
X1013815Y1700351D01*
X1009853Y1702013D01*
X1006307Y1702841D01*
X1003177Y1702836D01*
X1000462Y1701996D01*
X998163Y1700322D01*
X1029678Y1731837D01*
X1028004Y1729538D01*
D02*
G37*
G36*
X2660188Y1715701D02*
X2660753Y1711277D01*
X2661695Y1706710D01*
X2663014Y1701999D01*
X2664710Y1697146D01*
X2666783Y1692150D01*
X2672059Y1681728D01*
X2675262Y1676302D01*
X2678842Y1670734D01*
X2621157D01*
X2624737Y1676302D01*
X2630767Y1687010D01*
X2633216Y1692150D01*
X2636985Y1701999D01*
X2638304Y1706710D01*
X2639246Y1711277D01*
X2639811Y1715701D01*
X2640000Y1719983D01*
X2660000D01*
X2660188Y1715701D01*
D02*
G37*
G36*
X287018Y1656876D02*
X280264Y1649841D01*
X269773Y1637108D01*
X266036Y1631410D01*
X263305Y1626158D01*
X261581Y1621350D01*
X260862Y1616989D01*
X261149Y1613073D01*
X262442Y1609602D01*
X264742Y1606577D01*
X222578Y1648741D01*
X225603Y1646442D01*
X229073Y1645149D01*
X232989Y1644862D01*
X237351Y1645580D01*
X242158Y1647305D01*
X247410Y1650036D01*
X253108Y1653772D01*
X259252Y1658515D01*
X265841Y1664264D01*
X272876Y1671018D01*
X287018Y1656876D01*
D02*
G37*
G36*
X2484486Y1640732D02*
X2485205Y1633855D01*
X2485833Y1630812D01*
X2486642Y1628032D01*
X2487631Y1625516D01*
X2488799Y1623263D01*
X2490147Y1621274D01*
X2491675Y1619549D01*
X2493382Y1618088D01*
X2462184Y1613742D01*
X2463554Y1615711D01*
X2464780Y1617878D01*
X2465862Y1620243D01*
X2466799Y1622806D01*
X2467593Y1625567D01*
X2468242Y1628527D01*
X2468747Y1631684D01*
X2469324Y1638593D01*
X2469396Y1642344D01*
X2484396Y1644566D01*
X2484486Y1640732D01*
D02*
G37*
G36*
X625557Y1649266D02*
X678843D01*
X675263Y1643698D01*
X669234Y1632991D01*
X666784Y1627851D01*
X663746Y1619909D01*
X664712Y1617145D01*
X666784Y1612149D01*
X672060Y1601727D01*
X675263Y1596302D01*
X678843Y1590734D01*
X621158D01*
X624738Y1596302D01*
X630768Y1607011D01*
X633218Y1612150D01*
X636256Y1620090D01*
X635290Y1622853D01*
X633218Y1627850D01*
X627941Y1638272D01*
X624738Y1643698D01*
X621158Y1649266D01*
X624565D01*
X623848Y1651362D01*
X621737Y1654324D01*
X618665Y1656891D01*
X614629Y1659063D01*
X609632Y1660840D01*
X603672Y1662223D01*
X596749Y1663210D01*
X588864Y1663803D01*
X580017Y1664000D01*
Y1684000D01*
X585376Y1684148D01*
X590639Y1684594D01*
X595805Y1685336D01*
X600874Y1686375D01*
X605848Y1687711D01*
X610724Y1689343D01*
X615504Y1691273D01*
X620188Y1693499D01*
X624775Y1696022D01*
X629266Y1698842D01*
X625557Y1649266D01*
D02*
G37*
G36*
X2569513Y1622265D02*
X2566992Y1621288D01*
X2564767Y1619659D01*
X2562839Y1617379D01*
X2561208Y1614448D01*
X2559873Y1610864D01*
X2558835Y1606630D01*
X2558093Y1601744D01*
X2557953Y1600000D01*
X2558093Y1598256D01*
X2558835Y1593370D01*
X2559873Y1589136D01*
X2561208Y1585552D01*
X2562839Y1582621D01*
X2564767Y1580341D01*
X2566992Y1578712D01*
X2569513Y1577734D01*
X2572331Y1577409D01*
X2527669D01*
X2530487Y1577734D01*
X2533008Y1578712D01*
X2535233Y1580341D01*
X2537161Y1582621D01*
X2538792Y1585552D01*
X2540127Y1589136D01*
X2541165Y1593370D01*
X2541907Y1598256D01*
X2542047Y1600000D01*
X2541907Y1601744D01*
X2541165Y1606630D01*
X2540127Y1610864D01*
X2538792Y1614448D01*
X2537161Y1617379D01*
X2535233Y1619659D01*
X2533008Y1621288D01*
X2530487Y1622265D01*
X2527669Y1622591D01*
X2572331D01*
X2569513Y1622265D01*
D02*
G37*
G36*
X2520318Y1557545D02*
X2522656Y1557500D01*
X2524861Y1542500D01*
X2520957Y1542405D01*
X2520320Y1542355D01*
X2520322Y1535000D01*
X2520118Y1536425D01*
X2519509Y1537700D01*
X2518492Y1538825D01*
X2517070Y1539800D01*
X2515241Y1540625D01*
X2513005Y1541300D01*
X2512832Y1541334D01*
X2511322Y1540985D01*
X2508802Y1540133D01*
X2506629Y1539092D01*
X2504801Y1537861D01*
X2503319Y1536441D01*
X2502184Y1534831D01*
X2501394Y1533032D01*
X2489223Y1560523D01*
X2490768Y1559949D01*
X2492713Y1559435D01*
X2495057Y1558981D01*
X2500944Y1558256D01*
X2507018Y1557863D01*
X2510362Y1558170D01*
X2513003Y1558690D01*
X2515238Y1559360D01*
X2517066Y1560178D01*
X2518488Y1561146D01*
X2519504Y1562262D01*
X2520113Y1563527D01*
X2520316Y1564940D01*
X2520318Y1557545D01*
D02*
G37*
G36*
X777735Y1589513D02*
X778712Y1586991D01*
X780341Y1584767D01*
X782621Y1582839D01*
X785552Y1581208D01*
X789136Y1579873D01*
X793370Y1578835D01*
X798256Y1578093D01*
X803794Y1577648D01*
X809983Y1577500D01*
Y1562500D01*
X803794Y1562352D01*
X798256Y1561907D01*
X793370Y1561165D01*
X789136Y1560127D01*
X785552Y1558792D01*
X782621Y1557161D01*
X780341Y1555233D01*
X778712Y1553008D01*
X777735Y1550487D01*
X777409Y1547669D01*
Y1592331D01*
X777735Y1589513D01*
D02*
G37*
G36*
X1722591Y1537525D02*
X1723713Y1537501D01*
X1723713Y1522501D01*
X1722591Y1522477D01*
X1722591Y1507670D01*
X1722265Y1510488D01*
X1721288Y1513009D01*
X1719659Y1515234D01*
X1717379Y1517162D01*
X1714447Y1518793D01*
X1710864Y1520128D01*
X1708278Y1520762D01*
X1707023Y1520438D01*
X1704373Y1519531D01*
X1701953Y1518458D01*
X1699762Y1517221D01*
X1697801Y1515818D01*
X1696069Y1514250D01*
X1696068Y1522356D01*
X1690017Y1522501D01*
Y1537501D01*
X1696068Y1537646D01*
X1696067Y1545751D01*
X1697800Y1544183D01*
X1699761Y1542781D01*
X1701952Y1541543D01*
X1704373Y1540471D01*
X1707022Y1539563D01*
X1708278Y1539239D01*
X1710865Y1539874D01*
X1714448Y1541209D01*
X1717380Y1542840D01*
X1719660Y1544768D01*
X1721289Y1546992D01*
X1722266Y1549514D01*
X1722592Y1552331D01*
X1722591Y1537525D01*
D02*
G37*
G36*
X1029881Y1553575D02*
X1030491Y1552301D01*
X1031507Y1551176D01*
X1032930Y1550201D01*
X1034759Y1549376D01*
X1036994Y1548702D01*
X1039635Y1548177D01*
X1042683Y1547802D01*
X1046138Y1547577D01*
X1049998Y1547502D01*
Y1532502D01*
X1046138Y1532427D01*
X1039637Y1531832D01*
X1036996Y1531311D01*
X1034762Y1530641D01*
X1032933Y1529823D01*
X1031512Y1528855D01*
X1030496Y1527739D01*
X1029887Y1526473D01*
X1029684Y1525059D01*
X1029678Y1555000D01*
X1029881Y1553575D01*
D02*
G37*
G36*
X2651837Y1520322D02*
X2649538Y1521996D01*
X2646823Y1522835D01*
X2643693Y1522841D01*
X2640147Y1522013D01*
X2636184Y1520351D01*
X2631807Y1517855D01*
X2627013Y1514525D01*
X2621803Y1510360D01*
X2610136Y1499530D01*
X2599530Y1510136D01*
X2605362Y1516178D01*
X2614524Y1527013D01*
X2617855Y1531807D01*
X2620351Y1536185D01*
X2622013Y1540147D01*
X2622841Y1543693D01*
X2622835Y1546823D01*
X2621996Y1549538D01*
X2620322Y1551837D01*
X2651837Y1520322D01*
D02*
G37*
G36*
X1877733Y1549515D02*
X1878711Y1546993D01*
X1880340Y1544769D01*
X1882620Y1542841D01*
X1885552Y1541210D01*
X1889135Y1539875D01*
X1893370Y1538836D01*
X1898256Y1538095D01*
X1903794Y1537650D01*
X1909983Y1537502D01*
Y1522502D01*
X1903794Y1522354D01*
X1898256Y1521909D01*
X1893370Y1521167D01*
X1889136Y1520129D01*
X1885553Y1518794D01*
X1882621Y1517163D01*
X1880341Y1515235D01*
X1878713Y1513010D01*
X1877736Y1510489D01*
X1877410Y1507671D01*
X1877407Y1552332D01*
X1877733Y1549515D01*
D02*
G37*
G36*
X2624193Y2266155D02*
X2620069Y2250167D01*
X2619475Y2249659D01*
X2605977Y2240640D01*
X2596584Y2226583D01*
X2593285Y2210000D01*
X2596584Y2193417D01*
X2605977Y2179359D01*
X2620035Y2169966D01*
X2636618Y2166667D01*
X2653200Y2169966D01*
X2667258Y2179359D01*
X2676277Y2192857D01*
X2676785Y2193452D01*
X2692772Y2197575D01*
X2725564Y2164784D01*
Y1470700D01*
X2710564Y1461231D01*
X2700000Y1463332D01*
X2683417Y1460034D01*
X2669359Y1450640D01*
X2663776Y1442285D01*
X2601536D01*
X2595796Y1456143D01*
X2622403Y1482750D01*
X2624864Y1483665D01*
X2635943Y1493949D01*
X2639960Y1497160D01*
X2643061Y1499314D01*
X2650291D01*
X2651837Y1498674D01*
X2653383Y1499314D01*
X2653637D01*
X2655201Y1498937D01*
X2655818Y1499314D01*
X2665000D01*
X2678656Y1502031D01*
X2690233Y1509766D01*
X2697969Y1521344D01*
X2700685Y1535000D01*
Y1565000D01*
X2697969Y1578656D01*
X2690233Y1590234D01*
X2689117Y1590980D01*
Y1609020D01*
X2690233Y1609766D01*
X2697969Y1621344D01*
X2700685Y1635000D01*
Y1665000D01*
X2699852Y1669192D01*
X2700490Y1670734D01*
X2698672Y1675124D01*
X2697969Y1678656D01*
X2697648Y1679136D01*
X2697051Y1682441D01*
X2693692Y1687666D01*
X2691057Y1692129D01*
X2686466Y1701199D01*
X2684944Y1704868D01*
X2683676Y1708495D01*
X2682745Y1711821D01*
X2682122Y1714841D01*
X2681776Y1717550D01*
X2681627Y1720935D01*
X2680587Y1723162D01*
Y1769999D01*
X2680588Y1770000D01*
X2678259Y1781705D01*
X2671629Y1791629D01*
X2653744Y1809513D01*
X2652757Y1811997D01*
X2650322Y1814502D01*
X2646402Y1818960D01*
X2645260Y1820441D01*
X2644369Y1821733D01*
X2643851Y1822601D01*
X2643776Y1822755D01*
X2643693Y1823101D01*
X2643552Y1823296D01*
X2643339Y1823867D01*
X2642452Y1824818D01*
X2642344Y1824967D01*
X2640034Y1836583D01*
X2630640Y1850640D01*
X2616583Y1860034D01*
X2600000Y1863332D01*
X2583417Y1860034D01*
X2569359Y1850640D01*
X2559966Y1836583D01*
X2556667Y1820000D01*
X2559966Y1803417D01*
X2569359Y1789359D01*
X2583417Y1779966D01*
X2595033Y1777655D01*
X2595181Y1777548D01*
X2596132Y1776661D01*
X2596704Y1776447D01*
X2596899Y1776307D01*
X2597244Y1776225D01*
X2597399Y1776149D01*
X2598267Y1775631D01*
X2599159Y1775015D01*
X2605648Y1769532D01*
X2608003Y1767243D01*
X2610487Y1766256D01*
X2619412Y1757330D01*
Y1723162D01*
X2618373Y1720935D01*
X2618224Y1717551D01*
X2617878Y1714841D01*
X2617255Y1711820D01*
X2616409Y1708800D01*
X2613306Y1700690D01*
X2611542Y1696989D01*
X2607983Y1690669D01*
X2598890Y1688719D01*
X2590265Y1690187D01*
X2590234Y1690234D01*
X2578656Y1697969D01*
X2565000Y1700686D01*
X2535000D01*
X2521344Y1697969D01*
X2519934Y1697028D01*
X2504934Y1705045D01*
Y1791832D01*
X2506941Y1792231D01*
X2520999Y1801625D01*
X2530392Y1815683D01*
X2533691Y1832265D01*
X2530392Y1848848D01*
X2520999Y1862906D01*
X2506941Y1872299D01*
X2490358Y1875598D01*
X2480683Y1873673D01*
X2479029Y1881993D01*
X2469635Y1896051D01*
X2455577Y1905444D01*
X2450709Y1906412D01*
Y1921706D01*
X2456585Y1922875D01*
X2470643Y1932268D01*
X2480037Y1946326D01*
X2483335Y1962909D01*
X2480037Y1979492D01*
X2470643Y1993549D01*
X2457338Y2002440D01*
X2456509Y2003259D01*
X2452695Y2019011D01*
X2465125Y2031441D01*
X2471203Y2040537D01*
X2473026Y2049698D01*
X2474417Y2052615D01*
X2474300Y2052946D01*
X2474442Y2053266D01*
X2474515Y2056544D01*
X2474690Y2058978D01*
X2474953Y2061020D01*
X2475270Y2062655D01*
X2475600Y2063878D01*
X2475895Y2064695D01*
X2476097Y2065124D01*
X2476102Y2065132D01*
X2476721Y2065756D01*
X2477705Y2068161D01*
X2486446Y2081243D01*
X2489745Y2097825D01*
X2486446Y2114408D01*
X2482358Y2120526D01*
X2477934Y2131017D01*
X2482117Y2143122D01*
X2485817Y2148658D01*
X2489115Y2165241D01*
X2485817Y2181824D01*
X2476423Y2195882D01*
X2462365Y2205275D01*
X2456835Y2206375D01*
Y2221669D01*
X2458656Y2222031D01*
X2470234Y2229767D01*
X2477969Y2241344D01*
X2480686Y2255000D01*
Y2273714D01*
X2480879Y2273998D01*
X2491150Y2280917D01*
X2495184Y2281961D01*
X2608386D01*
X2624193Y2266155D01*
D02*
G37*
G36*
X556874Y1526200D02*
X556270Y1522800D01*
X556944Y1519800D01*
X558894Y1517200D01*
X562121Y1515000D01*
X566624Y1513200D01*
X572405Y1511800D01*
X579463Y1510800D01*
X587797Y1510200D01*
X597408Y1510000D01*
X584761Y1490000D01*
X578060Y1489904D01*
X559259Y1488463D01*
X553426Y1487598D01*
X542411Y1485292D01*
X537229Y1483850D01*
X527515Y1480391D01*
X558754Y1530000D01*
X556874Y1526200D01*
D02*
G37*
G36*
X1104964Y1495717D02*
X1112677Y1489114D01*
X1115126Y1487331D01*
X1119840Y1484393D01*
X1122106Y1483238D01*
X1124310Y1482292D01*
X1126454Y1481555D01*
X1098712Y1467285D01*
X1099219Y1469323D01*
X1099372Y1471448D01*
X1099172Y1473657D01*
X1098618Y1475952D01*
X1097712Y1478333D01*
X1096452Y1480798D01*
X1094839Y1483349D01*
X1092873Y1485985D01*
X1090553Y1488707D01*
X1087880Y1491514D01*
X1102271Y1498336D01*
X1104964Y1495717D01*
D02*
G37*
G36*
X2416213Y1475606D02*
X2413587Y1472863D01*
X2409170Y1467514D01*
X2407381Y1464907D01*
X2405870Y1462346D01*
X2404638Y1459831D01*
X2403685Y1457361D01*
X2403010Y1454937D01*
X2402615Y1452558D01*
X2402499Y1450225D01*
X2380225Y1472499D01*
X2382558Y1472615D01*
X2384937Y1473010D01*
X2387361Y1473684D01*
X2389831Y1474638D01*
X2392346Y1475870D01*
X2394907Y1477380D01*
X2397514Y1479170D01*
X2400166Y1481239D01*
X2402863Y1483587D01*
X2405607Y1486213D01*
X2416213Y1475606D01*
D02*
G37*
G36*
X1029802Y1441612D02*
X1030205Y1441164D01*
X1030887Y1440769D01*
X1031850Y1440426D01*
X1033092Y1440136D01*
X1034614Y1439899D01*
X1036416Y1439714D01*
X1040857Y1439503D01*
X1043498Y1439477D01*
Y1424477D01*
X1040768Y1424451D01*
X1032706Y1423833D01*
X1031404Y1423549D01*
X1030389Y1423214D01*
X1029658Y1422828D01*
X1029214Y1422390D01*
X1029055Y1421900D01*
X1029678Y1442113D01*
X1029802Y1441612D01*
D02*
G37*
G36*
X925262Y1513697D02*
X919232Y1502989D01*
X916782Y1497849D01*
X913744Y1489909D01*
X914709Y1487147D01*
X916782Y1482151D01*
X922058Y1471729D01*
X925262Y1466303D01*
X928842Y1460734D01*
X879266D01*
Y1411157D01*
X873697Y1414738D01*
X862989Y1420768D01*
X857849Y1423218D01*
X847999Y1426987D01*
X843289Y1428306D01*
X838722Y1429248D01*
X834298Y1429814D01*
X830017Y1430002D01*
Y1450002D01*
X834299Y1450191D01*
X838724Y1450756D01*
X843292Y1451698D01*
X848002Y1453017D01*
X852856Y1454712D01*
X857852Y1456785D01*
X868273Y1462060D01*
X873698Y1465263D01*
X874331Y1465669D01*
X874737Y1466302D01*
X880766Y1477009D01*
X883215Y1482148D01*
X886254Y1490090D01*
X885288Y1492856D01*
X883215Y1497852D01*
X877940Y1508273D01*
X874737Y1513698D01*
X871158Y1519266D01*
X928842D01*
X925262Y1513697D01*
D02*
G37*
G36*
X779831Y1420508D02*
X780288Y1419877D01*
X781051Y1419320D01*
X782119Y1418837D01*
X783492Y1418428D01*
X785171Y1418094D01*
X787154Y1417834D01*
X792037Y1417537D01*
X794935Y1417500D01*
Y1410000D01*
X800239Y1415303D01*
X802206Y1413364D01*
X809576Y1406986D01*
X810557Y1406373D01*
X811374Y1405981D01*
X812026Y1405810D01*
X812515Y1405860D01*
X799474Y1392166D01*
X799499Y1392652D01*
X799299Y1393309D01*
X798875Y1394136D01*
X798227Y1395134D01*
X797355Y1396302D01*
X794938Y1399149D01*
X791788Y1402442D01*
X785171Y1401906D01*
X783492Y1401571D01*
X782119Y1401163D01*
X781051Y1400680D01*
X780288Y1400122D01*
X779831Y1399491D01*
X779678Y1398785D01*
Y1421214D01*
X779831Y1420508D01*
D02*
G37*
G36*
X287018Y1402876D02*
X280264Y1395841D01*
X269773Y1383108D01*
X266036Y1377410D01*
X263305Y1372158D01*
X261581Y1367350D01*
X260862Y1362989D01*
X261149Y1359073D01*
X262442Y1355602D01*
X264742Y1352577D01*
X222578Y1394741D01*
X225603Y1392442D01*
X229073Y1391149D01*
X232989Y1390862D01*
X237351Y1391580D01*
X242158Y1393305D01*
X247410Y1396036D01*
X253108Y1399772D01*
X259252Y1404515D01*
X265841Y1410264D01*
X272876Y1417018D01*
X287018Y1402876D01*
D02*
G37*
G36*
X621310Y1390059D02*
X621483Y1393848D01*
X620699Y1397238D01*
X618960Y1400229D01*
X616264Y1402821D01*
X612613Y1405015D01*
X608006Y1406809D01*
X602443Y1408205D01*
X595923Y1409202D01*
X588448Y1409801D01*
X580017Y1410000D01*
X581012Y1430000D01*
X587798Y1430088D01*
X605542Y1431415D01*
X610586Y1432210D01*
X619365Y1434333D01*
X623101Y1435659D01*
X626402Y1437162D01*
X629266Y1438842D01*
X621310Y1390059D01*
D02*
G37*
G36*
X1019070Y1372440D02*
X1021031Y1371037D01*
X1023222Y1369800D01*
X1025642Y1368727D01*
X1028292Y1367820D01*
X1031171Y1367077D01*
X1034280Y1366500D01*
X1037618Y1366087D01*
X1041185Y1365840D01*
X1044982Y1365757D01*
Y1350757D01*
X1041185Y1350675D01*
X1034280Y1350015D01*
X1031171Y1349437D01*
X1028292Y1348695D01*
X1025642Y1347787D01*
X1023222Y1346715D01*
X1021031Y1345477D01*
X1019070Y1344075D01*
X1017338Y1342507D01*
Y1374007D01*
X1019070Y1372440D01*
D02*
G37*
G36*
X675263Y1383698D02*
X669233Y1372991D01*
X666784Y1367851D01*
X663745Y1359909D01*
X664711Y1357145D01*
X666784Y1352148D01*
X672060Y1341727D01*
X675263Y1336302D01*
X678842Y1330734D01*
X621158D01*
X624738Y1336302D01*
X630768Y1347011D01*
X633217Y1352150D01*
X636256Y1360091D01*
X635290Y1362853D01*
X633217Y1367850D01*
X627941Y1378272D01*
X624738Y1383698D01*
X621158Y1389266D01*
X678842D01*
X675263Y1383698D01*
D02*
G37*
G36*
X2649775Y1307501D02*
X2647442Y1307385D01*
X2645063Y1306990D01*
X2642639Y1306315D01*
X2640169Y1305362D01*
X2637654Y1304130D01*
X2635093Y1302619D01*
X2632486Y1300830D01*
X2629834Y1298761D01*
X2627137Y1296413D01*
X2624394Y1293787D01*
X2613787Y1304393D01*
X2616413Y1307137D01*
X2620830Y1312486D01*
X2622620Y1315093D01*
X2624130Y1317654D01*
X2625362Y1320169D01*
X2626316Y1322639D01*
X2626990Y1325063D01*
X2627385Y1327442D01*
X2627501Y1329775D01*
X2649775Y1307501D01*
D02*
G37*
G36*
X2579775D02*
X2577442Y1307385D01*
X2575063Y1306990D01*
X2572639Y1306315D01*
X2570169Y1305362D01*
X2567654Y1304130D01*
X2565093Y1302619D01*
X2562486Y1300830D01*
X2559834Y1298761D01*
X2557137Y1296413D01*
X2554393Y1293787D01*
X2543787Y1304393D01*
X2546413Y1307137D01*
X2550830Y1312486D01*
X2552619Y1315093D01*
X2554130Y1317654D01*
X2555362Y1320169D01*
X2556315Y1322639D01*
X2556990Y1325063D01*
X2557385Y1327442D01*
X2557501Y1329775D01*
X2579775Y1307501D01*
D02*
G37*
G36*
X777734Y1329513D02*
X778712Y1326992D01*
X780340Y1324767D01*
X782620Y1322839D01*
X785552Y1321208D01*
X789135Y1319873D01*
X793370Y1318835D01*
X798256Y1318093D01*
X803794Y1317648D01*
X809983Y1317500D01*
Y1302500D01*
X803794Y1302352D01*
X798256Y1301907D01*
X793370Y1301165D01*
X789135Y1300127D01*
X785552Y1298792D01*
X782620Y1297161D01*
X780340Y1295233D01*
X778712Y1293008D01*
X777734Y1290487D01*
X777409Y1287669D01*
Y1332331D01*
X777734Y1329513D01*
D02*
G37*
G36*
X2766213Y1295607D02*
X2763587Y1292863D01*
X2759170Y1287514D01*
X2757380Y1284907D01*
X2755870Y1282346D01*
X2754638Y1279831D01*
X2753684Y1277361D01*
X2753010Y1274937D01*
X2752615Y1272558D01*
X2752499Y1270225D01*
X2730225Y1292499D01*
X2732558Y1292615D01*
X2734937Y1293010D01*
X2737361Y1293684D01*
X2739831Y1294638D01*
X2742346Y1295870D01*
X2744907Y1297380D01*
X2747514Y1299170D01*
X2750166Y1301239D01*
X2752863Y1303587D01*
X2755606Y1306213D01*
X2766213Y1295607D01*
D02*
G37*
G36*
X1027735Y1269513D02*
X1028712Y1266992D01*
X1030341Y1264767D01*
X1032621Y1262839D01*
X1035552Y1261208D01*
X1039015Y1259918D01*
X1040627Y1260470D01*
X1043047Y1261543D01*
X1045238Y1262780D01*
X1047200Y1264183D01*
X1048932Y1265750D01*
Y1258039D01*
X1053794Y1257648D01*
X1059983Y1257500D01*
Y1242500D01*
X1053794Y1242352D01*
X1048932Y1241961D01*
Y1234250D01*
X1047200Y1235817D01*
X1045238Y1237220D01*
X1043047Y1238458D01*
X1040627Y1239530D01*
X1039015Y1240082D01*
X1035552Y1238792D01*
X1032621Y1237161D01*
X1030341Y1235233D01*
X1028712Y1233008D01*
X1027735Y1230487D01*
X1027409Y1227669D01*
Y1242256D01*
X1025084Y1242418D01*
X1021287Y1242500D01*
Y1257500D01*
X1025084Y1257582D01*
X1027409Y1257805D01*
Y1272331D01*
X1027735Y1269513D01*
D02*
G37*
G36*
X557050Y1276200D02*
X556598Y1272800D01*
X557398Y1269800D01*
X559451Y1267200D01*
X562756Y1265000D01*
X567314Y1263200D01*
X573125Y1261800D01*
X580188Y1260800D01*
X588504Y1260200D01*
X598072Y1260000D01*
X588584Y1240000D01*
X582895Y1239864D01*
X571238Y1238775D01*
X565271Y1237823D01*
X553057Y1235101D01*
X546811Y1233332D01*
X534040Y1228977D01*
X527515Y1226391D01*
X558754Y1280000D01*
X557050Y1276200D01*
D02*
G37*
G36*
X879266Y1229266D02*
X928843D01*
X925262Y1223697D01*
X919232Y1212989D01*
X916782Y1207849D01*
X913744Y1199909D01*
X914709Y1197148D01*
X916782Y1192151D01*
X922059Y1181729D01*
X925262Y1176303D01*
X928843Y1170734D01*
X871158D01*
X874737Y1176302D01*
X880766Y1187009D01*
X883216Y1192148D01*
X886254Y1200091D01*
X885288Y1202856D01*
X883216Y1207852D01*
X877940Y1218273D01*
X874737Y1223698D01*
X874331Y1224331D01*
X873698Y1224738D01*
X862990Y1230767D01*
X857851Y1233217D01*
X848001Y1236985D01*
X843291Y1238304D01*
X838723Y1239246D01*
X834299Y1239812D01*
X830017Y1240000D01*
Y1260000D01*
X834299Y1260188D01*
X838723Y1260754D01*
X843291Y1261696D01*
X848001Y1263015D01*
X852854Y1264711D01*
X857851Y1266783D01*
X868273Y1272059D01*
X873698Y1275262D01*
X879266Y1278843D01*
Y1229266D01*
D02*
G37*
G36*
X1532730Y1188987D02*
X1533260Y1186590D01*
X1534051Y1184153D01*
X1535103Y1181674D01*
X1536415Y1179154D01*
X1537987Y1176594D01*
X1539820Y1173992D01*
X1541914Y1171349D01*
X1546883Y1165942D01*
X1537062Y1154549D01*
X1534302Y1157186D01*
X1528938Y1161571D01*
X1526333Y1163318D01*
X1523780Y1164769D01*
X1521279Y1165923D01*
X1518830Y1166780D01*
X1516432Y1167341D01*
X1514087Y1167604D01*
X1511793Y1167571D01*
X1532460Y1191344D01*
X1532730Y1188987D01*
D02*
G37*
G36*
X1615263Y1178316D02*
X1632169Y1163462D01*
X1634147Y1162125D01*
X1635886Y1161113D01*
X1637384Y1160427D01*
X1609339Y1149595D01*
X1610053Y1151425D01*
X1610388Y1153367D01*
X1610345Y1155418D01*
X1609922Y1157581D01*
X1609122Y1159854D01*
X1607943Y1162238D01*
X1606385Y1164734D01*
X1604449Y1167339D01*
X1602134Y1170056D01*
X1599441Y1172883D01*
X1611606Y1181930D01*
X1615263Y1178316D01*
D02*
G37*
G36*
X2088338Y1164250D02*
X2085686Y1161469D01*
X2083355Y1158752D01*
X2081344Y1156097D01*
X2079653Y1153505D01*
X2078283Y1150976D01*
X2077233Y1148511D01*
X2076503Y1146107D01*
X2076094Y1143767D01*
X2076005Y1141490D01*
X2076236Y1139276D01*
X2050561Y1157525D01*
X2052919Y1158013D01*
X2055314Y1158736D01*
X2057747Y1159693D01*
X2060217Y1160884D01*
X2062725Y1162309D01*
X2065269Y1163968D01*
X2067852Y1165862D01*
X2073128Y1170351D01*
X2075822Y1172947D01*
X2088338Y1164250D01*
D02*
G37*
G36*
X1257592Y1156671D02*
X1257867Y1153102D01*
X1258326Y1149808D01*
X1258969Y1146792D01*
X1259795Y1144053D01*
X1260805Y1141590D01*
X1261998Y1139404D01*
X1263376Y1137495D01*
X1264937Y1135862D01*
X1266681Y1134506D01*
X1235747Y1128562D01*
X1237030Y1130606D01*
X1238178Y1132838D01*
X1239191Y1135258D01*
X1240069Y1137865D01*
X1240812Y1140660D01*
X1241419Y1143642D01*
X1241892Y1146811D01*
X1242433Y1153713D01*
X1242500Y1157445D01*
X1257500Y1160518D01*
X1257592Y1156671D01*
D02*
G37*
G36*
X367113Y1208626D02*
X391500Y1203776D01*
X516500D01*
X528235Y1206110D01*
X533034Y1205458D01*
X534123Y1206287D01*
X535490Y1206266D01*
X541526Y1208658D01*
X553256Y1212657D01*
X558363Y1214104D01*
X569337Y1216550D01*
X573953Y1217287D01*
X584161Y1218240D01*
X589102Y1218358D01*
X591484Y1219412D01*
X826839D01*
X829065Y1218373D01*
X832450Y1218224D01*
X835159Y1217878D01*
X838180Y1217255D01*
X841201Y1216409D01*
X849310Y1213306D01*
X853012Y1211542D01*
X855707Y1210024D01*
X859998Y1194246D01*
X856186Y1187478D01*
X852948Y1182441D01*
X852351Y1179136D01*
X852031Y1178657D01*
X851328Y1175124D01*
X849510Y1170734D01*
X850148Y1169192D01*
X849315Y1165000D01*
Y1135000D01*
X849705Y1133039D01*
X841181Y1119864D01*
X837857Y1117612D01*
X829270Y1115904D01*
X824934Y1113007D01*
X819940Y1111143D01*
X815119Y1106651D01*
X813614Y1105421D01*
X812263Y1104432D01*
X811291Y1103812D01*
X810820Y1103561D01*
X810132Y1103363D01*
X810075Y1103318D01*
X810000Y1103332D01*
X793417Y1100034D01*
X779359Y1090640D01*
X769966Y1076583D01*
X766668Y1060000D01*
X769966Y1043417D01*
X779359Y1029359D01*
X793417Y1019966D01*
X810000Y1016668D01*
X826583Y1019966D01*
X834315Y1025132D01*
X849315Y1017397D01*
Y1015000D01*
X850148Y1010808D01*
X849510Y1009266D01*
X851328Y1004876D01*
X852031Y1001344D01*
X852352Y1000864D01*
X852949Y997559D01*
X854957Y994434D01*
X853081Y987446D01*
X848377Y980315D01*
X846599Y979043D01*
X835407Y978540D01*
X833188Y977501D01*
X685756D01*
X635842Y1027416D01*
X625919Y1034046D01*
X614213Y1036375D01*
X614212Y1036374D01*
X604398D01*
X603533Y1036967D01*
X601467Y1036582D01*
X599543Y1037429D01*
X591193Y1037616D01*
X584691Y1038113D01*
X580224Y1038775D01*
Y1098500D01*
X575374Y1122886D01*
X561560Y1143560D01*
X540886Y1157374D01*
X516500Y1162224D01*
X391500D01*
X367113Y1157374D01*
X346440Y1143560D01*
X332626Y1122886D01*
X327775Y1098500D01*
Y1028070D01*
X314350Y1015203D01*
X313453Y1015060D01*
X308988Y1015761D01*
X303230Y1021782D01*
X298586Y1027148D01*
X294733Y1032154D01*
X291651Y1036764D01*
X289321Y1040915D01*
X287690Y1044557D01*
X286678Y1047649D01*
X286224Y1049932D01*
Y1054343D01*
X286326Y1055556D01*
X286224Y1055875D01*
Y1098500D01*
X281374Y1122886D01*
X267560Y1143560D01*
X277148Y1154155D01*
X283417Y1149966D01*
X300000Y1146668D01*
X316583Y1149966D01*
X330640Y1159359D01*
X340034Y1173417D01*
X343332Y1190000D01*
X340034Y1206583D01*
X335844Y1212853D01*
X346440Y1222440D01*
X367113Y1208626D01*
D02*
G37*
G36*
X1028004Y1149538D02*
X1027165Y1146824D01*
X1027159Y1143693D01*
X1027987Y1140147D01*
X1029649Y1136185D01*
X1032145Y1131807D01*
X1035475Y1127013D01*
X1039640Y1121803D01*
X1050470Y1110137D01*
X1039864Y1099530D01*
X1033822Y1105363D01*
X1022987Y1114525D01*
X1018193Y1117855D01*
X1013815Y1120351D01*
X1009853Y1122014D01*
X1006307Y1122842D01*
X1003177Y1122836D01*
X1000462Y1121996D01*
X998163Y1120322D01*
X1029678Y1151837D01*
X1028004Y1149538D01*
D02*
G37*
G36*
X845303Y1084697D02*
X842669Y1081972D01*
X838293Y1076866D01*
X836552Y1074486D01*
X835107Y1072221D01*
X833960Y1070071D01*
X833111Y1068035D01*
X832559Y1066115D01*
X832304Y1064310D01*
X832347Y1062620D01*
X812620Y1082347D01*
X814310Y1082304D01*
X816115Y1082559D01*
X818035Y1083111D01*
X820071Y1083960D01*
X822221Y1085107D01*
X824486Y1086552D01*
X826866Y1088293D01*
X829361Y1090333D01*
X834697Y1095303D01*
X845303Y1084697D01*
D02*
G37*
G36*
X1615986Y1089165D02*
X1616812Y1081311D01*
X1617535Y1078127D01*
X1618465Y1075439D01*
X1619601Y1073246D01*
X1620944Y1071549D01*
X1622493Y1070347D01*
X1624249Y1069641D01*
X1626212Y1069431D01*
X1590553Y1068788D01*
X1592515Y1069072D01*
X1594271Y1069849D01*
X1595821Y1071120D01*
X1597164Y1072885D01*
X1598300Y1075143D01*
X1599230Y1077894D01*
X1599953Y1081139D01*
X1600469Y1084878D01*
X1600779Y1089110D01*
X1600882Y1093835D01*
X1615882D01*
X1615986Y1089165D01*
D02*
G37*
G36*
X966178Y1074638D02*
X977013Y1065475D01*
X981807Y1062145D01*
X986185Y1059649D01*
X990147Y1057987D01*
X993693Y1057159D01*
X996824Y1057165D01*
X999538Y1058004D01*
X1001837Y1059678D01*
X970322Y1028163D01*
X971996Y1030462D01*
X972835Y1033176D01*
X972841Y1036307D01*
X972013Y1039853D01*
X970351Y1043815D01*
X967855Y1048193D01*
X964525Y1052987D01*
X960361Y1058197D01*
X949530Y1069863D01*
X960137Y1080470D01*
X966178Y1074638D01*
D02*
G37*
G36*
X2424183Y1012200D02*
X2422780Y1010238D01*
X2421543Y1008047D01*
X2420470Y1005627D01*
X2419563Y1002977D01*
X2418820Y1000098D01*
X2418243Y996989D01*
X2417830Y993651D01*
X2417582Y990084D01*
X2417500Y986287D01*
X2402500D01*
X2402418Y990084D01*
X2401757Y996989D01*
X2401180Y1000098D01*
X2400437Y1002977D01*
X2399530Y1005627D01*
X2398457Y1008047D01*
X2397220Y1010238D01*
X2395817Y1012200D01*
X2394250Y1013932D01*
X2425750D01*
X2424183Y1012200D01*
D02*
G37*
G36*
X557881Y1031987D02*
X558097Y1028587D01*
X559403Y1025587D01*
X561798Y1022987D01*
X565284Y1020787D01*
X569859Y1018987D01*
X575525Y1017587D01*
X582280Y1016587D01*
X590124Y1015987D01*
X599059Y1015787D01*
X594834Y995787D01*
X588485Y995595D01*
X582278Y995021D01*
X576215Y994064D01*
X570295Y992724D01*
X564517Y991001D01*
X558884Y988895D01*
X553393Y986406D01*
X548045Y983534D01*
X542841Y980280D01*
X537780Y976643D01*
X558754Y1035787D01*
X557881Y1031987D01*
D02*
G37*
G36*
X1529513Y1012265D02*
X1526992Y1011288D01*
X1524767Y1009659D01*
X1522839Y1007379D01*
X1521208Y1004448D01*
X1519873Y1000864D01*
X1518835Y996630D01*
X1518266Y992883D01*
X1518820Y989902D01*
X1519563Y987023D01*
X1520470Y984373D01*
X1521543Y981953D01*
X1522780Y979762D01*
X1524183Y977800D01*
X1525750Y976068D01*
X1494250D01*
X1495817Y977800D01*
X1497220Y979762D01*
X1498458Y981953D01*
X1499530Y984373D01*
X1500437Y987023D01*
X1501180Y989902D01*
X1501734Y992883D01*
X1501165Y996630D01*
X1500127Y1000864D01*
X1498792Y1004448D01*
X1497161Y1007379D01*
X1495233Y1009659D01*
X1493008Y1011288D01*
X1490487Y1012265D01*
X1487669Y1012591D01*
X1532331D01*
X1529513Y1012265D01*
D02*
G37*
G36*
X264343Y1052463D02*
X264658Y1047391D01*
X265699Y1042152D01*
X267468Y1036746D01*
X269964Y1031173D01*
X273186Y1025433D01*
X277135Y1019525D01*
X281811Y1013450D01*
X287214Y1007208D01*
X293343Y1000799D01*
X291824Y974034D01*
X285161Y980414D01*
X279116Y985608D01*
X273691Y989617D01*
X268884Y992440D01*
X264695Y994078D01*
X261126Y994530D01*
X258175Y993796D01*
X255843Y991877D01*
X254130Y988772D01*
X253035Y984482D01*
X264754Y1057367D01*
X264343Y1052463D01*
D02*
G37*
G36*
X1377582Y979916D02*
X1378243Y973010D01*
X1378820Y969902D01*
X1379563Y967023D01*
X1380470Y964373D01*
X1381543Y961953D01*
X1382780Y959762D01*
X1384183Y957800D01*
X1385750Y956068D01*
X1354250D01*
X1355817Y957800D01*
X1357220Y959762D01*
X1358458Y961953D01*
X1359530Y964373D01*
X1360437Y967023D01*
X1361180Y969902D01*
X1361758Y973010D01*
X1362170Y976349D01*
X1362418Y979916D01*
X1362500Y983713D01*
X1377500D01*
X1377582Y979916D01*
D02*
G37*
G36*
X1683033Y942426D02*
X1680406Y939683D01*
X1675990Y934333D01*
X1674200Y931727D01*
X1672689Y929166D01*
X1671457Y926650D01*
X1670504Y924181D01*
X1669830Y921756D01*
X1669435Y919378D01*
X1669318Y917045D01*
X1647045Y939318D01*
X1649378Y939435D01*
X1651756Y939830D01*
X1654181Y940504D01*
X1656650Y941457D01*
X1659166Y942689D01*
X1661727Y944200D01*
X1664333Y945990D01*
X1666985Y948059D01*
X1669683Y950406D01*
X1672426Y953033D01*
X1683033Y942426D01*
D02*
G37*
G36*
X925262Y1003697D02*
X919232Y992989D01*
X916782Y987849D01*
X913744Y979909D01*
X914709Y977147D01*
X916782Y972151D01*
X922059Y961728D01*
X925262Y956303D01*
X928842Y950734D01*
X877536D01*
X870322Y916914D01*
X870687Y920714D01*
X870075Y924114D01*
X868486Y927114D01*
X865921Y929714D01*
X862379Y931914D01*
X857860Y933714D01*
X852365Y935114D01*
X845892Y936114D01*
X838443Y936714D01*
X830017Y936914D01*
X836380Y956914D01*
X876087Y958699D01*
X880766Y967009D01*
X883216Y972148D01*
X886254Y980090D01*
X885288Y982856D01*
X883216Y987852D01*
X877940Y998273D01*
X874737Y1003698D01*
X871158Y1009266D01*
X928843D01*
X925262Y1003697D01*
D02*
G37*
G36*
X2096213Y935606D02*
X2093587Y932863D01*
X2089170Y927514D01*
X2087380Y924907D01*
X2085870Y922346D01*
X2084638Y919831D01*
X2083684Y917361D01*
X2083010Y914937D01*
X2082615Y912558D01*
X2082499Y910225D01*
X2060225Y932499D01*
X2062558Y932615D01*
X2064937Y933010D01*
X2067361Y933684D01*
X2069831Y934638D01*
X2072346Y935870D01*
X2074907Y937380D01*
X2077514Y939170D01*
X2080166Y941239D01*
X2082863Y943587D01*
X2085606Y946213D01*
X2096213Y935606D01*
D02*
G37*
G36*
X631091Y933121D02*
X643696Y922234D01*
X645978Y920741D01*
X647912Y919738D01*
X649498Y919226D01*
X650736Y919206D01*
X651626Y919677D01*
X630321Y898372D01*
X630792Y899262D01*
X630772Y900500D01*
X630260Y902086D01*
X629257Y904020D01*
X627764Y906302D01*
X625779Y908931D01*
X620335Y915234D01*
X612928Y922928D01*
X627070Y937070D01*
X631091Y933121D01*
D02*
G37*
G36*
X788363Y888799D02*
X787810Y886270D01*
X788018Y883343D01*
X788988Y880018D01*
X790717Y876294D01*
X793208Y872172D01*
X793459Y871824D01*
X794015Y871506D01*
X796519Y870340D01*
X798972Y869468D01*
X801375Y868890D01*
X803727Y868606D01*
X806028Y868616D01*
X800640Y862553D01*
X810780Y851699D01*
X800400Y840866D01*
X794785Y846301D01*
X789905Y850473D01*
X785104Y845070D01*
X784858Y847423D01*
X784349Y849818D01*
X783576Y852255D01*
X782540Y854733D01*
X781240Y857253D01*
X781120Y857451D01*
X780415Y857951D01*
X776451Y860284D01*
X772899Y861842D01*
X769760Y862624D01*
X767034Y862632D01*
X764721Y861864D01*
X762820Y860320D01*
X771272Y869952D01*
X770792Y870475D01*
X780735Y881745D01*
X781216Y881285D01*
X789677Y890929D01*
X788363Y888799D01*
D02*
G37*
G36*
X1028004Y929538D02*
X1027164Y926823D01*
X1027158Y923693D01*
X1027987Y920147D01*
X1029649Y916185D01*
X1032145Y911807D01*
X1035475Y907013D01*
X1039639Y901803D01*
X1050470Y890136D01*
X1039863Y879530D01*
X1033822Y885362D01*
X1022987Y894524D01*
X1018193Y897855D01*
X1013815Y900351D01*
X1009853Y902013D01*
X1006307Y902841D01*
X1003176Y902835D01*
X1000462Y901996D01*
X998163Y900322D01*
X1029678Y931837D01*
X1028004Y929538D01*
D02*
G37*
G36*
X685262Y863696D02*
X679232Y852988D01*
X676782Y847848D01*
X673745Y839909D01*
X674710Y837147D01*
X676782Y832151D01*
X682059Y821729D01*
X685262Y816303D01*
X688843Y810734D01*
X631158D01*
X634738Y816302D01*
X640767Y827009D01*
X643216Y832148D01*
X646254Y840090D01*
X645288Y842853D01*
X643216Y847849D01*
X637940Y858271D01*
X634737Y863697D01*
X631157Y869265D01*
X688842D01*
X685262Y863696D01*
D02*
G37*
G36*
X788004Y789538D02*
X787165Y786824D01*
X787159Y783693D01*
X787987Y780147D01*
X789649Y776185D01*
X792145Y771807D01*
X795475Y767013D01*
X799639Y761803D01*
X810470Y750137D01*
X799864Y739530D01*
X793822Y745362D01*
X782987Y754525D01*
X778193Y757855D01*
X773815Y760351D01*
X769853Y762013D01*
X766307Y762842D01*
X763177Y762836D01*
X760462Y761996D01*
X758163Y760322D01*
X789678Y791837D01*
X788004Y789538D01*
D02*
G37*
G36*
X244711Y723747D02*
X244302Y722977D01*
X243942Y721783D01*
X243630Y720162D01*
X243366Y718117D01*
X242981Y712750D01*
X242765Y701509D01*
X222765D01*
X222739Y704627D01*
X222119Y713666D01*
X221834Y715068D01*
X221498Y716127D01*
X221110Y716843D01*
X220670Y717216D01*
X220178Y717246D01*
X245167Y724091D01*
X244711Y723747D01*
D02*
G37*
G36*
X556682Y760124D02*
X555595Y756454D01*
X555494Y752358D01*
X556379Y747836D01*
X558250Y742887D01*
X561107Y737512D01*
X564950Y731711D01*
X569778Y725483D01*
X575592Y718830D01*
X582393Y711750D01*
X569140Y696719D01*
X562137Y703441D01*
X549532Y713805D01*
X543929Y717446D01*
X538793Y720060D01*
X534123Y721647D01*
X529921Y722207D01*
X526185Y721740D01*
X522915Y720245D01*
X520112Y717724D01*
X558754Y763368D01*
X556682Y760124D01*
D02*
G37*
G36*
X630322Y655000D02*
X630119Y655950D01*
X629509Y656800D01*
X628493Y657551D01*
X627070Y658201D01*
X625241Y658751D01*
X623005Y659201D01*
X620364Y659551D01*
X613860Y659951D01*
X609999Y660001D01*
Y680001D01*
X613860Y680050D01*
X623003Y680791D01*
X625238Y681236D01*
X627066Y681779D01*
X628488Y682421D01*
X629504Y683162D01*
X630113Y684002D01*
X630316Y684940D01*
X630322Y655000D01*
D02*
G37*
G36*
X1263932Y654250D02*
X1262200Y655817D01*
X1260238Y657220D01*
X1258047Y658457D01*
X1255627Y659530D01*
X1252977Y660437D01*
X1250098Y661180D01*
X1246989Y661757D01*
X1243651Y662170D01*
X1240084Y662418D01*
X1236287Y662500D01*
Y677500D01*
X1240084Y677582D01*
X1246989Y678242D01*
X1250098Y678820D01*
X1252977Y679563D01*
X1255627Y680470D01*
X1258047Y681542D01*
X1260238Y682780D01*
X1262200Y684183D01*
X1263932Y685750D01*
Y654250D01*
D02*
G37*
G36*
X787734Y689514D02*
X788711Y686993D01*
X790340Y684768D01*
X792620Y682840D01*
X795552Y681209D01*
X799135Y679874D01*
X803370Y678836D01*
X808256Y678094D01*
X813794Y677649D01*
X819983Y677501D01*
Y662501D01*
X813794Y662353D01*
X808256Y661908D01*
X803370Y661167D01*
X799136Y660128D01*
X795553Y658793D01*
X792621Y657162D01*
X790341Y655234D01*
X788712Y653010D01*
X787735Y650488D01*
X787410Y647671D01*
X787408Y692332D01*
X787734Y689514D01*
D02*
G37*
G36*
X810470Y609863D02*
X804638Y603822D01*
X795475Y592987D01*
X792145Y588193D01*
X789649Y583815D01*
X787987Y579853D01*
X787159Y576307D01*
X787165Y573176D01*
X788004Y570462D01*
X789678Y568163D01*
X758163Y599678D01*
X760462Y598004D01*
X763177Y597164D01*
X766307Y597159D01*
X769853Y597987D01*
X773815Y599649D01*
X778193Y602145D01*
X782987Y605475D01*
X788197Y609639D01*
X799864Y620470D01*
X810470Y609863D01*
D02*
G37*
G36*
X1742582Y618341D02*
X1743243Y611436D01*
X1743820Y608327D01*
X1744563Y605448D01*
X1745470Y602798D01*
X1746543Y600378D01*
X1747780Y598187D01*
X1749183Y596226D01*
X1750750Y594494D01*
X1719250D01*
X1720817Y596226D01*
X1722220Y598187D01*
X1723458Y600378D01*
X1724530Y602798D01*
X1725437Y605448D01*
X1726180Y608327D01*
X1726758Y611436D01*
X1727170Y614774D01*
X1727418Y618341D01*
X1727500Y622138D01*
X1742500D01*
X1742582Y618341D01*
D02*
G37*
G36*
X1263932Y594250D02*
X1262200Y595817D01*
X1260238Y597220D01*
X1258047Y598458D01*
X1255627Y599530D01*
X1252977Y600437D01*
X1250098Y601180D01*
X1246989Y601757D01*
X1243651Y602170D01*
X1240084Y602418D01*
X1236287Y602500D01*
Y617500D01*
X1240084Y617582D01*
X1246989Y618243D01*
X1250098Y618820D01*
X1252977Y619563D01*
X1255627Y620470D01*
X1258047Y621543D01*
X1260238Y622780D01*
X1262200Y624183D01*
X1263932Y625750D01*
Y594250D01*
D02*
G37*
G36*
X2072694Y616607D02*
X2073354Y609701D01*
X2073932Y606592D01*
X2074674Y603713D01*
X2075582Y601063D01*
X2076654Y598643D01*
X2077892Y596452D01*
X2079294Y594491D01*
X2080862Y592759D01*
X2049362D01*
X2050929Y594491D01*
X2052332Y596452D01*
X2053569Y598643D01*
X2054642Y601063D01*
X2055549Y603713D01*
X2056292Y606592D01*
X2056869Y609701D01*
X2057282Y613039D01*
X2057529Y616607D01*
X2057612Y620404D01*
X2072612D01*
X2072694Y616607D01*
D02*
G37*
G36*
X616905Y617517D02*
X631562Y605098D01*
X637918Y600700D01*
X643626Y597511D01*
X648686Y595528D01*
X653098Y594754D01*
X656861Y595188D01*
X659976Y596829D01*
X662443Y599678D01*
X631158Y549266D01*
X629664Y555592D01*
X627710Y561870D01*
X625295Y568100D01*
X622420Y574282D01*
X619083Y580416D01*
X615286Y586503D01*
X611028Y592541D01*
X606309Y598532D01*
X595489Y610369D01*
X608604Y625538D01*
X616905Y617517D01*
D02*
G37*
G36*
X1642335Y555831D02*
X1642599Y553980D01*
X1643162Y552017D01*
X1644024Y549943D01*
X1645183Y547757D01*
X1646641Y545459D01*
X1648397Y543049D01*
X1650452Y540528D01*
X1655455Y535151D01*
X1644849Y524545D01*
X1642104Y527196D01*
X1636950Y531603D01*
X1634541Y533359D01*
X1632243Y534817D01*
X1630057Y535976D01*
X1627983Y536838D01*
X1626020Y537400D01*
X1624169Y537665D01*
X1622429Y537631D01*
X1642369Y557571D01*
X1642335Y555831D01*
D02*
G37*
G36*
X1092407Y517941D02*
X1091533Y512635D01*
X1086498Y502636D01*
X1073417Y500034D01*
X1059360Y490641D01*
X1049966Y476583D01*
X1046668Y460000D01*
X1046942Y458621D01*
X1044373Y455625D01*
X1042741Y453961D01*
X1040681Y448847D01*
X1037596Y444230D01*
X1036891Y440686D01*
X1035000D01*
X1021344Y437969D01*
X1009767Y430234D01*
X1002031Y418656D01*
X999314Y405000D01*
Y375000D01*
X1002031Y361344D01*
X1009767Y349766D01*
X1021344Y342031D01*
X1035000Y339314D01*
X1065000D01*
X1078656Y342031D01*
X1090234Y349766D01*
X1090980Y350883D01*
X1109020D01*
X1109766Y349766D01*
X1120944Y342298D01*
X1121741Y338295D01*
X1128371Y328371D01*
X1135148Y321594D01*
X1136137Y319109D01*
X1141380Y313719D01*
X1145173Y309529D01*
X1147757Y306351D01*
X1148287Y305611D01*
X1148503Y305270D01*
X1148837Y304639D01*
X1149898Y303759D01*
X1149966Y303417D01*
X1159359Y289360D01*
X1173417Y279966D01*
X1190000Y276668D01*
X1206583Y279966D01*
X1216965Y286904D01*
X1220594Y288199D01*
X1221404Y288932D01*
X1221413Y288939D01*
X1221684Y289092D01*
X1222281Y289356D01*
X1223243Y289685D01*
X1224587Y290032D01*
X1225670Y290233D01*
X1237775Y290884D01*
X1240028Y291962D01*
X1268386D01*
X1400174Y160174D01*
X1402014Y158944D01*
X1397464Y143944D01*
X200000D01*
X199453Y143835D01*
X159563Y149087D01*
X121882Y164695D01*
X111351Y172776D01*
X116443Y187776D01*
X222500D01*
X246886Y192626D01*
X267560Y206440D01*
X281374Y227114D01*
X286224Y251500D01*
Y336500D01*
X281374Y360886D01*
X267560Y381560D01*
X246886Y395374D01*
X222500Y400224D01*
X97500D01*
X73113Y395374D01*
X58944Y385906D01*
X43944Y393790D01*
Y448210D01*
X58944Y456094D01*
X73113Y446626D01*
X97500Y441776D01*
X222179D01*
X222578Y441610D01*
X223416Y441958D01*
X234660Y444194D01*
X236456Y443260D01*
X240251Y440771D01*
X251442Y431551D01*
X257883Y425366D01*
X260332Y424410D01*
X276371Y408371D01*
X286294Y401741D01*
X298000Y399412D01*
X298001Y399412D01*
X338312D01*
X339007Y397122D01*
X341851Y384412D01*
X327539Y362993D01*
X322270Y336500D01*
Y306700D01*
X454000D01*
X585730D01*
Y336500D01*
X580460Y362993D01*
X566148Y384412D01*
X568993Y397122D01*
X569688Y399412D01*
X605398D01*
X608930Y395323D01*
X609315Y394813D01*
Y375000D01*
X612031Y361344D01*
X619767Y349766D01*
X631344Y342031D01*
X645000Y339314D01*
X675000D01*
X688656Y342031D01*
X700234Y349766D01*
X700980Y350883D01*
X719020D01*
X719766Y349766D01*
X731344Y342031D01*
X745000Y339314D01*
X775000D01*
X788656Y342031D01*
X800233Y349766D01*
X803615Y350439D01*
X803957Y350210D01*
X820539Y346912D01*
X837122Y350210D01*
X851180Y359604D01*
X860573Y373662D01*
X863872Y390244D01*
X860573Y406827D01*
X851180Y420885D01*
X837122Y430278D01*
X820539Y433577D01*
X803957Y430278D01*
X803051Y429673D01*
X800233Y430234D01*
X788656Y437969D01*
X775000Y440686D01*
X745000D01*
X731344Y437969D01*
X719766Y430234D01*
X719020Y429117D01*
X700980D01*
X700234Y430234D01*
X688656Y437969D01*
X675000Y440686D01*
X655454D01*
X645766Y449053D01*
X642240Y452515D01*
X637344Y454492D01*
X631706Y458259D01*
X620001Y460588D01*
X619999Y460588D01*
X577569D01*
X570498Y473816D01*
X575374Y481114D01*
X580224Y505500D01*
Y572421D01*
X588545Y576863D01*
X595224Y577388D01*
X597242Y574527D01*
X600375Y569504D01*
X603078Y564535D01*
X605367Y559614D01*
X607259Y554733D01*
X608770Y549882D01*
X610089Y544293D01*
X611961Y541695D01*
X612031Y541344D01*
X619767Y529766D01*
X631344Y522031D01*
X645000Y519314D01*
X675000D01*
X688656Y522031D01*
X700234Y529766D01*
X700980Y530883D01*
X719020D01*
X719766Y529766D01*
X731344Y522031D01*
X745000Y519314D01*
X775000D01*
X788656Y522031D01*
X800234Y529766D01*
X807969Y541344D01*
X810686Y555000D01*
Y564181D01*
X811063Y564798D01*
X810686Y566362D01*
Y566617D01*
X811326Y568163D01*
X810686Y569709D01*
Y576939D01*
X812668Y579793D01*
X820707Y589299D01*
X826045Y594828D01*
X827062Y597413D01*
X831611Y601961D01*
X1008386D01*
X1092407Y517941D01*
D02*
G37*
G36*
X1457582Y499916D02*
X1458242Y493011D01*
X1458820Y489902D01*
X1459562Y487023D01*
X1460470Y484373D01*
X1461542Y481953D01*
X1462780Y479762D01*
X1464182Y477800D01*
X1465750Y476068D01*
X1434250D01*
X1435817Y477800D01*
X1437220Y479762D01*
X1438457Y481953D01*
X1439530Y484373D01*
X1440437Y487023D01*
X1441180Y489902D01*
X1441757Y493011D01*
X1442170Y496349D01*
X1442417Y499916D01*
X1442500Y503713D01*
X1457500D01*
X1457582Y499916D01*
D02*
G37*
G36*
X1933932Y444250D02*
X1932200Y445817D01*
X1930238Y447220D01*
X1928047Y448458D01*
X1925627Y449530D01*
X1922977Y450438D01*
X1920098Y451180D01*
X1916989Y451758D01*
X1913651Y452170D01*
X1910084Y452418D01*
X1906287Y452500D01*
Y467500D01*
X1910084Y467583D01*
X1916989Y468243D01*
X1920098Y468820D01*
X1922977Y469563D01*
X1925627Y470470D01*
X1928047Y471543D01*
X1930238Y472780D01*
X1932200Y474183D01*
X1933932Y475750D01*
Y444250D01*
D02*
G37*
G36*
X262442Y502398D02*
X261149Y498927D01*
X260862Y495011D01*
X261581Y490650D01*
X263305Y485842D01*
X266036Y480590D01*
X269773Y474892D01*
X274515Y468748D01*
X280264Y462159D01*
X287018Y455124D01*
X272876Y440982D01*
X265841Y447736D01*
X253108Y458227D01*
X247410Y461964D01*
X242158Y464695D01*
X237351Y466419D01*
X232989Y467138D01*
X229073Y466851D01*
X225603Y465558D01*
X222578Y463258D01*
X264742Y505422D01*
X262442Y502398D01*
D02*
G37*
G36*
X1083336Y438510D02*
X1082611Y438586D01*
X1081724Y438417D01*
X1080675Y438001D01*
X1079465Y437339D01*
X1078092Y436431D01*
X1076558Y435276D01*
X1073004Y432229D01*
X1071027Y430331D01*
X1071617Y421047D01*
X1071889Y419523D01*
X1072210Y418321D01*
X1072580Y417441D01*
X1073000Y416884D01*
X1073469Y416648D01*
X1053362Y419678D01*
X1053864Y419745D01*
X1054312Y420104D01*
X1054708Y420755D01*
X1055051Y421699D01*
X1055341Y422935D01*
X1055578Y424463D01*
X1055763Y426284D01*
X1055974Y430803D01*
X1056000Y433500D01*
X1063500D01*
X1058197Y438804D01*
X1060336Y440985D01*
X1066431Y448092D01*
X1067339Y449465D01*
X1068001Y450675D01*
X1068417Y451724D01*
X1068586Y452611D01*
X1068510Y453336D01*
X1083336Y438510D01*
D02*
G37*
G36*
X1731365Y419812D02*
X1729921Y420323D01*
X1728054Y420780D01*
X1725766Y421183D01*
X1719922Y421828D01*
X1712390Y422258D01*
X1697924Y422500D01*
X1695549Y437500D01*
X1699458Y437594D01*
X1703014Y437877D01*
X1706220Y438349D01*
X1709073Y439010D01*
X1711576Y439859D01*
X1713727Y440897D01*
X1715526Y442124D01*
X1716974Y443539D01*
X1718071Y445143D01*
X1718816Y446936D01*
X1731365Y419812D01*
D02*
G37*
G36*
X631092Y433122D02*
X643696Y422236D01*
X645978Y420742D01*
X647912Y419740D01*
X649497Y419228D01*
X650735Y419207D01*
X651625Y419678D01*
X630322Y398375D01*
X630793Y399265D01*
X630772Y400503D01*
X630261Y402089D01*
X629258Y404022D01*
X627764Y406304D01*
X625779Y408933D01*
X620337Y415235D01*
X612929Y422929D01*
X627071Y437071D01*
X631092Y433122D01*
D02*
G37*
G36*
X787734Y409515D02*
X788711Y406993D01*
X790340Y404769D01*
X792620Y402841D01*
X795552Y401210D01*
X796699Y400782D01*
X798470Y401578D01*
X800646Y402825D01*
X802590Y404240D01*
X804302Y405820D01*
X804379Y398683D01*
X808256Y398095D01*
X813794Y397650D01*
X819983Y397502D01*
Y382502D01*
X813794Y382354D01*
X808256Y381909D01*
X804566Y381348D01*
X804642Y374322D01*
X802890Y375876D01*
X800911Y377267D01*
X798706Y378494D01*
X796884Y379290D01*
X795553Y378794D01*
X792621Y377163D01*
X790341Y375235D01*
X788713Y373010D01*
X787736Y370489D01*
X787410Y367671D01*
X787409Y381791D01*
X784274Y382174D01*
X780707Y382420D01*
X776914Y382502D01*
X776742Y397502D01*
X780542Y397585D01*
X787408Y398247D01*
X787408Y412332D01*
X787734Y409515D01*
D02*
G37*
G36*
X1207800Y334183D02*
X1209762Y332780D01*
X1211953Y331543D01*
X1214373Y330470D01*
X1217023Y329563D01*
X1219902Y328820D01*
X1223011Y328243D01*
X1223182Y328221D01*
X1236614Y327500D01*
Y312500D01*
X1223297Y311785D01*
X1223011Y311758D01*
X1219902Y311180D01*
X1217023Y310438D01*
X1214373Y309530D01*
X1211953Y308458D01*
X1209762Y307220D01*
X1207800Y305818D01*
X1206068Y304250D01*
Y310859D01*
X1191000Y310050D01*
Y329950D01*
X1206068Y329141D01*
Y335750D01*
X1207800Y334183D01*
D02*
G37*
G36*
X1163307Y350934D02*
X1168688Y346341D01*
X1171150Y344570D01*
X1173460Y343148D01*
X1175616Y342076D01*
X1177620Y341354D01*
X1179471Y340983D01*
X1181170Y340960D01*
X1182716Y341288D01*
X1168445Y313547D01*
X1167980Y314747D01*
X1167245Y316139D01*
X1166240Y317723D01*
X1164966Y319501D01*
X1161608Y323632D01*
X1157171Y328532D01*
X1151655Y334203D01*
X1160387Y353755D01*
X1163307Y350934D01*
D02*
G37*
G36*
X1847380Y307653D02*
X1845690Y307696D01*
X1843885Y307441D01*
X1841965Y306889D01*
X1839929Y306040D01*
X1837779Y304893D01*
X1835514Y303448D01*
X1833134Y301707D01*
X1830639Y299667D01*
X1825303Y294697D01*
X1814697Y305303D01*
X1817331Y308028D01*
X1821707Y313134D01*
X1823448Y315514D01*
X1824893Y317779D01*
X1826040Y319929D01*
X1826889Y321965D01*
X1827441Y323885D01*
X1827696Y325690D01*
X1827653Y327380D01*
X1847380Y307653D01*
D02*
G37*
G36*
X2623183Y449402D02*
X2640000Y446057D01*
X2956055D01*
Y299999D01*
X2956164Y299449D01*
X2950913Y259563D01*
X2935305Y221881D01*
X2910476Y189524D01*
X2878118Y164695D01*
X2840437Y149087D01*
X2814295Y145645D01*
X2800000Y143944D01*
Y143944D01*
X2442536D01*
X2437986Y158944D01*
X2439826Y160174D01*
X2599826Y320174D01*
X2605904Y329270D01*
X2608038Y340000D01*
Y441481D01*
X2623038Y449499D01*
X2623183Y449402D01*
D02*
G37*
%LPC*%
G36*
X235200Y2436400D02*
X172700D01*
Y2338700D01*
X290400D01*
Y2381200D01*
X235200Y2436400D01*
D02*
G37*
G36*
X290400Y2313300D02*
X172700D01*
Y2215600D01*
X235200D01*
X290400Y2270800D01*
Y2313300D01*
D02*
G37*
G36*
X1920000Y1733332D02*
X1903417Y1730034D01*
X1889359Y1720640D01*
X1879966Y1706583D01*
X1876668Y1690000D01*
X1879966Y1673417D01*
X1889359Y1659359D01*
X1903417Y1649966D01*
X1920000Y1646668D01*
X1936583Y1649966D01*
X1950640Y1659359D01*
X1960034Y1673417D01*
X1963332Y1690000D01*
X1960034Y1706583D01*
X1950640Y1720640D01*
X1936583Y1730034D01*
X1920000Y1733332D01*
D02*
G37*
G36*
X1769996Y1383330D02*
X1753414Y1380031D01*
X1739356Y1370638D01*
X1729963Y1356580D01*
X1726664Y1339997D01*
X1729963Y1323415D01*
X1739356Y1309357D01*
X1753414Y1299963D01*
X1769996Y1296665D01*
X1786579Y1299963D01*
X1800637Y1309357D01*
X1810030Y1323415D01*
X1813329Y1339997D01*
X1810030Y1356580D01*
X1800637Y1370638D01*
X1786579Y1380031D01*
X1769996Y1383330D01*
D02*
G37*
G36*
X2600000Y2103332D02*
X2583417Y2100034D01*
X2569359Y2090640D01*
X2559966Y2076583D01*
X2556667Y2060000D01*
X2559966Y2043417D01*
X2569359Y2029359D01*
X2583417Y2019966D01*
X2600000Y2016668D01*
X2616583Y2019966D01*
X2630640Y2029359D01*
X2640034Y2043417D01*
X2643332Y2060000D01*
X2640034Y2076583D01*
X2630640Y2090640D01*
X2616583Y2100034D01*
X2600000Y2103332D01*
D02*
G37*
G36*
X585730Y281300D02*
X466700D01*
Y182270D01*
X516500D01*
X542993Y187540D01*
X565453Y202547D01*
X580460Y225007D01*
X585730Y251500D01*
Y281300D01*
D02*
G37*
G36*
X441300D02*
X322270D01*
Y251500D01*
X327539Y225007D01*
X342547Y202547D01*
X365006Y187540D01*
X391500Y182270D01*
X441300D01*
Y281300D01*
D02*
G37*
%LPD*%
D25*
X1000000Y2380000D02*
D03*
X1100000D02*
D03*
X1610000Y2100000D02*
D03*
X1710000D02*
D03*
X1750000Y1530000D02*
D03*
X1850000D02*
D03*
X660000Y390000D02*
D03*
X760000D02*
D03*
X2550000Y1650000D02*
D03*
X2650000D02*
D03*
X2430000Y2270000D02*
D03*
X2330000D02*
D03*
X650000Y1670000D02*
D03*
X750000D02*
D03*
X659999Y889998D02*
D03*
X759999D02*
D03*
X900000Y1250000D02*
D03*
X1000000D02*
D03*
X900000Y1830000D02*
D03*
X1000000D02*
D03*
X650000Y2000000D02*
D03*
X750000D02*
D03*
X1200000Y2380000D02*
D03*
X1300000D02*
D03*
X1510000Y2310000D02*
D03*
X1610000D02*
D03*
X900000Y1540000D02*
D03*
X1000000D02*
D03*
X1710000Y2210000D02*
D03*
X1810000D02*
D03*
X900000Y1030000D02*
D03*
X1000000D02*
D03*
X900000Y2160000D02*
D03*
X1000000D02*
D03*
X640000Y2280000D02*
D03*
X740000D02*
D03*
X2430000Y2370000D02*
D03*
X2330000D02*
D03*
X650000Y1410000D02*
D03*
X750000D02*
D03*
X750000Y1570000D02*
D03*
X650000D02*
D03*
X1410000Y2210000D02*
D03*
X1510000D02*
D03*
X750000Y1310000D02*
D03*
X650000D02*
D03*
X1300000Y2280000D02*
D03*
X1200000D02*
D03*
X1000000Y1440000D02*
D03*
X900000D02*
D03*
X760000Y790000D02*
D03*
X660000D02*
D03*
X900000Y1150000D02*
D03*
X1000000D02*
D03*
X660000Y670000D02*
D03*
X760000D02*
D03*
X1050000Y390000D02*
D03*
X1150000D02*
D03*
X660000Y570000D02*
D03*
X760000D02*
D03*
X1710000Y2000000D02*
D03*
X1610000D02*
D03*
X900000Y930000D02*
D03*
X1000000D02*
D03*
X900000Y1730000D02*
D03*
X1000000D02*
D03*
X650000Y1910000D02*
D03*
X750000D02*
D03*
X2550000Y1550000D02*
D03*
X2650000D02*
D03*
X1000000Y2060000D02*
D03*
X900000D02*
D03*
X1510000Y1040000D02*
D03*
X1610000D02*
D03*
X740000Y2180000D02*
D03*
X640000D02*
D03*
D27*
X1570000Y2060000D02*
X1610000Y2100000D01*
X1510000Y2060000D02*
X1570000D01*
X1710000Y2100000D02*
Y2210000D01*
Y2000000D02*
Y2100000D01*
Y2210000D02*
X1710000Y2210000D01*
X2650000Y1650000D02*
Y1770000D01*
X2600000Y1820000D02*
X2650000Y1770000D01*
X2640000Y1659999D02*
X2649999Y1650000D01*
X1150000Y350000D02*
Y390000D01*
Y350000D02*
X1180001Y319999D01*
X1189999D01*
X1190000Y320000D01*
X739999Y2280001D02*
X818049D01*
X841260Y2256789D01*
X848025D01*
X850000Y2150000D02*
X889997D01*
X810000Y2110000D02*
X850000Y2150000D01*
X889997D02*
X899998Y2160001D01*
X434000Y2072000D02*
X445999Y2060001D01*
X232765Y701509D02*
Y749234D01*
X274275Y660000D02*
X560000D01*
X232765Y701509D02*
X274275Y660000D01*
X434000Y2072000D02*
X472000Y2110000D01*
X810000D01*
X180000Y802000D02*
X232765Y749234D01*
X560000Y660000D02*
X633085Y586914D01*
X498000Y1500000D02*
X760000D01*
X819998Y1440002D02*
X899998D01*
X760000Y1500000D02*
X819998Y1440002D01*
X673086Y946914D02*
X883085D01*
X614213Y1005787D02*
X673086Y946914D01*
X620000Y930000D02*
X659999Y890001D01*
X350000Y930000D02*
X620000D01*
X224000Y1056000D02*
X350000Y930000D01*
X484213Y1005787D02*
X614213D01*
X434000Y1056000D02*
X484213Y1005787D01*
X899998Y1440002D02*
Y1540002D01*
X899998Y1730002D02*
Y1830002D01*
X434000Y1818000D02*
X898803D01*
X883085Y946914D02*
X899998Y930001D01*
Y1030000D01*
X1510000Y2209998D02*
X1510000Y2209998D01*
Y2120000D02*
Y2209998D01*
Y2120000D02*
X1510000Y2120000D01*
X1510000Y2209998D02*
Y2309998D01*
X1200003Y2280001D02*
Y2380000D01*
X1099998D02*
X1200003D01*
X620001Y430000D02*
X659999Y390002D01*
X298000Y430000D02*
X620001D01*
X180000Y548000D02*
X298000Y430000D01*
X643086Y586914D02*
X659999Y570001D01*
X633085Y586914D02*
X643086D01*
X478000Y802000D02*
X609999Y670001D01*
X434000Y802000D02*
X478000D01*
X609999Y670001D02*
X659999D01*
X180000Y1056000D02*
X224000D01*
X659999Y790001D02*
Y890001D01*
X434000Y1310000D02*
X494000Y1250000D01*
X899998D01*
Y1150000D02*
Y1250000D01*
X290000Y1420000D02*
X650001D01*
X180000Y1310000D02*
X290000Y1420000D01*
X650001Y1410000D02*
Y1420000D01*
Y1310000D02*
Y1410000D01*
X434000Y1564000D02*
X498000Y1500000D01*
X290000Y1674000D02*
X650001D01*
X180000Y1564000D02*
X290000Y1674000D01*
X650001Y1669999D02*
Y1674000D01*
Y1569999D02*
Y1669999D01*
X899998Y2060001D02*
Y2160001D01*
X650001Y1909999D02*
Y2000001D01*
X620000Y1940000D02*
X650001Y1909999D01*
X302000Y1940000D02*
X620000D01*
X180000Y1818000D02*
X302000Y1940000D01*
X639999Y2180001D02*
Y2280001D01*
X620000Y2200000D02*
X639999Y2180001D01*
X308000Y2200000D02*
X620000D01*
X180000Y2072000D02*
X308000Y2200000D01*
D28*
X2470000Y2310000D02*
X2620000D01*
X2753602Y2176397D01*
Y1357242D02*
Y2176397D01*
X1510000Y1190000D02*
X1512218D01*
X1608382Y1051619D02*
Y1093835D01*
X1512218Y1190000D02*
X1608382Y1093835D01*
X1623653Y1145134D02*
X1629393Y1139393D01*
X1623653Y1145134D02*
Y1159277D01*
X1460000Y1322930D02*
Y1900000D01*
Y1322930D02*
X1623653Y1159277D01*
X1608382Y1051619D02*
X1610001Y1050000D01*
X1610000Y2000000D02*
Y2000000D01*
X1580000Y1969999D02*
X1610000Y2000000D01*
X1580000Y1379705D02*
Y1969999D01*
X2676213Y1414247D02*
X2676226Y1414260D01*
X2564247Y1414247D02*
X2676213D01*
X2400000Y1250000D02*
X2564247Y1414247D01*
X2694260Y1414260D02*
X2700000Y1420000D01*
X2676226Y1414260D02*
X2694260D01*
X2163482Y1250000D02*
X2400000D01*
X2390000Y1290000D02*
X2650000Y1550000D01*
X2130000Y1290000D02*
X2390000D01*
X2550000Y1550000D02*
Y1650000D01*
X2500000Y1550000D02*
X2550000D01*
X1405000Y1025000D02*
X1419000Y1011000D01*
X1435000Y1068750D02*
X1449000Y1054750D01*
X1405000Y1025000D02*
Y1165000D01*
X1435000Y1068750D02*
Y1232500D01*
X1195000Y1375000D02*
X1405000Y1165000D01*
X1430000Y1237500D02*
X1435000Y1232500D01*
X1449000Y891000D02*
Y1054750D01*
X1419000Y871000D02*
Y1011000D01*
X1505000Y1035000D02*
X1510000Y1030000D01*
Y960000D02*
Y1030000D01*
X1449000Y891000D02*
X1490000Y850000D01*
X1419000Y871000D02*
X1460000Y830000D01*
X1490000Y560000D02*
Y850000D01*
X1460000Y547574D02*
Y830000D01*
X1646820Y916820D02*
X1680000Y950000D01*
X1490000Y1342426D02*
X1680000Y1152426D01*
Y950000D02*
Y1152426D01*
X1671538Y791538D02*
X1710000Y830000D01*
X1671538Y758463D02*
Y791538D01*
X1710000Y830000D02*
Y1164853D01*
X1520000Y1354853D02*
X1710000Y1164853D01*
X1550000Y1367279D02*
X1740000Y1177279D01*
X1728526Y775509D02*
Y783627D01*
X1740000Y795101D01*
Y1177279D01*
X1050000Y390000D02*
X1063500Y403500D01*
Y433500D02*
X1090000Y460000D01*
X1063500Y403500D02*
Y433500D01*
X1190000Y320000D02*
X1280000D01*
X1420000Y180000D01*
X750001Y1669999D02*
Y1674058D01*
X700000Y1724059D02*
Y1730000D01*
Y1724059D02*
X750001Y1674058D01*
X1070000Y1600000D02*
X1165000Y1505000D01*
X826963Y1570000D02*
X856963Y1600000D01*
X1070000D01*
X2390000Y1536122D02*
Y1846478D01*
X2320000Y1450000D02*
X2325740Y1455740D01*
Y1471862D01*
X2390000Y1536122D01*
X2380000Y1450000D02*
X2433254Y1503254D01*
X2730000Y1270000D02*
X2783602Y1323602D01*
Y2196398D01*
X2630000Y2350000D02*
X2783602Y2196398D01*
X2580000Y1183639D02*
X2753602Y1357242D01*
X2580000Y340000D02*
Y1183639D01*
X2102710Y2011498D02*
X2119594D01*
X2125334Y2017238D01*
X2101547Y2010335D02*
X2102710Y2011498D01*
X2026026Y2010335D02*
X2101547D01*
X1823166Y2170133D02*
X2025259Y1968040D01*
X2158040D02*
X2210000Y2020000D01*
X2025259Y1968040D02*
X2158040D01*
X865000Y2215000D02*
X1187426D01*
X830001Y2180001D02*
X865000Y2215000D01*
X1187426D02*
X1490000Y1912426D01*
X739999Y2180001D02*
X830001D01*
X1165000Y1354875D02*
Y1505000D01*
X1049998Y1540002D02*
X1114260Y1475741D01*
Y1465740D02*
Y1475741D01*
X999998Y1540002D02*
X1049998D01*
X1114260Y1465740D02*
X1120000Y1460000D01*
X1165000Y1354875D02*
X1370000Y1149875D01*
X999998Y1730002D02*
X1195000Y1535000D01*
Y1375000D02*
Y1535000D01*
X1250000Y1120000D02*
X1254246Y1115754D01*
X1250000Y1120000D02*
Y1182426D01*
X761872Y890001D02*
X805703Y846170D01*
X807577D01*
X759998Y890001D02*
X761872D01*
X1370000Y940000D02*
Y1149875D01*
X1011514Y1442389D02*
X1021927Y1431977D01*
X750001Y1310000D02*
X1080000D01*
X1110000Y1280000D01*
X1320000Y926361D02*
Y1155474D01*
X1011514Y1442389D02*
Y1448486D01*
X1074169Y1358257D02*
X1250000Y1182426D01*
X1001269Y1358257D02*
X1074169D01*
X1043498Y1431977D02*
X1320000Y1155474D01*
X1110000Y760000D02*
Y1280000D01*
X1021927Y1431977D02*
X1043498D01*
X2476896Y1805869D02*
X2484618Y1813591D01*
Y1826525D01*
X2476896Y1603104D02*
Y1805869D01*
X2484618Y1826525D02*
X2490358Y1832265D01*
X2476896Y1603104D02*
X2480000Y1600000D01*
X1671538Y758463D02*
X1735000Y695000D01*
Y578425D02*
Y695000D01*
X1880000Y2156360D02*
X2026026Y2010335D01*
X1880000Y2156360D02*
Y2230000D01*
X1609999Y2309998D02*
X1649997Y2270000D01*
X1840000D02*
X1880000Y2230000D01*
X1649997Y2270000D02*
X1840000D01*
X1823166Y2170133D02*
Y2196831D01*
X1809999Y2209998D02*
X1823166Y2196831D01*
X1580000Y1379705D02*
X1780000Y1179705D01*
Y557693D02*
Y1179705D01*
X1490000Y1342426D02*
Y1912426D01*
X1550000Y1367279D02*
Y1950000D01*
X1520000Y1354853D02*
Y1924852D01*
X1592129Y2017871D02*
X1609999Y2000001D01*
X1060000Y1890000D02*
X1430000Y1520000D01*
X1430000Y2070000D02*
X1550000Y1950000D01*
X1250000Y2110000D02*
X1460000Y1900000D01*
X1320000Y2124852D02*
X1520000Y1924852D01*
X1430000Y1237500D02*
Y1520000D01*
X1320000Y2124852D02*
Y2248714D01*
X1430000Y535148D02*
Y816360D01*
X1320000Y926361D02*
X1430000Y816360D01*
X1150000Y1920000D02*
X1190000Y1880000D01*
X999998Y1830002D02*
X1050000Y1780000D01*
X1090000D01*
X1200000Y670000D02*
X1280000D01*
X1110000Y760000D02*
X1200000Y670000D01*
X1217574Y610000D02*
X1280000D01*
X1080000Y747574D02*
X1217574Y610000D01*
X781288Y1890000D02*
X1060000D01*
X1049997Y2110000D02*
X1250000D01*
X1410000Y2209998D02*
X1427870Y2192128D01*
Y2180842D02*
X1430000Y2178711D01*
Y2070000D02*
Y2178711D01*
X1427870Y2180842D02*
Y2192128D01*
X2435241Y2165241D02*
X2445783D01*
X2400000Y2130000D02*
X2435241Y2165241D01*
X849999Y700000D02*
X1034852D01*
X1022425Y670001D02*
X1452426Y240000D01*
X759998Y670001D02*
X1022425D01*
X1034852Y700000D02*
X1464853Y270000D01*
X759998Y790001D02*
X849999Y700000D01*
X944117Y2377704D02*
X945266Y2378852D01*
X998850D02*
X999998Y2380000D01*
X945266Y2378852D02*
X998850D01*
X750001Y2000001D02*
X830002Y1920000D01*
X1150000D01*
X750001Y1909999D02*
X767871Y1892129D01*
X779159D01*
X781288Y1890000D01*
X1300002Y2380000D02*
X1370000D01*
X1370000Y2380000D01*
X794935Y1410000D02*
X820002Y1384933D01*
X820780D01*
X750001Y1410000D02*
X794935D01*
X1650152Y529848D02*
X1752155D01*
X1780000Y557693D01*
X1627574Y380000D02*
X1750000D01*
X1830000Y460000D02*
X1950000D01*
X1750000Y380000D02*
X1830000Y460000D01*
X2420000Y180000D02*
X2580000Y340000D01*
X2461284Y2350000D02*
X2630000D01*
X2447868Y2352128D02*
X2459157D01*
X2429998Y2369998D02*
X2447868Y2352128D01*
X2459157D02*
X2461284Y2350000D01*
X2429998Y2269998D02*
X2470000Y2310000D01*
X1970000Y1570000D02*
X2150000D01*
X1930002Y1530002D02*
X1970000Y1570000D01*
X2150000D02*
X2240000Y1660000D01*
X2445299Y2051267D02*
Y2096712D01*
X2270000Y1640000D02*
Y1875968D01*
X2445299Y2051267D01*
X2240000Y1890000D02*
X2400000Y2050000D01*
X2240000Y1660000D02*
Y1890000D01*
X2400000Y2050000D02*
Y2130000D01*
X2378143Y1858336D02*
X2390000Y1846478D01*
X2378143Y1858336D02*
Y1866454D01*
X2433254Y1503254D02*
Y1859670D01*
X2151820Y1521820D02*
X2270000Y1640000D01*
X999998Y2160001D02*
X1167239D01*
X1169668Y2157572D01*
X1300002Y2280001D02*
X1317872Y2262131D01*
Y2250841D02*
Y2262131D01*
Y2250841D02*
X1320000Y2248714D01*
X999998Y2060001D02*
X1049997Y2110000D01*
X1490000Y560000D02*
X1620000Y430000D01*
X1460000Y547574D02*
X1627574Y380000D01*
X1450000Y460000D02*
Y515148D01*
X1430000Y535148D02*
X1450000Y515148D01*
X2065112Y576690D02*
Y834888D01*
X2002631Y897369D02*
X2065112Y834888D01*
X2290530Y2369998D02*
X2329998D01*
X2255419Y2334887D02*
X2290530Y2369998D01*
X2255419Y2319429D02*
Y2334887D01*
X2249679Y2313689D02*
X2255419Y2319429D01*
X2120000Y1520000D02*
X2121820Y1521820D01*
X2151820D01*
X1680001Y1530001D02*
X1749998D01*
X1680000Y1530000D02*
X1680001Y1530001D01*
X1749998D02*
X1749999Y1530002D01*
X1620000Y560000D02*
X1650152Y529848D01*
X819997Y630000D02*
X1020000D01*
X759998Y570001D02*
X819997Y630000D01*
X1020000D02*
X1440000Y210000D01*
X1420000Y180000D02*
X2420000D01*
X1080000Y747574D02*
Y1069998D01*
X1050000Y727279D02*
Y879999D01*
X1452426Y240000D02*
X2237574D01*
X1464853Y270000D02*
X2210000D01*
X1440000Y210000D02*
X2250000D01*
X1477279Y300000D02*
X1820000D01*
X1050000Y727279D02*
X1477279Y300000D01*
X999998Y930001D02*
X1050000Y879999D01*
X999998Y1250000D02*
X1065000D01*
X999998Y1150000D02*
X1080000Y1069998D01*
X939998Y1090000D02*
X999998Y1030000D01*
X840000Y1090000D02*
X939998D01*
X810000Y1060000D02*
X840000Y1090000D01*
X2480000Y1540000D02*
X2490000D01*
X2470000D02*
X2480000D01*
X2490000D02*
X2500000Y1550000D01*
X1849999Y1530002D02*
X1930002D01*
X2330000Y332426D02*
Y830000D01*
X2410000Y910000D02*
Y1030000D01*
X2330000Y830000D02*
X2410000Y910000D01*
X2500000Y1180000D02*
X2650000Y1330000D01*
X2204852Y1180000D02*
X2500000D01*
X2460000Y1210000D02*
X2580000Y1330000D01*
X2192426Y1210000D02*
X2460000D01*
X2002631Y1162631D02*
X2130000Y1290000D01*
X2054090Y1140608D02*
X2163482Y1250000D01*
X2054090Y1135303D02*
Y1140608D01*
X2070000Y1087574D02*
X2192426Y1210000D01*
X2110000Y1085148D02*
X2204852Y1180000D01*
X2110000Y960000D02*
Y1085148D01*
X2060000Y910000D02*
X2110000Y960000D01*
X2002631Y897369D02*
Y1162631D01*
X2070000Y1027889D02*
Y1087574D01*
X2055556Y1005327D02*
Y1013445D01*
X2070000Y1027889D01*
X1620000Y430000D02*
X1721801D01*
X2250000Y210000D02*
X2370000Y330000D01*
X1820000Y300000D02*
X1850000Y330000D01*
X2210000Y270000D02*
X2290000Y350000D01*
X2237574Y240000D02*
X2330000Y332426D01*
X1721801Y430000D02*
X1732239Y440437D01*
X1740357D01*
X2210000Y2020000D02*
X2230000D01*
X2445299Y2096712D02*
X2446412Y2097825D01*
X2433254Y1859670D02*
X2438995Y1865410D01*
X2329998Y2202911D02*
Y2269998D01*
X2297087Y2170001D02*
X2329998Y2202911D01*
X820297Y390002D02*
X820539Y390244D01*
X759998Y390002D02*
X820297D01*
X750002Y1570000D02*
X826963D01*
X750001Y1569999D02*
X750002Y1570000D01*
X2270000Y810000D02*
X2290000Y790000D01*
Y350000D02*
Y790000D01*
X2386147Y802681D02*
Y810321D01*
X2370000Y786534D02*
X2386147Y802681D01*
X2370000Y330000D02*
Y786534D01*
D30*
X454000Y294000D02*
D03*
Y548000D02*
D03*
X160000Y294000D02*
D03*
Y548000D02*
D03*
X454000Y802000D02*
D03*
Y1056000D02*
D03*
Y1310000D02*
D03*
Y1564000D02*
D03*
Y1818000D02*
D03*
Y2072000D02*
D03*
Y2326000D02*
D03*
X160000Y802000D02*
D03*
Y1056000D02*
D03*
Y1310000D02*
D03*
Y1564000D02*
D03*
Y1818000D02*
D03*
Y2072000D02*
D03*
D31*
Y2326000D02*
D03*
D32*
X2595315Y2255315D02*
D03*
X2636618Y2210000D02*
D03*
X2640000Y2140000D02*
D03*
X1629393Y1139393D02*
D03*
X1510000Y1190000D02*
D03*
X1490986Y1107346D02*
D03*
X300000Y1190000D02*
D03*
X2600000Y1820000D02*
D03*
X1510000Y960000D02*
D03*
X1090000Y460000D02*
D03*
X1190000Y320000D02*
D03*
X700000Y1730000D02*
D03*
X994838Y1646224D02*
D03*
X2380000Y1450000D02*
D03*
X2141288Y2183656D02*
D03*
X2069996Y1709997D02*
D03*
X2730000Y1270000D02*
D03*
X2131965Y2123167D02*
D03*
X2124907Y1919570D02*
D03*
X848025Y2256789D02*
D03*
X1120000Y1460000D02*
D03*
X1260000Y970000D02*
D03*
X1254246Y1115754D02*
D03*
X807577Y846170D02*
D03*
X803632Y491892D02*
D03*
X300000Y710000D02*
D03*
X916197Y2454400D02*
D03*
X68494Y1944575D02*
D03*
X66973Y1689810D02*
D03*
Y1437325D02*
D03*
X67734Y929314D02*
D03*
X66213Y673788D02*
D03*
X70000Y420000D02*
D03*
X1330000Y180000D02*
D03*
X2550000Y190000D02*
D03*
X1949999Y2199959D02*
D03*
X1989463Y2246418D02*
D03*
X2203302Y2185130D02*
D03*
X2125334Y2017238D02*
D03*
X2490358Y1832265D02*
D03*
X2480000Y1600000D02*
D03*
X2333948Y1707651D02*
D03*
X2266583Y2454400D02*
D03*
X1370000Y940000D02*
D03*
X950000Y748696D02*
D03*
X1090000Y2028696D02*
D03*
X1408560Y1610730D02*
D03*
X1190000Y1880000D02*
D03*
X1090000Y1780000D02*
D03*
X1280000Y670000D02*
D03*
Y610000D02*
D03*
X1066793Y2268972D02*
D03*
X2445783Y2165241D02*
D03*
X880000Y2350000D02*
D03*
X944117Y2377704D02*
D03*
X1370000Y2380000D02*
D03*
X1318797Y1533032D02*
D03*
X824640Y1522606D02*
D03*
X820780Y1384933D02*
D03*
X818744Y997965D02*
D03*
X920000Y400000D02*
D03*
X1735000Y578425D02*
D03*
X2700000Y1420000D02*
D03*
X1169668Y2157572D02*
D03*
X1610000Y780000D02*
D03*
X1855269Y1316304D02*
D03*
X1952440Y684512D02*
D03*
X2834363Y362722D02*
D03*
X2505010Y352712D02*
D03*
X2510000Y680000D02*
D03*
X2506511Y911311D02*
D03*
X2830000Y1120000D02*
D03*
X1749999Y1719999D02*
D03*
X2000839Y1869999D02*
D03*
X2600000Y2060000D02*
D03*
X1637398Y2185442D02*
D03*
X1920000Y1690000D02*
D03*
X1001269Y1358257D02*
D03*
X2020000Y2420000D02*
D03*
X2249679Y2313689D02*
D03*
X2188658Y2313714D02*
D03*
X1990000Y2110000D02*
D03*
X2120000Y1520000D02*
D03*
X1680000Y1530000D02*
D03*
X1769996Y1339997D02*
D03*
X1900886Y1137501D02*
D03*
X1290000Y750000D02*
D03*
Y850000D02*
D03*
X1065000Y1250000D02*
D03*
X810000Y1060000D02*
D03*
X2480000Y1540000D02*
D03*
X2350000Y2070000D02*
D03*
X2580000Y1330000D02*
D03*
X2054090Y1135303D02*
D03*
X2060000Y910000D02*
D03*
X2650000Y1330000D02*
D03*
X2065112Y576690D02*
D03*
X2320000Y1450000D02*
D03*
X2055556Y1005327D02*
D03*
X1450000Y460000D02*
D03*
X1850000Y330000D02*
D03*
X1950000Y460000D02*
D03*
X1740357Y440437D02*
D03*
X2521896Y1718716D02*
D03*
X2230000Y2020000D02*
D03*
X1620000Y560000D02*
D03*
X1728526Y775509D02*
D03*
X1510000Y2060000D02*
D03*
Y2120000D02*
D03*
X2440003Y1962909D02*
D03*
X2438995Y1865410D02*
D03*
X2297087Y2170001D02*
D03*
X2360680Y2164135D02*
D03*
X2378143Y1866454D02*
D03*
X2446412Y2097825D02*
D03*
X820539Y390244D02*
D03*
X1646820Y916820D02*
D03*
X2270000Y810000D02*
D03*
X2410000Y1030000D02*
D03*
X2386147Y810321D02*
D03*
%TF.MD5,ff00b362d67f26e375eaca590e00ea2f*%
M02*
