%TF.GenerationSoftware,Altium Limited,Altium Designer,23.9.2 (47)*%
G04 Layer_Color=2752767*
%FSLAX45Y45*%
%MOMM*%
%TF.SameCoordinates,AC4A3DE0-5486-420A-B1FF-1F5B93080124*%
%TF.FilePolarity,Positive*%
%TF.FileFunction,Drawing*%
%TF.Part,Single*%
G01*
G75*
%TA.AperFunction,NonConductor*%
%ADD102C,0.12700*%
%ADD103C,0.16933*%
D102*
X383200Y243200D02*
Y344800D01*
X484800D01*
Y243200D01*
X383200D01*
Y497200D02*
Y598800D01*
X484800D01*
Y497200D01*
X383200D01*
X129200Y243200D02*
Y344800D01*
X230800D01*
Y243200D01*
X129200D01*
Y497200D02*
Y598800D01*
X230800D01*
Y497200D01*
X129200D01*
X383200Y751200D02*
Y852800D01*
X484800D01*
Y751200D01*
X383200D01*
Y1005200D02*
Y1106800D01*
X484800D01*
Y1005200D01*
X383200D01*
Y1259200D02*
Y1360800D01*
X484800D01*
Y1259200D01*
X383200D01*
Y1513200D02*
Y1614800D01*
X484800D01*
Y1513200D01*
X383200D01*
Y1767200D02*
Y1868800D01*
X484800D01*
Y1767200D01*
X383200D01*
Y2021200D02*
Y2122800D01*
X484800D01*
Y2021200D01*
X383200D01*
Y2275200D02*
Y2376800D01*
X484800D01*
Y2275200D01*
X383200D01*
X129200Y751200D02*
Y852800D01*
X230800D01*
Y751200D01*
X129200D01*
Y1005200D02*
Y1106800D01*
X230800D01*
Y1005200D01*
X129200D01*
Y1259200D02*
Y1360800D01*
X230800D01*
Y1259200D01*
X129200D01*
Y1513200D02*
Y1614800D01*
X230800D01*
Y1513200D01*
X129200D01*
Y1767200D02*
Y1868800D01*
X230800D01*
Y1767200D01*
X129200D01*
Y2021200D02*
Y2122800D01*
X230800D01*
Y2021200D01*
X129200D01*
Y2275200D02*
Y2376800D01*
X230800D01*
Y2275200D01*
X129200D01*
D103*
X2646115Y2255315D02*
G03*
X2646115Y2255315I-50800J0D01*
G01*
X2687418Y2210000D02*
G03*
X2687418Y2210000I-50800J0D01*
G01*
X2690800Y2140000D02*
G03*
X2690800Y2140000I-50800J0D01*
G01*
X1680193Y1139393D02*
G03*
X1680193Y1139393I-50800J0D01*
G01*
X1560800Y1190000D02*
G03*
X1560800Y1190000I-50800J0D01*
G01*
X1541786Y1107346D02*
G03*
X1541786Y1107346I-50800J0D01*
G01*
X350800Y1190000D02*
G03*
X350800Y1190000I-50800J0D01*
G01*
X2650800Y1820000D02*
G03*
X2650800Y1820000I-50800J0D01*
G01*
X1560800Y960000D02*
G03*
X1560800Y960000I-50800J0D01*
G01*
X1140800Y460000D02*
G03*
X1140800Y460000I-50800J0D01*
G01*
X1240800Y320000D02*
G03*
X1240800Y320000I-50800J0D01*
G01*
X750800Y1730000D02*
G03*
X750800Y1730000I-50800J0D01*
G01*
X1045638Y1646224D02*
G03*
X1045638Y1646224I-50800J0D01*
G01*
X2430800Y1450000D02*
G03*
X2430800Y1450000I-50800J0D01*
G01*
X2192088Y2183656D02*
G03*
X2192088Y2183656I-50800J0D01*
G01*
X2120796Y1709997D02*
G03*
X2120796Y1709997I-50800J0D01*
G01*
X2780800Y1270000D02*
G03*
X2780800Y1270000I-50800J0D01*
G01*
X2182765Y2123167D02*
G03*
X2182765Y2123167I-50800J0D01*
G01*
X2175707Y1919570D02*
G03*
X2175707Y1919570I-50800J0D01*
G01*
X898825Y2256789D02*
G03*
X898825Y2256789I-50800J0D01*
G01*
X1170800Y1460000D02*
G03*
X1170800Y1460000I-50800J0D01*
G01*
X1310800Y970000D02*
G03*
X1310800Y970000I-50800J0D01*
G01*
X1305046Y1115754D02*
G03*
X1305046Y1115754I-50800J0D01*
G01*
X858377Y846170D02*
G03*
X858377Y846170I-50800J0D01*
G01*
X854432Y491892D02*
G03*
X854432Y491892I-50800J0D01*
G01*
X350800Y710000D02*
G03*
X350800Y710000I-50800J0D01*
G01*
X966997Y2454400D02*
G03*
X966997Y2454400I-50800J0D01*
G01*
X119294Y1944575D02*
G03*
X119294Y1944575I-50800J0D01*
G01*
X117773Y1689810D02*
G03*
X117773Y1689810I-50800J0D01*
G01*
Y1437325D02*
G03*
X117773Y1437325I-50800J0D01*
G01*
X118534Y929314D02*
G03*
X118534Y929314I-50800J0D01*
G01*
X117013Y673788D02*
G03*
X117013Y673788I-50800J0D01*
G01*
X120800Y420000D02*
G03*
X120800Y420000I-50800J0D01*
G01*
X1380800Y180000D02*
G03*
X1380800Y180000I-50800J0D01*
G01*
X2600800Y190000D02*
G03*
X2600800Y190000I-50800J0D01*
G01*
X2000799Y2199959D02*
G03*
X2000799Y2199959I-50800J0D01*
G01*
X2040263Y2246418D02*
G03*
X2040263Y2246418I-50800J0D01*
G01*
X2254102Y2185130D02*
G03*
X2254102Y2185130I-50800J0D01*
G01*
X2176134Y2017238D02*
G03*
X2176134Y2017238I-50800J0D01*
G01*
X2541158Y1832265D02*
G03*
X2541158Y1832265I-50800J0D01*
G01*
X2530800Y1600000D02*
G03*
X2530800Y1600000I-50800J0D01*
G01*
X2384748Y1707651D02*
G03*
X2384748Y1707651I-50800J0D01*
G01*
X2317383Y2454400D02*
G03*
X2317383Y2454400I-50800J0D01*
G01*
X1420800Y940000D02*
G03*
X1420800Y940000I-50800J0D01*
G01*
X1000800Y748696D02*
G03*
X1000800Y748696I-50800J0D01*
G01*
X1140800Y2028696D02*
G03*
X1140800Y2028696I-50800J0D01*
G01*
X1459360Y1610730D02*
G03*
X1459360Y1610730I-50800J0D01*
G01*
X1240800Y1880000D02*
G03*
X1240800Y1880000I-50800J0D01*
G01*
X1140800Y1780000D02*
G03*
X1140800Y1780000I-50800J0D01*
G01*
X1330800Y670000D02*
G03*
X1330800Y670000I-50800J0D01*
G01*
Y610000D02*
G03*
X1330800Y610000I-50800J0D01*
G01*
X1117593Y2268972D02*
G03*
X1117593Y2268972I-50800J0D01*
G01*
X2496583Y2165241D02*
G03*
X2496583Y2165241I-50800J0D01*
G01*
X930800Y2350000D02*
G03*
X930800Y2350000I-50800J0D01*
G01*
X994917Y2377704D02*
G03*
X994917Y2377704I-50800J0D01*
G01*
X1420800Y2380000D02*
G03*
X1420800Y2380000I-50800J0D01*
G01*
X1369597Y1533032D02*
G03*
X1369597Y1533032I-50800J0D01*
G01*
X875440Y1522606D02*
G03*
X875440Y1522606I-50800J0D01*
G01*
X871580Y1384933D02*
G03*
X871580Y1384933I-50800J0D01*
G01*
X869544Y997965D02*
G03*
X869544Y997965I-50800J0D01*
G01*
X970800Y400000D02*
G03*
X970800Y400000I-50800J0D01*
G01*
X1785800Y578425D02*
G03*
X1785800Y578425I-50800J0D01*
G01*
X2750800Y1420000D02*
G03*
X2750800Y1420000I-50800J0D01*
G01*
X1220468Y2157572D02*
G03*
X1220468Y2157572I-50800J0D01*
G01*
X1660800Y780000D02*
G03*
X1660800Y780000I-50800J0D01*
G01*
X1906069Y1316304D02*
G03*
X1906069Y1316304I-50800J0D01*
G01*
X2003240Y684512D02*
G03*
X2003240Y684512I-50800J0D01*
G01*
X2885163Y362722D02*
G03*
X2885163Y362722I-50800J0D01*
G01*
X2555810Y352712D02*
G03*
X2555810Y352712I-50800J0D01*
G01*
X2560800Y680000D02*
G03*
X2560800Y680000I-50800J0D01*
G01*
X2557311Y911311D02*
G03*
X2557311Y911311I-50800J0D01*
G01*
X2880800Y1120000D02*
G03*
X2880800Y1120000I-50800J0D01*
G01*
X1800799Y1719999D02*
G03*
X1800799Y1719999I-50800J0D01*
G01*
X2051639Y1869999D02*
G03*
X2051639Y1869999I-50800J0D01*
G01*
X2650800Y2060000D02*
G03*
X2650800Y2060000I-50800J0D01*
G01*
X1688198Y2185442D02*
G03*
X1688198Y2185442I-50800J0D01*
G01*
X1970800Y1690000D02*
G03*
X1970800Y1690000I-50800J0D01*
G01*
X1052069Y1358257D02*
G03*
X1052069Y1358257I-50800J0D01*
G01*
X2070800Y2420000D02*
G03*
X2070800Y2420000I-50800J0D01*
G01*
X2300479Y2313689D02*
G03*
X2300479Y2313689I-50800J0D01*
G01*
X2239458Y2313714D02*
G03*
X2239458Y2313714I-50800J0D01*
G01*
X2040800Y2110000D02*
G03*
X2040800Y2110000I-50800J0D01*
G01*
X2170800Y1520000D02*
G03*
X2170800Y1520000I-50800J0D01*
G01*
X1730800Y1530000D02*
G03*
X1730800Y1530000I-50800J0D01*
G01*
X1820796Y1339997D02*
G03*
X1820796Y1339997I-50800J0D01*
G01*
X1951686Y1137501D02*
G03*
X1951686Y1137501I-50800J0D01*
G01*
X1340800Y750000D02*
G03*
X1340800Y750000I-50800J0D01*
G01*
Y850000D02*
G03*
X1340800Y850000I-50800J0D01*
G01*
X1115800Y1250000D02*
G03*
X1115800Y1250000I-50800J0D01*
G01*
X860800Y1060000D02*
G03*
X860800Y1060000I-50800J0D01*
G01*
X2530800Y1540000D02*
G03*
X2530800Y1540000I-50800J0D01*
G01*
X2400800Y2070000D02*
G03*
X2400800Y2070000I-50800J0D01*
G01*
X2630800Y1330000D02*
G03*
X2630800Y1330000I-50800J0D01*
G01*
X2104890Y1135303D02*
G03*
X2104890Y1135303I-50800J0D01*
G01*
X2110800Y910000D02*
G03*
X2110800Y910000I-50800J0D01*
G01*
X2700800Y1330000D02*
G03*
X2700800Y1330000I-50800J0D01*
G01*
X2115912Y576690D02*
G03*
X2115912Y576690I-50800J0D01*
G01*
X2370800Y1450000D02*
G03*
X2370800Y1450000I-50800J0D01*
G01*
X2106356Y1005327D02*
G03*
X2106356Y1005327I-50800J0D01*
G01*
X1500800Y460000D02*
G03*
X1500800Y460000I-50800J0D01*
G01*
X1900800Y330000D02*
G03*
X1900800Y330000I-50800J0D01*
G01*
X2000800Y460000D02*
G03*
X2000800Y460000I-50800J0D01*
G01*
X1791157Y440437D02*
G03*
X1791157Y440437I-50800J0D01*
G01*
X2572696Y1718716D02*
G03*
X2572696Y1718716I-50800J0D01*
G01*
X2280800Y2020000D02*
G03*
X2280800Y2020000I-50800J0D01*
G01*
X1670800Y560000D02*
G03*
X1670800Y560000I-50800J0D01*
G01*
X1779326Y775509D02*
G03*
X1779326Y775509I-50800J0D01*
G01*
X1560800Y2060000D02*
G03*
X1560800Y2060000I-50800J0D01*
G01*
Y2120000D02*
G03*
X1560800Y2120000I-50800J0D01*
G01*
X2490803Y1962909D02*
G03*
X2490803Y1962909I-50800J0D01*
G01*
X2489795Y1865410D02*
G03*
X2489795Y1865410I-50800J0D01*
G01*
X2347887Y2170001D02*
G03*
X2347887Y2170001I-50800J0D01*
G01*
X2411480Y2164135D02*
G03*
X2411480Y2164135I-50800J0D01*
G01*
X2428943Y1866454D02*
G03*
X2428943Y1866454I-50800J0D01*
G01*
X2497212Y2097825D02*
G03*
X2497212Y2097825I-50800J0D01*
G01*
X871339Y390244D02*
G03*
X871339Y390244I-50800J0D01*
G01*
X1697620Y916820D02*
G03*
X1697620Y916820I-50800J0D01*
G01*
X2320800Y810000D02*
G03*
X2320800Y810000I-50800J0D01*
G01*
X2460800Y1030000D02*
G03*
X2460800Y1030000I-50800J0D01*
G01*
X2436947Y810321D02*
G03*
X2436947Y810321I-50800J0D01*
G01*
%TF.MD5,6e335be3c9bdd970afa6e9f6558601ff*%
M02*
