%TF.GenerationSoftware,Altium Limited,Altium Designer,23.9.2 (47)*%
G04 Layer_Color=8388736*
%FSLAX45Y45*%
%MOMM*%
%TF.SameCoordinates,AC4A3DE0-5486-420A-B1FF-1F5B93080124*%
%TF.FilePolarity,Positive*%
%TF.FileFunction,Other,Top_Designator*%
%TF.Part,Single*%
G01*
G75*
%TA.AperFunction,NonConductor*%
%ADD26C,0.15000*%
D26*
X690003Y219952D02*
X680007Y229949D01*
X660013D01*
X650016Y219952D01*
Y179965D01*
X660013Y169968D01*
X680007D01*
X690003Y179965D01*
X749984Y169968D02*
X709997D01*
X749984Y209955D01*
Y219952D01*
X739987Y229949D01*
X719994D01*
X709997Y219952D01*
X1329965Y800000D02*
X1319968Y790003D01*
Y770010D01*
X1329965Y760013D01*
X1369952D01*
X1379949Y770010D01*
Y790003D01*
X1369952Y800000D01*
X1379949Y819994D02*
Y839987D01*
Y829990D01*
X1319968D01*
X1329965Y819994D01*
X810013Y687926D02*
Y627946D01*
X840003D01*
X850000Y637943D01*
Y677930D01*
X840003Y687926D01*
X810013D01*
X869994Y627946D02*
X889987D01*
X879990D01*
Y687926D01*
X869994Y677930D01*
X-75460Y1267513D02*
X-135440D01*
Y1297503D01*
X-125443Y1307500D01*
X-105450D01*
X-95453Y1297503D01*
Y1267513D01*
X-75460Y1327493D02*
Y1347487D01*
Y1337490D01*
X-135440D01*
X-125443Y1327493D01*
X669990Y573302D02*
X610010D01*
Y603292D01*
X620007Y613289D01*
X640000D01*
X649997Y603292D01*
Y573302D01*
Y593296D02*
X669990Y613289D01*
Y633283D02*
Y653276D01*
Y643279D01*
X610010D01*
X620007Y633283D01*
X1019990Y320016D02*
X960010D01*
Y350006D01*
X970007Y360003D01*
X990000D01*
X999997Y350006D01*
Y320016D01*
Y340010D02*
X1019990Y360003D01*
Y419984D02*
Y379997D01*
X980003Y419984D01*
X970007D01*
X960010Y409987D01*
Y389993D01*
X970007Y379997D01*
X730013Y443280D02*
X770000D01*
X750007D01*
Y383299D01*
X789994D02*
X809987D01*
X799990D01*
Y443280D01*
X789994Y433283D01*
X2191263Y769990D02*
Y720006D01*
X2201260Y710010D01*
X2221254D01*
X2231250Y720006D01*
Y769990D01*
X2251244Y710010D02*
X2271238D01*
X2261241D01*
Y769990D01*
X2251244Y759993D01*
X1750003Y1289952D02*
X1740007Y1299949D01*
X1720013D01*
X1710016Y1289952D01*
Y1249965D01*
X1720013Y1239968D01*
X1740007D01*
X1750003Y1249965D01*
X1769997Y1289952D02*
X1779994Y1299949D01*
X1799987D01*
X1809984Y1289952D01*
Y1279955D01*
X1799987Y1269959D01*
X1789991D01*
X1799987D01*
X1809984Y1259962D01*
Y1249965D01*
X1799987Y1239968D01*
X1779994D01*
X1769997Y1249965D01*
X1879990Y1530016D02*
X1820010D01*
Y1560007D01*
X1830007Y1570003D01*
X1850000D01*
X1859997Y1560007D01*
Y1530016D01*
Y1550010D02*
X1879990Y1570003D01*
X1830007Y1589997D02*
X1820010Y1599993D01*
Y1619987D01*
X1830007Y1629984D01*
X1840003D01*
X1850000Y1619987D01*
Y1609990D01*
Y1619987D01*
X1859997Y1629984D01*
X1869993D01*
X1879990Y1619987D01*
Y1599993D01*
X1869993Y1589997D01*
X800016Y1197927D02*
Y1137946D01*
X830007D01*
X840003Y1147943D01*
Y1187930D01*
X830007Y1197927D01*
X800016D01*
X899984Y1137946D02*
X859997D01*
X899984Y1177933D01*
Y1187930D01*
X889987Y1197927D01*
X869994D01*
X859997Y1187930D01*
X900016Y2408196D02*
Y2348215D01*
X930007D01*
X940003Y2358212D01*
Y2398199D01*
X930007Y2408196D01*
X900016D01*
X959997Y2398199D02*
X969993Y2408196D01*
X989987D01*
X999984Y2398199D01*
Y2388202D01*
X989987Y2378206D01*
X979990D01*
X989987D01*
X999984Y2368209D01*
Y2358212D01*
X989987Y2348215D01*
X969993D01*
X959997Y2358212D01*
X679990Y1073305D02*
X620009D01*
Y1103296D01*
X630006Y1113292D01*
X650000D01*
X659996Y1103296D01*
Y1073305D01*
Y1093299D02*
X679990Y1113292D01*
X620009Y1173273D02*
Y1133286D01*
X650000D01*
X640003Y1153280D01*
Y1163276D01*
X650000Y1173273D01*
X669993D01*
X679990Y1163276D01*
Y1143283D01*
X669993Y1133286D01*
X1019990Y940016D02*
X960010D01*
Y970007D01*
X970007Y980003D01*
X990000D01*
X999997Y970007D01*
Y940016D01*
Y960010D02*
X1019990Y980003D01*
X960010Y1039984D02*
X970007Y1019991D01*
X990000Y999997D01*
X1009994D01*
X1019990Y1009994D01*
Y1029987D01*
X1009994Y1039984D01*
X999997D01*
X990000Y1029987D01*
Y999997D01*
X720016Y953280D02*
X760003D01*
X740010D01*
Y893299D01*
X819984D02*
X779997D01*
X819984Y933286D01*
Y943283D01*
X809987Y953280D01*
X789994D01*
X779997Y943283D01*
X1029990Y1440016D02*
X970009D01*
Y1470006D01*
X980006Y1480003D01*
X1000000D01*
X1009996Y1470006D01*
Y1440016D01*
Y1460010D02*
X1029990Y1480003D01*
X970009Y1499996D02*
Y1539983D01*
X980006D01*
X1019993Y1499996D01*
X1029990D01*
X1810005Y2150035D02*
X1800008Y2160032D01*
X1780015D01*
X1770018Y2150035D01*
Y2110048D01*
X1780015Y2100052D01*
X1800008D01*
X1810005Y2110048D01*
X1859989Y2100052D02*
Y2160032D01*
X1829999Y2130042D01*
X1869986D01*
X1720048Y1970003D02*
X1710051Y1960007D01*
Y1940013D01*
X1720048Y1930016D01*
X1760035D01*
X1770032Y1940013D01*
Y1960007D01*
X1760035Y1970003D01*
X1710051Y2029984D02*
Y1989997D01*
X1740041D01*
X1730045Y2009991D01*
Y2019987D01*
X1740041Y2029984D01*
X1760035D01*
X1770032Y2019987D01*
Y1999994D01*
X1760035Y1989997D01*
X2130003Y2429952D02*
X2120007Y2439949D01*
X2100013D01*
X2090016Y2429952D01*
Y2389965D01*
X2100013Y2379968D01*
X2120007D01*
X2130003Y2389965D01*
X2189984Y2439949D02*
X2169991Y2429952D01*
X2149997Y2409959D01*
Y2389965D01*
X2159994Y2379968D01*
X2179987D01*
X2189984Y2389965D01*
Y2399962D01*
X2179987Y2409959D01*
X2149997D01*
X2679965Y2170003D02*
X2669968Y2160006D01*
Y2140013D01*
X2679965Y2130016D01*
X2719952D01*
X2729949Y2140013D01*
Y2160006D01*
X2719952Y2170003D01*
X2669968Y2189997D02*
Y2229984D01*
X2679965D01*
X2719952Y2189997D01*
X2729949D01*
X1860003Y1780035D02*
X1850007Y1790031D01*
X1830013D01*
X1820016Y1780035D01*
Y1740048D01*
X1830013Y1730051D01*
X1850007D01*
X1860003Y1740048D01*
X1879997Y1780035D02*
X1889994Y1790031D01*
X1909987D01*
X1919984Y1780035D01*
Y1770038D01*
X1909987Y1760041D01*
X1919984Y1750045D01*
Y1740048D01*
X1909987Y1730051D01*
X1889994D01*
X1879997Y1740048D01*
Y1750045D01*
X1889994Y1760041D01*
X1879997Y1770038D01*
Y1780035D01*
X1889994Y1760041D02*
X1909987D01*
X1730048Y1570003D02*
X1720051Y1560007D01*
Y1540013D01*
X1730048Y1530016D01*
X1770035D01*
X1780032Y1540013D01*
Y1560007D01*
X1770035Y1570003D01*
Y1589997D02*
X1780032Y1599993D01*
Y1619987D01*
X1770035Y1629984D01*
X1730048D01*
X1720051Y1619987D01*
Y1599993D01*
X1730048Y1589997D01*
X1740045D01*
X1750041Y1599993D01*
Y1629984D01*
X695012Y2250035D02*
X685015Y2260032D01*
X665021D01*
X655025Y2250035D01*
Y2210048D01*
X665021Y2200051D01*
X685015D01*
X695012Y2210048D01*
X715005Y2200051D02*
X734999D01*
X725002D01*
Y2260032D01*
X715005Y2250035D01*
X764989D02*
X774985Y2260032D01*
X794979D01*
X804976Y2250035D01*
Y2210048D01*
X794979Y2200051D01*
X774985D01*
X764989Y2210048D01*
Y2250035D01*
X1230007Y1565008D02*
X1220010Y1555012D01*
Y1535018D01*
X1230007Y1525021D01*
X1269994D01*
X1279990Y1535018D01*
Y1555012D01*
X1269994Y1565008D01*
X1279990Y1585002D02*
Y1604996D01*
Y1594999D01*
X1220010D01*
X1230007Y1585002D01*
X1279990Y1634986D02*
Y1654979D01*
Y1644982D01*
X1220010D01*
X1230007Y1634986D01*
X695012Y2150035D02*
X685015Y2160031D01*
X665021D01*
X655025Y2150035D01*
Y2110048D01*
X665021Y2100051D01*
X685015D01*
X695012Y2110048D01*
X715005Y2100051D02*
X734999D01*
X725002D01*
Y2160031D01*
X715005Y2150035D01*
X804976Y2100051D02*
X764989D01*
X804976Y2140038D01*
Y2150035D01*
X794979Y2160031D01*
X774985D01*
X764989Y2150035D01*
X640048Y2345012D02*
X630051Y2335015D01*
Y2315021D01*
X640048Y2305025D01*
X680035D01*
X690031Y2315021D01*
Y2335015D01*
X680035Y2345012D01*
X690031Y2365005D02*
Y2384999D01*
Y2375002D01*
X630051D01*
X640048Y2365005D01*
Y2414989D02*
X630051Y2424985D01*
Y2444979D01*
X640048Y2454976D01*
X650044D01*
X660041Y2444979D01*
Y2434982D01*
Y2444979D01*
X670038Y2454976D01*
X680035D01*
X690031Y2444979D01*
Y2424985D01*
X680035Y2414989D01*
X1450007Y1555012D02*
X1440010Y1545015D01*
Y1525021D01*
X1450007Y1515025D01*
X1489994D01*
X1499990Y1525021D01*
Y1545015D01*
X1489994Y1555012D01*
X1499990Y1575005D02*
Y1594999D01*
Y1585002D01*
X1440010D01*
X1450007Y1575005D01*
X1499990Y1654979D02*
X1440010D01*
X1470000Y1624989D01*
Y1664976D01*
X810016Y1697927D02*
Y1637946D01*
X840007D01*
X850003Y1647943D01*
Y1687930D01*
X840007Y1697927D01*
X810016D01*
X899987Y1637946D02*
Y1697927D01*
X869997Y1667936D01*
X909984D01*
X2409990Y1240026D02*
X2350010D01*
Y1270016D01*
X2360006Y1280013D01*
X2380000D01*
X2389996Y1270016D01*
Y1240026D01*
Y1260019D02*
X2409990Y1280013D01*
X2360006Y1300006D02*
X2350010Y1310003D01*
Y1329997D01*
X2360006Y1339993D01*
X2370003D01*
X2380000Y1329997D01*
Y1320000D01*
Y1329997D01*
X2389996Y1339993D01*
X2399993D01*
X2409990Y1329997D01*
Y1310003D01*
X2399993Y1300006D01*
X2360006Y1359987D02*
X2350010Y1369984D01*
Y1389977D01*
X2360006Y1399974D01*
X2399993D01*
X2409990Y1389977D01*
Y1369984D01*
X2399993Y1359987D01*
X2360006D01*
X2309990Y1250022D02*
X2250009D01*
Y1280013D01*
X2260006Y1290009D01*
X2280000D01*
X2289996Y1280013D01*
Y1250022D01*
Y1270016D02*
X2309990Y1290009D01*
X2260006Y1310003D02*
X2250009Y1320000D01*
Y1339993D01*
X2260006Y1349990D01*
X2270003D01*
X2280000Y1339993D01*
Y1329997D01*
Y1339993D01*
X2289996Y1349990D01*
X2299993D01*
X2309990Y1339993D01*
Y1320000D01*
X2299993Y1310003D01*
X2309990Y1369984D02*
Y1389977D01*
Y1379980D01*
X2250009D01*
X2260006Y1369984D01*
X2679990Y1480026D02*
X2620009D01*
Y1510016D01*
X2630006Y1520013D01*
X2650000D01*
X2659996Y1510016D01*
Y1480026D01*
Y1500019D02*
X2679990Y1520013D01*
X2630006Y1540006D02*
X2620009Y1550003D01*
Y1569997D01*
X2630006Y1579993D01*
X2640003D01*
X2650000Y1569997D01*
Y1560000D01*
Y1569997D01*
X2659996Y1579993D01*
X2669993D01*
X2679990Y1569997D01*
Y1550003D01*
X2669993Y1540006D01*
X2620009Y1639974D02*
Y1599987D01*
X2650000D01*
X2640003Y1619981D01*
Y1629977D01*
X2650000Y1639974D01*
X2669993D01*
X2679990Y1629977D01*
Y1609984D01*
X2669993Y1599987D01*
X2779990Y1480026D02*
X2720010D01*
Y1510016D01*
X2730006Y1520013D01*
X2750000D01*
X2759997Y1510016D01*
Y1480026D01*
Y1500019D02*
X2779990Y1520013D01*
X2730006Y1540006D02*
X2720010Y1550003D01*
Y1569997D01*
X2730006Y1579993D01*
X2740003D01*
X2750000Y1569997D01*
Y1560000D01*
Y1569997D01*
X2759997Y1579993D01*
X2769993D01*
X2779990Y1569997D01*
Y1550003D01*
X2769993Y1540006D01*
X2720010Y1639974D02*
X2730006Y1619981D01*
X2750000Y1599987D01*
X2769993D01*
X2779990Y1609984D01*
Y1629977D01*
X2769993Y1639974D01*
X2759997D01*
X2750000Y1629977D01*
Y1599987D01*
X2579990Y1480026D02*
X2520009D01*
Y1510016D01*
X2530006Y1520013D01*
X2550000D01*
X2559996Y1510016D01*
Y1480026D01*
Y1500019D02*
X2579990Y1520013D01*
Y1569997D02*
X2520009D01*
X2550000Y1540006D01*
Y1579993D01*
X2520009Y1639974D02*
Y1599987D01*
X2550000D01*
X2540003Y1619981D01*
Y1629977D01*
X2550000Y1639974D01*
X2569993D01*
X2579990Y1629977D01*
Y1609984D01*
X2569993Y1599987D01*
X679990Y1533315D02*
X620009D01*
Y1563305D01*
X630006Y1573302D01*
X650000D01*
X659996Y1563305D01*
Y1533315D01*
Y1553309D02*
X679990Y1573302D01*
Y1623286D02*
X620009D01*
X650000Y1593296D01*
Y1633282D01*
X630006Y1653276D02*
X620009Y1663273D01*
Y1683266D01*
X630006Y1693263D01*
X640003D01*
X650000Y1683266D01*
X659996Y1693263D01*
X669993D01*
X679990Y1683266D01*
Y1663273D01*
X669993Y1653276D01*
X659996D01*
X650000Y1663273D01*
X640003Y1653276D01*
X630006D01*
X650000Y1663273D02*
Y1683266D01*
X730016Y1463280D02*
X770003D01*
X750010D01*
Y1403299D01*
X789997Y1453283D02*
X799994Y1463280D01*
X819987D01*
X829984Y1453283D01*
Y1443286D01*
X819987Y1433289D01*
X809991D01*
X819987D01*
X829984Y1423293D01*
Y1413296D01*
X819987Y1403299D01*
X799994D01*
X789997Y1413296D01*
X1010009Y1972869D02*
X1059993D01*
X1069990Y1982865D01*
Y2002859D01*
X1059993Y2012856D01*
X1010009D01*
X1020006Y2032849D02*
X1010009Y2042846D01*
Y2062840D01*
X1020006Y2072836D01*
X1030003D01*
X1040000Y2062840D01*
Y2052843D01*
Y2062840D01*
X1049996Y2072836D01*
X1059993D01*
X1069990Y2062840D01*
Y2042846D01*
X1059993Y2032849D01*
X1850010Y1910013D02*
X1909990Y1950000D01*
X1850010D02*
X1909990Y1910013D01*
Y1969993D02*
Y1989987D01*
Y1979990D01*
X1850010D01*
X1860007Y1969993D01*
X720009Y1900016D02*
X779990Y1940003D01*
X720009D02*
X779990Y1900016D01*
Y1999984D02*
Y1959997D01*
X740003Y1999984D01*
X730006D01*
X720009Y1989987D01*
Y1969993D01*
X730006Y1959997D01*
X2240017Y2039093D02*
Y1989109D01*
X2250013Y1979112D01*
X2270007D01*
X2280004Y1989109D01*
Y2039093D01*
X2339984Y1979112D02*
X2299997D01*
X2339984Y2019099D01*
Y2029096D01*
X2329987Y2039093D01*
X2309994D01*
X2299997Y2029096D01*
%TF.MD5,3c41eb826dfa714efc8ebb47361d1959*%
M02*
