%TF.GenerationSoftware,Altium Limited,Altium Designer,23.9.2 (47)*%
G04 Layer_Color=128*
%FSLAX45Y45*%
%MOMM*%
%TF.SameCoordinates,AC4A3DE0-5486-420A-B1FF-1F5B93080124*%
%TF.FilePolarity,Positive*%
%TF.FileFunction,Drillmap*%
%TF.Part,Single*%
G01*
G75*
%TA.AperFunction,NonConductor*%
%ADD102C,0.12700*%
D102*
X379000Y294000D02*
X489000D01*
X434000Y239000D02*
Y349000D01*
X379000Y548000D02*
X489000D01*
X434000Y493000D02*
Y603000D01*
X125000Y294000D02*
X235000D01*
X180000Y239000D02*
Y349000D01*
X125000Y548000D02*
X235000D01*
X180000Y493000D02*
Y603000D01*
X379000Y802000D02*
X489000D01*
X434000Y747000D02*
Y857000D01*
X379000Y1056000D02*
X489000D01*
X434000Y1001000D02*
Y1111000D01*
X379000Y1310000D02*
X489000D01*
X434000Y1255000D02*
Y1365000D01*
X379000Y1564000D02*
X489000D01*
X434000Y1509000D02*
Y1619000D01*
X379000Y1818000D02*
X489000D01*
X434000Y1763000D02*
Y1873000D01*
X379000Y2072000D02*
X489000D01*
X434000Y2017000D02*
Y2127000D01*
X379000Y2326000D02*
X489000D01*
X434000Y2271000D02*
Y2381000D01*
X125000Y802000D02*
X235000D01*
X180000Y747000D02*
Y857000D01*
X125000Y1056000D02*
X235000D01*
X180000Y1001000D02*
Y1111000D01*
X125000Y1310000D02*
X235000D01*
X180000Y1255000D02*
Y1365000D01*
X125000Y1564000D02*
X235000D01*
X180000Y1509000D02*
Y1619000D01*
X125000Y1818000D02*
X235000D01*
X180000Y1763000D02*
Y1873000D01*
X125000Y2072000D02*
X235000D01*
X180000Y2017000D02*
Y2127000D01*
X125000Y2326000D02*
X235000D01*
X180000Y2271000D02*
Y2381000D01*
X2590315Y2255315D02*
X2600315D01*
X2595315Y2250315D02*
Y2260315D01*
X2631618Y2210000D02*
X2641618D01*
X2636618Y2205000D02*
Y2215000D01*
X2635000Y2140000D02*
X2645000D01*
X2640000Y2135000D02*
Y2145000D01*
X1624394Y1139393D02*
X1634393D01*
X1629393Y1134393D02*
Y1144393D01*
X1505000Y1190000D02*
X1515000D01*
X1510000Y1185000D02*
Y1195000D01*
X1485986Y1107346D02*
X1495986D01*
X1490986Y1102346D02*
Y1112346D01*
X295000Y1190000D02*
X305000D01*
X300000Y1185000D02*
Y1195000D01*
X2595000Y1820000D02*
X2605000D01*
X2600000Y1815000D02*
Y1825000D01*
X1505000Y960000D02*
X1515000D01*
X1510000Y955000D02*
Y965000D01*
X1085000Y460000D02*
X1095000D01*
X1090000Y455000D02*
Y465000D01*
X1185000Y320000D02*
X1195000D01*
X1190000Y315000D02*
Y325000D01*
X695000Y1730000D02*
X705000D01*
X700000Y1725000D02*
Y1735000D01*
X989838Y1646224D02*
X999838D01*
X994838Y1641224D02*
Y1651224D01*
X2375000Y1450000D02*
X2385000D01*
X2380000Y1445000D02*
Y1455000D01*
X2136288Y2183656D02*
X2146288D01*
X2141288Y2178656D02*
Y2188656D01*
X2064996Y1709997D02*
X2074996D01*
X2069996Y1704997D02*
Y1714997D01*
X2725000Y1270000D02*
X2735000D01*
X2730000Y1265000D02*
Y1275000D01*
X2126965Y2123167D02*
X2136965D01*
X2131965Y2118167D02*
Y2128167D01*
X2119907Y1919570D02*
X2129907D01*
X2124907Y1914570D02*
Y1924570D01*
X843025Y2256789D02*
X853025D01*
X848025Y2251790D02*
Y2261789D01*
X1115000Y1460000D02*
X1125000D01*
X1120000Y1455000D02*
Y1465000D01*
X1255000Y970000D02*
X1265000D01*
X1260000Y965000D02*
Y975000D01*
X1249246Y1115754D02*
X1259246D01*
X1254246Y1110754D02*
Y1120754D01*
X802577Y846170D02*
X812577D01*
X807577Y841170D02*
Y851170D01*
X798632Y491892D02*
X808632D01*
X803632Y486892D02*
Y496892D01*
X295000Y710000D02*
X305000D01*
X300000Y705000D02*
Y715000D01*
X911197Y2454400D02*
X921197D01*
X916197Y2449400D02*
Y2459400D01*
X63494Y1944575D02*
X73494D01*
X68494Y1939575D02*
Y1949575D01*
X61973Y1689810D02*
X71973D01*
X66973Y1684810D02*
Y1694810D01*
X61973Y1437325D02*
X71973D01*
X66973Y1432325D02*
Y1442325D01*
X62734Y929314D02*
X72734D01*
X67734Y924314D02*
Y934314D01*
X61213Y673788D02*
X71213D01*
X66213Y668788D02*
Y678788D01*
X65000Y420000D02*
X75000D01*
X70000Y415000D02*
Y425000D01*
X1325000Y180000D02*
X1335000D01*
X1330000Y175000D02*
Y185000D01*
X2545000Y190000D02*
X2555000D01*
X2550000Y185000D02*
Y195000D01*
X1944999Y2199959D02*
X1954999D01*
X1949999Y2194959D02*
Y2204959D01*
X1984463Y2246418D02*
X1994463D01*
X1989463Y2241418D02*
Y2251418D01*
X2198302Y2185130D02*
X2208302D01*
X2203302Y2180130D02*
Y2190130D01*
X2120334Y2017238D02*
X2130334D01*
X2125334Y2012238D02*
Y2022238D01*
X2485358Y1832265D02*
X2495358D01*
X2490358Y1827265D02*
Y1837265D01*
X2475000Y1600000D02*
X2485000D01*
X2480000Y1595000D02*
Y1605000D01*
X2328948Y1707651D02*
X2338948D01*
X2333948Y1702651D02*
Y1712651D01*
X2261583Y2454400D02*
X2271583D01*
X2266583Y2449400D02*
Y2459400D01*
X1365000Y940000D02*
X1375000D01*
X1370000Y935000D02*
Y945000D01*
X945000Y748696D02*
X955000D01*
X950000Y743696D02*
Y753696D01*
X1085000Y2028696D02*
X1095000D01*
X1090000Y2023696D02*
Y2033696D01*
X1403560Y1610730D02*
X1413560D01*
X1408560Y1605730D02*
Y1615730D01*
X1185000Y1880000D02*
X1195000D01*
X1190000Y1875000D02*
Y1885000D01*
X1085000Y1780000D02*
X1095000D01*
X1090000Y1775000D02*
Y1785000D01*
X1275000Y670000D02*
X1285000D01*
X1280000Y665000D02*
Y675000D01*
X1275000Y610000D02*
X1285000D01*
X1280000Y605000D02*
Y615000D01*
X1061793Y2268972D02*
X1071793D01*
X1066793Y2263972D02*
Y2273972D01*
X2440783Y2165241D02*
X2450783D01*
X2445783Y2160241D02*
Y2170241D01*
X875000Y2350000D02*
X885000D01*
X880000Y2345000D02*
Y2355000D01*
X939118Y2377704D02*
X949117D01*
X944117Y2372704D02*
Y2382704D01*
X1365000Y2380000D02*
X1375000D01*
X1370000Y2375000D02*
Y2385000D01*
X1313797Y1533032D02*
X1323797D01*
X1318797Y1528032D02*
Y1538032D01*
X819640Y1522606D02*
X829640D01*
X824640Y1517606D02*
Y1527606D01*
X815780Y1384933D02*
X825780D01*
X820780Y1379933D02*
Y1389933D01*
X813744Y997965D02*
X823744D01*
X818744Y992965D02*
Y1002965D01*
X915000Y400000D02*
X925000D01*
X920000Y395000D02*
Y405000D01*
X1730000Y578425D02*
X1740000D01*
X1735000Y573425D02*
Y583425D01*
X2695000Y1420000D02*
X2705000D01*
X2700000Y1415000D02*
Y1425000D01*
X1164668Y2157572D02*
X1174668D01*
X1169668Y2152572D02*
Y2162571D01*
X1605000Y780000D02*
X1615000D01*
X1610000Y775000D02*
Y785000D01*
X1850269Y1316304D02*
X1860269D01*
X1855269Y1311304D02*
Y1321304D01*
X1947440Y684512D02*
X1957440D01*
X1952440Y679512D02*
Y689512D01*
X2829363Y362722D02*
X2839363D01*
X2834363Y357722D02*
Y367722D01*
X2500010Y352712D02*
X2510010D01*
X2505010Y347712D02*
Y357712D01*
X2505000Y680000D02*
X2515000D01*
X2510000Y675000D02*
Y685000D01*
X2501511Y911311D02*
X2511511D01*
X2506511Y906311D02*
Y916311D01*
X2825000Y1120000D02*
X2835000D01*
X2830000Y1115000D02*
Y1125000D01*
X1744999Y1719999D02*
X1754999D01*
X1749999Y1714999D02*
Y1724999D01*
X1995839Y1869999D02*
X2005839D01*
X2000839Y1864999D02*
Y1874999D01*
X2595000Y2060000D02*
X2605000D01*
X2600000Y2055000D02*
Y2065000D01*
X1632398Y2185442D02*
X1642398D01*
X1637398Y2180442D02*
Y2190442D01*
X1915000Y1690000D02*
X1925000D01*
X1920000Y1685000D02*
Y1695000D01*
X996269Y1358257D02*
X1006269D01*
X1001269Y1353257D02*
Y1363257D01*
X2015000Y2420000D02*
X2025000D01*
X2020000Y2415000D02*
Y2425000D01*
X2244679Y2313689D02*
X2254679D01*
X2249679Y2308689D02*
Y2318689D01*
X2183658Y2313714D02*
X2193658D01*
X2188658Y2308714D02*
Y2318714D01*
X1985000Y2110000D02*
X1995000D01*
X1990000Y2105000D02*
Y2115000D01*
X2115000Y1520000D02*
X2125000D01*
X2120000Y1515000D02*
Y1525000D01*
X1675000Y1530000D02*
X1685000D01*
X1680000Y1525000D02*
Y1535000D01*
X1764996Y1339997D02*
X1774996D01*
X1769996Y1334997D02*
Y1344997D01*
X1895886Y1137501D02*
X1905886D01*
X1900886Y1132501D02*
Y1142501D01*
X1285000Y750000D02*
X1295000D01*
X1290000Y745000D02*
Y755000D01*
X1285000Y850000D02*
X1295000D01*
X1290000Y845000D02*
Y855000D01*
X1060000Y1250000D02*
X1070000D01*
X1065000Y1245000D02*
Y1255000D01*
X805000Y1060000D02*
X815000D01*
X810000Y1055000D02*
Y1065000D01*
X2475000Y1540000D02*
X2485000D01*
X2480000Y1535000D02*
Y1545000D01*
X2345000Y2070000D02*
X2355000D01*
X2350000Y2065000D02*
Y2075000D01*
X2575000Y1330000D02*
X2585000D01*
X2580000Y1325000D02*
Y1335000D01*
X2049090Y1135303D02*
X2059090D01*
X2054090Y1130303D02*
Y1140303D01*
X2055000Y910000D02*
X2065000D01*
X2060000Y905000D02*
Y915000D01*
X2645000Y1330000D02*
X2655000D01*
X2650000Y1325000D02*
Y1335000D01*
X2060112Y576690D02*
X2070112D01*
X2065112Y571690D02*
Y581690D01*
X2315000Y1450000D02*
X2325000D01*
X2320000Y1445000D02*
Y1455000D01*
X2050556Y1005327D02*
X2060556D01*
X2055556Y1000327D02*
Y1010327D01*
X1445000Y460000D02*
X1455000D01*
X1450000Y455000D02*
Y465000D01*
X1845000Y330000D02*
X1855000D01*
X1850000Y325000D02*
Y335000D01*
X1945000Y460000D02*
X1955000D01*
X1950000Y455000D02*
Y465000D01*
X1735357Y440437D02*
X1745357D01*
X1740357Y435437D02*
Y445437D01*
X2516896Y1718716D02*
X2526896D01*
X2521896Y1713716D02*
Y1723716D01*
X2225000Y2020000D02*
X2235000D01*
X2230000Y2015000D02*
Y2025000D01*
X1615000Y560000D02*
X1625000D01*
X1620000Y555000D02*
Y565000D01*
X1723526Y775509D02*
X1733526D01*
X1728526Y770510D02*
Y780509D01*
X1505000Y2060000D02*
X1515000D01*
X1510000Y2055000D02*
Y2065000D01*
X1505000Y2120000D02*
X1515000D01*
X1510000Y2115000D02*
Y2125000D01*
X2435003Y1962909D02*
X2445003D01*
X2440003Y1957909D02*
Y1967909D01*
X2433995Y1865410D02*
X2443995D01*
X2438995Y1860410D02*
Y1870410D01*
X2292087Y2170001D02*
X2302087D01*
X2297087Y2165001D02*
Y2175001D01*
X2355680Y2164135D02*
X2365680D01*
X2360680Y2159135D02*
Y2169135D01*
X2373143Y1866454D02*
X2383143D01*
X2378143Y1861454D02*
Y1871454D01*
X2441412Y2097825D02*
X2451412D01*
X2446412Y2092825D02*
Y2102825D01*
X815539Y390244D02*
X825539D01*
X820539Y385244D02*
Y395244D01*
X1641820Y916820D02*
X1651820D01*
X1646820Y911820D02*
Y921820D01*
X2265000Y810000D02*
X2275000D01*
X2270000Y805000D02*
Y815000D01*
X2405000Y1030000D02*
X2415000D01*
X2410000Y1025000D02*
Y1035000D01*
X2381147Y810321D02*
X2391147D01*
X2386147Y805321D02*
Y815321D01*
%TF.MD5,95698ce2ef5ebfce814a38e0fd6e535c*%
M02*
