%TF.GenerationSoftware,Altium Limited,Altium Designer,25.5.2 (35)*%
G04 Layer_Color=2752767*
%FSLAX45Y45*%
%MOMM*%
%TF.SameCoordinates,263EE719-961F-4448-A72E-CF07F5483F46*%
%TF.FilePolarity,Positive*%
%TF.FileFunction,Drawing*%
%TF.Part,Single*%
G01*
G75*
%TA.AperFunction,NonConductor*%
%ADD33C,0.12700*%
D33*
X1020000Y1355200D02*
X1045400Y1380600D01*
X1070800D01*
X1045400Y1406000D01*
X1070800Y1431400D01*
X1045400D01*
X1020000Y1456800D01*
X994600Y1431400D01*
X969200D01*
X994600Y1406000D01*
X969200Y1380600D01*
X994600D01*
X1020000Y1355200D01*
Y1609200D02*
X1045400Y1634600D01*
X1070800D01*
X1045400Y1660000D01*
X1070800Y1685400D01*
X1045400D01*
X1020000Y1710800D01*
X994600Y1685400D01*
X969200D01*
X994600Y1660000D01*
X969200Y1634600D01*
X994600D01*
X1020000Y1609200D01*
X1274000Y1355200D02*
X1299400Y1380600D01*
X1324800D01*
X1299400Y1406000D01*
X1324800Y1431400D01*
X1299400D01*
X1274000Y1456800D01*
X1248600Y1431400D01*
X1223200D01*
X1248600Y1406000D01*
X1223200Y1380600D01*
X1248600D01*
X1274000Y1355200D01*
Y1609200D02*
X1299400Y1634600D01*
X1324800D01*
X1299400Y1660000D01*
X1324800Y1685400D01*
X1299400D01*
X1274000Y1710800D01*
X1248600Y1685400D01*
X1223200D01*
X1248600Y1660000D01*
X1223200Y1634600D01*
X1248600D01*
X1274000Y1609200D01*
X1020000Y595200D02*
X1045400Y620600D01*
X1070800D01*
X1045400Y646000D01*
X1070800Y671400D01*
X1045400D01*
X1020000Y696800D01*
X994600Y671400D01*
X969200D01*
X994600Y646000D01*
X969200Y620600D01*
X994600D01*
X1020000Y595200D01*
Y849200D02*
X1045400Y874600D01*
X1070800D01*
X1045400Y900000D01*
X1070800Y925400D01*
X1045400D01*
X1020000Y950800D01*
X994600Y925400D01*
X969200D01*
X994600Y900000D01*
X969200Y874600D01*
X994600D01*
X1020000Y849200D01*
X1274000Y595200D02*
X1299400Y620600D01*
X1324800D01*
X1299400Y646000D01*
X1324800Y671400D01*
X1299400D01*
X1274000Y696800D01*
X1248600Y671400D01*
X1223200D01*
X1248600Y646000D01*
X1223200Y620600D01*
X1248600D01*
X1274000Y595200D01*
Y849200D02*
X1299400Y874600D01*
X1324800D01*
X1299400Y900000D01*
X1324800Y925400D01*
X1299400D01*
X1274000Y950800D01*
X1248600Y925400D01*
X1223200D01*
X1248600Y900000D01*
X1223200Y874600D01*
X1248600D01*
X1274000Y849200D01*
X1847000Y389200D02*
X1796200Y490800D01*
X1897800D01*
X1847000Y389200D01*
X1997000Y2209200D02*
X1946200Y2310800D01*
X2047800D01*
X1997000Y2209200D01*
X1459200Y539200D02*
Y640800D01*
X1560800D01*
Y539200D01*
X1459200D01*
X1839344Y702036D02*
Y803636D01*
X1940944D01*
Y702036D01*
X1839344D01*
X1862053Y778835D02*
Y880435D01*
X1963653D01*
Y778835D01*
X1862053D01*
X589200Y539200D02*
Y640800D01*
X690800D01*
Y539200D01*
X589200D01*
X1796200Y859200D02*
Y960800D01*
X1897800D01*
Y859200D01*
X1796200D01*
Y1099200D02*
Y1200800D01*
X1897800D01*
Y1099200D01*
X1796200D01*
Y1499200D02*
Y1600800D01*
X1897800D01*
Y1499200D01*
X1796200D01*
Y1739200D02*
Y1840800D01*
X1897800D01*
Y1739200D01*
X1796200D01*
Y1979200D02*
Y2080800D01*
X1897800D01*
Y1979200D01*
X1796200D01*
X1789200Y619200D02*
Y720800D01*
X1890800D01*
Y619200D01*
X1789200D01*
X589200D02*
Y720800D01*
X690800D01*
Y619200D01*
X589200D01*
X449200Y859200D02*
Y960800D01*
X550800D01*
Y859200D01*
X449200D01*
Y1099200D02*
Y1200800D01*
X550800D01*
Y1099200D01*
X449200D01*
Y1499200D02*
Y1600800D01*
X550800D01*
Y1499200D01*
X449200D01*
X443868Y1736964D02*
Y1838564D01*
X545468D01*
Y1736964D01*
X443868D01*
X569387Y1979879D02*
Y2081479D01*
X670987D01*
Y1979879D01*
X569387D01*
X589200Y2059200D02*
Y2160800D01*
X690800D01*
Y2059200D01*
X589200D01*
X1419200D02*
Y2160800D01*
X1520800D01*
Y2059200D01*
X1419200D01*
%TF.MD5,28fb26d7c0ab9232599d6f3c6a40b9fc*%
M02*
