%TF.GenerationSoftware,Altium Limited,Altium Designer,25.5.2 (35)*%
G04 Layer_Color=16711935*
%FSLAX45Y45*%
%MOMM*%
%TF.SameCoordinates,263EE719-961F-4448-A72E-CF07F5483F46*%
%TF.FilePolarity,Negative*%
%TF.FileFunction,Soldermask,Bot*%
%TF.Part,Single*%
G01*
G75*
%TA.AperFunction,SMDPad,CuDef*%
G04:AMPARAMS|DCode=21|XSize=2.28mm|YSize=0.58mm|CornerRadius=0.165mm|HoleSize=0mm|Usage=FLASHONLY|Rotation=180.000|XOffset=0mm|YOffset=0mm|HoleType=Round|Shape=RoundedRectangle|*
%AMROUNDEDRECTD21*
21,1,2.28000,0.25000,0,0,180.0*
21,1,1.95000,0.58000,0,0,180.0*
1,1,0.33000,-0.97500,0.12500*
1,1,0.33000,0.97500,0.12500*
1,1,0.33000,0.97500,-0.12500*
1,1,0.33000,-0.97500,-0.12500*
%
%ADD21ROUNDEDRECTD21*%
G04:AMPARAMS|DCode=22|XSize=3.28mm|YSize=0.58mm|CornerRadius=0.165mm|HoleSize=0mm|Usage=FLASHONLY|Rotation=0.000|XOffset=0mm|YOffset=0mm|HoleType=Round|Shape=RoundedRectangle|*
%AMROUNDEDRECTD22*
21,1,3.28000,0.25000,0,0,0.0*
21,1,2.95000,0.58000,0,0,0.0*
1,1,0.33000,1.47500,-0.12500*
1,1,0.33000,-1.47500,-0.12500*
1,1,0.33000,-1.47500,0.12500*
1,1,0.33000,1.47500,0.12500*
%
%ADD22ROUNDEDRECTD22*%
%TA.AperFunction,ComponentPad*%
G04:AMPARAMS|DCode=23|XSize=1.85mm|YSize=2.25mm|CornerRadius=0.5mm|HoleSize=0mm|Usage=FLASHONLY|Rotation=270.000|XOffset=0mm|YOffset=0mm|HoleType=Round|Shape=RoundedRectangle|*
%AMROUNDEDRECTD23*
21,1,1.85000,1.25001,0,0,270.0*
21,1,0.85000,2.25000,0,0,270.0*
1,1,1.00000,-0.62500,-0.42500*
1,1,1.00000,-0.62500,0.42500*
1,1,1.00000,0.62500,0.42500*
1,1,1.00000,0.62500,-0.42500*
%
%ADD23ROUNDEDRECTD23*%
G04:AMPARAMS|DCode=24|XSize=1.85mm|YSize=2.25mm|CornerRadius=0mm|HoleSize=0mm|Usage=FLASHONLY|Rotation=270.000|XOffset=0mm|YOffset=0mm|HoleType=Round|Shape=Octagon|*
%AMOCTAGOND24*
4,1,8,1.12500,0.46250,1.12500,-0.46250,0.66250,-0.92500,-0.66250,-0.92500,-1.12500,-0.46250,-1.12500,0.46250,-0.66250,0.92500,0.66250,0.92500,1.12500,0.46250,0.0*
%
%ADD24OCTAGOND24*%

G04:AMPARAMS|DCode=25|XSize=1.7mm|YSize=1.75mm|CornerRadius=0.4625mm|HoleSize=0mm|Usage=FLASHONLY|Rotation=270.000|XOffset=0mm|YOffset=0mm|HoleType=Round|Shape=RoundedRectangle|*
%AMROUNDEDRECTD25*
21,1,1.70000,0.82500,0,0,270.0*
21,1,0.77500,1.75000,0,0,270.0*
1,1,0.92500,-0.41250,-0.38750*
1,1,0.92500,-0.41250,0.38750*
1,1,0.92500,0.41250,0.38750*
1,1,0.92500,0.41250,-0.38750*
%
%ADD25ROUNDEDRECTD25*%
D21*
X2050000Y750000D02*
D03*
Y830000D02*
D03*
X1644000D02*
D03*
Y750000D02*
D03*
X2050000Y2110000D02*
D03*
X1644000D02*
D03*
X2050000Y2030000D02*
D03*
Y1950000D02*
D03*
Y1870000D02*
D03*
Y1790000D02*
D03*
Y1710000D02*
D03*
Y1630000D02*
D03*
Y1550000D02*
D03*
Y1470000D02*
D03*
Y1390000D02*
D03*
Y1310000D02*
D03*
Y1230000D02*
D03*
Y1150000D02*
D03*
Y1070000D02*
D03*
Y990000D02*
D03*
Y910000D02*
D03*
Y670000D02*
D03*
Y590000D02*
D03*
X1644000Y2030000D02*
D03*
Y1950000D02*
D03*
Y1870000D02*
D03*
Y1790000D02*
D03*
Y1710000D02*
D03*
Y1630000D02*
D03*
Y1550000D02*
D03*
Y1470000D02*
D03*
Y1390000D02*
D03*
Y1310000D02*
D03*
Y1230000D02*
D03*
Y1150000D02*
D03*
Y1070000D02*
D03*
Y990000D02*
D03*
Y910000D02*
D03*
Y670000D02*
D03*
Y590000D02*
D03*
D22*
X300000Y750000D02*
D03*
Y830000D02*
D03*
Y2110000D02*
D03*
Y1870000D02*
D03*
Y1950000D02*
D03*
Y2030000D02*
D03*
Y1710000D02*
D03*
Y1790000D02*
D03*
Y1630000D02*
D03*
Y1550000D02*
D03*
Y1470000D02*
D03*
Y1390000D02*
D03*
Y1310000D02*
D03*
Y1230000D02*
D03*
Y1150000D02*
D03*
Y1070000D02*
D03*
Y990000D02*
D03*
Y910000D02*
D03*
Y670000D02*
D03*
Y590000D02*
D03*
D23*
X1000000Y1406000D02*
D03*
X1294000D02*
D03*
Y1660000D02*
D03*
X1000000Y646000D02*
D03*
X1294000D02*
D03*
Y900000D02*
D03*
D24*
X1000000Y1660000D02*
D03*
Y900000D02*
D03*
D25*
X1847000Y440000D02*
D03*
X1997000Y2260000D02*
D03*
%TF.MD5,2683c9aac3c3cda6858c68081a7a65f5*%
M02*
