%TF.GenerationSoftware,Altium Limited,Altium Designer,25.5.2 (35)*%
G04 Layer_Color=32768*
%FSLAX45Y45*%
%MOMM*%
%TF.SameCoordinates,263EE719-961F-4448-A72E-CF07F5483F46*%
%TF.FilePolarity,Positive*%
%TF.FileFunction,Other,Assembly_Notes*%
%TF.Part,Single*%
G01*
G75*
%TA.AperFunction,NonConductor*%
%ADD19C,0.20000*%
%ADD26C,0.10000*%
%ADD27C,0.25400*%
D19*
X73322Y53322D02*
X40000Y86645D01*
Y119968D01*
X73322Y153290D01*
X123306Y136629D02*
X139968Y153290D01*
X173290D01*
X189951Y136629D01*
Y69984D01*
X173290Y53322D01*
X139968D01*
X123306Y69984D01*
Y136629D01*
X239936Y36661D02*
X256597Y53322D01*
Y69984D01*
X239936D01*
Y53322D01*
X256597D01*
X239936Y36661D01*
X223274Y20000D01*
X323242Y136629D02*
X339903Y153290D01*
X373226D01*
X389887Y136629D01*
Y69984D01*
X373226Y53322D01*
X339903D01*
X323242Y69984D01*
Y136629D01*
X423210Y53322D02*
X456532Y86645D01*
Y119968D01*
X423210Y153290D01*
D26*
X2082361Y2110000D02*
G03*
X2082361Y2110000I-22361J0D01*
G01*
X322361D02*
G03*
X322361Y2110000I-22361J0D01*
G01*
X1895000Y2374079D02*
X1950000D01*
X2190000D01*
X1890921D02*
X1895000D01*
X2010000Y2110000D02*
X2110000D01*
X2060000Y2060000D02*
Y2160000D01*
X2190000Y1320000D02*
Y2374079D01*
X1505000Y325000D02*
Y2374079D01*
Y325000D02*
X2190000D01*
X1505000Y2374079D02*
X1890921D01*
X2190000Y325000D02*
Y1320000D01*
X250000Y2110000D02*
X350000D01*
X300000Y2060000D02*
Y2160000D01*
X-3000Y2220000D02*
X592000D01*
X-3000Y480000D02*
X592000D01*
X590000Y2065000D02*
Y2165000D01*
X-3000Y480000D02*
Y2220000D01*
D27*
X0Y-76200D02*
Y76200D01*
X-76200Y0D02*
X76200D01*
%TF.MD5,3b51bf6e10fcbeecdd8a8debd4520383*%
M02*
