%TF.GenerationSoftware,Altium Limited,Altium Designer,25.5.2 (35)*%
G04 Layer_Color=128*
%FSLAX45Y45*%
%MOMM*%
%TF.SameCoordinates,263EE719-961F-4448-A72E-CF07F5483F46*%
%TF.FilePolarity,Positive*%
%TF.FileFunction,Paste,Bot*%
%TF.Part,Single*%
G01*
G75*
G36*
X2124581Y2133097D02*
X2128097Y2129581D01*
X2130000Y2124986D01*
Y2122500D01*
Y2097500D01*
Y2095014D01*
X2128097Y2090419D01*
X2124581Y2086903D01*
X2119986Y2085000D01*
X1980013D01*
X1975419Y2086903D01*
X1971903Y2090419D01*
X1970000Y2095014D01*
Y2097500D01*
Y2122500D01*
Y2124986D01*
X1971903Y2129581D01*
X1975419Y2133097D01*
X1980013Y2135000D01*
X2119986D01*
X2124581Y2133097D01*
D02*
G37*
G36*
X1718581D02*
X1722097Y2129581D01*
X1724000Y2124986D01*
Y2122500D01*
Y2097500D01*
Y2095014D01*
X1722097Y2090419D01*
X1718581Y2086903D01*
X1713986Y2085000D01*
X1574013D01*
X1569419Y2086903D01*
X1565903Y2090419D01*
X1564000Y2095014D01*
Y2097500D01*
Y2122500D01*
Y2124986D01*
X1565903Y2129581D01*
X1569419Y2133097D01*
X1574013Y2135000D01*
X1713986D01*
X1718581Y2133097D01*
D02*
G37*
G36*
X384581D02*
X388097Y2129581D01*
X390000Y2124986D01*
Y2122500D01*
Y2097500D01*
Y2095014D01*
X388097Y2090419D01*
X384581Y2086903D01*
X379986Y2085000D01*
X240013D01*
X235419Y2086903D01*
X231903Y2090419D01*
X230000Y2095014D01*
Y2097500D01*
Y2122500D01*
Y2124986D01*
X231903Y2129581D01*
X235419Y2133097D01*
X240013Y2135000D01*
X379986D01*
X384581Y2133097D01*
D02*
G37*
G36*
X2124581Y2053097D02*
X2128097Y2049581D01*
X2130000Y2044986D01*
Y2042500D01*
Y2017500D01*
Y2015013D01*
X2128097Y2010419D01*
X2124581Y2006903D01*
X2119986Y2005000D01*
X1980013D01*
X1975419Y2006903D01*
X1971903Y2010419D01*
X1970000Y2015013D01*
Y2017500D01*
Y2042500D01*
Y2044986D01*
X1971903Y2049581D01*
X1975419Y2053097D01*
X1980013Y2055000D01*
X2119986D01*
X2124581Y2053097D01*
D02*
G37*
G36*
X1718581D02*
X1722097Y2049581D01*
X1724000Y2044986D01*
Y2042500D01*
Y2017500D01*
Y2015013D01*
X1722097Y2010419D01*
X1718581Y2006903D01*
X1713986Y2005000D01*
X1574013D01*
X1569419Y2006903D01*
X1565903Y2010419D01*
X1564000Y2015013D01*
Y2017500D01*
Y2042500D01*
Y2044986D01*
X1565903Y2049581D01*
X1569419Y2053097D01*
X1574013Y2055000D01*
X1713986D01*
X1718581Y2053097D01*
D02*
G37*
G36*
X384581D02*
X388097Y2049581D01*
X390000Y2044986D01*
Y2042500D01*
Y2017500D01*
Y2015013D01*
X388097Y2010419D01*
X384581Y2006903D01*
X379986Y2005000D01*
X240013D01*
X235419Y2006903D01*
X231903Y2010419D01*
X230000Y2015013D01*
Y2017500D01*
Y2042500D01*
Y2044986D01*
X231903Y2049581D01*
X235419Y2053097D01*
X240013Y2055000D01*
X379986D01*
X384581Y2053097D01*
D02*
G37*
G36*
X2124581Y1973097D02*
X2128097Y1969581D01*
X2130000Y1964986D01*
Y1962500D01*
Y1937500D01*
Y1935014D01*
X2128097Y1930419D01*
X2124581Y1926903D01*
X2119986Y1925000D01*
X1980013D01*
X1975419Y1926903D01*
X1971903Y1930419D01*
X1970000Y1935014D01*
Y1937500D01*
Y1962500D01*
Y1964986D01*
X1971903Y1969581D01*
X1975419Y1973097D01*
X1980013Y1975000D01*
X2119986D01*
X2124581Y1973097D01*
D02*
G37*
G36*
X1718581D02*
X1722097Y1969581D01*
X1724000Y1964986D01*
Y1962500D01*
Y1937500D01*
Y1935014D01*
X1722097Y1930419D01*
X1718581Y1926903D01*
X1713986Y1925000D01*
X1574013D01*
X1569419Y1926903D01*
X1565903Y1930419D01*
X1564000Y1935014D01*
Y1937500D01*
Y1962500D01*
Y1964986D01*
X1565903Y1969581D01*
X1569419Y1973097D01*
X1574013Y1975000D01*
X1713986D01*
X1718581Y1973097D01*
D02*
G37*
G36*
X384581D02*
X388097Y1969581D01*
X390000Y1964986D01*
Y1962500D01*
Y1937500D01*
Y1935014D01*
X388097Y1930419D01*
X384581Y1926903D01*
X379986Y1925000D01*
X240013D01*
X235419Y1926903D01*
X231903Y1930419D01*
X230000Y1935014D01*
Y1937500D01*
Y1962500D01*
Y1964986D01*
X231903Y1969581D01*
X235419Y1973097D01*
X240013Y1975000D01*
X379986D01*
X384581Y1973097D01*
D02*
G37*
G36*
X2124581Y1893097D02*
X2128097Y1889581D01*
X2130000Y1884986D01*
Y1882500D01*
Y1857500D01*
Y1855014D01*
X2128097Y1850419D01*
X2124581Y1846903D01*
X2119986Y1845000D01*
X1980013D01*
X1975419Y1846903D01*
X1971903Y1850419D01*
X1970000Y1855014D01*
Y1857500D01*
Y1882500D01*
Y1884986D01*
X1971903Y1889581D01*
X1975419Y1893097D01*
X1980013Y1895000D01*
X2119986D01*
X2124581Y1893097D01*
D02*
G37*
G36*
X1718581D02*
X1722097Y1889581D01*
X1724000Y1884986D01*
Y1882500D01*
Y1857500D01*
Y1855014D01*
X1722097Y1850419D01*
X1718581Y1846903D01*
X1713986Y1845000D01*
X1574013D01*
X1569419Y1846903D01*
X1565903Y1850419D01*
X1564000Y1855014D01*
Y1857500D01*
Y1882500D01*
Y1884986D01*
X1565903Y1889581D01*
X1569419Y1893097D01*
X1574013Y1895000D01*
X1713986D01*
X1718581Y1893097D01*
D02*
G37*
G36*
X384581D02*
X388097Y1889581D01*
X390000Y1884986D01*
Y1882500D01*
Y1857500D01*
Y1855014D01*
X388097Y1850419D01*
X384581Y1846903D01*
X379986Y1845000D01*
X240013D01*
X235419Y1846903D01*
X231903Y1850419D01*
X230000Y1855014D01*
Y1857500D01*
Y1882500D01*
Y1884986D01*
X231903Y1889581D01*
X235419Y1893097D01*
X240013Y1895000D01*
X379986D01*
X384581Y1893097D01*
D02*
G37*
G36*
X2124581Y1813097D02*
X2128097Y1809581D01*
X2130000Y1804986D01*
Y1802500D01*
Y1777500D01*
Y1775014D01*
X2128097Y1770419D01*
X2124581Y1766903D01*
X2119986Y1765000D01*
X1980013D01*
X1975419Y1766903D01*
X1971903Y1770419D01*
X1970000Y1775014D01*
Y1777500D01*
Y1802500D01*
Y1804986D01*
X1971903Y1809581D01*
X1975419Y1813097D01*
X1980013Y1815000D01*
X2119986D01*
X2124581Y1813097D01*
D02*
G37*
G36*
X1718581D02*
X1722097Y1809581D01*
X1724000Y1804986D01*
Y1802500D01*
Y1777500D01*
Y1775014D01*
X1722097Y1770419D01*
X1718581Y1766903D01*
X1713986Y1765000D01*
X1574013D01*
X1569419Y1766903D01*
X1565903Y1770419D01*
X1564000Y1775014D01*
Y1777500D01*
Y1802500D01*
Y1804986D01*
X1565903Y1809581D01*
X1569419Y1813097D01*
X1574013Y1815000D01*
X1713986D01*
X1718581Y1813097D01*
D02*
G37*
G36*
X384581D02*
X388097Y1809581D01*
X390000Y1804986D01*
Y1802500D01*
Y1777500D01*
Y1775014D01*
X388097Y1770419D01*
X384581Y1766903D01*
X379986Y1765000D01*
X240013D01*
X235419Y1766903D01*
X231903Y1770419D01*
X230000Y1775014D01*
Y1777500D01*
Y1802500D01*
Y1804986D01*
X231903Y1809581D01*
X235419Y1813097D01*
X240013Y1815000D01*
X379986D01*
X384581Y1813097D01*
D02*
G37*
G36*
X2124581Y1733097D02*
X2128097Y1729581D01*
X2130000Y1724986D01*
Y1722500D01*
Y1697500D01*
Y1695014D01*
X2128097Y1690419D01*
X2124581Y1686903D01*
X2119986Y1685000D01*
X1980013D01*
X1975419Y1686903D01*
X1971903Y1690419D01*
X1970000Y1695014D01*
Y1697500D01*
Y1722500D01*
Y1724986D01*
X1971903Y1729581D01*
X1975419Y1733097D01*
X1980013Y1735000D01*
X2119986D01*
X2124581Y1733097D01*
D02*
G37*
G36*
X1718581D02*
X1722097Y1729581D01*
X1724000Y1724986D01*
Y1722500D01*
Y1697500D01*
Y1695014D01*
X1722097Y1690419D01*
X1718581Y1686903D01*
X1713986Y1685000D01*
X1574013D01*
X1569419Y1686903D01*
X1565903Y1690419D01*
X1564000Y1695014D01*
Y1697500D01*
Y1722500D01*
Y1724986D01*
X1565903Y1729581D01*
X1569419Y1733097D01*
X1574013Y1735000D01*
X1713986D01*
X1718581Y1733097D01*
D02*
G37*
G36*
X384581D02*
X388097Y1729581D01*
X390000Y1724986D01*
Y1722500D01*
Y1697500D01*
Y1695014D01*
X388097Y1690419D01*
X384581Y1686903D01*
X379986Y1685000D01*
X240013D01*
X235419Y1686903D01*
X231903Y1690419D01*
X230000Y1695014D01*
Y1697500D01*
Y1722500D01*
Y1724986D01*
X231903Y1729581D01*
X235419Y1733097D01*
X240013Y1735000D01*
X379986D01*
X384581Y1733097D01*
D02*
G37*
G36*
X2124581Y1653097D02*
X2128097Y1649581D01*
X2130000Y1644986D01*
Y1642500D01*
Y1617500D01*
Y1615014D01*
X2128097Y1610419D01*
X2124581Y1606903D01*
X2119986Y1605000D01*
X1980013D01*
X1975419Y1606903D01*
X1971903Y1610419D01*
X1970000Y1615014D01*
Y1617500D01*
Y1642500D01*
Y1644986D01*
X1971903Y1649581D01*
X1975419Y1653097D01*
X1980013Y1655000D01*
X2119986D01*
X2124581Y1653097D01*
D02*
G37*
G36*
X1718581D02*
X1722097Y1649581D01*
X1724000Y1644986D01*
Y1642500D01*
Y1617500D01*
Y1615014D01*
X1722097Y1610419D01*
X1718581Y1606903D01*
X1713986Y1605000D01*
X1574013D01*
X1569419Y1606903D01*
X1565903Y1610419D01*
X1564000Y1615014D01*
Y1617500D01*
Y1642500D01*
Y1644986D01*
X1565903Y1649581D01*
X1569419Y1653097D01*
X1574013Y1655000D01*
X1713986D01*
X1718581Y1653097D01*
D02*
G37*
G36*
X384581D02*
X388097Y1649581D01*
X390000Y1644986D01*
Y1642500D01*
Y1617500D01*
Y1615014D01*
X388097Y1610419D01*
X384581Y1606903D01*
X379986Y1605000D01*
X240013D01*
X235419Y1606903D01*
X231903Y1610419D01*
X230000Y1615014D01*
Y1617500D01*
Y1642500D01*
Y1644986D01*
X231903Y1649581D01*
X235419Y1653097D01*
X240013Y1655000D01*
X379986D01*
X384581Y1653097D01*
D02*
G37*
G36*
X2124581Y1573097D02*
X2128097Y1569581D01*
X2130000Y1564986D01*
Y1562500D01*
Y1537500D01*
Y1535014D01*
X2128097Y1530419D01*
X2124581Y1526903D01*
X2119986Y1525000D01*
X1980013D01*
X1975419Y1526903D01*
X1971903Y1530419D01*
X1970000Y1535014D01*
Y1537500D01*
Y1562500D01*
Y1564986D01*
X1971903Y1569581D01*
X1975419Y1573097D01*
X1980013Y1575000D01*
X2119986D01*
X2124581Y1573097D01*
D02*
G37*
G36*
X1718581D02*
X1722097Y1569581D01*
X1724000Y1564986D01*
Y1562500D01*
Y1537500D01*
Y1535014D01*
X1722097Y1530419D01*
X1718581Y1526903D01*
X1713986Y1525000D01*
X1574013D01*
X1569419Y1526903D01*
X1565903Y1530419D01*
X1564000Y1535014D01*
Y1537500D01*
Y1562500D01*
Y1564986D01*
X1565903Y1569581D01*
X1569419Y1573097D01*
X1574013Y1575000D01*
X1713986D01*
X1718581Y1573097D01*
D02*
G37*
G36*
X384581D02*
X388097Y1569581D01*
X390000Y1564986D01*
Y1562500D01*
Y1537500D01*
Y1535014D01*
X388097Y1530419D01*
X384581Y1526903D01*
X379986Y1525000D01*
X240013D01*
X235419Y1526903D01*
X231903Y1530419D01*
X230000Y1535014D01*
Y1537500D01*
Y1562500D01*
Y1564986D01*
X231903Y1569581D01*
X235419Y1573097D01*
X240013Y1575000D01*
X379986D01*
X384581Y1573097D01*
D02*
G37*
G36*
X2124581Y1493097D02*
X2128097Y1489581D01*
X2130000Y1484986D01*
Y1482500D01*
Y1457500D01*
Y1455014D01*
X2128097Y1450419D01*
X2124581Y1446903D01*
X2119986Y1445000D01*
X1980013D01*
X1975419Y1446903D01*
X1971903Y1450419D01*
X1970000Y1455014D01*
Y1457500D01*
Y1482500D01*
Y1484986D01*
X1971903Y1489581D01*
X1975419Y1493097D01*
X1980013Y1495000D01*
X2119986D01*
X2124581Y1493097D01*
D02*
G37*
G36*
X1718581D02*
X1722097Y1489581D01*
X1724000Y1484986D01*
Y1482500D01*
Y1457500D01*
Y1455014D01*
X1722097Y1450419D01*
X1718581Y1446903D01*
X1713986Y1445000D01*
X1574013D01*
X1569419Y1446903D01*
X1565903Y1450419D01*
X1564000Y1455014D01*
Y1457500D01*
Y1482500D01*
Y1484986D01*
X1565903Y1489581D01*
X1569419Y1493097D01*
X1574013Y1495000D01*
X1713986D01*
X1718581Y1493097D01*
D02*
G37*
G36*
X384581D02*
X388097Y1489581D01*
X390000Y1484986D01*
Y1482500D01*
Y1457500D01*
Y1455014D01*
X388097Y1450419D01*
X384581Y1446903D01*
X379986Y1445000D01*
X240013D01*
X235419Y1446903D01*
X231903Y1450419D01*
X230000Y1455014D01*
Y1457500D01*
Y1482500D01*
Y1484986D01*
X231903Y1489581D01*
X235419Y1493097D01*
X240013Y1495000D01*
X379986D01*
X384581Y1493097D01*
D02*
G37*
G36*
X2124581Y1413097D02*
X2128097Y1409581D01*
X2130000Y1404986D01*
Y1402500D01*
Y1377500D01*
Y1375014D01*
X2128097Y1370419D01*
X2124581Y1366903D01*
X2119986Y1365000D01*
X1980013D01*
X1975419Y1366903D01*
X1971903Y1370419D01*
X1970000Y1375014D01*
Y1377500D01*
Y1402500D01*
Y1404986D01*
X1971903Y1409581D01*
X1975419Y1413097D01*
X1980013Y1415000D01*
X2119986D01*
X2124581Y1413097D01*
D02*
G37*
G36*
X1718581D02*
X1722097Y1409581D01*
X1724000Y1404986D01*
Y1402500D01*
Y1377500D01*
Y1375014D01*
X1722097Y1370419D01*
X1718581Y1366903D01*
X1713986Y1365000D01*
X1574013D01*
X1569419Y1366903D01*
X1565903Y1370419D01*
X1564000Y1375014D01*
Y1377500D01*
Y1402500D01*
Y1404986D01*
X1565903Y1409581D01*
X1569419Y1413097D01*
X1574013Y1415000D01*
X1713986D01*
X1718581Y1413097D01*
D02*
G37*
G36*
X384581D02*
X388097Y1409581D01*
X390000Y1404986D01*
Y1402500D01*
Y1377500D01*
Y1375014D01*
X388097Y1370419D01*
X384581Y1366903D01*
X379986Y1365000D01*
X240013D01*
X235419Y1366903D01*
X231903Y1370419D01*
X230000Y1375014D01*
Y1377500D01*
Y1402500D01*
Y1404986D01*
X231903Y1409581D01*
X235419Y1413097D01*
X240013Y1415000D01*
X379986D01*
X384581Y1413097D01*
D02*
G37*
G36*
X2124581Y1333097D02*
X2128097Y1329581D01*
X2130000Y1324986D01*
Y1322500D01*
Y1297500D01*
Y1295014D01*
X2128097Y1290419D01*
X2124581Y1286903D01*
X2119986Y1285000D01*
X1980013D01*
X1975419Y1286903D01*
X1971903Y1290419D01*
X1970000Y1295014D01*
Y1297500D01*
Y1322500D01*
Y1324986D01*
X1971903Y1329581D01*
X1975419Y1333097D01*
X1980013Y1335000D01*
X2119986D01*
X2124581Y1333097D01*
D02*
G37*
G36*
X1718581D02*
X1722097Y1329581D01*
X1724000Y1324986D01*
Y1322500D01*
Y1297500D01*
Y1295014D01*
X1722097Y1290419D01*
X1718581Y1286903D01*
X1713986Y1285000D01*
X1574013D01*
X1569419Y1286903D01*
X1565903Y1290419D01*
X1564000Y1295014D01*
Y1297500D01*
Y1322500D01*
Y1324986D01*
X1565903Y1329581D01*
X1569419Y1333097D01*
X1574013Y1335000D01*
X1713986D01*
X1718581Y1333097D01*
D02*
G37*
G36*
X384581D02*
X388097Y1329581D01*
X390000Y1324986D01*
Y1322500D01*
Y1297500D01*
Y1295014D01*
X388097Y1290419D01*
X384581Y1286903D01*
X379986Y1285000D01*
X240013D01*
X235419Y1286903D01*
X231903Y1290419D01*
X230000Y1295014D01*
Y1297500D01*
Y1322500D01*
Y1324986D01*
X231903Y1329581D01*
X235419Y1333097D01*
X240013Y1335000D01*
X379986D01*
X384581Y1333097D01*
D02*
G37*
G36*
X2124581Y1253097D02*
X2128097Y1249581D01*
X2130000Y1244986D01*
Y1242500D01*
Y1217500D01*
Y1215014D01*
X2128097Y1210419D01*
X2124581Y1206903D01*
X2119986Y1205000D01*
X1980013D01*
X1975419Y1206903D01*
X1971903Y1210419D01*
X1970000Y1215014D01*
Y1217500D01*
Y1242500D01*
Y1244986D01*
X1971903Y1249581D01*
X1975419Y1253097D01*
X1980013Y1255000D01*
X2119986D01*
X2124581Y1253097D01*
D02*
G37*
G36*
X1718581D02*
X1722097Y1249581D01*
X1724000Y1244986D01*
Y1242500D01*
Y1217500D01*
Y1215014D01*
X1722097Y1210419D01*
X1718581Y1206903D01*
X1713986Y1205000D01*
X1574013D01*
X1569419Y1206903D01*
X1565903Y1210419D01*
X1564000Y1215014D01*
Y1217500D01*
Y1242500D01*
Y1244986D01*
X1565903Y1249581D01*
X1569419Y1253097D01*
X1574013Y1255000D01*
X1713986D01*
X1718581Y1253097D01*
D02*
G37*
G36*
X384581D02*
X388097Y1249581D01*
X390000Y1244986D01*
Y1242500D01*
Y1217500D01*
Y1215014D01*
X388097Y1210419D01*
X384581Y1206903D01*
X379986Y1205000D01*
X240013D01*
X235419Y1206903D01*
X231903Y1210419D01*
X230000Y1215014D01*
Y1217500D01*
Y1242500D01*
Y1244986D01*
X231903Y1249581D01*
X235419Y1253097D01*
X240013Y1255000D01*
X379986D01*
X384581Y1253097D01*
D02*
G37*
G36*
X2124581Y1173097D02*
X2128097Y1169581D01*
X2130000Y1164986D01*
Y1162500D01*
Y1137500D01*
Y1135013D01*
X2128097Y1130419D01*
X2124581Y1126903D01*
X2119986Y1125000D01*
X1980013D01*
X1975419Y1126903D01*
X1971903Y1130419D01*
X1970000Y1135013D01*
Y1137500D01*
Y1162500D01*
Y1164986D01*
X1971903Y1169581D01*
X1975419Y1173097D01*
X1980013Y1175000D01*
X2119986D01*
X2124581Y1173097D01*
D02*
G37*
G36*
X1718581D02*
X1722097Y1169581D01*
X1724000Y1164986D01*
Y1162500D01*
Y1137500D01*
Y1135013D01*
X1722097Y1130419D01*
X1718581Y1126903D01*
X1713986Y1125000D01*
X1574013D01*
X1569419Y1126903D01*
X1565903Y1130419D01*
X1564000Y1135013D01*
Y1137500D01*
Y1162500D01*
Y1164986D01*
X1565903Y1169581D01*
X1569419Y1173097D01*
X1574013Y1175000D01*
X1713986D01*
X1718581Y1173097D01*
D02*
G37*
G36*
X384581D02*
X388097Y1169581D01*
X390000Y1164986D01*
Y1162500D01*
Y1137500D01*
Y1135013D01*
X388097Y1130419D01*
X384581Y1126903D01*
X379986Y1125000D01*
X240013D01*
X235419Y1126903D01*
X231903Y1130419D01*
X230000Y1135013D01*
Y1137500D01*
Y1162500D01*
Y1164986D01*
X231903Y1169581D01*
X235419Y1173097D01*
X240013Y1175000D01*
X379986D01*
X384581Y1173097D01*
D02*
G37*
G36*
X2124581Y1093097D02*
X2128097Y1089581D01*
X2130000Y1084986D01*
Y1082500D01*
Y1057500D01*
Y1055014D01*
X2128097Y1050419D01*
X2124581Y1046903D01*
X2119986Y1045000D01*
X1980013D01*
X1975419Y1046903D01*
X1971903Y1050419D01*
X1970000Y1055014D01*
Y1057500D01*
Y1082500D01*
Y1084986D01*
X1971903Y1089581D01*
X1975419Y1093097D01*
X1980013Y1095000D01*
X2119986D01*
X2124581Y1093097D01*
D02*
G37*
G36*
X1718581D02*
X1722097Y1089581D01*
X1724000Y1084986D01*
Y1082500D01*
Y1057500D01*
Y1055014D01*
X1722097Y1050419D01*
X1718581Y1046903D01*
X1713986Y1045000D01*
X1574013D01*
X1569419Y1046903D01*
X1565903Y1050419D01*
X1564000Y1055014D01*
Y1057500D01*
Y1082500D01*
Y1084986D01*
X1565903Y1089581D01*
X1569419Y1093097D01*
X1574013Y1095000D01*
X1713986D01*
X1718581Y1093097D01*
D02*
G37*
G36*
X384581D02*
X388097Y1089581D01*
X390000Y1084986D01*
Y1082500D01*
Y1057500D01*
Y1055014D01*
X388097Y1050419D01*
X384581Y1046903D01*
X379986Y1045000D01*
X240013D01*
X235419Y1046903D01*
X231903Y1050419D01*
X230000Y1055014D01*
Y1057500D01*
Y1082500D01*
Y1084986D01*
X231903Y1089581D01*
X235419Y1093097D01*
X240013Y1095000D01*
X379986D01*
X384581Y1093097D01*
D02*
G37*
G36*
X2124581Y1013097D02*
X2128097Y1009581D01*
X2130000Y1004986D01*
Y1002500D01*
Y977500D01*
Y975014D01*
X2128097Y970419D01*
X2124581Y966903D01*
X2119986Y965000D01*
X1980013D01*
X1975419Y966903D01*
X1971903Y970419D01*
X1970000Y975014D01*
Y977500D01*
Y1002500D01*
Y1004986D01*
X1971903Y1009581D01*
X1975419Y1013097D01*
X1980013Y1015000D01*
X2119986D01*
X2124581Y1013097D01*
D02*
G37*
G36*
X1718581D02*
X1722097Y1009581D01*
X1724000Y1004986D01*
Y1002500D01*
Y977500D01*
Y975014D01*
X1722097Y970419D01*
X1718581Y966903D01*
X1713986Y965000D01*
X1574013D01*
X1569419Y966903D01*
X1565903Y970419D01*
X1564000Y975014D01*
Y977500D01*
Y1002500D01*
Y1004986D01*
X1565903Y1009581D01*
X1569419Y1013097D01*
X1574013Y1015000D01*
X1713986D01*
X1718581Y1013097D01*
D02*
G37*
G36*
X384581D02*
X388097Y1009581D01*
X390000Y1004986D01*
Y1002500D01*
Y977500D01*
Y975014D01*
X388097Y970419D01*
X384581Y966903D01*
X379986Y965000D01*
X240013D01*
X235419Y966903D01*
X231903Y970419D01*
X230000Y975014D01*
Y977500D01*
Y1002500D01*
Y1004986D01*
X231903Y1009581D01*
X235419Y1013097D01*
X240013Y1015000D01*
X379986D01*
X384581Y1013097D01*
D02*
G37*
G36*
X2124581Y933097D02*
X2128097Y929581D01*
X2130000Y924986D01*
Y922500D01*
Y897500D01*
Y895013D01*
X2128097Y890419D01*
X2124581Y886903D01*
X2119986Y885000D01*
X1980013D01*
X1975419Y886903D01*
X1971903Y890419D01*
X1970000Y895013D01*
Y897500D01*
Y922500D01*
Y924986D01*
X1971903Y929581D01*
X1975419Y933097D01*
X1980013Y935000D01*
X2119986D01*
X2124581Y933097D01*
D02*
G37*
G36*
X1718581D02*
X1722097Y929581D01*
X1724000Y924986D01*
Y922500D01*
Y897500D01*
Y895013D01*
X1722097Y890419D01*
X1718581Y886903D01*
X1713986Y885000D01*
X1574013D01*
X1569419Y886903D01*
X1565903Y890419D01*
X1564000Y895013D01*
Y897500D01*
Y922500D01*
Y924986D01*
X1565903Y929581D01*
X1569419Y933097D01*
X1574013Y935000D01*
X1713986D01*
X1718581Y933097D01*
D02*
G37*
G36*
X384581D02*
X388097Y929581D01*
X390000Y924986D01*
Y922500D01*
Y897500D01*
Y895013D01*
X388097Y890419D01*
X384581Y886903D01*
X379986Y885000D01*
X240013D01*
X235419Y886903D01*
X231903Y890419D01*
X230000Y895013D01*
Y897500D01*
Y922500D01*
Y924986D01*
X231903Y929581D01*
X235419Y933097D01*
X240013Y935000D01*
X379986D01*
X384581Y933097D01*
D02*
G37*
G36*
X2124581Y853097D02*
X2128097Y849581D01*
X2130000Y844986D01*
Y842500D01*
Y817500D01*
Y815014D01*
X2128097Y810419D01*
X2124581Y806903D01*
X2119986Y805000D01*
X1980013D01*
X1975419Y806903D01*
X1971903Y810419D01*
X1970000Y815014D01*
Y817500D01*
Y842500D01*
Y844986D01*
X1971903Y849581D01*
X1975419Y853097D01*
X1980013Y855000D01*
X2119986D01*
X2124581Y853097D01*
D02*
G37*
G36*
X1718581D02*
X1722097Y849581D01*
X1724000Y844986D01*
Y842500D01*
Y817500D01*
Y815014D01*
X1722097Y810419D01*
X1718581Y806903D01*
X1713986Y805000D01*
X1574013D01*
X1569419Y806903D01*
X1565903Y810419D01*
X1564000Y815014D01*
Y817500D01*
Y842500D01*
Y844986D01*
X1565903Y849581D01*
X1569419Y853097D01*
X1574013Y855000D01*
X1713986D01*
X1718581Y853097D01*
D02*
G37*
G36*
X384581D02*
X388097Y849581D01*
X390000Y844986D01*
Y842500D01*
Y817500D01*
Y815014D01*
X388097Y810419D01*
X384581Y806903D01*
X379986Y805000D01*
X240013D01*
X235419Y806903D01*
X231903Y810419D01*
X230000Y815014D01*
Y817500D01*
Y842500D01*
Y844986D01*
X231903Y849581D01*
X235419Y853097D01*
X240013Y855000D01*
X379986D01*
X384581Y853097D01*
D02*
G37*
G36*
X2124581Y773097D02*
X2128097Y769581D01*
X2130000Y764987D01*
Y762500D01*
Y737500D01*
Y735014D01*
X2128097Y730419D01*
X2124581Y726903D01*
X2119986Y725000D01*
X1980013D01*
X1975419Y726903D01*
X1971903Y730419D01*
X1970000Y735014D01*
Y737500D01*
Y762500D01*
Y764987D01*
X1971903Y769581D01*
X1975419Y773097D01*
X1980013Y775000D01*
X2119986D01*
X2124581Y773097D01*
D02*
G37*
G36*
X1718581D02*
X1722097Y769581D01*
X1724000Y764987D01*
Y762500D01*
Y737500D01*
Y735014D01*
X1722097Y730419D01*
X1718581Y726903D01*
X1713986Y725000D01*
X1574013D01*
X1569419Y726903D01*
X1565903Y730419D01*
X1564000Y735014D01*
Y737500D01*
Y762500D01*
Y764987D01*
X1565903Y769581D01*
X1569419Y773097D01*
X1574013Y775000D01*
X1713986D01*
X1718581Y773097D01*
D02*
G37*
G36*
X384581D02*
X388097Y769581D01*
X390000Y764987D01*
Y762500D01*
Y737500D01*
Y735014D01*
X388097Y730419D01*
X384581Y726903D01*
X379986Y725000D01*
X240013D01*
X235419Y726903D01*
X231903Y730419D01*
X230000Y735014D01*
Y737500D01*
Y762500D01*
Y764987D01*
X231903Y769581D01*
X235419Y773097D01*
X240013Y775000D01*
X379986D01*
X384581Y773097D01*
D02*
G37*
G36*
X2124581Y693097D02*
X2128097Y689581D01*
X2130000Y684986D01*
Y682500D01*
Y657500D01*
Y655013D01*
X2128097Y650419D01*
X2124581Y646903D01*
X2119986Y645000D01*
X1980013D01*
X1975419Y646903D01*
X1971903Y650419D01*
X1970000Y655013D01*
Y657500D01*
Y682500D01*
Y684986D01*
X1971903Y689581D01*
X1975419Y693097D01*
X1980013Y695000D01*
X2119986D01*
X2124581Y693097D01*
D02*
G37*
G36*
X1718581D02*
X1722097Y689581D01*
X1724000Y684986D01*
Y682500D01*
Y657500D01*
Y655013D01*
X1722097Y650419D01*
X1718581Y646903D01*
X1713986Y645000D01*
X1574013D01*
X1569419Y646903D01*
X1565903Y650419D01*
X1564000Y655013D01*
Y657500D01*
Y682500D01*
Y684986D01*
X1565903Y689581D01*
X1569419Y693097D01*
X1574013Y695000D01*
X1713986D01*
X1718581Y693097D01*
D02*
G37*
G36*
X384581D02*
X388097Y689581D01*
X390000Y684986D01*
Y682500D01*
Y657500D01*
Y655013D01*
X388097Y650419D01*
X384581Y646903D01*
X379986Y645000D01*
X240013D01*
X235419Y646903D01*
X231903Y650419D01*
X230000Y655013D01*
Y657500D01*
Y682500D01*
Y684986D01*
X231903Y689581D01*
X235419Y693097D01*
X240013Y695000D01*
X379986D01*
X384581Y693097D01*
D02*
G37*
G36*
X2124581Y613097D02*
X2128097Y609581D01*
X2130000Y604986D01*
Y602500D01*
Y577500D01*
Y575014D01*
X2128097Y570419D01*
X2124581Y566903D01*
X2119986Y565000D01*
X1980013D01*
X1975419Y566903D01*
X1971903Y570419D01*
X1970000Y575014D01*
Y577500D01*
Y602500D01*
Y604986D01*
X1971903Y609581D01*
X1975419Y613097D01*
X1980013Y615000D01*
X2119986D01*
X2124581Y613097D01*
D02*
G37*
G36*
X1718581D02*
X1722097Y609581D01*
X1724000Y604986D01*
Y602500D01*
Y577500D01*
Y575014D01*
X1722097Y570419D01*
X1718581Y566903D01*
X1713986Y565000D01*
X1574013D01*
X1569419Y566903D01*
X1565903Y570419D01*
X1564000Y575014D01*
Y577500D01*
Y602500D01*
Y604986D01*
X1565903Y609581D01*
X1569419Y613097D01*
X1574013Y615000D01*
X1713986D01*
X1718581Y613097D01*
D02*
G37*
G36*
X384581D02*
X388097Y609581D01*
X390000Y604986D01*
Y602500D01*
Y577500D01*
Y575014D01*
X388097Y570419D01*
X384581Y566903D01*
X379986Y565000D01*
X240013D01*
X235419Y566903D01*
X231903Y570419D01*
X230000Y575014D01*
Y577500D01*
Y602500D01*
Y604986D01*
X231903Y609581D01*
X235419Y613097D01*
X240013Y615000D01*
X379986D01*
X384581Y613097D01*
D02*
G37*
%TF.MD5,768ae8be9e6a03c08142a61673da8fb2*%
M02*
