%TF.GenerationSoftware,Altium Limited,Altium Designer,25.5.2 (35)*%
G04 Layer_Color=65535*
%FSLAX45Y45*%
%MOMM*%
%TF.SameCoordinates,263EE719-961F-4448-A72E-CF07F5483F46*%
%TF.FilePolarity,Positive*%
%TF.FileFunction,Legend,Top*%
%TF.Part,Single*%
G01*
G75*
%TA.AperFunction,NonConductor*%
%ADD19C,0.20000*%
%ADD20C,0.15000*%
G36*
X881795Y901838D02*
X838206Y865514D01*
Y938162D01*
X881795Y901838D01*
D02*
G37*
G36*
Y1661838D02*
X838206Y1625514D01*
Y1698162D01*
X881795Y1661838D01*
D02*
G37*
G36*
X482853Y2111789D02*
X560000Y2176080D01*
Y2047500D01*
X482853Y2111789D01*
D02*
G37*
D19*
X1400000Y1760000D02*
Y1805000D01*
X855000Y1812000D02*
X1440000D01*
X895000Y1760000D02*
Y1805000D01*
X855000Y1249000D02*
X1440000D01*
X1400000Y1260000D02*
Y1305000D01*
X895000Y1260000D02*
Y1305000D01*
X1400000Y1000000D02*
Y1045000D01*
X855000Y1052000D02*
X1440000D01*
X895000Y1000000D02*
Y1045000D01*
X855000Y489000D02*
X1440000D01*
X1400000Y500000D02*
Y545000D01*
X895000Y500000D02*
Y545000D01*
X590000Y520000D02*
Y2180000D01*
X1480000Y1467968D02*
X1513322D01*
X1496661D01*
Y1368000D01*
X1480000D01*
X1513322D01*
X1613290Y1467968D02*
X1579968D01*
X1563306Y1451306D01*
Y1384661D01*
X1579968Y1368000D01*
X1613290D01*
X1629951Y1384661D01*
Y1451306D01*
X1613290Y1467968D01*
X1060000Y1868000D02*
Y1967968D01*
X1109984D01*
X1126645Y1951306D01*
Y1917984D01*
X1109984Y1901323D01*
X1060000D01*
X1226613Y1951306D02*
X1209952Y1967968D01*
X1176629D01*
X1159968Y1951306D01*
Y1884661D01*
X1176629Y1868000D01*
X1209952D01*
X1226613Y1884661D01*
Y1917984D01*
X1193290D01*
X1259936Y1868000D02*
Y1967968D01*
X1293258Y1934645D01*
X1326581Y1967968D01*
Y1868000D01*
X1359904D02*
X1393226D01*
X1376565D01*
Y1967968D01*
X1359904Y1951306D01*
X1546645Y1701306D02*
X1529984Y1717968D01*
X1496661D01*
X1480000Y1701306D01*
Y1634661D01*
X1496661Y1618000D01*
X1529984D01*
X1546645Y1634661D01*
X1579968Y1717968D02*
Y1618000D01*
X1646613D01*
X1679935Y1717968D02*
Y1618000D01*
Y1651323D01*
X1746580Y1717968D01*
X1696597Y1667984D01*
X1746580Y1618000D01*
X1546645Y939306D02*
X1529984Y955968D01*
X1496661D01*
X1480000Y939306D01*
Y872661D01*
X1496661Y856000D01*
X1529984D01*
X1546645Y872661D01*
X1579968Y955968D02*
Y856000D01*
X1646613D01*
X1679935Y955968D02*
Y856000D01*
Y889323D01*
X1746580Y955968D01*
X1696597Y905984D01*
X1746580Y856000D01*
X1480000Y705968D02*
X1513322D01*
X1496661D01*
Y606000D01*
X1480000D01*
X1513322D01*
X1613290Y705968D02*
X1579968D01*
X1563306Y689306D01*
Y622661D01*
X1579968Y606000D01*
X1613290D01*
X1629951Y622661D01*
Y689306D01*
X1613290Y705968D01*
X1060000Y330000D02*
Y429968D01*
X1109984D01*
X1126645Y413306D01*
Y379984D01*
X1109984Y363322D01*
X1060000D01*
X1226613Y413306D02*
X1209952Y429968D01*
X1176629D01*
X1159968Y413306D01*
Y346661D01*
X1176629Y330000D01*
X1209952D01*
X1226613Y346661D01*
Y379984D01*
X1193290D01*
X1259936Y330000D02*
Y429968D01*
X1293258Y396645D01*
X1326581Y429968D01*
Y330000D01*
X1426549D02*
X1359904D01*
X1426549Y396645D01*
Y413306D01*
X1409887Y429968D01*
X1376565D01*
X1359904Y413306D01*
X2209968Y1960000D02*
X2110000D01*
Y1893355D01*
Y1843371D02*
Y1810048D01*
X2126661Y1793387D01*
X2159984D01*
X2176645Y1810048D01*
Y1843371D01*
X2159984Y1860032D01*
X2126661D01*
X2110000Y1843371D01*
X2176645Y1760065D02*
X2126661D01*
X2110000Y1743403D01*
X2126661Y1726742D01*
X2110000Y1710081D01*
X2126661Y1693420D01*
X2176645D01*
X2110000Y1660097D02*
X2209968D01*
Y1610113D01*
X2193306Y1593452D01*
X2159984D01*
X2143322Y1610113D01*
Y1660097D01*
X2110000Y1543468D02*
Y1510145D01*
X2126661Y1493484D01*
X2159984D01*
X2176645Y1510145D01*
Y1543468D01*
X2159984Y1560129D01*
X2126661D01*
X2110000Y1543468D01*
X2176645Y1460161D02*
X2126661D01*
X2110000Y1443500D01*
X2126661Y1426839D01*
X2110000Y1410177D01*
X2126661Y1393516D01*
X2176645D01*
X2110000Y1310209D02*
Y1343532D01*
X2126661Y1360193D01*
X2159984D01*
X2176645Y1343532D01*
Y1310209D01*
X2159984Y1293548D01*
X2143322D01*
Y1360193D01*
X2176645Y1260226D02*
X2110000D01*
X2143322D01*
X2159984Y1243564D01*
X2176645Y1226903D01*
Y1210242D01*
Y1060290D02*
X2110000Y1026967D01*
X2176645Y993645D01*
X2110000Y960322D02*
Y927000D01*
Y943661D01*
X2209968D01*
X2193306Y960322D01*
X2110000Y877016D02*
X2126661D01*
Y860354D01*
X2110000D01*
Y877016D01*
X2193306Y793709D02*
X2209968Y777048D01*
Y743725D01*
X2193306Y727064D01*
X2126661D01*
X2110000Y743725D01*
Y777048D01*
X2126661Y793709D01*
X2193306D01*
X713306Y1543355D02*
X729968Y1560016D01*
Y1593338D01*
X713306Y1610000D01*
X646661D01*
X630000Y1593338D01*
Y1560016D01*
X646661Y1543355D01*
X630000Y1510032D02*
X696645D01*
X729968Y1476709D01*
X696645Y1443387D01*
X630000D01*
X679984D01*
Y1510032D01*
X630000Y1410064D02*
X729968D01*
Y1360080D01*
X713306Y1343419D01*
X679984D01*
X663323Y1360080D01*
Y1410064D01*
X729968Y1243451D02*
Y1310096D01*
X630000D01*
Y1243451D01*
X679984Y1310096D02*
Y1276774D01*
D20*
X551644Y690001D02*
X564973Y676672D01*
Y650014D01*
X551644Y636685D01*
X538315D01*
X524986Y650014D01*
Y663343D01*
Y650014D01*
X511657Y636685D01*
X498328D01*
X484999Y650014D01*
Y676672D01*
X498328Y690001D01*
Y610027D02*
X484999Y596698D01*
Y570040D01*
X498328Y556711D01*
X551644D01*
X564973Y570040D01*
Y596698D01*
X551644Y610027D01*
X538315D01*
X524986Y596698D01*
Y556711D01*
X484999Y2035001D02*
Y2008343D01*
Y2021672D01*
X564973D01*
X551644Y2035001D01*
X728316Y2364974D02*
X675000D01*
Y2324987D01*
X701658D01*
X675000D01*
Y2285000D01*
X754974D02*
Y2364974D01*
X794961D01*
X808290Y2351645D01*
Y2324987D01*
X794961Y2311658D01*
X754974D01*
X781632D02*
X808290Y2285000D01*
X874935Y2364974D02*
X848277D01*
X834948Y2351645D01*
Y2298329D01*
X848277Y2285000D01*
X874935D01*
X888264Y2298329D01*
Y2351645D01*
X874935Y2364974D01*
X914922Y2285000D02*
Y2364974D01*
X968238Y2285000D01*
Y2364974D01*
X994896D02*
X1048213D01*
X1021554D01*
Y2285000D01*
%TF.MD5,131799c8c4afd5af3c85a4113d77811b*%
M02*
