%TF.GenerationSoftware,Altium Limited,Altium Designer,25.5.2 (35)*%
G04 Layer_Color=255*
%FSLAX45Y45*%
%MOMM*%
%TF.SameCoordinates,263EE719-961F-4448-A72E-CF07F5483F46*%
%TF.FilePolarity,Positive*%
%TF.FileFunction,Pads,Bot*%
%TF.Part,Single*%
G01*
G75*
%TA.AperFunction,SMDPad,CuDef*%
G04:AMPARAMS|DCode=10|XSize=3.2mm|YSize=0.5mm|CornerRadius=0.125mm|HoleSize=0mm|Usage=FLASHONLY|Rotation=0.000|XOffset=0mm|YOffset=0mm|HoleType=Round|Shape=RoundedRectangle|*
%AMROUNDEDRECTD10*
21,1,3.20000,0.25000,0,0,0.0*
21,1,2.95000,0.50000,0,0,0.0*
1,1,0.25000,1.47500,-0.12500*
1,1,0.25000,-1.47500,-0.12500*
1,1,0.25000,-1.47500,0.12500*
1,1,0.25000,1.47500,0.12500*
%
%ADD10ROUNDEDRECTD10*%
%TA.AperFunction,ComponentPad*%
G04:AMPARAMS|DCode=14|XSize=1.7mm|YSize=2.1mm|CornerRadius=0.425mm|HoleSize=0mm|Usage=FLASHONLY|Rotation=270.000|XOffset=0mm|YOffset=0mm|HoleType=Round|Shape=RoundedRectangle|*
%AMROUNDEDRECTD14*
21,1,1.70000,1.25001,0,0,270.0*
21,1,0.85000,2.10000,0,0,270.0*
1,1,0.85000,-0.62500,-0.42500*
1,1,0.85000,-0.62500,0.42500*
1,1,0.85000,0.62500,0.42500*
1,1,0.85000,0.62500,-0.42500*
%
%ADD14ROUNDEDRECTD14*%
G04:AMPARAMS|DCode=15|XSize=1.7mm|YSize=2.1mm|CornerRadius=0mm|HoleSize=0mm|Usage=FLASHONLY|Rotation=270.000|XOffset=0mm|YOffset=0mm|HoleType=Round|Shape=Octagon|*
%AMOCTAGOND15*
4,1,8,1.05000,0.42500,1.05000,-0.42500,0.62500,-0.85000,-0.62500,-0.85000,-1.05000,-0.42500,-1.05000,0.42500,-0.62500,0.85000,0.62500,0.85000,1.05000,0.42500,0.0*
%
%ADD15OCTAGOND15*%

G04:AMPARAMS|DCode=16|XSize=1.55mm|YSize=1.6mm|CornerRadius=0.3875mm|HoleSize=0mm|Usage=FLASHONLY|Rotation=270.000|XOffset=0mm|YOffset=0mm|HoleType=Round|Shape=RoundedRectangle|*
%AMROUNDEDRECTD16*
21,1,1.55000,0.82500,0,0,270.0*
21,1,0.77500,1.60000,0,0,270.0*
1,1,0.77500,-0.41250,-0.38750*
1,1,0.77500,-0.41250,0.38750*
1,1,0.77500,0.41250,0.38750*
1,1,0.77500,0.41250,-0.38750*
%
%ADD16ROUNDEDRECTD16*%
%TA.AperFunction,SMDPad,CuDef*%
G04:AMPARAMS|DCode=18|XSize=2.2mm|YSize=0.5mm|CornerRadius=0.125mm|HoleSize=0mm|Usage=FLASHONLY|Rotation=180.000|XOffset=0mm|YOffset=0mm|HoleType=Round|Shape=RoundedRectangle|*
%AMROUNDEDRECTD18*
21,1,2.20000,0.25000,0,0,180.0*
21,1,1.95000,0.50000,0,0,180.0*
1,1,0.25000,-0.97500,0.12500*
1,1,0.25000,0.97500,0.12500*
1,1,0.25000,0.97500,-0.12500*
1,1,0.25000,-0.97500,-0.12500*
%
%ADD18ROUNDEDRECTD18*%
D10*
X300000Y750000D02*
D03*
Y830000D02*
D03*
Y2110000D02*
D03*
Y1870000D02*
D03*
Y1950000D02*
D03*
Y2030000D02*
D03*
Y1710000D02*
D03*
Y1790000D02*
D03*
Y1630000D02*
D03*
Y1550000D02*
D03*
Y1470000D02*
D03*
Y1390000D02*
D03*
Y1310000D02*
D03*
Y1230000D02*
D03*
Y1150000D02*
D03*
Y1070000D02*
D03*
Y990000D02*
D03*
Y910000D02*
D03*
Y670000D02*
D03*
Y590000D02*
D03*
D14*
X1000000Y1406000D02*
D03*
X1294000D02*
D03*
Y1660000D02*
D03*
X1000000Y646000D02*
D03*
X1294000D02*
D03*
Y900000D02*
D03*
D15*
X1000000Y1660000D02*
D03*
Y900000D02*
D03*
D16*
X1847000Y440000D02*
D03*
X1997000Y2260000D02*
D03*
D18*
X2050000Y750000D02*
D03*
Y830000D02*
D03*
X1644000D02*
D03*
Y750000D02*
D03*
X2050000Y2110000D02*
D03*
X1644000D02*
D03*
X2050000Y2030000D02*
D03*
Y1950000D02*
D03*
Y1870000D02*
D03*
Y1790000D02*
D03*
Y1710000D02*
D03*
Y1630000D02*
D03*
Y1550000D02*
D03*
Y1470000D02*
D03*
Y1390000D02*
D03*
Y1310000D02*
D03*
Y1230000D02*
D03*
Y1150000D02*
D03*
Y1070000D02*
D03*
Y990000D02*
D03*
Y910000D02*
D03*
Y670000D02*
D03*
Y590000D02*
D03*
X1644000Y2030000D02*
D03*
Y1950000D02*
D03*
Y1870000D02*
D03*
Y1790000D02*
D03*
Y1710000D02*
D03*
Y1630000D02*
D03*
Y1550000D02*
D03*
Y1470000D02*
D03*
Y1390000D02*
D03*
Y1310000D02*
D03*
Y1230000D02*
D03*
Y1150000D02*
D03*
Y1070000D02*
D03*
Y990000D02*
D03*
Y910000D02*
D03*
Y670000D02*
D03*
Y590000D02*
D03*
%TF.MD5,ae4cbcb7800c9a9a744ec73968806b1a*%
M02*
