%TF.GenerationSoftware,Altium Limited,Altium Designer,25.5.2 (35)*%
G04 Layer_Physical_Order=2*
G04 Layer_Color=16711680*
%FSLAX45Y45*%
%MOMM*%
%TF.SameCoordinates,263EE719-961F-4448-A72E-CF07F5483F46*%
%TF.FilePolarity,Positive*%
%TF.FileFunction,Copper,L2,Bot,Signal*%
%TF.Part,Single*%
G01*
G75*
%TA.AperFunction,SMDPad,CuDef*%
G04:AMPARAMS|DCode=10|XSize=3.2mm|YSize=0.5mm|CornerRadius=0.125mm|HoleSize=0mm|Usage=FLASHONLY|Rotation=0.000|XOffset=0mm|YOffset=0mm|HoleType=Round|Shape=RoundedRectangle|*
%AMROUNDEDRECTD10*
21,1,3.20000,0.25000,0,0,0.0*
21,1,2.95000,0.50000,0,0,0.0*
1,1,0.25000,1.47500,-0.12500*
1,1,0.25000,-1.47500,-0.12500*
1,1,0.25000,-1.47500,0.12500*
1,1,0.25000,1.47500,0.12500*
%
%ADD10ROUNDEDRECTD10*%
%TA.AperFunction,Conductor*%
%ADD11C,0.30000*%
%ADD12C,0.40000*%
%ADD13C,0.35000*%
%TA.AperFunction,ComponentPad*%
G04:AMPARAMS|DCode=14|XSize=1.7mm|YSize=2.1mm|CornerRadius=0.425mm|HoleSize=0mm|Usage=FLASHONLY|Rotation=270.000|XOffset=0mm|YOffset=0mm|HoleType=Round|Shape=RoundedRectangle|*
%AMROUNDEDRECTD14*
21,1,1.70000,1.25001,0,0,270.0*
21,1,0.85000,2.10000,0,0,270.0*
1,1,0.85000,-0.62500,-0.42500*
1,1,0.85000,-0.62500,0.42500*
1,1,0.85000,0.62500,0.42500*
1,1,0.85000,0.62500,-0.42500*
%
%ADD14ROUNDEDRECTD14*%
G04:AMPARAMS|DCode=15|XSize=1.7mm|YSize=2.1mm|CornerRadius=0mm|HoleSize=0mm|Usage=FLASHONLY|Rotation=270.000|XOffset=0mm|YOffset=0mm|HoleType=Round|Shape=Octagon|*
%AMOCTAGOND15*
4,1,8,1.05000,0.42500,1.05000,-0.42500,0.62500,-0.85000,-0.62500,-0.85000,-1.05000,-0.42500,-1.05000,0.42500,-0.62500,0.85000,0.62500,0.85000,1.05000,0.42500,0.0*
%
%ADD15OCTAGOND15*%

G04:AMPARAMS|DCode=16|XSize=1.55mm|YSize=1.6mm|CornerRadius=0.3875mm|HoleSize=0mm|Usage=FLASHONLY|Rotation=270.000|XOffset=0mm|YOffset=0mm|HoleType=Round|Shape=RoundedRectangle|*
%AMROUNDEDRECTD16*
21,1,1.55000,0.82500,0,0,270.0*
21,1,0.77500,1.60000,0,0,270.0*
1,1,0.77500,-0.41250,-0.38750*
1,1,0.77500,-0.41250,0.38750*
1,1,0.77500,0.41250,0.38750*
1,1,0.77500,0.41250,-0.38750*
%
%ADD16ROUNDEDRECTD16*%
%TA.AperFunction,ViaPad*%
%ADD17C,0.50800*%
%TA.AperFunction,SMDPad,CuDef*%
G04:AMPARAMS|DCode=18|XSize=2.2mm|YSize=0.5mm|CornerRadius=0.125mm|HoleSize=0mm|Usage=FLASHONLY|Rotation=180.000|XOffset=0mm|YOffset=0mm|HoleType=Round|Shape=RoundedRectangle|*
%AMROUNDEDRECTD18*
21,1,2.20000,0.25000,0,0,180.0*
21,1,1.95000,0.50000,0,0,180.0*
1,1,0.25000,-0.97500,0.12500*
1,1,0.25000,0.97500,0.12500*
1,1,0.25000,0.97500,-0.12500*
1,1,0.25000,-0.97500,-0.12500*
%
%ADD18ROUNDEDRECTD18*%
G36*
X2276054Y303944D02*
X700000D01*
Y304025D01*
X678579Y308285D01*
X660420Y320419D01*
X648285Y338579D01*
X644025Y360000D01*
X643944D01*
X643943Y360006D01*
Y479999D01*
X640598Y496816D01*
X631072Y511072D01*
X616816Y520598D01*
X599999Y523943D01*
X100005D01*
X100000Y523944D01*
Y524025D01*
X78579Y528285D01*
X60419Y540420D01*
X48285Y558579D01*
X44025Y580000D01*
X43944D01*
Y2120000D01*
X44025D01*
X48285Y2141421D01*
X60419Y2159580D01*
X78579Y2171714D01*
X100000Y2175975D01*
Y2176056D01*
X100004Y2176056D01*
X599999D01*
X616816Y2179402D01*
X631072Y2188927D01*
X640598Y2203184D01*
X643943Y2220001D01*
Y2339981D01*
X643947Y2340000D01*
X644027D01*
X648288Y2361421D01*
X660422Y2379580D01*
X678582Y2391715D01*
X700003Y2395975D01*
Y2396056D01*
X2276057D01*
X2276054Y303944D01*
D02*
G37*
%LPC*%
G36*
X2038250Y2364157D02*
X2009700D01*
Y2272700D01*
X2103657D01*
Y2298750D01*
X2098678Y2323780D01*
X2084500Y2345000D01*
X2063280Y2359178D01*
X2038250Y2364157D01*
D02*
G37*
G36*
X1984300D02*
X1955750D01*
X1930720Y2359178D01*
X1909501Y2345000D01*
X1895322Y2323780D01*
X1890343Y2298750D01*
Y2272700D01*
X1984300D01*
Y2364157D01*
D02*
G37*
G36*
X2103657Y2247300D02*
X1997000D01*
X1890343D01*
Y2221250D01*
X1895322Y2196220D01*
X1909501Y2175000D01*
X1922178Y2166530D01*
X1918032Y2151259D01*
X1883282Y2149210D01*
X1871064Y2149148D01*
X1868890Y2148234D01*
X1825110D01*
X1822936Y2149148D01*
X1810409Y2149211D01*
X1779736Y2150157D01*
X1765606Y2151355D01*
X1760903Y2152022D01*
X1757716Y2152669D01*
X1756716Y2152971D01*
X1755791Y2153424D01*
X1755058Y2153470D01*
X1755023Y2153481D01*
X1754973Y2153476D01*
X1751144Y2153718D01*
X1750650Y2153817D01*
X1746259Y2155636D01*
X1744717Y2154997D01*
X1741500Y2155637D01*
X1546500D01*
X1543283Y2154997D01*
X1541741Y2155636D01*
X1537350Y2153817D01*
X1536642Y2153676D01*
X1532831Y2153405D01*
X1532790Y2153408D01*
X1532763Y2153400D01*
X1532059Y2153350D01*
X1531140Y2152890D01*
X1530249Y2152610D01*
X1528249Y2152183D01*
X1492010Y2149895D01*
X1487714Y2152766D01*
X1470000Y2156290D01*
X1452286Y2152766D01*
X1437268Y2142732D01*
X1427234Y2127714D01*
X1423711Y2110000D01*
X1427234Y2092286D01*
X1437268Y2077268D01*
X1452286Y2067234D01*
X1470000Y2063711D01*
X1487714Y2067234D01*
X1492489Y2070424D01*
X1501340Y2070131D01*
X1507558Y2061688D01*
X1510276Y2055472D01*
X1510294Y2054751D01*
X1507897Y2042700D01*
X1746259D01*
Y2053988D01*
X1748182Y2053230D01*
X1751564Y2052552D01*
X1756406Y2051954D01*
X1770467Y2050997D01*
X1778479Y2050865D01*
X1777889Y2053828D01*
X1785827Y2069323D01*
X1810718Y2070791D01*
X1822936Y2070853D01*
X1825110Y2071766D01*
X1868890D01*
X1871064Y2070853D01*
X1883591Y2070789D01*
X1907291Y2070058D01*
X1913957Y2061105D01*
X1915949Y2057039D01*
X1916268Y2054619D01*
X1915845Y2052489D01*
X1947741Y2053988D01*
Y2042700D01*
X2050000D01*
X2186103D01*
X2183201Y2057288D01*
X2174824Y2069824D01*
X2178114Y2084819D01*
X2180637Y2097500D01*
Y2122500D01*
X2178114Y2135181D01*
X2170931Y2145931D01*
X2160181Y2153114D01*
X2147500Y2155637D01*
X2082519D01*
X2077969Y2170637D01*
X2084500Y2175000D01*
X2098678Y2196220D01*
X2103657Y2221250D01*
Y2247300D01*
D02*
G37*
G36*
X640000Y2156290D02*
X622286Y2152766D01*
X617216Y2149379D01*
X595954Y2149147D01*
X593818Y2148234D01*
X531109D01*
X528936Y2149148D01*
X516409Y2149211D01*
X485736Y2150157D01*
X471606Y2151355D01*
X466903Y2152022D01*
X463716Y2152669D01*
X462716Y2152971D01*
X461791Y2153424D01*
X461058Y2153470D01*
X461023Y2153481D01*
X460973Y2153476D01*
X457144Y2153718D01*
X456650Y2153817D01*
X452258Y2155636D01*
X450716Y2154997D01*
X447500Y2155637D01*
X152500D01*
X139819Y2153114D01*
X129069Y2145931D01*
X121886Y2135181D01*
X119363Y2122500D01*
Y2097500D01*
X121886Y2084820D01*
X125176Y2069824D01*
X116799Y2057288D01*
X113897Y2042700D01*
X452258D01*
Y2053988D01*
X454088Y2053295D01*
X457393Y2052674D01*
X462172Y2052127D01*
X484458Y2050970D01*
X483889Y2053828D01*
X491827Y2069323D01*
X516718Y2070791D01*
X528936Y2070853D01*
X531109Y2071766D01*
X593873D01*
X596032Y2070853D01*
X617100Y2070699D01*
X622286Y2067234D01*
X640000Y2063711D01*
X657714Y2067234D01*
X672732Y2077268D01*
X682766Y2092286D01*
X686289Y2110000D01*
X682766Y2127714D01*
X672732Y2142732D01*
X657714Y2152766D01*
X640000Y2156290D01*
D02*
G37*
G36*
X2186103Y2017300D02*
X2050000D01*
X1947741D01*
Y2006012D01*
X1945818Y2006770D01*
X1942436Y2007448D01*
X1937594Y2008046D01*
X1923533Y2009003D01*
X1915521Y2009135D01*
X1916799Y2002712D01*
X1925175Y1990176D01*
X1921886Y1975181D01*
X1919363Y1962500D01*
Y1937500D01*
X1921886Y1924819D01*
X1929069Y1914069D01*
Y1905931D01*
X1921886Y1895181D01*
X1919363Y1882500D01*
Y1857500D01*
X1921886Y1844820D01*
X1925175Y1829824D01*
X1916799Y1817288D01*
X1915845Y1812490D01*
X1947741Y1813988D01*
Y1802700D01*
X2050000D01*
X2186103D01*
X2183201Y1817288D01*
X2174824Y1829824D01*
X2178114Y1844819D01*
X2180637Y1857500D01*
Y1882500D01*
X2178114Y1895181D01*
X2170931Y1905931D01*
Y1914069D01*
X2178114Y1924819D01*
X2180637Y1937500D01*
Y1962500D01*
X2178114Y1975181D01*
X2174824Y1990176D01*
X2183201Y2002712D01*
X2186103Y2017300D01*
D02*
G37*
G36*
X1746259D02*
X1507897D01*
X1510799Y2002712D01*
X1519176Y1990176D01*
X1515886Y1975181D01*
X1513363Y1962500D01*
Y1937500D01*
X1515886Y1924819D01*
X1523069Y1914069D01*
Y1905931D01*
X1515886Y1895181D01*
X1513363Y1882500D01*
Y1857500D01*
X1515886Y1844820D01*
X1519176Y1829824D01*
X1510799Y1817288D01*
X1507897Y1802700D01*
X1746259D01*
Y1813988D01*
X1748182Y1813230D01*
X1751564Y1812552D01*
X1756406Y1811954D01*
X1770467Y1810997D01*
X1778479Y1810866D01*
X1777201Y1817288D01*
X1768825Y1829824D01*
X1772114Y1844819D01*
X1774637Y1857500D01*
Y1882500D01*
X1772114Y1895181D01*
X1764931Y1905931D01*
Y1914069D01*
X1772114Y1924819D01*
X1774637Y1937500D01*
Y1962500D01*
X1772114Y1975181D01*
X1768825Y1990176D01*
X1777201Y2002712D01*
X1778155Y2007511D01*
X1746259Y2006012D01*
Y2017300D01*
D02*
G37*
G36*
X452258D02*
X113897D01*
X116799Y2002712D01*
X125176Y1990176D01*
X121886Y1975181D01*
X119363Y1962500D01*
Y1937500D01*
X121886Y1924819D01*
X124495Y1920915D01*
X127827Y1910000D01*
X124495Y1899085D01*
X121886Y1895181D01*
X119363Y1882500D01*
Y1857500D01*
X121886Y1844820D01*
X125176Y1829824D01*
X116799Y1817288D01*
X113897Y1802700D01*
X452258D01*
Y1813988D01*
X453734Y1813230D01*
X455775Y1812552D01*
X458381Y1811954D01*
X461551Y1811436D01*
X469585Y1810638D01*
X479879Y1810160D01*
X484631Y1810099D01*
X483201Y1817288D01*
X474824Y1829824D01*
X478114Y1844819D01*
X480637Y1857500D01*
Y1882500D01*
X478114Y1895181D01*
X475505Y1899085D01*
X472173Y1910000D01*
X475505Y1920915D01*
X478114Y1924819D01*
X480637Y1937500D01*
Y1962500D01*
X478114Y1975181D01*
X474824Y1990176D01*
X483201Y2002712D01*
X484180Y2007635D01*
X452258Y2006012D01*
Y2017300D01*
D02*
G37*
G36*
X2186103Y1777300D02*
X2050000D01*
X1947741D01*
Y1766012D01*
X1945818Y1766770D01*
X1942436Y1767448D01*
X1937594Y1768046D01*
X1923533Y1769003D01*
X1915521Y1769135D01*
X1916799Y1762712D01*
X1925175Y1750176D01*
X1921886Y1735181D01*
X1919363Y1722500D01*
Y1697500D01*
X1921886Y1684819D01*
X1929069Y1674069D01*
Y1665931D01*
X1921886Y1655181D01*
X1919363Y1642500D01*
Y1617500D01*
X1921886Y1604819D01*
X1925175Y1589824D01*
X1916799Y1577288D01*
X1915845Y1572490D01*
X1947741Y1573988D01*
Y1562700D01*
X2050000D01*
X2186103D01*
X2183201Y1577288D01*
X2174824Y1589824D01*
X2178114Y1604819D01*
X2180637Y1617500D01*
Y1642500D01*
X2178114Y1655181D01*
X2170931Y1665931D01*
Y1674069D01*
X2178114Y1684819D01*
X2180637Y1697500D01*
Y1722500D01*
X2178114Y1735181D01*
X2174824Y1750176D01*
X2183201Y1762712D01*
X2186103Y1777300D01*
D02*
G37*
G36*
X1746259D02*
X1507897D01*
X1510799Y1762712D01*
X1519176Y1750176D01*
X1515886Y1735181D01*
X1513363Y1722500D01*
Y1697500D01*
X1515886Y1684819D01*
X1518495Y1680915D01*
X1521827Y1670000D01*
X1518495Y1659085D01*
X1515886Y1655181D01*
X1513363Y1642500D01*
Y1617500D01*
X1515886Y1604819D01*
X1519176Y1589824D01*
X1510799Y1577288D01*
X1507897Y1562700D01*
X1746259D01*
Y1573988D01*
X1748182Y1573230D01*
X1751564Y1572552D01*
X1756406Y1571954D01*
X1770467Y1570997D01*
X1778479Y1570866D01*
X1777201Y1577288D01*
X1768825Y1589824D01*
X1772114Y1604819D01*
X1774637Y1617500D01*
Y1642500D01*
X1772114Y1655181D01*
X1769505Y1659085D01*
X1766174Y1670000D01*
X1769505Y1680915D01*
X1772114Y1684819D01*
X1774637Y1697500D01*
Y1722500D01*
X1772114Y1735181D01*
X1768825Y1750176D01*
X1777201Y1762712D01*
X1778155Y1767511D01*
X1746259Y1766012D01*
Y1777300D01*
D02*
G37*
G36*
X452258D02*
X113897D01*
X116799Y1762712D01*
X125176Y1750176D01*
X121886Y1735181D01*
X119363Y1722500D01*
Y1697500D01*
X121886Y1684819D01*
X124495Y1680915D01*
X127827Y1670000D01*
X124495Y1659085D01*
X121886Y1655181D01*
X119363Y1642500D01*
Y1617500D01*
X121886Y1604819D01*
X125176Y1589824D01*
X116799Y1577288D01*
X113897Y1562700D01*
X452258D01*
Y1573988D01*
X453810Y1573230D01*
X456078Y1572552D01*
X459062Y1571954D01*
X462762Y1571436D01*
X472310Y1570638D01*
X484598Y1570265D01*
X483201Y1577288D01*
X474824Y1589824D01*
X478114Y1604819D01*
X480637Y1617500D01*
Y1642500D01*
X478114Y1655181D01*
X475505Y1659085D01*
X472173Y1670000D01*
X475505Y1680915D01*
X478114Y1684819D01*
X480637Y1697500D01*
Y1722500D01*
X478114Y1735181D01*
X474824Y1750176D01*
X483201Y1762712D01*
X484625Y1769874D01*
X458381Y1768046D01*
X455775Y1767448D01*
X453734Y1766770D01*
X452258Y1766012D01*
Y1777300D01*
D02*
G37*
G36*
X1072500Y1765000D02*
X927500D01*
X875000Y1712500D01*
Y1607500D01*
X927500Y1555000D01*
X1072500D01*
X1125000Y1607500D01*
Y1712500D01*
X1072500Y1765000D01*
D02*
G37*
G36*
X1356500Y1766224D02*
X1231500D01*
X1207113Y1761374D01*
X1186440Y1747560D01*
X1172626Y1726886D01*
X1167775Y1702500D01*
Y1617500D01*
X1172626Y1593114D01*
X1186440Y1572440D01*
X1207113Y1558626D01*
X1231500Y1553776D01*
X1356500D01*
X1380886Y1558626D01*
X1401560Y1572440D01*
X1415374Y1593114D01*
X1420224Y1617500D01*
Y1702500D01*
X1415374Y1726886D01*
X1401560Y1747560D01*
X1380886Y1761374D01*
X1356500Y1766224D01*
D02*
G37*
G36*
X2186103Y1537300D02*
X2050000D01*
X1947741D01*
Y1526012D01*
X1945818Y1526770D01*
X1942436Y1527448D01*
X1937594Y1528046D01*
X1923533Y1529003D01*
X1915521Y1529135D01*
X1916799Y1522712D01*
X1925175Y1510176D01*
X1921886Y1495181D01*
X1919363Y1482500D01*
Y1457500D01*
X1921886Y1444819D01*
X1929069Y1434069D01*
Y1425931D01*
X1921886Y1415181D01*
X1919363Y1402500D01*
Y1377500D01*
X1921886Y1364819D01*
X1929069Y1354069D01*
Y1345931D01*
X1921886Y1335181D01*
X1919363Y1322500D01*
Y1297500D01*
X1921886Y1284819D01*
X1929069Y1274069D01*
Y1265931D01*
X1921886Y1255181D01*
X1919363Y1242500D01*
Y1217500D01*
X1921886Y1204820D01*
X1925175Y1189824D01*
X1916799Y1177288D01*
X1915845Y1172489D01*
X1947741Y1173988D01*
Y1162700D01*
X2050000D01*
X2186103D01*
X2183201Y1177288D01*
X2174824Y1189824D01*
X2178114Y1204819D01*
X2180637Y1217500D01*
Y1242500D01*
X2178114Y1255181D01*
X2170931Y1265931D01*
Y1274069D01*
X2178114Y1284819D01*
X2180637Y1297500D01*
Y1322500D01*
X2178114Y1335181D01*
X2170931Y1345931D01*
Y1354069D01*
X2178114Y1364819D01*
X2180637Y1377500D01*
Y1402500D01*
X2178114Y1415181D01*
X2170931Y1425931D01*
Y1434069D01*
X2178114Y1444819D01*
X2180637Y1457500D01*
Y1482500D01*
X2178114Y1495181D01*
X2174824Y1510176D01*
X2183201Y1522712D01*
X2186103Y1537300D01*
D02*
G37*
G36*
X1356500Y1512224D02*
X1231500D01*
X1207113Y1507374D01*
X1186440Y1493560D01*
X1172626Y1472886D01*
X1167775Y1448500D01*
Y1363500D01*
X1172626Y1339114D01*
X1186440Y1318440D01*
X1207113Y1304626D01*
X1231500Y1299776D01*
X1356500D01*
X1380886Y1304626D01*
X1401560Y1318440D01*
X1415374Y1339114D01*
X1420224Y1363500D01*
Y1448500D01*
X1415374Y1472886D01*
X1401560Y1493560D01*
X1380886Y1507374D01*
X1356500Y1512224D01*
D02*
G37*
G36*
X1062500D02*
X937500D01*
X913113Y1507374D01*
X892440Y1493560D01*
X878626Y1472886D01*
X873775Y1448500D01*
Y1363500D01*
X878626Y1339114D01*
X892440Y1318440D01*
X913113Y1304626D01*
X937500Y1299776D01*
X1062500D01*
X1086887Y1304626D01*
X1107560Y1318440D01*
X1121374Y1339114D01*
X1126225Y1363500D01*
Y1448500D01*
X1121374Y1472886D01*
X1107560Y1493560D01*
X1086887Y1507374D01*
X1062500Y1512224D01*
D02*
G37*
G36*
X1746259Y1537300D02*
X1507897D01*
X1510799Y1522712D01*
X1519176Y1510176D01*
X1515886Y1495181D01*
X1513363Y1482500D01*
Y1457500D01*
X1515886Y1444819D01*
X1518495Y1440915D01*
X1521827Y1430000D01*
X1518495Y1419085D01*
X1515886Y1415181D01*
X1513363Y1402500D01*
Y1377500D01*
X1515886Y1364819D01*
X1523069Y1354069D01*
Y1345931D01*
X1515886Y1335181D01*
X1513363Y1322500D01*
Y1297500D01*
X1515886Y1284819D01*
X1523069Y1274069D01*
Y1265931D01*
X1515886Y1255181D01*
X1513363Y1242500D01*
Y1217500D01*
X1515886Y1204820D01*
X1519176Y1189824D01*
X1510799Y1177288D01*
X1507897Y1162700D01*
X1746259D01*
Y1173988D01*
X1748182Y1173230D01*
X1751564Y1172552D01*
X1756406Y1171954D01*
X1770467Y1170997D01*
X1778479Y1170865D01*
X1777201Y1177288D01*
X1768825Y1189824D01*
X1772114Y1204819D01*
X1774637Y1217500D01*
Y1242500D01*
X1772114Y1255181D01*
X1764931Y1265931D01*
Y1274069D01*
X1772114Y1284819D01*
X1774637Y1297500D01*
Y1322500D01*
X1772114Y1335181D01*
X1764931Y1345931D01*
Y1354069D01*
X1772114Y1364819D01*
X1774637Y1377500D01*
Y1402500D01*
X1772114Y1415181D01*
X1769505Y1419085D01*
X1766174Y1430000D01*
X1769505Y1440915D01*
X1772114Y1444819D01*
X1774637Y1457500D01*
Y1482500D01*
X1772114Y1495181D01*
X1768825Y1510176D01*
X1777201Y1522712D01*
X1778155Y1527511D01*
X1746259Y1526012D01*
Y1537300D01*
D02*
G37*
G36*
X452258D02*
X113897D01*
X116799Y1522712D01*
X125176Y1510176D01*
X121886Y1495181D01*
X119363Y1482500D01*
Y1457500D01*
X121886Y1444819D01*
X124495Y1440915D01*
X127827Y1430000D01*
X124495Y1419085D01*
X121886Y1415181D01*
X119363Y1402500D01*
Y1377500D01*
X121886Y1364819D01*
X129069Y1354069D01*
Y1345931D01*
X121886Y1335181D01*
X119363Y1322500D01*
Y1297500D01*
X121886Y1284819D01*
X124495Y1280915D01*
X127827Y1270000D01*
X124495Y1259085D01*
X121886Y1255181D01*
X119363Y1242500D01*
Y1217500D01*
X121886Y1204820D01*
X125176Y1189824D01*
X116799Y1177288D01*
X113897Y1162700D01*
X452258D01*
Y1173988D01*
X453810Y1173230D01*
X456078Y1172552D01*
X459062Y1171954D01*
X462762Y1171436D01*
X472310Y1170638D01*
X484598Y1170265D01*
X483201Y1177288D01*
X474824Y1189824D01*
X478114Y1204819D01*
X480637Y1217500D01*
Y1242500D01*
X478114Y1255181D01*
X475505Y1259085D01*
X472173Y1270000D01*
X475505Y1280915D01*
X478114Y1284819D01*
X480637Y1297500D01*
Y1322500D01*
X478114Y1335181D01*
X470931Y1345931D01*
Y1354069D01*
X478114Y1364819D01*
X480637Y1377500D01*
Y1402500D01*
X478114Y1415181D01*
X475505Y1419085D01*
X472173Y1430000D01*
X475505Y1440915D01*
X478114Y1444819D01*
X480637Y1457500D01*
Y1482500D01*
X478114Y1495181D01*
X474824Y1510176D01*
X483201Y1522712D01*
X484556Y1529527D01*
X459062Y1528046D01*
X456078Y1527448D01*
X453810Y1526770D01*
X452258Y1526012D01*
Y1537300D01*
D02*
G37*
G36*
X2186103Y1137300D02*
X2050000D01*
X1947741D01*
Y1126012D01*
X1945818Y1126770D01*
X1942436Y1127448D01*
X1937594Y1128046D01*
X1923533Y1129003D01*
X1915521Y1129135D01*
X1916799Y1122712D01*
X1925175Y1110176D01*
X1921886Y1095181D01*
X1919363Y1082500D01*
Y1057500D01*
X1921886Y1044819D01*
X1924494Y1040915D01*
X1927826Y1030000D01*
X1924494Y1019085D01*
X1921886Y1015181D01*
X1919363Y1002500D01*
Y977500D01*
X1921886Y964820D01*
X1925175Y949824D01*
X1916799Y937288D01*
X1915845Y932489D01*
X1947741Y933988D01*
Y922700D01*
X2050000D01*
X2186103D01*
X2183201Y937288D01*
X2174824Y949824D01*
X2178114Y964819D01*
X2180637Y977500D01*
Y1002500D01*
X2178114Y1015181D01*
X2170931Y1025931D01*
Y1034069D01*
X2178114Y1044819D01*
X2180637Y1057500D01*
Y1082500D01*
X2178114Y1095181D01*
X2174824Y1110176D01*
X2183201Y1122712D01*
X2186103Y1137300D01*
D02*
G37*
G36*
X1746259D02*
X1507897D01*
X1510799Y1122712D01*
X1519176Y1110176D01*
X1515886Y1095181D01*
X1513363Y1082500D01*
Y1057500D01*
X1515886Y1044819D01*
X1523069Y1034069D01*
Y1025931D01*
X1515886Y1015181D01*
X1513363Y1002500D01*
Y977500D01*
X1515886Y964820D01*
X1519176Y949824D01*
X1510799Y937288D01*
X1507897Y922700D01*
X1746259D01*
Y933988D01*
X1748182Y933230D01*
X1751564Y932552D01*
X1756406Y931954D01*
X1770467Y930997D01*
X1778479Y930865D01*
X1777201Y937288D01*
X1768825Y949824D01*
X1772114Y964819D01*
X1774637Y977500D01*
Y1002500D01*
X1772114Y1015181D01*
X1764931Y1025931D01*
Y1034069D01*
X1772114Y1044819D01*
X1774637Y1057500D01*
Y1082500D01*
X1772114Y1095181D01*
X1768825Y1110176D01*
X1777201Y1122712D01*
X1778155Y1127511D01*
X1746259Y1126012D01*
Y1137300D01*
D02*
G37*
G36*
X452258D02*
X113897D01*
X116799Y1122712D01*
X125176Y1110176D01*
X121886Y1095181D01*
X119363Y1082500D01*
Y1057500D01*
X121886Y1044819D01*
X124495Y1040915D01*
X127827Y1030000D01*
X124495Y1019085D01*
X121886Y1015181D01*
X119363Y1002500D01*
Y977500D01*
X121886Y964820D01*
X125176Y949824D01*
X116799Y937288D01*
X113897Y922700D01*
X452258D01*
Y933988D01*
X453810Y933230D01*
X456078Y932552D01*
X459062Y931954D01*
X462762Y931436D01*
X472310Y930638D01*
X484598Y930265D01*
X483201Y937288D01*
X474824Y949824D01*
X478114Y964819D01*
X480637Y977500D01*
Y1002500D01*
X478114Y1015181D01*
X475505Y1019085D01*
X472173Y1030000D01*
X475505Y1040915D01*
X478114Y1044819D01*
X480637Y1057500D01*
Y1082500D01*
X478114Y1095181D01*
X474824Y1110176D01*
X483201Y1122712D01*
X484556Y1129527D01*
X459062Y1128046D01*
X456078Y1127448D01*
X453810Y1126770D01*
X452258Y1126012D01*
Y1137300D01*
D02*
G37*
G36*
X2186103Y897300D02*
X2050000D01*
X1947741D01*
Y886012D01*
X1945818Y886770D01*
X1942436Y887448D01*
X1937594Y888046D01*
X1923533Y889003D01*
X1915017Y889143D01*
X1914961Y888804D01*
X1906319Y875547D01*
X1904415Y874246D01*
X1895139Y872401D01*
X1880122Y862367D01*
X1870087Y847349D01*
X1866564Y829635D01*
X1870087Y811921D01*
X1871653Y809578D01*
X1865876Y791224D01*
X1857412Y785568D01*
X1847378Y770551D01*
X1843855Y752836D01*
X1847378Y735122D01*
X1857412Y720105D01*
X1872430Y710070D01*
X1890144Y706547D01*
X1907214Y709942D01*
X1909228Y708465D01*
X1915801Y700764D01*
X1916657Y698812D01*
X1916797Y697308D01*
X1916763Y697105D01*
X1915845Y692489D01*
X1947741Y693988D01*
Y682700D01*
X2050000D01*
X2186103D01*
X2183201Y697288D01*
X2174824Y709824D01*
X2178114Y724819D01*
X2180637Y737500D01*
Y762500D01*
X2178114Y775181D01*
X2170931Y785931D01*
Y794069D01*
X2178114Y804819D01*
X2180637Y817500D01*
Y842500D01*
X2178114Y855181D01*
X2174824Y870176D01*
X2183201Y882712D01*
X2186103Y897300D01*
D02*
G37*
G36*
X1072500Y1005000D02*
X927500D01*
X875000Y952500D01*
Y883989D01*
X874920Y883892D01*
X875000Y883044D01*
Y882080D01*
X874634Y881642D01*
X874360Y880768D01*
X874156Y880417D01*
X874108Y880059D01*
X873832Y879452D01*
X872847Y877730D01*
X871227Y875302D01*
X869208Y872609D01*
X863120Y865686D01*
X521890D01*
X519625Y866647D01*
X509612Y866734D01*
X492280Y867416D01*
X491097Y867530D01*
X483268Y882583D01*
X483326Y883341D01*
X484556Y889527D01*
X459062Y888046D01*
X456078Y887448D01*
X453810Y886770D01*
X452258Y886012D01*
Y897300D01*
X113897D01*
X116799Y882712D01*
X125176Y870176D01*
X121886Y855181D01*
X119363Y842500D01*
Y817500D01*
X121886Y804819D01*
X129069Y794069D01*
Y785931D01*
X121886Y775181D01*
X119363Y762500D01*
Y737500D01*
X121886Y724820D01*
X125176Y709824D01*
X116799Y697288D01*
X113897Y682700D01*
X452258D01*
Y693988D01*
X454182Y693230D01*
X457564Y692552D01*
X462406Y691954D01*
X476467Y690997D01*
X484478Y690865D01*
X483354Y696519D01*
X483313Y697492D01*
X491365Y712069D01*
X509887Y713269D01*
X519625Y713353D01*
X521890Y714315D01*
X862980D01*
X866013Y710429D01*
X868703Y706501D01*
X870771Y702958D01*
X872258Y699844D01*
X873224Y697196D01*
X873756Y695031D01*
X873962Y693316D01*
X873922Y690434D01*
X874081Y690035D01*
X873775Y688500D01*
Y603500D01*
X878626Y579114D01*
X892440Y558440D01*
X913113Y544626D01*
X937500Y539776D01*
X1062500D01*
X1086887Y544626D01*
X1107560Y558440D01*
X1121374Y579114D01*
X1126225Y603500D01*
Y688500D01*
X1121374Y712886D01*
X1107560Y733560D01*
X1086887Y747374D01*
X1062500Y752224D01*
X944725D01*
X941821Y752442D01*
X939327Y752926D01*
X936422Y753817D01*
X933095Y755195D01*
X929367Y757120D01*
X925278Y759629D01*
X921079Y762595D01*
X910951Y771081D01*
X905605Y776217D01*
X901162Y777954D01*
X895078Y782020D01*
X894322Y790000D01*
X895078Y797981D01*
X901252Y802106D01*
X905706Y803881D01*
X909451Y807526D01*
X912389Y810111D01*
X927500Y795000D01*
X1072500D01*
X1125000Y847500D01*
Y952500D01*
X1072500Y1005000D01*
D02*
G37*
G36*
X1356500Y1006224D02*
X1231500D01*
X1207113Y1001374D01*
X1186440Y987560D01*
X1172626Y966886D01*
X1167775Y942500D01*
Y857500D01*
X1172626Y833114D01*
X1186440Y812440D01*
X1207113Y798626D01*
X1231500Y793776D01*
X1356500D01*
X1359209Y794314D01*
X1364428D01*
X1364535Y794269D01*
X1370055Y794208D01*
X1374531Y779158D01*
X1368657Y775234D01*
X1351083Y757660D01*
X1347451Y752224D01*
X1231500D01*
X1207113Y747374D01*
X1186440Y733560D01*
X1172626Y712886D01*
X1167775Y688500D01*
Y603500D01*
X1172626Y579114D01*
X1186440Y558440D01*
X1207113Y544626D01*
X1231500Y539776D01*
X1356500D01*
X1380886Y544626D01*
X1401560Y558440D01*
X1415374Y579114D01*
X1420224Y603500D01*
Y688500D01*
X1418073Y699314D01*
X1430384Y714315D01*
X1472110D01*
X1474375Y713353D01*
X1484388Y713266D01*
X1501720Y712584D01*
X1502904Y712471D01*
X1510732Y697417D01*
X1510674Y696660D01*
X1507897Y682700D01*
X1746259D01*
Y693988D01*
X1748170Y693230D01*
X1751518Y692552D01*
X1756302Y691954D01*
X1770178Y690997D01*
X1778480Y690858D01*
X1777201Y697288D01*
X1768825Y709824D01*
X1772114Y724819D01*
X1774637Y737500D01*
Y762500D01*
X1772114Y775181D01*
X1764931Y785931D01*
Y794069D01*
X1772114Y804819D01*
X1774637Y817500D01*
Y842500D01*
X1772114Y855181D01*
X1768825Y870176D01*
X1777201Y882712D01*
X1778155Y887511D01*
X1746259Y886012D01*
Y897300D01*
X1507897D01*
X1510646Y883481D01*
X1510686Y882508D01*
X1502635Y867931D01*
X1484113Y866732D01*
X1474375Y866647D01*
X1472110Y865686D01*
X1462797D01*
X1462565Y865867D01*
X1461103Y865686D01*
X1459528D01*
X1457392Y866640D01*
X1447081Y866921D01*
X1438773Y867680D01*
X1431997Y868848D01*
X1426835Y870284D01*
X1423337Y871761D01*
X1421419Y872968D01*
X1420710Y873643D01*
X1420579Y873844D01*
X1420473Y874146D01*
X1420224Y876368D01*
Y942500D01*
X1415374Y966886D01*
X1401560Y987560D01*
X1380886Y1001374D01*
X1356500Y1006224D01*
D02*
G37*
G36*
X2186103Y657300D02*
X2050000D01*
X1947741D01*
Y646012D01*
X1945818Y646770D01*
X1942436Y647448D01*
X1937594Y648046D01*
X1923533Y649003D01*
X1915521Y649135D01*
X1916646Y643481D01*
X1916686Y642508D01*
X1908635Y627931D01*
X1890113Y626732D01*
X1880375Y626647D01*
X1878110Y625686D01*
X1815890D01*
X1813625Y626647D01*
X1803612Y626734D01*
X1786280Y627416D01*
X1785097Y627530D01*
X1777268Y642583D01*
X1777326Y643341D01*
X1778160Y647531D01*
X1746259Y646012D01*
Y657300D01*
X1507897D01*
X1509236Y650571D01*
X1500393Y635313D01*
X1498569Y634016D01*
X1492286Y632766D01*
X1477268Y622732D01*
X1467234Y607714D01*
X1463711Y590000D01*
X1467234Y572286D01*
X1477268Y557268D01*
X1492286Y547234D01*
X1510000Y543711D01*
X1527714Y547234D01*
X1530506Y549099D01*
X1533819Y546886D01*
X1546500Y544363D01*
X1741500D01*
X1744717Y545003D01*
X1746259Y544364D01*
X1750650Y546184D01*
X1752911Y546633D01*
X1756722Y547061D01*
X1757901Y547712D01*
X1759062Y547993D01*
X1765209Y546854D01*
X1768472Y530995D01*
X1759500Y525000D01*
X1745322Y503780D01*
X1740343Y478750D01*
Y452700D01*
X1847000D01*
X1953656D01*
Y478750D01*
X1948678Y503780D01*
X1934499Y525000D01*
X1924566Y531637D01*
X1928268Y547204D01*
X1935427Y548083D01*
X1937278Y547061D01*
X1941089Y546633D01*
X1943350Y546184D01*
X1947741Y544364D01*
X1949283Y545003D01*
X1952500Y544363D01*
X2147500D01*
X2160181Y546886D01*
X2170931Y554069D01*
X2178114Y564819D01*
X2180637Y577500D01*
Y602500D01*
X2178114Y615181D01*
X2174824Y630176D01*
X2183201Y642712D01*
X2186103Y657300D01*
D02*
G37*
G36*
X452258D02*
X113897D01*
X116799Y642712D01*
X125176Y630176D01*
X121886Y615181D01*
X119363Y602500D01*
Y577500D01*
X121886Y564819D01*
X129069Y554069D01*
X139819Y546886D01*
X152500Y544363D01*
X447500D01*
X450716Y545003D01*
X452258Y544364D01*
X456650Y546184D01*
X458911Y546633D01*
X462721Y547061D01*
X464573Y548083D01*
X466198Y548720D01*
X469186Y549576D01*
X473386Y550467D01*
X478157Y551214D01*
X509887Y553268D01*
X519625Y553353D01*
X521890Y554314D01*
X591597D01*
X593838Y553354D01*
X602603Y553247D01*
X608987Y552957D01*
X613198Y552535D01*
X613746Y552441D01*
X614605Y552225D01*
X614778Y552251D01*
X622286Y547234D01*
X640000Y543711D01*
X657714Y547234D01*
X672732Y557268D01*
X682766Y572286D01*
X686289Y590000D01*
X682766Y607714D01*
X672732Y622732D01*
X657714Y632766D01*
X640000Y636290D01*
X622286Y632766D01*
X614903Y627833D01*
X598077Y626671D01*
X593977Y626648D01*
X591692Y625686D01*
X521890D01*
X519625Y626647D01*
X509612Y626734D01*
X492280Y627416D01*
X491097Y627530D01*
X483268Y642583D01*
X483326Y643341D01*
X484155Y647511D01*
X452258Y646012D01*
Y657300D01*
D02*
G37*
G36*
X1953656Y427300D02*
X1859700D01*
Y335843D01*
X1888250D01*
X1913280Y340822D01*
X1934499Y355001D01*
X1948678Y376220D01*
X1953656Y401250D01*
Y427300D01*
D02*
G37*
G36*
X1834300D02*
X1740343D01*
Y401250D01*
X1745322Y376220D01*
X1759500Y355001D01*
X1780720Y340822D01*
X1805750Y335843D01*
X1834300D01*
Y427300D01*
D02*
G37*
%LPD*%
G36*
X1947741Y2086012D02*
X1945228Y2087245D01*
X1941572Y2088348D01*
X1936772Y2089321D01*
X1930830Y2090164D01*
X1915517Y2091462D01*
X1883974Y2092435D01*
X1871174Y2092500D01*
Y2127500D01*
X1883974Y2127565D01*
X1936772Y2130679D01*
X1941572Y2131652D01*
X1945228Y2132755D01*
X1947741Y2133988D01*
Y2086012D01*
D02*
G37*
G36*
X1748772Y2132755D02*
X1752428Y2131652D01*
X1757228Y2130679D01*
X1763170Y2129836D01*
X1778483Y2128538D01*
X1810026Y2127565D01*
X1822826Y2127500D01*
Y2092500D01*
X1810026Y2092435D01*
X1757228Y2089321D01*
X1752428Y2088348D01*
X1748772Y2087245D01*
X1746259Y2086012D01*
Y2133988D01*
X1748772Y2132755D01*
D02*
G37*
G36*
X1541741Y2086012D02*
X1539276Y2087245D01*
X1535765Y2088348D01*
X1531207Y2089321D01*
X1525602Y2090164D01*
X1511254Y2091462D01*
X1488318Y2092222D01*
X1488139Y2092220D01*
Y2092228D01*
X1481883Y2092435D01*
X1470000Y2092500D01*
Y2127500D01*
X1481883Y2127565D01*
X1531207Y2130679D01*
X1535765Y2131652D01*
X1539276Y2132755D01*
X1541741Y2133988D01*
Y2086012D01*
D02*
G37*
G36*
X621861Y2092220D02*
X621555Y2092273D01*
X620746Y2092321D01*
X596190Y2092500D01*
Y2127500D01*
X621861Y2127780D01*
Y2092220D01*
D02*
G37*
G36*
X454772Y2132755D02*
X458428Y2131652D01*
X463227Y2130679D01*
X469170Y2129836D01*
X484483Y2128538D01*
X516026Y2127565D01*
X528826Y2127500D01*
Y2092500D01*
X516026Y2092435D01*
X463227Y2089321D01*
X458428Y2088348D01*
X454772Y2087245D01*
X452258Y2086012D01*
Y2133988D01*
X454772Y2132755D01*
D02*
G37*
G36*
X1943188Y845377D02*
X1949354Y845107D01*
X1958479Y845000D01*
X1959013Y815000D01*
X1954232Y814971D01*
X1943188Y814325D01*
Y810034D01*
X1942225Y810978D01*
X1940810Y811822D01*
X1938943Y812567D01*
X1936624Y813212D01*
X1934821Y813568D01*
X1933235Y813155D01*
X1932018Y812665D01*
X1931246Y812118D01*
X1931217Y814124D01*
X1930630Y814206D01*
X1922828Y814802D01*
X1913218Y815000D01*
Y845000D01*
X1918249Y845050D01*
X1930759Y846005D01*
X1930735Y847674D01*
X1931498Y847166D01*
X1932708Y846711D01*
X1934292Y846328D01*
X1936624Y846788D01*
X1938943Y847433D01*
X1940810Y848178D01*
X1942225Y849023D01*
X1943188Y849966D01*
Y845377D01*
D02*
G37*
G36*
X1947741Y726013D02*
X1944773Y727720D01*
X1941247Y729248D01*
X1937164Y730596D01*
X1932523Y731765D01*
X1927326Y732753D01*
X1915944Y734110D01*
X1906870Y733495D01*
X1906184Y733142D01*
X1906358Y734688D01*
X1892980Y735000D01*
Y765000D01*
X1900964Y765090D01*
X1909839Y765671D01*
X1910155Y768480D01*
X1910922Y767819D01*
X1912133Y767227D01*
X1913789Y766705D01*
X1915891Y766253D01*
X1916754Y766123D01*
X1921571Y766438D01*
X1927326Y767247D01*
X1937164Y769404D01*
X1941247Y770752D01*
X1944773Y772280D01*
X1947741Y773988D01*
Y726013D01*
D02*
G37*
G36*
X917803Y835585D02*
X916502Y836375D01*
X914885Y836629D01*
X912954Y836349D01*
X910707Y835532D01*
X908145Y834181D01*
X905268Y832294D01*
X902075Y829872D01*
X894745Y823422D01*
X890607Y819394D01*
X869393Y840607D01*
X874320Y845640D01*
X886025Y858951D01*
X888903Y862792D01*
X891269Y866334D01*
X893122Y869578D01*
X894463Y872525D01*
X895293Y875173D01*
X895610Y877523D01*
X917803Y835585D01*
D02*
G37*
G36*
X455351Y852280D02*
X459250Y850752D01*
X463954Y849404D01*
X469463Y848236D01*
X475778Y847247D01*
X490825Y845809D01*
X509094Y845090D01*
X519437Y845000D01*
Y815000D01*
X509094Y814910D01*
X475778Y812753D01*
X469463Y811764D01*
X463954Y810596D01*
X459250Y809248D01*
X455351Y807720D01*
X452258Y806012D01*
Y853988D01*
X455351Y852280D01*
D02*
G37*
G36*
Y772280D02*
X459250Y770752D01*
X463954Y769404D01*
X469463Y768236D01*
X475778Y767247D01*
X490825Y765809D01*
X509094Y765090D01*
X519437Y765000D01*
Y735000D01*
X509094Y734910D01*
X475778Y732753D01*
X469463Y731765D01*
X463954Y730596D01*
X459250Y729248D01*
X455351Y727720D01*
X452258Y726013D01*
Y773988D01*
X455351Y772280D01*
D02*
G37*
G36*
X896485Y754959D02*
X907860Y745429D01*
X913357Y741545D01*
X918728Y738250D01*
X923971Y735543D01*
X929088Y733423D01*
X934077Y731892D01*
X938940Y730950D01*
X943675Y730594D01*
X895568Y690132D01*
X895628Y694458D01*
X895094Y698917D01*
X893964Y703510D01*
X892239Y708236D01*
X889919Y713096D01*
X887005Y718088D01*
X883495Y723215D01*
X879389Y728474D01*
X874689Y733867D01*
X869393Y739394D01*
X890607Y760607D01*
X896485Y754959D01*
D02*
G37*
G36*
X1399232Y869300D02*
X1401021Y864200D01*
X1403961Y859700D01*
X1408054Y855800D01*
X1413299Y852500D01*
X1419696Y849800D01*
X1427244Y847700D01*
X1435945Y846200D01*
X1445797Y845300D01*
X1456802Y845000D01*
X1448517Y815000D01*
X1364772Y815915D01*
X1398595Y875000D01*
X1399232Y869300D01*
D02*
G37*
G36*
X1541741Y806012D02*
X1538648Y807720D01*
X1534750Y809248D01*
X1530046Y810596D01*
X1524537Y811764D01*
X1518222Y812753D01*
X1503175Y814191D01*
X1484906Y814910D01*
X1474563Y815000D01*
Y845000D01*
X1484906Y845090D01*
X1518222Y847247D01*
X1524537Y848236D01*
X1530046Y849404D01*
X1534750Y850752D01*
X1538648Y852280D01*
X1541741Y853988D01*
Y806012D01*
D02*
G37*
G36*
Y726013D02*
X1538648Y727720D01*
X1534750Y729248D01*
X1530046Y730596D01*
X1524537Y731765D01*
X1518222Y732753D01*
X1503175Y734191D01*
X1484906Y734910D01*
X1474563Y735000D01*
Y765000D01*
X1484906Y765090D01*
X1518222Y767247D01*
X1524537Y768236D01*
X1530046Y769404D01*
X1534750Y770752D01*
X1538648Y772280D01*
X1541741Y773988D01*
Y726013D01*
D02*
G37*
G36*
X1535794Y605810D02*
X1539440Y605445D01*
X1546777Y605111D01*
X1555898Y605000D01*
Y575000D01*
X1551114Y574972D01*
X1535794Y573915D01*
Y572120D01*
X1535124Y572667D01*
X1534029Y573157D01*
X1532510Y573589D01*
X1532131Y573662D01*
X1531782Y573638D01*
X1530122Y573221D01*
X1528907Y572748D01*
X1528139Y572220D01*
Y574285D01*
X1522193Y574741D01*
X1510000Y575000D01*
Y605000D01*
X1514488Y605029D01*
X1528139Y605885D01*
Y607780D01*
X1528907Y607252D01*
X1530122Y606779D01*
X1531782Y606362D01*
X1532033Y606319D01*
X1532510Y606411D01*
X1534029Y606843D01*
X1535124Y607333D01*
X1535794Y607880D01*
Y605810D01*
D02*
G37*
G36*
X1947741Y566012D02*
X1944648Y567720D01*
X1940750Y569248D01*
X1936046Y570596D01*
X1930537Y571764D01*
X1924222Y572753D01*
X1909175Y574191D01*
X1890906Y574910D01*
X1880563Y575000D01*
Y605000D01*
X1890906Y605090D01*
X1924222Y607247D01*
X1930537Y608236D01*
X1936046Y609404D01*
X1940750Y610752D01*
X1944648Y612280D01*
X1947741Y613988D01*
Y566012D01*
D02*
G37*
G36*
X1749352Y612280D02*
X1753250Y610752D01*
X1757954Y609404D01*
X1763463Y608236D01*
X1769778Y607247D01*
X1784825Y605809D01*
X1803094Y605090D01*
X1813437Y605000D01*
Y575000D01*
X1803094Y574910D01*
X1769778Y572753D01*
X1763463Y571764D01*
X1757954Y570596D01*
X1753250Y569248D01*
X1749352Y567720D01*
X1746259Y566012D01*
Y613988D01*
X1749352Y612280D01*
D02*
G37*
G36*
X621861Y572220D02*
X621093Y572748D01*
X619878Y573221D01*
X618218Y573638D01*
X616111Y573999D01*
X610560Y574555D01*
X603223Y574889D01*
X594102Y575000D01*
Y605000D01*
X598886Y605028D01*
X618218Y606362D01*
X619878Y606779D01*
X621093Y607252D01*
X621861Y607780D01*
Y572220D01*
D02*
G37*
G36*
X455351Y612280D02*
X459250Y610752D01*
X463954Y609404D01*
X469463Y608236D01*
X475778Y607247D01*
X490825Y605809D01*
X509094Y605090D01*
X519437Y605000D01*
Y575000D01*
X509094Y574910D01*
X475778Y572753D01*
X469463Y571764D01*
X463954Y570596D01*
X459250Y569248D01*
X455351Y567720D01*
X452258Y566012D01*
Y613988D01*
X455351Y612280D01*
D02*
G37*
D10*
X300000Y750000D02*
D03*
Y830000D02*
D03*
Y2110000D02*
D03*
Y1870000D02*
D03*
Y1950000D02*
D03*
Y2030000D02*
D03*
Y1710000D02*
D03*
Y1790000D02*
D03*
Y1630000D02*
D03*
Y1550000D02*
D03*
Y1470000D02*
D03*
Y1390000D02*
D03*
Y1310000D02*
D03*
Y1230000D02*
D03*
Y1150000D02*
D03*
Y1070000D02*
D03*
Y990000D02*
D03*
Y910000D02*
D03*
Y670000D02*
D03*
Y590000D02*
D03*
D11*
X1510000D02*
X2060000D01*
X1892980Y750000D02*
X2060000D01*
X1890144Y752836D02*
X1892980Y750000D01*
X1913218Y830000D02*
X2060000D01*
X1912853Y829635D02*
X1913218Y830000D01*
X984000Y646000D02*
X1020000D01*
X300000Y750000D02*
X880000D01*
X984000Y646000D01*
X1338883Y830000D02*
X1634000D01*
X1268883Y900000D02*
X1338883Y830000D01*
X1214000Y900000D02*
X1268883D01*
X1299117Y646000D02*
X1376317Y723200D01*
Y732427D02*
X1393891Y750000D01*
X1634000D01*
X1274000Y646000D02*
X1299117D01*
X1376317Y723200D02*
Y732427D01*
X950000Y900000D02*
X960000D01*
X880000Y830000D02*
X950000Y900000D01*
X300000Y830000D02*
X880000D01*
X300000Y590000D02*
X640000D01*
D12*
X619848Y2030339D02*
X620187Y2030679D01*
X300339Y2030339D02*
X619848D01*
X300000Y2030000D02*
X300339Y2030339D01*
X300000Y1550000D02*
X500000D01*
X300000Y1550000D02*
X300000Y1550000D01*
X300000Y910000D02*
X500000D01*
X1634000Y2030000D02*
X2060000D01*
X1634000Y1790000D02*
X2060000D01*
X1634000Y1550000D02*
X2060000D01*
X1634000Y1150000D02*
X2060000D01*
X1634000Y910000D02*
X2060000D01*
X1830000Y670000D02*
X1840000D01*
X1830000D02*
X2060000D01*
X1634000D02*
X1830000D01*
X300000D02*
X640000D01*
X300000Y1150000D02*
X500000D01*
X492432Y1790000D02*
X494668Y1787764D01*
X300000Y1790000D02*
X492432D01*
D13*
X300000Y2110000D02*
X640000D01*
X1470000D02*
X2060000D01*
D14*
X1000000Y1406000D02*
D03*
X1294000D02*
D03*
Y1660000D02*
D03*
X1000000Y646000D02*
D03*
X1294000D02*
D03*
Y900000D02*
D03*
D15*
X1000000Y1660000D02*
D03*
Y900000D02*
D03*
D16*
X1847000Y440000D02*
D03*
X1997000Y2260000D02*
D03*
D17*
X1510000Y590000D02*
D03*
X1890144Y752836D02*
D03*
X1912853Y829635D02*
D03*
X640000Y590000D02*
D03*
X1847000Y910000D02*
D03*
Y1150000D02*
D03*
Y1550000D02*
D03*
Y1790000D02*
D03*
Y2030000D02*
D03*
X1840000Y670000D02*
D03*
X640000D02*
D03*
X500000Y910000D02*
D03*
Y1150000D02*
D03*
Y1550000D02*
D03*
X494668Y1787764D02*
D03*
X620187Y2030679D02*
D03*
X640000Y2110000D02*
D03*
X1470000D02*
D03*
D18*
X2050000Y750000D02*
D03*
Y830000D02*
D03*
X1644000D02*
D03*
Y750000D02*
D03*
X2050000Y2110000D02*
D03*
X1644000D02*
D03*
X2050000Y2030000D02*
D03*
Y1950000D02*
D03*
Y1870000D02*
D03*
Y1790000D02*
D03*
Y1710000D02*
D03*
Y1630000D02*
D03*
Y1550000D02*
D03*
Y1470000D02*
D03*
Y1390000D02*
D03*
Y1310000D02*
D03*
Y1230000D02*
D03*
Y1150000D02*
D03*
Y1070000D02*
D03*
Y990000D02*
D03*
Y910000D02*
D03*
Y670000D02*
D03*
Y590000D02*
D03*
X1644000Y2030000D02*
D03*
Y1950000D02*
D03*
Y1870000D02*
D03*
Y1790000D02*
D03*
Y1710000D02*
D03*
Y1630000D02*
D03*
Y1550000D02*
D03*
Y1470000D02*
D03*
Y1390000D02*
D03*
Y1310000D02*
D03*
Y1230000D02*
D03*
Y1150000D02*
D03*
Y1070000D02*
D03*
Y990000D02*
D03*
Y910000D02*
D03*
Y670000D02*
D03*
Y590000D02*
D03*
%TF.MD5,0ecd8e4784fdd7902fe2049d22e54571*%
M02*
