%TF.GenerationSoftware,Altium Limited,Altium Designer,25.5.2 (35)*%
G04 Layer_Color=0*
%FSLAX45Y45*%
%MOMM*%
%TF.SameCoordinates,263EE719-961F-4448-A72E-CF07F5483F46*%
%TF.FilePolarity,Positive*%
%TF.FileFunction,Plated,1,2,PTH,Drill*%
%TF.Part,Single*%
G01*
G75*
%TA.AperFunction,ComponentDrill*%
%ADD29C,1.10000*%
%ADD30C,1.20000*%
%TA.AperFunction,ViaDrill,NotFilled*%
%ADD31C,0.25400*%
D29*
X1020000Y1406000D02*
D03*
Y1660000D02*
D03*
X1274000Y1406000D02*
D03*
Y1660000D02*
D03*
X1020000Y646000D02*
D03*
Y900000D02*
D03*
X1274000Y646000D02*
D03*
Y900000D02*
D03*
D30*
X1847000Y440000D02*
D03*
X1997000Y2260000D02*
D03*
D31*
X1510000Y590000D02*
D03*
X1890144Y752836D02*
D03*
X1912853Y829635D02*
D03*
X640000Y590000D02*
D03*
X1847000Y910000D02*
D03*
Y1150000D02*
D03*
Y1550000D02*
D03*
Y1790000D02*
D03*
Y2030000D02*
D03*
X1840000Y670000D02*
D03*
X640000D02*
D03*
X500000Y910000D02*
D03*
Y1150000D02*
D03*
Y1550000D02*
D03*
X494668Y1787764D02*
D03*
X620187Y2030679D02*
D03*
X640000Y2110000D02*
D03*
X1470000D02*
D03*
%TF.MD5,0b4d0dbab343ad8b54f4d5260e1344f6*%
M02*
