%TF.GenerationSoftware,Altium Limited,Altium Designer,24.8.2 (39)*%
G04 Layer_Color=32896*
%FSLAX45Y45*%
%MOMM*%
%TF.SameCoordinates,C54AC7BA-B540-4DA4-B2B9-A01D8BF79CE3*%
%TF.FilePolarity,Positive*%
%TF.FileFunction,Legend,Bot*%
%TF.Part,Single*%
G01*
G75*
%TA.AperFunction,NonConductor*%
%ADD20C,0.20000*%
%ADD21C,0.15000*%
G36*
X1950000Y380000D02*
X1917842Y340000D01*
X1982157D01*
X1950000Y380000D01*
D02*
G37*
G36*
Y1140000D02*
X1917842Y1100000D01*
X1982157D01*
X1950000Y1140000D01*
D02*
G37*
G36*
X1307410Y2110002D02*
X1345999Y2077844D01*
Y2142159D01*
X1307410Y2110002D01*
D02*
G37*
G36*
X1950000Y1800000D02*
X1917842Y1760000D01*
X1982157D01*
X1950000Y1800000D01*
D02*
G37*
D20*
X1800001Y900002D02*
X1849998D01*
X1797999Y355000D02*
Y940002D01*
X1800001Y394999D02*
X1849998D01*
X3092998Y355000D02*
Y940002D01*
X3038998Y900002D02*
X3089000D01*
X3038998Y394999D02*
X3089000D01*
X3092998Y355000D02*
Y940002D01*
X1800001Y1660002D02*
X1849998D01*
X1797999Y1114999D02*
Y1700002D01*
X1800001Y1154999D02*
X1849998D01*
X3092998Y1114999D02*
Y1700002D01*
X3038998Y1660002D02*
X3089000D01*
X3038998Y1154999D02*
X3089000D01*
X3092998Y1114999D02*
Y1700002D01*
X645997Y2370002D02*
X1320997D01*
X645997Y2170003D02*
Y2370002D01*
X1320997Y2170003D02*
Y2370002D01*
X645997Y330001D02*
X1320997D01*
Y530001D01*
X645997Y330001D02*
Y530001D01*
X1800001Y2319998D02*
X1849998D01*
X1797999Y1775000D02*
Y2359998D01*
X1800001Y1815000D02*
X1849998D01*
X3092998Y1775000D02*
Y2359998D01*
X3038998Y2319998D02*
X3089000D01*
X3038998Y1815000D02*
X3089000D01*
X3092998Y1775000D02*
Y2359998D01*
D21*
X1385026Y2315000D02*
Y2261684D01*
Y2288342D01*
X1465000D01*
Y2235026D02*
X1411684D01*
X1385026Y2208368D01*
X1411684Y2181710D01*
X1465000D01*
X1425013D01*
Y2235026D01*
X1465000Y2155052D02*
X1385026D01*
Y2115065D01*
X1398355Y2101736D01*
X1425013D01*
X1438342Y2115065D01*
Y2155052D01*
Y2128394D02*
X1465000Y2101736D01*
X1398355Y2021762D02*
X1385026Y2035090D01*
Y2061748D01*
X1398355Y2075078D01*
X1451671D01*
X1465000Y2061748D01*
Y2035090D01*
X1451671Y2021762D01*
X1425013D01*
Y2048420D01*
X1385026Y1941787D02*
Y1995103D01*
X1465000D01*
Y1941787D01*
X1425013Y1995103D02*
Y1968445D01*
X1385026Y1915129D02*
Y1861813D01*
Y1888471D01*
X1465000D01*
X484999Y2183316D02*
Y2130000D01*
X538315Y2183316D01*
X551645D01*
X564973Y2169987D01*
Y2143329D01*
X551645Y2130000D01*
X484999Y559988D02*
X564973D01*
X524986Y520000D01*
Y573317D01*
X551644Y599975D02*
X564973Y613304D01*
Y639962D01*
X551644Y653291D01*
X498328D01*
X484999Y639962D01*
Y613304D01*
X498328Y599975D01*
X551644D01*
%TF.MD5,84deee3ceac04f5e4f9ad90a87163b39*%
M02*
