%TF.GenerationSoftware,Altium Limited,Altium Designer,24.8.2 (39)*%
G04 Layer_Physical_Order=1*
G04 Layer_Color=255*
%FSLAX45Y45*%
%MOMM*%
%TF.SameCoordinates,C54AC7BA-B540-4DA4-B2B9-A01D8BF79CE3*%
%TF.FilePolarity,Positive*%
%TF.FileFunction,Copper,L1,Top,Signal*%
%TF.Part,Single*%
G01*
G75*
%TA.AperFunction,SMDPad,CuDef*%
G04:AMPARAMS|DCode=10|XSize=3.2mm|YSize=0.5mm|CornerRadius=0.125mm|HoleSize=0mm|Usage=FLASHONLY|Rotation=0.000|XOffset=0mm|YOffset=0mm|HoleType=Round|Shape=RoundedRectangle|*
%AMROUNDEDRECTD10*
21,1,3.20000,0.25000,0,0,0.0*
21,1,2.95000,0.50000,0,0,0.0*
1,1,0.25000,1.47500,-0.12500*
1,1,0.25000,-1.47500,-0.12500*
1,1,0.25000,-1.47500,0.12500*
1,1,0.25000,1.47500,0.12500*
%
%ADD10ROUNDEDRECTD10*%
%TA.AperFunction,Conductor*%
%ADD11C,0.20000*%
%ADD12C,0.35000*%
%ADD13C,0.30000*%
%TA.AperFunction,ComponentPad*%
G04:AMPARAMS|DCode=14|XSize=1.7mm|YSize=2.1mm|CornerRadius=0.425mm|HoleSize=0mm|Usage=FLASHONLY|Rotation=0.000|XOffset=0mm|YOffset=0mm|HoleType=Round|Shape=RoundedRectangle|*
%AMROUNDEDRECTD14*
21,1,1.70000,1.25001,0,0,0.0*
21,1,0.85000,2.10000,0,0,0.0*
1,1,0.85000,0.42500,-0.62500*
1,1,0.85000,-0.42500,-0.62500*
1,1,0.85000,-0.42500,0.62500*
1,1,0.85000,0.42500,0.62500*
%
%ADD14ROUNDEDRECTD14*%
G04:AMPARAMS|DCode=15|XSize=1.7mm|YSize=2.1mm|CornerRadius=0mm|HoleSize=0mm|Usage=FLASHONLY|Rotation=0.000|XOffset=0mm|YOffset=0mm|HoleType=Round|Shape=Octagon|*
%AMOCTAGOND15*
4,1,8,-0.42500,1.05000,0.42500,1.05000,0.85000,0.62500,0.85000,-0.62500,0.42500,-1.05000,-0.42500,-1.05000,-0.85000,-0.62500,-0.85000,0.62500,-0.42500,1.05000,0.0*
%
%ADD15OCTAGOND15*%

G04:AMPARAMS|DCode=16|XSize=1.55mm|YSize=1.6mm|CornerRadius=0.3875mm|HoleSize=0mm|Usage=FLASHONLY|Rotation=270.000|XOffset=0mm|YOffset=0mm|HoleType=Round|Shape=RoundedRectangle|*
%AMROUNDEDRECTD16*
21,1,1.55000,0.82500,0,0,270.0*
21,1,0.77500,1.60000,0,0,270.0*
1,1,0.77500,-0.41250,-0.38750*
1,1,0.77500,-0.41250,0.38750*
1,1,0.77500,0.41250,0.38750*
1,1,0.77500,0.41250,-0.38750*
%
%ADD16ROUNDEDRECTD16*%
%TA.AperFunction,ViaPad*%
%ADD17C,0.50800*%
G36*
X3076056Y2324607D02*
X3061056Y2320057D01*
X3057451Y2325452D01*
X3034991Y2340459D01*
X3008498Y2345729D01*
X2978698D01*
Y2213998D01*
Y2082268D01*
X3008498D01*
X3034991Y2087538D01*
X3057451Y2102545D01*
X3061056Y2107940D01*
X3076056Y2103389D01*
Y2030607D01*
X3061056Y2026057D01*
X3057451Y2031452D01*
X3034991Y2046459D01*
X3008498Y2051729D01*
X2978698D01*
Y1919998D01*
Y1788268D01*
X3008498D01*
X3034991Y1793538D01*
X3057451Y1808545D01*
X3061056Y1813940D01*
X3076056Y1809390D01*
Y1664607D01*
X3061056Y1660056D01*
X3057451Y1665451D01*
X3034991Y1680458D01*
X3008498Y1685728D01*
X2978698D01*
Y1553998D01*
Y1422267D01*
X3008498D01*
X3034991Y1427537D01*
X3057451Y1442544D01*
X3061056Y1447939D01*
X3076056Y1443389D01*
Y1370607D01*
X3061056Y1366056D01*
X3057451Y1371451D01*
X3034991Y1386458D01*
X3008498Y1391728D01*
X2978698D01*
Y1259998D01*
Y1128267D01*
X3008498D01*
X3034991Y1133537D01*
X3057451Y1148545D01*
X3061056Y1153939D01*
X3076056Y1149389D01*
Y904607D01*
X3061056Y900056D01*
X3057451Y905451D01*
X3034991Y920458D01*
X3008498Y925728D01*
X2978698D01*
Y793998D01*
Y662268D01*
X3008498D01*
X3034991Y667537D01*
X3057451Y682545D01*
X3061056Y687939D01*
X3076056Y683389D01*
Y610607D01*
X3061056Y606056D01*
X3057451Y611451D01*
X3034991Y626458D01*
X3008498Y631728D01*
X2978698D01*
Y499998D01*
Y368268D01*
X3008498D01*
X3034991Y373537D01*
X3057451Y388545D01*
X3061056Y393940D01*
X3076056Y389389D01*
Y303944D01*
X700000D01*
Y304025D01*
X678579Y308285D01*
X660420Y320419D01*
X648285Y338579D01*
X644025Y360000D01*
X643944D01*
X643943Y360006D01*
Y479999D01*
X640598Y496816D01*
X631072Y511072D01*
X616816Y520598D01*
X599999Y523943D01*
X100005D01*
X100000Y523944D01*
Y524025D01*
X78579Y528285D01*
X60419Y540420D01*
X48285Y558579D01*
X44025Y580000D01*
X43944D01*
Y2120000D01*
X44025D01*
X48285Y2141421D01*
X60419Y2159580D01*
X78579Y2171714D01*
X100000Y2175975D01*
Y2176056D01*
X100004Y2176056D01*
X599999D01*
X616816Y2179402D01*
X631072Y2188927D01*
X640598Y2203184D01*
X643943Y2220001D01*
Y2339981D01*
X643947Y2340000D01*
X644027D01*
X648288Y2361421D01*
X660422Y2379580D01*
X678582Y2391715D01*
X700003Y2395975D01*
Y2396055D01*
X1833200D01*
X1838940Y2382197D01*
X1738371Y2281629D01*
X1731741Y2271705D01*
X1729412Y2260000D01*
X1729412Y2259999D01*
Y2041329D01*
X1714412Y2033311D01*
X1709962Y2036285D01*
X1692248Y2039808D01*
X1674534Y2036285D01*
X1659516Y2026251D01*
X1649482Y2011233D01*
X1645958Y1993519D01*
X1649482Y1975805D01*
X1659516Y1960787D01*
X1661660Y1959355D01*
Y1904918D01*
X1587330Y1830588D01*
X1554767D01*
X1550216Y1845588D01*
X1552732Y1847268D01*
X1562766Y1862286D01*
X1566289Y1880000D01*
X1562766Y1897714D01*
X1552732Y1912732D01*
X1542870Y1919321D01*
X1541293Y1934821D01*
X1541843Y1936675D01*
X1542732Y1937268D01*
X1552766Y1952286D01*
X1556289Y1970000D01*
X1552766Y1987714D01*
X1542732Y2002732D01*
X1527714Y2012766D01*
X1510000Y2016290D01*
X1507471Y2015787D01*
X1471629Y2051629D01*
X1461705Y2058259D01*
X1450000Y2060588D01*
X1449999Y2060588D01*
X849088D01*
X837383Y2058259D01*
X827460Y2051629D01*
X827459Y2051628D01*
X736418Y1960588D01*
X480636D01*
Y1962499D01*
X478114Y1975179D01*
X474824Y1990174D01*
X483200Y2002710D01*
X486102Y2017298D01*
X113897D01*
X116799Y2002710D01*
X125175Y1990174D01*
X121885Y1975179D01*
X119363Y1962499D01*
Y1937499D01*
X121885Y1924818D01*
X129068Y1914068D01*
Y1905930D01*
X121885Y1895180D01*
X119363Y1882499D01*
Y1857499D01*
X121885Y1844818D01*
X125175Y1829823D01*
X116799Y1817287D01*
X113897Y1802699D01*
X486102D01*
X483200Y1817287D01*
X474824Y1829823D01*
X478114Y1844818D01*
X479027Y1849412D01*
X749999D01*
X750000Y1849412D01*
X761705Y1851741D01*
X771629Y1858371D01*
X862670Y1949412D01*
X936556D01*
X942083Y1936070D01*
X932450Y1925802D01*
X930000Y1926290D01*
X912286Y1922766D01*
X897268Y1912732D01*
X887234Y1897714D01*
X883710Y1880000D01*
X887234Y1862286D01*
X897268Y1847268D01*
X912286Y1837234D01*
X930000Y1833711D01*
X947714Y1837234D01*
X962732Y1847268D01*
X972130Y1861333D01*
X980000Y1862284D01*
X987870Y1861333D01*
X997268Y1847268D01*
X1012286Y1837234D01*
X1030000Y1833711D01*
X1047714Y1837234D01*
X1062732Y1847268D01*
X1064164Y1849412D01*
X1353816D01*
X1369810Y1833418D01*
X1363596Y1818419D01*
X877832D01*
X877831Y1818419D01*
X866125Y1816090D01*
X856202Y1809460D01*
X776488Y1729746D01*
X479195D01*
X478114Y1735180D01*
X474824Y1750175D01*
X483200Y1762711D01*
X486102Y1777299D01*
X113897D01*
X116799Y1762711D01*
X125175Y1750175D01*
X121885Y1735180D01*
X119363Y1722499D01*
Y1697499D01*
X121885Y1684818D01*
X129068Y1674068D01*
Y1665930D01*
X121885Y1655180D01*
X119363Y1642499D01*
Y1617499D01*
X121885Y1604819D01*
X125175Y1589824D01*
X116799Y1577287D01*
X113897Y1562699D01*
X486102D01*
X483200Y1577287D01*
X474824Y1589824D01*
X478114Y1604818D01*
X479691Y1612746D01*
X793333D01*
X793334Y1612746D01*
X805040Y1615075D01*
X814963Y1621705D01*
X866897Y1673639D01*
X885737Y1671265D01*
X889737Y1665278D01*
X904755Y1655243D01*
X922469Y1651720D01*
X924998Y1652223D01*
X952167Y1625054D01*
X952167Y1625053D01*
X962091Y1618423D01*
X973796Y1616095D01*
X1356491D01*
X1401968Y1570617D01*
X1401969Y1570617D01*
X1411892Y1563986D01*
X1423598Y1561658D01*
X1562244D01*
X1562246Y1561658D01*
X1573951Y1563986D01*
X1583874Y1570617D01*
X1771361Y1758103D01*
X2548690D01*
X2548691Y1758103D01*
X2560396Y1760432D01*
X2570320Y1767062D01*
X2634783Y1831525D01*
X2645112Y1824624D01*
X2669498Y1819773D01*
X2754498D01*
X2778884Y1824624D01*
X2799558Y1838438D01*
X2813372Y1859111D01*
X2818222Y1883498D01*
Y2008498D01*
X2813372Y2032884D01*
X2799558Y2053558D01*
X2778884Y2067372D01*
X2754498Y2072222D01*
X2669498D01*
X2645112Y2067372D01*
X2624438Y2053558D01*
X2610624Y2032884D01*
X2605774Y2008498D01*
Y1889031D01*
X2579222Y1862480D01*
X2564222Y1868693D01*
Y1982499D01*
X2559372Y2006885D01*
X2545558Y2027559D01*
X2524884Y2041372D01*
X2500498Y2046223D01*
X2415498D01*
X2391112Y2041372D01*
X2370438Y2027559D01*
X2356624Y2006885D01*
X2351774Y1982499D01*
Y1857498D01*
X2356392Y1834279D01*
X2356098Y1830766D01*
X2349958Y1819279D01*
X2289884D01*
X2285334Y1834279D01*
X2291558Y1838438D01*
X2305372Y1859111D01*
X2310222Y1883498D01*
Y2008498D01*
X2305372Y2032884D01*
X2291558Y2053558D01*
X2270884Y2067372D01*
X2246498Y2072222D01*
X2161498D01*
X2137112Y2067372D01*
X2116438Y2053558D01*
X2102624Y2032884D01*
X2097774Y2008498D01*
Y1883498D01*
X2102624Y1859111D01*
X2116438Y1838438D01*
X2122663Y1834279D01*
X2118113Y1819279D01*
X2046376D01*
X2040636Y1833137D01*
X2054998Y1847498D01*
Y1992499D01*
X2002498Y2044998D01*
X1897498D01*
X1864446Y2011946D01*
X1850588Y2017686D01*
Y2081330D01*
X1870385Y2101128D01*
X1883112Y2092624D01*
X1907498Y2087774D01*
X1992498D01*
X2016884Y2092624D01*
X2037558Y2106438D01*
X2051372Y2127112D01*
X2056222Y2151498D01*
Y2276499D01*
X2051372Y2300885D01*
X2037558Y2321558D01*
X2016884Y2335372D01*
X1992498Y2340223D01*
X1919879D01*
X1911381Y2355223D01*
X1912034Y2356312D01*
X2104595D01*
X2112265Y2341312D01*
X2102624Y2326884D01*
X2097774Y2302498D01*
Y2177498D01*
X2102624Y2153111D01*
X2116438Y2132438D01*
X2137112Y2118624D01*
X2161498Y2113773D01*
X2246498D01*
X2270884Y2118624D01*
X2291558Y2132438D01*
X2305372Y2153111D01*
X2310222Y2177498D01*
Y2302498D01*
X2305372Y2326884D01*
X2295732Y2341312D01*
X2303401Y2356312D01*
X2570430D01*
X2608838Y2317904D01*
X2605774Y2302498D01*
Y2177498D01*
X2610624Y2153111D01*
X2624438Y2132438D01*
X2645112Y2118624D01*
X2669498Y2113773D01*
X2754498D01*
X2778884Y2118624D01*
X2799558Y2132438D01*
X2813372Y2153111D01*
X2818222Y2177498D01*
Y2302498D01*
X2813372Y2326884D01*
X2799558Y2347558D01*
X2778884Y2361372D01*
X2754498Y2366222D01*
X2669498D01*
X2650762Y2362496D01*
X2631061Y2382197D01*
X2636801Y2396055D01*
X3076056D01*
Y2324607D01*
D02*
G37*
%LPC*%
G36*
X1174246Y2364157D02*
X1145696D01*
Y2272700D01*
X1239653D01*
Y2298750D01*
X1234674Y2323780D01*
X1220496Y2344999D01*
X1199276Y2359178D01*
X1174246Y2364157D01*
D02*
G37*
G36*
X1120296D02*
X1091747D01*
X1066716Y2359178D01*
X1045497Y2344999D01*
X1031319Y2323780D01*
X1026340Y2298750D01*
Y2272700D01*
X1120296D01*
Y2364157D01*
D02*
G37*
G36*
X2953298Y2345729D02*
X2923498D01*
X2897005Y2340459D01*
X2874545Y2325452D01*
X2859538Y2302992D01*
X2854268Y2276499D01*
Y2226698D01*
X2953298D01*
Y2345729D01*
D02*
G37*
G36*
X1239653Y2247300D02*
X1145696D01*
Y2155843D01*
X1174246D01*
X1199276Y2160822D01*
X1220496Y2175000D01*
X1234674Y2196220D01*
X1239653Y2221250D01*
Y2247300D01*
D02*
G37*
G36*
X1120296D02*
X1026340D01*
Y2221250D01*
X1031319Y2196220D01*
X1045497Y2175000D01*
X1066716Y2160822D01*
X1091747Y2155843D01*
X1120296D01*
Y2247300D01*
D02*
G37*
G36*
X640000Y2156290D02*
X622286Y2152766D01*
X615502Y2148233D01*
X467482D01*
X460180Y2153113D01*
X447499Y2155635D01*
X152499D01*
X139819Y2153113D01*
X129068Y2145929D01*
X121885Y2135179D01*
X119363Y2122498D01*
Y2097498D01*
X121885Y2084818D01*
X125175Y2069823D01*
X116799Y2057286D01*
X113897Y2042698D01*
X486102D01*
X483304Y2056765D01*
X483232Y2057342D01*
X491567Y2071765D01*
X615505D01*
X622286Y2067234D01*
X640000Y2063711D01*
X657714Y2067234D01*
X672732Y2077268D01*
X682766Y2092286D01*
X686289Y2110000D01*
X682766Y2127714D01*
X672732Y2142732D01*
X657714Y2152766D01*
X640000Y2156290D01*
D02*
G37*
G36*
X2500498Y2340223D02*
X2415498D01*
X2391112Y2335372D01*
X2370438Y2321558D01*
X2356624Y2300885D01*
X2351774Y2276499D01*
Y2151498D01*
X2356624Y2127112D01*
X2370438Y2106438D01*
X2391112Y2092624D01*
X2415498Y2087774D01*
X2500498D01*
X2524884Y2092624D01*
X2545558Y2106438D01*
X2559372Y2127112D01*
X2564222Y2151498D01*
Y2276499D01*
X2559372Y2300885D01*
X2545558Y2321558D01*
X2524884Y2335372D01*
X2500498Y2340223D01*
D02*
G37*
G36*
X2953298Y2201298D02*
X2854268D01*
Y2151498D01*
X2859538Y2125005D01*
X2874545Y2102545D01*
X2897005Y2087538D01*
X2923498Y2082268D01*
X2953298D01*
Y2201298D01*
D02*
G37*
G36*
Y2051729D02*
X2923498D01*
X2897005Y2046459D01*
X2874545Y2031452D01*
X2859538Y2008992D01*
X2854268Y1982499D01*
Y1932698D01*
X2953298D01*
Y2051729D01*
D02*
G37*
G36*
Y1907298D02*
X2854268D01*
Y1857498D01*
X2859538Y1831005D01*
X2874545Y1808545D01*
X2897005Y1793538D01*
X2923498Y1788268D01*
X2953298D01*
Y1907298D01*
D02*
G37*
G36*
Y1685728D02*
X2923498D01*
X2897005Y1680458D01*
X2874545Y1665451D01*
X2859538Y1642991D01*
X2854268Y1616498D01*
Y1566698D01*
X2953298D01*
Y1685728D01*
D02*
G37*
G36*
Y1541298D02*
X2854268D01*
Y1491497D01*
X2859538Y1465004D01*
X2874545Y1442544D01*
X2897005Y1427537D01*
X2923498Y1422267D01*
X2953298D01*
Y1541298D01*
D02*
G37*
G36*
X2388241Y1742347D02*
X2388239Y1742347D01*
X1876049D01*
X1864343Y1740019D01*
X1854420Y1733388D01*
X1854419Y1733387D01*
X1808371Y1687340D01*
X1801741Y1677416D01*
X1799412Y1665711D01*
X1799412Y1665709D01*
Y1472670D01*
X1737330Y1410588D01*
X1487199D01*
X1477991Y1425588D01*
X1480428Y1437840D01*
X1476905Y1455554D01*
X1466870Y1470571D01*
X1451853Y1480606D01*
X1435416Y1483875D01*
X1436933Y1491498D01*
X1433409Y1509212D01*
X1423375Y1524229D01*
X1408357Y1534264D01*
X1390643Y1537787D01*
X1372929Y1534264D01*
X1357911Y1524229D01*
X1347877Y1509212D01*
X1347570Y1507666D01*
X1030194D01*
X986230Y1551629D01*
X976307Y1558259D01*
X964602Y1560588D01*
X964600Y1560588D01*
X890669D01*
X878963Y1558259D01*
X869040Y1551629D01*
X869040Y1551628D01*
X804566Y1487154D01*
X479710D01*
X478114Y1495180D01*
X474824Y1510175D01*
X483200Y1522711D01*
X486102Y1537299D01*
X113897D01*
X116799Y1522711D01*
X125175Y1510175D01*
X121885Y1495180D01*
X119363Y1482500D01*
Y1457499D01*
X121885Y1444819D01*
X129068Y1434069D01*
Y1425931D01*
X121885Y1415181D01*
X119363Y1402500D01*
Y1377500D01*
X121885Y1364819D01*
X129068Y1354069D01*
Y1345931D01*
X121885Y1335181D01*
X119363Y1322500D01*
Y1297500D01*
X121885Y1284819D01*
X129068Y1274069D01*
Y1265931D01*
X121885Y1255181D01*
X119363Y1242500D01*
Y1217500D01*
X121885Y1204820D01*
X125175Y1189824D01*
X116799Y1177288D01*
X113897Y1162700D01*
X486102D01*
X483200Y1177288D01*
X474824Y1189824D01*
X478114Y1204819D01*
X480636Y1217500D01*
Y1227378D01*
X562670Y1309412D01*
X777330D01*
X799021Y1287722D01*
Y1213414D01*
X799020Y1213413D01*
X801349Y1201707D01*
X807979Y1191784D01*
X873549Y1126214D01*
X883472Y1119584D01*
X895178Y1117255D01*
X895179Y1117256D01*
X1380259D01*
X1394245Y1107911D01*
X1411959Y1104387D01*
X1429673Y1107911D01*
X1444624Y1117901D01*
X1445994Y1115851D01*
X1461012Y1105817D01*
X1478726Y1102294D01*
X1496440Y1105817D01*
X1511457Y1115851D01*
X1514750Y1120779D01*
X1534004Y1122738D01*
X1641603Y1015139D01*
X1651527Y1008509D01*
X1663232Y1006180D01*
X1663233Y1006180D01*
X1813324D01*
X1819064Y992322D01*
X1650883Y824141D01*
X1309009D01*
X1297303Y821813D01*
X1287380Y815182D01*
X1287380Y815182D01*
X1250549Y778351D01*
X1055659D01*
X1052732Y782732D01*
X1037714Y792766D01*
X1020000Y796289D01*
X1002286Y792766D01*
X1001272Y792089D01*
X984605Y798993D01*
X983379Y805157D01*
X973345Y820175D01*
X958327Y830209D01*
X940613Y833732D01*
X922899Y830209D01*
X907881Y820175D01*
X897847Y805157D01*
X894772Y789699D01*
X887560Y785570D01*
X879828Y783430D01*
X831629Y831629D01*
X821705Y838259D01*
X810000Y840588D01*
X809999Y840588D01*
X480636D01*
Y842501D01*
X478114Y855181D01*
X474824Y870177D01*
X483200Y882713D01*
X486102Y897301D01*
X113897D01*
X116799Y882713D01*
X125175Y870177D01*
X121885Y855182D01*
X119363Y842501D01*
Y817501D01*
X121885Y804820D01*
X129068Y794070D01*
Y785932D01*
X121885Y775182D01*
X119363Y762501D01*
Y737501D01*
X121885Y724820D01*
X125175Y709825D01*
X116799Y697289D01*
X113897Y682701D01*
X486102D01*
X483200Y697289D01*
X474824Y709825D01*
X478114Y724820D01*
X479027Y729412D01*
X787330D01*
X928371Y588372D01*
X928371Y588371D01*
X938295Y581741D01*
X950000Y579412D01*
X1299999D01*
X1300000Y579412D01*
X1300503Y579512D01*
X1317234Y572286D01*
X1327268Y557268D01*
X1342286Y547234D01*
X1360000Y543711D01*
X1377714Y547234D01*
X1382355Y550335D01*
X1709198D01*
X1764314Y495219D01*
Y440000D01*
X1767031Y426344D01*
X1774766Y414767D01*
X1852144Y337389D01*
X1863721Y329654D01*
X1877377Y326937D01*
X2612623D01*
X2626279Y329654D01*
X2637857Y337389D01*
X2684860Y384392D01*
X2692595Y395969D01*
X2693352Y399773D01*
X2754498D01*
X2778884Y404624D01*
X2799558Y418437D01*
X2813372Y439111D01*
X2818222Y463497D01*
Y588498D01*
X2813372Y612884D01*
X2799558Y633558D01*
X2778884Y647371D01*
X2754498Y652222D01*
X2669498D01*
X2645112Y647371D01*
X2624438Y633558D01*
X2610624Y612884D01*
X2605774Y588498D01*
Y463497D01*
X2610624Y439111D01*
X2621847Y422315D01*
X2597841Y398309D01*
X2565391D01*
X2558320Y411537D01*
X2559372Y413111D01*
X2564222Y437498D01*
Y562498D01*
X2559372Y586885D01*
X2545558Y607558D01*
X2524884Y621372D01*
X2500498Y626223D01*
X2415498D01*
X2391112Y621372D01*
X2383816Y616497D01*
X2370588Y623568D01*
Y670428D01*
X2383816Y677499D01*
X2391112Y672624D01*
X2415498Y667773D01*
X2500498D01*
X2524884Y672624D01*
X2545558Y686438D01*
X2559372Y707111D01*
X2564222Y731498D01*
Y856498D01*
X2559372Y880884D01*
X2545558Y901558D01*
X2524884Y915372D01*
X2500498Y920222D01*
X2443035D01*
X2370936Y992322D01*
X2376676Y1006180D01*
X2676767D01*
X2676768Y1006180D01*
X2688473Y1008509D01*
X2698397Y1015139D01*
X2846877Y1163619D01*
X2862813Y1163349D01*
X2865523Y1162047D01*
X2874545Y1148545D01*
X2897005Y1133537D01*
X2923498Y1128267D01*
X2953298D01*
Y1259998D01*
Y1391728D01*
X2923498D01*
X2897005Y1386458D01*
X2875825Y1372306D01*
X2860825Y1375861D01*
Y1387766D01*
X2858496Y1399471D01*
X2851866Y1409395D01*
X2851865Y1409395D01*
X2798595Y1462665D01*
X2799558Y1472442D01*
X2813372Y1493116D01*
X2818222Y1517502D01*
Y1642502D01*
X2813372Y1666889D01*
X2799558Y1687562D01*
X2778884Y1701376D01*
X2754498Y1706227D01*
X2669498D01*
X2645112Y1701376D01*
X2624438Y1687562D01*
X2610624Y1666889D01*
X2605774Y1642502D01*
Y1517502D01*
X2610624Y1493116D01*
X2624438Y1472442D01*
X2645112Y1458628D01*
X2669498Y1453778D01*
X2720967D01*
X2747518Y1427227D01*
X2741305Y1412227D01*
X2669498D01*
X2645112Y1407376D01*
X2624438Y1393562D01*
X2610624Y1372889D01*
X2605774Y1348503D01*
Y1223502D01*
X2610624Y1199116D01*
X2624438Y1178442D01*
X2626473Y1177082D01*
Y1139731D01*
X2590098Y1103355D01*
X2438209D01*
X2432469Y1117213D01*
X2449029Y1133773D01*
X2500498D01*
X2524884Y1138624D01*
X2545558Y1152438D01*
X2559372Y1173111D01*
X2564222Y1197497D01*
Y1322498D01*
X2559372Y1346884D01*
X2545558Y1367558D01*
X2524884Y1381372D01*
X2500498Y1386222D01*
X2415498D01*
X2391112Y1381372D01*
X2370438Y1367558D01*
X2356624Y1346884D01*
X2351774Y1322498D01*
Y1197497D01*
X2356624Y1173111D01*
X2368333Y1155588D01*
X2364545Y1144456D01*
X2361689Y1140588D01*
X2027686D01*
X2021946Y1154446D01*
X2054998Y1187497D01*
Y1332498D01*
X2002498Y1384998D01*
X1897498D01*
X1845588Y1333087D01*
X1830588Y1333921D01*
Y1357330D01*
X1902104Y1428846D01*
X1907498Y1427773D01*
X1992498D01*
X2016884Y1432624D01*
X2037558Y1446438D01*
X2051372Y1467111D01*
X2056222Y1491497D01*
Y1616498D01*
X2051372Y1640884D01*
X2037558Y1661558D01*
X2030653Y1666172D01*
X2035203Y1681172D01*
X2094915D01*
X2102643Y1668816D01*
X2102482Y1666172D01*
X2097774Y1642502D01*
Y1517502D01*
X2102624Y1493116D01*
X2116438Y1472442D01*
X2137112Y1458628D01*
X2161498Y1453778D01*
X2246498D01*
X2270884Y1458628D01*
X2291558Y1472442D01*
X2305372Y1493116D01*
X2310222Y1517502D01*
Y1642502D01*
X2305515Y1666172D01*
X2305354Y1668816D01*
X2313081Y1681172D01*
X2364107D01*
X2367267Y1677405D01*
X2370438Y1661558D01*
X2356624Y1640884D01*
X2351774Y1616498D01*
Y1491497D01*
X2356624Y1467111D01*
X2370438Y1446438D01*
X2391112Y1432624D01*
X2415498Y1427773D01*
X2500498D01*
X2524884Y1432624D01*
X2545558Y1446438D01*
X2559372Y1467111D01*
X2564222Y1491497D01*
Y1616498D01*
X2559372Y1640884D01*
X2545558Y1661558D01*
X2524884Y1675372D01*
X2500498Y1680222D01*
X2463035D01*
X2409869Y1733388D01*
X2399946Y1740019D01*
X2388241Y1742347D01*
D02*
G37*
G36*
X2246498Y1412227D02*
X2161498D01*
X2137112Y1407376D01*
X2116438Y1393562D01*
X2102624Y1372889D01*
X2097774Y1348503D01*
Y1223502D01*
X2102624Y1199116D01*
X2116438Y1178442D01*
X2137112Y1164628D01*
X2161498Y1159778D01*
X2246498D01*
X2270884Y1164628D01*
X2291558Y1178442D01*
X2305372Y1199116D01*
X2310222Y1223502D01*
Y1348503D01*
X2305372Y1372889D01*
X2291558Y1393562D01*
X2270884Y1407376D01*
X2246498Y1412227D01*
D02*
G37*
G36*
X486102Y1137300D02*
X113897D01*
X116799Y1122712D01*
X125175Y1110176D01*
X121885Y1095181D01*
X119363Y1082501D01*
Y1057500D01*
X121885Y1044820D01*
X129068Y1034070D01*
Y1025931D01*
X121885Y1015181D01*
X119363Y1002501D01*
Y977500D01*
X121885Y964820D01*
X125175Y949825D01*
X116799Y937289D01*
X113897Y922701D01*
X486102D01*
X483200Y937289D01*
X474824Y949825D01*
X478114Y964820D01*
X480191Y975263D01*
X797094D01*
X872013Y900344D01*
X881937Y893714D01*
X893642Y891386D01*
X1290596D01*
X1290598Y891385D01*
X1302303Y893714D01*
X1312226Y900344D01*
X1338816Y926934D01*
X1341345Y926431D01*
X1359060Y929955D01*
X1374077Y939989D01*
X1384111Y955007D01*
X1386834Y968695D01*
X1398155Y974086D01*
X1402139Y974603D01*
X1444197Y932546D01*
X1444198Y932545D01*
X1454121Y925914D01*
X1462621Y924223D01*
X1467268Y917268D01*
X1482286Y907234D01*
X1500000Y903710D01*
X1517714Y907234D01*
X1532732Y917268D01*
X1542766Y932286D01*
X1546290Y950000D01*
X1542766Y967714D01*
X1532732Y982732D01*
X1517714Y992766D01*
X1500000Y996289D01*
X1482286Y992766D01*
X1475216Y988042D01*
X1417508Y1045750D01*
X1407584Y1052380D01*
X1395879Y1054709D01*
X1395878Y1054709D01*
X1304121D01*
X1292415Y1052380D01*
X1282492Y1045750D01*
X1225303Y988561D01*
X1100990D01*
X1091495Y998056D01*
X1090132Y1004904D01*
X1093993Y1010683D01*
X1097517Y1028397D01*
X1093993Y1046111D01*
X1083959Y1061128D01*
X1068942Y1071163D01*
X1051228Y1074686D01*
X1033513Y1071163D01*
X1018496Y1061128D01*
X1016683Y1058415D01*
X854843D01*
X839270Y1073988D01*
X829346Y1080619D01*
X817641Y1082948D01*
X817639Y1082947D01*
X480547D01*
X478114Y1095181D01*
X474824Y1110176D01*
X483200Y1122712D01*
X486102Y1137300D01*
D02*
G37*
G36*
X2953298Y925728D02*
X2923498D01*
X2897005Y920458D01*
X2874545Y905451D01*
X2859538Y882991D01*
X2854268Y856498D01*
Y806698D01*
X2953298D01*
Y925728D01*
D02*
G37*
G36*
X2754498Y946222D02*
X2669498D01*
X2645112Y941371D01*
X2624438Y927557D01*
X2610624Y906884D01*
X2605774Y882498D01*
Y757497D01*
X2610624Y733111D01*
X2624438Y712437D01*
X2645112Y698623D01*
X2669498Y693773D01*
X2754498D01*
X2778884Y698623D01*
X2799558Y712437D01*
X2813372Y733111D01*
X2818222Y757497D01*
Y882498D01*
X2813372Y906884D01*
X2799558Y927557D01*
X2778884Y941371D01*
X2754498Y946222D01*
D02*
G37*
G36*
X2953298Y781298D02*
X2854268D01*
Y731498D01*
X2859538Y705004D01*
X2874545Y682545D01*
X2897005Y667537D01*
X2923498Y662268D01*
X2953298D01*
Y781298D01*
D02*
G37*
G36*
X486102Y657301D02*
X113897D01*
X116799Y642713D01*
X125175Y630177D01*
X121885Y615182D01*
X119363Y602501D01*
Y577501D01*
X121885Y564821D01*
X129068Y554070D01*
X139819Y546887D01*
X152499Y544365D01*
X447499D01*
X460180Y546887D01*
X470930Y554070D01*
X471094Y554315D01*
X611688D01*
X622286Y547234D01*
X640000Y543711D01*
X657714Y547234D01*
X672732Y557268D01*
X682766Y572286D01*
X686289Y590000D01*
X682766Y607714D01*
X672732Y622732D01*
X657714Y632766D01*
X640000Y636290D01*
X622286Y632766D01*
X611690Y625687D01*
X489864D01*
X481846Y640687D01*
X483200Y642713D01*
X486102Y657301D01*
D02*
G37*
G36*
X2953298Y631728D02*
X2923498D01*
X2897005Y626458D01*
X2874545Y611451D01*
X2859538Y588991D01*
X2854268Y562498D01*
Y512698D01*
X2953298D01*
Y631728D01*
D02*
G37*
G36*
X1024249Y544160D02*
X995699D01*
Y452703D01*
X1089656D01*
Y478753D01*
X1084677Y503784D01*
X1070499Y525003D01*
X1049279Y539181D01*
X1024249Y544160D01*
D02*
G37*
G36*
X970299D02*
X941749D01*
X916719Y539181D01*
X895500Y525003D01*
X881322Y503784D01*
X876343Y478753D01*
Y452703D01*
X970299D01*
Y544160D01*
D02*
G37*
G36*
X2953298Y487298D02*
X2854268D01*
Y437498D01*
X2859538Y411005D01*
X2874545Y388545D01*
X2897005Y373537D01*
X2923498Y368268D01*
X2953298D01*
Y487298D01*
D02*
G37*
G36*
X1089656Y427303D02*
X995699D01*
Y335847D01*
X1024249D01*
X1049279Y340826D01*
X1070499Y355004D01*
X1084677Y376223D01*
X1089656Y401253D01*
Y427303D01*
D02*
G37*
G36*
X970299D02*
X876343D01*
Y401253D01*
X881322Y376223D01*
X895500Y355004D01*
X916719Y340826D01*
X941749Y335847D01*
X970299D01*
Y427303D01*
D02*
G37*
%LPD*%
D10*
X299999Y750001D02*
D03*
Y670001D02*
D03*
Y830001D02*
D03*
Y590001D02*
D03*
Y990001D02*
D03*
Y910001D02*
D03*
Y1230000D02*
D03*
Y1070000D02*
D03*
Y1470000D02*
D03*
Y1150000D02*
D03*
Y1390000D02*
D03*
Y1310000D02*
D03*
Y1629999D02*
D03*
Y1869999D02*
D03*
Y1949999D02*
D03*
Y2029998D02*
D03*
Y1549999D02*
D03*
Y2109998D02*
D03*
Y1709999D02*
D03*
Y1789999D02*
D03*
D11*
X829608Y1213413D02*
X895178Y1147843D01*
X829608Y1213413D02*
Y1300392D01*
X895178Y1147843D02*
X1409125D01*
X1411959Y1150677D01*
X1025594Y1185594D02*
X1048774Y1208774D01*
X865608Y1233045D02*
X913059Y1185594D01*
X1025594D01*
X1426552Y1208774D02*
X1478726Y1156600D01*
X1048774Y1208774D02*
X1426552D01*
X865608Y1233045D02*
Y1334392D01*
X946401Y1225993D02*
X1005993D01*
X1030498Y1250498D02*
X1449502D01*
X1005993Y1225993D02*
X1030498Y1250498D01*
X1449502D02*
X1663232Y1036768D01*
X917008Y1255387D02*
X946401Y1225993D01*
X979909Y1277873D02*
X988244D01*
X1004371Y1294000D01*
X1495088D01*
X1367889Y1477078D02*
X1382309Y1491498D01*
X964602Y1530000D02*
X1017523Y1477078D01*
X1382309Y1491498D02*
X1390643D01*
X1017523Y1477078D02*
X1367889D01*
X890669Y1530000D02*
X964602D01*
X313432Y1456567D02*
X817236D01*
X890669Y1530000D01*
X905192Y1490000D02*
X946382D01*
X490000Y1420000D02*
X835192D01*
X905192Y1490000D01*
X998543Y1437840D02*
X1434139D01*
X946382Y1490000D02*
X998543Y1437840D01*
X985773Y1384107D02*
X1003009D01*
X979967Y1389914D02*
X985773Y1384107D01*
X924865Y1355135D02*
X950000Y1330000D01*
X924865Y1355135D02*
Y1436851D01*
X950000Y1330000D02*
X1510000D01*
X1003009Y1384107D02*
X1007116Y1380000D01*
X790000Y1340000D02*
X829608Y1300392D01*
X820000Y1380000D02*
X865608Y1334392D01*
X1510000Y1330000D02*
X1730000Y1110000D01*
X550000Y1340000D02*
X790000D01*
X530000Y1380000D02*
X820000D01*
X299999Y1470000D02*
X313432Y1456567D01*
X470052Y1400052D02*
X490000Y1420000D01*
X299999Y1230000D02*
X313456Y1243457D01*
X453457D01*
X550000Y1340000D01*
X470052Y1320052D02*
X530000Y1380000D01*
X299999Y1310000D02*
X310051Y1320052D01*
X470052D01*
X1544107Y1735893D02*
X1550000Y1730000D01*
X1380747Y1787831D02*
X1430885Y1737693D01*
X1522884D02*
X1524684Y1735893D01*
X1544107D01*
X1430885Y1737693D02*
X1522884D01*
X1366486Y1880000D02*
X1446073Y1800413D01*
X893642Y921973D02*
X1290598D01*
X809764Y1005851D02*
X893642Y921973D01*
X911878Y976428D02*
X1069866D01*
X1088320Y957973D02*
X1237973D01*
X1290598Y921973D02*
X1341345Y972721D01*
X1237973Y957973D02*
X1304121Y1024121D01*
X1069866Y976428D02*
X1088320Y957973D01*
X817641Y1052360D02*
X842173Y1027828D01*
X1050658D01*
X461715Y1052360D02*
X817641D01*
X1600000Y1800000D02*
X1692248Y1892248D01*
X1520000Y1800000D02*
X1600000D01*
X1692248Y1892248D02*
Y1993519D01*
X1663232Y1036768D02*
X2676768D01*
X2830237Y1190237D02*
Y1387766D01*
X2676768Y1036768D02*
X2830237Y1190237D01*
X1800000Y1170166D02*
Y1370000D01*
X1760000Y1860000D02*
Y2260000D01*
X1528246Y1628245D02*
X1760000Y1860000D01*
Y2260000D02*
X1886900Y2386900D01*
X1820000Y1890000D02*
Y2094000D01*
X1562246Y1592245D02*
X1758691Y1788691D01*
X2548691D01*
X2657061Y1897061D01*
X1876049Y1711759D02*
X2388241D01*
X1830000Y1665711D02*
X1876049Y1711759D01*
X2388241D02*
X2457998Y1642002D01*
X1687553Y757553D02*
X1894668Y964668D01*
X1339328Y721554D02*
X1398446D01*
X1263219Y747764D02*
X1309009Y793553D01*
X1663553D01*
X1398446Y721554D02*
X1430000Y690000D01*
X1267774Y650000D02*
X1339328Y721554D01*
X1663553Y793553D02*
X1870668Y1000668D01*
X1324416Y757553D02*
X1687553D01*
X1256863Y690000D02*
X1324416Y757553D01*
X1022236Y747764D02*
X1263219D01*
X970000Y650000D02*
X1267774D01*
X990000Y690000D02*
X1256863D01*
X1395879Y1024121D02*
X1465826Y954174D01*
X1304121Y1024121D02*
X1395879D01*
X1870668Y1000668D02*
X2319333D01*
X1894668Y964668D02*
X2275332D01*
X1367666Y1750000D02*
X1437123Y1680543D01*
X877831Y1787831D02*
X1380747D01*
X996911Y1698393D02*
X1368362D01*
X900000Y1750000D02*
X1367666D01*
X1437123Y1680543D02*
X1482997D01*
X1438509Y1628245D02*
X1528246D01*
X1423598Y1592245D02*
X1562246D01*
X1369161Y1646682D02*
X1423598Y1592245D01*
X1368362Y1698393D02*
X1438509Y1628245D01*
X973796Y1646682D02*
X1369161D01*
X1030000Y1880000D02*
X1366486D01*
X849088Y2030000D02*
X1450000D01*
X1510000Y1970000D01*
X749088Y1930000D02*
X849088Y2030000D01*
X750000Y1880000D02*
X850000Y1980000D01*
X1420000D02*
X1520000Y1880000D01*
X850000Y1980000D02*
X1420000D01*
X800000Y760000D02*
X950000Y610000D01*
X1300000D01*
X1360000Y670000D01*
X810000Y810000D02*
X970000Y650000D01*
X461715Y1005851D02*
X809764D01*
X299999Y990001D02*
X313456Y1003457D01*
X459322D01*
X461715Y1005851D01*
X313456Y1056544D02*
X457531D01*
X461715Y1052360D01*
X299999Y1070000D02*
X313456Y1056544D01*
X1478726Y1148583D02*
Y1156600D01*
X1390000Y1930000D02*
X1520000Y1800000D01*
X1820000Y2094000D02*
X1949998Y2223999D01*
X1910000Y1480000D02*
X1949998D01*
X1800000Y1370000D02*
X1910000Y1480000D01*
X1750000Y1380000D02*
X1830000Y1460000D01*
X1007116Y1380000D02*
X1750000D01*
X1830000Y1460000D02*
Y1665711D01*
X310001Y1880000D02*
X750000D01*
X456351Y1930000D02*
X749088D01*
X922469Y1698009D02*
X973796Y1646682D01*
X793334Y1643334D02*
X900000Y1750000D01*
X789158Y1699158D02*
X877831Y1787831D01*
X1220000Y1930000D02*
X1390000D01*
X310840Y1699158D02*
X789158D01*
X313334Y1643334D02*
X793334D01*
X299999Y1709999D02*
X310840Y1699158D01*
X299999Y1629999D02*
X313334Y1643334D01*
X299999Y1390000D02*
X310051Y1400052D01*
X470052D01*
X309998Y760000D02*
X800000D01*
X456353Y810000D02*
X810000D01*
X940613Y739387D02*
X990000Y690000D01*
X1020000Y750000D02*
X1022236Y747764D01*
X1490000Y650000D02*
X2084001D01*
X2203998Y769997D01*
X1470000Y630000D02*
X1490000Y650000D01*
X2275332Y964668D02*
X2340000Y900000D01*
X2319333Y1000668D02*
X2432718Y887282D01*
X2602768Y1072768D02*
X2657061Y1127061D01*
X1495088Y1294000D02*
X1716321Y1072768D01*
X2602768D01*
X2381998Y1110000D02*
X2457998Y1186000D01*
X1730000Y1110000D02*
X2381998D01*
X2711998Y1506005D02*
X2830237Y1387766D01*
X1400000Y630000D02*
X1470000D01*
X1360000Y670000D02*
X1400000Y630000D01*
X1886900Y2386900D02*
X2583100D01*
X2642269Y2327732D01*
X2699732D01*
X2340000Y584794D02*
Y900000D01*
X2432718Y769278D02*
Y887282D01*
X2657061Y1971061D02*
X2711998Y2025998D01*
X2657061Y1897061D02*
Y1971061D01*
X2340000Y584794D02*
X2417793Y507001D01*
X1218600Y1931400D02*
X1220000Y1930000D01*
X930000Y1880000D02*
X981400Y1931400D01*
X1218600D01*
X2657061Y1197067D02*
X2711998Y1252005D01*
X2657061Y1127061D02*
Y1197067D01*
X2457998Y1186000D02*
Y1226000D01*
Y1480000D02*
Y1642002D01*
X1495826Y954174D02*
X1500000Y950000D01*
X1465826Y954174D02*
X1495826D01*
X940613Y739387D02*
Y787443D01*
X299999Y750001D02*
X309998Y760000D01*
X299999Y1949999D02*
X436352D01*
X456351Y1930000D01*
X299999Y1869999D02*
X310001Y1880000D01*
X436352Y830001D02*
X456353Y810000D01*
X299999Y830001D02*
X436352D01*
D12*
X639999Y2109999D02*
X640000Y2110000D01*
X300000Y2109999D02*
X639999D01*
X299999Y2109998D02*
X300000Y2109999D01*
D13*
X300000Y590001D02*
X639999D01*
X640000Y590000D01*
X2612623Y362623D02*
X2659626Y409626D01*
X1877377Y362623D02*
X2612623D01*
X1800000Y440000D02*
X1877377Y362623D01*
X1363980Y586020D02*
X1723980D01*
X1800000Y510000D01*
Y440000D02*
Y510000D01*
X2659626Y438091D02*
X2660899Y439364D01*
X2659626Y409626D02*
Y438091D01*
X2660899Y439364D02*
X2689364D01*
X1360000Y590000D02*
X1363980Y586020D01*
X299999Y590001D02*
X300000Y590001D01*
D14*
X2965998Y793998D02*
D03*
X2711998Y819997D02*
D03*
X2457998Y793998D02*
D03*
X2203998Y819997D02*
D03*
X1949998Y793998D02*
D03*
X2965998Y499998D02*
D03*
X2711998Y525997D02*
D03*
X2457998Y499998D02*
D03*
X2203998Y525997D02*
D03*
X2965998Y1553998D02*
D03*
X2711998Y1580002D02*
D03*
X2457998Y1553998D02*
D03*
X2203998Y1580002D02*
D03*
X1949998Y1553998D02*
D03*
X2965998Y1259998D02*
D03*
X2711998Y1286002D02*
D03*
X2457998Y1259998D02*
D03*
X2203998Y1286002D02*
D03*
X2965998Y2213998D02*
D03*
X2711998Y2239998D02*
D03*
X2457998Y2213998D02*
D03*
X2203998Y2239998D02*
D03*
X1949998Y2213998D02*
D03*
X2965998Y1919998D02*
D03*
X2711998Y1945998D02*
D03*
X2457998Y1919998D02*
D03*
X2203998Y1945998D02*
D03*
D15*
X1949998Y499998D02*
D03*
Y1259998D02*
D03*
Y1919998D02*
D03*
D16*
X982999Y440003D02*
D03*
X1132996Y2260000D02*
D03*
D17*
X979909Y1277873D02*
D03*
X979967Y1389914D02*
D03*
X917008Y1255387D02*
D03*
X924865Y1436851D02*
D03*
X1446073Y1800413D02*
D03*
X911878Y976428D02*
D03*
X640000Y2110000D02*
D03*
Y590000D02*
D03*
X1800000Y1170166D02*
D03*
X1820000Y1890000D02*
D03*
X1360232Y669768D02*
D03*
X1341345Y972721D02*
D03*
X1434139Y1437840D02*
D03*
X1390643Y1491498D02*
D03*
X1482997Y1680543D02*
D03*
X1051228Y1028397D02*
D03*
X1411959Y1150677D02*
D03*
X1478726Y1148583D02*
D03*
X1692248Y1993519D02*
D03*
X996911Y1698393D02*
D03*
X1020000Y750000D02*
D03*
X1520000Y1880000D02*
D03*
X1510000Y1970000D02*
D03*
X930000Y1880000D02*
D03*
X1030000D02*
D03*
X922469Y1698009D02*
D03*
X1430000Y690000D02*
D03*
X1360000Y590000D02*
D03*
X1500000Y950000D02*
D03*
X940613Y787443D02*
D03*
X1550000Y1730000D02*
D03*
%TF.MD5,da721b41599f1822b3c5c2dd63e2c7b7*%
M02*
