%TF.GenerationSoftware,Altium Limited,Altium Designer,24.8.2 (39)*%
G04 Layer_Color=128*
%FSLAX45Y45*%
%MOMM*%
%TF.SameCoordinates,C54AC7BA-B540-4DA4-B2B9-A01D8BF79CE3*%
%TF.FilePolarity,Positive*%
%TF.FileFunction,Drillmap*%
%TF.Part,Single*%
G01*
G75*
%TA.AperFunction,NonConductor*%
%ADD35C,0.12700*%
D35*
X2915998Y773998D02*
X3015998D01*
X2965998Y723998D02*
Y823998D01*
X2661998Y799997D02*
X2761998D01*
X2711998Y749997D02*
Y849997D01*
X2407998Y773998D02*
X2507998D01*
X2457998Y723998D02*
Y823998D01*
X2153998Y799997D02*
X2253998D01*
X2203998Y749997D02*
Y849997D01*
X1899998Y773998D02*
X1999998D01*
X1949998Y723998D02*
Y823998D01*
X2915998Y519998D02*
X3015998D01*
X2965998Y469998D02*
Y569998D01*
X2661998Y545997D02*
X2761998D01*
X2711998Y495997D02*
Y595997D01*
X2407998Y519998D02*
X2507998D01*
X2457998Y469998D02*
Y569998D01*
X2153998Y545997D02*
X2253998D01*
X2203998Y495997D02*
Y595997D01*
X1899998Y519998D02*
X1999998D01*
X1949998Y469998D02*
Y569998D01*
X2915998Y1533998D02*
X3015998D01*
X2965998Y1483998D02*
Y1583998D01*
X2661998Y1560002D02*
X2761998D01*
X2711998Y1510002D02*
Y1610002D01*
X2407998Y1533998D02*
X2507998D01*
X2457998Y1483998D02*
Y1583998D01*
X2153998Y1560002D02*
X2253998D01*
X2203998Y1510002D02*
Y1610002D01*
X1899998Y1533998D02*
X1999998D01*
X1949998Y1483998D02*
Y1583998D01*
X2915998Y1279998D02*
X3015998D01*
X2965998Y1229998D02*
Y1329998D01*
X2661998Y1306002D02*
X2761998D01*
X2711998Y1256002D02*
Y1356002D01*
X2407998Y1279998D02*
X2507998D01*
X2457998Y1229998D02*
Y1329998D01*
X2153998Y1306002D02*
X2253998D01*
X2203998Y1256002D02*
Y1356002D01*
X1899998Y1279998D02*
X1999998D01*
X1949998Y1229998D02*
Y1329998D01*
X922999Y440003D02*
X1042999D01*
X982999Y380004D02*
Y500003D01*
X1072997Y2260000D02*
X1192996D01*
X1132996Y2200000D02*
Y2320000D01*
X2915998Y2193998D02*
X3015998D01*
X2965998Y2143999D02*
Y2243998D01*
X2661998Y2219998D02*
X2761998D01*
X2711998Y2169998D02*
Y2269998D01*
X2407998Y2193998D02*
X2507998D01*
X2457998Y2143999D02*
Y2243998D01*
X2153998Y2219998D02*
X2253998D01*
X2203998Y2169998D02*
Y2269998D01*
X1899998Y2193998D02*
X1999998D01*
X1949998Y2143999D02*
Y2243998D01*
X2915998Y1939998D02*
X3015998D01*
X2965998Y1889999D02*
Y1989998D01*
X2661998Y1965998D02*
X2761998D01*
X2711998Y1915998D02*
Y2015998D01*
X2407998Y1939998D02*
X2507998D01*
X2457998Y1889999D02*
Y1989998D01*
X2153998Y1965998D02*
X2253998D01*
X2203998Y1915998D02*
Y2015998D01*
X1899998Y1939998D02*
X1999998D01*
X1949998Y1889999D02*
Y1989998D01*
X967209Y1277873D02*
X992609D01*
X979909Y1265173D02*
Y1290573D01*
X967267Y1389914D02*
X992667D01*
X979967Y1377214D02*
Y1402614D01*
X904308Y1255387D02*
X929708D01*
X917008Y1242687D02*
Y1268087D01*
X912165Y1436851D02*
X937565D01*
X924865Y1424151D02*
Y1449551D01*
X1433373Y1800413D02*
X1458773D01*
X1446073Y1787713D02*
Y1813113D01*
X899178Y976428D02*
X924578D01*
X911878Y963728D02*
Y989128D01*
X627300Y2110000D02*
X652700D01*
X640000Y2097300D02*
Y2122700D01*
X627300Y590000D02*
X652700D01*
X640000Y577300D02*
Y602700D01*
X1787300Y1170166D02*
X1812700D01*
X1800000Y1157466D02*
Y1182866D01*
X1807300Y1890000D02*
X1832700D01*
X1820000Y1877300D02*
Y1902700D01*
X1347532Y669768D02*
X1372932D01*
X1360232Y657068D02*
Y682468D01*
X1328645Y972721D02*
X1354045D01*
X1341345Y960021D02*
Y985421D01*
X1421439Y1437840D02*
X1446839D01*
X1434139Y1425140D02*
Y1450540D01*
X1377943Y1491498D02*
X1403343D01*
X1390643Y1478798D02*
Y1504198D01*
X1470297Y1680543D02*
X1495697D01*
X1482997Y1667843D02*
Y1693243D01*
X1038528Y1028397D02*
X1063928D01*
X1051228Y1015697D02*
Y1041097D01*
X1399259Y1150677D02*
X1424659D01*
X1411959Y1137977D02*
Y1163377D01*
X1466026Y1148583D02*
X1491426D01*
X1478726Y1135883D02*
Y1161283D01*
X1679548Y1993519D02*
X1704948D01*
X1692248Y1980819D02*
Y2006219D01*
X984211Y1698393D02*
X1009611D01*
X996911Y1685693D02*
Y1711093D01*
X1007300Y750000D02*
X1032700D01*
X1020000Y737300D02*
Y762700D01*
X1507300Y1880000D02*
X1532700D01*
X1520000Y1867300D02*
Y1892700D01*
X1497300Y1970000D02*
X1522700D01*
X1510000Y1957300D02*
Y1982700D01*
X917300Y1880000D02*
X942700D01*
X930000Y1867300D02*
Y1892700D01*
X1017300Y1880000D02*
X1042700D01*
X1030000Y1867300D02*
Y1892700D01*
X909769Y1698009D02*
X935169D01*
X922469Y1685309D02*
Y1710709D01*
X1417300Y690000D02*
X1442700D01*
X1430000Y677300D02*
Y702700D01*
X1347300Y590000D02*
X1372700D01*
X1360000Y577300D02*
Y602700D01*
X1487300Y950000D02*
X1512700D01*
X1500000Y937300D02*
Y962700D01*
X927913Y787443D02*
X953313D01*
X940613Y774743D02*
Y800143D01*
X1537300Y1730000D02*
X1562700D01*
X1550000Y1717300D02*
Y1742700D01*
%TF.MD5,55dd044a56b60436c6f062613d1b9920*%
M02*
