%TF.GenerationSoftware,Altium Limited,Altium Designer,25.4.2 (15)*%
G04 Layer_Physical_Order=1*
G04 Layer_Color=255*
%FSLAX45Y45*%
%MOMM*%
%TF.SameCoordinates,CEB5D3C2-0C51-4B95-AE11-DBC00170FBBE*%
%TF.FilePolarity,Positive*%
%TF.FileFunction,Copper,L1,Top,Signal*%
%TF.Part,Single*%
G01*
G75*
%TA.AperFunction,SMDPad,CuDef*%
G04:AMPARAMS|DCode=10|XSize=3.2mm|YSize=0.5mm|CornerRadius=0.125mm|HoleSize=0mm|Usage=FLASHONLY|Rotation=0.000|XOffset=0mm|YOffset=0mm|HoleType=Round|Shape=RoundedRectangle|*
%AMROUNDEDRECTD10*
21,1,3.20000,0.25000,0,0,0.0*
21,1,2.95000,0.50000,0,0,0.0*
1,1,0.25000,1.47500,-0.12500*
1,1,0.25000,-1.47500,-0.12500*
1,1,0.25000,-1.47500,0.12500*
1,1,0.25000,1.47500,0.12500*
%
%ADD10ROUNDEDRECTD10*%
%TA.AperFunction,Conductor*%
%ADD11C,0.20000*%
%ADD12C,0.30000*%
%ADD13C,0.35000*%
%TA.AperFunction,ComponentPad*%
G04:AMPARAMS|DCode=14|XSize=1.7mm|YSize=2.1mm|CornerRadius=0mm|HoleSize=0mm|Usage=FLASHONLY|Rotation=0.000|XOffset=0mm|YOffset=0mm|HoleType=Round|Shape=Octagon|*
%AMOCTAGOND14*
4,1,8,-0.42500,1.05000,0.42500,1.05000,0.85000,0.62500,0.85000,-0.62500,0.42500,-1.05000,-0.42500,-1.05000,-0.85000,-0.62500,-0.85000,0.62500,-0.42500,1.05000,0.0*
%
%ADD14OCTAGOND14*%

G04:AMPARAMS|DCode=15|XSize=1.7mm|YSize=2.1mm|CornerRadius=0.425mm|HoleSize=0mm|Usage=FLASHONLY|Rotation=0.000|XOffset=0mm|YOffset=0mm|HoleType=Round|Shape=RoundedRectangle|*
%AMROUNDEDRECTD15*
21,1,1.70000,1.25001,0,0,0.0*
21,1,0.85000,2.10000,0,0,0.0*
1,1,0.85000,0.42500,-0.62500*
1,1,0.85000,-0.42500,-0.62500*
1,1,0.85000,-0.42500,0.62500*
1,1,0.85000,0.42500,0.62500*
%
%ADD15ROUNDEDRECTD15*%
G04:AMPARAMS|DCode=16|XSize=1.55mm|YSize=1.6mm|CornerRadius=0.3875mm|HoleSize=0mm|Usage=FLASHONLY|Rotation=270.000|XOffset=0mm|YOffset=0mm|HoleType=Round|Shape=RoundedRectangle|*
%AMROUNDEDRECTD16*
21,1,1.55000,0.82500,0,0,270.0*
21,1,0.77500,1.60000,0,0,270.0*
1,1,0.77500,-0.41250,-0.38750*
1,1,0.77500,-0.41250,0.38750*
1,1,0.77500,0.41250,0.38750*
1,1,0.77500,0.41250,-0.38750*
%
%ADD16ROUNDEDRECTD16*%
%TA.AperFunction,ViaPad*%
%ADD17C,0.50800*%
G36*
X3076058Y2364622D02*
X3061058Y2360071D01*
X3053453Y2371453D01*
X3030993Y2386461D01*
X3004500Y2391730D01*
X2974700D01*
Y2260000D01*
Y2128270D01*
X3004500D01*
X3030993Y2133540D01*
X3053453Y2148547D01*
X3061058Y2159928D01*
X3076058Y2155378D01*
Y2070622D01*
X3061058Y2066072D01*
X3053453Y2077453D01*
X3030993Y2092461D01*
X3004500Y2097730D01*
X2974700D01*
Y1966000D01*
Y1834270D01*
X3004500D01*
X3030993Y1839540D01*
X3053453Y1854547D01*
X3061057Y1865928D01*
X3076058Y1861378D01*
X3076057Y1602623D01*
X3061057Y1598073D01*
X3053453Y1609453D01*
X3030993Y1624461D01*
X3004500Y1629730D01*
X2974700D01*
Y1498000D01*
X2962000D01*
Y1485300D01*
X2850270D01*
Y1435500D01*
X2851088Y1431385D01*
X2837264Y1423996D01*
X2811825Y1449436D01*
X2814224Y1461500D01*
Y1586500D01*
X2809374Y1610887D01*
X2795560Y1631560D01*
X2774886Y1645374D01*
X2750500Y1650225D01*
X2665500D01*
X2641114Y1645374D01*
X2620440Y1631560D01*
X2606626Y1610887D01*
X2601776Y1586500D01*
Y1461500D01*
X2606626Y1437113D01*
X2620440Y1416440D01*
X2641114Y1402626D01*
X2665500Y1397775D01*
X2750500D01*
X2772578Y1402167D01*
X2802447Y1372299D01*
Y1350999D01*
X2787447Y1342981D01*
X2774886Y1351374D01*
X2750500Y1356225D01*
X2665500D01*
X2641114Y1351374D01*
X2620440Y1337560D01*
X2606626Y1316887D01*
X2601776Y1292500D01*
Y1167500D01*
X2603844Y1157102D01*
X2572359Y1125617D01*
X2558535Y1133006D01*
X2560224Y1141500D01*
Y1266500D01*
X2555374Y1290887D01*
X2541560Y1311560D01*
X2520886Y1325374D01*
X2496500Y1330225D01*
X2411500D01*
X2387114Y1325374D01*
X2366440Y1311560D01*
X2352626Y1290887D01*
X2347776Y1266500D01*
Y1141500D01*
X2351171Y1124429D01*
X2327810Y1101068D01*
X2282574D01*
X2278024Y1116068D01*
X2287560Y1122440D01*
X2301374Y1143114D01*
X2306224Y1167500D01*
Y1292500D01*
X2301374Y1316887D01*
X2287560Y1337560D01*
X2266886Y1351374D01*
X2242500Y1356225D01*
X2157500D01*
X2133114Y1351374D01*
X2112440Y1337560D01*
X2098626Y1316887D01*
X2093776Y1292500D01*
Y1167500D01*
X2098626Y1143114D01*
X2112440Y1122440D01*
X2121976Y1116068D01*
X2117426Y1101068D01*
X2040166D01*
X2034426Y1114926D01*
X2051000Y1131500D01*
Y1276500D01*
X1998500Y1329000D01*
X1893500D01*
X1845588Y1281088D01*
X1830588Y1287301D01*
Y1357330D01*
X1861592Y1388334D01*
X1879114Y1376626D01*
X1903500Y1371776D01*
X1988500D01*
X2012886Y1376626D01*
X2033560Y1390440D01*
X2047374Y1411114D01*
X2052224Y1435500D01*
Y1560500D01*
X2047374Y1584887D01*
X2033560Y1605560D01*
X2020312Y1614412D01*
X2024862Y1629412D01*
X2095095D01*
X2102166Y1616183D01*
X2098626Y1610887D01*
X2093776Y1586500D01*
Y1461500D01*
X2098626Y1437113D01*
X2112440Y1416440D01*
X2133114Y1402626D01*
X2157500Y1397775D01*
X2242500D01*
X2266886Y1402626D01*
X2287560Y1416440D01*
X2301374Y1437113D01*
X2306224Y1461500D01*
Y1586500D01*
X2305528Y1590001D01*
X2319352Y1597391D01*
X2349180Y1567562D01*
X2347776Y1560500D01*
Y1435500D01*
X2352626Y1411114D01*
X2366440Y1390440D01*
X2387114Y1376626D01*
X2411500Y1371776D01*
X2496500D01*
X2520886Y1376626D01*
X2541560Y1390440D01*
X2555374Y1411114D01*
X2560224Y1435500D01*
Y1560500D01*
X2555374Y1584887D01*
X2541560Y1605560D01*
X2520886Y1619374D01*
X2496500Y1624225D01*
X2411500D01*
X2387114Y1619374D01*
X2385178Y1618080D01*
X2321629Y1681629D01*
X2311706Y1688259D01*
X2300000Y1690588D01*
X2299999Y1690588D01*
X1880001D01*
X1880000Y1690588D01*
X1868295Y1688259D01*
X1858371Y1681629D01*
X1858371Y1681628D01*
X1788371Y1611629D01*
X1781741Y1601705D01*
X1779412Y1590000D01*
X1779412Y1589999D01*
Y1452670D01*
X1729828Y1403086D01*
X1483559D01*
X1475542Y1418086D01*
X1476905Y1420125D01*
X1480428Y1437840D01*
X1476905Y1455554D01*
X1466870Y1470571D01*
X1451853Y1480606D01*
X1435416Y1483875D01*
X1436933Y1491498D01*
X1433409Y1509212D01*
X1423375Y1524229D01*
X1408357Y1534264D01*
X1390643Y1537787D01*
X1372929Y1534264D01*
X1357911Y1524229D01*
X1347877Y1509212D01*
X1347570Y1507666D01*
X1030194D01*
X986230Y1551629D01*
X976307Y1558259D01*
X964602Y1560588D01*
X964600Y1560588D01*
X890669D01*
X878963Y1558259D01*
X869040Y1551629D01*
X869040Y1551628D01*
X804566Y1487154D01*
X479711D01*
X478114Y1495181D01*
X474824Y1510176D01*
X483201Y1522712D01*
X486102Y1537300D01*
X113897D01*
X116799Y1522712D01*
X125176Y1510176D01*
X121886Y1495181D01*
X119363Y1482500D01*
Y1457500D01*
X121886Y1444819D01*
X124495Y1440915D01*
X127827Y1430000D01*
X124495Y1419085D01*
X121886Y1415181D01*
X119363Y1402500D01*
Y1377500D01*
X121886Y1364819D01*
X129069Y1354069D01*
Y1345931D01*
X121886Y1335181D01*
X119363Y1322500D01*
Y1297500D01*
X121886Y1284819D01*
X124495Y1280915D01*
X127827Y1270000D01*
X124495Y1259085D01*
X121886Y1255181D01*
X119363Y1242500D01*
Y1217500D01*
X121886Y1204820D01*
X125176Y1189824D01*
X116799Y1177288D01*
X113897Y1162700D01*
X486102D01*
X483201Y1177288D01*
X474824Y1189824D01*
X478114Y1204819D01*
X480637Y1217500D01*
Y1227379D01*
X562670Y1309412D01*
X777330D01*
X799021Y1287722D01*
Y1213414D01*
X799020Y1213413D01*
X801349Y1201707D01*
X807979Y1191784D01*
X873549Y1126214D01*
X883472Y1119584D01*
X895178Y1117255D01*
X895179Y1117256D01*
X1380259D01*
X1394245Y1107911D01*
X1411959Y1104387D01*
X1429673Y1107911D01*
X1444624Y1117901D01*
X1445994Y1115851D01*
X1461012Y1105817D01*
X1478726Y1102294D01*
X1496440Y1105817D01*
X1511457Y1115851D01*
X1521492Y1130869D01*
X1525015Y1148583D01*
X1521492Y1166297D01*
X1511457Y1181315D01*
X1496440Y1191349D01*
X1484949Y1193635D01*
X1472532Y1206052D01*
X1478272Y1219910D01*
X1516832D01*
X1759890Y976853D01*
X1759891Y976852D01*
X1769814Y970221D01*
X1781519Y967893D01*
X1834020D01*
X1837903Y961461D01*
X1839635Y952893D01*
X1710883Y824141D01*
X1309009D01*
X1297303Y821813D01*
X1287380Y815182D01*
X1287380Y815182D01*
X1250549Y778351D01*
X1055659D01*
X1052732Y782732D01*
X1037714Y792766D01*
X1020000Y796289D01*
X1002286Y792766D01*
X1001272Y792089D01*
X984605Y798993D01*
X983379Y805157D01*
X973345Y820175D01*
X958327Y830209D01*
X940613Y833732D01*
X922899Y830209D01*
X907881Y820175D01*
X897847Y805157D01*
X894772Y789699D01*
X887560Y785570D01*
X879828Y783430D01*
X831629Y831629D01*
X821705Y838259D01*
X810000Y840588D01*
X809999Y840588D01*
X480637D01*
Y842500D01*
X478114Y855181D01*
X474824Y870176D01*
X483201Y882712D01*
X486102Y897300D01*
X113897D01*
X116799Y882712D01*
X125176Y870176D01*
X121886Y855181D01*
X119363Y842500D01*
Y817500D01*
X121886Y804819D01*
X129069Y794069D01*
Y785931D01*
X121886Y775181D01*
X119363Y762500D01*
Y737500D01*
X121886Y724820D01*
X125176Y709824D01*
X116799Y697288D01*
X113897Y682700D01*
X486102D01*
X483201Y697288D01*
X474824Y709824D01*
X478114Y724819D01*
X479028Y729412D01*
X787330D01*
X928371Y588372D01*
X928371Y588371D01*
X938295Y581741D01*
X950000Y579412D01*
X1299999D01*
X1300000Y579412D01*
X1300503Y579512D01*
X1317234Y572286D01*
X1327268Y557268D01*
X1342286Y547234D01*
X1360000Y543711D01*
X1377714Y547234D01*
X1388311Y554314D01*
X1725219D01*
X1774314Y505219D01*
Y350000D01*
X1777031Y336344D01*
X1784766Y324766D01*
X1832974Y276559D01*
X1844551Y268823D01*
X1858208Y266107D01*
X2551792D01*
X2565449Y268823D01*
X2577026Y276559D01*
X2646101Y345634D01*
X2665500Y341776D01*
X2750500D01*
X2774886Y346626D01*
X2795560Y360440D01*
X2809374Y381114D01*
X2814224Y405500D01*
Y530500D01*
X2809374Y554887D01*
X2795560Y575560D01*
X2774886Y589374D01*
X2750500Y594225D01*
X2665500D01*
X2641114Y589374D01*
X2620440Y575560D01*
X2606626Y554887D01*
X2601776Y530500D01*
Y405500D01*
X2602316Y402783D01*
X2572531Y372998D01*
X2560224Y381905D01*
Y504500D01*
X2555374Y528887D01*
X2541560Y549560D01*
X2520886Y563374D01*
X2496500Y568225D01*
X2411500D01*
X2401764Y566288D01*
X2367032Y601019D01*
X2368032Y609336D01*
X2384024Y616690D01*
X2387114Y614626D01*
X2411500Y609776D01*
X2496500D01*
X2520886Y614626D01*
X2541560Y628440D01*
X2555374Y649114D01*
X2560224Y673500D01*
Y798500D01*
X2555374Y822887D01*
X2541560Y843560D01*
X2520886Y857374D01*
X2496500Y862225D01*
X2427991D01*
X2421864Y871394D01*
X2421863Y871395D01*
X2340365Y952893D01*
X2342098Y961461D01*
X2345981Y967893D01*
X2687655D01*
X2687657Y967893D01*
X2699362Y970221D01*
X2709285Y976852D01*
X2842410Y1109977D01*
X2860792Y1107146D01*
X2870547Y1092547D01*
X2893007Y1077540D01*
X2919500Y1072270D01*
X2949300D01*
Y1204000D01*
X2974700D01*
Y1072270D01*
X3004500D01*
X3030993Y1077540D01*
X3053453Y1092547D01*
X3061057Y1103927D01*
X3076057Y1099376D01*
X3076056Y840624D01*
X3061056Y836074D01*
X3053453Y847453D01*
X3030993Y862461D01*
X3004500Y867730D01*
X2974700D01*
Y736000D01*
Y604270D01*
X3004500D01*
X3030993Y609540D01*
X3053453Y624547D01*
X3061056Y635926D01*
X3076056Y631375D01*
Y546625D01*
X3061056Y542075D01*
X3053453Y553453D01*
X3030993Y568461D01*
X3004500Y573730D01*
X2974700D01*
Y442000D01*
Y310270D01*
X3004500D01*
X3030993Y315540D01*
X3053453Y330547D01*
X3061056Y341925D01*
X3076056Y337375D01*
X3076056Y233944D01*
X700000D01*
Y234024D01*
X678579Y238285D01*
X660420Y250419D01*
X648285Y268579D01*
X644025Y290000D01*
X643944D01*
X643943Y290006D01*
Y479999D01*
X640598Y496816D01*
X631072Y511072D01*
X616816Y520598D01*
X599999Y523943D01*
X100005D01*
X100000Y523944D01*
Y524025D01*
X78579Y528285D01*
X60419Y540420D01*
X48285Y558579D01*
X44025Y580000D01*
X43944D01*
Y2120000D01*
X44025D01*
X48285Y2141421D01*
X60419Y2159580D01*
X78579Y2171714D01*
X100000Y2175975D01*
Y2176056D01*
X100004Y2176056D01*
X599999D01*
X616816Y2179402D01*
X631072Y2188927D01*
X640598Y2203184D01*
X643943Y2220001D01*
Y2439981D01*
X643947Y2440000D01*
X644027D01*
X648288Y2461421D01*
X660422Y2479581D01*
X678582Y2491715D01*
X700003Y2495975D01*
Y2496056D01*
X3076058D01*
X3076058Y2364622D01*
D02*
G37*
%LPC*%
G36*
X2550000Y2450588D02*
X2549999Y2450588D01*
X1885198D01*
X1885197Y2450588D01*
X1873492Y2448259D01*
X1863568Y2441629D01*
X1746649Y2324709D01*
X1740018Y2314786D01*
X1737689Y2303080D01*
X1737690Y2303079D01*
Y2034228D01*
X1731552Y2030375D01*
X1722690Y2027781D01*
X1709962Y2036285D01*
X1692248Y2039808D01*
X1674534Y2036285D01*
X1659516Y2026251D01*
X1649482Y2011233D01*
X1645958Y1993519D01*
X1649482Y1975805D01*
X1659516Y1960787D01*
X1661660Y1959355D01*
Y1904918D01*
X1587330Y1830588D01*
X1554767D01*
X1550216Y1845588D01*
X1552732Y1847268D01*
X1562766Y1862286D01*
X1566289Y1880000D01*
X1562766Y1897714D01*
X1552732Y1912732D01*
X1542870Y1919321D01*
X1541293Y1934821D01*
X1541843Y1936675D01*
X1542732Y1937268D01*
X1552766Y1952286D01*
X1556289Y1970000D01*
X1552766Y1987714D01*
X1542732Y2002732D01*
X1527714Y2012766D01*
X1510000Y2016290D01*
X1507471Y2015787D01*
X1471629Y2051629D01*
X1461705Y2058259D01*
X1450000Y2060588D01*
X1449999Y2060588D01*
X849088D01*
X837383Y2058259D01*
X827460Y2051629D01*
X827459Y2051628D01*
X736418Y1960588D01*
X480637D01*
Y1962500D01*
X478114Y1975181D01*
X474824Y1990176D01*
X483201Y2002712D01*
X486102Y2017300D01*
X113897D01*
X116799Y2002712D01*
X125176Y1990176D01*
X121886Y1975181D01*
X119363Y1962500D01*
Y1937500D01*
X121886Y1924819D01*
X124495Y1920915D01*
X127827Y1910000D01*
X124495Y1899085D01*
X121886Y1895181D01*
X119363Y1882500D01*
Y1857500D01*
X121886Y1844820D01*
X125176Y1829824D01*
X116799Y1817288D01*
X113897Y1802700D01*
X486102D01*
X483201Y1817288D01*
X474824Y1829824D01*
X478114Y1844819D01*
X479028Y1849412D01*
X749999D01*
X750000Y1849412D01*
X761705Y1851741D01*
X771629Y1858371D01*
X862670Y1949412D01*
X936556D01*
X942083Y1936070D01*
X932450Y1925802D01*
X930000Y1926290D01*
X912286Y1922766D01*
X897268Y1912732D01*
X887234Y1897714D01*
X883710Y1880000D01*
X887234Y1862286D01*
X897268Y1847268D01*
X912286Y1837234D01*
X930000Y1833711D01*
X947714Y1837234D01*
X962732Y1847268D01*
X972130Y1861333D01*
X980000Y1862284D01*
X987870Y1861333D01*
X997268Y1847268D01*
X1012286Y1837234D01*
X1030000Y1833711D01*
X1047714Y1837234D01*
X1062732Y1847268D01*
X1064164Y1849412D01*
X1353816D01*
X1369810Y1833418D01*
X1363596Y1818419D01*
X877832D01*
X877831Y1818419D01*
X866125Y1816090D01*
X856202Y1809460D01*
X776488Y1729746D01*
X479195D01*
X478114Y1735181D01*
X474824Y1750176D01*
X483201Y1762712D01*
X486102Y1777300D01*
X113897D01*
X116799Y1762712D01*
X125176Y1750176D01*
X121886Y1735181D01*
X119363Y1722500D01*
Y1697500D01*
X121886Y1684819D01*
X124495Y1680915D01*
X127827Y1670000D01*
X124495Y1659085D01*
X121886Y1655181D01*
X119363Y1642500D01*
Y1617500D01*
X121886Y1604819D01*
X125176Y1589824D01*
X116799Y1577288D01*
X113897Y1562700D01*
X486102D01*
X483201Y1577288D01*
X474824Y1589824D01*
X478114Y1604819D01*
X479691Y1612746D01*
X793333D01*
X793334Y1612746D01*
X805040Y1615075D01*
X814963Y1621705D01*
X866897Y1673639D01*
X885737Y1671265D01*
X889737Y1665278D01*
X904755Y1655243D01*
X922469Y1651720D01*
X924998Y1652223D01*
X952167Y1625054D01*
X952167Y1625053D01*
X962091Y1618423D01*
X973796Y1616095D01*
X1356491D01*
X1401968Y1570617D01*
X1401969Y1570617D01*
X1411892Y1563986D01*
X1423598Y1561658D01*
X1562244D01*
X1562246Y1561658D01*
X1573951Y1563986D01*
X1583874Y1570617D01*
X1812670Y1799412D01*
X2589999D01*
X2590000Y1799412D01*
X2601705Y1801741D01*
X2611629Y1808371D01*
X2669033Y1865776D01*
X2750500D01*
X2774886Y1870626D01*
X2795560Y1884440D01*
X2809374Y1905114D01*
X2814224Y1929500D01*
Y2054500D01*
X2809374Y2078887D01*
X2795560Y2099560D01*
X2774886Y2113374D01*
X2750500Y2118225D01*
X2665500D01*
X2641114Y2113374D01*
X2620440Y2099560D01*
X2606626Y2078887D01*
X2601776Y2054500D01*
Y1929500D01*
X2606626Y1905114D01*
X2612727Y1895984D01*
X2577330Y1860588D01*
X2558905D01*
X2551834Y1873816D01*
X2555374Y1879114D01*
X2560224Y1903500D01*
Y2028500D01*
X2555374Y2052887D01*
X2541560Y2073560D01*
X2520886Y2087374D01*
X2496500Y2092225D01*
X2411500D01*
X2387114Y2087374D01*
X2366440Y2073560D01*
X2352626Y2052887D01*
X2347776Y2028500D01*
Y1903500D01*
X2352626Y1879114D01*
X2356166Y1873816D01*
X2349095Y1860588D01*
X2278862D01*
X2274311Y1875588D01*
X2287560Y1884440D01*
X2301374Y1905114D01*
X2306224Y1929500D01*
Y2054500D01*
X2301374Y2078887D01*
X2287560Y2099560D01*
X2266886Y2113374D01*
X2242500Y2118225D01*
X2157500D01*
X2133114Y2113374D01*
X2112440Y2099560D01*
X2098626Y2078887D01*
X2093776Y2054500D01*
Y1929500D01*
X2098626Y1905114D01*
X2112440Y1884440D01*
X2125688Y1875588D01*
X2121138Y1860588D01*
X2037686D01*
X2031945Y1874446D01*
X2051000Y1893500D01*
Y2038500D01*
X1998500Y2091000D01*
X1893500D01*
X1865486Y2062986D01*
X1852094Y2068339D01*
X1850801Y2081544D01*
X1903110Y2133853D01*
X1903500Y2133776D01*
X1988500D01*
X2012886Y2138626D01*
X2033560Y2152440D01*
X2047374Y2173114D01*
X2052224Y2197500D01*
Y2322500D01*
X2047374Y2346887D01*
X2033560Y2367560D01*
X2023305Y2374412D01*
X2027855Y2389412D01*
X2093758D01*
X2100829Y2376183D01*
X2098626Y2372887D01*
X2093776Y2348500D01*
Y2223500D01*
X2098626Y2199113D01*
X2112440Y2178440D01*
X2133114Y2164626D01*
X2157500Y2159775D01*
X2242500D01*
X2266886Y2164626D01*
X2287560Y2178440D01*
X2301374Y2199113D01*
X2306224Y2223500D01*
Y2348500D01*
X2301374Y2372887D01*
X2299171Y2376183D01*
X2306242Y2389412D01*
X2372145D01*
X2376695Y2374412D01*
X2366440Y2367560D01*
X2352626Y2346887D01*
X2347776Y2322500D01*
Y2197500D01*
X2352626Y2173114D01*
X2366440Y2152440D01*
X2387114Y2138626D01*
X2411500Y2133776D01*
X2496500D01*
X2520886Y2138626D01*
X2541560Y2152440D01*
X2555374Y2173114D01*
X2560224Y2197500D01*
Y2322500D01*
X2555374Y2346887D01*
X2548790Y2356739D01*
X2560442Y2366301D01*
X2601776Y2324967D01*
Y2223500D01*
X2606626Y2199113D01*
X2620440Y2178440D01*
X2641114Y2164626D01*
X2665500Y2159775D01*
X2750500D01*
X2774886Y2164626D01*
X2795560Y2178440D01*
X2809374Y2199113D01*
X2814224Y2223500D01*
Y2348500D01*
X2809374Y2372887D01*
X2795560Y2393560D01*
X2774886Y2407374D01*
X2750500Y2412225D01*
X2665500D01*
X2641114Y2407374D01*
X2620440Y2393560D01*
X2619764Y2393494D01*
X2571629Y2441629D01*
X2561706Y2448259D01*
X2550000Y2450588D01*
D02*
G37*
G36*
X1174249Y2364158D02*
X1145699D01*
Y2272702D01*
X1239655D01*
Y2298752D01*
X1234676Y2323782D01*
X1220498Y2345001D01*
X1199279Y2359179D01*
X1174249Y2364158D01*
D02*
G37*
G36*
X1120299D02*
X1091749D01*
X1066719Y2359179D01*
X1045499Y2345001D01*
X1031321Y2323782D01*
X1026342Y2298752D01*
Y2272702D01*
X1120299D01*
Y2364158D01*
D02*
G37*
G36*
X2949300Y2391730D02*
X2919500D01*
X2893007Y2386461D01*
X2870547Y2371453D01*
X2855540Y2348994D01*
X2850270Y2322500D01*
Y2272700D01*
X2949300D01*
Y2391730D01*
D02*
G37*
G36*
X1239655Y2247302D02*
X1145699D01*
Y2155845D01*
X1174249D01*
X1199279Y2160824D01*
X1220498Y2175002D01*
X1234676Y2196221D01*
X1239655Y2221252D01*
Y2247302D01*
D02*
G37*
G36*
X1120299D02*
X1026342D01*
Y2221252D01*
X1031321Y2196221D01*
X1045499Y2175002D01*
X1066719Y2160824D01*
X1091749Y2155845D01*
X1120299D01*
Y2247302D01*
D02*
G37*
G36*
X640000Y2156290D02*
X622286Y2152766D01*
X615502Y2148233D01*
X467485D01*
X460181Y2153114D01*
X447500Y2155637D01*
X152500D01*
X139819Y2153114D01*
X129069Y2145931D01*
X121886Y2135181D01*
X119363Y2122500D01*
Y2097500D01*
X121886Y2084820D01*
X125176Y2069824D01*
X116799Y2057288D01*
X113897Y2042700D01*
X486102D01*
X483305Y2056765D01*
X483233Y2057344D01*
X491568Y2071765D01*
X615505D01*
X622286Y2067234D01*
X640000Y2063711D01*
X657714Y2067234D01*
X672732Y2077268D01*
X682766Y2092286D01*
X686289Y2110000D01*
X682766Y2127714D01*
X672732Y2142732D01*
X657714Y2152766D01*
X640000Y2156290D01*
D02*
G37*
G36*
X2949300Y2247300D02*
X2850270D01*
Y2197500D01*
X2855540Y2171007D01*
X2870547Y2148547D01*
X2893007Y2133540D01*
X2919500Y2128270D01*
X2949300D01*
Y2247300D01*
D02*
G37*
G36*
Y2097730D02*
X2919500D01*
X2893007Y2092461D01*
X2870547Y2077453D01*
X2855540Y2054994D01*
X2850270Y2028500D01*
Y1978700D01*
X2949300D01*
Y2097730D01*
D02*
G37*
G36*
Y1953300D02*
X2850270D01*
Y1903500D01*
X2855540Y1877007D01*
X2870547Y1854547D01*
X2893007Y1839540D01*
X2919500Y1834270D01*
X2949300D01*
Y1953300D01*
D02*
G37*
G36*
Y1629730D02*
X2919500D01*
X2893007Y1624461D01*
X2870547Y1609453D01*
X2855540Y1586994D01*
X2850270Y1560500D01*
Y1510700D01*
X2949300D01*
Y1629730D01*
D02*
G37*
G36*
X486102Y1137300D02*
X113897D01*
X116799Y1122712D01*
X125176Y1110176D01*
X121886Y1095181D01*
X119363Y1082500D01*
Y1057500D01*
X121886Y1044819D01*
X124495Y1040915D01*
X127827Y1030000D01*
X124495Y1019085D01*
X121886Y1015181D01*
X119363Y1002500D01*
Y977500D01*
X121886Y964820D01*
X125176Y949824D01*
X116799Y937288D01*
X113897Y922700D01*
X486102D01*
X483201Y937288D01*
X474824Y949824D01*
X478114Y964819D01*
X480192Y975263D01*
X797094D01*
X872013Y900344D01*
X881937Y893714D01*
X893642Y891386D01*
X1290596D01*
X1290598Y891385D01*
X1302303Y893714D01*
X1312226Y900344D01*
X1338816Y926934D01*
X1341345Y926431D01*
X1359060Y929955D01*
X1374077Y939989D01*
X1384111Y955007D01*
X1386834Y968695D01*
X1398155Y974086D01*
X1402139Y974603D01*
X1444197Y932546D01*
X1444198Y932545D01*
X1454121Y925914D01*
X1462621Y924223D01*
X1467268Y917268D01*
X1482286Y907234D01*
X1500000Y903710D01*
X1517714Y907234D01*
X1532732Y917268D01*
X1542766Y932286D01*
X1546290Y950000D01*
X1542766Y967714D01*
X1532732Y982732D01*
X1517714Y992766D01*
X1500000Y996289D01*
X1482286Y992766D01*
X1475216Y988042D01*
X1417508Y1045750D01*
X1407584Y1052380D01*
X1395879Y1054709D01*
X1395878Y1054709D01*
X1304121D01*
X1292415Y1052380D01*
X1282492Y1045750D01*
X1225303Y988561D01*
X1100990D01*
X1091495Y998056D01*
X1090132Y1004904D01*
X1093993Y1010683D01*
X1097517Y1028397D01*
X1093993Y1046111D01*
X1083959Y1061128D01*
X1068942Y1071163D01*
X1051228Y1074686D01*
X1033513Y1071163D01*
X1018496Y1061128D01*
X1016683Y1058415D01*
X854843D01*
X839270Y1073988D01*
X829346Y1080619D01*
X817641Y1082948D01*
X817639Y1082947D01*
X480548D01*
X478114Y1095181D01*
X474824Y1110176D01*
X483201Y1122712D01*
X486102Y1137300D01*
D02*
G37*
G36*
X2949300Y867730D02*
X2919500D01*
X2893007Y862461D01*
X2870547Y847453D01*
X2855540Y824994D01*
X2850270Y798500D01*
Y748700D01*
X2949300D01*
Y867730D01*
D02*
G37*
G36*
X2750500Y888225D02*
X2665500D01*
X2641114Y883374D01*
X2620440Y869560D01*
X2606626Y848887D01*
X2601776Y824500D01*
Y699500D01*
X2606626Y675113D01*
X2620440Y654440D01*
X2641114Y640626D01*
X2665500Y635775D01*
X2750500D01*
X2774886Y640626D01*
X2795560Y654440D01*
X2809374Y675113D01*
X2814224Y699500D01*
Y824500D01*
X2809374Y848887D01*
X2795560Y869560D01*
X2774886Y883374D01*
X2750500Y888225D01*
D02*
G37*
G36*
X2949300Y723300D02*
X2850270D01*
Y673500D01*
X2855540Y647007D01*
X2870547Y624547D01*
X2893007Y609540D01*
X2919500Y604270D01*
X2949300D01*
Y723300D01*
D02*
G37*
G36*
X486102Y657300D02*
X113897D01*
X116799Y642712D01*
X125176Y630176D01*
X121886Y615181D01*
X119363Y602500D01*
Y577500D01*
X121886Y564819D01*
X129069Y554069D01*
X139819Y546886D01*
X152500Y544363D01*
X447500D01*
X460181Y546886D01*
X470931Y554069D01*
X471095Y554315D01*
X611688D01*
X622286Y547234D01*
X640000Y543711D01*
X657714Y547234D01*
X672732Y557268D01*
X682766Y572286D01*
X686289Y590000D01*
X682766Y607714D01*
X672732Y622732D01*
X657714Y632766D01*
X640000Y636290D01*
X622286Y632766D01*
X611690Y625687D01*
X489865D01*
X481847Y640687D01*
X483201Y642712D01*
X486102Y657300D01*
D02*
G37*
G36*
X2949300Y573730D02*
X2919500D01*
X2893007Y568461D01*
X2870547Y553453D01*
X2855540Y530994D01*
X2850270Y504500D01*
Y454700D01*
X2949300D01*
Y573730D01*
D02*
G37*
G36*
X1024248Y544158D02*
X995699D01*
Y452702D01*
X1089655D01*
Y478752D01*
X1084676Y503782D01*
X1070498Y525001D01*
X1049279Y539180D01*
X1024248Y544158D01*
D02*
G37*
G36*
X970299D02*
X941749D01*
X916719Y539180D01*
X895499Y525001D01*
X881321Y503782D01*
X876342Y478752D01*
Y452702D01*
X970299D01*
Y544158D01*
D02*
G37*
G36*
X1089655Y427302D02*
X995699D01*
Y335845D01*
X1024248D01*
X1049279Y340824D01*
X1070498Y355002D01*
X1084676Y376221D01*
X1089655Y401252D01*
Y427302D01*
D02*
G37*
G36*
X970299D02*
X876342D01*
Y401252D01*
X881321Y376221D01*
X895499Y355002D01*
X916719Y340824D01*
X941749Y335845D01*
X970299D01*
Y427302D01*
D02*
G37*
G36*
X2949300Y429300D02*
X2850270D01*
Y379500D01*
X2855540Y353007D01*
X2870547Y330547D01*
X2893007Y315540D01*
X2919500Y310270D01*
X2949300D01*
Y429300D01*
D02*
G37*
%LPD*%
D10*
X300000Y750000D02*
D03*
Y670000D02*
D03*
Y830000D02*
D03*
Y590000D02*
D03*
Y990000D02*
D03*
Y910000D02*
D03*
Y1230000D02*
D03*
Y1070000D02*
D03*
Y1470000D02*
D03*
Y1150000D02*
D03*
Y1390000D02*
D03*
Y1310000D02*
D03*
Y1630000D02*
D03*
Y1870000D02*
D03*
Y1950000D02*
D03*
Y2030000D02*
D03*
Y1550000D02*
D03*
Y2110000D02*
D03*
Y1710000D02*
D03*
Y1790000D02*
D03*
D11*
X1490892Y1731400D02*
X1549457D01*
X1550000Y1731943D01*
X1420000Y1980000D02*
X1520000Y1880000D01*
X850000Y1980000D02*
X1420000D01*
X1399000Y631000D02*
X1769000D01*
X1795000Y605000D02*
X2039001D01*
X1769000Y631000D02*
X1795000Y605000D01*
X2039001D02*
X2203998Y769997D01*
X1360000Y670000D02*
X1399000Y631000D01*
X1360000Y670000D02*
Y670000D01*
X2340480Y1070480D02*
X2457998Y1187998D01*
X2687657Y998481D02*
X2833034Y1143859D01*
X1819520Y1070480D02*
X2340480D01*
X1536912Y1294000D02*
X1796431Y1034481D01*
X1529502Y1250498D02*
X1781519Y998481D01*
X1796431Y1034481D02*
X2524480D01*
X1781519Y998481D02*
X2687657D01*
X1560000Y1330000D02*
X1819520Y1070480D01*
X2524480Y1034481D02*
X2711998Y1221998D01*
X1887409Y897409D02*
X2283030D01*
X1863409Y933409D02*
X2316592D01*
X1723553Y793553D02*
X1863409Y933409D01*
X2316592D02*
X2400235Y849766D01*
X2283030Y897409D02*
X2330000Y850439D01*
X1747553Y757553D02*
X1887409Y897409D01*
X1885197Y2420000D02*
X2550000D01*
X1768277Y1868277D02*
Y2303080D01*
X1885197Y2420000D01*
X1528246Y1628245D02*
X1768277Y1868277D01*
X2550000Y2420000D02*
X2642269Y2327732D01*
X985860Y1384021D02*
X1003095D01*
X979967Y1389914D02*
X985860Y1384021D01*
X1003095D02*
X1014618Y1372498D01*
X1742498D02*
X1810000Y1440000D01*
X1014618Y1372498D02*
X1742498D01*
X1030498Y1250498D02*
X1529502D01*
X1004371Y1294000D02*
X1536912D01*
X950000Y1330000D02*
X1560000D01*
X1478726Y1148583D02*
Y1156600D01*
X1426552Y1208774D02*
X1478726Y1156600D01*
X1409125Y1147843D02*
X1411959Y1150677D01*
X895178Y1147843D02*
X1409125D01*
X2833034Y1143859D02*
Y1384968D01*
X2457998Y1480000D02*
Y1502002D01*
X1880000Y1660000D02*
X2300000D01*
X2457998Y1502002D01*
X1810000Y1590000D02*
X1880000Y1660000D01*
X1800000Y1830000D02*
X2590000D01*
X1562246Y1592245D02*
X1800000Y1830000D01*
X2590000D02*
X2657061Y1897061D01*
X2711998Y1221998D02*
Y1252005D01*
X2330000Y594794D02*
Y850439D01*
Y594794D02*
X2417793Y507001D01*
X1309009Y793553D02*
X1723553D01*
X1324416Y757553D02*
X1747553D01*
X2400235Y801761D02*
X2432718Y769278D01*
X2400235Y801761D02*
Y849766D01*
X1800000Y1170166D02*
Y1370000D01*
X1430885Y1737693D02*
X1484600D01*
X1490892Y1731400D01*
X1810000Y1440000D02*
Y1590000D01*
X2457998Y1187998D02*
Y1226000D01*
X2711998Y1506005D02*
X2833034Y1384968D01*
X829608Y1213413D02*
X895178Y1147843D01*
X829608Y1213413D02*
Y1300392D01*
X1025594Y1185594D02*
X1048774Y1208774D01*
X865608Y1233045D02*
X913059Y1185594D01*
X1025594D01*
X1048774Y1208774D02*
X1426552D01*
X865608Y1233045D02*
Y1334392D01*
X946401Y1225993D02*
X1005993D01*
X1030498Y1250498D01*
X917008Y1255387D02*
X946401Y1225993D01*
X979909Y1277873D02*
X988244D01*
X1004371Y1294000D01*
X1367889Y1477078D02*
X1382309Y1491498D01*
X964602Y1530000D02*
X1017523Y1477078D01*
X1382309Y1491498D02*
X1390643D01*
X1017523Y1477078D02*
X1367889D01*
X890669Y1530000D02*
X964602D01*
X313432Y1456567D02*
X817236D01*
X890669Y1530000D01*
X905192Y1490000D02*
X946382D01*
X490000Y1420000D02*
X835192D01*
X905192Y1490000D01*
X998543Y1437840D02*
X1434139D01*
X946382Y1490000D02*
X998543Y1437840D01*
X924865Y1355135D02*
X950000Y1330000D01*
X924865Y1355135D02*
Y1436851D01*
X790000Y1340000D02*
X829608Y1300392D01*
X820000Y1380000D02*
X865608Y1334392D01*
X550000Y1340000D02*
X790000D01*
X530000Y1380000D02*
X820000D01*
X299999Y1470000D02*
X313432Y1456567D01*
X470052Y1400052D02*
X490000Y1420000D01*
X299999Y1230000D02*
X313456Y1243457D01*
X453457D01*
X550000Y1340000D01*
X470052Y1320052D02*
X530000Y1380000D01*
X299999Y1310000D02*
X310051Y1320052D01*
X470052D01*
X1380747Y1787831D02*
X1430885Y1737693D01*
X1366486Y1880000D02*
X1446073Y1800413D01*
X893642Y921973D02*
X1290598D01*
X809764Y1005851D02*
X893642Y921973D01*
X911878Y976428D02*
X1069866D01*
X1088320Y957973D02*
X1237973D01*
X1290598Y921973D02*
X1341345Y972721D01*
X1237973Y957973D02*
X1304121Y1024121D01*
X1069866Y976428D02*
X1088320Y957973D01*
X817641Y1052360D02*
X842173Y1027828D01*
X1050658D01*
X461715Y1052360D02*
X817641D01*
X1600000Y1800000D02*
X1692248Y1892248D01*
X1520000Y1800000D02*
X1600000D01*
X1692248Y1892248D02*
Y1993519D01*
X1820000Y1890000D02*
Y2094000D01*
X1339328Y721554D02*
X1398446D01*
X1263219Y747764D02*
X1309009Y793553D01*
X1398446Y721554D02*
X1430000Y690000D01*
X1267774Y650000D02*
X1339328Y721554D01*
X1256863Y690000D02*
X1324416Y757553D01*
X1022236Y747764D02*
X1263219D01*
X970000Y650000D02*
X1267774D01*
X990000Y690000D02*
X1256863D01*
X1395879Y1024121D02*
X1465826Y954174D01*
X1304121Y1024121D02*
X1395879D01*
X1367666Y1750000D02*
X1437123Y1680543D01*
X877831Y1787831D02*
X1380747D01*
X996911Y1698393D02*
X1368362D01*
X900000Y1750000D02*
X1367666D01*
X1437123Y1680543D02*
X1482997D01*
X1438509Y1628245D02*
X1528246D01*
X1423598Y1592245D02*
X1562246D01*
X1369161Y1646682D02*
X1423598Y1592245D01*
X1368362Y1698393D02*
X1438509Y1628245D01*
X973796Y1646682D02*
X1369161D01*
X1030000Y1880000D02*
X1366486D01*
X849088Y2030000D02*
X1450000D01*
X1510000Y1970000D01*
X749088Y1930000D02*
X849088Y2030000D01*
X750000Y1880000D02*
X850000Y1980000D01*
X800000Y760000D02*
X950000Y610000D01*
X1300000D01*
X1360000Y670000D01*
X810000Y810000D02*
X970000Y650000D01*
X461715Y1005851D02*
X809764D01*
X299999Y990001D02*
X313456Y1003457D01*
X459322D01*
X461715Y1005851D01*
X313456Y1056544D02*
X457531D01*
X461715Y1052360D01*
X299999Y1070000D02*
X313456Y1056544D01*
X1390000Y1930000D02*
X1520000Y1800000D01*
X1820000Y2094000D02*
X1949998Y2223999D01*
X1910000Y1480000D02*
X1949998D01*
X1800000Y1370000D02*
X1910000Y1480000D01*
X310001Y1880000D02*
X750000D01*
X456351Y1930000D02*
X749088D01*
X922469Y1698009D02*
X973796Y1646682D01*
X793334Y1643334D02*
X900000Y1750000D01*
X789158Y1699158D02*
X877831Y1787831D01*
X1220000Y1930000D02*
X1390000D01*
X310840Y1699158D02*
X789158D01*
X313334Y1643334D02*
X793334D01*
X299999Y1709999D02*
X310840Y1699158D01*
X299999Y1629999D02*
X313334Y1643334D01*
X299999Y1390000D02*
X310051Y1400052D01*
X470052D01*
X309998Y760000D02*
X800000D01*
X456353Y810000D02*
X810000D01*
X940613Y739387D02*
X990000Y690000D01*
X1020000Y750000D02*
X1022236Y747764D01*
X2642269Y2327732D02*
X2699732D01*
X2657061Y1971061D02*
X2711998Y2025998D01*
X2657061Y1897061D02*
Y1971061D01*
X1218600Y1931400D02*
X1220000Y1930000D01*
X930000Y1880000D02*
X981400Y1931400D01*
X1218600D01*
X1495826Y954174D02*
X1500000Y950000D01*
X1465826Y954174D02*
X1495826D01*
X940613Y739387D02*
Y787443D01*
X299999Y750001D02*
X309998Y760000D01*
X299999Y1949999D02*
X436352D01*
X456351Y1930000D01*
X299999Y1869999D02*
X310001Y1880000D01*
X436352Y830001D02*
X456353Y810000D01*
X299999Y830001D02*
X436352D01*
D12*
X1360000Y590000D02*
X1740000D01*
X1810000Y350000D02*
Y520000D01*
X1740000Y590000D02*
X1810000Y520000D01*
X2551792Y301792D02*
X2659626Y409626D01*
X1810000Y350000D02*
X1858208Y301792D01*
X2551792D01*
X300000Y590001D02*
X639999D01*
X640000Y590000D01*
X2659626Y438091D02*
X2660899Y439364D01*
X2659626Y409626D02*
Y438091D01*
X2660899Y439364D02*
X2689364D01*
X299999Y590001D02*
X300000Y590001D01*
D13*
X639999Y2109999D02*
X640000Y2110000D01*
X300000Y2109999D02*
X639999D01*
X299999Y2109998D02*
X300000Y2109999D01*
D14*
X1946000Y442000D02*
D03*
Y1204000D02*
D03*
Y1966000D02*
D03*
D15*
X2200000Y468000D02*
D03*
X2454000Y442000D02*
D03*
X2708000Y468000D02*
D03*
X2962000Y442000D02*
D03*
X1946000Y736000D02*
D03*
X2200000Y762000D02*
D03*
X2454000Y736000D02*
D03*
X2708000Y762000D02*
D03*
X2962000Y736000D02*
D03*
X2200000Y1230000D02*
D03*
X2454000Y1204000D02*
D03*
X2708000Y1230000D02*
D03*
X2962000Y1204000D02*
D03*
X1946000Y1498000D02*
D03*
X2200000Y1524000D02*
D03*
X2454000Y1498000D02*
D03*
X2708000Y1524000D02*
D03*
X2962000Y1498000D02*
D03*
X2200000Y1992000D02*
D03*
X2454000Y1966000D02*
D03*
X2708000Y1992000D02*
D03*
X2962000Y1966000D02*
D03*
X1946000Y2260000D02*
D03*
X2200000Y2286000D02*
D03*
X2454000Y2260000D02*
D03*
X2708000Y2286000D02*
D03*
X2962000Y2260000D02*
D03*
D16*
X982999Y440002D02*
D03*
X1132999Y2260002D02*
D03*
D17*
X1550000Y1731943D02*
D03*
X1520000Y1880000D02*
D03*
X1478726Y1148583D02*
D03*
X1411959Y1150677D02*
D03*
X1800000Y1170166D02*
D03*
X979909Y1277873D02*
D03*
X979967Y1389914D02*
D03*
X917008Y1255387D02*
D03*
X924865Y1436851D02*
D03*
X1446073Y1800413D02*
D03*
X911878Y976428D02*
D03*
X640000Y2110000D02*
D03*
Y590000D02*
D03*
X1820000Y1890000D02*
D03*
X1360232Y669768D02*
D03*
X1341345Y972721D02*
D03*
X1434139Y1437840D02*
D03*
X1390643Y1491498D02*
D03*
X1482997Y1680543D02*
D03*
X1051228Y1028397D02*
D03*
X1692248Y1993519D02*
D03*
X996911Y1698393D02*
D03*
X1020000Y750000D02*
D03*
X1510000Y1970000D02*
D03*
X930000Y1880000D02*
D03*
X1030000D02*
D03*
X922469Y1698009D02*
D03*
X1430000Y690000D02*
D03*
X1360000Y590000D02*
D03*
X1500000Y950000D02*
D03*
X940613Y787443D02*
D03*
%TF.MD5,102d6435ea514c25aa24af50b7ee8d13*%
M02*
