%TF.GenerationSoftware,Altium Limited,Altium Designer,25.4.2 (15)*%
G04 Layer_Color=0*
%FSLAX45Y45*%
%MOMM*%
%TF.SameCoordinates,CEB5D3C2-0C51-4B95-AE11-DBC00170FBBE*%
%TF.FilePolarity,Positive*%
%TF.FileFunction,Plated,1,2,PTH,Drill*%
%TF.Part,Single*%
G01*
G75*
%TA.AperFunction,ComponentDrill*%
%ADD30C,1.00000*%
%ADD31C,1.20000*%
%TA.AperFunction,ViaDrill,NotFilled*%
%ADD32C,0.25400*%
D30*
X1946000Y462000D02*
D03*
X2200000Y488000D02*
D03*
X2454000Y462000D02*
D03*
X2708000Y488000D02*
D03*
X2962000Y462000D02*
D03*
X1946000Y716000D02*
D03*
X2200000Y742000D02*
D03*
X2454000Y716000D02*
D03*
X2708000Y742000D02*
D03*
X2962000Y716000D02*
D03*
X1946000Y1224000D02*
D03*
X2200000Y1250000D02*
D03*
X2454000Y1224000D02*
D03*
X2708000Y1250000D02*
D03*
X2962000Y1224000D02*
D03*
X1946000Y1478000D02*
D03*
X2200000Y1504000D02*
D03*
X2454000Y1478000D02*
D03*
X2708000Y1504000D02*
D03*
X2962000Y1478000D02*
D03*
X1946000Y1986000D02*
D03*
X2200000Y2012000D02*
D03*
X2454000Y1986000D02*
D03*
X2708000Y2012000D02*
D03*
X2962000Y1986000D02*
D03*
X1946000Y2240000D02*
D03*
X2200000Y2266000D02*
D03*
X2454000Y2240000D02*
D03*
X2708000Y2266000D02*
D03*
X2962000Y2240000D02*
D03*
D31*
X982999Y440002D02*
D03*
X1132999Y2260002D02*
D03*
D32*
X1550000Y1731943D02*
D03*
X1520000Y1880000D02*
D03*
X1478726Y1148583D02*
D03*
X1411959Y1150677D02*
D03*
X1800000Y1170166D02*
D03*
X979909Y1277873D02*
D03*
X979967Y1389914D02*
D03*
X917008Y1255387D02*
D03*
X924865Y1436851D02*
D03*
X1446073Y1800413D02*
D03*
X911878Y976428D02*
D03*
X640000Y2110000D02*
D03*
Y590000D02*
D03*
X1820000Y1890000D02*
D03*
X1360232Y669768D02*
D03*
X1341345Y972721D02*
D03*
X1434139Y1437840D02*
D03*
X1390643Y1491498D02*
D03*
X1482997Y1680543D02*
D03*
X1051228Y1028397D02*
D03*
X1692248Y1993519D02*
D03*
X996911Y1698393D02*
D03*
X1020000Y750000D02*
D03*
X1510000Y1970000D02*
D03*
X930000Y1880000D02*
D03*
X1030000D02*
D03*
X922469Y1698009D02*
D03*
X1430000Y690000D02*
D03*
X1360000Y590000D02*
D03*
X1500000Y950000D02*
D03*
X940613Y787443D02*
D03*
%TF.MD5,576f6189dc6849b302aed361aa3109d4*%
M02*
