%TF.GenerationSoftware,Altium Limited,Altium Designer,25.4.2 (15)*%
G04 Layer_Color=65535*
%FSLAX45Y45*%
%MOMM*%
%TF.SameCoordinates,CEB5D3C2-0C51-4B95-AE11-DBC00170FBBE*%
%TF.FilePolarity,Positive*%
%TF.FileFunction,Legend,Top*%
%TF.Part,Single*%
G01*
G75*
%TA.AperFunction,NonConductor*%
%ADD20C,0.20000*%
%ADD21C,0.15000*%
G36*
X1944162Y318795D02*
X1980486Y275206D01*
X1907838D01*
X1944162Y318795D01*
D02*
G37*
G36*
Y1080795D02*
X1980486Y1037206D01*
X1907838D01*
X1944162Y1080795D01*
D02*
G37*
G36*
X482853Y2111789D02*
X560000Y2176080D01*
Y2047500D01*
X482853Y2111789D01*
D02*
G37*
G36*
X1944162Y1842795D02*
X1980486Y1799206D01*
X1907838D01*
X1944162Y1842795D01*
D02*
G37*
D20*
X3089000Y297000D02*
Y882000D01*
X3035000Y842000D02*
X3085000D01*
X3035000Y337000D02*
X3085000D01*
X3089000Y297000D02*
Y882000D01*
X1796000Y842000D02*
X1846000D01*
X1794000Y297000D02*
Y882000D01*
X1796000Y337000D02*
X1846000D01*
X3089000Y1059000D02*
Y1644000D01*
X3035000Y1604000D02*
X3085000D01*
X3035000Y1099000D02*
X3085000D01*
X3089000Y1059000D02*
Y1644000D01*
X1796000Y1604000D02*
X1846000D01*
X1794000Y1059000D02*
Y1644000D01*
X1796000Y1099000D02*
X1846000D01*
X3089000Y1821000D02*
Y2406000D01*
X3035000Y2366000D02*
X3085000D01*
X3035000Y1861000D02*
X3085000D01*
X3089000Y1821000D02*
Y2406000D01*
X1796000Y2366000D02*
X1846000D01*
X1794000Y1821000D02*
Y2406000D01*
X1796000Y1861000D02*
X1846000D01*
X590000Y520000D02*
Y2180000D01*
X713307Y1473355D02*
X729968Y1490016D01*
Y1523338D01*
X713307Y1540000D01*
X646662D01*
X630000Y1523338D01*
Y1490016D01*
X646662Y1473355D01*
X630000Y1440032D02*
X696645D01*
X729968Y1406709D01*
X696645Y1373387D01*
X630000D01*
X679984D01*
Y1440032D01*
X630000Y1340064D02*
X729968D01*
Y1290080D01*
X713307Y1273419D01*
X679984D01*
X663323Y1290080D01*
Y1340064D01*
X729968Y1173451D02*
Y1240096D01*
X630000D01*
Y1173451D01*
X679984Y1240096D02*
Y1206774D01*
D21*
X735000Y314974D02*
Y235000D01*
X774987D01*
X788316Y248329D01*
Y301645D01*
X774987Y314974D01*
X735000D01*
X814974D02*
Y235000D01*
X854961D01*
X868290Y248329D01*
Y261658D01*
X854961Y274987D01*
X814974D01*
X854961D01*
X868290Y288316D01*
Y301645D01*
X854961Y314974D01*
X814974D01*
X948264Y301645D02*
X934935Y314974D01*
X908277D01*
X894948Y301645D01*
Y248329D01*
X908277Y235000D01*
X934935D01*
X948264Y248329D01*
Y274987D01*
X921606D01*
X1054896Y288316D02*
X1081554Y235000D01*
X1108212Y288316D01*
X1134870Y235000D02*
X1161529D01*
X1148200D01*
Y314974D01*
X1134870Y301645D01*
X1201516Y235000D02*
Y248329D01*
X1214845D01*
Y235000D01*
X1201516D01*
X1268161D02*
X1294819D01*
X1281490D01*
Y314974D01*
X1268161Y301645D01*
X551644Y690001D02*
X564973Y676672D01*
Y650014D01*
X551644Y636685D01*
X538315D01*
X524986Y650014D01*
Y663343D01*
Y650014D01*
X511657Y636685D01*
X498328D01*
X484999Y650014D01*
Y676672D01*
X498328Y690001D01*
Y610027D02*
X484999Y596698D01*
Y570040D01*
X498328Y556711D01*
X551644D01*
X564973Y570040D01*
Y596698D01*
X551644Y610027D01*
X538315D01*
X524986Y596698D01*
Y556711D01*
X484999Y2035001D02*
Y2008343D01*
Y2021672D01*
X564973D01*
X551644Y2035001D01*
X1518316Y1571645D02*
X1504987Y1584974D01*
X1478329D01*
X1465000Y1571645D01*
Y1518329D01*
X1478329Y1505000D01*
X1504987D01*
X1518316Y1518329D01*
Y1544987D01*
X1491658D01*
X1544974Y1505000D02*
Y1584974D01*
X1584961D01*
X1598290Y1571645D01*
Y1544987D01*
X1584961Y1531658D01*
X1544974D01*
X1624948Y1584974D02*
X1651606D01*
X1638277D01*
Y1505000D01*
X1624948D01*
X1651606D01*
X1731580Y1584974D02*
X1704922D01*
X1691593Y1571645D01*
Y1518329D01*
X1704922Y1505000D01*
X1731580D01*
X1744909Y1518329D01*
Y1571645D01*
X1731580Y1584974D01*
X1518316Y2331645D02*
X1504987Y2344974D01*
X1478329D01*
X1465000Y2331645D01*
Y2278329D01*
X1478329Y2265000D01*
X1504987D01*
X1518316Y2278329D01*
Y2304987D01*
X1491658D01*
X1544974Y2265000D02*
Y2344974D01*
X1584961D01*
X1598290Y2331645D01*
Y2304987D01*
X1584961Y2291658D01*
X1544974D01*
X1624948Y2344974D02*
X1651606D01*
X1638277D01*
Y2265000D01*
X1624948D01*
X1651606D01*
X1731580Y2344974D02*
X1704922D01*
X1691593Y2331645D01*
Y2278329D01*
X1704922Y2265000D01*
X1731580D01*
X1744909Y2278329D01*
Y2331645D01*
X1731580Y2344974D01*
X2908316Y291645D02*
X2894987Y304974D01*
X2868329D01*
X2855000Y291645D01*
Y238329D01*
X2868329Y225000D01*
X2894987D01*
X2908316Y238329D01*
Y264987D01*
X2881658D01*
X2934974Y225000D02*
Y304974D01*
X2988290Y225000D01*
Y304974D01*
X3014948D02*
Y225000D01*
X3054935D01*
X3068264Y238329D01*
Y291645D01*
X3054935Y304974D01*
X3014948D01*
X2908316Y2491645D02*
X2894987Y2504974D01*
X2868329D01*
X2855000Y2491645D01*
Y2438329D01*
X2868329Y2425000D01*
X2894987D01*
X2908316Y2438329D01*
Y2464987D01*
X2881658D01*
X2934974Y2425000D02*
Y2504974D01*
X2988290Y2425000D01*
Y2504974D01*
X3014948D02*
Y2425000D01*
X3054935D01*
X3068264Y2438329D01*
Y2491645D01*
X3054935Y2504974D01*
X3014948D01*
X2908316Y981645D02*
X2894987Y994974D01*
X2868329D01*
X2855000Y981645D01*
Y928329D01*
X2868329Y915000D01*
X2894987D01*
X2908316Y928329D01*
Y954987D01*
X2881658D01*
X2934974Y915000D02*
Y994974D01*
X2988290Y915000D01*
Y994974D01*
X3014948D02*
Y915000D01*
X3054935D01*
X3068264Y928329D01*
Y981645D01*
X3054935Y994974D01*
X3014948D01*
X1735000Y1865000D02*
X1761658D01*
X1748329D01*
Y1944974D01*
X1735000Y1931645D01*
Y1105000D02*
X1761658D01*
X1748329D01*
Y1184974D01*
X1735000Y1171645D01*
X2595000Y291645D02*
X2608329Y304974D01*
X2634987D01*
X2648316Y291645D01*
Y278316D01*
X2634987Y264987D01*
X2621658D01*
X2634987D01*
X2648316Y251658D01*
Y238329D01*
X2634987Y225000D01*
X2608329D01*
X2595000Y238329D01*
X2674974Y304974D02*
Y251658D01*
X2701632Y225000D01*
X2728290Y251658D01*
Y304974D01*
X2754948Y291645D02*
X2768277Y304974D01*
X2794935D01*
X2808264Y291645D01*
Y278316D01*
X2794935Y264987D01*
X2781606D01*
X2794935D01*
X2808264Y251658D01*
Y238329D01*
X2794935Y225000D01*
X2768277D01*
X2754948Y238329D01*
X2645000Y994974D02*
Y941658D01*
X2671658Y915000D01*
X2698316Y941658D01*
Y994974D01*
X2724974D02*
X2778290D01*
X2751632D01*
Y915000D01*
X1568316Y591645D02*
X1554987Y604974D01*
X1528329D01*
X1515000Y591645D01*
Y578316D01*
X1528329Y564987D01*
X1554987D01*
X1568316Y551658D01*
Y538329D01*
X1554987Y524999D01*
X1528329D01*
X1515000Y538329D01*
X1594974Y604974D02*
Y524999D01*
X1634961D01*
X1648290Y538329D01*
Y551658D01*
X1634961Y564987D01*
X1594974D01*
X1634961D01*
X1648290Y578316D01*
Y591645D01*
X1634961Y604974D01*
X1594974D01*
X1674948D02*
Y524999D01*
X1701606Y551658D01*
X1728264Y524999D01*
Y604974D01*
X1568316Y701645D02*
X1554987Y714974D01*
X1528329D01*
X1515000Y701645D01*
Y688316D01*
X1528329Y674987D01*
X1554987D01*
X1568316Y661658D01*
Y648329D01*
X1554987Y634999D01*
X1528329D01*
X1515000Y648329D01*
X1594974Y714974D02*
Y634999D01*
X1621632Y661658D01*
X1648290Y634999D01*
Y714974D01*
X1674948D02*
Y634999D01*
X1714935D01*
X1728264Y648329D01*
Y701645D01*
X1714935Y714974D01*
X1674948D01*
X1488316Y811645D02*
X1474987Y824974D01*
X1448329D01*
X1435000Y811645D01*
Y758329D01*
X1448329Y745000D01*
X1474987D01*
X1488316Y758329D01*
Y784987D01*
X1461658D01*
X1554961Y824974D02*
X1528303D01*
X1514974Y811645D01*
Y758329D01*
X1528303Y745000D01*
X1554961D01*
X1568290Y758329D01*
Y811645D01*
X1554961Y824974D01*
X1634935D02*
X1608277D01*
X1594948Y811645D01*
Y758329D01*
X1608277Y745000D01*
X1634935D01*
X1648264Y758329D01*
Y811645D01*
X1634935Y824974D01*
X1674922D02*
Y745000D01*
X1714909D01*
X1728238Y758329D01*
Y811645D01*
X1714909Y824974D01*
X1674922D01*
X1415000Y1451645D02*
X1428329Y1464974D01*
X1454987D01*
X1468316Y1451645D01*
Y1438316D01*
X1454987Y1424987D01*
X1468316Y1411658D01*
Y1398329D01*
X1454987Y1385000D01*
X1428329D01*
X1415000Y1398329D01*
Y1411658D01*
X1428329Y1424987D01*
X1415000Y1438316D01*
Y1451645D01*
X1428329Y1424987D02*
X1454987D01*
X1494974Y1385000D02*
Y1398329D01*
X1508303D01*
Y1385000D01*
X1494974D01*
X1561619D02*
Y1398329D01*
X1574948D01*
Y1385000D01*
X1561619D01*
X1628264D02*
X1654923D01*
X1641594D01*
Y1464974D01*
X1628264Y1451645D01*
X1748226Y1464974D02*
X1694910D01*
Y1424987D01*
X1721568Y1438316D01*
X1734897D01*
X1748226Y1424987D01*
Y1398329D01*
X1734897Y1385000D01*
X1708239D01*
X1694910Y1398329D01*
X2908316Y1761645D02*
X2894987Y1774974D01*
X2868329D01*
X2855000Y1761645D01*
Y1708329D01*
X2868329Y1695000D01*
X2894987D01*
X2908316Y1708329D01*
Y1734987D01*
X2881658D01*
X2934974Y1695000D02*
Y1774974D01*
X2988290Y1695000D01*
Y1774974D01*
X3014948D02*
Y1695000D01*
X3054935D01*
X3068264Y1708329D01*
Y1761645D01*
X3054935Y1774974D01*
X3014948D01*
X1475000Y2211645D02*
X1488329Y2224974D01*
X1514987D01*
X1528316Y2211645D01*
Y2158329D01*
X1514987Y2145000D01*
X1488329D01*
X1475000Y2158329D01*
Y2211645D01*
X1554974Y2145000D02*
Y2158329D01*
X1568303D01*
Y2145000D01*
X1554974D01*
X1621619D02*
Y2158329D01*
X1634948D01*
Y2145000D01*
X1621619D01*
X1688264Y2224974D02*
X1741580D01*
Y2211645D01*
X1688264Y2158329D01*
Y2145000D01*
X728316Y2474974D02*
X675000D01*
Y2434987D01*
X701658D01*
X675000D01*
Y2395000D01*
X754974D02*
Y2474974D01*
X794961D01*
X808290Y2461645D01*
Y2434987D01*
X794961Y2421658D01*
X754974D01*
X781632D02*
X808290Y2395000D01*
X874935Y2474974D02*
X848277D01*
X834948Y2461645D01*
Y2408329D01*
X848277Y2395000D01*
X874935D01*
X888264Y2408329D01*
Y2461645D01*
X874935Y2474974D01*
X914922Y2395000D02*
Y2474974D01*
X968238Y2395000D01*
Y2474974D01*
X994896D02*
X1048213D01*
X1021554D01*
Y2395000D01*
X1725000Y345000D02*
X1751658D01*
X1738329D01*
Y424974D01*
X1725000Y411645D01*
%TF.MD5,4fbf378694b671f3c9825530de044468*%
M02*
