%TF.GenerationSoftware,Altium Limited,Altium Designer,24.8.2 (39)*%
G04 Layer_Color=65535*
%FSLAX45Y45*%
%MOMM*%
%TF.SameCoordinates,C54AC7BA-B540-4DA4-B2B9-A01D8BF79CE3*%
%TF.FilePolarity,Positive*%
%TF.FileFunction,Legend,Top*%
%TF.Part,Single*%
G01*
G75*
%TA.AperFunction,NonConductor*%
%ADD20C,0.20000*%
%ADD21C,0.15000*%
G36*
X1950000Y380000D02*
X1982158Y340000D01*
X1917843D01*
X1950000Y380000D01*
D02*
G37*
G36*
Y1140000D02*
X1982158Y1100000D01*
X1917843D01*
X1950000Y1140000D01*
D02*
G37*
G36*
X490706Y2111079D02*
X529294Y2143236D01*
Y2078921D01*
X490706Y2111079D01*
D02*
G37*
G36*
X1950000Y1800000D02*
X1982158Y1760000D01*
X1917843D01*
X1950000Y1800000D01*
D02*
G37*
D20*
X1800001Y394999D02*
X1849998D01*
X1797999Y355000D02*
Y940002D01*
X1800001Y900002D02*
X1849998D01*
X3092998Y355000D02*
Y940002D01*
X3038998Y394999D02*
X3089000D01*
X3038998Y900002D02*
X3089000D01*
X3092998Y355000D02*
Y940002D01*
X1800001Y1154999D02*
X1849998D01*
X1797999Y1114999D02*
Y1700002D01*
X1800001Y1660002D02*
X1849998D01*
X3092998Y1114999D02*
Y1700002D01*
X3038998Y1154999D02*
X3089000D01*
X3038998Y1660002D02*
X3089000D01*
X3092998Y1114999D02*
Y1700002D01*
X1800001Y1815000D02*
X1849998D01*
X1797999Y1775000D02*
Y2359998D01*
X1800001Y2319998D02*
X1849998D01*
X3092998Y1775000D02*
Y2359998D01*
X3038998Y1815000D02*
X3089000D01*
X3038998Y2319998D02*
X3089000D01*
X3092998Y1775000D02*
Y2359998D01*
X590001Y519999D02*
Y2180001D01*
D21*
X1518316Y1511645D02*
X1504987Y1524974D01*
X1478329D01*
X1465000Y1511645D01*
Y1458329D01*
X1478329Y1445000D01*
X1504987D01*
X1518316Y1458329D01*
Y1484987D01*
X1491658D01*
X1544974Y1445000D02*
Y1524974D01*
X1584961D01*
X1598290Y1511645D01*
Y1484987D01*
X1584961Y1471658D01*
X1544974D01*
X1624948Y1524974D02*
X1651606D01*
X1638277D01*
Y1445000D01*
X1624948D01*
X1651606D01*
X1731580Y1524974D02*
X1704922D01*
X1691593Y1511645D01*
Y1458329D01*
X1704922Y1445000D01*
X1731580D01*
X1744909Y1458329D01*
Y1511645D01*
X1731580Y1524974D01*
X1518316Y2251645D02*
X1504987Y2264974D01*
X1478329D01*
X1465000Y2251645D01*
Y2198329D01*
X1478329Y2185000D01*
X1504987D01*
X1518316Y2198329D01*
Y2224987D01*
X1491658D01*
X1544974Y2185000D02*
Y2264974D01*
X1584961D01*
X1598290Y2251645D01*
Y2224987D01*
X1584961Y2211658D01*
X1544974D01*
X1624948Y2264974D02*
X1651606D01*
X1638277D01*
Y2185000D01*
X1624948D01*
X1651606D01*
X1731580Y2264974D02*
X1704922D01*
X1691593Y2251645D01*
Y2198329D01*
X1704922Y2185000D01*
X1731580D01*
X1744909Y2198329D01*
Y2251645D01*
X1731580Y2264974D01*
X2908315Y361645D02*
X2894987Y374974D01*
X2868329D01*
X2854999Y361645D01*
Y308329D01*
X2868329Y295000D01*
X2894987D01*
X2908315Y308329D01*
Y334987D01*
X2881657D01*
X2934974Y295000D02*
Y374974D01*
X2988290Y295000D01*
Y374974D01*
X3014948D02*
Y295000D01*
X3054935D01*
X3068264Y308329D01*
Y361645D01*
X3054935Y374974D01*
X3014948D01*
X2908315Y2411645D02*
X2894987Y2424974D01*
X2868329D01*
X2854999Y2411645D01*
Y2358329D01*
X2868329Y2345000D01*
X2894987D01*
X2908315Y2358329D01*
Y2384987D01*
X2881657D01*
X2934974Y2345000D02*
Y2424974D01*
X2988290Y2345000D01*
Y2424974D01*
X3014948D02*
Y2345000D01*
X3054935D01*
X3068264Y2358329D01*
Y2411645D01*
X3054935Y2424974D01*
X3014948D01*
X2918316Y1061645D02*
X2904987Y1074974D01*
X2878329D01*
X2865000Y1061645D01*
Y1008329D01*
X2878329Y995000D01*
X2904987D01*
X2918316Y1008329D01*
Y1034987D01*
X2891658D01*
X2944974Y995000D02*
Y1074974D01*
X2998290Y995000D01*
Y1074974D01*
X3024948D02*
Y995000D01*
X3064935D01*
X3078264Y1008329D01*
Y1061645D01*
X3064935Y1074974D01*
X3024948D01*
X1895000Y1745000D02*
Y1771658D01*
Y1758329D01*
X1815026D01*
X1828355Y1745000D01*
X1895000Y1075000D02*
Y1101658D01*
Y1088329D01*
X1815026D01*
X1828355Y1075000D01*
X2595000Y371645D02*
X2608329Y384974D01*
X2634987D01*
X2648316Y371645D01*
Y358316D01*
X2634987Y344987D01*
X2621658D01*
X2634987D01*
X2648316Y331658D01*
Y318329D01*
X2634987Y305000D01*
X2608329D01*
X2595000Y318329D01*
X2674974Y384974D02*
Y331658D01*
X2701632Y305000D01*
X2728290Y331658D01*
Y384974D01*
X2754948Y371645D02*
X2768277Y384974D01*
X2794935D01*
X2808264Y371645D01*
Y358316D01*
X2794935Y344987D01*
X2781606D01*
X2794935D01*
X2808264Y331658D01*
Y318329D01*
X2794935Y305000D01*
X2768277D01*
X2754948Y318329D01*
X2645000Y1034974D02*
Y981658D01*
X2671658Y955000D01*
X2698316Y981658D01*
Y1034974D01*
X2724974D02*
X2778290D01*
X2751632D01*
Y955000D01*
X1558316Y651645D02*
X1544987Y664974D01*
X1518329D01*
X1505000Y651645D01*
Y638316D01*
X1518329Y624987D01*
X1544987D01*
X1558316Y611658D01*
Y598329D01*
X1544987Y585000D01*
X1518329D01*
X1505000Y598329D01*
X1584974Y664974D02*
Y585000D01*
X1624961D01*
X1638290Y598329D01*
Y611658D01*
X1624961Y624987D01*
X1584974D01*
X1624961D01*
X1638290Y638316D01*
Y651645D01*
X1624961Y664974D01*
X1584974D01*
X1664948D02*
Y585000D01*
X1691606Y611658D01*
X1718264Y585000D01*
Y664974D01*
X1558316Y761645D02*
X1544987Y774974D01*
X1518329D01*
X1505000Y761645D01*
Y748316D01*
X1518329Y734987D01*
X1544987D01*
X1558316Y721658D01*
Y708329D01*
X1544987Y695000D01*
X1518329D01*
X1505000Y708329D01*
X1584974Y774974D02*
Y695000D01*
X1611632Y721658D01*
X1638290Y695000D01*
Y774974D01*
X1664948D02*
Y695000D01*
X1704935D01*
X1718264Y708329D01*
Y761645D01*
X1704935Y774974D01*
X1664948D01*
X1478316Y871645D02*
X1464987Y884974D01*
X1438329D01*
X1425000Y871645D01*
Y818329D01*
X1438329Y805000D01*
X1464987D01*
X1478316Y818329D01*
Y844987D01*
X1451658D01*
X1544961Y884974D02*
X1518303D01*
X1504974Y871645D01*
Y818329D01*
X1518303Y805000D01*
X1544961D01*
X1558290Y818329D01*
Y871645D01*
X1544961Y884974D01*
X1624935D02*
X1598277D01*
X1584948Y871645D01*
Y818329D01*
X1598277Y805000D01*
X1624935D01*
X1638264Y818329D01*
Y871645D01*
X1624935Y884974D01*
X1664922D02*
Y805000D01*
X1704909D01*
X1718238Y818329D01*
Y871645D01*
X1704909Y884974D01*
X1664922D01*
X1415000Y1391645D02*
X1428329Y1404974D01*
X1454987D01*
X1468316Y1391645D01*
Y1378316D01*
X1454987Y1364987D01*
X1468316Y1351658D01*
Y1338329D01*
X1454987Y1325000D01*
X1428329D01*
X1415000Y1338329D01*
Y1351658D01*
X1428329Y1364987D01*
X1415000Y1378316D01*
Y1391645D01*
X1428329Y1364987D02*
X1454987D01*
X1494974Y1325000D02*
Y1338329D01*
X1508303D01*
Y1325000D01*
X1494974D01*
X1561619D02*
Y1338329D01*
X1574948D01*
Y1325000D01*
X1561619D01*
X1628264D02*
X1654923D01*
X1641594D01*
Y1404974D01*
X1628264Y1391645D01*
X1748226Y1404974D02*
X1694910D01*
Y1364987D01*
X1721568Y1378316D01*
X1734897D01*
X1748226Y1364987D01*
Y1338329D01*
X1734897Y1325000D01*
X1708239D01*
X1694910Y1338329D01*
X2918316Y1771645D02*
X2904987Y1784974D01*
X2878329D01*
X2865000Y1771645D01*
Y1718329D01*
X2878329Y1705000D01*
X2904987D01*
X2918316Y1718329D01*
Y1744987D01*
X2891658D01*
X2944974Y1705000D02*
Y1784974D01*
X2998290Y1705000D01*
Y1784974D01*
X3024948D02*
Y1705000D01*
X3064935D01*
X3078264Y1718329D01*
Y1771645D01*
X3064935Y1784974D01*
X3024948D01*
X1475000Y2131645D02*
X1488329Y2144974D01*
X1514987D01*
X1528316Y2131645D01*
Y2078329D01*
X1514987Y2065000D01*
X1488329D01*
X1475000Y2078329D01*
Y2131645D01*
X1554974Y2065000D02*
Y2078329D01*
X1568303D01*
Y2065000D01*
X1554974D01*
X1621619D02*
Y2078329D01*
X1634948D01*
Y2065000D01*
X1621619D01*
X1688264Y2144974D02*
X1741580D01*
Y2131645D01*
X1688264Y2078329D01*
Y2065000D01*
X551644Y650001D02*
X564973Y636672D01*
Y610014D01*
X551644Y596685D01*
X538315D01*
X524986Y610014D01*
Y623343D01*
Y610014D01*
X511657Y596685D01*
X498328D01*
X484999Y610014D01*
Y636672D01*
X498328Y650001D01*
Y570027D02*
X484999Y556698D01*
Y530040D01*
X498328Y516711D01*
X551644D01*
X564973Y530040D01*
Y556698D01*
X551644Y570027D01*
X538315D01*
X524986Y556698D01*
Y516711D01*
X484999Y2174999D02*
Y2148341D01*
Y2161670D01*
X564973D01*
X551644Y2174999D01*
X111645Y1821684D02*
X124974Y1835013D01*
Y1861671D01*
X111645Y1875000D01*
X58329D01*
X45000Y1861671D01*
Y1835013D01*
X58329Y1821684D01*
X45000Y1795026D02*
X98316D01*
X124974Y1768368D01*
X98316Y1741710D01*
X45000D01*
X84987D01*
Y1795026D01*
X45000Y1715052D02*
X124974D01*
Y1675065D01*
X111645Y1661736D01*
X84987D01*
X71658Y1675065D01*
Y1715052D01*
X124974Y1581762D02*
Y1635078D01*
X45000D01*
Y1581762D01*
X84987Y1635078D02*
Y1608420D01*
X695000Y2354974D02*
X748316D01*
X721658D01*
Y2275000D01*
X814961Y2354974D02*
X788303D01*
X774974Y2341645D01*
Y2288329D01*
X788303Y2275000D01*
X814961D01*
X828290Y2288329D01*
Y2341645D01*
X814961Y2354974D01*
X854948Y2275000D02*
Y2354974D01*
X894935D01*
X908264Y2341645D01*
Y2314987D01*
X894935Y2301658D01*
X854948D01*
X1895000Y325000D02*
Y351658D01*
Y338329D01*
X1815026D01*
X1828355Y325000D01*
%TF.MD5,bf68a3a22ab3cadaa4142cb83854c86f*%
M02*
