%TF.GenerationSoftware,Altium Limited,Altium Designer,24.8.2 (39)*%
G04 Layer_Color=0*
%FSLAX45Y45*%
%MOMM*%
%TF.SameCoordinates,C54AC7BA-B540-4DA4-B2B9-A01D8BF79CE3*%
%TF.FilePolarity,Positive*%
%TF.FileFunction,Plated,1,2,PTH,Drill*%
%TF.Part,Single*%
G01*
G75*
%TA.AperFunction,ComponentDrill*%
%ADD30C,1.00000*%
%ADD31C,1.20000*%
%TA.AperFunction,ViaDrill,NotFilled*%
%ADD32C,0.25400*%
D30*
X2965998Y773998D02*
D03*
X2711998Y799997D02*
D03*
X2457998Y773998D02*
D03*
X2203998Y799997D02*
D03*
X1949998Y773998D02*
D03*
X2965998Y519998D02*
D03*
X2711998Y545997D02*
D03*
X2457998Y519998D02*
D03*
X2203998Y545997D02*
D03*
X1949998Y519998D02*
D03*
X2965998Y1533998D02*
D03*
X2711998Y1560002D02*
D03*
X2457998Y1533998D02*
D03*
X2203998Y1560002D02*
D03*
X1949998Y1533998D02*
D03*
X2965998Y1279998D02*
D03*
X2711998Y1306002D02*
D03*
X2457998Y1279998D02*
D03*
X2203998Y1306002D02*
D03*
X1949998Y1279998D02*
D03*
X2965998Y2193998D02*
D03*
X2711998Y2219998D02*
D03*
X2457998Y2193998D02*
D03*
X2203998Y2219998D02*
D03*
X1949998Y2193998D02*
D03*
X2965998Y1939998D02*
D03*
X2711998Y1965998D02*
D03*
X2457998Y1939998D02*
D03*
X2203998Y1965998D02*
D03*
X1949998Y1939998D02*
D03*
D31*
X982999Y440003D02*
D03*
X1132996Y2260000D02*
D03*
D32*
X979909Y1277873D02*
D03*
X979967Y1389914D02*
D03*
X917008Y1255387D02*
D03*
X924865Y1436851D02*
D03*
X1446073Y1800413D02*
D03*
X911878Y976428D02*
D03*
X640000Y2110000D02*
D03*
Y590000D02*
D03*
X1800000Y1170166D02*
D03*
X1820000Y1890000D02*
D03*
X1360232Y669768D02*
D03*
X1341345Y972721D02*
D03*
X1434139Y1437840D02*
D03*
X1390643Y1491498D02*
D03*
X1482997Y1680543D02*
D03*
X1051228Y1028397D02*
D03*
X1411959Y1150677D02*
D03*
X1478726Y1148583D02*
D03*
X1692248Y1993519D02*
D03*
X996911Y1698393D02*
D03*
X1020000Y750000D02*
D03*
X1520000Y1880000D02*
D03*
X1510000Y1970000D02*
D03*
X930000Y1880000D02*
D03*
X1030000D02*
D03*
X922469Y1698009D02*
D03*
X1430000Y690000D02*
D03*
X1360000Y590000D02*
D03*
X1500000Y950000D02*
D03*
X940613Y787443D02*
D03*
X1550000Y1730000D02*
D03*
%TF.MD5,2468a993df72001a25f70e5c62f8ec7c*%
M02*
