%TF.GenerationSoftware,Altium Limited,Altium Designer,24.8.2 (39)*%
G04 Layer_Color=32768*
%FSLAX45Y45*%
%MOMM*%
%TF.SameCoordinates,C54AC7BA-B540-4DA4-B2B9-A01D8BF79CE3*%
%TF.FilePolarity,Positive*%
%TF.FileFunction,Other,Assembly_Notes*%
%TF.Part,Single*%
G01*
G75*
%TA.AperFunction,NonConductor*%
%ADD20C,0.20000*%
%ADD27C,0.10000*%
%ADD28C,0.25400*%
D20*
X73322Y53322D02*
X40000Y86645D01*
Y119968D01*
X73322Y153290D01*
X123306Y136629D02*
X139968Y153290D01*
X173290D01*
X189951Y136629D01*
Y69984D01*
X173290Y53322D01*
X139968D01*
X123306Y69984D01*
Y136629D01*
X239936Y36661D02*
X256597Y53322D01*
Y69984D01*
X239936D01*
Y53322D01*
X256597D01*
X239936Y36661D01*
X223274Y20000D01*
X323242Y136629D02*
X339903Y153290D01*
X373226D01*
X389887Y136629D01*
Y69984D01*
X373226Y53322D01*
X339903D01*
X323242Y69984D01*
Y136629D01*
X423210Y53322D02*
X456532Y86645D01*
Y119968D01*
X423210Y153290D01*
D27*
X1218360Y2110002D02*
G03*
X1218360Y2110002I-22361J0D01*
G01*
X322361Y2110000D02*
G03*
X322361Y2110000I-22361J0D01*
G01*
X1031000Y2374081D02*
X1085996D01*
X1326001D01*
X1026921D02*
X1031000D01*
X1146001Y2110003D02*
X1246001D01*
X1195999Y2060000D02*
Y2160000D01*
X1326001Y1320002D02*
Y2374081D01*
X640998Y325002D02*
Y2374081D01*
Y325002D02*
X1326001D01*
X640998Y2374081D02*
X1026921D01*
X1326001Y325002D02*
Y1320002D01*
X250002Y2109998D02*
X350002D01*
X299999Y2060001D02*
Y2160001D01*
X-3002Y2220001D02*
X591998D01*
X-3002Y479999D02*
X591998D01*
X590001Y2065000D02*
Y2164999D01*
X-3002Y479999D02*
Y2220001D01*
D28*
X0Y-76200D02*
Y76200D01*
X-76200Y0D02*
X76200D01*
%TF.MD5,b237fe2a8e51dae79d3232f55df4fbac*%
M02*
