%TF.GenerationSoftware,Altium Limited,Altium Designer,25.4.2 (15)*%
G04 Layer_Color=255*
%FSLAX45Y45*%
%MOMM*%
%TF.SameCoordinates,CEB5D3C2-0C51-4B95-AE11-DBC00170FBBE*%
%TF.FilePolarity,Positive*%
%TF.FileFunction,Pads,Bot*%
%TF.Part,Single*%
G01*
G75*
%TA.AperFunction,SMDPad,CuDef*%
G04:AMPARAMS|DCode=10|XSize=3.2mm|YSize=0.5mm|CornerRadius=0.125mm|HoleSize=0mm|Usage=FLASHONLY|Rotation=0.000|XOffset=0mm|YOffset=0mm|HoleType=Round|Shape=RoundedRectangle|*
%AMROUNDEDRECTD10*
21,1,3.20000,0.25000,0,0,0.0*
21,1,2.95000,0.50000,0,0,0.0*
1,1,0.25000,1.47500,-0.12500*
1,1,0.25000,-1.47500,-0.12500*
1,1,0.25000,-1.47500,0.12500*
1,1,0.25000,1.47500,0.12500*
%
%ADD10ROUNDEDRECTD10*%
%TA.AperFunction,ComponentPad*%
G04:AMPARAMS|DCode=14|XSize=1.7mm|YSize=2.1mm|CornerRadius=0mm|HoleSize=0mm|Usage=FLASHONLY|Rotation=0.000|XOffset=0mm|YOffset=0mm|HoleType=Round|Shape=Octagon|*
%AMOCTAGOND14*
4,1,8,-0.42500,1.05000,0.42500,1.05000,0.85000,0.62500,0.85000,-0.62500,0.42500,-1.05000,-0.42500,-1.05000,-0.85000,-0.62500,-0.85000,0.62500,-0.42500,1.05000,0.0*
%
%ADD14OCTAGOND14*%

G04:AMPARAMS|DCode=15|XSize=1.7mm|YSize=2.1mm|CornerRadius=0.425mm|HoleSize=0mm|Usage=FLASHONLY|Rotation=0.000|XOffset=0mm|YOffset=0mm|HoleType=Round|Shape=RoundedRectangle|*
%AMROUNDEDRECTD15*
21,1,1.70000,1.25001,0,0,0.0*
21,1,0.85000,2.10000,0,0,0.0*
1,1,0.85000,0.42500,-0.62500*
1,1,0.85000,-0.42500,-0.62500*
1,1,0.85000,-0.42500,0.62500*
1,1,0.85000,0.42500,0.62500*
%
%ADD15ROUNDEDRECTD15*%
G04:AMPARAMS|DCode=16|XSize=1.55mm|YSize=1.6mm|CornerRadius=0.3875mm|HoleSize=0mm|Usage=FLASHONLY|Rotation=270.000|XOffset=0mm|YOffset=0mm|HoleType=Round|Shape=RoundedRectangle|*
%AMROUNDEDRECTD16*
21,1,1.55000,0.82500,0,0,270.0*
21,1,0.77500,1.60000,0,0,270.0*
1,1,0.77500,-0.41250,-0.38750*
1,1,0.77500,-0.41250,0.38750*
1,1,0.77500,0.41250,0.38750*
1,1,0.77500,0.41250,-0.38750*
%
%ADD16ROUNDEDRECTD16*%
%TA.AperFunction,SMDPad,CuDef*%
G04:AMPARAMS|DCode=18|XSize=2.2mm|YSize=0.5mm|CornerRadius=0.125mm|HoleSize=0mm|Usage=FLASHONLY|Rotation=180.000|XOffset=0mm|YOffset=0mm|HoleType=Round|Shape=RoundedRectangle|*
%AMROUNDEDRECTD18*
21,1,2.20000,0.25000,0,0,180.0*
21,1,1.95000,0.50000,0,0,180.0*
1,1,0.25000,-0.97500,0.12500*
1,1,0.25000,0.97500,0.12500*
1,1,0.25000,0.97500,-0.12500*
1,1,0.25000,-0.97500,-0.12500*
%
%ADD18ROUNDEDRECTD18*%
D10*
X300000Y2110000D02*
D03*
Y1870000D02*
D03*
Y1950000D02*
D03*
Y2030000D02*
D03*
Y1710000D02*
D03*
Y1790000D02*
D03*
Y1630000D02*
D03*
Y1550000D02*
D03*
Y1470000D02*
D03*
Y1390000D02*
D03*
Y1310000D02*
D03*
Y1230000D02*
D03*
Y1150000D02*
D03*
Y1070000D02*
D03*
Y990000D02*
D03*
Y910000D02*
D03*
Y830000D02*
D03*
Y750000D02*
D03*
Y670000D02*
D03*
Y590000D02*
D03*
D14*
X1946000Y442000D02*
D03*
Y1204000D02*
D03*
Y1966000D02*
D03*
D15*
X2200000Y468000D02*
D03*
X2454000Y442000D02*
D03*
X2708000Y468000D02*
D03*
X2962000Y442000D02*
D03*
X1946000Y736000D02*
D03*
X2200000Y762000D02*
D03*
X2454000Y736000D02*
D03*
X2708000Y762000D02*
D03*
X2962000Y736000D02*
D03*
X2200000Y1230000D02*
D03*
X2454000Y1204000D02*
D03*
X2708000Y1230000D02*
D03*
X2962000Y1204000D02*
D03*
X1946000Y1498000D02*
D03*
X2200000Y1524000D02*
D03*
X2454000Y1498000D02*
D03*
X2708000Y1524000D02*
D03*
X2962000Y1498000D02*
D03*
X2200000Y1992000D02*
D03*
X2454000Y1966000D02*
D03*
X2708000Y1992000D02*
D03*
X2962000Y1966000D02*
D03*
X1946000Y2260000D02*
D03*
X2200000Y2286000D02*
D03*
X2454000Y2260000D02*
D03*
X2708000Y2286000D02*
D03*
X2962000Y2260000D02*
D03*
D16*
X982999Y440002D02*
D03*
X1132999Y2260002D02*
D03*
D18*
X1185999Y2110002D02*
D03*
X779999D02*
D03*
X1185999Y2030002D02*
D03*
Y1950002D02*
D03*
Y1870002D02*
D03*
Y1790002D02*
D03*
Y1710002D02*
D03*
Y1630002D02*
D03*
Y1550002D02*
D03*
Y1470002D02*
D03*
Y1390002D02*
D03*
Y1310002D02*
D03*
Y1230002D02*
D03*
Y1150002D02*
D03*
Y1070002D02*
D03*
Y990002D02*
D03*
Y910001D02*
D03*
Y830002D02*
D03*
Y750002D02*
D03*
Y670001D02*
D03*
Y590002D02*
D03*
X779999Y2030002D02*
D03*
Y1950002D02*
D03*
Y1870002D02*
D03*
Y1790002D02*
D03*
Y1710002D02*
D03*
Y1630002D02*
D03*
Y1550002D02*
D03*
Y1470002D02*
D03*
Y1390002D02*
D03*
Y1310002D02*
D03*
Y1230002D02*
D03*
Y1150002D02*
D03*
Y1070002D02*
D03*
Y990002D02*
D03*
Y910001D02*
D03*
Y830002D02*
D03*
Y750002D02*
D03*
Y670001D02*
D03*
Y590002D02*
D03*
%TF.MD5,f1f182c9be60439794d9df3321dde542*%
M02*
