%TF.GenerationSoftware,Altium Limited,Altium Designer,25.4.2 (15)*%
G04 Layer_Physical_Order=2*
G04 Layer_Color=16711680*
%FSLAX45Y45*%
%MOMM*%
%TF.SameCoordinates,CEB5D3C2-0C51-4B95-AE11-DBC00170FBBE*%
%TF.FilePolarity,Positive*%
%TF.FileFunction,Copper,L2,Bot,Signal*%
%TF.Part,Single*%
G01*
G75*
%TA.AperFunction,SMDPad,CuDef*%
G04:AMPARAMS|DCode=10|XSize=3.2mm|YSize=0.5mm|CornerRadius=0.125mm|HoleSize=0mm|Usage=FLASHONLY|Rotation=0.000|XOffset=0mm|YOffset=0mm|HoleType=Round|Shape=RoundedRectangle|*
%AMROUNDEDRECTD10*
21,1,3.20000,0.25000,0,0,0.0*
21,1,2.95000,0.50000,0,0,0.0*
1,1,0.25000,1.47500,-0.12500*
1,1,0.25000,-1.47500,-0.12500*
1,1,0.25000,-1.47500,0.12500*
1,1,0.25000,1.47500,0.12500*
%
%ADD10ROUNDEDRECTD10*%
%TA.AperFunction,Conductor*%
%ADD11C,0.20000*%
%ADD12C,0.30000*%
%ADD13C,0.35000*%
%TA.AperFunction,ComponentPad*%
G04:AMPARAMS|DCode=14|XSize=1.7mm|YSize=2.1mm|CornerRadius=0mm|HoleSize=0mm|Usage=FLASHONLY|Rotation=0.000|XOffset=0mm|YOffset=0mm|HoleType=Round|Shape=Octagon|*
%AMOCTAGOND14*
4,1,8,-0.42500,1.05000,0.42500,1.05000,0.85000,0.62500,0.85000,-0.62500,0.42500,-1.05000,-0.42500,-1.05000,-0.85000,-0.62500,-0.85000,0.62500,-0.42500,1.05000,0.0*
%
%ADD14OCTAGOND14*%

G04:AMPARAMS|DCode=15|XSize=1.7mm|YSize=2.1mm|CornerRadius=0.425mm|HoleSize=0mm|Usage=FLASHONLY|Rotation=0.000|XOffset=0mm|YOffset=0mm|HoleType=Round|Shape=RoundedRectangle|*
%AMROUNDEDRECTD15*
21,1,1.70000,1.25001,0,0,0.0*
21,1,0.85000,2.10000,0,0,0.0*
1,1,0.85000,0.42500,-0.62500*
1,1,0.85000,-0.42500,-0.62500*
1,1,0.85000,-0.42500,0.62500*
1,1,0.85000,0.42500,0.62500*
%
%ADD15ROUNDEDRECTD15*%
G04:AMPARAMS|DCode=16|XSize=1.55mm|YSize=1.6mm|CornerRadius=0.3875mm|HoleSize=0mm|Usage=FLASHONLY|Rotation=270.000|XOffset=0mm|YOffset=0mm|HoleType=Round|Shape=RoundedRectangle|*
%AMROUNDEDRECTD16*
21,1,1.55000,0.82500,0,0,270.0*
21,1,0.77500,1.60000,0,0,270.0*
1,1,0.77500,-0.41250,-0.38750*
1,1,0.77500,-0.41250,0.38750*
1,1,0.77500,0.41250,0.38750*
1,1,0.77500,0.41250,-0.38750*
%
%ADD16ROUNDEDRECTD16*%
%TA.AperFunction,ViaPad*%
%ADD17C,0.50800*%
%TA.AperFunction,SMDPad,CuDef*%
G04:AMPARAMS|DCode=18|XSize=2.2mm|YSize=0.5mm|CornerRadius=0.125mm|HoleSize=0mm|Usage=FLASHONLY|Rotation=180.000|XOffset=0mm|YOffset=0mm|HoleType=Round|Shape=RoundedRectangle|*
%AMROUNDEDRECTD18*
21,1,2.20000,0.25000,0,0,180.0*
21,1,1.95000,0.50000,0,0,180.0*
1,1,0.25000,-0.97500,0.12500*
1,1,0.25000,0.97500,0.12500*
1,1,0.25000,0.97500,-0.12500*
1,1,0.25000,-0.97500,-0.12500*
%
%ADD18ROUNDEDRECTD18*%
%TA.AperFunction,Conductor*%
%ADD19C,0.40000*%
G36*
X1828126Y2482198D02*
X1742964Y2397036D01*
X1734676Y2384632D01*
X1731766Y2370000D01*
Y2195837D01*
X1684166Y2148237D01*
X1303481D01*
X1296180Y2153116D01*
X1283499Y2155638D01*
X1218518D01*
X1213968Y2170638D01*
X1220498Y2175002D01*
X1234676Y2196221D01*
X1239655Y2221252D01*
Y2247302D01*
X1132999D01*
X1026342D01*
Y2221252D01*
X1031321Y2196221D01*
X1045499Y2175002D01*
X1063113Y2163233D01*
X1058983Y2148233D01*
X897488D01*
X890180Y2153116D01*
X877499Y2155638D01*
X682499D01*
X669818Y2153116D01*
X663504Y2148897D01*
X657714Y2152766D01*
X640000Y2156290D01*
X622286Y2152766D01*
X615502Y2148233D01*
X467485D01*
X460181Y2153114D01*
X447500Y2155637D01*
X152500D01*
X139819Y2153114D01*
X129069Y2145931D01*
X121886Y2135181D01*
X119363Y2122500D01*
Y2097500D01*
X121886Y2084820D01*
X125176Y2069824D01*
X116799Y2057288D01*
X113897Y2042700D01*
X300000D01*
Y2017300D01*
X113897D01*
X116799Y2002712D01*
X125176Y1990176D01*
X121886Y1975181D01*
X119363Y1962500D01*
Y1937500D01*
X121886Y1924819D01*
X124495Y1920915D01*
X127827Y1910000D01*
X124495Y1899085D01*
X121886Y1895181D01*
X119363Y1882500D01*
Y1857500D01*
X121886Y1844820D01*
X125176Y1829824D01*
X116799Y1817288D01*
X113897Y1802700D01*
X300000D01*
Y1777300D01*
X113897D01*
X116799Y1762712D01*
X125176Y1750176D01*
X121886Y1735181D01*
X119363Y1722500D01*
Y1697500D01*
X121886Y1684819D01*
X124495Y1680915D01*
X127827Y1670000D01*
X124495Y1659085D01*
X121886Y1655181D01*
X119363Y1642500D01*
Y1617500D01*
X121886Y1604819D01*
X125176Y1589824D01*
X116799Y1577288D01*
X113897Y1562700D01*
X300000D01*
Y1537300D01*
X113897D01*
X116799Y1522712D01*
X125176Y1510176D01*
X121886Y1495181D01*
X119363Y1482500D01*
Y1457500D01*
X121886Y1444819D01*
X124495Y1440915D01*
X127827Y1430000D01*
X124495Y1419085D01*
X121886Y1415181D01*
X119363Y1402500D01*
Y1377500D01*
X121886Y1364819D01*
X129069Y1354069D01*
Y1345931D01*
X121886Y1335181D01*
X119363Y1322500D01*
Y1297500D01*
X121886Y1284819D01*
X124495Y1280915D01*
X127827Y1270000D01*
X124495Y1259085D01*
X121886Y1255181D01*
X119363Y1242500D01*
Y1217500D01*
X121886Y1204820D01*
X125176Y1189824D01*
X116799Y1177288D01*
X113897Y1162700D01*
X300000D01*
Y1137300D01*
X113897D01*
X116799Y1122712D01*
X125176Y1110176D01*
X121886Y1095181D01*
X119363Y1082500D01*
Y1057500D01*
X121886Y1044819D01*
X124495Y1040915D01*
X127827Y1030000D01*
X124495Y1019085D01*
X121886Y1015181D01*
X119363Y1002500D01*
Y977500D01*
X121886Y964820D01*
X125176Y949824D01*
X116799Y937288D01*
X113897Y922700D01*
X300000D01*
Y897300D01*
X113897D01*
X116799Y882712D01*
X125176Y870176D01*
X121886Y855181D01*
X119363Y842500D01*
Y817500D01*
X121886Y804819D01*
X129069Y794069D01*
Y785931D01*
X121886Y775181D01*
X119363Y762500D01*
Y737500D01*
X121886Y724820D01*
X125176Y709824D01*
X116799Y697288D01*
X113897Y682700D01*
X300000D01*
Y657300D01*
X113897D01*
X116799Y642712D01*
X125176Y630176D01*
X121886Y615181D01*
X119363Y602500D01*
Y577500D01*
X121886Y564819D01*
X129069Y554069D01*
X139819Y546886D01*
X152500Y544363D01*
X447500D01*
X460181Y546886D01*
X470931Y554069D01*
X471095Y554315D01*
X611688D01*
X622286Y547234D01*
X640000Y543711D01*
X657714Y547234D01*
X663507Y551104D01*
X669818Y546887D01*
X682499Y544365D01*
X877499D01*
X890180Y546887D01*
X900930Y554071D01*
X901092Y554313D01*
X915913D01*
X917390Y539313D01*
X916719Y539180D01*
X895499Y525001D01*
X881321Y503782D01*
X876342Y478752D01*
Y452702D01*
X982999D01*
X1089655D01*
Y478752D01*
X1084676Y503782D01*
X1070498Y525001D01*
X1049279Y539180D01*
X1048620Y539311D01*
X1050097Y554311D01*
X1064907D01*
X1065067Y554071D01*
X1075818Y546887D01*
X1088498Y544365D01*
X1283499D01*
X1296180Y546887D01*
X1306930Y554071D01*
X1307093Y554315D01*
X1331689D01*
X1342286Y547234D01*
X1360000Y543711D01*
X1377714Y547234D01*
X1392732Y557268D01*
X1402766Y572286D01*
X1406290Y590000D01*
X1402766Y607714D01*
X1394529Y620041D01*
X1393361Y630726D01*
X1394618Y639512D01*
X1395305Y640539D01*
X1412286Y647234D01*
X1430000Y643710D01*
X1447714Y647234D01*
X1462731Y657268D01*
X1476247Y650496D01*
X1838371Y288372D01*
X1838371Y288371D01*
X1848295Y281741D01*
X1860000Y279412D01*
X1860001Y279412D01*
X2069998D01*
X2070000Y279412D01*
X2081705Y281741D01*
X2091629Y288371D01*
X2147101Y343844D01*
X2157500Y341776D01*
X2242500D01*
X2266886Y346626D01*
X2287560Y360440D01*
X2301374Y381114D01*
X2306224Y405500D01*
Y530500D01*
X2301374Y554887D01*
X2287560Y575560D01*
X2266886Y589374D01*
X2242500Y594225D01*
X2157500D01*
X2133114Y589374D01*
X2112440Y575560D01*
X2098626Y554887D01*
X2093776Y530500D01*
Y405500D01*
X2098498Y381756D01*
X2057330Y340588D01*
X2041686D01*
X2035945Y354446D01*
X2051000Y369500D01*
Y514500D01*
X1998500Y567000D01*
X1893500D01*
X1841000Y514500D01*
Y501938D01*
X1781319D01*
X1371933Y911325D01*
Y938557D01*
X1374077Y939989D01*
X1384111Y955007D01*
X1387635Y972721D01*
X1384111Y990435D01*
X1374077Y1005453D01*
X1359060Y1015487D01*
X1341345Y1019010D01*
X1328257Y1016407D01*
X1318618Y1018325D01*
X1317010Y1019745D01*
X1308847Y1032210D01*
X1311504Y1040917D01*
X1314113Y1044821D01*
X1316635Y1057502D01*
Y1082502D01*
X1314113Y1095182D01*
X1310823Y1110177D01*
X1319200Y1122714D01*
X1322101Y1137302D01*
X1185999D01*
X1049896D01*
X1052798Y1122714D01*
X1061174Y1110177D01*
X1057884Y1095182D01*
X1055362Y1082502D01*
Y1078079D01*
X1051227Y1074686D01*
X1033513Y1071163D01*
X1018496Y1061128D01*
X1008462Y1046111D01*
X1004938Y1028397D01*
X1008462Y1010683D01*
X1018496Y995665D01*
X1033513Y985631D01*
X1051227Y982107D01*
X1055362Y978714D01*
Y977501D01*
X1057884Y964821D01*
X1061174Y949826D01*
X1052798Y937289D01*
X1049896Y922701D01*
X1185999D01*
Y897301D01*
X1049896D01*
X1052798Y882713D01*
X1061174Y870177D01*
X1057884Y855182D01*
X1055362Y842502D01*
Y817502D01*
X1057884Y804821D01*
X1060420Y801026D01*
X1059169Y796471D01*
X1057160Y794492D01*
X1041838Y790010D01*
X1037714Y792766D01*
X1020000Y796289D01*
X1002286Y792766D01*
X1001272Y792089D01*
X984605Y798993D01*
X983379Y805157D01*
X973345Y820175D01*
X958327Y830209D01*
X940613Y833732D01*
X938084Y833229D01*
X919685Y851629D01*
X911874Y856848D01*
X910099Y860203D01*
X908285Y866684D01*
X907080Y873556D01*
X913200Y882713D01*
X916101Y897301D01*
X779999D01*
Y922701D01*
X916275D01*
X922679Y932287D01*
X929592Y933662D01*
X944610Y943696D01*
X954644Y958713D01*
X958168Y976428D01*
X954644Y994142D01*
X944610Y1009159D01*
X929592Y1019194D01*
X912237Y1022646D01*
X903769Y1035234D01*
X905504Y1040917D01*
X908113Y1044821D01*
X910635Y1057502D01*
Y1082502D01*
X908113Y1095182D01*
X904823Y1110177D01*
X913200Y1122714D01*
X916101Y1137302D01*
X779999D01*
Y1162702D01*
X916101D01*
X913200Y1177289D01*
X904823Y1189826D01*
X908025Y1204689D01*
X912676Y1207796D01*
X914479Y1209600D01*
X917008Y1209097D01*
X934722Y1212621D01*
X949740Y1222655D01*
X959336Y1237017D01*
X962195Y1235107D01*
X979909Y1231584D01*
X997624Y1235107D01*
X1012641Y1245142D01*
X1022675Y1260159D01*
X1026199Y1277873D01*
X1022675Y1295587D01*
X1012641Y1310605D01*
X997624Y1320639D01*
X981667Y1323813D01*
X977038Y1328913D01*
X977657Y1333239D01*
X984495Y1344525D01*
X997681Y1347148D01*
X1012698Y1357182D01*
X1022733Y1372199D01*
X1026256Y1389914D01*
X1022733Y1407628D01*
X1012698Y1422645D01*
X997681Y1432680D01*
X979967Y1436203D01*
X973157Y1434849D01*
X971155Y1436852D01*
X967631Y1454566D01*
X957597Y1469583D01*
X942579Y1479617D01*
X924865Y1483141D01*
X914206Y1481021D01*
X910428Y1483545D01*
X908113Y1495182D01*
X904823Y1510178D01*
X913200Y1522714D01*
X916101Y1537302D01*
X779999D01*
Y1562702D01*
X916101D01*
X913200Y1577290D01*
X904823Y1589826D01*
X908113Y1604821D01*
X909609Y1612341D01*
X942928D01*
X942929Y1612341D01*
X954634Y1614669D01*
X964558Y1621300D01*
X995618Y1652360D01*
X996911Y1652103D01*
X1014625Y1655627D01*
X1029642Y1665661D01*
X1039677Y1680678D01*
X1041546Y1690074D01*
X1056839Y1690074D01*
X1057884Y1684821D01*
X1060493Y1680917D01*
X1063825Y1670001D01*
X1060493Y1659087D01*
X1057884Y1655182D01*
X1055362Y1642502D01*
Y1617501D01*
X1057884Y1604821D01*
X1061174Y1589826D01*
X1052798Y1577290D01*
X1049896Y1562702D01*
X1185999D01*
X1322101D01*
X1319200Y1577290D01*
X1314438Y1584416D01*
X1321415Y1599416D01*
X1350002D01*
X1350003Y1599416D01*
X1361709Y1601744D01*
X1371632Y1608375D01*
X1413212Y1649955D01*
X1448833D01*
X1450266Y1647811D01*
X1465283Y1637777D01*
X1482997Y1634253D01*
X1500712Y1637777D01*
X1515729Y1647811D01*
X1517162Y1649955D01*
X1599999D01*
X1600000Y1649955D01*
X1611705Y1652283D01*
X1621629Y1658914D01*
X1666627Y1703912D01*
X2444498D01*
X2444500Y1703912D01*
X2456205Y1706240D01*
X2466128Y1712871D01*
X2599591Y1846333D01*
X2599591Y1846334D01*
X2606222Y1856257D01*
X2608550Y1867962D01*
Y1877290D01*
X2623550Y1882362D01*
X2641114Y1870626D01*
X2665500Y1865776D01*
X2750500D01*
X2774886Y1870626D01*
X2783179Y1876167D01*
X2798179Y1868149D01*
Y1647851D01*
X2783179Y1639833D01*
X2774886Y1645374D01*
X2750500Y1650225D01*
X2665500D01*
X2641114Y1645374D01*
X2620440Y1631560D01*
X2606626Y1610887D01*
X2601776Y1586500D01*
Y1461500D01*
X2606626Y1437113D01*
X2620440Y1416440D01*
X2641114Y1402626D01*
X2665500Y1397775D01*
X2750500D01*
X2774886Y1402626D01*
X2783179Y1408167D01*
X2798179Y1400149D01*
Y1353851D01*
X2783179Y1345833D01*
X2774886Y1351374D01*
X2750500Y1356225D01*
X2665500D01*
X2641114Y1351374D01*
X2620440Y1337560D01*
X2606626Y1316887D01*
X2601776Y1292500D01*
Y1167500D01*
X2606626Y1143114D01*
X2620440Y1122440D01*
X2641114Y1108626D01*
X2665500Y1103776D01*
X2750500D01*
X2774886Y1108626D01*
X2783179Y1114167D01*
X2798179Y1106149D01*
Y992250D01*
X2694153Y888225D01*
X2665500D01*
X2641114Y883374D01*
X2620440Y869560D01*
X2606626Y848887D01*
X2601776Y824500D01*
Y699500D01*
X2606626Y675113D01*
X2620440Y654440D01*
X2641114Y640626D01*
X2665500Y635775D01*
X2750500D01*
X2774886Y640626D01*
X2795560Y654440D01*
X2809374Y675113D01*
X2814224Y699500D01*
Y824500D01*
X2809374Y848887D01*
X2795560Y869560D01*
X2794490Y880419D01*
X2863449Y949377D01*
X2871737Y961781D01*
X2874647Y976413D01*
Y1073897D01*
X2887876Y1080968D01*
X2893007Y1077540D01*
X2919500Y1072270D01*
X2949300D01*
Y1204000D01*
X2974700D01*
Y1072270D01*
X3004500D01*
X3030993Y1077540D01*
X3053453Y1092547D01*
X3061057Y1103927D01*
X3076057Y1099376D01*
X3076056Y840624D01*
X3061056Y836074D01*
X3053453Y847453D01*
X3030993Y862461D01*
X3004500Y867730D01*
X2974700D01*
Y736000D01*
Y604270D01*
X3004500D01*
X3030993Y609540D01*
X3053453Y624547D01*
X3061056Y635926D01*
X3076056Y631375D01*
Y546625D01*
X3061056Y542075D01*
X3053453Y553453D01*
X3030993Y568461D01*
X3004500Y573730D01*
X2974700D01*
Y442000D01*
Y310270D01*
X3004500D01*
X3030993Y315540D01*
X3053453Y330547D01*
X3061056Y341925D01*
X3076056Y337375D01*
X3076056Y233944D01*
X700000D01*
Y234024D01*
X678579Y238285D01*
X660420Y250419D01*
X648285Y268579D01*
X644025Y290000D01*
X643944D01*
X643943Y290006D01*
Y479999D01*
X640598Y496816D01*
X631072Y511072D01*
X616816Y520598D01*
X599999Y523943D01*
X100005D01*
X100000Y523944D01*
Y524025D01*
X78579Y528285D01*
X60419Y540420D01*
X48285Y558579D01*
X44025Y580000D01*
X43944D01*
Y2120000D01*
X44025D01*
X48285Y2141421D01*
X60419Y2159580D01*
X78579Y2171714D01*
X100000Y2175975D01*
Y2176056D01*
X100004Y2176056D01*
X599999D01*
X616816Y2179402D01*
X631072Y2188927D01*
X640598Y2203184D01*
X643943Y2220001D01*
Y2439981D01*
X643947Y2440000D01*
X644027D01*
X648288Y2461421D01*
X660422Y2479581D01*
X678582Y2491715D01*
X700003Y2495975D01*
Y2496056D01*
X1822386D01*
X1828126Y2482198D01*
D02*
G37*
G36*
X2726326Y2426083D02*
X2720586Y2412225D01*
X2665500D01*
X2641114Y2407374D01*
X2620440Y2393560D01*
X2606626Y2372887D01*
X2601776Y2348500D01*
Y2223500D01*
X2606626Y2199113D01*
X2620440Y2178440D01*
X2641114Y2164626D01*
X2665500Y2159775D01*
X2750500D01*
X2774886Y2164626D01*
X2783179Y2170167D01*
X2798179Y2162149D01*
Y2115851D01*
X2783179Y2107833D01*
X2774886Y2113374D01*
X2750500Y2118225D01*
X2665500D01*
X2641114Y2113374D01*
X2623550Y2101638D01*
X2619895Y2101735D01*
X2613020Y2103960D01*
X2607519Y2107222D01*
X2606222Y2113743D01*
X2599591Y2123666D01*
X2599591Y2123667D01*
X2553279Y2169979D01*
X2555374Y2173114D01*
X2560224Y2197500D01*
Y2322500D01*
X2555374Y2346887D01*
X2541560Y2367560D01*
X2520886Y2381374D01*
X2496500Y2386225D01*
X2411500D01*
X2387114Y2381374D01*
X2366440Y2367560D01*
X2352626Y2346887D01*
X2347776Y2322500D01*
Y2197500D01*
X2352626Y2173114D01*
X2366440Y2152440D01*
X2387114Y2138626D01*
X2411500Y2133776D01*
X2496500D01*
X2501894Y2134848D01*
X2537368Y2099375D01*
X2536697Y2094850D01*
X2520949Y2087404D01*
X2520437Y2087463D01*
X2496500Y2092225D01*
X2411500D01*
X2387114Y2087374D01*
X2366440Y2073560D01*
X2352626Y2052887D01*
X2347776Y2028500D01*
Y1903500D01*
X2352626Y1879114D01*
X2366440Y1858440D01*
X2387114Y1844626D01*
X2411500Y1839776D01*
X2416920D01*
X2422660Y1825918D01*
X2407330Y1810588D01*
X2063443D01*
X2057703Y1824446D01*
X2115592Y1882334D01*
X2133114Y1870626D01*
X2157500Y1865776D01*
X2242500D01*
X2266886Y1870626D01*
X2287560Y1884440D01*
X2301374Y1905114D01*
X2306224Y1929500D01*
Y2054500D01*
X2301374Y2078887D01*
X2287560Y2099560D01*
X2266886Y2113374D01*
X2242500Y2118225D01*
X2157500D01*
X2156496Y2118025D01*
X2149107Y2131849D01*
X2177033Y2159775D01*
X2242500D01*
X2266886Y2164626D01*
X2287560Y2178440D01*
X2301374Y2199113D01*
X2306224Y2223500D01*
Y2348500D01*
X2301374Y2372887D01*
X2287560Y2393560D01*
X2266886Y2407374D01*
X2242500Y2412225D01*
X2157500D01*
X2133114Y2407374D01*
X2112440Y2393560D01*
X2098626Y2372887D01*
X2093776Y2348500D01*
Y2223500D01*
X2098626Y2199113D01*
X2111135Y2180393D01*
X2071330Y2140588D01*
X2040766D01*
X2035663Y2155588D01*
X2047374Y2173114D01*
X2052224Y2197500D01*
Y2322500D01*
X2047374Y2346887D01*
X2033560Y2367560D01*
X2012886Y2381374D01*
X1988500Y2386225D01*
X1903500D01*
X1879114Y2381374D01*
X1858440Y2367560D01*
X1844626Y2346887D01*
X1839776Y2322500D01*
Y2197500D01*
X1844626Y2173114D01*
X1857625Y2153659D01*
X1857429Y2147996D01*
X1854878Y2136780D01*
X1847169Y2131629D01*
X1740393Y2024854D01*
X1725322Y2025738D01*
X1724980Y2026251D01*
X1709962Y2036285D01*
X1692248Y2039808D01*
X1674534Y2036285D01*
X1659516Y2026251D01*
X1649482Y2011233D01*
X1645958Y1993519D01*
X1647114Y1987707D01*
X1634885Y1972707D01*
X1556165D01*
X1555648Y1973224D01*
X1552766Y1987714D01*
X1542732Y2002732D01*
X1527714Y2012766D01*
X1510000Y2016290D01*
X1492286Y2012766D01*
X1477268Y2002732D01*
X1467234Y1987714D01*
X1464725Y1975102D01*
X1456668Y1967044D01*
X1315732D01*
X1314113Y1975182D01*
X1310823Y1990177D01*
X1319200Y2002714D01*
X1322101Y2017302D01*
X1185999D01*
Y2042702D01*
X1322101D01*
X1319303Y2056768D01*
X1319232Y2057345D01*
X1327566Y2071768D01*
X1700003D01*
X1714634Y2074679D01*
X1727038Y2082967D01*
X1797036Y2152964D01*
X1805324Y2165368D01*
X1808234Y2180000D01*
Y2354163D01*
X1895237Y2441166D01*
X2711243D01*
X2726326Y2426083D01*
D02*
G37*
G36*
X2974700Y1834270D02*
X3004500D01*
X3030993Y1839540D01*
X3053453Y1854547D01*
X3061057Y1865928D01*
X3076058Y1861378D01*
X3076057Y1602623D01*
X3061057Y1598073D01*
X3053453Y1609453D01*
X3030993Y1624461D01*
X3004500Y1629730D01*
X2974700D01*
Y1498000D01*
X2949300D01*
Y1629730D01*
X2919500D01*
X2893007Y1624461D01*
X2887876Y1621032D01*
X2874647Y1628103D01*
Y1835897D01*
X2887876Y1842968D01*
X2893007Y1839540D01*
X2919500Y1834270D01*
X2949300D01*
Y1966000D01*
X2974700D01*
Y1834270D01*
D02*
G37*
%LPC*%
G36*
X1174249Y2364158D02*
X1145699D01*
Y2272702D01*
X1239655D01*
Y2298752D01*
X1234676Y2323782D01*
X1220498Y2345001D01*
X1199279Y2359179D01*
X1174249Y2364158D01*
D02*
G37*
G36*
X1120299D02*
X1091749D01*
X1066719Y2359179D01*
X1045499Y2345001D01*
X1031321Y2323782D01*
X1026342Y2298752D01*
Y2272702D01*
X1120299D01*
Y2364158D01*
D02*
G37*
G36*
X1988500Y1624225D02*
X1903500D01*
X1879114Y1619374D01*
X1858440Y1605560D01*
X1844626Y1584887D01*
X1839776Y1560500D01*
Y1435500D01*
X1844626Y1411114D01*
X1858440Y1390440D01*
X1879114Y1376626D01*
X1903500Y1371776D01*
X1988500D01*
X2012886Y1376626D01*
X2033560Y1390440D01*
X2047374Y1411114D01*
X2052224Y1435500D01*
Y1560500D01*
X2047374Y1584887D01*
X2033560Y1605560D01*
X2012886Y1619374D01*
X1988500Y1624225D01*
D02*
G37*
G36*
X2242500Y1650225D02*
X2157500D01*
X2133114Y1645374D01*
X2112440Y1631560D01*
X2098626Y1610887D01*
X2093776Y1586500D01*
Y1461500D01*
X2098626Y1437113D01*
X2112440Y1416440D01*
X2133114Y1402626D01*
X2157500Y1397775D01*
X2242500D01*
X2264578Y1402167D01*
X2289412Y1377333D01*
Y1354363D01*
X2274412Y1346345D01*
X2266886Y1351374D01*
X2242500Y1356225D01*
X2157500D01*
X2133114Y1351374D01*
X2112440Y1337560D01*
X2098626Y1316887D01*
X2093776Y1292500D01*
Y1167500D01*
X2098626Y1143114D01*
X2111135Y1124393D01*
X2087330Y1100588D01*
X2039686D01*
X2033945Y1114446D01*
X2051000Y1131500D01*
Y1276500D01*
X1998500Y1329000D01*
X1893500D01*
X1841000Y1276500D01*
Y1256588D01*
X1566670D01*
X1520588Y1302670D01*
Y1460000D01*
X1518259Y1471705D01*
X1511629Y1481629D01*
X1511628Y1481629D01*
X1480131Y1513127D01*
X1470208Y1519757D01*
X1458502Y1522086D01*
X1458501Y1522085D01*
X1424807D01*
X1423375Y1524229D01*
X1408357Y1534264D01*
X1390643Y1537787D01*
X1372929Y1534264D01*
X1357911Y1524229D01*
X1349220Y1511222D01*
X1328188D01*
X1319898Y1526222D01*
X1322101Y1537302D01*
X1185999D01*
X1049896D01*
X1052798Y1522714D01*
X1061174Y1510178D01*
X1057884Y1495182D01*
X1055362Y1482502D01*
Y1457502D01*
X1057884Y1444821D01*
X1065067Y1434071D01*
Y1425932D01*
X1057884Y1415182D01*
X1055362Y1402502D01*
Y1377501D01*
X1057884Y1364821D01*
X1065067Y1354071D01*
Y1345933D01*
X1057884Y1335182D01*
X1055362Y1322502D01*
Y1297502D01*
X1057884Y1284821D01*
X1060493Y1280917D01*
X1063825Y1270002D01*
X1060493Y1259087D01*
X1057884Y1255182D01*
X1055362Y1242502D01*
Y1217502D01*
X1057884Y1204821D01*
X1061174Y1189826D01*
X1052798Y1177289D01*
X1049896Y1162702D01*
X1185999D01*
X1322101D01*
X1319200Y1177289D01*
X1314441Y1184412D01*
X1321421Y1199412D01*
X1347331D01*
X1372861Y1173881D01*
X1369193Y1168391D01*
X1365669Y1150677D01*
X1369193Y1132963D01*
X1379227Y1117945D01*
X1394245Y1107911D01*
X1405735Y1105625D01*
X1498990Y1012371D01*
X1501473Y1010712D01*
X1500939Y1005485D01*
X1496963Y995685D01*
X1482286Y992766D01*
X1467268Y982732D01*
X1457234Y967714D01*
X1453711Y950000D01*
X1457234Y932286D01*
X1467268Y917268D01*
X1482286Y907234D01*
X1500000Y903710D01*
X1502529Y904213D01*
X1618371Y788372D01*
X1618371Y788371D01*
X1628295Y781741D01*
X1640000Y779412D01*
X1640001Y779412D01*
X1839776D01*
Y673500D01*
X1844626Y649114D01*
X1858440Y628440D01*
X1879114Y614626D01*
X1903500Y609776D01*
X1988500D01*
X2012886Y614626D01*
X2033560Y628440D01*
X2047374Y649114D01*
X2052224Y673500D01*
Y798500D01*
X2047374Y822887D01*
X2033560Y843560D01*
X2012886Y857374D01*
X1988500Y862225D01*
X1903500D01*
X1879114Y857374D01*
X1858440Y843560D01*
X1856297Y840353D01*
X1853180D01*
X1852000Y840588D01*
X1851999Y840588D01*
X1652670D01*
X1545787Y947471D01*
X1546290Y950000D01*
X1542766Y967714D01*
X1532732Y982732D01*
X1524230Y988412D01*
X1528780Y1003412D01*
X2223999D01*
X2224000Y1003412D01*
X2235705Y1005741D01*
X2245629Y1012371D01*
X2340908Y1107651D01*
X2342026Y1108351D01*
X2359068Y1107472D01*
X2366440Y1096440D01*
X2387114Y1082626D01*
X2411500Y1077776D01*
X2496500D01*
X2520886Y1082626D01*
X2541560Y1096440D01*
X2555374Y1117114D01*
X2560224Y1141500D01*
Y1266500D01*
X2555374Y1290887D01*
X2541560Y1311560D01*
X2520886Y1325374D01*
X2496500Y1330225D01*
X2411500D01*
X2387114Y1325374D01*
X2366440Y1311560D01*
X2365588Y1310285D01*
X2350588Y1314835D01*
Y1387165D01*
X2357682Y1391132D01*
X2365180Y1392326D01*
X2366440Y1390440D01*
X2387114Y1376626D01*
X2411500Y1371776D01*
X2496500D01*
X2520886Y1376626D01*
X2541560Y1390440D01*
X2555374Y1411114D01*
X2560224Y1435500D01*
Y1560500D01*
X2555374Y1584887D01*
X2541560Y1605560D01*
X2520886Y1619374D01*
X2496500Y1624225D01*
X2411500D01*
X2387114Y1619374D01*
X2366440Y1605560D01*
X2352626Y1584887D01*
X2347776Y1560500D01*
Y1435500D01*
X2349961Y1424513D01*
X2336137Y1417123D01*
X2303825Y1449436D01*
X2306224Y1461500D01*
Y1586500D01*
X2301374Y1610887D01*
X2287560Y1631560D01*
X2266886Y1645374D01*
X2242500Y1650225D01*
D02*
G37*
G36*
X2949300Y867730D02*
X2919500D01*
X2893007Y862461D01*
X2870547Y847453D01*
X2855540Y824994D01*
X2850270Y798500D01*
Y748700D01*
X2949300D01*
Y867730D01*
D02*
G37*
G36*
X2242500Y888225D02*
X2157500D01*
X2133114Y883374D01*
X2112440Y869560D01*
X2098626Y848887D01*
X2093776Y824500D01*
Y699500D01*
X2098626Y675113D01*
X2112440Y654440D01*
X2133114Y640626D01*
X2157500Y635775D01*
X2242500D01*
X2266886Y640626D01*
X2287560Y654440D01*
X2301374Y675113D01*
X2306224Y699500D01*
Y824500D01*
X2301374Y848887D01*
X2287560Y869560D01*
X2266886Y883374D01*
X2242500Y888225D01*
D02*
G37*
G36*
X2496500Y862225D02*
X2411500D01*
X2387114Y857374D01*
X2366440Y843560D01*
X2352626Y822887D01*
X2347776Y798500D01*
Y673500D01*
X2352626Y649114D01*
X2366440Y628440D01*
X2387114Y614626D01*
X2411500Y609776D01*
X2496500D01*
X2520886Y614626D01*
X2541560Y628440D01*
X2555374Y649114D01*
X2560224Y673500D01*
Y798500D01*
X2555374Y822887D01*
X2541560Y843560D01*
X2520886Y857374D01*
X2496500Y862225D01*
D02*
G37*
G36*
X2949300Y723300D02*
X2850270D01*
Y673500D01*
X2855540Y647007D01*
X2870547Y624547D01*
X2893007Y609540D01*
X2919500Y604270D01*
X2949300D01*
Y723300D01*
D02*
G37*
G36*
Y573730D02*
X2919500D01*
X2893007Y568461D01*
X2870547Y553453D01*
X2855540Y530994D01*
X2850270Y504500D01*
Y454700D01*
X2949300D01*
Y573730D01*
D02*
G37*
G36*
X2750500Y594225D02*
X2665500D01*
X2641114Y589374D01*
X2620440Y575560D01*
X2606626Y554887D01*
X2601776Y530500D01*
Y405500D01*
X2606626Y381114D01*
X2620440Y360440D01*
X2641114Y346626D01*
X2665500Y341776D01*
X2750500D01*
X2774886Y346626D01*
X2795560Y360440D01*
X2809374Y381114D01*
X2814224Y405500D01*
Y530500D01*
X2809374Y554887D01*
X2795560Y575560D01*
X2774886Y589374D01*
X2750500Y594225D01*
D02*
G37*
G36*
X1089655Y427302D02*
X995699D01*
Y335845D01*
X1024248D01*
X1049279Y340824D01*
X1070498Y355002D01*
X1084676Y376221D01*
X1089655Y401252D01*
Y427302D01*
D02*
G37*
G36*
X970299D02*
X876342D01*
Y401252D01*
X881321Y376221D01*
X895499Y355002D01*
X916719Y340824D01*
X941749Y335845D01*
X970299D01*
Y427302D01*
D02*
G37*
G36*
X2496500Y568225D02*
X2411500D01*
X2387114Y563374D01*
X2366440Y549560D01*
X2352626Y528887D01*
X2347776Y504500D01*
Y379500D01*
X2352626Y355114D01*
X2366440Y334440D01*
X2387114Y320626D01*
X2411500Y315776D01*
X2496500D01*
X2520886Y320626D01*
X2541560Y334440D01*
X2555374Y355114D01*
X2560224Y379500D01*
Y504500D01*
X2555374Y528887D01*
X2541560Y549560D01*
X2520886Y563374D01*
X2496500Y568225D01*
D02*
G37*
G36*
X2949300Y429300D02*
X2850270D01*
Y379500D01*
X2855540Y353007D01*
X2870547Y330547D01*
X2893007Y315540D01*
X2919500Y310270D01*
X2949300D01*
Y429300D01*
D02*
G37*
%LPD*%
D10*
X300000Y2110000D02*
D03*
Y1870000D02*
D03*
Y1950000D02*
D03*
Y2030000D02*
D03*
Y1710000D02*
D03*
Y1790000D02*
D03*
Y1630000D02*
D03*
Y1550000D02*
D03*
Y1470000D02*
D03*
Y1390000D02*
D03*
Y1310000D02*
D03*
Y1230000D02*
D03*
Y1150000D02*
D03*
Y1070000D02*
D03*
Y990000D02*
D03*
Y910000D02*
D03*
Y830000D02*
D03*
Y750000D02*
D03*
Y670000D02*
D03*
Y590000D02*
D03*
D11*
X1341345Y898655D02*
Y972721D01*
X1768649Y471351D02*
X1936649D01*
X1341345Y898655D02*
X1768649Y471351D01*
X2070000Y310000D02*
X2200000Y440000D01*
X1860000Y310000D02*
X2070000D01*
X1480000Y690000D02*
X1860000Y310000D01*
X2203998Y1993759D02*
Y2025998D01*
X2107235Y1917235D02*
X2127474D01*
X2010000Y1820000D02*
X2107235Y1917235D01*
X1473189Y1820000D02*
X2010000D01*
X2127474Y1917235D02*
X2203998Y1993759D01*
X2420000Y1780000D02*
X2482716Y1842716D01*
X2454000Y1986000D02*
X2482716Y1957284D01*
Y1842716D02*
Y1957284D01*
X1605276Y1780000D02*
X2420000D01*
X2577963Y1867962D02*
Y2102037D01*
X1653957Y1734499D02*
X2444500D01*
X2577963Y1867962D01*
X1600000Y1680543D02*
X1653957Y1734499D01*
X1482997Y1680543D02*
X1600000D01*
X1556948Y1731671D02*
X1605276Y1780000D01*
X1549728Y1731671D02*
X1556948D01*
X1371943Y1731943D02*
X1550000D01*
X1400543Y1680543D02*
X1482997D01*
X1453602Y1800413D02*
X1473189Y1820000D01*
X1446073Y1800413D02*
X1453602D01*
X1306522Y1883460D02*
X1307714Y1884652D01*
X1209455Y1883460D02*
X1306522D01*
X1195999Y1870003D02*
X1209455Y1883460D01*
X1525000Y1885000D02*
X1815000D01*
X1307714Y1884652D02*
X1524652D01*
X1406467Y1156168D02*
Y1183533D01*
X1411959Y1142660D02*
Y1150677D01*
X1469916Y1157393D02*
X1475809Y1151500D01*
X1406467Y1156168D02*
X1411959Y1150677D01*
X1520618Y1034000D02*
X2224000D01*
X1411959Y1142660D02*
X1520618Y1034000D01*
X1469916Y1157393D02*
Y1180084D01*
X2146235Y1116235D02*
Y1248239D01*
X1559052Y1070000D02*
X2100000D01*
X2146235Y1248239D02*
X2176716Y1278720D01*
X2100000Y1070000D02*
X2146235Y1116235D01*
X1478095Y1150957D02*
X1559052Y1070000D01*
X2224000Y1034000D02*
X2320000Y1130000D01*
X1794273Y1175893D02*
X1800000Y1170166D01*
X1544107Y1175893D02*
X1794273D01*
X2320000Y1130000D02*
Y1390003D01*
X2510732Y2261198D02*
X2510765Y2261231D01*
X2510732Y2169268D02*
Y2261198D01*
Y2169268D02*
X2577963Y2102037D01*
X1752316Y1993519D02*
X1868797Y2110000D01*
X1692248Y1993519D02*
X1752316D01*
X1868797Y2110000D02*
X2084000D01*
X2203998Y2229998D01*
X1500000Y950000D02*
X1640000Y810000D01*
X1852235Y809765D02*
X1873474D01*
X1852000Y810000D02*
X1852235Y809765D01*
X1640000Y810000D02*
X1852000D01*
X1873474Y809765D02*
X1946000Y737239D01*
Y716000D02*
Y737239D01*
X1198107Y987892D02*
X1317840D01*
X1333011Y972721D01*
X1341345D01*
X1936649Y471351D02*
X1946000Y462000D01*
X2200000Y440000D02*
Y488000D01*
X1430000Y690000D02*
X1480000D01*
X947425Y1308756D02*
X978307Y1277873D01*
X979909D01*
X774553Y1385451D02*
X975504D01*
X979967Y1389914D01*
X684221Y1229425D02*
X891047D01*
X917008Y1255387D01*
X461715Y1243654D02*
X669992D01*
X684221Y1229425D01*
X915452Y1310004D02*
X916700Y1308756D01*
X947425D01*
X683647Y1310004D02*
X915452D01*
X916531Y1436851D02*
X924865D01*
X783457Y1456547D02*
X896835D01*
X312690Y1402691D02*
X757313D01*
X896835Y1456547D02*
X916531Y1436851D01*
X757313Y1402691D02*
X774553Y1385451D01*
X770000Y1470004D02*
X783457Y1456547D01*
X778295Y981705D02*
X780173Y983583D01*
X781435Y982321D02*
X905985D01*
X911878Y976428D01*
X780173Y983583D02*
X781435Y982321D01*
X1476352Y1150957D02*
X1478095D01*
X1490000Y1290000D02*
X1554000Y1226000D01*
X1949998D01*
X1815000Y1885000D02*
X1820000Y1890000D01*
X1510000Y1970000D02*
X1515614D01*
X1543496Y1942119D01*
X1875753D01*
X1905000Y1971366D01*
X1356600Y673399D02*
Y713400D01*
Y673399D02*
X1360232Y669768D01*
X1195999Y990000D02*
X1198107Y987892D01*
X1458502Y1491498D02*
X1490000Y1460000D01*
Y1290000D02*
Y1460000D01*
X1382309Y1491498D02*
X1458502D01*
X1407964Y1420000D02*
X1425804Y1437840D01*
X1434139D01*
X1310995Y1420000D02*
X1407964D01*
X1280999Y1390004D02*
X1310995Y1420000D01*
X1434139Y1285862D02*
X1544107Y1175893D01*
X1434139Y1285862D02*
Y1437840D01*
X1371445Y1480634D02*
X1382309Y1491498D01*
X1206629Y1480634D02*
X1371445D01*
X1350003Y1710003D02*
X1371943Y1731943D01*
X2497998Y2273998D02*
X2510765Y2261231D01*
X1350003Y1630004D02*
X1400543Y1680543D01*
X1051228Y1028397D02*
X1057121Y1034290D01*
X1075289D01*
X1181866Y1055867D02*
X1195999Y1070000D01*
X1075289Y1034290D02*
X1096865Y1055867D01*
X1181866D01*
X770000Y990000D02*
X778295Y981705D01*
X1195999Y1229999D02*
X1360001D01*
X1406467Y1183533D01*
X1354480Y1295520D02*
X1469916Y1180084D01*
X1209455Y1296548D02*
X1306687D01*
X1195999Y1310004D02*
X1209455Y1296548D01*
X1306687D02*
X1307714Y1295520D01*
X1354480D01*
X757663Y762337D02*
X783457Y736544D01*
X312335Y762337D02*
X757663D01*
X299999Y750001D02*
X312335Y762337D01*
X299999Y830001D02*
X313456Y816544D01*
X669837Y816190D02*
X683647Y830000D01*
X898056D01*
X313456Y816544D02*
X461362D01*
X461715Y816190D01*
X669837D01*
X683647Y990000D02*
X770000D01*
X299999Y990001D02*
X313456Y1003457D01*
X461336D01*
X461715Y1003837D02*
X669810D01*
X461336Y1003457D02*
X461715Y1003837D01*
X669810D02*
X683647Y990000D01*
X299999Y1070000D02*
X313151Y1056849D01*
X756849D02*
X770000Y1070000D01*
X313151Y1056849D02*
X756849D01*
X313456Y1243457D02*
X461518D01*
X299999Y1230000D02*
X313456Y1243457D01*
X461518D02*
X461715Y1243654D01*
Y1296246D02*
X669888D01*
X299999Y1310000D02*
X313456Y1296543D01*
X461418D01*
X461715Y1296246D01*
X669888D02*
X683647Y1310004D01*
X299999Y1390000D02*
X312690Y1402691D01*
X299999Y1470000D02*
X310930Y1459069D01*
X759065D02*
X770000Y1470004D01*
X310930Y1459069D02*
X759065D01*
X942929Y1642929D02*
X998393Y1698393D01*
X782925Y1642929D02*
X942929D01*
X770000Y1630004D02*
X782925Y1642929D01*
X299999Y1629999D02*
X313350Y1643350D01*
X756654D02*
X770000Y1630004D01*
X313350Y1643350D02*
X756654D01*
X461114Y1696542D02*
X461715Y1695941D01*
X669585D01*
X683647Y1710003D01*
X910475D01*
X299999Y1709999D02*
X313456Y1696542D01*
X461114D01*
X299999Y1869999D02*
X313167Y1883167D01*
X756836D02*
X770000Y1870003D01*
X313167Y1883167D02*
X756836D01*
X299999Y1949999D02*
X313456Y1936542D01*
X458828D02*
X461715Y1933655D01*
X683647Y1950003D02*
X949997D01*
X313456Y1936542D02*
X458828D01*
X461715Y1933655D02*
X667299D01*
X683647Y1950003D01*
X1195999D02*
X1209455Y1936546D01*
X1307625D02*
X1307714Y1936457D01*
X1469338D02*
X1502881Y1970000D01*
X1209455Y1936546D02*
X1307625D01*
X1307714Y1936457D02*
X1469338D01*
X1502881Y1970000D02*
X1510000D01*
X1424107Y695893D02*
X1430000Y690000D01*
X1424107Y695893D02*
Y721258D01*
X1329648Y815717D02*
X1424107Y721258D01*
X996911Y1698393D02*
X998393D01*
X1011665Y750000D02*
X1020000D01*
X997358Y735693D02*
X1011665Y750000D01*
X1195999Y1470004D02*
X1206629Y1480634D01*
X770000Y1870003D02*
X774998Y1875002D01*
X925001D01*
X930000Y1880000D01*
X1020000D02*
X1030000D01*
X949997Y1950003D02*
X1020000Y1880000D01*
X910475Y1710003D02*
X922469Y1698009D01*
X1195999Y1390004D02*
X1280999D01*
X1320000Y750000D02*
X1356600Y713400D01*
X898056Y830000D02*
X940613Y787443D01*
X881716Y735693D02*
X997358D01*
X783457Y736544D02*
X880865D01*
X881716Y735693D01*
X1307714Y815717D02*
X1329648D01*
X1209455Y816543D02*
X1306888D01*
X1195999Y830000D02*
X1209455Y816543D01*
X1306888D02*
X1307714Y815717D01*
X1195999Y750000D02*
X1320000D01*
X2203998Y1506005D02*
X2320000Y1390003D01*
X1195999Y1630004D02*
X1350003D01*
X1195999Y1710003D02*
X1350003D01*
D12*
X300000Y590001D02*
X639999D01*
X640000Y590000D02*
X640000Y590000D01*
X639999Y590001D02*
X640000Y590000D01*
X640000Y590000D02*
X769998D01*
X770000Y589999D01*
X939997D01*
X299999Y590001D02*
X300000Y590001D01*
X1360000Y590000D02*
X1360000Y590000D01*
X1195999Y590001D02*
X1195999Y590000D01*
X1360000D01*
X940000Y589996D02*
X1195999D01*
X939997Y589999D02*
X940000Y589996D01*
D13*
X1879400Y2479400D02*
X2727080D01*
X1770000Y2180000D02*
Y2370000D01*
X1879400Y2479400D01*
X1700003Y2110003D02*
X1770000Y2180000D01*
X2727080Y2479400D02*
X2836413Y2370067D01*
X2711998Y851998D02*
X2836413Y976413D01*
Y2370067D01*
X640001Y2110001D02*
X769997D01*
X639999Y2109999D02*
X640001Y2110001D01*
X300000Y2109999D02*
X639999D01*
X770000Y2109998D02*
X1195999D01*
X769997Y2110001D02*
X770000Y2109998D01*
X2711998Y799997D02*
Y851998D01*
X1195999Y2110003D02*
X1700003D01*
D14*
X1946000Y442000D02*
D03*
Y1204000D02*
D03*
Y1966000D02*
D03*
D15*
X2200000Y468000D02*
D03*
X2454000Y442000D02*
D03*
X2708000Y468000D02*
D03*
X2962000Y442000D02*
D03*
X1946000Y736000D02*
D03*
X2200000Y762000D02*
D03*
X2454000Y736000D02*
D03*
X2708000Y762000D02*
D03*
X2962000Y736000D02*
D03*
X2200000Y1230000D02*
D03*
X2454000Y1204000D02*
D03*
X2708000Y1230000D02*
D03*
X2962000Y1204000D02*
D03*
X1946000Y1498000D02*
D03*
X2200000Y1524000D02*
D03*
X2454000Y1498000D02*
D03*
X2708000Y1524000D02*
D03*
X2962000Y1498000D02*
D03*
X2200000Y1992000D02*
D03*
X2454000Y1966000D02*
D03*
X2708000Y1992000D02*
D03*
X2962000Y1966000D02*
D03*
X1946000Y2260000D02*
D03*
X2200000Y2286000D02*
D03*
X2454000Y2260000D02*
D03*
X2708000Y2286000D02*
D03*
X2962000Y2260000D02*
D03*
D16*
X982999Y440002D02*
D03*
X1132999Y2260002D02*
D03*
D17*
X1550000Y1731943D02*
D03*
X1520000Y1880000D02*
D03*
X1478726Y1148583D02*
D03*
X1411959Y1150677D02*
D03*
X1800000Y1170166D02*
D03*
X979909Y1277873D02*
D03*
X979967Y1389914D02*
D03*
X917008Y1255387D02*
D03*
X924865Y1436851D02*
D03*
X1446073Y1800413D02*
D03*
X911878Y976428D02*
D03*
X640000Y2110000D02*
D03*
Y590000D02*
D03*
X1820000Y1890000D02*
D03*
X1360232Y669768D02*
D03*
X1341345Y972721D02*
D03*
X1434139Y1437840D02*
D03*
X1390643Y1491498D02*
D03*
X1482997Y1680543D02*
D03*
X1051228Y1028397D02*
D03*
X1692248Y1993519D02*
D03*
X996911Y1698393D02*
D03*
X1020000Y750000D02*
D03*
X1510000Y1970000D02*
D03*
X930000Y1880000D02*
D03*
X1030000D02*
D03*
X922469Y1698009D02*
D03*
X1430000Y690000D02*
D03*
X1360000Y590000D02*
D03*
X1500000Y950000D02*
D03*
X940613Y787443D02*
D03*
D18*
X1185999Y2110002D02*
D03*
X779999D02*
D03*
X1185999Y2030002D02*
D03*
Y1950002D02*
D03*
Y1870002D02*
D03*
Y1790002D02*
D03*
Y1710002D02*
D03*
Y1630002D02*
D03*
Y1550002D02*
D03*
Y1470002D02*
D03*
Y1390002D02*
D03*
Y1310002D02*
D03*
Y1230002D02*
D03*
Y1150002D02*
D03*
Y1070002D02*
D03*
Y990002D02*
D03*
Y910001D02*
D03*
Y830002D02*
D03*
Y750002D02*
D03*
Y670001D02*
D03*
Y590002D02*
D03*
X779999Y2030002D02*
D03*
Y1950002D02*
D03*
Y1870002D02*
D03*
Y1790002D02*
D03*
Y1710002D02*
D03*
Y1630002D02*
D03*
Y1550002D02*
D03*
Y1470002D02*
D03*
Y1390002D02*
D03*
Y1310002D02*
D03*
Y1230002D02*
D03*
Y1150002D02*
D03*
Y1070002D02*
D03*
Y990002D02*
D03*
Y910001D02*
D03*
Y830002D02*
D03*
Y750002D02*
D03*
Y670001D02*
D03*
Y590002D02*
D03*
D19*
X299999Y910001D02*
X300002Y909998D01*
X940000Y909996D02*
X1210000D01*
X939997Y909998D02*
X940000Y909996D01*
X300002Y909998D02*
X939997D01*
X2965998Y1939998D02*
Y2240000D01*
Y1533998D02*
Y1939998D01*
Y1279998D02*
Y1533998D01*
Y773998D02*
Y1279998D01*
Y462000D02*
Y773998D01*
X940000Y669996D02*
X1195999D01*
X300002Y669999D02*
X939997D01*
X940000Y669996D01*
X299999Y670001D02*
X300002Y669999D01*
X940000Y1149995D02*
X1195999D01*
X299999Y1150000D02*
X300002Y1149998D01*
X939997D01*
X940000Y1149995D01*
X299999Y1549999D02*
X1210000D01*
X299999Y1789999D02*
X1220000D01*
X299999Y2029998D02*
X1180000D01*
%TF.MD5,d29a7e8e6ad185643398f3978202bc4d*%
M02*
