%TF.GenerationSoftware,Altium Limited,Altium Designer,24.8.2 (39)*%
G04 Layer_Color=255*
%FSLAX45Y45*%
%MOMM*%
%TF.SameCoordinates,C54AC7BA-B540-4DA4-B2B9-A01D8BF79CE3*%
%TF.FilePolarity,Positive*%
%TF.FileFunction,Pads,Bot*%
%TF.Part,Single*%
G01*
G75*
%TA.AperFunction,SMDPad,CuDef*%
G04:AMPARAMS|DCode=10|XSize=3.2mm|YSize=0.5mm|CornerRadius=0.125mm|HoleSize=0mm|Usage=FLASHONLY|Rotation=0.000|XOffset=0mm|YOffset=0mm|HoleType=Round|Shape=RoundedRectangle|*
%AMROUNDEDRECTD10*
21,1,3.20000,0.25000,0,0,0.0*
21,1,2.95000,0.50000,0,0,0.0*
1,1,0.25000,1.47500,-0.12500*
1,1,0.25000,-1.47500,-0.12500*
1,1,0.25000,-1.47500,0.12500*
1,1,0.25000,1.47500,0.12500*
%
%ADD10ROUNDEDRECTD10*%
%TA.AperFunction,ComponentPad*%
G04:AMPARAMS|DCode=14|XSize=1.7mm|YSize=2.1mm|CornerRadius=0.425mm|HoleSize=0mm|Usage=FLASHONLY|Rotation=0.000|XOffset=0mm|YOffset=0mm|HoleType=Round|Shape=RoundedRectangle|*
%AMROUNDEDRECTD14*
21,1,1.70000,1.25001,0,0,0.0*
21,1,0.85000,2.10000,0,0,0.0*
1,1,0.85000,0.42500,-0.62500*
1,1,0.85000,-0.42500,-0.62500*
1,1,0.85000,-0.42500,0.62500*
1,1,0.85000,0.42500,0.62500*
%
%ADD14ROUNDEDRECTD14*%
G04:AMPARAMS|DCode=15|XSize=1.7mm|YSize=2.1mm|CornerRadius=0mm|HoleSize=0mm|Usage=FLASHONLY|Rotation=0.000|XOffset=0mm|YOffset=0mm|HoleType=Round|Shape=Octagon|*
%AMOCTAGOND15*
4,1,8,-0.42500,1.05000,0.42500,1.05000,0.85000,0.62500,0.85000,-0.62500,0.42500,-1.05000,-0.42500,-1.05000,-0.85000,-0.62500,-0.85000,0.62500,-0.42500,1.05000,0.0*
%
%ADD15OCTAGOND15*%

G04:AMPARAMS|DCode=16|XSize=1.55mm|YSize=1.6mm|CornerRadius=0.3875mm|HoleSize=0mm|Usage=FLASHONLY|Rotation=270.000|XOffset=0mm|YOffset=0mm|HoleType=Round|Shape=RoundedRectangle|*
%AMROUNDEDRECTD16*
21,1,1.55000,0.82500,0,0,270.0*
21,1,0.77500,1.60000,0,0,270.0*
1,1,0.77500,-0.41250,-0.38750*
1,1,0.77500,-0.41250,0.38750*
1,1,0.77500,0.41250,0.38750*
1,1,0.77500,0.41250,-0.38750*
%
%ADD16ROUNDEDRECTD16*%
%TA.AperFunction,SMDPad,CuDef*%
G04:AMPARAMS|DCode=18|XSize=2.2mm|YSize=0.5mm|CornerRadius=0.125mm|HoleSize=0mm|Usage=FLASHONLY|Rotation=180.000|XOffset=0mm|YOffset=0mm|HoleType=Round|Shape=RoundedRectangle|*
%AMROUNDEDRECTD18*
21,1,2.20000,0.25000,0,0,180.0*
21,1,1.95000,0.50000,0,0,180.0*
1,1,0.25000,-0.97500,0.12500*
1,1,0.25000,0.97500,0.12500*
1,1,0.25000,0.97500,-0.12500*
1,1,0.25000,-0.97500,-0.12500*
%
%ADD18ROUNDEDRECTD18*%
D10*
X299999Y2109998D02*
D03*
Y1869999D02*
D03*
Y1949999D02*
D03*
Y2029998D02*
D03*
Y1709999D02*
D03*
Y1789999D02*
D03*
Y1629999D02*
D03*
Y1549999D02*
D03*
Y1470000D02*
D03*
Y1390000D02*
D03*
Y1310000D02*
D03*
Y1230000D02*
D03*
Y1150000D02*
D03*
Y1070000D02*
D03*
Y990001D02*
D03*
Y910001D02*
D03*
Y830001D02*
D03*
Y750001D02*
D03*
Y670001D02*
D03*
Y590001D02*
D03*
D14*
X2965998Y793998D02*
D03*
X2711998Y819997D02*
D03*
X2457998Y793998D02*
D03*
X2203998Y819997D02*
D03*
X1949998Y793998D02*
D03*
X2965998Y499998D02*
D03*
X2711998Y525997D02*
D03*
X2457998Y499998D02*
D03*
X2203998Y525997D02*
D03*
X2965998Y1553998D02*
D03*
X2711998Y1580002D02*
D03*
X2457998Y1553998D02*
D03*
X2203998Y1580002D02*
D03*
X1949998Y1553998D02*
D03*
X2965998Y1259998D02*
D03*
X2711998Y1286002D02*
D03*
X2457998Y1259998D02*
D03*
X2203998Y1286002D02*
D03*
X2965998Y2213998D02*
D03*
X2711998Y2239998D02*
D03*
X2457998Y2213998D02*
D03*
X2203998Y2239998D02*
D03*
X1949998Y2213998D02*
D03*
X2965998Y1919998D02*
D03*
X2711998Y1945998D02*
D03*
X2457998Y1919998D02*
D03*
X2203998Y1945998D02*
D03*
D15*
X1949998Y499998D02*
D03*
Y1259998D02*
D03*
Y1919998D02*
D03*
D16*
X982999Y440003D02*
D03*
X1132996Y2260000D02*
D03*
D18*
X1195999Y2110003D02*
D03*
X770000D02*
D03*
X1195999Y2030003D02*
D03*
Y1950003D02*
D03*
Y1870003D02*
D03*
Y1790003D02*
D03*
Y1710003D02*
D03*
Y1630004D02*
D03*
Y1550004D02*
D03*
Y1470004D02*
D03*
Y1390004D02*
D03*
Y1310004D02*
D03*
Y1229999D02*
D03*
Y1149999D02*
D03*
Y1070000D02*
D03*
Y990000D02*
D03*
Y910000D02*
D03*
Y830000D02*
D03*
Y750000D02*
D03*
Y670000D02*
D03*
Y590001D02*
D03*
X770000Y2030003D02*
D03*
Y1950003D02*
D03*
Y1870003D02*
D03*
Y1790003D02*
D03*
Y1710003D02*
D03*
Y1630004D02*
D03*
Y1550004D02*
D03*
Y1470004D02*
D03*
Y1390004D02*
D03*
Y1310004D02*
D03*
Y1229999D02*
D03*
Y1149999D02*
D03*
Y1070000D02*
D03*
Y990000D02*
D03*
Y910000D02*
D03*
Y830000D02*
D03*
Y750000D02*
D03*
Y670000D02*
D03*
Y590001D02*
D03*
%TF.MD5,9d812b678a571b2c3fc304cbcd88d9e1*%
M02*
