%TF.GenerationSoftware,Altium Limited,Altium Designer,23.3.1 (30)*%
G04 Layer_Color=8421504*
%FSLAX45Y45*%
%MOMM*%
%TF.SameCoordinates,B56B3050-E4CE-4FE9-8081-1B6FDF6B35C2*%
%TF.FilePolarity,Positive*%
%TF.FileFunction,Paste,Top*%
%TF.Part,Single*%
G01*
G75*
%TA.AperFunction,BGAPad,SMDef*%
%ADD18C,0.25000*%
%TA.AperFunction,BGAPad,CuDef*%
%ADD19C,0.25000*%
%ADD20C,0.60000*%
%TA.AperFunction,SMDPad,CuDef*%
G04:AMPARAMS|DCode=53|XSize=0.53666mm|YSize=0.53666mm|CornerRadius=0.11833mm|HoleSize=0mm|Usage=FLASHONLY|Rotation=270.000|XOffset=0mm|YOffset=0mm|HoleType=Round|Shape=RoundedRectangle|*
%AMROUNDEDRECTD53*
21,1,0.53666,0.30000,0,0,270.0*
21,1,0.30000,0.53666,0,0,270.0*
1,1,0.23666,-0.15000,-0.15000*
1,1,0.23666,-0.15000,0.15000*
1,1,0.23666,0.15000,0.15000*
1,1,0.23666,0.15000,-0.15000*
%
%ADD53ROUNDEDRECTD53*%
G04:AMPARAMS|DCode=54|XSize=0.53666mm|YSize=0.53666mm|CornerRadius=0.11833mm|HoleSize=0mm|Usage=FLASHONLY|Rotation=0.000|XOffset=0mm|YOffset=0mm|HoleType=Round|Shape=RoundedRectangle|*
%AMROUNDEDRECTD54*
21,1,0.53666,0.30000,0,0,0.0*
21,1,0.30000,0.53666,0,0,0.0*
1,1,0.23666,0.15000,-0.15000*
1,1,0.23666,-0.15000,-0.15000*
1,1,0.23666,-0.15000,0.15000*
1,1,0.23666,0.15000,0.15000*
%
%ADD54ROUNDEDRECTD54*%
%TA.AperFunction,OtherPad,Free Pad (9mm,19.55mm)*%
G04:AMPARAMS|DCode=55|XSize=0.44mm|YSize=0.27mm|CornerRadius=0.1215mm|HoleSize=0mm|Usage=FLASHONLY|Rotation=0.000|XOffset=0mm|YOffset=0mm|HoleType=Round|Shape=RoundedRectangle|*
%AMROUNDEDRECTD55*
21,1,0.44000,0.02700,0,0,0.0*
21,1,0.19700,0.27000,0,0,0.0*
1,1,0.24300,0.09850,-0.01350*
1,1,0.24300,-0.09850,-0.01350*
1,1,0.24300,-0.09850,0.01350*
1,1,0.24300,0.09850,0.01350*
%
%ADD55ROUNDEDRECTD55*%
%TA.AperFunction,OtherPad,Free Pad (9mm,20.05mm)*%
G04:AMPARAMS|DCode=56|XSize=0.44mm|YSize=0.27mm|CornerRadius=0.1215mm|HoleSize=0mm|Usage=FLASHONLY|Rotation=0.000|XOffset=0mm|YOffset=0mm|HoleType=Round|Shape=RoundedRectangle|*
%AMROUNDEDRECTD56*
21,1,0.44000,0.02700,0,0,0.0*
21,1,0.19700,0.27000,0,0,0.0*
1,1,0.24300,0.09850,-0.01350*
1,1,0.24300,-0.09850,-0.01350*
1,1,0.24300,-0.09850,0.01350*
1,1,0.24300,0.09850,0.01350*
%
%ADD56ROUNDEDRECTD56*%
%TA.AperFunction,OtherPad,Free Pad (9mm,20.55mm)*%
G04:AMPARAMS|DCode=57|XSize=0.44mm|YSize=0.27mm|CornerRadius=0.1215mm|HoleSize=0mm|Usage=FLASHONLY|Rotation=0.000|XOffset=0mm|YOffset=0mm|HoleType=Round|Shape=RoundedRectangle|*
%AMROUNDEDRECTD57*
21,1,0.44000,0.02700,0,0,0.0*
21,1,0.19700,0.27000,0,0,0.0*
1,1,0.24300,0.09850,-0.01350*
1,1,0.24300,-0.09850,-0.01350*
1,1,0.24300,-0.09850,0.01350*
1,1,0.24300,0.09850,0.01350*
%
%ADD57ROUNDEDRECTD57*%
%TA.AperFunction,OtherPad,Free Pad (9mm,21.05mm)*%
G04:AMPARAMS|DCode=58|XSize=0.44mm|YSize=0.27mm|CornerRadius=0.1215mm|HoleSize=0mm|Usage=FLASHONLY|Rotation=0.000|XOffset=0mm|YOffset=0mm|HoleType=Round|Shape=RoundedRectangle|*
%AMROUNDEDRECTD58*
21,1,0.44000,0.02700,0,0,0.0*
21,1,0.19700,0.27000,0,0,0.0*
1,1,0.24300,0.09850,-0.01350*
1,1,0.24300,-0.09850,-0.01350*
1,1,0.24300,-0.09850,0.01350*
1,1,0.24300,0.09850,0.01350*
%
%ADD58ROUNDEDRECTD58*%
%TA.AperFunction,OtherPad,Free Pad (9.65mm,21.7mm)*%
G04:AMPARAMS|DCode=59|XSize=0.44mm|YSize=0.27mm|CornerRadius=0.1215mm|HoleSize=0mm|Usage=FLASHONLY|Rotation=270.000|XOffset=0mm|YOffset=0mm|HoleType=Round|Shape=RoundedRectangle|*
%AMROUNDEDRECTD59*
21,1,0.44000,0.02700,0,0,270.0*
21,1,0.19700,0.27000,0,0,270.0*
1,1,0.24300,-0.01350,-0.09850*
1,1,0.24300,-0.01350,0.09850*
1,1,0.24300,0.01350,0.09850*
1,1,0.24300,0.01350,-0.09850*
%
%ADD59ROUNDEDRECTD59*%
%TA.AperFunction,OtherPad,Free Pad (10.15mm,21.7mm)*%
G04:AMPARAMS|DCode=60|XSize=0.44mm|YSize=0.27mm|CornerRadius=0.1215mm|HoleSize=0mm|Usage=FLASHONLY|Rotation=270.000|XOffset=0mm|YOffset=0mm|HoleType=Round|Shape=RoundedRectangle|*
%AMROUNDEDRECTD60*
21,1,0.44000,0.02700,0,0,270.0*
21,1,0.19700,0.27000,0,0,270.0*
1,1,0.24300,-0.01350,-0.09850*
1,1,0.24300,-0.01350,0.09850*
1,1,0.24300,0.01350,0.09850*
1,1,0.24300,0.01350,-0.09850*
%
%ADD60ROUNDEDRECTD60*%
%TA.AperFunction,OtherPad,Free Pad (10.65mm,21.7mm)*%
G04:AMPARAMS|DCode=61|XSize=0.44mm|YSize=0.27mm|CornerRadius=0.1215mm|HoleSize=0mm|Usage=FLASHONLY|Rotation=270.000|XOffset=0mm|YOffset=0mm|HoleType=Round|Shape=RoundedRectangle|*
%AMROUNDEDRECTD61*
21,1,0.44000,0.02700,0,0,270.0*
21,1,0.19700,0.27000,0,0,270.0*
1,1,0.24300,-0.01350,-0.09850*
1,1,0.24300,-0.01350,0.09850*
1,1,0.24300,0.01350,0.09850*
1,1,0.24300,0.01350,-0.09850*
%
%ADD61ROUNDEDRECTD61*%
%TA.AperFunction,OtherPad,Free Pad (11.15mm,21.7mm)*%
G04:AMPARAMS|DCode=62|XSize=0.44mm|YSize=0.27mm|CornerRadius=0.1215mm|HoleSize=0mm|Usage=FLASHONLY|Rotation=270.000|XOffset=0mm|YOffset=0mm|HoleType=Round|Shape=RoundedRectangle|*
%AMROUNDEDRECTD62*
21,1,0.44000,0.02700,0,0,270.0*
21,1,0.19700,0.27000,0,0,270.0*
1,1,0.24300,-0.01350,-0.09850*
1,1,0.24300,-0.01350,0.09850*
1,1,0.24300,0.01350,0.09850*
1,1,0.24300,0.01350,-0.09850*
%
%ADD62ROUNDEDRECTD62*%
%TA.AperFunction,OtherPad,Free Pad (11.8mm,21.05mm)*%
G04:AMPARAMS|DCode=63|XSize=0.44mm|YSize=0.27mm|CornerRadius=0.1215mm|HoleSize=0mm|Usage=FLASHONLY|Rotation=180.000|XOffset=0mm|YOffset=0mm|HoleType=Round|Shape=RoundedRectangle|*
%AMROUNDEDRECTD63*
21,1,0.44000,0.02700,0,0,180.0*
21,1,0.19700,0.27000,0,0,180.0*
1,1,0.24300,-0.09850,0.01350*
1,1,0.24300,0.09850,0.01350*
1,1,0.24300,0.09850,-0.01350*
1,1,0.24300,-0.09850,-0.01350*
%
%ADD63ROUNDEDRECTD63*%
%TA.AperFunction,OtherPad,Free Pad (11.8mm,20.55mm)*%
G04:AMPARAMS|DCode=64|XSize=0.44mm|YSize=0.27mm|CornerRadius=0.1215mm|HoleSize=0mm|Usage=FLASHONLY|Rotation=180.000|XOffset=0mm|YOffset=0mm|HoleType=Round|Shape=RoundedRectangle|*
%AMROUNDEDRECTD64*
21,1,0.44000,0.02700,0,0,180.0*
21,1,0.19700,0.27000,0,0,180.0*
1,1,0.24300,-0.09850,0.01350*
1,1,0.24300,0.09850,0.01350*
1,1,0.24300,0.09850,-0.01350*
1,1,0.24300,-0.09850,-0.01350*
%
%ADD64ROUNDEDRECTD64*%
%TA.AperFunction,OtherPad,Free Pad (11.8mm,20.05mm)*%
G04:AMPARAMS|DCode=65|XSize=0.44mm|YSize=0.27mm|CornerRadius=0.1215mm|HoleSize=0mm|Usage=FLASHONLY|Rotation=180.000|XOffset=0mm|YOffset=0mm|HoleType=Round|Shape=RoundedRectangle|*
%AMROUNDEDRECTD65*
21,1,0.44000,0.02700,0,0,180.0*
21,1,0.19700,0.27000,0,0,180.0*
1,1,0.24300,-0.09850,0.01350*
1,1,0.24300,0.09850,0.01350*
1,1,0.24300,0.09850,-0.01350*
1,1,0.24300,-0.09850,-0.01350*
%
%ADD65ROUNDEDRECTD65*%
%TA.AperFunction,OtherPad,Free Pad (11.8mm,19.55mm)*%
G04:AMPARAMS|DCode=66|XSize=0.44mm|YSize=0.27mm|CornerRadius=0.1215mm|HoleSize=0mm|Usage=FLASHONLY|Rotation=180.000|XOffset=0mm|YOffset=0mm|HoleType=Round|Shape=RoundedRectangle|*
%AMROUNDEDRECTD66*
21,1,0.44000,0.02700,0,0,180.0*
21,1,0.19700,0.27000,0,0,180.0*
1,1,0.24300,-0.09850,0.01350*
1,1,0.24300,0.09850,0.01350*
1,1,0.24300,0.09850,-0.01350*
1,1,0.24300,-0.09850,-0.01350*
%
%ADD66ROUNDEDRECTD66*%
%TA.AperFunction,OtherPad,Free Pad (11.15mm,18.9mm)*%
G04:AMPARAMS|DCode=67|XSize=0.44mm|YSize=0.27mm|CornerRadius=0.1215mm|HoleSize=0mm|Usage=FLASHONLY|Rotation=90.000|XOffset=0mm|YOffset=0mm|HoleType=Round|Shape=RoundedRectangle|*
%AMROUNDEDRECTD67*
21,1,0.44000,0.02700,0,0,90.0*
21,1,0.19700,0.27000,0,0,90.0*
1,1,0.24300,0.01350,0.09850*
1,1,0.24300,0.01350,-0.09850*
1,1,0.24300,-0.01350,-0.09850*
1,1,0.24300,-0.01350,0.09850*
%
%ADD67ROUNDEDRECTD67*%
%TA.AperFunction,OtherPad,Free Pad (10.65mm,18.9mm)*%
G04:AMPARAMS|DCode=68|XSize=0.44mm|YSize=0.27mm|CornerRadius=0.1215mm|HoleSize=0mm|Usage=FLASHONLY|Rotation=90.000|XOffset=0mm|YOffset=0mm|HoleType=Round|Shape=RoundedRectangle|*
%AMROUNDEDRECTD68*
21,1,0.44000,0.02700,0,0,90.0*
21,1,0.19700,0.27000,0,0,90.0*
1,1,0.24300,0.01350,0.09850*
1,1,0.24300,0.01350,-0.09850*
1,1,0.24300,-0.01350,-0.09850*
1,1,0.24300,-0.01350,0.09850*
%
%ADD68ROUNDEDRECTD68*%
%TA.AperFunction,OtherPad,Free Pad (10.15mm,18.9mm)*%
G04:AMPARAMS|DCode=69|XSize=0.44mm|YSize=0.27mm|CornerRadius=0.1215mm|HoleSize=0mm|Usage=FLASHONLY|Rotation=90.000|XOffset=0mm|YOffset=0mm|HoleType=Round|Shape=RoundedRectangle|*
%AMROUNDEDRECTD69*
21,1,0.44000,0.02700,0,0,90.0*
21,1,0.19700,0.27000,0,0,90.0*
1,1,0.24300,0.01350,0.09850*
1,1,0.24300,0.01350,-0.09850*
1,1,0.24300,-0.01350,-0.09850*
1,1,0.24300,-0.01350,0.09850*
%
%ADD69ROUNDEDRECTD69*%
%TA.AperFunction,OtherPad,Free Pad (9.65mm,18.9mm)*%
G04:AMPARAMS|DCode=70|XSize=0.44mm|YSize=0.27mm|CornerRadius=0.1215mm|HoleSize=0mm|Usage=FLASHONLY|Rotation=90.000|XOffset=0mm|YOffset=0mm|HoleType=Round|Shape=RoundedRectangle|*
%AMROUNDEDRECTD70*
21,1,0.44000,0.02700,0,0,90.0*
21,1,0.19700,0.27000,0,0,90.0*
1,1,0.24300,0.01350,0.09850*
1,1,0.24300,0.01350,-0.09850*
1,1,0.24300,-0.01350,-0.09850*
1,1,0.24300,-0.01350,0.09850*
%
%ADD70ROUNDEDRECTD70*%
%TA.AperFunction,OtherPad,Free Pad (7.8mm,16.533mm)*%
G04:AMPARAMS|DCode=71|XSize=0.73mm|YSize=0.73mm|CornerRadius=0.3285mm|HoleSize=0mm|Usage=FLASHONLY|Rotation=0.000|XOffset=0mm|YOffset=0mm|HoleType=Round|Shape=RoundedRectangle|*
%AMROUNDEDRECTD71*
21,1,0.73000,0.07300,0,0,0.0*
21,1,0.07300,0.73000,0,0,0.0*
1,1,0.65700,0.03650,-0.03650*
1,1,0.65700,-0.03650,-0.03650*
1,1,0.65700,-0.03650,0.03650*
1,1,0.65700,0.03650,0.03650*
%
%ADD71ROUNDEDRECTD71*%
%TA.AperFunction,OtherPad,Free Pad (9.4mm,16.533mm)*%
G04:AMPARAMS|DCode=72|XSize=0.73mm|YSize=0.73mm|CornerRadius=0.3285mm|HoleSize=0mm|Usage=FLASHONLY|Rotation=0.000|XOffset=0mm|YOffset=0mm|HoleType=Round|Shape=RoundedRectangle|*
%AMROUNDEDRECTD72*
21,1,0.73000,0.07300,0,0,0.0*
21,1,0.07300,0.73000,0,0,0.0*
1,1,0.65700,0.03650,-0.03650*
1,1,0.65700,-0.03650,-0.03650*
1,1,0.65700,-0.03650,0.03650*
1,1,0.65700,0.03650,0.03650*
%
%ADD72ROUNDEDRECTD72*%
%TA.AperFunction,OtherPad,Free Pad (11mm,23.8mm)*%
G04:AMPARAMS|DCode=73|XSize=1mm|YSize=1mm|CornerRadius=0.45mm|HoleSize=0mm|Usage=FLASHONLY|Rotation=180.000|XOffset=0mm|YOffset=0mm|HoleType=Round|Shape=RoundedRectangle|*
%AMROUNDEDRECTD73*
21,1,1.00000,0.10000,0,0,180.0*
21,1,0.10000,1.00000,0,0,180.0*
1,1,0.90000,-0.05000,0.05000*
1,1,0.90000,0.05000,0.05000*
1,1,0.90000,0.05000,-0.05000*
1,1,0.90000,-0.05000,-0.05000*
%
%ADD73ROUNDEDRECTD73*%
%TA.AperFunction,OtherPad,Free Pad (8mm,23.8mm)*%
G04:AMPARAMS|DCode=74|XSize=1mm|YSize=1mm|CornerRadius=0.45mm|HoleSize=0mm|Usage=FLASHONLY|Rotation=180.000|XOffset=0mm|YOffset=0mm|HoleType=Round|Shape=RoundedRectangle|*
%AMROUNDEDRECTD74*
21,1,1.00000,0.10000,0,0,180.0*
21,1,0.10000,1.00000,0,0,180.0*
1,1,0.90000,-0.05000,0.05000*
1,1,0.90000,0.05000,0.05000*
1,1,0.90000,0.05000,-0.05000*
1,1,0.90000,-0.05000,-0.05000*
%
%ADD74ROUNDEDRECTD74*%
%TA.AperFunction,OtherPad,Free Pad (9.3mm,11.533mm)*%
G04:AMPARAMS|DCode=75|XSize=0.73mm|YSize=0.73mm|CornerRadius=0.3285mm|HoleSize=0mm|Usage=FLASHONLY|Rotation=0.000|XOffset=0mm|YOffset=0mm|HoleType=Round|Shape=RoundedRectangle|*
%AMROUNDEDRECTD75*
21,1,0.73000,0.07300,0,0,0.0*
21,1,0.07300,0.73000,0,0,0.0*
1,1,0.65700,0.03650,-0.03650*
1,1,0.65700,-0.03650,-0.03650*
1,1,0.65700,-0.03650,0.03650*
1,1,0.65700,0.03650,0.03650*
%
%ADD75ROUNDEDRECTD75*%
%TA.AperFunction,OtherPad,Free Pad (7.7mm,11.533mm)*%
G04:AMPARAMS|DCode=76|XSize=0.73mm|YSize=0.73mm|CornerRadius=0.3285mm|HoleSize=0mm|Usage=FLASHONLY|Rotation=0.000|XOffset=0mm|YOffset=0mm|HoleType=Round|Shape=RoundedRectangle|*
%AMROUNDEDRECTD76*
21,1,0.73000,0.07300,0,0,0.0*
21,1,0.07300,0.73000,0,0,0.0*
1,1,0.65700,0.03650,-0.03650*
1,1,0.65700,-0.03650,-0.03650*
1,1,0.65700,-0.03650,0.03650*
1,1,0.65700,0.03650,0.03650*
%
%ADD76ROUNDEDRECTD76*%
%TA.AperFunction,OtherPad,Free Pad (9.3mm,6.433mm)*%
G04:AMPARAMS|DCode=77|XSize=0.73mm|YSize=0.73mm|CornerRadius=0.3285mm|HoleSize=0mm|Usage=FLASHONLY|Rotation=0.000|XOffset=0mm|YOffset=0mm|HoleType=Round|Shape=RoundedRectangle|*
%AMROUNDEDRECTD77*
21,1,0.73000,0.07300,0,0,0.0*
21,1,0.07300,0.73000,0,0,0.0*
1,1,0.65700,0.03650,-0.03650*
1,1,0.65700,-0.03650,-0.03650*
1,1,0.65700,-0.03650,0.03650*
1,1,0.65700,0.03650,0.03650*
%
%ADD77ROUNDEDRECTD77*%
%TA.AperFunction,OtherPad,Free Pad (7.7mm,6.433mm)*%
G04:AMPARAMS|DCode=78|XSize=0.73mm|YSize=0.73mm|CornerRadius=0.3285mm|HoleSize=0mm|Usage=FLASHONLY|Rotation=0.000|XOffset=0mm|YOffset=0mm|HoleType=Round|Shape=RoundedRectangle|*
%AMROUNDEDRECTD78*
21,1,0.73000,0.07300,0,0,0.0*
21,1,0.07300,0.73000,0,0,0.0*
1,1,0.65700,0.03650,-0.03650*
1,1,0.65700,-0.03650,-0.03650*
1,1,0.65700,-0.03650,0.03650*
1,1,0.65700,0.03650,0.03650*
%
%ADD78ROUNDEDRECTD78*%
%TA.AperFunction,SMDPad,CuDef*%
G04:AMPARAMS|DCode=79|XSize=0.51738mm|YSize=1.21738mm|CornerRadius=0.09619mm|HoleSize=0mm|Usage=FLASHONLY|Rotation=270.000|XOffset=0mm|YOffset=0mm|HoleType=Round|Shape=RoundedRectangle|*
%AMROUNDEDRECTD79*
21,1,0.51738,1.02500,0,0,270.0*
21,1,0.32500,1.21738,0,0,270.0*
1,1,0.19237,-0.51250,-0.16250*
1,1,0.19237,-0.51250,0.16250*
1,1,0.19237,0.51250,0.16250*
1,1,0.19237,0.51250,-0.16250*
%
%ADD79ROUNDEDRECTD79*%
G04:AMPARAMS|DCode=80|XSize=1.45862mm|YSize=1.05862mm|CornerRadius=0.21681mm|HoleSize=0mm|Usage=FLASHONLY|Rotation=180.000|XOffset=0mm|YOffset=0mm|HoleType=Round|Shape=RoundedRectangle|*
%AMROUNDEDRECTD80*
21,1,1.45862,0.62500,0,0,180.0*
21,1,1.02500,1.05862,0,0,180.0*
1,1,0.43362,-0.51250,0.31250*
1,1,0.43362,0.51250,0.31250*
1,1,0.43362,0.51250,-0.31250*
1,1,0.43362,-0.51250,-0.31250*
%
%ADD80ROUNDEDRECTD80*%
G04:AMPARAMS|DCode=81|XSize=0.79903mm|YSize=0.79903mm|CornerRadius=0.11702mm|HoleSize=0mm|Usage=FLASHONLY|Rotation=90.000|XOffset=0mm|YOffset=0mm|HoleType=Round|Shape=RoundedRectangle|*
%AMROUNDEDRECTD81*
21,1,0.79903,0.56500,0,0,90.0*
21,1,0.56500,0.79903,0,0,90.0*
1,1,0.23403,0.28250,0.28250*
1,1,0.23403,0.28250,-0.28250*
1,1,0.23403,-0.28250,-0.28250*
1,1,0.23403,-0.28250,0.28250*
%
%ADD81ROUNDEDRECTD81*%
G04:AMPARAMS|DCode=82|XSize=0.51315mm|YSize=0.61315mm|CornerRadius=0.10658mm|HoleSize=0mm|Usage=FLASHONLY|Rotation=270.000|XOffset=0mm|YOffset=0mm|HoleType=Round|Shape=RoundedRectangle|*
%AMROUNDEDRECTD82*
21,1,0.51315,0.40000,0,0,270.0*
21,1,0.30000,0.61315,0,0,270.0*
1,1,0.21315,-0.20000,-0.15000*
1,1,0.21315,-0.20000,0.15000*
1,1,0.21315,0.20000,0.15000*
1,1,0.21315,0.20000,-0.15000*
%
%ADD82ROUNDEDRECTD82*%
G04:AMPARAMS|DCode=83|XSize=0.69282mm|YSize=0.69282mm|CornerRadius=0.14641mm|HoleSize=0mm|Usage=FLASHONLY|Rotation=180.000|XOffset=0mm|YOffset=0mm|HoleType=Round|Shape=RoundedRectangle|*
%AMROUNDEDRECTD83*
21,1,0.69282,0.40000,0,0,180.0*
21,1,0.40000,0.69282,0,0,180.0*
1,1,0.29282,-0.20000,0.20000*
1,1,0.29282,0.20000,0.20000*
1,1,0.29282,0.20000,-0.20000*
1,1,0.29282,-0.20000,-0.20000*
%
%ADD83ROUNDEDRECTD83*%
D18*
X2040000Y2270000D02*
D03*
X2540000D02*
D03*
X2090000Y2220000D02*
D03*
Y1820000D02*
D03*
X2040000Y1770000D02*
D03*
X2540000D02*
D03*
X2490000Y2220000D02*
D03*
D19*
X2090000Y2270000D02*
D03*
X2140000D02*
D03*
X2190000D02*
D03*
X2240000D02*
D03*
X2290000D02*
D03*
X2340000D02*
D03*
X2390000D02*
D03*
X2440000D02*
D03*
X2490000D02*
D03*
X2040000Y2220000D02*
D03*
X2140000D02*
D03*
X2190000D02*
D03*
X2240000D02*
D03*
X2290000D02*
D03*
X2340000D02*
D03*
X2390000D02*
D03*
X2440000D02*
D03*
X2540000D02*
D03*
X2040000Y2170000D02*
D03*
X2090000D02*
D03*
X2490000D02*
D03*
X2540000D02*
D03*
X2040000Y2120000D02*
D03*
X2090000D02*
D03*
X2190000D02*
D03*
X2240000D02*
D03*
X2290000D02*
D03*
X2340000D02*
D03*
X2390000D02*
D03*
X2490000D02*
D03*
X2540000D02*
D03*
X2040000Y2070000D02*
D03*
X2090000D02*
D03*
X2190000D02*
D03*
X2390000D02*
D03*
X2490000D02*
D03*
X2540000D02*
D03*
X2040000Y2020000D02*
D03*
X2090000D02*
D03*
X2190000D02*
D03*
X2390000D02*
D03*
X2490000D02*
D03*
X2540000D02*
D03*
X2040000Y1970000D02*
D03*
X2090000D02*
D03*
X2190000D02*
D03*
X2390000D02*
D03*
X2490000D02*
D03*
X2540000D02*
D03*
X2040000Y1920000D02*
D03*
X2090000D02*
D03*
X2190000D02*
D03*
X2240000D02*
D03*
X2290000D02*
D03*
X2340000D02*
D03*
X2390000D02*
D03*
X2490000D02*
D03*
X2540000D02*
D03*
X2040000Y1870000D02*
D03*
X2090000D02*
D03*
X2490000D02*
D03*
X2540000D02*
D03*
X2040000Y1820000D02*
D03*
X2140000D02*
D03*
X2190000D02*
D03*
X2240000D02*
D03*
X2290000D02*
D03*
X2340000D02*
D03*
X2390000D02*
D03*
X2440000D02*
D03*
X2540000D02*
D03*
X2090000Y1770000D02*
D03*
X2140000D02*
D03*
X2190000D02*
D03*
X2240000D02*
D03*
X2290000D02*
D03*
X2340000D02*
D03*
X2390000D02*
D03*
X2440000D02*
D03*
X2490000D02*
D03*
D20*
X2890000Y1070000D02*
D03*
X2780000D02*
D03*
X2560000D02*
D03*
X2450000D02*
D03*
X2340000D02*
D03*
X2230000D02*
D03*
X2120000D02*
D03*
X2010000D02*
D03*
X1900000D02*
D03*
X1790000D02*
D03*
X1680000D02*
D03*
X1570000D02*
D03*
X2560000Y960000D02*
D03*
X2450000D02*
D03*
X2340000D02*
D03*
X2230000D02*
D03*
X2120000D02*
D03*
X2010000D02*
D03*
X1900000D02*
D03*
X1790000D02*
D03*
X1680000D02*
D03*
X1570000D02*
D03*
X2560000Y850000D02*
D03*
X2450000D02*
D03*
X2340000D02*
D03*
X2230000D02*
D03*
X2120000D02*
D03*
X2010000D02*
D03*
X1900000D02*
D03*
X1790000D02*
D03*
X1680000D02*
D03*
X1570000D02*
D03*
X2560000Y740000D02*
D03*
X2450000D02*
D03*
X2340000D02*
D03*
X2230000D02*
D03*
X2120000D02*
D03*
X2010000D02*
D03*
X1900000D02*
D03*
X1790000D02*
D03*
X1680000D02*
D03*
X1570000D02*
D03*
X2560000Y630000D02*
D03*
X2450000D02*
D03*
X2340000D02*
D03*
X2230000D02*
D03*
X2120000D02*
D03*
X2010000D02*
D03*
X1900000D02*
D03*
X1790000D02*
D03*
X1680000D02*
D03*
X1570000D02*
D03*
X2560000Y520000D02*
D03*
X2450000D02*
D03*
X2340000D02*
D03*
X2230000D02*
D03*
X2120000D02*
D03*
X2010000D02*
D03*
X1900000D02*
D03*
X1790000D02*
D03*
X1680000D02*
D03*
X1570000D02*
D03*
X2890000Y410000D02*
D03*
X2780000D02*
D03*
X2560000D02*
D03*
X2450000D02*
D03*
X2340000D02*
D03*
X2230000D02*
D03*
X2120000D02*
D03*
X2010000D02*
D03*
X1900000D02*
D03*
X1790000D02*
D03*
X1680000D02*
D03*
X1570000D02*
D03*
D53*
X780000Y2130000D02*
D03*
X680000D02*
D03*
X780000Y2230000D02*
D03*
X680000D02*
D03*
X1920000Y1760000D02*
D03*
X1820000D02*
D03*
X2090000Y2410000D02*
D03*
X2190000D02*
D03*
X1870002Y2130001D02*
D03*
X1770002D02*
D03*
X1710000Y1270000D02*
D03*
X1810000D02*
D03*
X650000Y200000D02*
D03*
X750000D02*
D03*
D54*
X660000Y2330000D02*
D03*
Y2430000D02*
D03*
X650000Y1663289D02*
D03*
Y1563289D02*
D03*
X2550000Y1610000D02*
D03*
Y1510000D02*
D03*
X2750000Y1610000D02*
D03*
Y1510000D02*
D03*
X2650000Y1610000D02*
D03*
Y1510000D02*
D03*
X2280000Y1370000D02*
D03*
Y1270000D02*
D03*
X2380000Y1370000D02*
D03*
Y1270000D02*
D03*
X1000000Y1440000D02*
D03*
Y1540000D02*
D03*
X990000Y940000D02*
D03*
Y1040000D02*
D03*
X650000Y1173289D02*
D03*
Y1073289D02*
D03*
X1850000Y1630000D02*
D03*
Y1530000D02*
D03*
X990000Y320000D02*
D03*
Y420000D02*
D03*
X640000Y663289D02*
D03*
Y563289D02*
D03*
X1750001Y1630000D02*
D03*
Y1530000D02*
D03*
X1740000Y1930000D02*
D03*
Y2030000D02*
D03*
X1350000Y850000D02*
D03*
Y750000D02*
D03*
D55*
X900000Y1955000D02*
D03*
D56*
Y2005000D02*
D03*
D57*
Y2055000D02*
D03*
D58*
Y2105000D02*
D03*
D59*
X965000Y2170000D02*
D03*
D60*
X1015000D02*
D03*
D61*
X1065000D02*
D03*
D62*
X1115000D02*
D03*
D63*
X1180000Y2105000D02*
D03*
D64*
Y2055000D02*
D03*
D65*
Y2005000D02*
D03*
D66*
Y1955000D02*
D03*
D67*
X1115000Y1890000D02*
D03*
D68*
X1065000D02*
D03*
D69*
X1015000D02*
D03*
D70*
X965000D02*
D03*
D71*
X780000Y1653289D02*
D03*
D72*
X940000D02*
D03*
D73*
X1100000Y2380000D02*
D03*
D74*
X800000D02*
D03*
D75*
X930000Y1153289D02*
D03*
D76*
X770000D02*
D03*
D77*
X930000Y643289D02*
D03*
D78*
X770000D02*
D03*
D79*
X750000Y2025000D02*
D03*
Y1875000D02*
D03*
X1880001Y1875000D02*
D03*
Y2025000D02*
D03*
D80*
X1250000Y1450000D02*
D03*
Y1730000D02*
D03*
X1470000Y1450000D02*
D03*
Y1730000D02*
D03*
D81*
X1040000Y2030000D02*
D03*
D82*
X890000Y1338289D02*
D03*
Y1528289D02*
D03*
X670000Y1433289D02*
D03*
X880000Y828289D02*
D03*
Y1018289D02*
D03*
X660000Y923289D02*
D03*
X880000Y318289D02*
D03*
Y508289D02*
D03*
X660000Y413289D02*
D03*
D83*
X2690000Y2070000D02*
D03*
Y2230000D02*
D03*
%TF.MD5,322603ef6d54674e7e046bd5535f6b44*%
M02*
