%TF.GenerationSoftware,Altium Limited,Altium Designer,23.3.1 (30)*%
G04 Layer_Color=128*
%FSLAX45Y45*%
%MOMM*%
%TF.SameCoordinates,B56B3050-E4CE-4FE9-8081-1B6FDF6B35C2*%
%TF.FilePolarity,Positive*%
%TF.FileFunction,Paste,Bot*%
%TF.Part,Single*%
G01*
G75*
%TA.AperFunction,SMDPad,CuDef*%
G04:AMPARAMS|DCode=53|XSize=0.53666mm|YSize=0.53666mm|CornerRadius=0.11833mm|HoleSize=0mm|Usage=FLASHONLY|Rotation=270.000|XOffset=0mm|YOffset=0mm|HoleType=Round|Shape=RoundedRectangle|*
%AMROUNDEDRECTD53*
21,1,0.53666,0.30000,0,0,270.0*
21,1,0.30000,0.53666,0,0,270.0*
1,1,0.23666,-0.15000,-0.15000*
1,1,0.23666,-0.15000,0.15000*
1,1,0.23666,0.15000,0.15000*
1,1,0.23666,0.15000,-0.15000*
%
%ADD53ROUNDEDRECTD53*%
G04:AMPARAMS|DCode=54|XSize=0.53666mm|YSize=0.53666mm|CornerRadius=0.11833mm|HoleSize=0mm|Usage=FLASHONLY|Rotation=0.000|XOffset=0mm|YOffset=0mm|HoleType=Round|Shape=RoundedRectangle|*
%AMROUNDEDRECTD54*
21,1,0.53666,0.30000,0,0,0.0*
21,1,0.30000,0.53666,0,0,0.0*
1,1,0.23666,0.15000,-0.15000*
1,1,0.23666,-0.15000,-0.15000*
1,1,0.23666,-0.15000,0.15000*
1,1,0.23666,0.15000,0.15000*
%
%ADD54ROUNDEDRECTD54*%
D53*
X1100000Y2380000D02*
D03*
X1000000D02*
D03*
X1850000Y1530000D02*
D03*
X1750000D02*
D03*
X760000Y390000D02*
D03*
X660000D02*
D03*
X2330000Y2270000D02*
D03*
X2430000D02*
D03*
X750000Y1670000D02*
D03*
X650000D02*
D03*
X759999Y889998D02*
D03*
X659999D02*
D03*
X1000000Y1250000D02*
D03*
X900000D02*
D03*
X1000000Y1830000D02*
D03*
X900000D02*
D03*
X750000Y2000000D02*
D03*
X650000D02*
D03*
X1300000Y2380000D02*
D03*
X1200000D02*
D03*
X1610000Y2310000D02*
D03*
X1510000D02*
D03*
X1000000Y1540000D02*
D03*
X900000D02*
D03*
X1810000Y2210000D02*
D03*
X1710000D02*
D03*
X1000000Y1030000D02*
D03*
X900000D02*
D03*
X1000000Y2160000D02*
D03*
X900000D02*
D03*
X740000Y2280000D02*
D03*
X640000D02*
D03*
X2330000Y2370000D02*
D03*
X2430000D02*
D03*
X750000Y1410000D02*
D03*
X650000D02*
D03*
X650000Y1570000D02*
D03*
X750000D02*
D03*
X1510000Y2210000D02*
D03*
X1410000D02*
D03*
X650000Y1310000D02*
D03*
X750000D02*
D03*
X1200000Y2280000D02*
D03*
X1300000D02*
D03*
X900000Y1440000D02*
D03*
X1000000D02*
D03*
X660000Y790000D02*
D03*
X760000D02*
D03*
X1000000Y1150000D02*
D03*
X900000D02*
D03*
X760000Y670000D02*
D03*
X660000D02*
D03*
X760000Y570000D02*
D03*
X660000D02*
D03*
X1000000Y930000D02*
D03*
X900000D02*
D03*
X1000000Y1730000D02*
D03*
X900000D02*
D03*
X750000Y1910000D02*
D03*
X650000D02*
D03*
X900000Y2060000D02*
D03*
X1000000D02*
D03*
X640000Y2180000D02*
D03*
X740000D02*
D03*
D54*
X1610000Y2110000D02*
D03*
Y2010000D02*
D03*
X2660000Y1830000D02*
D03*
Y1730000D02*
D03*
X990000Y320000D02*
D03*
Y420000D02*
D03*
X1710000Y2010000D02*
D03*
Y2110000D02*
D03*
X2660000Y1510000D02*
D03*
Y1610000D02*
D03*
X1570000Y1070000D02*
D03*
Y970000D02*
D03*
%TF.MD5,25e9b291dc7d8fb3bf29ecc1edfe76b2*%
M02*
