%TF.GenerationSoftware,Altium Limited,Altium Designer,23.3.1 (30)*%
G04 Layer_Physical_Order=1*
G04 Layer_Color=255*
%FSLAX45Y45*%
%MOMM*%
%TF.SameCoordinates,B56B3050-E4CE-4FE9-8081-1B6FDF6B35C2*%
%TF.FilePolarity,Positive*%
%TF.FileFunction,Copper,L1,Top,Signal*%
%TF.Part,Single*%
G01*
G75*
%TA.AperFunction,SMDPad,CuDef*%
G04:AMPARAMS|DCode=10|XSize=0.65mm|YSize=1.35mm|CornerRadius=0.1625mm|HoleSize=0mm|Usage=FLASHONLY|Rotation=270.000|XOffset=0mm|YOffset=0mm|HoleType=Round|Shape=RoundedRectangle|*
%AMROUNDEDRECTD10*
21,1,0.65000,1.02500,0,0,270.0*
21,1,0.32500,1.35000,0,0,270.0*
1,1,0.32500,-0.51250,-0.16250*
1,1,0.32500,-0.51250,0.16250*
1,1,0.32500,0.51250,0.16250*
1,1,0.32500,0.51250,-0.16250*
%
%ADD10ROUNDEDRECTD10*%
G04:AMPARAMS|DCode=11|XSize=0.6mm|YSize=0.6mm|CornerRadius=0.15mm|HoleSize=0mm|Usage=FLASHONLY|Rotation=90.000|XOffset=0mm|YOffset=0mm|HoleType=Round|Shape=RoundedRectangle|*
%AMROUNDEDRECTD11*
21,1,0.60000,0.30000,0,0,90.0*
21,1,0.30000,0.60000,0,0,90.0*
1,1,0.30000,0.15000,0.15000*
1,1,0.30000,0.15000,-0.15000*
1,1,0.30000,-0.15000,-0.15000*
1,1,0.30000,-0.15000,0.15000*
%
%ADD11ROUNDEDRECTD11*%
G04:AMPARAMS|DCode=12|XSize=0.6mm|YSize=0.6mm|CornerRadius=0.15mm|HoleSize=0mm|Usage=FLASHONLY|Rotation=0.000|XOffset=0mm|YOffset=0mm|HoleType=Round|Shape=RoundedRectangle|*
%AMROUNDEDRECTD12*
21,1,0.60000,0.30000,0,0,0.0*
21,1,0.30000,0.60000,0,0,0.0*
1,1,0.30000,0.15000,-0.15000*
1,1,0.30000,-0.15000,-0.15000*
1,1,0.30000,-0.15000,0.15000*
1,1,0.30000,0.15000,0.15000*
%
%ADD12ROUNDEDRECTD12*%
G04:AMPARAMS|DCode=13|XSize=1.65mm|YSize=1.25mm|CornerRadius=0.3125mm|HoleSize=0mm|Usage=FLASHONLY|Rotation=180.000|XOffset=0mm|YOffset=0mm|HoleType=Round|Shape=RoundedRectangle|*
%AMROUNDEDRECTD13*
21,1,1.65000,0.62500,0,0,180.0*
21,1,1.02500,1.25000,0,0,180.0*
1,1,0.62500,-0.51250,0.31250*
1,1,0.62500,0.51250,0.31250*
1,1,0.62500,0.51250,-0.31250*
1,1,0.62500,-0.51250,-0.31250*
%
%ADD13ROUNDEDRECTD13*%
%ADD14R,0.23000X0.75000*%
G04:AMPARAMS|DCode=15|XSize=0.23mm|YSize=0.75mm|CornerRadius=0.0575mm|HoleSize=0mm|Usage=FLASHONLY|Rotation=180.000|XOffset=0mm|YOffset=0mm|HoleType=Round|Shape=RoundedRectangle|*
%AMROUNDEDRECTD15*
21,1,0.23000,0.63500,0,0,180.0*
21,1,0.11500,0.75000,0,0,180.0*
1,1,0.11500,-0.05750,0.31750*
1,1,0.11500,0.05750,0.31750*
1,1,0.11500,0.05750,-0.31750*
1,1,0.11500,-0.05750,-0.31750*
%
%ADD15ROUNDEDRECTD15*%
G04:AMPARAMS|DCode=16|XSize=0.23mm|YSize=0.75mm|CornerRadius=0.0575mm|HoleSize=0mm|Usage=FLASHONLY|Rotation=90.000|XOffset=0mm|YOffset=0mm|HoleType=Round|Shape=RoundedRectangle|*
%AMROUNDEDRECTD16*
21,1,0.23000,0.63500,0,0,90.0*
21,1,0.11500,0.75000,0,0,90.0*
1,1,0.11500,0.31750,0.05750*
1,1,0.11500,0.31750,-0.05750*
1,1,0.11500,-0.31750,-0.05750*
1,1,0.11500,-0.31750,0.05750*
%
%ADD16ROUNDEDRECTD16*%
G04:AMPARAMS|DCode=17|XSize=1.13mm|YSize=1.13mm|CornerRadius=0.2825mm|HoleSize=0mm|Usage=FLASHONLY|Rotation=90.000|XOffset=0mm|YOffset=0mm|HoleType=Round|Shape=RoundedRectangle|*
%AMROUNDEDRECTD17*
21,1,1.13000,0.56500,0,0,90.0*
21,1,0.56500,1.13000,0,0,90.0*
1,1,0.56500,0.28250,0.28250*
1,1,0.56500,0.28250,-0.28250*
1,1,0.56500,-0.28250,-0.28250*
1,1,0.56500,-0.28250,0.28250*
%
%ADD17ROUNDEDRECTD17*%
%TA.AperFunction,BGAPad,SMDef*%
%ADD18C,0.25000*%
%TA.AperFunction,BGAPad,CuDef*%
%ADD19C,0.25000*%
%ADD20C,0.60000*%
%TA.AperFunction,SMDPad,CuDef*%
G04:AMPARAMS|DCode=21|XSize=0.6mm|YSize=0.7mm|CornerRadius=0.15mm|HoleSize=0mm|Usage=FLASHONLY|Rotation=270.000|XOffset=0mm|YOffset=0mm|HoleType=Round|Shape=RoundedRectangle|*
%AMROUNDEDRECTD21*
21,1,0.60000,0.40000,0,0,270.0*
21,1,0.30000,0.70000,0,0,270.0*
1,1,0.30000,-0.20000,-0.15000*
1,1,0.30000,-0.20000,0.15000*
1,1,0.30000,0.20000,0.15000*
1,1,0.30000,0.20000,-0.15000*
%
%ADD21ROUNDEDRECTD21*%
G04:AMPARAMS|DCode=22|XSize=0.8mm|YSize=0.8mm|CornerRadius=0.2mm|HoleSize=0mm|Usage=FLASHONLY|Rotation=90.000|XOffset=0mm|YOffset=0mm|HoleType=Round|Shape=RoundedRectangle|*
%AMROUNDEDRECTD22*
21,1,0.80000,0.40000,0,0,90.0*
21,1,0.40000,0.80000,0,0,90.0*
1,1,0.40000,0.20000,0.20000*
1,1,0.40000,0.20000,-0.20000*
1,1,0.40000,-0.20000,-0.20000*
1,1,0.40000,-0.20000,0.20000*
%
%ADD22ROUNDEDRECTD22*%
%ADD23R,0.80000X0.80000*%
%ADD24R,1.10000X1.10000*%
G04:AMPARAMS|DCode=25|XSize=1.1mm|YSize=1.1mm|CornerRadius=0.275mm|HoleSize=0mm|Usage=FLASHONLY|Rotation=270.000|XOffset=0mm|YOffset=0mm|HoleType=Round|Shape=RoundedRectangle|*
%AMROUNDEDRECTD25*
21,1,1.10000,0.55000,0,0,270.0*
21,1,0.55000,1.10000,0,0,270.0*
1,1,0.55000,-0.27500,-0.27500*
1,1,0.55000,-0.27500,0.27500*
1,1,0.55000,0.27500,0.27500*
1,1,0.55000,0.27500,-0.27500*
%
%ADD25ROUNDEDRECTD25*%
G04:AMPARAMS|DCode=26|XSize=0.8mm|YSize=0.8mm|CornerRadius=0.2mm|HoleSize=0mm|Usage=FLASHONLY|Rotation=180.000|XOffset=0mm|YOffset=0mm|HoleType=Round|Shape=RoundedRectangle|*
%AMROUNDEDRECTD26*
21,1,0.80000,0.40000,0,0,180.0*
21,1,0.40000,0.80000,0,0,180.0*
1,1,0.40000,-0.20000,0.20000*
1,1,0.40000,0.20000,0.20000*
1,1,0.40000,0.20000,-0.20000*
1,1,0.40000,-0.20000,-0.20000*
%
%ADD26ROUNDEDRECTD26*%
%TA.AperFunction,Conductor*%
%ADD27C,0.15000*%
%ADD28C,0.20000*%
%TA.AperFunction,NonConductor*%
%ADD29C,0.15000*%
%TA.AperFunction,Conductor*%
%ADD30C,0.25000*%
%TA.AperFunction,ComponentPad*%
G04:AMPARAMS|DCode=31|XSize=1.7mm|YSize=2.1mm|CornerRadius=0mm|HoleSize=0mm|Usage=FLASHONLY|Rotation=270.000|XOffset=0mm|YOffset=0mm|HoleType=Round|Shape=Octagon|*
%AMOCTAGOND31*
4,1,8,1.05000,0.42500,1.05000,-0.42500,0.62500,-0.85000,-0.62500,-0.85000,-1.05000,-0.42500,-1.05000,0.42500,-0.62500,0.85000,0.62500,0.85000,1.05000,0.42500,0.0*
%
%ADD31OCTAGOND31*%

G04:AMPARAMS|DCode=32|XSize=1.7mm|YSize=2.1mm|CornerRadius=0.425mm|HoleSize=0mm|Usage=FLASHONLY|Rotation=270.000|XOffset=0mm|YOffset=0mm|HoleType=Round|Shape=RoundedRectangle|*
%AMROUNDEDRECTD32*
21,1,1.70000,1.25001,0,0,270.0*
21,1,0.85000,2.10000,0,0,270.0*
1,1,0.85000,-0.62500,-0.42500*
1,1,0.85000,-0.62500,0.42500*
1,1,0.85000,0.62500,0.42500*
1,1,0.85000,0.62500,-0.42500*
%
%ADD32ROUNDEDRECTD32*%
%TA.AperFunction,ViaPad*%
%ADD33C,0.45000*%
G36*
X933090Y2469533D02*
X934290Y2468980D01*
X935865Y2468492D01*
X937816Y2468070D01*
X940143Y2467712D01*
X945921Y2467192D01*
X953202Y2466932D01*
X957405Y2466900D01*
Y2441900D01*
X953202Y2441868D01*
X937816Y2440730D01*
X935865Y2440308D01*
X934290Y2439820D01*
X933090Y2439267D01*
X932265Y2438650D01*
Y2470150D01*
X933090Y2469533D01*
D02*
G37*
G36*
X2062598Y2420084D02*
X2065000Y2419998D01*
X2062598Y2416060D01*
X2062600Y2389266D01*
X2118843D01*
X2115262Y2383697D01*
X2109232Y2372989D01*
X2106782Y2367849D01*
X2103013Y2358000D01*
X2101694Y2353289D01*
X2100752Y2348722D01*
X2100187Y2344298D01*
X2099998Y2340017D01*
X2079998D01*
X2079810Y2344299D01*
X2079245Y2348724D01*
X2078303Y2353291D01*
X2076984Y2358002D01*
X2075288Y2362856D01*
X2073216Y2367852D01*
X2067940Y2378273D01*
X2064737Y2383698D01*
X2061158Y2389266D01*
X2062376D01*
X2062274Y2390001D01*
X2061296Y2392099D01*
X2059666Y2393950D01*
X2057384Y2395555D01*
X2054450Y2396912D01*
X2050865Y2398023D01*
X2046627Y2398887D01*
X2041737Y2399504D01*
X2038935Y2399691D01*
X2029222Y2399477D01*
X2030002Y2401239D01*
Y2419998D01*
X2036196Y2420121D01*
X2038459Y2420335D01*
X2041395Y2426965D01*
X2042039Y2425641D01*
X2043065Y2424457D01*
X2044472Y2423412D01*
X2046260Y2422506D01*
X2048430Y2421740D01*
X2049016Y2421596D01*
X2050864Y2421972D01*
X2054449Y2423083D01*
X2057382Y2424441D01*
X2059664Y2426045D01*
X2061294Y2427897D01*
X2062271Y2429995D01*
X2062597Y2432340D01*
X2062598Y2420084D01*
D02*
G37*
G36*
X1041049Y2456747D02*
X1061787Y2438861D01*
X1065544Y2436411D01*
X1068730Y2434769D01*
X1071345Y2433936D01*
X1073390Y2433911D01*
X1074863Y2434695D01*
X1045305Y2405137D01*
X1046089Y2406610D01*
X1046064Y2408655D01*
X1045231Y2411270D01*
X1043589Y2414456D01*
X1041139Y2418213D01*
X1037880Y2422541D01*
X1028937Y2432910D01*
X1016760Y2445562D01*
X1034438Y2463240D01*
X1041049Y2456747D01*
D02*
G37*
G36*
X2008555Y2461056D02*
X2003417Y2460034D01*
X1989359Y2450641D01*
X1979966Y2436583D01*
X1976668Y2420000D01*
X1979966Y2403417D01*
X1989359Y2389359D01*
X2003417Y2379966D01*
X1999005Y2366247D01*
X1989999Y2368038D01*
X1979269Y2365904D01*
X1970173Y2359826D01*
X1964095Y2350730D01*
X1963294Y2346704D01*
X1959270Y2345904D01*
X1950174Y2339826D01*
X1944096Y2330730D01*
X1941962Y2320000D01*
X1944096Y2309270D01*
X1950174Y2300174D01*
X1959270Y2294096D01*
X1961417Y2278792D01*
X1958823Y2277059D01*
X1949429Y2263001D01*
X1946131Y2246418D01*
X1946876Y2242670D01*
X1933417Y2239993D01*
X1919359Y2230600D01*
X1909965Y2216542D01*
X1906667Y2199959D01*
X1908801Y2189233D01*
X1903840Y2183725D01*
X1896643Y2178371D01*
X1885002Y2180687D01*
X1855002D01*
X1841345Y2177970D01*
X1832277Y2171911D01*
X1829768Y2170235D01*
X1814229Y2173978D01*
X1814128Y2174127D01*
X1800765Y2183057D01*
X1785002Y2186192D01*
X1782702D01*
Y2130001D01*
X1770002D01*
Y2117301D01*
X1749268D01*
Y2101158D01*
X1743699Y2104739D01*
X1732990Y2110769D01*
X1727850Y2113219D01*
X1718001Y2116988D01*
X1716884Y2117301D01*
X1713810D01*
Y2115001D01*
X1716946Y2099238D01*
X1709662Y2083140D01*
X1709237Y2083056D01*
X1695873Y2074127D01*
X1686944Y2060763D01*
X1683809Y2045000D01*
Y2042700D01*
X1740000D01*
Y2017300D01*
X1683809D01*
Y2015000D01*
X1686944Y1999237D01*
X1695873Y1985873D01*
X1696023Y1985773D01*
X1699766Y1970234D01*
X1698090Y1967725D01*
X1692031Y1958656D01*
X1689314Y1945000D01*
Y1915000D01*
X1692031Y1901344D01*
X1699766Y1889767D01*
X1711344Y1882031D01*
X1725000Y1879315D01*
X1755000D01*
X1768656Y1882031D01*
X1780233Y1889767D01*
X1790031Y1879646D01*
X1790603Y1878826D01*
X1791790Y1876761D01*
Y1863699D01*
X1791175Y1861983D01*
X1791790Y1860681D01*
Y1859676D01*
X1791596Y1858662D01*
X1791896Y1858220D01*
X1794604Y1844606D01*
X1802616Y1832615D01*
X1804843Y1831126D01*
X1804902Y1825562D01*
X1801298Y1815455D01*
X1789237Y1813056D01*
X1775874Y1804127D01*
X1766944Y1790763D01*
X1763809Y1775000D01*
Y1772700D01*
X1785537D01*
X1789265Y1776885D01*
X1790550Y1779093D01*
X1791158Y1780734D01*
X1793049Y1772700D01*
X1820000D01*
Y1760000D01*
X1832700D01*
Y1703809D01*
X1835000D01*
X1837175Y1704241D01*
X1843536Y1690622D01*
X1831680Y1682472D01*
X1829229Y1681382D01*
X1826947Y1680580D01*
X1823991Y1679838D01*
X1822712Y1678888D01*
X1821119Y1678899D01*
X1817727Y1675553D01*
X1812276Y1671910D01*
X1809766Y1670234D01*
X1794227Y1673977D01*
X1794127Y1674127D01*
X1780764Y1683056D01*
X1765001Y1686191D01*
X1762701D01*
Y1683120D01*
X1763014Y1682000D01*
X1764710Y1677147D01*
X1766783Y1672151D01*
X1772059Y1661728D01*
X1775263Y1656303D01*
X1778843Y1650734D01*
X1762701D01*
Y1630000D01*
X1750001D01*
Y1617300D01*
X1693809D01*
Y1615000D01*
X1696945Y1599237D01*
X1705874Y1585873D01*
X1706024Y1585773D01*
X1706167Y1585181D01*
X1698770Y1573491D01*
X1694275Y1570493D01*
X1680000Y1573332D01*
X1663417Y1570034D01*
X1649359Y1560641D01*
X1639966Y1546583D01*
X1636668Y1530000D01*
X1639966Y1513417D01*
X1649359Y1499359D01*
X1663417Y1489966D01*
X1680000Y1486668D01*
X1696582Y1489966D01*
X1709767Y1489767D01*
X1721344Y1482031D01*
X1735001Y1479315D01*
X1765001D01*
X1778657Y1482031D01*
X1790234Y1489767D01*
X1790980Y1490883D01*
X1796019Y1492361D01*
X1803982D01*
X1809021Y1490883D01*
X1809767Y1489767D01*
X1821344Y1482031D01*
X1835000Y1479315D01*
X1844843D01*
X1851056Y1464315D01*
X1780483Y1393742D01*
X1777999Y1392754D01*
X1775495Y1390320D01*
X1771036Y1386400D01*
X1769555Y1385257D01*
X1768263Y1384367D01*
X1767395Y1383849D01*
X1767242Y1383773D01*
X1766895Y1383691D01*
X1766700Y1383550D01*
X1766129Y1383336D01*
X1765179Y1382450D01*
X1765029Y1382342D01*
X1753414Y1380031D01*
X1739356Y1370638D01*
X1729963Y1356580D01*
X1726664Y1339997D01*
X1727872Y1333925D01*
X1727400Y1333159D01*
X1726997Y1332600D01*
X1723987Y1329802D01*
X1718099Y1325080D01*
X1712969Y1321497D01*
X1711559Y1320686D01*
X1699102D01*
X1697557Y1321326D01*
X1696011Y1320686D01*
X1695690D01*
X1694143Y1321055D01*
X1692845Y1320257D01*
X1681344Y1317969D01*
X1669767Y1310234D01*
X1662031Y1298656D01*
X1659314Y1285000D01*
Y1262573D01*
X1658373Y1261631D01*
X1651742Y1251708D01*
X1649414Y1240003D01*
X1649414Y1240001D01*
Y1161635D01*
X1649205Y1161198D01*
X1634414Y1152882D01*
X1632531Y1154027D01*
X1630034Y1166583D01*
X1620641Y1180641D01*
X1606583Y1190034D01*
X1590000Y1193332D01*
X1573417Y1190034D01*
X1559360Y1180641D01*
X1550640D01*
X1536583Y1190034D01*
X1520000Y1193332D01*
X1503417Y1190034D01*
X1489359Y1180641D01*
X1479966Y1166583D01*
X1476668Y1150000D01*
X1479966Y1133417D01*
X1484741Y1126271D01*
X1482579Y1111869D01*
X1479770Y1108766D01*
X1468317Y1101113D01*
X1458923Y1087055D01*
X1455625Y1070472D01*
X1458923Y1053890D01*
X1468317Y1039832D01*
X1469699Y1038908D01*
Y1020867D01*
X1469360Y1020641D01*
X1459966Y1006583D01*
X1456668Y990000D01*
X1459966Y973417D01*
X1469360Y959360D01*
X1483417Y949966D01*
X1500000Y946668D01*
X1505764Y947814D01*
X1507364Y945539D01*
X1499576Y930539D01*
X1420725D01*
X1419579Y931736D01*
X1417951Y933606D01*
X1416645Y935281D01*
X1415649Y936731D01*
X1414942Y937929D01*
X1414494Y938844D01*
X1414260Y939450D01*
X1414176Y939751D01*
X1414174Y939762D01*
X1414120Y940853D01*
X1412470Y944334D01*
X1410034Y956583D01*
X1400641Y970640D01*
X1386583Y980034D01*
X1370000Y983332D01*
X1353417Y980034D01*
X1339360Y970640D01*
X1329966Y956583D01*
X1326668Y940000D01*
X1329966Y923417D01*
X1335132Y915685D01*
X1335109Y913034D01*
X1329141Y899520D01*
X1321344Y897969D01*
X1309767Y890234D01*
X1307083Y889700D01*
X1306583Y890034D01*
X1290000Y893332D01*
X1273417Y890034D01*
X1259359Y880641D01*
X1249966Y866583D01*
X1246668Y850000D01*
X1249966Y833417D01*
X1259359Y819360D01*
X1273417Y809966D01*
X1290000Y806668D01*
X1300883Y808832D01*
X1306358Y795615D01*
X1306023Y794227D01*
X1305873Y794127D01*
X1296944Y780763D01*
X1293809Y765000D01*
Y762700D01*
X1306067D01*
Y765751D01*
X1307348Y764658D01*
X1308935Y763681D01*
X1310827Y762818D01*
X1311176Y762700D01*
X1313202D01*
X1314450Y763087D01*
X1317384Y764444D01*
X1319666Y766049D01*
X1321296Y767900D01*
X1322274Y769999D01*
X1322600Y772344D01*
X1322600Y762700D01*
X1350000D01*
Y737300D01*
X1322599D01*
X1322599Y727658D01*
X1322273Y730003D01*
X1321295Y732102D01*
X1319665Y733953D01*
X1317383Y735558D01*
X1314449Y736915D01*
X1313208Y737300D01*
X1311172D01*
X1310829Y737183D01*
X1308936Y736321D01*
X1307349Y735343D01*
X1306069Y734251D01*
Y737300D01*
X1293809D01*
Y735000D01*
X1295698Y725504D01*
X1285625Y713281D01*
X1284153Y712506D01*
X1280000Y713332D01*
X1263417Y710034D01*
X1249359Y700640D01*
X1239966Y686583D01*
X1236668Y670000D01*
X1239966Y653417D01*
X1248931Y640000D01*
X1239966Y626583D01*
X1236668Y610000D01*
X1239966Y593417D01*
X1249359Y579360D01*
X1263417Y569966D01*
X1280000Y566668D01*
X1296583Y569966D01*
X1310641Y579360D01*
X1318585Y591249D01*
X1325566Y595914D01*
X1347685Y618032D01*
X1521401D01*
X1522901Y610491D01*
X1533952Y593952D01*
X1550491Y582901D01*
X1551769Y582647D01*
Y567353D01*
X1550491Y567099D01*
X1533952Y556048D01*
X1522901Y539509D01*
X1519021Y520000D01*
X1521897Y505541D01*
X1512883Y490540D01*
X1495893D01*
X1493534Y491632D01*
X1486971Y491899D01*
X1484943Y492124D01*
X1482999Y492445D01*
X1481388Y492811D01*
X1480103Y493194D01*
X1479144Y493560D01*
X1478488Y493873D01*
X1478097Y494105D01*
X1477021Y494894D01*
X1472685Y495956D01*
X1466583Y500034D01*
X1450000Y503332D01*
X1433417Y500034D01*
X1419359Y490641D01*
X1409966Y476583D01*
X1406667Y460000D01*
X1409966Y443417D01*
X1419359Y429360D01*
X1433417Y419966D01*
X1450000Y416668D01*
X1466583Y419966D01*
X1480640Y429360D01*
X1481406Y430505D01*
X1482854Y431196D01*
X1483259Y431327D01*
X1483427Y431470D01*
X1483811Y431653D01*
X1484121Y431997D01*
X1484725Y432229D01*
X1485796Y432534D01*
X1486997Y432778D01*
X1491973Y433291D01*
X1494940Y433360D01*
X1495941Y433802D01*
X1496993Y433505D01*
X1498702Y434463D01*
X1509545D01*
X1520903Y419463D01*
X1519021Y410000D01*
X1522901Y390491D01*
X1533952Y373952D01*
X1550491Y362901D01*
X1570000Y359020D01*
X1589509Y362901D01*
X1606048Y373952D01*
X1617099Y390491D01*
X1617353Y391768D01*
X1632647D01*
X1632901Y390491D01*
X1643952Y373952D01*
X1660491Y362901D01*
X1680000Y359020D01*
X1699509Y362901D01*
X1716048Y373952D01*
X1727099Y390491D01*
X1727353Y391768D01*
X1742647D01*
X1742901Y390491D01*
X1753952Y373952D01*
X1770491Y362901D01*
X1790000Y359020D01*
X1800988Y361206D01*
X1803340Y359672D01*
X1810825Y347868D01*
X1809966Y346583D01*
X1806668Y330000D01*
X1809966Y313417D01*
X1819360Y299360D01*
X1833417Y289966D01*
X1850000Y286668D01*
X1866583Y289966D01*
X1880641Y299360D01*
X1890034Y313417D01*
X1893333Y330000D01*
X1890034Y346582D01*
X1899728Y359074D01*
X1900000Y359020D01*
X1919509Y362901D01*
X1936048Y373952D01*
X1947099Y390491D01*
X1947353Y391768D01*
X1962647D01*
X1962901Y390491D01*
X1973952Y373952D01*
X1990491Y362901D01*
X2010000Y359020D01*
X2029509Y362901D01*
X2046048Y373952D01*
X2057099Y390491D01*
X2057353Y391768D01*
X2072647D01*
X2072901Y390491D01*
X2083952Y373952D01*
X2100491Y362901D01*
X2120000Y359020D01*
X2139509Y362901D01*
X2156048Y373952D01*
X2167099Y390491D01*
X2167353Y391768D01*
X2182647D01*
X2182901Y390491D01*
X2193952Y373952D01*
X2210491Y362901D01*
X2230000Y359020D01*
X2249509Y362901D01*
X2266048Y373952D01*
X2277099Y390491D01*
X2277353Y391768D01*
X2292647D01*
X2292901Y390491D01*
X2303952Y373952D01*
X2320491Y362901D01*
X2340000Y359020D01*
X2359509Y362901D01*
X2376048Y373952D01*
X2387099Y390491D01*
X2387353Y391768D01*
X2402647D01*
X2402901Y390491D01*
X2413952Y373952D01*
X2430491Y362901D01*
X2450000Y359020D01*
X2469509Y362901D01*
X2486048Y373952D01*
X2493419Y384983D01*
X2497119Y385857D01*
X2510123Y384929D01*
X2513704Y379570D01*
X2515046Y380529D01*
X2516792Y382615D01*
X2519985Y387114D01*
X2522749Y391557D01*
X2525085Y395945D01*
X2526992Y400278D01*
X2528472Y404555D01*
X2529522Y408778D01*
X2530145Y412945D01*
X2547300Y395789D01*
Y410000D01*
X2560000D01*
Y422700D01*
X2613959D01*
X2612186Y431616D01*
X2603622Y444432D01*
X2614437Y455246D01*
X2623183Y449402D01*
X2640000Y446057D01*
X2720013D01*
X2728003Y433728D01*
X2727704Y431057D01*
X2726041Y422700D01*
X2780000D01*
Y410000D01*
X2792700D01*
Y396162D01*
X2809820Y413282D01*
X2810488Y409012D01*
X2811552Y404725D01*
X2813013Y400420D01*
X2814870Y396098D01*
X2817125Y391758D01*
X2819776Y387400D01*
X2820373Y386544D01*
X2821790Y385809D01*
X2823841Y385005D01*
X2825749Y384537D01*
X2827514Y384404D01*
X2829135Y384607D01*
X2825776Y379261D01*
X2825946Y379045D01*
X2825980Y379096D01*
X2843509D01*
X2840491Y384372D01*
X2842082Y384113D01*
X2843821Y384196D01*
X2845707Y384621D01*
X2847740Y385388D01*
X2849417Y386241D01*
X2850224Y387400D01*
X2852876Y391757D01*
X2855130Y396098D01*
X2856988Y400420D01*
X2858449Y404725D01*
X2859513Y409012D01*
X2860180Y413282D01*
X2877300Y396162D01*
Y410000D01*
X2902700D01*
Y356041D01*
X2911616Y357814D01*
X2929941Y370058D01*
X2933066Y374736D01*
X2953199Y377867D01*
X2956055Y375591D01*
Y299999D01*
X2956164Y299449D01*
X2950913Y259563D01*
X2935305Y221881D01*
X2910476Y189524D01*
X2878118Y164695D01*
X2840437Y149087D01*
X2814295Y145645D01*
X2800000Y143944D01*
Y143944D01*
X802823D01*
X799845Y148029D01*
X796178Y158944D01*
X803056Y169237D01*
X806191Y185000D01*
Y187300D01*
X750000D01*
Y200000D01*
X741891D01*
X721158Y179266D01*
X719367Y187118D01*
X717163Y194744D01*
X714546Y202146D01*
X711517Y209322D01*
X708074Y216274D01*
X704218Y223001D01*
X699948Y229503D01*
X695266Y235781D01*
X691300Y240491D01*
X690234Y240234D01*
X687725Y241910D01*
X678657Y247969D01*
X665000Y250686D01*
X635000D01*
X621344Y247969D01*
X609767Y240234D01*
X608288Y238020D01*
X597670Y235848D01*
X584887Y247262D01*
X585730Y251500D01*
Y279635D01*
X583403Y279250D01*
X576864Y277500D01*
X571330Y275250D01*
X566803Y272500D01*
X563282Y269250D01*
X560766Y265500D01*
X559257Y261250D01*
X558754Y256500D01*
Y281300D01*
X322270D01*
Y251500D01*
X327539Y225007D01*
X327668Y224814D01*
X320265Y208894D01*
X312802Y208060D01*
X311844Y209017D01*
X310926Y211361D01*
X302298Y220326D01*
X295377Y228198D01*
X289904Y235185D01*
X285896Y241149D01*
X284631Y243489D01*
X286224Y251500D01*
Y261545D01*
X286402Y261974D01*
X286224Y262403D01*
Y336500D01*
X281374Y360886D01*
X267560Y381560D01*
X246886Y395374D01*
X222500Y400224D01*
X97500D01*
X73113Y395374D01*
X58944Y385906D01*
X43944Y393790D01*
Y448210D01*
X58944Y456094D01*
X73113Y446626D01*
X97500Y441776D01*
X222500D01*
X246886Y446626D01*
X267560Y460440D01*
X281374Y481114D01*
X286224Y505500D01*
Y590500D01*
X281374Y614886D01*
X267560Y635560D01*
X246886Y649374D01*
X222500Y654224D01*
X97500D01*
X73113Y649374D01*
X58944Y639906D01*
X43944Y647790D01*
Y702210D01*
X58944Y710094D01*
X73113Y700626D01*
X97500Y695776D01*
X222500D01*
X246886Y700626D01*
X259578Y695369D01*
X259966Y693417D01*
X269359Y679360D01*
X283417Y669966D01*
X296767Y667311D01*
X296787Y667299D01*
X297071Y667104D01*
X305493Y659808D01*
X308003Y657345D01*
X309373Y656792D01*
X310122Y655518D01*
X312836Y654813D01*
X320958Y649386D01*
X333639Y646863D01*
X338412D01*
X343970Y631863D01*
X332626Y614886D01*
X327775Y590500D01*
Y505500D01*
X332626Y481114D01*
X346440Y460440D01*
X367113Y446626D01*
X391500Y441776D01*
X516500D01*
X540886Y446626D01*
X561560Y460440D01*
X575374Y481114D01*
X580224Y505500D01*
Y523326D01*
X595224Y527308D01*
X596306Y525626D01*
X598944Y521158D01*
X603533Y512092D01*
X605055Y508424D01*
X606323Y504794D01*
X607254Y501469D01*
X607877Y498449D01*
X608223Y495739D01*
X608372Y492354D01*
X609411Y490128D01*
Y481910D01*
X608352Y479391D01*
X608316Y472103D01*
X607766Y454327D01*
X607099Y446468D01*
X606775Y444192D01*
X606526Y442968D01*
X606164Y441770D01*
X606436Y439044D01*
X606428Y438916D01*
X604314Y428289D01*
Y398289D01*
X607031Y384633D01*
X614766Y373056D01*
X626344Y365320D01*
X640000Y362604D01*
X680000D01*
X693656Y365320D01*
X705234Y373056D01*
X712969Y384633D01*
X715686Y398289D01*
Y428289D01*
X712969Y441946D01*
X705234Y453523D01*
X693656Y461258D01*
X680000Y463975D01*
X673383D01*
X673033Y465348D01*
X672314Y469989D01*
X671827Y476011D01*
X671642Y483787D01*
X670848Y485582D01*
X671230Y487509D01*
X670586Y488470D01*
Y490128D01*
X671626Y492354D01*
X671775Y495738D01*
X672121Y498445D01*
X672744Y501469D01*
X673590Y504487D01*
X676694Y512600D01*
X678457Y516299D01*
X683812Y525810D01*
X687051Y530848D01*
X687648Y534153D01*
X687969Y534633D01*
X688672Y538165D01*
X690490Y542555D01*
X689852Y544097D01*
X690686Y548289D01*
Y578289D01*
X687969Y591945D01*
X680234Y603523D01*
X680187Y603554D01*
X678749Y612689D01*
X680592Y621324D01*
X682132Y622233D01*
X691201Y626825D01*
X694873Y628348D01*
X695000Y628392D01*
X705330Y623514D01*
X708874Y620351D01*
X710000Y618723D01*
Y583289D01*
X830000D01*
Y643540D01*
X843858Y649280D01*
X854266Y638872D01*
X865016Y631690D01*
X869217Y630854D01*
Y623289D01*
X872321Y607682D01*
X881162Y594451D01*
X894393Y585610D01*
X910000Y582506D01*
X950000D01*
X965607Y585610D01*
X978839Y594451D01*
X987679Y607682D01*
X990784Y623289D01*
Y663289D01*
X987679Y678896D01*
X978839Y692127D01*
X965607Y700968D01*
X950000Y704073D01*
X910000D01*
X894393Y700968D01*
X889298Y697564D01*
X833431Y753431D01*
X822681Y760614D01*
X810000Y763137D01*
X610000D01*
X597319Y760614D01*
X595061Y759105D01*
X580224Y767232D01*
Y844500D01*
X575374Y868886D01*
X561560Y889560D01*
X540886Y903374D01*
X516500Y908224D01*
X391500D01*
X367113Y903374D01*
X346440Y889560D01*
X332626Y868886D01*
X327775Y844500D01*
Y760596D01*
X323311Y756281D01*
X314273Y750494D01*
X300000Y753333D01*
X298551Y753044D01*
X286224Y765886D01*
Y844500D01*
X281374Y868886D01*
X267560Y889560D01*
X246886Y903374D01*
X222500Y908224D01*
X97500D01*
X73113Y903374D01*
X58944Y893906D01*
X43944Y901790D01*
Y956210D01*
X58944Y964094D01*
X73113Y954626D01*
X97500Y949776D01*
X222500D01*
X246886Y954626D01*
X267560Y968440D01*
X281374Y989114D01*
X286224Y1013500D01*
Y1098500D01*
X281374Y1122886D01*
X275044Y1132359D01*
X277014Y1138048D01*
X283111Y1147286D01*
X296583Y1149966D01*
X303792Y1154784D01*
X303916Y1154793D01*
X304116Y1154774D01*
X304250Y1154750D01*
X304288Y1154758D01*
X304491Y1154739D01*
X304899Y1154865D01*
X317889Y1155826D01*
X321374Y1155853D01*
X323762Y1156863D01*
X341406D01*
X345306Y1141863D01*
X332626Y1122886D01*
X327775Y1098500D01*
Y1013500D01*
X332626Y989114D01*
X346440Y968440D01*
X367113Y954626D01*
X391500Y949776D01*
X516500D01*
X540886Y954626D01*
X561560Y968440D01*
X575374Y989114D01*
X580224Y1013500D01*
Y1098500D01*
X575374Y1122886D01*
X561560Y1143560D01*
X561204Y1143798D01*
X560984Y1149117D01*
X563778Y1160119D01*
X573431Y1166569D01*
X584314Y1177452D01*
X599314Y1171239D01*
Y1158289D01*
X602031Y1144633D01*
X609766Y1133056D01*
X610883Y1132310D01*
Y1114269D01*
X609766Y1113523D01*
X602031Y1101946D01*
X599314Y1088289D01*
Y1058289D01*
X600148Y1054097D01*
X599510Y1052556D01*
X601328Y1048165D01*
X602031Y1044633D01*
X602352Y1044153D01*
X602949Y1040848D01*
X606304Y1035630D01*
X608945Y1031157D01*
X613535Y1022089D01*
X615058Y1018417D01*
X616324Y1014795D01*
X617256Y1011468D01*
X617879Y1008445D01*
X618225Y1005739D01*
X618374Y1002355D01*
X619414Y1000128D01*
Y996184D01*
X618359Y993804D01*
X618234Y988733D01*
X617904Y984390D01*
X617366Y980255D01*
X616625Y976311D01*
X615691Y972560D01*
X614566Y968977D01*
X613250Y965549D01*
X611746Y962263D01*
X610048Y959104D01*
X607784Y955471D01*
X607254Y952280D01*
X607031Y951946D01*
X604314Y938289D01*
Y908289D01*
X607031Y894633D01*
X614766Y883056D01*
X626344Y875320D01*
X640000Y872604D01*
X680000D01*
X693656Y875320D01*
X705234Y883056D01*
X712969Y894633D01*
X715686Y908289D01*
Y938289D01*
X712969Y951946D01*
X705234Y963523D01*
X693656Y971258D01*
X683652Y973248D01*
X683023Y975698D01*
X682310Y980261D01*
X681827Y986165D01*
X681643Y993795D01*
X680589Y996175D01*
Y1000128D01*
X681628Y1002355D01*
X681777Y1005739D01*
X682123Y1008450D01*
X682746Y1011471D01*
X683592Y1014491D01*
X686695Y1022602D01*
X688458Y1026300D01*
X693814Y1035813D01*
X697052Y1040849D01*
X697649Y1044153D01*
X697969Y1044633D01*
X698672Y1048165D01*
X700490Y1052556D01*
X699852Y1054097D01*
X700686Y1058289D01*
Y1082147D01*
X707941Y1090826D01*
X714985Y1093289D01*
X763089D01*
X771106Y1078289D01*
X769966Y1076583D01*
X766668Y1060000D01*
X769966Y1043417D01*
X779359Y1029359D01*
X793417Y1019966D01*
X810000Y1016668D01*
X818809Y1009438D01*
Y1003289D01*
X821944Y987526D01*
X830873Y974162D01*
X844237Y965233D01*
X860000Y962098D01*
X867300D01*
Y1018289D01*
X892700D01*
Y962098D01*
X900000D01*
X915763Y965233D01*
X928975Y974061D01*
X929777Y973717D01*
X941448Y965728D01*
X939314Y955000D01*
Y925000D01*
X942031Y911344D01*
X949766Y899767D01*
X952456Y889840D01*
X952507Y885785D01*
X951149Y880802D01*
X937648Y867300D01*
X925233Y868523D01*
X913656Y876258D01*
X900000Y878975D01*
X860000D01*
X846344Y876258D01*
X840981Y872675D01*
X838218Y876810D01*
X824160Y886204D01*
X807577Y889502D01*
X790994Y886204D01*
X776936Y876810D01*
X767543Y862752D01*
X764245Y846170D01*
X767543Y829587D01*
X776936Y815529D01*
X790994Y806136D01*
X807577Y802837D01*
X824159Y806136D01*
X826625Y801672D01*
X827031Y799633D01*
X834766Y788056D01*
X846344Y780320D01*
X860000Y777603D01*
X900000D01*
X913656Y780320D01*
X925234Y788056D01*
X932408Y798794D01*
X935054Y799066D01*
X938757Y799146D01*
X943729Y801332D01*
X949019Y802385D01*
X958115Y808463D01*
X1009826Y860174D01*
X1015904Y869270D01*
X1016957Y874562D01*
X1019142Y879499D01*
X1019276Y885082D01*
X1019611Y889251D01*
X1020091Y892419D01*
X1020259Y893102D01*
X1024691Y896063D01*
X1027638Y897284D01*
X1028067Y898318D01*
X1030234Y899767D01*
X1031681Y901932D01*
X1032715Y902361D01*
X1033935Y905307D01*
X1036898Y909740D01*
X1037582Y909908D01*
X1040749Y910389D01*
X1044918Y910724D01*
X1050501Y910857D01*
X1052994Y911961D01*
X1059999D01*
X1070729Y914095D01*
X1079825Y920173D01*
X1101614Y941962D01*
X1213307D01*
X1215818Y940857D01*
X1219101Y940786D01*
X1221569Y940615D01*
X1223685Y940353D01*
X1225413Y940032D01*
X1226757Y939685D01*
X1227719Y939356D01*
X1228317Y939091D01*
X1228586Y938939D01*
X1228595Y938932D01*
X1229406Y938199D01*
X1233035Y936904D01*
X1243417Y929966D01*
X1260000Y926668D01*
X1276583Y929966D01*
X1290641Y939360D01*
X1300034Y953417D01*
X1303332Y970000D01*
X1300034Y986583D01*
X1290641Y1000641D01*
X1276583Y1010034D01*
X1260000Y1013332D01*
X1243417Y1010034D01*
X1233035Y1003097D01*
X1229406Y1001801D01*
X1228595Y1001068D01*
X1228587Y1001061D01*
X1228316Y1000909D01*
X1227719Y1000644D01*
X1226757Y1000315D01*
X1225413Y999968D01*
X1223977Y999701D01*
X1218818Y999208D01*
X1215818Y999143D01*
X1213307Y998039D01*
X1090000D01*
X1079270Y995904D01*
X1070174Y989826D01*
X1053480Y973133D01*
X1037729Y974885D01*
X1031438Y985231D01*
X1033977Y995773D01*
X1034127Y995873D01*
X1043056Y1009237D01*
X1046191Y1025000D01*
Y1027300D01*
X990000D01*
Y1052700D01*
X1046191D01*
Y1055000D01*
X1043056Y1070763D01*
X1034127Y1084127D01*
X1020763Y1093056D01*
X1005000Y1096191D01*
X991360D01*
X983342Y1111191D01*
X987679Y1117682D01*
X990784Y1133289D01*
Y1173289D01*
X987679Y1188897D01*
X978839Y1202128D01*
X965607Y1210968D01*
X950000Y1214073D01*
X910000D01*
X894393Y1210968D01*
X889298Y1207564D01*
X840555Y1256307D01*
X829805Y1263490D01*
X817124Y1266013D01*
X594650D01*
X592675Y1266217D01*
X580224Y1278790D01*
Y1352500D01*
X575374Y1376886D01*
X561560Y1397560D01*
X540886Y1411374D01*
X516500Y1416224D01*
X391500D01*
X367113Y1411374D01*
X346440Y1397560D01*
X332626Y1376886D01*
X327775Y1352500D01*
Y1267500D01*
X332626Y1243114D01*
X337135Y1236365D01*
X330064Y1223136D01*
X323762D01*
X321374Y1224147D01*
X317482Y1224177D01*
X311080Y1224406D01*
X306562Y1224812D01*
X305560Y1224966D01*
X305169Y1225051D01*
X304491Y1225261D01*
X304288Y1225242D01*
X304250Y1225250D01*
X304116Y1225226D01*
X303819Y1225198D01*
X296583Y1230034D01*
X291368Y1231071D01*
X281512Y1242948D01*
X282154Y1247034D01*
X286224Y1267500D01*
Y1352500D01*
X281374Y1376886D01*
X267560Y1397560D01*
X246886Y1411374D01*
X222500Y1416224D01*
X97500D01*
X73113Y1411374D01*
X58944Y1401906D01*
X43944Y1409790D01*
Y1464210D01*
X58944Y1472094D01*
X73113Y1462626D01*
X97500Y1457776D01*
X222500D01*
X246886Y1462626D01*
X267560Y1476440D01*
X281374Y1497114D01*
X286224Y1521500D01*
Y1606500D01*
X281374Y1630886D01*
X267560Y1651560D01*
X246886Y1665374D01*
X222500Y1670224D01*
X97500D01*
X73113Y1665374D01*
X58944Y1655906D01*
X43944Y1663790D01*
Y1718210D01*
X58944Y1726094D01*
X73113Y1716626D01*
X97500Y1711776D01*
X222500D01*
X246886Y1716626D01*
X267560Y1730440D01*
X281374Y1751114D01*
X286224Y1775500D01*
Y1860500D01*
X281374Y1884886D01*
X267560Y1905560D01*
X246886Y1919374D01*
X222500Y1924224D01*
X97500D01*
X73113Y1919374D01*
X58944Y1909906D01*
X43944Y1917790D01*
Y1972210D01*
X58944Y1980094D01*
X73113Y1970626D01*
X97500Y1965776D01*
X222500D01*
X246886Y1970626D01*
X267560Y1984440D01*
X281374Y2005114D01*
X286224Y2029500D01*
Y2114500D01*
X281374Y2138886D01*
X267560Y2159560D01*
X246886Y2173374D01*
X222500Y2178224D01*
X97500D01*
X73113Y2173374D01*
X58944Y2163906D01*
X43944Y2171790D01*
Y2236857D01*
X57802Y2242597D01*
X84800Y2215600D01*
X147300D01*
Y2326000D01*
Y2436400D01*
X84800D01*
X57802Y2409402D01*
X43944Y2415142D01*
Y2476056D01*
X599122D01*
X607140Y2461056D01*
X606944Y2460763D01*
X606791Y2459995D01*
X645000Y2459983D01*
X638655Y2442700D01*
X660000D01*
Y2417300D01*
X603809D01*
Y2415000D01*
X606944Y2399237D01*
X615087Y2387050D01*
X615934Y2384648D01*
X616269Y2377896D01*
X613971Y2369104D01*
X611855Y2368029D01*
X606970Y2365866D01*
X602207Y2364072D01*
X597563Y2362633D01*
X594039Y2361779D01*
X592122Y2362337D01*
X580224Y2368500D01*
X575374Y2392886D01*
X561560Y2413560D01*
X540886Y2427374D01*
X516500Y2432224D01*
X391500D01*
X367113Y2427374D01*
X346440Y2413560D01*
X332626Y2392886D01*
X327775Y2368500D01*
Y2283500D01*
X332626Y2259114D01*
X346440Y2238440D01*
X367113Y2224626D01*
X391500Y2219776D01*
X516500D01*
X540886Y2224626D01*
X561560Y2238440D01*
X575374Y2259114D01*
X580224Y2283500D01*
Y2286115D01*
X580282Y2286220D01*
X580411Y2287437D01*
X581089Y2287849D01*
X583765Y2288937D01*
X587983Y2290066D01*
X593667Y2291007D01*
X595883Y2291202D01*
X606062Y2290089D01*
X610837Y2289222D01*
X615274Y2288160D01*
X619123Y2286980D01*
X622385Y2285721D01*
X625069Y2284428D01*
X625742Y2284024D01*
X631060Y2270055D01*
X630987Y2266940D01*
X630929Y2266727D01*
X626944Y2260763D01*
X623809Y2245000D01*
Y2242700D01*
X680000D01*
Y2217300D01*
X658656D01*
X661605Y2209266D01*
X708843D01*
X705262Y2203697D01*
X699232Y2192989D01*
X696782Y2187850D01*
X693744Y2179909D01*
X694710Y2177147D01*
X696782Y2172151D01*
X702059Y2161728D01*
X705262Y2156303D01*
X708843Y2150734D01*
X651158D01*
X654738Y2156302D01*
X660767Y2167009D01*
X663216Y2172148D01*
X666254Y2180091D01*
X665288Y2182855D01*
X663216Y2187852D01*
X657941Y2198273D01*
X656912Y2200015D01*
X626791Y2200005D01*
X626944Y2199237D01*
X632966Y2190224D01*
X634813Y2180000D01*
X632966Y2169776D01*
X626944Y2160763D01*
X623809Y2145000D01*
Y2142700D01*
X680000D01*
Y2117300D01*
X623809D01*
Y2115000D01*
X626944Y2099237D01*
X635874Y2085873D01*
X649237Y2076944D01*
X659586Y2074886D01*
X666377Y2062845D01*
X666885Y2058809D01*
X664603Y2055394D01*
X661790Y2041250D01*
Y2008750D01*
X664603Y1994606D01*
X672615Y1982615D01*
X684606Y1974603D01*
X698750Y1971790D01*
X797319D01*
X802991Y1962089D01*
X803879Y1957137D01*
X782011Y1935269D01*
X777295Y1928210D01*
X698750D01*
X684606Y1925397D01*
X672615Y1917385D01*
X664603Y1905394D01*
X661790Y1891250D01*
Y1858750D01*
X664603Y1844606D01*
X672615Y1832615D01*
X684606Y1824603D01*
X698750Y1821790D01*
X801250D01*
X815394Y1824603D01*
X827385Y1832615D01*
X835397Y1844606D01*
X838210Y1858750D01*
Y1891250D01*
X835937Y1902679D01*
X857414Y1924156D01*
X863250Y1922996D01*
X926750D01*
X933500Y1917456D01*
Y1827500D01*
X991719D01*
X997096Y1823907D01*
X1002300Y1822872D01*
Y1885000D01*
X1027700D01*
Y1822872D01*
X1032904Y1823907D01*
X1036492Y1826305D01*
X1052006Y1821674D01*
X1053533Y1819383D01*
X1056848Y1806882D01*
X1049966Y1796583D01*
X1046668Y1780000D01*
X1049966Y1763417D01*
X1059360Y1749359D01*
X1073417Y1739966D01*
X1090000Y1736668D01*
X1106583Y1739966D01*
X1120641Y1749359D01*
X1130034Y1763417D01*
X1133333Y1780000D01*
X1130034Y1796583D01*
X1120641Y1810641D01*
X1118613Y1811996D01*
X1120082Y1822305D01*
X1122609Y1827365D01*
X1130797Y1828994D01*
X1139314Y1834685D01*
X1145006Y1843203D01*
X1145104Y1843695D01*
X1152036Y1846449D01*
X1161270Y1848083D01*
X1173417Y1839966D01*
X1190000Y1836668D01*
X1206583Y1839966D01*
X1214412Y1845198D01*
X1229412Y1837543D01*
Y1835392D01*
X1228359Y1833027D01*
X1228177Y1826033D01*
X1227707Y1820668D01*
X1227014Y1816476D01*
X1226234Y1813559D01*
X1226212Y1813504D01*
X1198750D01*
X1178753Y1809526D01*
X1161801Y1798199D01*
X1150474Y1781247D01*
X1146496Y1761250D01*
Y1698750D01*
X1150474Y1678753D01*
X1161801Y1661801D01*
X1178753Y1650474D01*
X1198750Y1646496D01*
X1301250D01*
X1321247Y1650474D01*
X1338199Y1661801D01*
X1349526Y1678753D01*
X1359999Y1683863D01*
X1370474Y1678753D01*
X1381801Y1661801D01*
X1398753Y1650474D01*
X1418750Y1646496D01*
X1521250D01*
X1541247Y1650474D01*
X1558199Y1661801D01*
X1569526Y1678753D01*
X1573504Y1698750D01*
Y1761250D01*
X1569526Y1781247D01*
X1558199Y1798199D01*
X1541247Y1809526D01*
X1521250Y1813504D01*
X1418750D01*
X1398753Y1809526D01*
X1381801Y1798199D01*
X1370474Y1781247D01*
X1360001Y1776137D01*
X1349526Y1781247D01*
X1338199Y1798199D01*
X1321247Y1809526D01*
X1301250Y1813504D01*
X1293788D01*
X1293766Y1813559D01*
X1292986Y1816478D01*
X1292293Y1820668D01*
X1291823Y1826033D01*
X1291641Y1833027D01*
X1290588Y1835392D01*
Y1930000D01*
X1288259Y1941705D01*
X1281629Y1951629D01*
X1273846Y1959412D01*
X1280059Y1974412D01*
X1454999D01*
X1455000Y1974412D01*
X1466705Y1976741D01*
X1476629Y1983371D01*
X1499414Y2006156D01*
X1501841Y2007093D01*
X1507073Y2012077D01*
X1511004Y2015371D01*
X1512119Y2016183D01*
X1512917Y2016693D01*
X1513063Y2016771D01*
X1513730Y2017041D01*
X1513917Y2017226D01*
X1514058Y2017301D01*
X1514228Y2017509D01*
X1526583Y2019966D01*
X1540641Y2029359D01*
X1550034Y2043417D01*
X1553332Y2060000D01*
X1550034Y2076583D01*
X1541069Y2090000D01*
X1550034Y2103417D01*
X1553332Y2120000D01*
X1550034Y2136583D01*
X1540641Y2150641D01*
X1526583Y2160034D01*
X1510000Y2163332D01*
X1493417Y2160034D01*
X1479359Y2150641D01*
X1474676Y2143632D01*
X1473450Y2143103D01*
X1450150Y2119120D01*
X1449164Y2116637D01*
X1418116Y2085590D01*
X1263374D01*
X1260867Y2086650D01*
X1255799Y2086686D01*
X1243004Y2099250D01*
Y2110750D01*
X1241006Y2120797D01*
X1235315Y2129314D01*
X1226797Y2135006D01*
X1222891Y2135783D01*
X1213199Y2147972D01*
X1211893Y2152004D01*
X1213001Y2157572D01*
X1209702Y2174154D01*
X1200309Y2188212D01*
X1186251Y2197605D01*
X1169668Y2200904D01*
X1167510Y2200475D01*
X1162462Y2202586D01*
X1151355Y2212555D01*
X1150092Y2218904D01*
X1143208Y2229208D01*
X1132904Y2236093D01*
X1127700Y2237128D01*
Y2175000D01*
X1102300D01*
Y2237128D01*
X1097096Y2236093D01*
X1090000Y2231351D01*
X1082904Y2236093D01*
X1077700Y2237128D01*
Y2175000D01*
X1052300D01*
Y2237128D01*
X1047096Y2236093D01*
X1032014Y2239468D01*
X972156Y2299327D01*
Y2331011D01*
X973260Y2333522D01*
X973332Y2336805D01*
X973503Y2339273D01*
X973764Y2341389D01*
X974085Y2343117D01*
X974432Y2344461D01*
X974762Y2345423D01*
X975026Y2346021D01*
X975178Y2346290D01*
X975185Y2346299D01*
X975919Y2347110D01*
X977214Y2350739D01*
X984151Y2361121D01*
X987450Y2377704D01*
X984151Y2394287D01*
X976149Y2406263D01*
X978515Y2414676D01*
X982423Y2421263D01*
X1010101D01*
X1012930Y2418324D01*
X1021019Y2408945D01*
X1023405Y2405776D01*
X1023721Y2405292D01*
X1023657Y2405137D01*
X1024918Y2402092D01*
X1024601Y2398812D01*
X1025000Y2398328D01*
Y2305000D01*
X1175000D01*
Y2455000D01*
X1082488D01*
X1080862Y2455804D01*
X1076649Y2461056D01*
X1080587Y2471700D01*
X1085274Y2476056D01*
X2007077D01*
X2008555Y2461056D01*
D02*
G37*
G36*
X2210734Y2381158D02*
X2204470Y2379727D01*
X2198380Y2377960D01*
X2192462Y2375857D01*
X2186717Y2373418D01*
X2181144Y2370644D01*
X2175745Y2367533D01*
X2170518Y2364087D01*
X2165464Y2360305D01*
X2160583Y2356187D01*
X2155875Y2351733D01*
X2134462Y2358604D01*
X2142483Y2366905D01*
X2154902Y2381562D01*
X2159299Y2387918D01*
X2162489Y2393626D01*
X2164471Y2398686D01*
X2165246Y2403098D01*
X2164812Y2406861D01*
X2163171Y2409976D01*
X2160322Y2412443D01*
X2210734Y2381158D01*
D02*
G37*
G36*
X854757Y2369107D02*
X855338Y2368524D01*
X856369Y2368009D01*
X857849Y2367563D01*
X859637Y2367213D01*
X864996Y2367560D01*
X866115Y2367887D01*
X866845Y2368254D01*
X866556Y2366579D01*
X868267Y2366464D01*
X876173Y2366327D01*
Y2341327D01*
X871342Y2341295D01*
X862083Y2340663D01*
X861487Y2337212D01*
X860728Y2337994D01*
X859588Y2338694D01*
X858066Y2339311D01*
X856163Y2339846D01*
X854635Y2340148D01*
X852840Y2339736D01*
X851504Y2339249D01*
X850667Y2338697D01*
X850329Y2338080D01*
X850686Y2340709D01*
X844739Y2341162D01*
X836739Y2341327D01*
X842018Y2366327D01*
X846254Y2366346D01*
X854232Y2366863D01*
X854625Y2369760D01*
X854757Y2369107D01*
D02*
G37*
G36*
X958300Y2359904D02*
X956898Y2357942D01*
X955660Y2355751D01*
X954587Y2353331D01*
X953680Y2350681D01*
X952937Y2347802D01*
X952360Y2344693D01*
X951948Y2341355D01*
X951700Y2337788D01*
X951618Y2333991D01*
X936617D01*
X936535Y2337788D01*
X935875Y2344693D01*
X935298Y2347802D01*
X934555Y2350681D01*
X933648Y2353331D01*
X932575Y2355751D01*
X931337Y2357942D01*
X929935Y2359904D01*
X928367Y2361636D01*
X959868D01*
X958300Y2359904D01*
D02*
G37*
G36*
X817498Y2325375D02*
X812748Y2325750D01*
X808499Y2324923D01*
X804748Y2322896D01*
X801499Y2319667D01*
X798748Y2315237D01*
X796498Y2309606D01*
X794748Y2302774D01*
X793499Y2294745D01*
X793969Y2290039D01*
X795113Y2283804D01*
X796584Y2277776D01*
X798382Y2271955D01*
X800507Y2266340D01*
X802959Y2260931D01*
X805737Y2255729D01*
X808842Y2250734D01*
X751158D01*
X754262Y2255729D01*
X757040Y2260930D01*
X759491Y2266338D01*
X761616Y2271953D01*
X763413Y2277774D01*
X764884Y2283802D01*
X766028Y2290037D01*
X766344Y2292533D01*
X765811Y2297623D01*
X764498Y2304354D01*
X762810Y2310801D01*
X760747Y2316965D01*
X758309Y2322845D01*
X755496Y2328442D01*
X752308Y2333756D01*
X748745Y2338785D01*
X817498Y2325375D01*
D02*
G37*
G36*
X685729Y2355737D02*
X690931Y2352958D01*
X696340Y2350507D01*
X701955Y2348382D01*
X707777Y2346584D01*
X713805Y2345113D01*
X720040Y2343969D01*
X726481Y2343152D01*
X733129Y2342661D01*
X739983Y2342498D01*
Y2317498D01*
X733127Y2317334D01*
X720037Y2316027D01*
X713802Y2314883D01*
X707773Y2313413D01*
X701952Y2311615D01*
X696337Y2309491D01*
X690929Y2307040D01*
X685728Y2304262D01*
X680734Y2301158D01*
Y2358843D01*
X685729Y2355737D01*
D02*
G37*
G36*
X559257Y2358750D02*
X560766Y2354500D01*
X563282Y2350750D01*
X566803Y2347500D01*
X571330Y2344750D01*
X576864Y2342500D01*
X583403Y2340750D01*
X590949Y2339500D01*
X592097Y2339399D01*
X597447Y2340331D01*
X603323Y2341755D01*
X609231Y2343586D01*
X615173Y2345823D01*
X621147Y2348468D01*
X627154Y2351519D01*
X639266Y2358843D01*
Y2301158D01*
X635352Y2303503D01*
X630997Y2305601D01*
X626203Y2307452D01*
X620968Y2309057D01*
X615293Y2310414D01*
X609178Y2311525D01*
X596115Y2312953D01*
X590949Y2312500D01*
X583403Y2311250D01*
X576864Y2309500D01*
X571330Y2307250D01*
X566803Y2304500D01*
X563282Y2301250D01*
X560766Y2297500D01*
X559257Y2293250D01*
X558754Y2288500D01*
Y2363500D01*
X559257Y2358750D01*
D02*
G37*
G36*
X2197772Y2297351D02*
X2204516Y2297754D01*
X2203183Y2296226D01*
X2201990Y2294433D01*
X2200937Y2292374D01*
X2200025Y2290050D01*
X2199253Y2287460D01*
X2198621Y2284604D01*
X2198130Y2281482D01*
X2198117Y2281359D01*
X2198158Y2279471D01*
X2197921D01*
X2197779Y2278095D01*
X2197498Y2270524D01*
X2182498Y2269998D01*
X2182421Y2273854D01*
X2181919Y2279471D01*
X2181842D01*
X2181901Y2279664D01*
X2181806Y2280728D01*
X2181268Y2283745D01*
X2180576Y2286483D01*
X2179730Y2288942D01*
X2178731Y2291121D01*
X2177578Y2293020D01*
X2176271Y2294640D01*
X2174810Y2295980D01*
X2182372Y2296432D01*
X2182498Y2309998D01*
X2197498Y2310001D01*
X2197772Y2297351D01*
D02*
G37*
G36*
X2549238Y2278707D02*
X2550283Y2278453D01*
X2551817Y2278230D01*
X2556356Y2277871D01*
X2571313Y2277513D01*
X2576278Y2277498D01*
Y2262498D01*
X2548683Y2261008D01*
X2548684Y2278991D01*
X2549238Y2278707D01*
D02*
G37*
G36*
X2539045Y2257537D02*
X2538674Y2257337D01*
X2537896Y2256712D01*
X2535119Y2254188D01*
X2521644Y2240954D01*
X2502464Y2220955D01*
X2490955Y2232464D01*
X2491326Y2232663D01*
X2492104Y2233288D01*
X2494881Y2235813D01*
X2508356Y2249046D01*
X2527537Y2269045D01*
X2539045Y2257537D01*
D02*
G37*
G36*
X2139046D02*
X2138674Y2257337D01*
X2137896Y2256712D01*
X2135119Y2254188D01*
X2121644Y2240954D01*
X2102464Y2220955D01*
X2090955Y2232464D01*
X2091326Y2232663D01*
X2092104Y2233288D01*
X2094881Y2235813D01*
X2108357Y2249046D01*
X2127537Y2269045D01*
X2139046Y2257537D01*
D02*
G37*
G36*
X2052663Y2268674D02*
X2053288Y2267896D01*
X2055813Y2265119D01*
X2069046Y2251644D01*
X2089045Y2232464D01*
X2077537Y2220955D01*
X2077337Y2221326D01*
X2076712Y2222104D01*
X2074188Y2224881D01*
X2060954Y2238356D01*
X2040955Y2257537D01*
X2052464Y2269045D01*
X2052663Y2268674D01*
D02*
G37*
G36*
X2027170Y2243468D02*
X2038305Y2233798D01*
X2039473Y2233088D01*
X2040444Y2232636D01*
X2041219Y2232441D01*
X2027560Y2218782D01*
X2027365Y2219557D01*
X2026912Y2220529D01*
X2026202Y2221697D01*
X2025234Y2223062D01*
X2022526Y2226380D01*
X2018788Y2230485D01*
X2014020Y2235375D01*
X2024627Y2245982D01*
X2027170Y2243468D01*
D02*
G37*
G36*
X2699311Y2204821D02*
X2699366Y2200784D01*
X2700198Y2190494D01*
X2700240Y2190255D01*
X2709340Y2190224D01*
X2707435Y2189960D01*
X2705729Y2189155D01*
X2704225Y2187807D01*
X2702921Y2185919D01*
X2701835Y2183526D01*
X2702028Y2182933D01*
X2702860Y2181018D01*
X2703803Y2179408D01*
X2704856Y2178100D01*
X2700460Y2178235D01*
X2700214Y2177004D01*
X2699712Y2172949D01*
X2699411Y2168352D01*
X2699311Y2163214D01*
X2679311D01*
X2679212Y2168366D01*
X2678414Y2177045D01*
X2678042Y2178924D01*
X2673371Y2179068D01*
X2674500Y2180317D01*
X2675510Y2181877D01*
X2676401Y2183746D01*
X2676548Y2184161D01*
X2675722Y2186001D01*
X2674426Y2187903D01*
X2672931Y2189264D01*
X2671236Y2190083D01*
X2669342Y2190361D01*
X2678192Y2190331D01*
X2678361Y2191214D01*
X2678776Y2194323D01*
X2679252Y2201469D01*
X2679311Y2205507D01*
X2699311Y2204821D01*
D02*
G37*
G36*
X2148162Y2216655D02*
X2148502Y2211537D01*
X2149212Y2211550D01*
X2149009Y2211068D01*
X2148827Y2210088D01*
X2148686Y2208780D01*
X2148793Y2207174D01*
X2149026Y2206083D01*
X2149296Y2205262D01*
X2149603Y2204709D01*
X2149944Y2204424D01*
X2148467Y2204382D01*
X2148315Y2201182D01*
X2148145Y2184300D01*
X2133144D01*
X2133124Y2189042D01*
X2132187Y2203916D01*
X2131458Y2203895D01*
X2131779Y2204198D01*
X2132065Y2204776D01*
X2132121Y2204964D01*
X2131836Y2209483D01*
X2131488Y2210581D01*
X2131100Y2211223D01*
X2132951Y2211257D01*
X2132993Y2211815D01*
X2133144Y2219357D01*
X2148145D01*
X2148162Y2216655D01*
D02*
G37*
G36*
X1969933Y2210968D02*
X1971596Y2209417D01*
X1973531Y2208049D01*
X1975738Y2206863D01*
X1978219Y2205859D01*
X1980971Y2205038D01*
X1983996Y2204399D01*
X1987294Y2203943D01*
X1990864Y2203670D01*
X1994706Y2203579D01*
X1991909Y2188578D01*
X1988170Y2188509D01*
X1981266Y2187957D01*
X1978100Y2187474D01*
X1975125Y2186852D01*
X1972340Y2186093D01*
X1969746Y2185195D01*
X1967344Y2184159D01*
X1965131Y2182986D01*
X1963110Y2181674D01*
X1968543Y2212702D01*
X1969933Y2210968D01*
D02*
G37*
G36*
X807444Y2239361D02*
X806339Y2235710D01*
X806363Y2231489D01*
X807515Y2226700D01*
X809796Y2221342D01*
X813205Y2215414D01*
X817743Y2208918D01*
X823409Y2201852D01*
X838128Y2186015D01*
X823985Y2171872D01*
X815782Y2179796D01*
X801082Y2192257D01*
X794586Y2196795D01*
X788659Y2200204D01*
X783300Y2202485D01*
X778511Y2203637D01*
X774291Y2203661D01*
X770639Y2202556D01*
X767557Y2200322D01*
X809678Y2242444D01*
X807444Y2239361D01*
D02*
G37*
G36*
X2502664Y2218674D02*
X2503288Y2217896D01*
X2505813Y2215119D01*
X2519047Y2201644D01*
X2539045Y2182464D01*
X2527537Y2170955D01*
X2527337Y2171326D01*
X2526712Y2172104D01*
X2524188Y2174881D01*
X2510955Y2188356D01*
X2490955Y2207537D01*
X2502464Y2219045D01*
X2502664Y2218674D01*
D02*
G37*
G36*
X2252657Y2218604D02*
X2253279Y2217801D01*
X2254326Y2216594D01*
X2268193Y2202263D01*
X2269802Y2200729D01*
X2272523Y2198404D01*
X2275172Y2196413D01*
X2277750Y2194756D01*
X2280255Y2193435D01*
X2282690Y2192448D01*
X2285052Y2191796D01*
X2287343Y2191479D01*
X2289563Y2191497D01*
X2291711Y2191849D01*
X2275136Y2165062D01*
X2274506Y2167400D01*
X2273659Y2169776D01*
X2272594Y2172188D01*
X2271313Y2174638D01*
X2269816Y2177124D01*
X2268101Y2179648D01*
X2264021Y2184806D01*
X2261656Y2187441D01*
X2260910Y2188214D01*
X2240912Y2207534D01*
X2252461Y2219002D01*
X2252657Y2218604D01*
D02*
G37*
G36*
X2460367Y2182672D02*
X2462554Y2181586D01*
X2464938Y2180628D01*
X2467520Y2179798D01*
X2470299Y2179095D01*
X2473274Y2178520D01*
X2474625Y2178362D01*
X2480917Y2178587D01*
Y2177695D01*
X2483386Y2177562D01*
X2487151Y2177498D01*
X2490003Y2162498D01*
X2486242Y2162408D01*
X2482760Y2162137D01*
X2480918Y2161877D01*
Y2161411D01*
X2480429Y2161618D01*
X2479827Y2161723D01*
X2479558Y2161686D01*
X2476635Y2161054D01*
X2473990Y2160241D01*
X2471625Y2159248D01*
X2469540Y2158074D01*
X2467733Y2156720D01*
X2466206Y2155185D01*
X2464957Y2153469D01*
X2463029Y2162384D01*
X2450540Y2162498D01*
Y2177498D01*
X2459688Y2177826D01*
X2458378Y2183885D01*
X2460367Y2182672D01*
D02*
G37*
G36*
X2348217Y2129420D02*
X2331784Y2129420D01*
X2331920Y2129673D01*
X2332042Y2130182D01*
X2332149Y2130946D01*
X2332321Y2133242D01*
X2332500Y2143455D01*
X2347501D01*
X2348217Y2129420D01*
D02*
G37*
G36*
X2000767Y2129949D02*
X2002712Y2129435D01*
X2005056Y2128982D01*
X2010944Y2128256D01*
X2017137Y2127856D01*
X2030146Y2128745D01*
X2031171Y2129075D01*
X2031811Y2129444D01*
Y2127517D01*
X2032655Y2127501D01*
X2034861Y2112501D01*
X2031811Y2112427D01*
Y2110556D01*
X2031170Y2110926D01*
X2030146Y2111256D01*
X2028737Y2111548D01*
X2026944Y2111801D01*
X2025836Y2111892D01*
X2024188Y2111649D01*
X2021322Y2110986D01*
X2018802Y2110134D01*
X2016629Y2109093D01*
X2014801Y2107862D01*
X2013320Y2106442D01*
X2012184Y2104832D01*
X2011394Y2103033D01*
X1999222Y2130523D01*
X2000767Y2129949D01*
D02*
G37*
G36*
X2548603Y2129263D02*
X2549608Y2128893D01*
X2550928Y2128567D01*
X2552563Y2128284D01*
X2556778Y2127849D01*
X2562254Y2127588D01*
X2568991Y2127501D01*
Y2112501D01*
X2565466Y2112479D01*
X2552564Y2111717D01*
X2550929Y2111434D01*
X2549609Y2111108D01*
X2548603Y2110737D01*
X2547914Y2110324D01*
X2547913Y2129677D01*
X2548603Y2129263D01*
D02*
G37*
G36*
X2112842Y2128938D02*
X2128587Y2129084D01*
X2130382Y2114084D01*
X2124852Y2114062D01*
X2113936Y2113427D01*
X2114226Y2109326D01*
X2113331Y2110230D01*
X2112132Y2111039D01*
X2110629Y2111753D01*
X2108821Y2112371D01*
X2106709Y2112894D01*
X2106234Y2112979D01*
X2101355Y2112695D01*
X2100172Y2112326D01*
X2099532Y2111913D01*
X2099459Y2113782D01*
X2095216Y2114036D01*
X2091581Y2114084D01*
Y2129084D01*
X2095000Y2129137D01*
X2100950Y2129560D01*
X2103481Y2129931D01*
X2105717Y2130408D01*
X2107657Y2130990D01*
X2109301Y2131679D01*
X2110649Y2132473D01*
X2111702Y2133374D01*
X2112459Y2134380D01*
X2112842Y2128938D01*
D02*
G37*
G36*
X1499747Y2099972D02*
X1498358Y2100455D01*
X1496798Y2100569D01*
X1495067Y2100315D01*
X1493164Y2099692D01*
X1491089Y2098701D01*
X1488843Y2097341D01*
X1486425Y2095613D01*
X1483836Y2093516D01*
X1478143Y2088217D01*
X1465677Y2104035D01*
X1488977Y2128019D01*
X1499747Y2099972D01*
D02*
G37*
G36*
X1126331Y2142153D02*
X1126051Y2140450D01*
X1125805Y2138140D01*
X1125262Y2127574D01*
X1124999Y2105000D01*
X1114988D01*
X1122065Y2097923D01*
X1114817Y2090417D01*
X1103425Y2076962D01*
X1099280Y2071013D01*
X1096170Y2065582D01*
X1094093Y2060670D01*
X1093051Y2056277D01*
X1093044Y2052402D01*
X1094070Y2049046D01*
X1096131Y2046208D01*
X1062873Y2079467D01*
X1035002Y2086131D01*
X1038802Y2085674D01*
X1042202Y2086213D01*
X1045202Y2087750D01*
X1047802Y2090285D01*
X1050002Y2093816D01*
X1051802Y2098346D01*
X1053202Y2103872D01*
X1054202Y2110396D01*
X1054463Y2113672D01*
X1053356Y2143250D01*
X1076644D01*
X1076332Y2142097D01*
X1076052Y2140223D01*
X1075806Y2137628D01*
X1075158Y2120267D01*
X1075178Y2119581D01*
X1075708Y2113758D01*
X1076591Y2108079D01*
X1077827Y2102543D01*
X1079416Y2097150D01*
X1081359Y2091902D01*
X1082174Y2090089D01*
X1086962Y2093425D01*
X1093430Y2098604D01*
X1104819Y2109182D01*
X1103356Y2143250D01*
X1126643D01*
X1126331Y2142153D01*
D02*
G37*
G36*
X807373Y2120169D02*
X805966Y2118022D01*
X805458Y2115394D01*
X805847Y2112286D01*
X807136Y2108698D01*
X809322Y2104630D01*
X812407Y2100082D01*
X816390Y2095053D01*
X821271Y2089544D01*
X827051Y2083556D01*
X810589Y2078804D01*
X805007Y2084177D01*
X794736Y2092776D01*
X790047Y2096001D01*
X785655Y2098511D01*
X781561Y2100305D01*
X777765Y2101383D01*
X774267Y2101745D01*
X771066Y2101391D01*
X768163Y2100322D01*
X809678Y2121837D01*
X807373Y2120169D01*
D02*
G37*
G36*
X2643551Y2130827D02*
X2647499Y2134775D01*
X2647632Y2133097D01*
X2648063Y2131284D01*
X2648792Y2129336D01*
X2649818Y2127252D01*
X2651143Y2125033D01*
X2652414Y2123189D01*
X2659234Y2117426D01*
X2665620Y2112998D01*
X2671455Y2109682D01*
X2676737Y2107478D01*
X2681467Y2106385D01*
X2685645Y2106403D01*
X2689271Y2107534D01*
X2692345Y2109776D01*
X2650224Y2067654D01*
X2652466Y2070729D01*
X2653596Y2074354D01*
X2653615Y2078533D01*
X2652522Y2083263D01*
X2650318Y2088545D01*
X2647002Y2094380D01*
X2642574Y2100766D01*
X2637588Y2107011D01*
X2637322Y2107236D01*
X2634968Y2108858D01*
X2632748Y2110183D01*
X2630665Y2111209D01*
X2628716Y2111938D01*
X2626903Y2112369D01*
X2625225Y2112501D01*
X2629173Y2116449D01*
X2622620Y2123238D01*
X2636762Y2137380D01*
X2643551Y2130827D01*
D02*
G37*
G36*
X2369639Y2081348D02*
X2370705Y2080540D01*
X2372070Y2079827D01*
X2373734Y2079210D01*
X2375697Y2078687D01*
X2377246Y2078394D01*
X2380847Y2078513D01*
Y2077906D01*
X2386543Y2077547D01*
X2390002Y2077499D01*
Y2062499D01*
X2386543Y2062452D01*
X2380847Y2061979D01*
Y2061487D01*
X2380369Y2061679D01*
X2379312Y2061851D01*
X2379310Y2061851D01*
X2377959Y2061739D01*
X2375697Y2061311D01*
X2373733Y2060789D01*
X2372069Y2060171D01*
X2370704Y2059458D01*
X2369638Y2058651D01*
X2368872Y2057748D01*
X2368872Y2062341D01*
X2350001Y2062499D01*
Y2077499D01*
X2368872Y2078119D01*
X2368873Y2082251D01*
X2369639Y2081348D01*
D02*
G37*
G36*
X1895264Y2103699D02*
X1889235Y2092992D01*
X1886786Y2087853D01*
X1883018Y2078003D01*
X1882253Y2075270D01*
X1883204Y2071712D01*
X1885004Y2067279D01*
X1887204Y2063651D01*
X1889804Y2060830D01*
X1892804Y2058815D01*
X1896204Y2057606D01*
X1900004Y2057203D01*
X1840004D01*
X1843804Y2057606D01*
X1847204Y2058815D01*
X1850204Y2060830D01*
X1852804Y2063651D01*
X1855004Y2067279D01*
X1856804Y2071712D01*
X1857754Y2075268D01*
X1856989Y2078000D01*
X1855293Y2082853D01*
X1853220Y2087850D01*
X1847943Y2098272D01*
X1844740Y2103698D01*
X1841159Y2109267D01*
X1898844D01*
X1895264Y2103699D01*
D02*
G37*
G36*
X1750190Y2095701D02*
X1750755Y2091276D01*
X1751697Y2086709D01*
X1753016Y2081998D01*
X1754712Y2077145D01*
X1756784Y2072148D01*
X1762060Y2061727D01*
X1765263Y2056302D01*
X1768843Y2050734D01*
X1711158D01*
X1714738Y2056303D01*
X1720768Y2067011D01*
X1723218Y2072151D01*
X1726987Y2082000D01*
X1728306Y2086711D01*
X1729248Y2091278D01*
X1729813Y2095702D01*
X1730002Y2099983D01*
X1750002D01*
X1750190Y2095701D01*
D02*
G37*
G36*
X859095Y2045850D02*
X858954Y2046164D01*
X858531Y2046445D01*
X857826Y2046693D01*
X856839Y2046908D01*
X855570Y2047089D01*
X852187Y2047354D01*
X844998Y2047502D01*
Y2062502D01*
X847676Y2062519D01*
X856841Y2063097D01*
X857827Y2063312D01*
X858532Y2063560D01*
X858955Y2063841D01*
X859096Y2064155D01*
X859095Y2045850D01*
D02*
G37*
G36*
X1217903Y2066332D02*
X1219777Y2066053D01*
X1222371Y2065806D01*
X1239956Y2065150D01*
X1260713Y2065002D01*
X1260724Y2045002D01*
X1216750Y2043356D01*
Y2066644D01*
X1217903Y2066332D01*
D02*
G37*
G36*
X2211128Y2027659D02*
X2230000Y2027501D01*
Y2012500D01*
X2211128Y2011881D01*
Y2007749D01*
X2210361Y2008652D01*
X2209296Y2009460D01*
X2207931Y2010173D01*
X2206267Y2010790D01*
X2204303Y2011313D01*
X2202755Y2011606D01*
X2199153Y2011487D01*
Y2012094D01*
X2193458Y2012453D01*
X2189999Y2012500D01*
Y2027501D01*
X2193458Y2027548D01*
X2199153Y2028021D01*
Y2028513D01*
X2199631Y2028321D01*
X2200688Y2028149D01*
X2200690Y2028148D01*
X2202041Y2028261D01*
X2204304Y2028688D01*
X2206267Y2029211D01*
X2207931Y2029829D01*
X2209296Y2030541D01*
X2210362Y2031349D01*
X2211128Y2032251D01*
Y2027659D01*
D02*
G37*
G36*
X1508479Y2037551D02*
X1507120Y2037481D01*
X1505583Y2037098D01*
X1503869Y2036402D01*
X1501977Y2035393D01*
X1499909Y2034071D01*
X1497664Y2032436D01*
X1492641Y2028227D01*
X1486909Y2022767D01*
X1472767Y2036909D01*
X1475653Y2039863D01*
X1482436Y2047663D01*
X1484071Y2049909D01*
X1485393Y2051977D01*
X1486402Y2053869D01*
X1487098Y2055583D01*
X1487481Y2057120D01*
X1487552Y2058479D01*
X1508479Y2037551D01*
D02*
G37*
G36*
X2099541Y2028366D02*
X2100689Y2027895D01*
X2102229Y2027479D01*
X2104159Y2027118D01*
X2106480Y2026813D01*
X2112296Y2026369D01*
X2123953Y2026119D01*
Y2011120D01*
X2103873Y2010580D01*
X2103868Y2010496D01*
X2103758Y2010577D01*
X2098033Y2010423D01*
X2098057Y2011019D01*
X2095813Y2011095D01*
X2091380Y2011120D01*
Y2026119D01*
X2098681Y2026358D01*
X2098784Y2028893D01*
X2099541Y2028366D01*
D02*
G37*
G36*
X1217904Y2016331D02*
X1219779Y2016052D01*
X1222374Y2015805D01*
X1239961Y2015148D01*
X1260718Y2015000D01*
Y1995000D01*
X1216750Y1993356D01*
Y2016643D01*
X1217904Y2016331D01*
D02*
G37*
G36*
X816757Y2031200D02*
X817306Y2027800D01*
X818850Y2024800D01*
X821388Y2022200D01*
X824921Y2020000D01*
X829449Y2018200D01*
X834971Y2016800D01*
X841331Y2015824D01*
X863250Y2016643D01*
Y1993356D01*
X862096Y1993668D01*
X860221Y1993948D01*
X857626Y1994194D01*
X842034Y1994777D01*
X807472Y1993730D01*
X817203Y2035000D01*
X816757Y2031200D01*
D02*
G37*
G36*
X1089305Y1982982D02*
X1086303Y1978164D01*
X1083654Y1973203D01*
X1081359Y1968098D01*
X1079416Y1962850D01*
X1077827Y1957457D01*
X1076591Y1951921D01*
X1075708Y1946242D01*
X1075590Y1944949D01*
X1076644Y1916750D01*
X1053356D01*
X1053669Y1917905D01*
X1053949Y1919780D01*
X1054196Y1922376D01*
X1054852Y1939930D01*
X1054802Y1942083D01*
X1054202Y1949604D01*
X1053202Y1956128D01*
X1051802Y1961654D01*
X1050002Y1966184D01*
X1047802Y1969715D01*
X1045202Y1972250D01*
X1042202Y1973787D01*
X1040001Y1974136D01*
X1037799Y1973787D01*
X1034799Y1972250D01*
X1032199Y1969715D01*
X1029999Y1966184D01*
X1028199Y1961654D01*
X1026799Y1956128D01*
X1025799Y1949604D01*
X1025537Y1946323D01*
X1026643Y1916750D01*
X1003356D01*
X1003668Y1917904D01*
X1003948Y1919778D01*
X1004194Y1922373D01*
X1004843Y1939734D01*
X1004823Y1940419D01*
X1004293Y1946242D01*
X1003410Y1951921D01*
X1002174Y1957457D01*
X1000584Y1962849D01*
X998642Y1968097D01*
X996346Y1973203D01*
X993697Y1978164D01*
X990695Y1982982D01*
X987340Y1987657D01*
X1040000Y1975064D01*
X1092660Y1987657D01*
X1089305Y1982982D01*
D02*
G37*
G36*
X1944990Y2016040D02*
X1943709Y2013776D01*
X1943362Y2010996D01*
X1943949Y2007699D01*
X1945469Y2003886D01*
X1947922Y1999556D01*
X1951309Y1994709D01*
X1955630Y1989347D01*
X1967071Y1977071D01*
X1951650Y1964208D01*
X1944669Y1970980D01*
X1932066Y1981915D01*
X1926444Y1986078D01*
X1921274Y1989372D01*
X1916556Y1991796D01*
X1912292Y1993351D01*
X1908479Y1994036D01*
X1905120Y1993851D01*
X1902213Y1992797D01*
X1947203Y2017787D01*
X1944990Y2016040D01*
D02*
G37*
G36*
X2441834Y1940484D02*
X2439474Y1940165D01*
X2437075Y1939592D01*
X2434635Y1938764D01*
X2432156Y1937682D01*
X2429637Y1936345D01*
X2427078Y1934753D01*
X2424480Y1932906D01*
X2421841Y1930805D01*
X2416445Y1925839D01*
X2414457Y1927474D01*
X2402406Y1918467D01*
X2392781Y1932187D01*
X2394340Y1932074D01*
X2396152Y1932390D01*
X2398217Y1933135D01*
X2400534Y1934308D01*
X2403104Y1935910D01*
X2405927Y1937941D01*
X2410084Y1941413D01*
X2411822Y1943545D01*
X2413556Y1946147D01*
X2414989Y1948696D01*
X2416119Y1951191D01*
X2416947Y1953632D01*
X2417473Y1956018D01*
X2417697Y1958351D01*
X2417618Y1960630D01*
X2441834Y1940484D01*
D02*
G37*
G36*
X2102680Y1968877D02*
X2103305Y1968053D01*
X2104354Y1966827D01*
X2113265Y1957509D01*
X2130672Y1941990D01*
X2132192Y1941017D01*
X2133424Y1940396D01*
X2105376Y1930740D01*
X2106148Y1932489D01*
X2106535Y1934359D01*
X2106536Y1936349D01*
X2106151Y1938460D01*
X2105380Y1940692D01*
X2104223Y1943044D01*
X2102680Y1945516D01*
X2101035Y1947727D01*
X2090698Y1957520D01*
X2102481Y1969301D01*
X2102680Y1968877D01*
D02*
G37*
G36*
X1975441Y1921299D02*
X1967697Y1913290D01*
X1955489Y1898967D01*
X1951025Y1892653D01*
X1947654Y1886903D01*
X1945377Y1881718D01*
X1944194Y1877098D01*
X1944104Y1873043D01*
X1945107Y1869553D01*
X1947203Y1866627D01*
X1906627Y1907203D01*
X1909553Y1905106D01*
X1913044Y1904103D01*
X1917099Y1904193D01*
X1921719Y1905377D01*
X1926904Y1907654D01*
X1932653Y1911024D01*
X1938968Y1915488D01*
X1945847Y1921046D01*
X1961299Y1935441D01*
X1975441Y1921299D01*
D02*
G37*
G36*
X1769861Y1942816D02*
X1770409Y1942225D01*
X1771323Y1941703D01*
X1772602Y1941251D01*
X1774247Y1940868D01*
X1776258Y1940555D01*
X1781375Y1940138D01*
X1787955Y1939999D01*
Y1924125D01*
X1796994Y1935101D01*
X1805215Y1927160D01*
X1819902Y1914712D01*
X1826367Y1910205D01*
X1832248Y1906843D01*
X1837543Y1904625D01*
X1842253Y1903552D01*
X1846378Y1903624D01*
X1849918Y1904841D01*
X1852872Y1907203D01*
X1812798Y1863034D01*
X1814908Y1866240D01*
X1815914Y1869990D01*
X1815816Y1874285D01*
X1814614Y1879125D01*
X1812308Y1884508D01*
X1808898Y1890436D01*
X1804385Y1896908D01*
X1798767Y1903925D01*
X1784220Y1919591D01*
X1784528Y1919964D01*
X1784482Y1919964D01*
X1776258Y1919442D01*
X1774247Y1919129D01*
X1772602Y1918746D01*
X1771323Y1918294D01*
X1770409Y1917772D01*
X1769861Y1917181D01*
X1769678Y1916520D01*
Y1943477D01*
X1769861Y1942816D01*
D02*
G37*
G36*
X2500740Y1852227D02*
X2479662Y1852060D01*
X2479761Y1852288D01*
X2479849Y1852860D01*
X2479926Y1853776D01*
X2480134Y1860881D01*
X2480180Y1869821D01*
X2500180D01*
X2500740Y1852227D01*
D02*
G37*
G36*
X2000614Y1847500D02*
X1998936Y1847367D01*
X1997123Y1846936D01*
X1995174Y1846208D01*
X1993091Y1845181D01*
X1990872Y1843857D01*
X1988517Y1842234D01*
X1986028Y1840314D01*
X1980643Y1835580D01*
X1977748Y1832766D01*
X1963606Y1846908D01*
X1966420Y1849803D01*
X1973074Y1857678D01*
X1974697Y1860032D01*
X1976021Y1862251D01*
X1977048Y1864334D01*
X1977776Y1866283D01*
X1978207Y1868096D01*
X1978340Y1869774D01*
X2000614Y1847500D01*
D02*
G37*
G36*
X2398789Y1857178D02*
X2398519Y1855609D01*
X2398281Y1853534D01*
X2397817Y1845333D01*
X2398861Y1829072D01*
X2399180Y1828485D01*
X2397551D01*
X2397503Y1824834D01*
X2382503Y1821880D01*
X2382410Y1825804D01*
X2382200Y1828486D01*
X2380822D01*
X2381142Y1829074D01*
X2381427Y1830112D01*
X2381679Y1831599D01*
X2381734Y1832088D01*
X2381668Y1832543D01*
X2381019Y1835359D01*
X2380184Y1837805D01*
X2379164Y1839882D01*
X2377958Y1841590D01*
X2376567Y1842928D01*
X2374990Y1843897D01*
X2373228Y1844497D01*
X2382440Y1849393D01*
X2382503Y1854593D01*
X2392226D01*
X2399090Y1858241D01*
X2398789Y1857178D01*
D02*
G37*
G36*
X2447715Y1849716D02*
X2455447Y1850062D01*
X2453937Y1848249D01*
X2452586Y1846217D01*
X2451394Y1843966D01*
X2450361Y1841496D01*
X2449487Y1838807D01*
X2448772Y1835899D01*
X2448215Y1832773D01*
X2448091Y1831728D01*
X2448138Y1829488D01*
X2447825D01*
X2447818Y1829427D01*
X2447500Y1822080D01*
X2432500Y1821368D01*
X2432415Y1825177D01*
X2431989Y1829488D01*
X2431862D01*
X2431958Y1829806D01*
X2431733Y1832076D01*
X2431137Y1835165D01*
X2430370Y1838014D01*
X2429433Y1840622D01*
X2428325Y1842991D01*
X2427046Y1845119D01*
X2425598Y1847006D01*
X2423979Y1848654D01*
X2432401Y1849031D01*
X2432500Y1860000D01*
X2447500D01*
X2447715Y1849716D01*
D02*
G37*
G36*
X2583932Y1804250D02*
X2582651Y1805342D01*
X2581065Y1806320D01*
X2579172Y1807183D01*
X2576972Y1807930D01*
X2574467Y1808563D01*
X2571655Y1809080D01*
X2568537Y1809483D01*
X2561381Y1809943D01*
X2557344Y1810000D01*
Y1830000D01*
X2561381Y1830057D01*
X2571655Y1830920D01*
X2574467Y1831437D01*
X2576972Y1832070D01*
X2579172Y1832817D01*
X2581065Y1833680D01*
X2582651Y1834657D01*
X2583932Y1835750D01*
Y1804250D01*
D02*
G37*
G36*
X1270200Y1824804D02*
X1270800Y1817952D01*
X1271800Y1811907D01*
X1273200Y1806667D01*
X1275000Y1802234D01*
X1277200Y1798606D01*
X1279800Y1795785D01*
X1282800Y1793770D01*
X1286200Y1792561D01*
X1290000Y1792157D01*
X1230000D01*
X1233800Y1792561D01*
X1237200Y1793770D01*
X1240200Y1795785D01*
X1242800Y1798606D01*
X1245000Y1802234D01*
X1246800Y1806667D01*
X1248200Y1811907D01*
X1249200Y1817952D01*
X1249800Y1824804D01*
X1250000Y1832462D01*
X1270000D01*
X1270200Y1824804D01*
D02*
G37*
G36*
X1878128Y1803985D02*
X1870204Y1795782D01*
X1857743Y1781083D01*
X1853205Y1774586D01*
X1849796Y1768659D01*
X1847515Y1763300D01*
X1846363Y1758511D01*
X1846339Y1754291D01*
X1847445Y1750639D01*
X1849678Y1747557D01*
X1807557Y1789678D01*
X1810639Y1787444D01*
X1814291Y1786339D01*
X1818511Y1786363D01*
X1823300Y1787515D01*
X1828659Y1789796D01*
X1834586Y1793205D01*
X1841083Y1797743D01*
X1848148Y1803409D01*
X1863986Y1818128D01*
X1878128Y1803985D01*
D02*
G37*
G36*
X1943465Y1787162D02*
X1946363Y1785659D01*
X1949430Y1784332D01*
X1952665Y1783183D01*
X1956067Y1782210D01*
X1959637Y1781414D01*
X1963375Y1780795D01*
X1971355Y1780087D01*
X1975596Y1779999D01*
Y1759999D01*
X1970282Y1759907D01*
X1961469Y1759170D01*
X1957969Y1758525D01*
X1955075Y1757697D01*
X1952786Y1756683D01*
X1951102Y1755486D01*
X1950022Y1754105D01*
X1949548Y1752539D01*
X1949678Y1750789D01*
X1940734Y1788842D01*
X1943465Y1787162D01*
D02*
G37*
G36*
X1387843Y1699999D02*
X1387440Y1703799D01*
X1386231Y1707199D01*
X1384215Y1710199D01*
X1381394Y1712799D01*
X1377767Y1714999D01*
X1373333Y1716799D01*
X1368094Y1718199D01*
X1362048Y1719199D01*
X1360000Y1719378D01*
X1357952Y1719199D01*
X1351907Y1718199D01*
X1346667Y1716799D01*
X1342234Y1714999D01*
X1338606Y1712799D01*
X1335785Y1710199D01*
X1333769Y1707199D01*
X1332560Y1703799D01*
X1332157Y1699999D01*
Y1759999D01*
X1332560Y1756199D01*
X1333769Y1752799D01*
X1335785Y1749799D01*
X1338606Y1747199D01*
X1342234Y1744999D01*
X1346667Y1743199D01*
X1351907Y1741799D01*
X1357952Y1740799D01*
X1360000Y1740620D01*
X1362048Y1740799D01*
X1368094Y1741799D01*
X1373333Y1743199D01*
X1377767Y1744999D01*
X1381394Y1747199D01*
X1384215Y1749799D01*
X1386231Y1752799D01*
X1387440Y1756199D01*
X1387843Y1759999D01*
Y1699999D01*
D02*
G37*
G36*
X2351297Y1722309D02*
X2352883Y1721331D01*
X2354776Y1720468D01*
X2356975Y1719721D01*
X2359481Y1719089D01*
X2362293Y1718571D01*
X2365411Y1718169D01*
X2372567Y1717709D01*
X2376604Y1717651D01*
Y1697651D01*
X2372567Y1697594D01*
X2362293Y1696731D01*
X2359481Y1696214D01*
X2356975Y1695581D01*
X2354776Y1694834D01*
X2352883Y1693971D01*
X2351297Y1692994D01*
X2350016Y1691901D01*
Y1723401D01*
X2351297Y1722309D01*
D02*
G37*
G36*
X1945262Y1733698D02*
X1939233Y1722990D01*
X1936783Y1717851D01*
X1933513Y1709302D01*
X1933680Y1708935D01*
X1934658Y1707348D01*
X1935750Y1706068D01*
X1932473D01*
X1931696Y1703290D01*
X1930754Y1698723D01*
X1930188Y1694299D01*
X1930000Y1690017D01*
X1910000D01*
X1909812Y1694299D01*
X1909246Y1698723D01*
X1908304Y1703290D01*
X1907527Y1706068D01*
X1904250D01*
X1905342Y1707348D01*
X1906320Y1708935D01*
X1906512Y1709356D01*
X1905289Y1712854D01*
X1903217Y1717851D01*
X1897941Y1728272D01*
X1894738Y1733698D01*
X1891158Y1739266D01*
X1948842D01*
X1945262Y1733698D01*
D02*
G37*
G36*
X2956055Y1104409D02*
X2953199Y1102132D01*
X2933066Y1105264D01*
X2929941Y1109941D01*
X2911616Y1122185D01*
X2902700Y1123959D01*
Y1070000D01*
X2877300D01*
Y1084210D01*
X2860145Y1067056D01*
X2859522Y1071223D01*
X2858472Y1075446D01*
X2856993Y1079725D01*
X2855085Y1084058D01*
X2852749Y1088446D01*
X2849985Y1092889D01*
X2847662Y1096163D01*
X2846542Y1096853D01*
X2844385Y1097925D01*
X2842381Y1098647D01*
X2840530Y1099018D01*
X2838832Y1099040D01*
X2837286Y1098712D01*
X2838413Y1100904D01*
X2826372D01*
X2829774Y1097501D01*
X2828096Y1097368D01*
X2826283Y1096938D01*
X2824335Y1096209D01*
X2822251Y1095182D01*
X2821197Y1094553D01*
X2820015Y1092889D01*
X2817251Y1088445D01*
X2814915Y1084057D01*
X2813008Y1079724D01*
X2811529Y1075446D01*
X2810478Y1071223D01*
X2809855Y1067055D01*
X2792700Y1084210D01*
Y1070000D01*
X2780000D01*
Y1057300D01*
X2726041D01*
X2727703Y1048945D01*
X2728000Y1046274D01*
X2720017Y1033945D01*
X2640000D01*
X2623183Y1030600D01*
X2614440Y1024758D01*
X2603625Y1035572D01*
X2612186Y1048384D01*
X2613959Y1057300D01*
X2560000D01*
Y1070000D01*
X2547300D01*
Y1123959D01*
X2538384Y1122185D01*
X2525723Y1113725D01*
X2525310Y1114343D01*
X2489827Y1149826D01*
X2480730Y1155904D01*
X2470000Y1158039D01*
X2411614D01*
X2388039Y1181614D01*
Y1219314D01*
X2395000D01*
X2408656Y1222031D01*
X2420234Y1229766D01*
X2427969Y1241344D01*
X2430686Y1255000D01*
Y1285000D01*
X2427969Y1298656D01*
X2420234Y1310234D01*
X2419117Y1310980D01*
Y1329020D01*
X2420234Y1329766D01*
X2427969Y1341344D01*
X2430686Y1355000D01*
Y1385000D01*
X2427969Y1398656D01*
X2420234Y1410233D01*
X2419449Y1411087D01*
X2416952Y1420314D01*
X2416570Y1424554D01*
X2417455Y1429557D01*
X2420034Y1433417D01*
X2423332Y1450000D01*
X2420034Y1466583D01*
X2410641Y1480640D01*
X2396583Y1490034D01*
X2380000Y1493332D01*
X2363417Y1490034D01*
X2350000Y1481068D01*
X2336583Y1490034D01*
X2320000Y1493332D01*
X2303417Y1490034D01*
X2289359Y1480640D01*
X2279966Y1466583D01*
X2276668Y1450000D01*
X2276934Y1448658D01*
X2274215Y1445468D01*
X2272576Y1443796D01*
X2270519Y1438684D01*
X2267437Y1434071D01*
X2266381Y1428761D01*
X2264198Y1423777D01*
X2264132Y1420513D01*
X2251344Y1417969D01*
X2239766Y1410233D01*
X2232031Y1398656D01*
X2229314Y1385000D01*
Y1355000D01*
X2232031Y1341344D01*
X2239766Y1329766D01*
X2240883Y1329020D01*
Y1310980D01*
X2239766Y1310234D01*
X2232031Y1298656D01*
X2229314Y1285000D01*
Y1255000D01*
X2232031Y1241344D01*
X2239766Y1229766D01*
X2251344Y1222031D01*
X2265000Y1219314D01*
X2271961D01*
Y1151616D01*
X2254153Y1133808D01*
X2251672Y1132878D01*
X2249022Y1130403D01*
X2246882Y1128670D01*
X2244705Y1127155D01*
X2242481Y1125842D01*
X2240185Y1124711D01*
X2237792Y1123749D01*
X2235277Y1122950D01*
X2232612Y1122314D01*
X2229782Y1121847D01*
X2226055Y1121490D01*
X2222156Y1119419D01*
X2210491Y1117099D01*
X2193952Y1106048D01*
X2182901Y1089509D01*
X2182647Y1088232D01*
X2167353D01*
X2167099Y1089509D01*
X2156048Y1106048D01*
X2139509Y1117099D01*
X2120000Y1120979D01*
X2109450Y1118881D01*
X2096599Y1131166D01*
X2097422Y1135303D01*
X2094124Y1151886D01*
X2084730Y1165944D01*
X2070673Y1175337D01*
X2054090Y1178636D01*
X2037507Y1175337D01*
X2027125Y1168400D01*
X2023496Y1167104D01*
X2022685Y1166371D01*
X2022677Y1166365D01*
X2022406Y1166212D01*
X2021809Y1165947D01*
X2020847Y1165618D01*
X2019503Y1165271D01*
X2018067Y1165005D01*
X2012908Y1164511D01*
X2009908Y1164446D01*
X2007397Y1163342D01*
X2001055D01*
X1990325Y1161207D01*
X1981229Y1155130D01*
X1937603Y1111503D01*
X1921616Y1122185D01*
X1912700Y1123959D01*
Y1120955D01*
X1915992Y1120826D01*
X1914854Y1119585D01*
X1913835Y1118033D01*
X1912937Y1116171D01*
X1912700Y1115511D01*
Y1111777D01*
X1913357Y1109098D01*
X1914833Y1104454D01*
X1916578Y1100097D01*
X1918591Y1096027D01*
X1920872Y1092243D01*
X1923422Y1088746D01*
X1912700Y1088746D01*
Y1070000D01*
X1887300D01*
Y1088746D01*
X1876582Y1088746D01*
X1876581Y1051250D01*
X1875005Y1052913D01*
X1873076Y1054400D01*
X1870797Y1055713D01*
X1868166Y1056850D01*
X1865183Y1057813D01*
X1864417Y1057994D01*
X1862200Y1056801D01*
X1860000Y1055000D01*
X1858200Y1052801D01*
X1856800Y1050200D01*
X1855800Y1047200D01*
X1855200Y1043801D01*
X1855000Y1040000D01*
X1835000D01*
X1834800Y1043801D01*
X1834200Y1047200D01*
X1833200Y1050200D01*
X1831800Y1052801D01*
X1830000Y1055000D01*
X1827800Y1056801D01*
X1825583Y1057994D01*
X1824817Y1057813D01*
X1821835Y1056850D01*
X1819204Y1055713D01*
X1816924Y1054400D01*
X1814996Y1052913D01*
X1813419Y1051250D01*
X1813419Y1088750D01*
X1814995Y1087088D01*
X1816924Y1085600D01*
X1819203Y1084288D01*
X1821834Y1083150D01*
X1824817Y1082188D01*
X1828151Y1081400D01*
X1831836Y1080788D01*
X1835873Y1080350D01*
X1845000Y1080000D01*
X1849740Y1080088D01*
X1858164Y1080788D01*
X1861850Y1081400D01*
X1865183Y1082188D01*
X1868166Y1083150D01*
X1870797Y1084288D01*
X1873077Y1085600D01*
X1875005Y1087088D01*
X1876580Y1088749D01*
X1879129Y1092244D01*
X1881411Y1096028D01*
X1883424Y1100098D01*
X1885169Y1104455D01*
X1886646Y1109099D01*
X1887300Y1111770D01*
Y1117245D01*
X1886491Y1119133D01*
X1885558Y1120750D01*
X1884516Y1122064D01*
X1887300Y1121955D01*
Y1123959D01*
X1878384Y1122185D01*
X1860059Y1109941D01*
X1854020Y1100904D01*
X1835980D01*
X1829941Y1109941D01*
X1811616Y1122185D01*
X1802700Y1123959D01*
Y1111946D01*
X1803297Y1109383D01*
X1804749Y1104629D01*
X1806464Y1100216D01*
X1808443Y1096145D01*
X1810686Y1092416D01*
X1813193Y1089029D01*
X1802700Y1089029D01*
Y1070000D01*
X1777300D01*
Y1089028D01*
X1766807Y1089028D01*
X1769313Y1092415D01*
X1771556Y1096144D01*
X1773535Y1100215D01*
X1775250Y1104627D01*
X1776701Y1109382D01*
X1777300Y1111954D01*
Y1123959D01*
X1768384Y1122185D01*
X1750059Y1109941D01*
X1740123Y1095070D01*
X1727119Y1094142D01*
X1723419Y1095016D01*
X1721654Y1097657D01*
X1720595Y1101905D01*
X1718704Y1104461D01*
X1717493Y1106474D01*
X1716322Y1108882D01*
X1715221Y1111716D01*
X1714218Y1115002D01*
X1713345Y1118752D01*
X1712676Y1122689D01*
X1711762Y1132998D01*
X1711645Y1138725D01*
X1710589Y1141133D01*
Y1219314D01*
X1725000D01*
X1738656Y1222031D01*
X1747725Y1228090D01*
X1750234Y1229766D01*
X1765773Y1226023D01*
X1765873Y1225873D01*
X1779237Y1216944D01*
X1780004Y1216792D01*
X1780017Y1255000D01*
X1797300Y1248655D01*
Y1270000D01*
X1810000D01*
Y1282700D01*
X1827450D01*
X1810472Y1299678D01*
X1812205Y1298549D01*
X1814391Y1298174D01*
X1817031Y1298554D01*
X1820123Y1299689D01*
X1823669Y1301578D01*
X1827668Y1304221D01*
X1829214Y1305401D01*
X1829341Y1305587D01*
X1830637Y1307809D01*
X1831630Y1309896D01*
X1832320Y1311848D01*
X1832706Y1313665D01*
X1832789Y1315347D01*
X1836712Y1311671D01*
X1842385Y1316678D01*
X1845609Y1319818D01*
X1840763Y1323056D01*
X1825000Y1326191D01*
X1824414D01*
X1824412Y1326193D01*
X1818979Y1331067D01*
X1816700Y1341191D01*
X1820464Y1345646D01*
X1822753Y1348000D01*
X1823741Y1350484D01*
X1941629Y1468372D01*
X1948259Y1478295D01*
X1950588Y1490001D01*
X1950588Y1490002D01*
Y1644582D01*
X1951646Y1647037D01*
X1951695Y1650533D01*
X1952076Y1656454D01*
X1952315Y1658305D01*
X1952600Y1659855D01*
X1952846Y1660831D01*
X1952902Y1660994D01*
X1953088Y1661296D01*
X1953126Y1661534D01*
X1953379Y1662089D01*
X1953424Y1663387D01*
X1953454Y1663570D01*
X1958585Y1671249D01*
X1961829Y1673748D01*
X1975909Y1676341D01*
X1979269Y1674096D01*
X1989999Y1671961D01*
X2000729Y1674096D01*
X2009825Y1680174D01*
X2015903Y1689270D01*
X2016704Y1693295D01*
X2020731Y1694096D01*
X2029827Y1700174D01*
X2035905Y1709270D01*
X2038039Y1720000D01*
X2039657Y1729366D01*
X2034698Y1734688D01*
X2040001Y1739991D01*
X2032501D01*
X2032480Y1743719D01*
X2031471Y1758956D01*
X2031156Y1760308D01*
X2030799Y1761321D01*
X2030400Y1761995D01*
X2049601Y1761995D01*
X2049202Y1761322D01*
X2048845Y1760309D01*
X2048530Y1758957D01*
X2048257Y1757266D01*
X2047837Y1752865D01*
X2047522Y1743719D01*
X2047519Y1743154D01*
X2048029Y1742661D01*
X2053133Y1738287D01*
X2055512Y1736545D01*
X2056861Y1735685D01*
X2067324Y1742675D01*
X2071233Y1743453D01*
X2077319Y1739386D01*
X2090000Y1736863D01*
X2102681Y1739386D01*
X2113431Y1746569D01*
X2116570D01*
X2127320Y1739386D01*
X2140000Y1736863D01*
X2152681Y1739386D01*
X2163431Y1746569D01*
X2166569D01*
X2177319Y1739386D01*
X2190000Y1736863D01*
X2202681Y1739386D01*
X2203129Y1739685D01*
X2215000Y1745765D01*
X2226872Y1739685D01*
X2227320Y1739386D01*
X2240000Y1736863D01*
X2252681Y1739386D01*
X2263431Y1746569D01*
X2266570D01*
X2277320Y1739386D01*
X2284980Y1737862D01*
X2292545Y1726321D01*
X2293523Y1722270D01*
X2290616Y1707651D01*
X2293914Y1691069D01*
X2303308Y1677011D01*
X2317365Y1667617D01*
X2333948Y1664319D01*
X2350531Y1667617D01*
X2360378Y1674197D01*
X2360561Y1674227D01*
X2361859Y1674272D01*
X2362414Y1674525D01*
X2362652Y1674563D01*
X2362954Y1674749D01*
X2363117Y1674805D01*
X2364093Y1675051D01*
X2365165Y1675248D01*
X2373628Y1675959D01*
X2376911Y1676006D01*
X2379366Y1677063D01*
X2397650D01*
X2397651Y1677063D01*
X2409357Y1679392D01*
X2419280Y1686022D01*
X2461629Y1728371D01*
X2475213Y1734299D01*
X2477300Y1733884D01*
Y1770000D01*
X2500921D01*
X2502411Y1771491D01*
X2502602Y1770674D01*
X2502995Y1769721D01*
X2503590Y1768632D01*
X2504387Y1767407D01*
X2505386Y1766046D01*
X2507990Y1762915D01*
X2511048Y1759621D01*
X2512377Y1759819D01*
X2514509Y1760349D01*
X2516641Y1761092D01*
X2518770Y1762046D01*
X2520898Y1763213D01*
X2523025Y1764592D01*
X2523932Y1765271D01*
X2524616Y1766044D01*
X2525614Y1767405D01*
X2526411Y1768630D01*
X2527006Y1769719D01*
X2527399Y1770671D01*
X2527589Y1771488D01*
X2529232Y1769845D01*
X2529396Y1770001D01*
X2540002Y1759394D01*
X2539849Y1759229D01*
X2541489Y1757589D01*
X2540673Y1757398D01*
X2539720Y1757005D01*
X2538632Y1756411D01*
X2537407Y1755614D01*
X2536046Y1754615D01*
X2535799Y1754410D01*
X2534593Y1752635D01*
X2533214Y1750206D01*
X2532047Y1747690D01*
X2531093Y1745085D01*
X2530350Y1742393D01*
X2529820Y1739612D01*
X2529502Y1736744D01*
X2529396Y1733788D01*
X2528743Y1733597D01*
X2540000Y1731358D01*
X2541962Y1720000D01*
X2544096Y1709270D01*
X2550174Y1700174D01*
X2559270Y1694096D01*
X2563294Y1693296D01*
X2564094Y1689270D01*
X2570172Y1680174D01*
X2579269Y1674096D01*
X2589999Y1671961D01*
X2600729Y1674096D01*
X2609825Y1680174D01*
X2615903Y1689270D01*
X2616703Y1693295D01*
X2620730Y1694096D01*
X2629827Y1700174D01*
X2635905Y1709270D01*
X2638039Y1720000D01*
X2635905Y1730730D01*
X2629827Y1739826D01*
X2620730Y1745904D01*
X2616703Y1746705D01*
X2615903Y1750730D01*
X2609825Y1759826D01*
X2605787Y1762525D01*
X2608826Y1778423D01*
X2616583Y1779966D01*
X2630640Y1789359D01*
X2640034Y1803417D01*
X2643332Y1820000D01*
X2640034Y1836583D01*
X2630640Y1850640D01*
X2616583Y1860034D01*
X2600000Y1863332D01*
X2586573Y1860662D01*
X2573894Y1869266D01*
X2573137Y1870000D01*
X2570614Y1882681D01*
X2570315Y1883128D01*
X2564235Y1895000D01*
X2570315Y1906872D01*
X2570614Y1907319D01*
X2573137Y1920000D01*
X2570614Y1932681D01*
X2570315Y1933128D01*
X2564235Y1945000D01*
X2570315Y1956872D01*
X2570614Y1957319D01*
X2573137Y1970000D01*
X2570614Y1982681D01*
X2563431Y1993431D01*
Y1996569D01*
X2570614Y2007319D01*
X2571169Y2010109D01*
X2582799Y2019468D01*
X2587114Y2019231D01*
X2600000Y2016668D01*
X2616583Y2019966D01*
X2620818Y2022796D01*
X2635530Y2019870D01*
X2637268Y2017268D01*
X2652286Y2007234D01*
X2670000Y2003710D01*
X2677300D01*
Y2070000D01*
X2702700D01*
Y2003710D01*
X2710000D01*
X2714412Y2004588D01*
X2729412Y1992278D01*
Y1742167D01*
X2678498Y1691253D01*
X2676201Y1690423D01*
X2665013Y1680220D01*
X2660118Y1676384D01*
X2655045Y1672832D01*
X2649997Y1669710D01*
X2644979Y1667006D01*
X2639989Y1664708D01*
X2635010Y1662798D01*
X2630032Y1661261D01*
X2624311Y1659915D01*
X2621705Y1658041D01*
X2621344Y1657969D01*
X2609766Y1650233D01*
X2609020Y1649117D01*
X2590980D01*
X2590234Y1650233D01*
X2578656Y1657969D01*
X2565000Y1660686D01*
X2535000D01*
X2521344Y1657969D01*
X2509766Y1650233D01*
X2504272Y1642011D01*
X2500963Y1641757D01*
X2492007Y1641963D01*
X2491413Y1642009D01*
X2489616Y1641420D01*
X2480000Y1643333D01*
X2463417Y1640034D01*
X2449360Y1630641D01*
X2439966Y1616583D01*
X2436668Y1600000D01*
X2439966Y1583417D01*
X2448932Y1570000D01*
X2439966Y1556583D01*
X2436668Y1540000D01*
X2439966Y1523417D01*
X2449360Y1509359D01*
X2463417Y1499966D01*
X2480000Y1496668D01*
X2484314Y1497526D01*
X2498159Y1495194D01*
X2500964Y1486708D01*
X2502031Y1481344D01*
X2509766Y1469766D01*
X2521344Y1462031D01*
X2535000Y1459314D01*
X2553716D01*
X2554001Y1459121D01*
X2560918Y1448847D01*
X2561961Y1444816D01*
Y1379480D01*
X2561082Y1378009D01*
X2561422Y1376658D01*
X2560858Y1375384D01*
X2560778Y1372082D01*
X2560599Y1369842D01*
X2560359Y1368212D01*
X2560299Y1367950D01*
X2549359Y1360640D01*
X2539966Y1346583D01*
X2536668Y1330000D01*
X2539966Y1313417D01*
X2549359Y1299359D01*
X2563417Y1289966D01*
X2580000Y1286667D01*
X2596583Y1289966D01*
X2604196Y1295053D01*
X2615000Y1298121D01*
X2625804Y1295053D01*
X2633417Y1289966D01*
X2650000Y1286667D01*
X2666583Y1289966D01*
X2678105Y1297665D01*
X2680641Y1299359D01*
X2692791Y1290811D01*
X2689966Y1286583D01*
X2686667Y1270000D01*
X2689966Y1253417D01*
X2699359Y1239359D01*
X2713417Y1229966D01*
X2714949Y1229661D01*
X2720755Y1213212D01*
X2719096Y1210730D01*
X2716962Y1200000D01*
X2719096Y1189270D01*
X2725174Y1180174D01*
X2734270Y1174096D01*
X2745000Y1171961D01*
X2814999D01*
X2825729Y1174096D01*
X2834825Y1180174D01*
X2840903Y1189270D01*
X2843037Y1200000D01*
X2840903Y1210730D01*
X2834825Y1219826D01*
X2825729Y1225904D01*
X2814999Y1228038D01*
X2769743D01*
X2767705Y1230574D01*
X2763099Y1243038D01*
X2770034Y1253417D01*
X2773332Y1270000D01*
X2770034Y1286583D01*
X2760640Y1300641D01*
X2746583Y1310034D01*
X2730000Y1313332D01*
X2713417Y1310034D01*
X2701895Y1302334D01*
X2699359Y1300641D01*
X2687209Y1309189D01*
X2690034Y1313417D01*
X2693332Y1330000D01*
X2690034Y1346583D01*
X2682646Y1357639D01*
X2681394Y1361010D01*
X2680689Y1361770D01*
X2680571Y1361974D01*
X2680325Y1362522D01*
X2680004Y1363444D01*
X2679661Y1364755D01*
X2679396Y1366164D01*
X2688882Y1376463D01*
X2691535Y1377836D01*
X2692435Y1378088D01*
X2692730Y1378114D01*
X2700000Y1376668D01*
X2716583Y1379966D01*
X2730640Y1389359D01*
X2740034Y1403417D01*
X2742470Y1415666D01*
X2744120Y1419147D01*
X2744174Y1420238D01*
X2744176Y1420248D01*
X2744259Y1420548D01*
X2744494Y1421157D01*
X2744941Y1422069D01*
X2745647Y1423266D01*
X2746472Y1424468D01*
X2749774Y1428468D01*
X2751850Y1430636D01*
X2752844Y1433191D01*
X2757139Y1437486D01*
X2763217Y1446583D01*
X2765351Y1457312D01*
Y1459384D01*
X2778656Y1462031D01*
X2790234Y1469766D01*
X2797969Y1481344D01*
X2800686Y1495000D01*
Y1525000D01*
X2797969Y1538656D01*
X2790234Y1550234D01*
X2789117Y1550980D01*
Y1569020D01*
X2790234Y1569766D01*
X2797969Y1581344D01*
X2800686Y1595000D01*
Y1625000D01*
X2797969Y1638656D01*
X2790234Y1650233D01*
X2789340Y1660521D01*
X2790827Y1667423D01*
X2790948Y1667691D01*
X2821628Y1698371D01*
X2821629Y1698371D01*
X2828259Y1708295D01*
X2830588Y1720000D01*
X2830588Y1720001D01*
Y2290000D01*
X2828259Y2301706D01*
X2821629Y2311629D01*
X2701629Y2431629D01*
X2691706Y2438259D01*
X2680000Y2440588D01*
X2679999Y2440588D01*
X2550000D01*
X2538294Y2438259D01*
X2528371Y2431629D01*
X2528371Y2431628D01*
X2418371Y2321629D01*
X2412154Y2312325D01*
X2402955Y2300953D01*
X2395277Y2302087D01*
X2390000Y2303137D01*
X2377320Y2300614D01*
X2376872Y2300315D01*
X2365000Y2294235D01*
X2353129Y2300315D01*
X2352681Y2300614D01*
X2340000Y2303137D01*
X2327319Y2300614D01*
X2326872Y2300315D01*
X2315000Y2294235D01*
X2303128Y2300315D01*
X2302681Y2300614D01*
X2290878Y2302962D01*
X2293012Y2313689D01*
X2289713Y2330272D01*
X2280320Y2344330D01*
X2266262Y2353723D01*
X2249679Y2357022D01*
X2244189Y2355930D01*
X2236707Y2369735D01*
X2243056Y2379237D01*
X2246191Y2395000D01*
Y2397300D01*
X2219996D01*
X2219861Y2397153D01*
X2219678Y2396486D01*
Y2397300D01*
X2190000D01*
Y2422700D01*
X2219678D01*
Y2423509D01*
X2219861Y2422842D01*
X2219992Y2422700D01*
X2236527D01*
X2238463Y2424702D01*
X2243020Y2430035D01*
X2244718Y2432406D01*
X2243056Y2440763D01*
X2234127Y2454127D01*
X2223757Y2461056D01*
X2226443Y2476056D01*
X2956055D01*
Y1104409D01*
D02*
G37*
G36*
X1934658Y1672651D02*
X1933680Y1671065D01*
X1932817Y1669172D01*
X1932070Y1666973D01*
X1931437Y1664467D01*
X1930920Y1661655D01*
X1930517Y1658537D01*
X1930057Y1651382D01*
X1930000Y1647344D01*
X1910000D01*
X1909943Y1651382D01*
X1909080Y1661655D01*
X1908563Y1664467D01*
X1907930Y1666973D01*
X1907183Y1669172D01*
X1906320Y1671065D01*
X1905342Y1672651D01*
X1904250Y1673932D01*
X1935750D01*
X1934658Y1672651D01*
D02*
G37*
G36*
X1897071Y1682929D02*
X1890225Y1675803D01*
X1879938Y1663278D01*
X1876497Y1657878D01*
X1874190Y1653053D01*
X1873018Y1648803D01*
X1872981Y1645129D01*
X1874079Y1642030D01*
X1876311Y1639505D01*
X1879678Y1637557D01*
X1829266Y1658843D01*
X1833183Y1659826D01*
X1837226Y1661246D01*
X1841395Y1663100D01*
X1845692Y1665390D01*
X1850114Y1668115D01*
X1854663Y1671275D01*
X1864141Y1678901D01*
X1869070Y1683366D01*
X1874125Y1688267D01*
X1897071Y1682929D01*
D02*
G37*
G36*
X2760126Y1663807D02*
X2761113Y1653374D01*
X2761977Y1649136D01*
X2763088Y1645549D01*
X2764446Y1642615D01*
X2766051Y1640332D01*
X2767903Y1638702D01*
X2770002Y1637724D01*
X2772348Y1637398D01*
X2727657Y1637400D01*
X2730002Y1637726D01*
X2732101Y1638704D01*
X2733953Y1640334D01*
X2735558Y1642616D01*
X2736916Y1645550D01*
X2738027Y1649137D01*
X2738891Y1653375D01*
X2739508Y1658265D01*
X2739879Y1663808D01*
X2740002Y1670002D01*
X2760002D01*
X2760126Y1663807D01*
D02*
G37*
G36*
X2520801Y1620007D02*
X2522656Y1620000D01*
X2525000Y1600000D01*
X2520923Y1599930D01*
X2520801Y1599920D01*
Y1592620D01*
X2520561Y1594022D01*
X2519840Y1595276D01*
X2518638Y1596383D01*
X2516955Y1597343D01*
X2514792Y1598155D01*
X2512148Y1598819D01*
X2511364Y1598948D01*
X2510982Y1598885D01*
X2508430Y1598258D01*
X2506260Y1597491D01*
X2504471Y1596586D01*
X2503064Y1595540D01*
X2502038Y1594356D01*
X2501394Y1593032D01*
X2498333Y1599946D01*
X2496765Y1600000D01*
Y1603489D01*
X2489223Y1620523D01*
X2489767Y1620423D01*
X2490933Y1620335D01*
X2501543Y1620090D01*
X2509023Y1620664D01*
X2512148Y1621180D01*
X2514792Y1621845D01*
X2516955Y1622656D01*
X2518638Y1623616D01*
X2519840Y1624723D01*
X2520561Y1625977D01*
X2520801Y1627380D01*
Y1620007D01*
D02*
G37*
G36*
X2705739Y1661094D02*
X2697699Y1652774D01*
X2685241Y1638078D01*
X2680824Y1631702D01*
X2677614Y1625974D01*
X2675611Y1620894D01*
X2674817Y1616462D01*
X2675230Y1612678D01*
X2676850Y1609542D01*
X2679678Y1607054D01*
X2629266Y1638842D01*
X2635709Y1640357D01*
X2642087Y1642326D01*
X2648401Y1644750D01*
X2654651Y1647627D01*
X2660835Y1650959D01*
X2666955Y1654744D01*
X2673010Y1658984D01*
X2679001Y1663678D01*
X2690789Y1674428D01*
X2705739Y1661094D01*
D02*
G37*
G36*
X1722592Y1537524D02*
X1723713Y1537500D01*
Y1522500D01*
X1722592Y1522475D01*
X1722592Y1507669D01*
X1722266Y1510487D01*
X1721289Y1513008D01*
X1719660Y1515233D01*
X1717380Y1517161D01*
X1714448Y1518792D01*
X1710865Y1520127D01*
X1708278Y1520761D01*
X1707022Y1520437D01*
X1704373Y1519530D01*
X1701952Y1518457D01*
X1699761Y1517220D01*
X1697800Y1515817D01*
X1696068Y1514250D01*
Y1522355D01*
X1690018Y1522500D01*
Y1537500D01*
X1696068Y1537645D01*
Y1545750D01*
X1697800Y1544182D01*
X1699762Y1542780D01*
X1701953Y1541542D01*
X1704373Y1540470D01*
X1707023Y1539562D01*
X1708278Y1539238D01*
X1710865Y1539873D01*
X1714448Y1541207D01*
X1717380Y1542839D01*
X1719660Y1544767D01*
X1721288Y1546991D01*
X1722266Y1549513D01*
X1722591Y1552330D01*
X1722592Y1537524D01*
D02*
G37*
G36*
X1822592Y1507669D02*
X1822266Y1510487D01*
X1821289Y1513008D01*
X1819660Y1515232D01*
X1817380Y1517161D01*
X1814448Y1518792D01*
X1810865Y1520126D01*
X1806630Y1521165D01*
X1801744Y1521906D01*
X1800000Y1522046D01*
X1798257Y1521906D01*
X1793371Y1521165D01*
X1789136Y1520126D01*
X1785553Y1518792D01*
X1782621Y1517161D01*
X1780341Y1515232D01*
X1778712Y1513008D01*
X1777735Y1510487D01*
X1777409Y1507669D01*
X1777410Y1552330D01*
X1777736Y1549512D01*
X1778713Y1546991D01*
X1780341Y1544767D01*
X1782622Y1542838D01*
X1785553Y1541207D01*
X1789136Y1539872D01*
X1793371Y1538834D01*
X1798257Y1538093D01*
X1800000Y1537952D01*
X1801744Y1538093D01*
X1806630Y1538834D01*
X1810864Y1539872D01*
X1814447Y1541207D01*
X1817379Y1542838D01*
X1819659Y1544767D01*
X1821288Y1546991D01*
X1822265Y1549512D01*
X1822591Y1552330D01*
X1822592Y1507669D01*
D02*
G37*
G36*
X2745100Y1480322D02*
X2745047Y1480219D01*
X2745000Y1479901D01*
X2744958Y1479369D01*
X2744833Y1473496D01*
X2744822Y1469647D01*
X2729822D01*
X2729604Y1481401D01*
X2745100Y1480322D01*
D02*
G37*
G36*
X2578872Y1500398D02*
X2578592Y1498860D01*
X2578838Y1497009D01*
X2579611Y1494846D01*
X2580910Y1492370D01*
X2582736Y1489582D01*
X2585088Y1486481D01*
X2591371Y1479342D01*
X2595302Y1475304D01*
X2584696Y1464698D01*
X2580658Y1468629D01*
X2570418Y1477264D01*
X2567630Y1479090D01*
X2565154Y1480389D01*
X2562991Y1481162D01*
X2561140Y1481408D01*
X2559602Y1481128D01*
X2558376Y1480322D01*
X2579678Y1501624D01*
X2578872Y1500398D01*
D02*
G37*
G36*
X2669515Y1482267D02*
X2666994Y1481289D01*
X2664769Y1479660D01*
X2662841Y1477380D01*
X2661210Y1474448D01*
X2659875Y1470865D01*
X2658837Y1466630D01*
X2658096Y1461744D01*
X2657651Y1456206D01*
X2657502Y1450017D01*
X2642502D01*
X2642354Y1456206D01*
X2641909Y1461744D01*
X2641168Y1466630D01*
X2640129Y1470864D01*
X2638795Y1474447D01*
X2637163Y1477379D01*
X2635235Y1479658D01*
X2633011Y1481287D01*
X2630490Y1482264D01*
X2627672Y1482590D01*
X2672333Y1482593D01*
X2669515Y1482267D01*
D02*
G37*
G36*
X2313506Y1428458D02*
X2312743Y1428538D01*
X2311819Y1428370D01*
X2310735Y1427952D01*
X2309490Y1427284D01*
X2308084Y1426367D01*
X2306518Y1425200D01*
X2302902Y1422118D01*
X2300903Y1420203D01*
X2300921Y1419301D01*
X2301562Y1411741D01*
X2302122Y1408220D01*
X2302842Y1404873D01*
X2303722Y1401698D01*
X2304762Y1398697D01*
X2305962Y1395870D01*
X2307322Y1393215D01*
X2308842Y1390734D01*
X2275822Y1399678D01*
X2277726Y1399426D01*
X2279429Y1399756D01*
X2280932Y1400668D01*
X2282234Y1402161D01*
X2283337Y1404237D01*
X2284238Y1406894D01*
X2284940Y1410133D01*
X2285441Y1413954D01*
X2285741Y1418357D01*
X2285842Y1423341D01*
X2293341D01*
X2288038Y1428645D01*
X2290203Y1430854D01*
X2296367Y1438084D01*
X2297284Y1439490D01*
X2297952Y1440735D01*
X2298370Y1441819D01*
X2298538Y1442743D01*
X2298458Y1443506D01*
X2313506Y1428458D01*
D02*
G37*
G36*
X2736213Y1445606D02*
X2733587Y1442863D01*
X2729170Y1437514D01*
X2727380Y1434907D01*
X2725870Y1432346D01*
X2724638Y1429831D01*
X2723684Y1427361D01*
X2723010Y1424937D01*
X2722615Y1422558D01*
X2722499Y1420225D01*
X2700225Y1442499D01*
X2702558Y1442615D01*
X2704937Y1443010D01*
X2707361Y1443684D01*
X2709831Y1444638D01*
X2712346Y1445870D01*
X2714907Y1447380D01*
X2717514Y1449170D01*
X2720166Y1451239D01*
X2722863Y1453587D01*
X2725606Y1456213D01*
X2736213Y1445606D01*
D02*
G37*
G36*
X2394183Y1432200D02*
X2392780Y1430238D01*
X2391543Y1428047D01*
X2390470Y1425627D01*
X2389563Y1422977D01*
X2388820Y1420098D01*
X2388266Y1417116D01*
X2388835Y1413370D01*
X2389873Y1409135D01*
X2391208Y1405552D01*
X2392839Y1402621D01*
X2394767Y1400340D01*
X2396992Y1398712D01*
X2399513Y1397734D01*
X2402331Y1397409D01*
X2357669D01*
X2360487Y1397734D01*
X2363008Y1398712D01*
X2365233Y1400340D01*
X2367161Y1402621D01*
X2368792Y1405552D01*
X2370127Y1409135D01*
X2371165Y1413370D01*
X2371734Y1417116D01*
X2371180Y1420098D01*
X2370437Y1422977D01*
X2369530Y1425627D01*
X2368458Y1428047D01*
X2367220Y1430238D01*
X2365817Y1432200D01*
X2364250Y1433932D01*
X2395750D01*
X2394183Y1432200D01*
D02*
G37*
G36*
X2657275Y1370018D02*
X2657942Y1363115D01*
X2658526Y1360012D01*
X2659276Y1357142D01*
X2660193Y1354505D01*
X2661277Y1352100D01*
X2662527Y1349928D01*
X2663945Y1347989D01*
X2665529Y1346282D01*
X2634032Y1345851D01*
X2635582Y1347608D01*
X2636969Y1349592D01*
X2638193Y1351801D01*
X2639254Y1354237D01*
X2640152Y1356899D01*
X2640886Y1359787D01*
X2641458Y1362902D01*
X2641865Y1366242D01*
X2642110Y1369809D01*
X2642192Y1373602D01*
X2657192Y1373819D01*
X2657275Y1370018D01*
D02*
G37*
G36*
X1807230Y1363088D02*
X1804415Y1360193D01*
X1797761Y1352319D01*
X1796139Y1349965D01*
X1794814Y1347745D01*
X1793788Y1345662D01*
X1793059Y1343713D01*
X1792628Y1341900D01*
X1792495Y1340222D01*
X1770222Y1362496D01*
X1771899Y1362629D01*
X1773712Y1363060D01*
X1775661Y1363788D01*
X1777744Y1364815D01*
X1779964Y1366140D01*
X1782318Y1367762D01*
X1784807Y1369682D01*
X1790192Y1374416D01*
X1793087Y1377230D01*
X1807230Y1363088D01*
D02*
G37*
G36*
X2597500Y1372655D02*
X2597530Y1367514D01*
X2598981Y1345057D01*
X2599434Y1342713D01*
X2599949Y1340768D01*
X2600523Y1339223D01*
X2573032Y1351394D01*
X2574831Y1352183D01*
X2576441Y1353319D01*
X2577861Y1354801D01*
X2579092Y1356628D01*
X2580133Y1358802D01*
X2580985Y1361322D01*
X2581648Y1364188D01*
X2582121Y1367399D01*
X2582405Y1370957D01*
X2582500Y1374860D01*
X2597500Y1372655D01*
D02*
G37*
G36*
X1776450Y1318443D02*
X1775250Y1317977D01*
X1773858Y1317242D01*
X1772273Y1316238D01*
X1770496Y1314963D01*
X1766365Y1311605D01*
X1762091Y1307736D01*
X1760204Y1305782D01*
X1747743Y1291083D01*
X1743205Y1284586D01*
X1739796Y1278659D01*
X1737515Y1273300D01*
X1736363Y1268511D01*
X1736339Y1264291D01*
X1737445Y1260639D01*
X1739678Y1257557D01*
X1697557Y1299678D01*
X1700639Y1297444D01*
X1704291Y1296339D01*
X1708511Y1296363D01*
X1713300Y1297515D01*
X1718659Y1299796D01*
X1724586Y1303205D01*
X1731083Y1307743D01*
X1738148Y1313409D01*
X1743002Y1317920D01*
X1743655Y1318686D01*
X1745427Y1321148D01*
X1746848Y1323457D01*
X1747920Y1325614D01*
X1748642Y1327617D01*
X1749014Y1329469D01*
X1749036Y1331167D01*
X1748708Y1332713D01*
X1776450Y1318443D01*
D02*
G37*
G36*
X296893Y1205132D02*
X298093Y1204580D01*
X299669Y1204092D01*
X301620Y1203670D01*
X303946Y1203312D01*
X309725Y1202792D01*
X317005Y1202532D01*
X321208Y1202500D01*
Y1177500D01*
X317005Y1177468D01*
X301620Y1176330D01*
X299669Y1175907D01*
X298093Y1175420D01*
X296893Y1174867D01*
X296068Y1174250D01*
Y1205750D01*
X296893Y1205132D01*
D02*
G37*
G36*
X676303Y1198551D02*
X687011Y1192521D01*
X692151Y1190071D01*
X702001Y1186302D01*
X706711Y1184983D01*
X709802Y1184345D01*
X715905Y1184839D01*
X720305Y1185711D01*
X723905Y1186778D01*
X726705Y1188039D01*
X728705Y1189493D01*
X729905Y1191142D01*
X730305Y1192984D01*
X730610Y1143287D01*
X730184Y1147087D01*
X728958Y1150487D01*
X726931Y1153487D01*
X724102Y1156087D01*
X720472Y1158287D01*
X716041Y1160087D01*
X710809Y1161487D01*
X708255Y1161910D01*
X706708Y1161591D01*
X701998Y1160273D01*
X697144Y1158577D01*
X692148Y1156504D01*
X681727Y1151229D01*
X676302Y1148026D01*
X670734Y1144447D01*
Y1202132D01*
X676303Y1198551D01*
D02*
G37*
G36*
X2038022Y1119553D02*
X2036290Y1121121D01*
X2034328Y1122523D01*
X2032137Y1123761D01*
X2029717Y1124833D01*
X2027067Y1125741D01*
X2024188Y1126483D01*
X2021079Y1127061D01*
X2017741Y1127473D01*
X2014174Y1127721D01*
X2010377Y1127803D01*
Y1142803D01*
X2014174Y1142886D01*
X2021079Y1143546D01*
X2024188Y1144123D01*
X2027067Y1144866D01*
X2029717Y1145773D01*
X2032137Y1146846D01*
X2034328Y1148083D01*
X2036290Y1149486D01*
X2038022Y1151053D01*
Y1119553D01*
D02*
G37*
G36*
X1611911Y1143799D02*
X1611999Y1141522D01*
X1612407Y1139183D01*
X1613136Y1136780D01*
X1614186Y1134314D01*
X1615556Y1131786D01*
X1617246Y1129194D01*
X1619257Y1126540D01*
X1621588Y1123822D01*
X1624240Y1121041D01*
X1611716Y1112352D01*
X1609022Y1114948D01*
X1603746Y1119437D01*
X1601164Y1121331D01*
X1598619Y1122991D01*
X1596112Y1124417D01*
X1593642Y1125609D01*
X1591210Y1126567D01*
X1588814Y1127291D01*
X1586457Y1127781D01*
X1612144Y1146013D01*
X1611911Y1143799D01*
D02*
G37*
G36*
X1690002Y1138283D02*
X1690134Y1131819D01*
X1691189Y1119917D01*
X1692112Y1114478D01*
X1693300Y1109382D01*
X1694751Y1104627D01*
X1696466Y1100214D01*
X1698445Y1096144D01*
X1700687Y1092415D01*
X1703194Y1089028D01*
X1656807Y1089029D01*
X1659314Y1092416D01*
X1661558Y1096145D01*
X1663536Y1100216D01*
X1665252Y1104629D01*
X1666703Y1109383D01*
X1667891Y1114480D01*
X1668814Y1119918D01*
X1669474Y1125699D01*
X1670002Y1138284D01*
X1690002Y1138283D01*
D02*
G37*
G36*
X1550157Y1047500D02*
X1546703Y1050350D01*
X1543146Y1052900D01*
X1539485Y1055150D01*
X1535720Y1057100D01*
X1531852Y1058750D01*
X1527879Y1060100D01*
X1526115Y1060555D01*
X1525789Y1060473D01*
X1523120Y1059580D01*
X1520676Y1058526D01*
X1518457Y1057309D01*
X1516462Y1055930D01*
X1514691Y1054389D01*
X1514859Y1062367D01*
X1510953Y1062500D01*
X1510953Y1077501D01*
X1515179Y1077645D01*
X1515352Y1085882D01*
X1517045Y1084289D01*
X1518972Y1082864D01*
X1521134Y1081607D01*
X1523530Y1080518D01*
X1526161Y1079596D01*
X1526426Y1079526D01*
X1527880Y1079900D01*
X1531852Y1081250D01*
X1535721Y1082900D01*
X1539485Y1084850D01*
X1543147Y1087100D01*
X1546704Y1089650D01*
X1550157Y1092500D01*
X1550157Y1047500D01*
D02*
G37*
G36*
X2277055Y1106451D02*
X2274059Y1103242D01*
X2271348Y1099895D01*
X2268923Y1096410D01*
X2266783Y1092785D01*
X2264929Y1089021D01*
X2263360Y1085119D01*
X2262078Y1081078D01*
X2261080Y1076899D01*
X2260368Y1072580D01*
X2259941Y1068123D01*
X2228120Y1099941D01*
X2232577Y1100368D01*
X2236896Y1101080D01*
X2241075Y1102078D01*
X2245116Y1103362D01*
X2249019Y1104931D01*
X2252782Y1106785D01*
X2256407Y1108925D01*
X2259893Y1111350D01*
X2263240Y1114061D01*
X2266448Y1117057D01*
X2277055Y1106451D01*
D02*
G37*
G36*
X2428413Y1059872D02*
X2430166Y1061239D01*
X2432863Y1063587D01*
X2435607Y1066213D01*
X2446213Y1055606D01*
X2443587Y1052863D01*
X2439894Y1048391D01*
X2448233Y1040052D01*
X2444916Y1040075D01*
X2441605Y1039751D01*
X2438299Y1039081D01*
X2434998Y1038065D01*
X2433758Y1037553D01*
X2433684Y1037361D01*
X2433010Y1034937D01*
X2432615Y1032558D01*
X2432499Y1030225D01*
X2427992Y1034731D01*
X2425127Y1032939D01*
X2421848Y1030538D01*
X2418573Y1027790D01*
X2415303Y1024697D01*
X2404697Y1035303D01*
X2407790Y1038573D01*
X2410538Y1041848D01*
X2412939Y1045127D01*
X2414732Y1047992D01*
X2410225Y1052499D01*
X2412558Y1052615D01*
X2414937Y1053010D01*
X2417361Y1053684D01*
X2417553Y1053758D01*
X2418066Y1054999D01*
X2419082Y1058299D01*
X2419752Y1061605D01*
X2420075Y1064916D01*
X2420052Y1068233D01*
X2428413Y1059872D01*
D02*
G37*
G36*
X975000Y1010017D02*
X976030Y1009689D01*
X975649Y1009396D01*
X973857Y1009137D01*
X970655Y1008912D01*
X954983Y1008658D01*
Y1008291D01*
X950702Y1008103D01*
X946278Y1007537D01*
X941711Y1006595D01*
X937001Y1005276D01*
X932147Y1003580D01*
X927151Y1001507D01*
X916729Y996231D01*
X911303Y993027D01*
X905734Y989447D01*
Y1047132D01*
X911302Y1043552D01*
X922009Y1037523D01*
X927148Y1035074D01*
X936998Y1031306D01*
X941708Y1029987D01*
X942280Y1029869D01*
X943794Y1030091D01*
X949494Y1031491D01*
X954081Y1033291D01*
X957555Y1035491D01*
X959916Y1038091D01*
X961164Y1041091D01*
X961300Y1044491D01*
X960322Y1048291D01*
X975000Y1010017D01*
D02*
G37*
G36*
X675263Y1046987D02*
X669233Y1036280D01*
X666784Y1031141D01*
X663016Y1021291D01*
X661697Y1016581D01*
X660755Y1012013D01*
X660190Y1007588D01*
X660001Y1003307D01*
X640001D01*
X639813Y1007588D01*
X639247Y1012012D01*
X638305Y1016579D01*
X636986Y1021289D01*
X635290Y1026143D01*
X633217Y1031139D01*
X627941Y1041561D01*
X624738Y1046987D01*
X621158Y1052556D01*
X678842D01*
X675263Y1046987D01*
D02*
G37*
G36*
X2057056Y996449D02*
X2054060Y993241D01*
X2051349Y989894D01*
X2050049Y988025D01*
X2055169Y982830D01*
X2052839Y982730D01*
X2050464Y982348D01*
X2048041Y981686D01*
X2045827Y980840D01*
X2044930Y979020D01*
X2043361Y975117D01*
X2042078Y971077D01*
X2041080Y966897D01*
X2040368Y962578D01*
X2039941Y958121D01*
X2008121Y989941D01*
X2012579Y990368D01*
X2016897Y991080D01*
X2021077Y992078D01*
X2025118Y993361D01*
X2029020Y994930D01*
X2030958Y995884D01*
X2031829Y998120D01*
X2032515Y1000546D01*
X2032924Y1002927D01*
X2033056Y1005264D01*
X2038127Y1000119D01*
X2039894Y1001349D01*
X2043241Y1004059D01*
X2046450Y1007056D01*
X2057056Y996449D01*
D02*
G37*
G36*
X2580686Y1047584D02*
X2578444Y1043855D01*
X2576465Y1039784D01*
X2574749Y1035372D01*
X2573298Y1030617D01*
X2572111Y1025520D01*
X2571187Y1020082D01*
X2570680Y1015637D01*
X2571187Y1009918D01*
X2572111Y1004479D01*
X2573298Y999383D01*
X2574749Y994628D01*
X2576465Y990215D01*
X2578444Y986145D01*
X2580686Y982415D01*
X2583193Y979028D01*
X2536807D01*
X2539314Y982415D01*
X2541557Y986144D01*
X2543535Y990215D01*
X2545250Y994628D01*
X2546702Y999383D01*
X2547889Y1004479D01*
X2548813Y1009917D01*
X2549320Y1014363D01*
X2548813Y1020082D01*
X2547889Y1025521D01*
X2546702Y1030617D01*
X2545250Y1035372D01*
X2543535Y1039785D01*
X2541557Y1043855D01*
X2539314Y1047584D01*
X2536807Y1050971D01*
X2583193D01*
X2580686Y1047584D01*
D02*
G37*
G36*
X1522474Y992482D02*
X1522826Y992330D01*
X1523397Y992197D01*
X1524189Y992081D01*
X1526432Y991903D01*
X1531448Y991769D01*
X1533561Y991760D01*
Y984260D01*
X1538864Y989563D01*
X1540603Y987870D01*
X1545035Y984128D01*
X1546249Y983327D01*
X1547332Y982749D01*
X1548284Y982395D01*
X1549105Y982263D01*
X1549794Y982355D01*
X1550352Y982671D01*
X1540260Y963941D01*
X1540204Y964570D01*
X1539893Y965393D01*
X1539328Y966410D01*
X1538509Y967620D01*
X1537436Y969025D01*
X1534527Y972416D01*
X1530380Y976742D01*
X1518127Y976671D01*
X1522343Y992651D01*
X1522474Y992482D01*
D02*
G37*
G36*
X1947057Y996448D02*
X1944061Y993239D01*
X1941350Y989892D01*
X1938925Y986406D01*
X1936785Y982782D01*
X1934931Y979018D01*
X1933362Y975116D01*
X1932079Y971075D01*
X1931081Y966895D01*
X1930368Y962577D01*
X1929941Y958119D01*
X1898123Y989941D01*
X1902581Y990368D01*
X1906899Y991080D01*
X1911079Y992077D01*
X1915120Y993360D01*
X1919022Y994929D01*
X1922785Y996783D01*
X1926410Y998923D01*
X1929896Y1001348D01*
X1933243Y1004058D01*
X1936452Y1007055D01*
X1947057Y996448D01*
D02*
G37*
G36*
X1756757Y1004058D02*
X1760104Y1001348D01*
X1763590Y998923D01*
X1767215Y996783D01*
X1770978Y994929D01*
X1774881Y993360D01*
X1778922Y992077D01*
X1783101Y991080D01*
X1787420Y990368D01*
X1791877Y989941D01*
X1760059Y958119D01*
X1759632Y962576D01*
X1758920Y966895D01*
X1757922Y971075D01*
X1756638Y975116D01*
X1755069Y979018D01*
X1753215Y982782D01*
X1751075Y986406D01*
X1748650Y989892D01*
X1745939Y993239D01*
X1742943Y996447D01*
X1753549Y1007055D01*
X1756757Y1004058D01*
D02*
G37*
G36*
X2497058Y996447D02*
X2494062Y993238D01*
X2491351Y989891D01*
X2488926Y986405D01*
X2486786Y982781D01*
X2484932Y979017D01*
X2483363Y975115D01*
X2482079Y971074D01*
X2481081Y966894D01*
X2480368Y962576D01*
X2479941Y958118D01*
X2448125Y989941D01*
X2452582Y990367D01*
X2456900Y991079D01*
X2461080Y992077D01*
X2465121Y993360D01*
X2469023Y994928D01*
X2472786Y996782D01*
X2476411Y998922D01*
X2479897Y1001347D01*
X2483244Y1004058D01*
X2486452Y1007054D01*
X2497058Y996447D01*
D02*
G37*
G36*
X1243932Y954250D02*
X1242200Y955817D01*
X1240238Y957220D01*
X1238047Y958458D01*
X1235627Y959530D01*
X1232977Y960437D01*
X1230098Y961180D01*
X1226989Y961758D01*
X1223651Y962170D01*
X1220084Y962418D01*
X1216287Y962500D01*
Y977500D01*
X1220084Y977582D01*
X1226989Y978243D01*
X1230098Y978820D01*
X1232977Y979563D01*
X1235627Y980470D01*
X1238047Y981543D01*
X1240238Y982780D01*
X1242200Y984183D01*
X1243932Y985750D01*
Y954250D01*
D02*
G37*
G36*
X1681195Y945586D02*
X1678544Y942808D01*
X1676212Y940091D01*
X1674198Y937436D01*
X1672501Y934842D01*
X1671880Y933700D01*
X1676284Y930231D01*
X1674371Y930302D01*
X1672346Y930053D01*
X1670210Y929483D01*
X1669918Y929368D01*
X1669321Y927431D01*
X1668897Y925085D01*
X1668792Y922799D01*
X1669004Y920576D01*
X1662428Y925347D01*
X1660545Y923997D01*
X1657850Y921823D01*
X1652123Y916515D01*
X1641516Y927121D01*
X1644080Y929804D01*
X1648193Y934867D01*
X1648550Y935416D01*
X1643508Y939075D01*
X1645867Y939541D01*
X1648264Y940245D01*
X1650699Y941185D01*
X1651828Y941723D01*
X1652358Y943786D01*
X1652553Y945764D01*
X1652410Y947641D01*
X1651929Y949417D01*
X1657551Y944988D01*
X1658228Y945427D01*
X1660813Y947314D01*
X1666095Y951799D01*
X1668792Y954397D01*
X1681195Y945586D01*
D02*
G37*
G36*
X660201Y985018D02*
X660799Y977703D01*
X661796Y971326D01*
X663191Y965888D01*
X664986Y961389D01*
X667179Y957828D01*
X669771Y955206D01*
X672762Y953523D01*
X676152Y952779D01*
X679940Y952973D01*
X626157Y944023D01*
X628788Y948244D01*
X631141Y952622D01*
X633217Y957156D01*
X635017Y961847D01*
X636539Y966694D01*
X637785Y971697D01*
X638754Y976856D01*
X639446Y982172D01*
X639862Y987644D01*
X640000Y993272D01*
X660001D01*
X660201Y985018D01*
D02*
G37*
G36*
X1017735Y959512D02*
X1018712Y956991D01*
X1020341Y954766D01*
X1022621Y952838D01*
X1025553Y951207D01*
X1029136Y949872D01*
X1033370Y948834D01*
X1038256Y948092D01*
X1043794Y947647D01*
X1049983Y947499D01*
Y932499D01*
X1043794Y932351D01*
X1038256Y931906D01*
X1033370Y931165D01*
X1029135Y930126D01*
X1025552Y928791D01*
X1022621Y927160D01*
X1020340Y925232D01*
X1018711Y923008D01*
X1017734Y920486D01*
X1017408Y917668D01*
X1017410Y962330D01*
X1017735Y959512D01*
D02*
G37*
G36*
X2561504Y930038D02*
X2556853Y929590D01*
X2552218Y928716D01*
X2547598Y927415D01*
X2542994Y925687D01*
X2538405Y923532D01*
X2533832Y920949D01*
X2531564Y919452D01*
X2531329Y919059D01*
X2530303Y916975D01*
X2529574Y915027D01*
X2529143Y913214D01*
X2529010Y911536D01*
X2525478Y915068D01*
X2524732Y914505D01*
X2520206Y910642D01*
X2515695Y906352D01*
X2503263Y922205D01*
X2507930Y927023D01*
X2510530Y930015D01*
X2506736Y933809D01*
X2508414Y933942D01*
X2510227Y934373D01*
X2512176Y935102D01*
X2514259Y936128D01*
X2516479Y937453D01*
X2517287Y938010D01*
X2519317Y940680D01*
X2524729Y949120D01*
X2526782Y953140D01*
X2528399Y957028D01*
X2529580Y960782D01*
X2530325Y964403D01*
X2561504Y930038D01*
D02*
G37*
G36*
X1392615Y937442D02*
X1393010Y935063D01*
X1393685Y932639D01*
X1394638Y930169D01*
X1395870Y927654D01*
X1397380Y925093D01*
X1399170Y922486D01*
X1401239Y919834D01*
X1403587Y917137D01*
X1406213Y914393D01*
X1395607Y903787D01*
X1392863Y906413D01*
X1387514Y910830D01*
X1384907Y912619D01*
X1382346Y914130D01*
X1379831Y915362D01*
X1377361Y916315D01*
X1374937Y916990D01*
X1372558Y917385D01*
X1370225Y917501D01*
X1392499Y939775D01*
X1392615Y937442D01*
D02*
G37*
G36*
X2045783Y892561D02*
X2043856Y893974D01*
X2041726Y895238D01*
X2039392Y896354D01*
X2036854Y897321D01*
X2034112Y898139D01*
X2031166Y898808D01*
X2028017Y899329D01*
X2024664Y899701D01*
X2017345Y899998D01*
X2015562Y914998D01*
X2019390Y915087D01*
X2026274Y915796D01*
X2029331Y916417D01*
X2032131Y917215D01*
X2034675Y918190D01*
X2036961Y919343D01*
X2038991Y920673D01*
X2040764Y922181D01*
X2042280Y923866D01*
X2045783Y892561D01*
D02*
G37*
G36*
X1009513Y912266D02*
X1006992Y911288D01*
X1004767Y909660D01*
X1002839Y907379D01*
X1001208Y904448D01*
X999873Y900865D01*
X998835Y896630D01*
X998093Y891744D01*
X997648Y886206D01*
X997500Y880017D01*
X982500D01*
X982352Y886206D01*
X981907Y891744D01*
X981165Y896630D01*
X980127Y900865D01*
X978792Y904448D01*
X977161Y907379D01*
X975233Y909660D01*
X973008Y911288D01*
X970487Y912266D01*
X967669Y912591D01*
X1012331D01*
X1009513Y912266D01*
D02*
G37*
G36*
X1322600Y860445D02*
X1328618Y860058D01*
X1332655Y860001D01*
X1332656Y840001D01*
X1328619Y839943D01*
X1322599Y839438D01*
X1322599Y827658D01*
X1322273Y830003D01*
X1321295Y832101D01*
X1319665Y833953D01*
X1317383Y835557D01*
X1314449Y836915D01*
X1312142Y837630D01*
X1310829Y837183D01*
X1308936Y836321D01*
X1307349Y835343D01*
X1306069Y834251D01*
X1306069Y838960D01*
X1301736Y839507D01*
X1296195Y839877D01*
X1290001Y840001D01*
Y860001D01*
X1296195Y860124D01*
X1306068Y861059D01*
X1306067Y865751D01*
X1307348Y864658D01*
X1308935Y863681D01*
X1310828Y862818D01*
X1312142Y862371D01*
X1314450Y863087D01*
X1317384Y864444D01*
X1319666Y866049D01*
X1321296Y867900D01*
X1322274Y869999D01*
X1322600Y872344D01*
X1322600Y860445D01*
D02*
G37*
G36*
X1947056Y886449D02*
X1944060Y883241D01*
X1941349Y879894D01*
X1938924Y876408D01*
X1936784Y872783D01*
X1934930Y869020D01*
X1933361Y865118D01*
X1932078Y861077D01*
X1931080Y856897D01*
X1930368Y852578D01*
X1929941Y848121D01*
X1898122Y879941D01*
X1902579Y880368D01*
X1906897Y881080D01*
X1911077Y882078D01*
X1915118Y883361D01*
X1919020Y884930D01*
X1922784Y886784D01*
X1926408Y888924D01*
X1929894Y891349D01*
X1933241Y894060D01*
X1936450Y897056D01*
X1947056Y886449D01*
D02*
G37*
G36*
X2370440Y851566D02*
X2373195Y842912D01*
X2374875Y838837D01*
X2376755Y834929D01*
X2376853Y834752D01*
X2378786Y834006D01*
X2381210Y833332D01*
X2383589Y832936D01*
X2385922Y832820D01*
X2380962Y827860D01*
X2381118Y827616D01*
X2383601Y824211D01*
X2386285Y820974D01*
X2389170Y817905D01*
X2380256Y805605D01*
X2376923Y808708D01*
X2373496Y811444D01*
X2369976Y813813D01*
X2368006Y814904D01*
X2363648Y810546D01*
X2363532Y812879D01*
X2363137Y815258D01*
X2362514Y817497D01*
X2358852Y818718D01*
X2354957Y819620D01*
X2350968Y820154D01*
X2346885Y820322D01*
X2342708Y820122D01*
X2352455Y833294D01*
X2349934Y835928D01*
X2360541Y846534D01*
X2361543Y845575D01*
X2369364Y856144D01*
X2370440Y851566D01*
D02*
G37*
G36*
X2259925Y844916D02*
X2260249Y841605D01*
X2260919Y838299D01*
X2261935Y834998D01*
X2262447Y833758D01*
X2262639Y833684D01*
X2265063Y833010D01*
X2267442Y832615D01*
X2269775Y832499D01*
X2265269Y827992D01*
X2267061Y825127D01*
X2269462Y821847D01*
X2272210Y818573D01*
X2275303Y815303D01*
X2264697Y804697D01*
X2261427Y807790D01*
X2258152Y810538D01*
X2254873Y812939D01*
X2252008Y814731D01*
X2247501Y810225D01*
X2247385Y812558D01*
X2246990Y814937D01*
X2246316Y817361D01*
X2246242Y817553D01*
X2245002Y818065D01*
X2241701Y819081D01*
X2238395Y819751D01*
X2235084Y820075D01*
X2231768Y820052D01*
X2240128Y828413D01*
X2238761Y830166D01*
X2236413Y832863D01*
X2233787Y835606D01*
X2244394Y846213D01*
X2247137Y843587D01*
X2251610Y839894D01*
X2259948Y848232D01*
X2259925Y844916D01*
D02*
G37*
G36*
X1550971Y826807D02*
X1547584Y829314D01*
X1543855Y831557D01*
X1539784Y833536D01*
X1535372Y835251D01*
X1530617Y836702D01*
X1525520Y837890D01*
X1520082Y838813D01*
X1514302Y839473D01*
X1501716Y840001D01*
X1501716Y860001D01*
X1508181Y860133D01*
X1520083Y861188D01*
X1525521Y862112D01*
X1530618Y863299D01*
X1535373Y864750D01*
X1539785Y866465D01*
X1543856Y868444D01*
X1547585Y870687D01*
X1550972Y873193D01*
X1550971Y826807D01*
D02*
G37*
G36*
X1376302Y875262D02*
X1387009Y869233D01*
X1392149Y866784D01*
X1401999Y863016D01*
X1406709Y861697D01*
X1411277Y860754D01*
X1415701Y860189D01*
X1419983Y860001D01*
Y840001D01*
X1415702Y839812D01*
X1411278Y839247D01*
X1406710Y838305D01*
X1402000Y836986D01*
X1397147Y835290D01*
X1392150Y833217D01*
X1381728Y827941D01*
X1376303Y824738D01*
X1370734Y821157D01*
Y878842D01*
X1376302Y875262D01*
D02*
G37*
G36*
X914432Y843824D02*
X915155Y842138D01*
X916360Y840650D01*
X918046Y839360D01*
X920215Y838269D01*
X922866Y837376D01*
X925999Y836682D01*
X929614Y836186D01*
X933710Y835888D01*
X938289Y835789D01*
Y820789D01*
X933710Y820690D01*
X925999Y819896D01*
X922866Y819202D01*
X920215Y818309D01*
X918046Y817218D01*
X916360Y815928D01*
X915155Y814440D01*
X914432Y812754D01*
X914191Y810869D01*
X914191Y845709D01*
X914432Y843824D01*
D02*
G37*
G36*
X1845355Y891214D02*
X1840877Y886550D01*
X1833207Y877388D01*
X1830015Y872889D01*
X1827251Y868446D01*
X1824915Y864057D01*
X1823008Y859724D01*
X1821529Y855446D01*
X1820478Y851223D01*
X1820295Y850000D01*
X1820478Y848777D01*
X1821529Y844554D01*
X1823008Y840276D01*
X1824915Y835943D01*
X1827251Y831555D01*
X1830015Y827112D01*
X1833208Y822613D01*
X1836829Y818060D01*
X1845355Y808787D01*
X1831213Y794645D01*
X1826549Y799122D01*
X1817387Y806792D01*
X1812888Y809984D01*
X1808444Y812749D01*
X1804056Y815084D01*
X1799723Y816992D01*
X1795445Y818471D01*
X1791223Y819522D01*
X1787055Y820145D01*
X1816911Y850000D01*
X1787055Y879855D01*
X1791222Y880478D01*
X1795444Y881528D01*
X1799722Y883008D01*
X1804055Y884915D01*
X1808443Y887251D01*
X1812886Y890015D01*
X1817385Y893208D01*
X1821939Y896829D01*
X1831212Y905356D01*
X1845355Y891214D01*
D02*
G37*
G36*
X1617071Y772929D02*
X1613677Y769394D01*
X1608010Y762604D01*
X1606638Y760639D01*
X1609775Y757501D01*
X1608097Y757368D01*
X1606284Y756938D01*
X1604336Y756209D01*
X1603691Y755891D01*
X1602312Y753116D01*
X1601160Y750139D01*
X1600383Y747256D01*
X1599978Y744465D01*
X1599948Y741767D01*
X1593173Y748542D01*
X1589805Y745581D01*
X1586909Y742767D01*
X1572767Y756909D01*
X1575581Y759804D01*
X1578480Y763235D01*
X1571767Y769948D01*
X1574465Y769978D01*
X1577256Y770382D01*
X1580140Y771160D01*
X1583116Y772312D01*
X1585891Y773691D01*
X1586209Y774336D01*
X1586938Y776284D01*
X1587368Y778097D01*
X1587501Y779775D01*
X1590639Y776638D01*
X1592604Y778010D01*
X1595953Y780656D01*
X1602929Y787071D01*
X1617071Y772929D01*
D02*
G37*
G36*
X1708841Y779498D02*
X1710209Y780813D01*
X1720816Y770206D01*
X1718172Y767454D01*
X1715340Y764052D01*
X1719119Y755070D01*
X1717227Y755732D01*
X1715232Y756021D01*
X1713132Y755938D01*
X1710930Y755482D01*
X1709749Y755058D01*
X1709146Y753225D01*
X1708781Y751233D01*
X1708741Y749351D01*
X1709027Y747578D01*
X1704330Y752276D01*
X1703704Y751885D01*
X1701089Y749942D01*
X1698370Y747626D01*
X1695549Y744939D01*
X1690146Y760749D01*
X1692899Y763553D01*
X1692971Y763636D01*
X1687582Y769026D01*
X1689355Y768740D01*
X1691237Y768779D01*
X1693229Y769144D01*
X1695328Y769834D01*
X1697537Y770850D01*
X1699854Y772191D01*
X1701393Y773249D01*
X1701613Y773500D01*
X1703217Y775669D01*
X1705736Y779626D01*
X1706651Y781414D01*
X1707336Y783075D01*
X1708841Y779498D01*
D02*
G37*
G36*
X1863451Y790878D02*
X1872614Y783207D01*
X1877112Y780015D01*
X1881556Y777251D01*
X1885944Y774915D01*
X1890277Y773008D01*
X1894555Y771528D01*
X1898778Y770478D01*
X1902945Y769855D01*
X1870145Y737055D01*
X1869523Y741222D01*
X1868472Y745445D01*
X1866992Y749723D01*
X1865085Y754056D01*
X1862749Y758444D01*
X1859985Y762887D01*
X1856793Y767386D01*
X1853172Y771940D01*
X1844645Y781213D01*
X1858787Y795355D01*
X1863451Y790878D01*
D02*
G37*
G36*
X1376302Y775262D02*
X1387010Y769233D01*
X1392150Y766783D01*
X1401999Y763015D01*
X1406710Y761696D01*
X1411277Y760754D01*
X1415702Y760188D01*
X1419983Y760000D01*
Y740000D01*
X1415702Y739812D01*
X1411277Y739246D01*
X1406710Y738304D01*
X1401999Y736985D01*
X1397146Y735289D01*
X1392150Y733217D01*
X1381728Y727941D01*
X1376302Y724738D01*
X1370734Y721158D01*
Y778842D01*
X1376302Y775262D01*
D02*
G37*
G36*
X1547886Y719727D02*
X1544062Y723579D01*
X1540024Y727025D01*
X1535771Y730066D01*
X1531304Y732702D01*
X1526622Y734932D01*
X1521726Y736756D01*
X1516616Y738176D01*
X1511292Y739189D01*
X1505753Y739797D01*
X1500000Y740000D01*
X1507640Y760000D01*
X1514829Y760058D01*
X1542475Y762074D01*
X1546343Y762823D01*
X1549658Y763688D01*
X1552420Y764668D01*
X1554628Y765762D01*
X1547886Y719727D01*
D02*
G37*
G36*
X1820368Y737419D02*
X1821080Y733101D01*
X1822078Y728921D01*
X1823361Y724880D01*
X1824929Y720978D01*
X1826783Y717215D01*
X1828923Y713590D01*
X1831348Y710104D01*
X1834059Y706757D01*
X1837055Y703549D01*
X1826448Y692943D01*
X1823240Y695939D01*
X1819893Y698650D01*
X1816407Y701075D01*
X1812782Y703215D01*
X1809019Y705069D01*
X1805117Y706638D01*
X1801075Y707921D01*
X1796896Y708919D01*
X1792577Y709632D01*
X1788120Y710059D01*
X1819941Y741877D01*
X1820368Y737419D01*
D02*
G37*
G36*
X2480478Y738778D02*
X2481529Y734555D01*
X2483008Y730277D01*
X2484916Y725944D01*
X2487252Y721556D01*
X2490016Y717113D01*
X2493208Y712614D01*
X2495804Y709350D01*
X2497680Y707765D01*
X2500034Y706142D01*
X2502253Y704818D01*
X2504337Y703791D01*
X2506285Y703062D01*
X2506532Y703004D01*
X2507724Y703760D01*
X2509501Y705034D01*
X2512466Y707444D01*
X2516793Y712612D01*
X2519985Y717111D01*
X2522749Y721555D01*
X2525085Y725943D01*
X2526993Y730276D01*
X2528472Y734554D01*
X2529522Y738777D01*
X2530145Y742944D01*
X2562945Y710145D01*
X2558778Y709522D01*
X2554555Y708471D01*
X2550278Y706992D01*
X2545945Y705084D01*
X2541557Y702749D01*
X2537113Y699984D01*
X2533839Y697661D01*
X2533148Y696540D01*
X2532077Y694383D01*
X2531355Y692379D01*
X2530983Y690528D01*
X2530961Y688829D01*
X2531289Y687283D01*
X2525113Y690460D01*
X2519166Y684992D01*
X2523451Y680877D01*
X2528976Y676252D01*
X2532499Y679775D01*
X2532632Y678097D01*
X2533062Y676284D01*
X2533791Y674335D01*
X2534818Y672252D01*
X2535448Y671197D01*
X2537113Y670015D01*
X2541556Y667251D01*
X2545944Y664915D01*
X2550277Y663007D01*
X2554555Y661528D01*
X2558777Y660477D01*
X2562945Y659855D01*
X2530145Y627055D01*
X2529523Y631223D01*
X2528472Y635445D01*
X2526993Y639723D01*
X2525085Y644056D01*
X2522749Y648444D01*
X2519985Y652887D01*
X2518803Y654552D01*
X2517748Y655182D01*
X2515665Y656209D01*
X2513716Y656937D01*
X2511903Y657368D01*
X2510225Y657501D01*
X2513833Y661109D01*
X2513172Y661940D01*
X2504645Y671213D01*
X2518432Y685000D01*
X2505354Y698077D01*
X2487501Y680226D01*
X2487368Y681904D01*
X2486938Y683717D01*
X2486209Y685665D01*
X2485183Y687749D01*
X2483858Y689968D01*
X2482236Y692322D01*
X2481340Y693484D01*
X2477387Y696792D01*
X2472889Y699985D01*
X2468446Y702749D01*
X2464057Y705085D01*
X2459724Y706992D01*
X2455446Y708471D01*
X2451223Y709522D01*
X2447056Y710145D01*
X2479855Y742945D01*
X2480478Y738778D01*
D02*
G37*
G36*
X2012633Y710115D02*
X2008356Y709527D01*
X2004040Y708510D01*
X1999684Y707066D01*
X1995289Y705195D01*
X1990855Y702896D01*
X1986381Y700169D01*
X1981868Y697015D01*
X1980127Y695645D01*
X1978772Y693710D01*
X1977419Y691496D01*
X1976359Y689419D01*
X1975592Y687478D01*
X1975117Y685674D01*
X1975008Y684682D01*
X1975130Y683702D01*
X1975625Y681902D01*
X1976411Y679966D01*
X1977487Y677893D01*
X1978852Y675684D01*
X1979871Y674241D01*
X1981522Y672875D01*
X1986042Y669739D01*
X1990529Y667030D01*
X1994985Y664749D01*
X1999408Y662895D01*
X2003799Y661468D01*
X2008159Y660469D01*
X2012486Y659897D01*
X1980194Y626595D01*
X1979526Y630596D01*
X1978429Y634676D01*
X1976901Y638836D01*
X1974944Y643074D01*
X1972556Y647392D01*
X1969739Y651788D01*
X1966491Y656264D01*
X1965667Y657237D01*
X1963505Y658693D01*
X1961283Y659977D01*
X1959195Y660954D01*
X1957242Y661625D01*
X1955425Y661991D01*
X1953743Y662050D01*
X1957743Y666453D01*
X1954169Y670165D01*
X1967772Y684846D01*
X1971346Y681426D01*
X1974302Y684680D01*
X1971280Y687905D01*
X1968093Y684987D01*
X1954318Y699495D01*
X1957410Y702710D01*
X1953398Y706992D01*
X1955080Y707075D01*
X1956897Y707461D01*
X1958849Y708151D01*
X1960936Y709144D01*
X1963158Y710440D01*
X1965383Y711950D01*
X1966584Y713373D01*
X1969814Y717856D01*
X1972615Y722268D01*
X1974986Y726609D01*
X1976928Y730878D01*
X1978441Y735076D01*
X1979524Y739202D01*
X1980177Y743258D01*
X2012633Y710115D01*
D02*
G37*
G36*
X1930469Y738159D02*
X1931469Y733799D01*
X1932896Y729407D01*
X1934749Y724984D01*
X1937031Y720529D01*
X1939739Y716041D01*
X1942875Y711522D01*
X1943012Y711348D01*
X1943612Y710924D01*
X1945822Y709558D01*
X1947894Y708483D01*
X1949830Y707697D01*
X1951630Y707202D01*
X1953293Y706996D01*
X1949536Y703582D01*
X1954847Y697772D01*
X1941144Y685075D01*
X1955013Y671907D01*
X1950576Y667276D01*
X1949159Y665568D01*
X1952948Y662018D01*
X1951279Y661836D01*
X1949474Y661361D01*
X1947533Y660593D01*
X1945456Y659533D01*
X1943243Y658181D01*
X1942805Y657874D01*
X1939831Y653619D01*
X1937104Y649145D01*
X1934805Y644711D01*
X1932934Y640316D01*
X1931490Y635960D01*
X1930473Y631644D01*
X1929885Y627367D01*
X1896742Y659822D01*
X1900798Y660476D01*
X1904924Y661559D01*
X1909122Y663072D01*
X1913391Y665014D01*
X1917732Y667385D01*
X1922143Y670186D01*
X1925900Y672892D01*
X1926513Y673794D01*
X1927809Y676016D01*
X1928802Y678104D01*
X1929491Y680056D01*
X1929878Y681873D01*
X1929961Y683555D01*
X1934050Y679724D01*
X1939529Y684782D01*
X1935453Y688706D01*
X1934267Y689711D01*
X1929978Y685814D01*
X1929919Y687497D01*
X1929553Y689314D01*
X1928882Y691267D01*
X1927905Y693354D01*
X1926621Y695577D01*
X1925759Y696858D01*
X1921789Y699738D01*
X1917392Y702556D01*
X1913074Y704943D01*
X1908836Y706901D01*
X1904677Y708429D01*
X1900596Y709526D01*
X1896595Y710194D01*
X1929897Y742486D01*
X1930469Y738159D01*
D02*
G37*
G36*
X322609Y711469D02*
X323145Y710354D01*
X323985Y709002D01*
X325129Y707415D01*
X328330Y703532D01*
X335412Y695939D01*
X338380Y692936D01*
X323168Y672793D01*
X320176Y675731D01*
X310329Y684260D01*
X308398Y685587D01*
X306679Y686592D01*
X305173Y687275D01*
X303878Y687636D01*
X302796Y687675D01*
X322377Y712349D01*
X322609Y711469D01*
D02*
G37*
G36*
X666302Y688552D02*
X677009Y682523D01*
X682148Y680073D01*
X691998Y676305D01*
X696709Y674986D01*
X701276Y674044D01*
X703119Y673809D01*
X715905Y674841D01*
X720305Y675714D01*
X723905Y676780D01*
X726705Y678040D01*
X728705Y679494D01*
X729905Y681142D01*
X730305Y682984D01*
X730610Y633291D01*
X730184Y637091D01*
X728958Y640490D01*
X726931Y643490D01*
X724102Y646091D01*
X720472Y648291D01*
X716041Y650091D01*
X710809Y651490D01*
X704775Y652490D01*
X702488Y652691D01*
X701278Y652537D01*
X696711Y651595D01*
X692000Y650276D01*
X687147Y648580D01*
X682151Y646507D01*
X671728Y641230D01*
X666303Y638027D01*
X660734Y634447D01*
Y692131D01*
X666302Y688552D01*
D02*
G37*
G36*
X1756759Y674060D02*
X1760106Y671349D01*
X1763592Y668924D01*
X1767217Y666784D01*
X1770980Y664930D01*
X1774883Y663361D01*
X1778924Y662078D01*
X1783103Y661080D01*
X1787422Y660367D01*
X1791879Y659941D01*
X1760059Y628121D01*
X1759632Y632579D01*
X1758920Y636897D01*
X1757922Y641077D01*
X1756639Y645118D01*
X1755070Y649020D01*
X1753216Y652783D01*
X1751077Y656408D01*
X1748651Y659894D01*
X1745941Y663241D01*
X1742944Y666449D01*
X1753551Y677056D01*
X1756759Y674060D01*
D02*
G37*
G36*
X1618742Y553136D02*
X1615865Y550066D01*
X1613200Y546822D01*
X1611464Y544403D01*
X1616242Y537816D01*
X1614019Y538028D01*
X1611734Y537922D01*
X1609387Y537499D01*
X1606978Y536757D01*
X1606825Y536691D01*
X1606477Y536046D01*
X1604660Y532106D01*
X1603055Y527992D01*
X1601662Y523704D01*
X1600480Y519242D01*
X1599511Y514606D01*
X1571663Y549953D01*
X1575909Y549890D01*
X1580051Y550175D01*
X1584089Y550811D01*
X1588022Y551795D01*
X1591852Y553130D01*
X1594856Y554488D01*
X1595634Y556122D01*
X1596575Y558557D01*
X1597278Y560954D01*
X1597745Y563313D01*
X1601369Y558318D01*
X1602715Y559230D01*
X1606128Y561962D01*
X1609437Y565044D01*
X1618742Y553136D01*
D02*
G37*
G36*
X2580686Y607584D02*
X2578444Y603855D01*
X2576465Y599784D01*
X2574749Y595371D01*
X2573298Y590617D01*
X2572111Y585520D01*
X2571187Y580082D01*
X2570680Y575637D01*
X2571187Y569918D01*
X2572111Y564479D01*
X2573298Y559383D01*
X2574749Y554628D01*
X2576465Y550215D01*
X2578444Y546144D01*
X2580686Y542415D01*
X2583193Y539028D01*
X2536807D01*
X2539314Y542415D01*
X2541557Y546144D01*
X2543535Y550215D01*
X2545250Y554628D01*
X2546702Y559382D01*
X2547889Y564479D01*
X2548813Y569917D01*
X2549320Y574363D01*
X2548813Y580082D01*
X2547889Y585521D01*
X2546702Y590617D01*
X2545250Y595372D01*
X2543535Y599784D01*
X2541557Y603855D01*
X2539314Y607584D01*
X2536807Y610971D01*
X2583193D01*
X2580686Y607584D01*
D02*
G37*
G36*
X2079746Y559263D02*
X2078373Y557259D01*
X2077162Y555033D01*
X2076112Y552583D01*
X2075224Y549910D01*
X2074497Y547013D01*
X2073932Y543894D01*
X2073528Y540551D01*
X2073286Y536985D01*
X2073205Y533197D01*
X2058205Y532777D01*
X2058121Y536581D01*
X2057448Y543483D01*
X2056859Y546581D01*
X2056102Y549442D01*
X2055176Y552068D01*
X2054082Y554458D01*
X2052820Y556612D01*
X2051390Y558530D01*
X2049791Y560212D01*
X2081280Y561043D01*
X2079746Y559263D01*
D02*
G37*
G36*
X1757455Y574685D02*
X1757748Y572330D01*
X1758334Y569925D01*
X1759213Y567471D01*
X1760384Y564965D01*
X1761848Y562410D01*
X1763005Y560695D01*
X1764597Y559576D01*
X1768215Y557400D01*
X1771984Y555487D01*
X1775903Y553834D01*
X1779973Y552443D01*
X1784193Y551314D01*
X1788564Y550447D01*
X1793086Y549841D01*
X1760008Y519331D01*
X1759754Y523720D01*
X1759193Y527982D01*
X1758322Y532117D01*
X1757144Y536125D01*
X1755657Y540007D01*
X1753862Y543761D01*
X1751758Y547388D01*
X1750325Y549467D01*
X1748754Y550568D01*
X1746193Y552126D01*
X1743673Y553420D01*
X1741196Y554449D01*
X1738760Y555213D01*
X1736366Y555712D01*
X1734013Y555947D01*
X1757454Y576989D01*
X1757455Y574685D01*
D02*
G37*
G36*
X665262Y536987D02*
X659232Y526278D01*
X656783Y521139D01*
X653014Y511289D01*
X651695Y506579D01*
X650753Y502011D01*
X650187Y497588D01*
X649999Y493306D01*
X629999D01*
X629810Y497588D01*
X629245Y502013D01*
X628303Y506580D01*
X626984Y511291D01*
X625289Y516144D01*
X623216Y521141D01*
X617940Y531562D01*
X614737Y536987D01*
X611158Y542555D01*
X668842D01*
X665262Y536987D01*
D02*
G37*
G36*
X1466144Y476026D02*
X1468274Y474762D01*
X1470608Y473646D01*
X1473146Y472679D01*
X1475888Y471861D01*
X1478833Y471192D01*
X1481983Y470671D01*
X1485336Y470299D01*
X1492655Y470002D01*
X1494438Y455002D01*
X1490610Y454913D01*
X1483726Y454204D01*
X1480669Y453583D01*
X1477869Y452785D01*
X1475325Y451809D01*
X1473038Y450657D01*
X1471009Y449327D01*
X1469236Y447819D01*
X1467720Y446134D01*
X1464217Y477439D01*
X1466144Y476026D01*
D02*
G37*
G36*
X1762857Y443635D02*
X1763755Y441273D01*
X1764863Y438874D01*
X1765973Y436822D01*
X1766233Y436700D01*
X1768452Y435983D01*
X1770581Y435630D01*
X1772619Y435640D01*
X1774567Y436014D01*
X1776424Y436752D01*
X1771704Y428527D01*
X1773550Y426313D01*
X1778493Y421026D01*
X1770883Y407422D01*
X1768086Y410086D01*
X1765365Y412410D01*
X1763330Y413935D01*
X1760053Y408223D01*
X1759770Y410411D01*
X1759175Y412711D01*
X1758268Y415123D01*
X1757089Y417563D01*
X1755236Y418300D01*
X1752892Y418921D01*
X1750624Y419201D01*
X1748431Y419141D01*
X1746314Y418740D01*
X1750894Y426603D01*
X1746265Y431940D01*
X1743171Y435134D01*
X1753778Y445741D01*
X1756450Y443205D01*
X1759031Y441033D01*
X1759219Y440897D01*
X1762168Y445959D01*
X1762857Y443635D01*
D02*
G37*
G36*
X650200Y474880D02*
X650800Y467457D01*
X651800Y461003D01*
X653200Y455519D01*
X655000Y451003D01*
X657200Y447458D01*
X659800Y444881D01*
X662800Y443274D01*
X666200Y442636D01*
X670000Y442967D01*
X626157Y434023D01*
X626887Y435511D01*
X627541Y437673D01*
X628117Y440511D01*
X628617Y444025D01*
X629385Y453076D01*
X629962Y471717D01*
X630000Y479281D01*
X650000Y483272D01*
X650200Y474880D01*
D02*
G37*
G36*
X2580686Y497584D02*
X2578444Y493855D01*
X2576465Y489784D01*
X2574749Y485371D01*
X2573298Y480617D01*
X2572111Y475520D01*
X2571187Y470082D01*
X2570737Y465000D01*
X2571187Y459918D01*
X2572111Y454479D01*
X2573298Y449383D01*
X2574749Y444628D01*
X2576465Y440215D01*
X2578444Y436144D01*
X2580686Y432415D01*
X2583193Y429028D01*
X2536807D01*
X2539314Y432415D01*
X2541557Y436144D01*
X2543535Y440215D01*
X2545250Y444628D01*
X2546702Y449382D01*
X2547889Y454479D01*
X2548813Y459917D01*
X2549392Y465000D01*
X2548813Y470082D01*
X2547889Y475521D01*
X2546702Y480617D01*
X2545250Y485372D01*
X2543535Y489784D01*
X2541557Y493855D01*
X2539314Y497584D01*
X2536807Y500971D01*
X2583193D01*
X2580686Y497584D01*
D02*
G37*
G36*
X2057055Y446451D02*
X2054058Y443243D01*
X2051348Y439896D01*
X2048922Y436410D01*
X2046783Y432785D01*
X2044929Y429022D01*
X2043360Y425120D01*
X2042077Y421079D01*
X2041080Y416899D01*
X2040368Y412581D01*
X2039941Y408123D01*
X2008119Y439941D01*
X2012576Y440368D01*
X2016895Y441080D01*
X2021075Y442078D01*
X2025116Y443362D01*
X2029018Y444931D01*
X2032781Y446785D01*
X2036406Y448925D01*
X2039892Y451350D01*
X2043239Y454061D01*
X2046447Y457057D01*
X2057055Y446451D01*
D02*
G37*
G36*
X1646761Y454061D02*
X1650108Y451350D01*
X1653594Y448925D01*
X1657219Y446785D01*
X1660982Y444931D01*
X1664884Y443362D01*
X1668926Y442078D01*
X1673105Y441080D01*
X1677424Y440368D01*
X1681881Y439941D01*
X1650059Y408123D01*
X1649632Y412581D01*
X1648921Y416899D01*
X1647923Y421079D01*
X1646640Y425120D01*
X1645071Y429022D01*
X1643217Y432785D01*
X1641078Y436410D01*
X1638653Y439896D01*
X1635942Y443243D01*
X1632945Y446451D01*
X1643553Y457057D01*
X1646761Y454061D01*
D02*
G37*
G36*
X1933227Y454049D02*
X1933241Y454060D01*
X1936449Y457056D01*
X1947056Y446450D01*
X1944060Y443241D01*
X1944048Y443228D01*
X1949775Y437501D01*
X1947442Y437385D01*
X1945063Y436990D01*
X1942639Y436316D01*
X1940169Y435363D01*
X1937653Y434130D01*
X1937539Y434063D01*
X1936784Y432784D01*
X1934930Y429020D01*
X1933361Y425118D01*
X1932078Y421077D01*
X1931080Y416897D01*
X1930368Y412579D01*
X1929941Y408122D01*
X1898121Y439941D01*
X1902578Y440368D01*
X1906897Y441080D01*
X1911076Y442078D01*
X1915118Y443361D01*
X1919020Y444930D01*
X1922783Y446784D01*
X1924063Y447540D01*
X1924130Y447654D01*
X1925362Y450169D01*
X1926315Y452639D01*
X1926990Y455063D01*
X1927385Y457442D01*
X1927501Y459775D01*
X1933227Y454049D01*
D02*
G37*
G36*
X1855090Y370610D02*
X1855799Y363725D01*
X1856420Y360668D01*
X1857218Y357868D01*
X1858193Y355324D01*
X1859346Y353038D01*
X1860676Y351008D01*
X1862183Y349235D01*
X1863868Y347718D01*
X1832563Y344220D01*
X1833976Y346146D01*
X1835241Y348276D01*
X1836356Y350610D01*
X1837323Y353148D01*
X1838142Y355890D01*
X1838811Y358835D01*
X1839332Y361985D01*
X1839704Y365338D01*
X1840001Y372656D01*
X1855001Y374437D01*
X1855090Y370610D01*
D02*
G37*
G36*
X261905Y258163D02*
X260369Y253741D01*
X260145Y248707D01*
X261234Y243062D01*
X263635Y236805D01*
X267349Y229937D01*
X272375Y222458D01*
X278713Y214367D01*
X286364Y205664D01*
X295328Y196350D01*
X277650Y178672D01*
X268336Y187636D01*
X251543Y201625D01*
X244063Y206651D01*
X237195Y210365D01*
X230938Y212766D01*
X225293Y213855D01*
X220259Y213631D01*
X215837Y212095D01*
X212026Y209246D01*
X264754Y261974D01*
X261905Y258163D01*
D02*
G37*
%LPC*%
G36*
X235200Y2436400D02*
X172700D01*
Y2338700D01*
X290400D01*
Y2381200D01*
X270323Y2401277D01*
X269185Y2399924D01*
X265613Y2394953D01*
X262890Y2390272D01*
X261017Y2385880D01*
X259993Y2381779D01*
X259818Y2377967D01*
X260493Y2374444D01*
X262017Y2371212D01*
X264390Y2368269D01*
X222268Y2410390D01*
X225211Y2408017D01*
X228444Y2406493D01*
X231966Y2405818D01*
X235778Y2405993D01*
X239880Y2407017D01*
X244271Y2408890D01*
X248953Y2411613D01*
X253923Y2415185D01*
X255277Y2416323D01*
X235200Y2436400D01*
D02*
G37*
G36*
X1370000Y2423332D02*
X1353417Y2420034D01*
X1339360Y2410641D01*
X1329966Y2396583D01*
X1326668Y2380000D01*
X1329966Y2363417D01*
X1339360Y2349360D01*
X1353417Y2339966D01*
X1370000Y2336668D01*
X1386583Y2339966D01*
X1400641Y2349360D01*
X1410034Y2363417D01*
X1413332Y2380000D01*
X1410034Y2396583D01*
X1400641Y2410641D01*
X1386583Y2420034D01*
X1370000Y2423332D01*
D02*
G37*
G36*
X290400Y2313300D02*
X172700D01*
Y2215600D01*
X235200D01*
X255277Y2235677D01*
X253923Y2236815D01*
X248953Y2240387D01*
X244271Y2243110D01*
X239880Y2244983D01*
X235778Y2246007D01*
X231966Y2246181D01*
X228444Y2245507D01*
X225211Y2243983D01*
X222268Y2241610D01*
X264390Y2283731D01*
X262017Y2280788D01*
X260493Y2277556D01*
X259818Y2274033D01*
X259993Y2270221D01*
X261017Y2266120D01*
X262890Y2261728D01*
X265613Y2257047D01*
X269185Y2252076D01*
X270323Y2250722D01*
X290400Y2270800D01*
Y2313300D01*
D02*
G37*
G36*
X1757302Y2186192D02*
X1755002D01*
X1739239Y2183057D01*
X1725875Y2174127D01*
X1716946Y2160764D01*
X1713810Y2145001D01*
Y2142701D01*
X1716872D01*
X1718004Y2143018D01*
X1722858Y2144713D01*
X1727854Y2146786D01*
X1738275Y2152061D01*
X1743700Y2155264D01*
X1749268Y2158843D01*
Y2142701D01*
X1757302D01*
Y2186192D01*
D02*
G37*
G36*
X516500Y2178224D02*
X391500D01*
X367113Y2173374D01*
X346440Y2159560D01*
X332626Y2138886D01*
X327775Y2114500D01*
Y2029500D01*
X332626Y2005114D01*
X346440Y1984440D01*
X367113Y1970626D01*
X391500Y1965776D01*
X516500D01*
X540886Y1970626D01*
X561560Y1984440D01*
X575374Y2005114D01*
X580224Y2029500D01*
Y2114500D01*
X575374Y2138886D01*
X561560Y2159560D01*
X540886Y2173374D01*
X516500Y2178224D01*
D02*
G37*
G36*
X1807300Y1747300D02*
X1799029D01*
X1802927Y1730740D01*
X1801553Y1734695D01*
X1799569Y1737478D01*
X1796975Y1739091D01*
X1793771Y1739533D01*
X1789957Y1738803D01*
X1785532Y1736903D01*
X1780497Y1733831D01*
X1776986Y1731192D01*
X1776141Y1729966D01*
X1774817Y1727747D01*
X1773790Y1725664D01*
X1773061Y1723715D01*
X1772631Y1721902D01*
X1772547Y1720851D01*
X1775874Y1715873D01*
X1789237Y1706944D01*
X1805000Y1703809D01*
X1807300D01*
Y1747300D01*
D02*
G37*
G36*
X516500Y1924224D02*
X391500D01*
X367113Y1919374D01*
X346440Y1905560D01*
X332626Y1884886D01*
X327775Y1860500D01*
Y1775500D01*
X332626Y1751114D01*
X346440Y1730440D01*
X367113Y1716626D01*
X391500Y1711776D01*
X516500D01*
X540886Y1716626D01*
X561560Y1730440D01*
X575374Y1751114D01*
X580224Y1775500D01*
Y1860500D01*
X575374Y1884886D01*
X561560Y1905560D01*
X540886Y1919374D01*
X516500Y1924224D01*
D02*
G37*
G36*
X749431Y1783937D02*
X732848Y1780639D01*
X718791Y1771245D01*
X709397Y1757187D01*
X706099Y1740605D01*
X709397Y1724022D01*
X713941Y1717222D01*
X712077Y1710446D01*
X708505Y1707165D01*
X702440Y1704311D01*
X695459Y1702608D01*
X687475Y1707104D01*
X682441Y1710341D01*
X679136Y1710938D01*
X678656Y1711258D01*
X675124Y1711961D01*
X670734Y1713779D01*
X669192Y1713141D01*
X665000Y1713975D01*
X635000D01*
X621344Y1711258D01*
X609766Y1703523D01*
X602031Y1691945D01*
X599314Y1678289D01*
Y1648289D01*
X602031Y1634633D01*
X609766Y1623055D01*
X610883Y1622309D01*
Y1604269D01*
X609766Y1603523D01*
X602031Y1591946D01*
X599314Y1578289D01*
Y1548289D01*
X600148Y1544097D01*
X599510Y1542555D01*
X601328Y1538165D01*
X602031Y1534633D01*
X602352Y1534153D01*
X602949Y1530848D01*
X606304Y1525629D01*
X608945Y1521156D01*
X613535Y1512089D01*
X615058Y1508417D01*
X616324Y1504794D01*
X617256Y1501467D01*
X617879Y1498445D01*
X618225Y1495739D01*
X618323Y1493526D01*
X618316Y1492103D01*
X617766Y1474327D01*
X617099Y1466468D01*
X616775Y1464192D01*
X616526Y1462968D01*
X616164Y1461770D01*
X616436Y1459044D01*
X616428Y1458916D01*
X614314Y1448289D01*
Y1418289D01*
X617031Y1404633D01*
X624766Y1393056D01*
X636344Y1385320D01*
X650000Y1382604D01*
X690000D01*
X703656Y1385320D01*
X715234Y1393056D01*
X722969Y1404633D01*
X725686Y1418289D01*
Y1448289D01*
X722969Y1461946D01*
X715234Y1473523D01*
X703656Y1481258D01*
X690000Y1483975D01*
X682123Y1498450D01*
X682746Y1501470D01*
X683592Y1504491D01*
X686695Y1512601D01*
X688458Y1516300D01*
X693814Y1525813D01*
X697052Y1530848D01*
X697649Y1534153D01*
X697969Y1534633D01*
X698672Y1538165D01*
X700490Y1542555D01*
X699852Y1544097D01*
X700686Y1548289D01*
Y1578289D01*
X697969Y1591946D01*
X690234Y1603523D01*
X690187Y1603554D01*
X688750Y1612701D01*
X690592Y1621324D01*
X692127Y1622230D01*
X701200Y1626823D01*
X704865Y1628344D01*
X705000Y1628391D01*
X715333Y1623510D01*
X718870Y1620354D01*
X720000Y1618721D01*
Y1593289D01*
X840000D01*
Y1713289D01*
X798961D01*
X790314Y1728289D01*
X792763Y1740605D01*
X789465Y1757187D01*
X780072Y1771245D01*
X766014Y1780639D01*
X749431Y1783937D01*
D02*
G37*
G36*
X1737301Y1686191D02*
X1735001D01*
X1719237Y1683056D01*
X1705874Y1674127D01*
X1696945Y1660763D01*
X1693809Y1645000D01*
Y1642700D01*
X1737301D01*
Y1650734D01*
X1721158D01*
X1724738Y1656302D01*
X1730767Y1667009D01*
X1733216Y1672148D01*
X1736985Y1681998D01*
X1737301Y1683127D01*
Y1686191D01*
D02*
G37*
G36*
X877300Y1515589D02*
X856320D01*
X856320Y1508300D01*
X856040Y1510197D01*
X855199Y1511895D01*
X853797Y1513393D01*
X851835Y1514692D01*
X849775Y1515589D01*
X849553D01*
X848071Y1514924D01*
X846425Y1513895D01*
X845123Y1512728D01*
X844165Y1511424D01*
X843078Y1515589D01*
X828809D01*
Y1513289D01*
X831944Y1497526D01*
X840873Y1484162D01*
X854237Y1475233D01*
X870000Y1472098D01*
X877300D01*
Y1515589D01*
D02*
G37*
G36*
X1457300Y1539010D02*
X1418750D01*
X1396646Y1534613D01*
X1377908Y1522092D01*
X1368334Y1507764D01*
X1366654Y1507224D01*
X1353346D01*
X1351667Y1507764D01*
X1342092Y1522092D01*
X1323354Y1534613D01*
X1313409Y1536591D01*
X1327071Y1522929D01*
X1324032Y1519765D01*
X1319586Y1514325D01*
X1318701Y1512893D01*
X1321569Y1510704D01*
X1319962Y1510374D01*
X1318213Y1509768D01*
X1317168Y1509280D01*
X1316998Y1508380D01*
X1317223Y1506989D01*
X1317993Y1505894D01*
X1319306Y1505095D01*
X1321164Y1504590D01*
X1311909Y1506139D01*
X1309791Y1504574D01*
X1304725Y1500314D01*
X1299088Y1494946D01*
X1282815Y1506957D01*
X1285628Y1509862D01*
X1286138Y1510452D01*
X1275944Y1512158D01*
X1278175Y1512095D01*
X1280733Y1512600D01*
X1283616Y1513673D01*
X1286825Y1515313D01*
X1290361Y1517521D01*
X1293431Y1519727D01*
X1293677Y1520106D01*
X1294888Y1522323D01*
X1295779Y1524402D01*
X1296349Y1526344D01*
X1296599Y1528148D01*
X1296529Y1529815D01*
X1301286Y1526184D01*
X1302923Y1527548D01*
X1312595Y1536753D01*
X1301250Y1539010D01*
X1262700D01*
Y1450000D01*
Y1360990D01*
X1301250D01*
X1323354Y1365387D01*
X1342092Y1377908D01*
X1351667Y1392237D01*
X1353346Y1392776D01*
X1366654D01*
X1368334Y1392237D01*
X1377908Y1377908D01*
X1396646Y1365387D01*
X1418750Y1360990D01*
X1457300D01*
Y1450000D01*
Y1539010D01*
D02*
G37*
G36*
X1237300D02*
X1198750D01*
X1176646Y1534613D01*
X1157908Y1522092D01*
X1149469Y1509464D01*
X1136582Y1500034D01*
X1120000Y1503332D01*
X1103417Y1500034D01*
X1089360Y1490640D01*
X1079966Y1476583D01*
X1076668Y1460000D01*
X1079966Y1443417D01*
X1089360Y1429359D01*
X1103417Y1419966D01*
X1120000Y1416667D01*
X1126331Y1417927D01*
X1137328Y1418545D01*
X1143294Y1407171D01*
X1145387Y1396646D01*
X1157908Y1377908D01*
X1176646Y1365387D01*
X1198750Y1360990D01*
X1237300D01*
Y1450000D01*
Y1539010D01*
D02*
G37*
G36*
X1521250D02*
X1482700D01*
Y1462700D01*
X1579010D01*
Y1481250D01*
X1574613Y1503354D01*
X1562092Y1522092D01*
X1543354Y1534613D01*
X1521250Y1539010D01*
D02*
G37*
G36*
X516500Y1670224D02*
X391500D01*
X367113Y1665374D01*
X346440Y1651560D01*
X332626Y1630886D01*
X327775Y1606500D01*
Y1521500D01*
X332626Y1497114D01*
X346440Y1476440D01*
X367113Y1462626D01*
X391500Y1457776D01*
X516500D01*
X540886Y1462626D01*
X561560Y1476440D01*
X575374Y1497114D01*
X580224Y1521500D01*
Y1606500D01*
X575374Y1630886D01*
X561560Y1651560D01*
X540886Y1665374D01*
X516500Y1670224D01*
D02*
G37*
G36*
X960000Y1714073D02*
X920000D01*
X904393Y1710968D01*
X891162Y1702128D01*
X882321Y1688897D01*
X879217Y1673289D01*
Y1633289D01*
X882321Y1617682D01*
X891162Y1604451D01*
X898601Y1599480D01*
X894050Y1584480D01*
X870000D01*
X854237Y1581345D01*
X840873Y1572416D01*
X831944Y1559052D01*
X828809Y1543289D01*
Y1540989D01*
X836449D01*
X836210Y1541903D01*
X837566Y1541216D01*
X838178Y1540989D01*
X849781D01*
X851834Y1541883D01*
X853797Y1543182D01*
X855198Y1544680D01*
X856039Y1546378D01*
X856320Y1548275D01*
X856320Y1540989D01*
X890000D01*
Y1528289D01*
X902700D01*
Y1472098D01*
X910000D01*
X925763Y1475233D01*
X939127Y1484162D01*
X942261Y1488853D01*
X942654Y1488926D01*
X946366Y1487177D01*
X946976Y1486686D01*
X952031Y1468656D01*
X949314Y1455000D01*
Y1425000D01*
X952031Y1411344D01*
X959766Y1399767D01*
X956770Y1386130D01*
X952266Y1381679D01*
X948598Y1381730D01*
X944629Y1381904D01*
X937125Y1382633D01*
X934484Y1383066D01*
X932105Y1383585D01*
X930235Y1384116D01*
X928894Y1384603D01*
X928098Y1384972D01*
X926734Y1385776D01*
X923746Y1386198D01*
X923656Y1386258D01*
X910000Y1388975D01*
X870000D01*
X862283Y1394131D01*
X860814Y1401516D01*
X851421Y1415573D01*
X837363Y1424967D01*
X820780Y1428265D01*
X804198Y1424967D01*
X790140Y1415573D01*
X780746Y1401516D01*
X777448Y1384933D01*
X780746Y1368350D01*
X790140Y1354292D01*
X804198Y1344899D01*
X820780Y1341601D01*
X822719Y1341986D01*
X834314Y1332471D01*
Y1323289D01*
X837031Y1309633D01*
X844766Y1298056D01*
X856344Y1290320D01*
X870000Y1287603D01*
X910000D01*
X923656Y1290320D01*
X935234Y1298056D01*
X942969Y1309633D01*
X944207Y1315857D01*
X954397Y1321704D01*
X959628Y1323482D01*
X959850Y1323381D01*
X966467Y1323159D01*
X968500Y1322974D01*
X973168Y1322239D01*
X974593Y1321902D01*
X975995Y1321484D01*
X977131Y1321065D01*
X978010Y1320671D01*
X979422Y1319904D01*
X982684Y1319561D01*
X984687Y1318223D01*
X1001269Y1314925D01*
X1017852Y1318223D01*
X1031910Y1327617D01*
X1041303Y1341674D01*
X1044602Y1358257D01*
X1041303Y1374840D01*
X1037370Y1380726D01*
X1036698Y1387434D01*
X1038134Y1395583D01*
X1039187Y1398451D01*
X1040234Y1399767D01*
X1047969Y1411344D01*
X1050686Y1425000D01*
Y1455000D01*
X1047969Y1468656D01*
X1041910Y1477725D01*
X1040234Y1480234D01*
X1043977Y1495773D01*
X1044127Y1495873D01*
X1053056Y1509237D01*
X1056191Y1525000D01*
Y1527300D01*
X1000000D01*
Y1552700D01*
X1056191D01*
Y1555000D01*
X1053056Y1570763D01*
X1044127Y1584126D01*
X1030763Y1593055D01*
X1025980Y1594007D01*
Y1609301D01*
X1028554Y1609813D01*
X1042612Y1619206D01*
X1052005Y1633264D01*
X1055304Y1649847D01*
X1052005Y1666429D01*
X1042612Y1680487D01*
X1028554Y1689881D01*
X1011971Y1693179D01*
X996830Y1690168D01*
X988839Y1702128D01*
X975607Y1710968D01*
X960000Y1714073D01*
D02*
G37*
G36*
X1579010Y1437300D02*
X1482700D01*
Y1360990D01*
X1521250D01*
X1543354Y1365387D01*
X1562092Y1377908D01*
X1574613Y1396646D01*
X1579010Y1418750D01*
Y1437300D01*
D02*
G37*
G36*
X1065000Y1293332D02*
X1048418Y1290034D01*
X1034360Y1280641D01*
X1024966Y1266583D01*
X1021668Y1250000D01*
X1024966Y1233417D01*
X1034360Y1219360D01*
X1048418Y1209966D01*
X1065000Y1206668D01*
X1081583Y1209966D01*
X1095641Y1219360D01*
X1105034Y1233417D01*
X1108333Y1250000D01*
X1105034Y1266583D01*
X1095641Y1280641D01*
X1081583Y1290034D01*
X1065000Y1293332D01*
D02*
G37*
G36*
X1420000Y1248038D02*
X1409270Y1245904D01*
X1400174Y1239826D01*
X1394096Y1230730D01*
X1393295Y1226705D01*
X1389270Y1225904D01*
X1380174Y1219826D01*
X1374096Y1210730D01*
X1371961Y1200000D01*
X1374096Y1189270D01*
X1380174Y1180174D01*
X1389270Y1174096D01*
X1393295Y1173295D01*
X1394096Y1169270D01*
X1400174Y1160173D01*
X1409270Y1154095D01*
X1420000Y1151961D01*
X1430730Y1154095D01*
X1439826Y1160173D01*
X1445904Y1169270D01*
X1446705Y1173295D01*
X1450730Y1174096D01*
X1459826Y1180174D01*
X1465904Y1189270D01*
X1468039Y1200000D01*
X1465904Y1210730D01*
X1459826Y1219826D01*
X1450730Y1225904D01*
X1446705Y1226705D01*
X1445904Y1230730D01*
X1439826Y1239826D01*
X1430730Y1245904D01*
X1420000Y1248038D01*
D02*
G37*
G36*
X1254246Y1159087D02*
X1237663Y1155788D01*
X1223605Y1146395D01*
X1214212Y1132337D01*
X1210914Y1115754D01*
X1214212Y1099172D01*
X1223605Y1085114D01*
X1237663Y1075720D01*
X1254246Y1072422D01*
X1270829Y1075720D01*
X1284886Y1085114D01*
X1294280Y1099172D01*
X1297578Y1115754D01*
X1294280Y1132337D01*
X1284886Y1146395D01*
X1270829Y1155788D01*
X1254246Y1159087D01*
D02*
G37*
G36*
X900000Y564480D02*
X892700D01*
Y520989D01*
X941191D01*
Y523289D01*
X938056Y539052D01*
X929127Y552416D01*
X915763Y561345D01*
X900000Y564480D01*
D02*
G37*
G36*
X867300D02*
X860000D01*
X844237Y561345D01*
X830873Y552416D01*
X821944Y539052D01*
X818809Y523289D01*
Y520989D01*
X841143D01*
X841910Y521296D01*
X843697Y522382D01*
X844974Y523634D01*
X845739Y525054D01*
X845994Y526641D01*
Y520989D01*
X867300D01*
Y564480D01*
D02*
G37*
G36*
Y495589D02*
X845994D01*
Y489938D01*
X845739Y491525D01*
X844973Y492945D01*
X843697Y494197D01*
X841910Y495283D01*
X841145Y495589D01*
X818809D01*
Y493289D01*
X821944Y477526D01*
X830873Y464162D01*
X844237Y455233D01*
X860000Y452098D01*
X867300D01*
Y495589D01*
D02*
G37*
G36*
X941191D02*
X892700D01*
Y452098D01*
X900000D01*
X915763Y455233D01*
X926260Y462247D01*
X929126Y464162D01*
X939305Y454297D01*
X936944Y450763D01*
X933809Y435000D01*
Y432700D01*
X977300D01*
Y476191D01*
X975000D01*
X959237Y473055D01*
X948740Y466042D01*
X945874Y464127D01*
X935695Y473992D01*
X938056Y477526D01*
X941191Y493289D01*
Y495589D01*
D02*
G37*
G36*
X2877300Y375646D02*
X2876098Y375130D01*
X2871758Y372875D01*
X2867400Y370224D01*
X2863025Y367176D01*
X2861054Y365631D01*
X2859637Y363709D01*
X2859615Y363673D01*
X2868384Y357814D01*
X2877300Y356041D01*
Y375646D01*
D02*
G37*
G36*
X2792700Y375647D02*
Y356041D01*
X2801616Y357814D01*
X2809944Y363378D01*
X2809014Y364847D01*
X2807903Y366409D01*
X2806977Y367176D01*
X2802601Y370224D01*
X2798244Y372875D01*
X2793903Y375130D01*
X2792700Y375647D01*
D02*
G37*
G36*
X2547300Y375682D02*
X2545943Y375085D01*
X2541554Y372749D01*
X2537111Y369985D01*
X2532612Y366793D01*
X2531931Y366251D01*
X2530644Y364321D01*
X2530095Y363353D01*
X2538384Y357814D01*
X2547300Y356041D01*
Y375682D01*
D02*
G37*
G36*
X2767300Y397300D02*
X2726041D01*
X2727815Y388384D01*
X2740059Y370058D01*
X2758384Y357814D01*
X2767300Y356041D01*
Y397300D01*
D02*
G37*
G36*
X2613959D02*
X2572700D01*
Y356041D01*
X2581616Y357814D01*
X2599941Y370058D01*
X2612186Y388384D01*
X2613959Y397300D01*
D02*
G37*
G36*
X1005000Y476191D02*
X1002700D01*
Y420000D01*
X990000D01*
Y407300D01*
X933809D01*
Y405000D01*
X936944Y389236D01*
X945873Y375873D01*
X944459Y361942D01*
X936948Y354501D01*
X935688Y354983D01*
X931992Y356745D01*
X922475Y362104D01*
X917441Y365341D01*
X914136Y365938D01*
X913656Y366258D01*
X910124Y366961D01*
X905734Y368780D01*
X904192Y368141D01*
X900000Y368975D01*
X874109D01*
X862625Y383975D01*
X863872Y390244D01*
X860573Y406827D01*
X851180Y420885D01*
X837122Y430278D01*
X820539Y433577D01*
X803957Y430278D01*
X789899Y420885D01*
X780505Y406827D01*
X777207Y390244D01*
X780505Y373662D01*
X789899Y359604D01*
X803957Y350210D01*
X812065Y348597D01*
X823992Y334000D01*
X824314Y332369D01*
Y303289D01*
X827031Y289633D01*
X834766Y278056D01*
X846344Y270320D01*
X860000Y267603D01*
X900000D01*
X904192Y268437D01*
X905734Y267799D01*
X910124Y269617D01*
X913656Y270320D01*
X914136Y270641D01*
X917441Y271237D01*
X922664Y274596D01*
X927131Y277233D01*
X936198Y281822D01*
X938762Y282886D01*
X940807Y282107D01*
X944470Y280471D01*
X953165Y275748D01*
X957632Y272902D01*
X960905Y272324D01*
X961344Y272031D01*
X965088Y271286D01*
X969518Y269511D01*
X970944Y270121D01*
X975000Y269314D01*
X1005000D01*
X1018656Y272031D01*
X1030233Y279766D01*
X1032918Y280300D01*
X1033417Y279966D01*
X1050000Y276668D01*
X1066583Y279966D01*
X1080640Y289360D01*
X1090034Y303417D01*
X1093332Y320000D01*
X1090034Y336583D01*
X1080640Y350641D01*
X1066583Y360034D01*
X1050000Y363333D01*
X1047162Y362768D01*
X1038010Y376242D01*
X1042641Y384989D01*
X1045796Y385845D01*
X1055162Y386932D01*
X1057792Y386432D01*
X1069012Y378935D01*
X1085595Y375636D01*
X1102177Y378935D01*
X1116235Y388328D01*
X1125629Y402386D01*
X1128927Y418969D01*
X1125629Y435551D01*
X1116235Y449609D01*
X1102177Y459003D01*
X1085595Y462301D01*
X1069012Y459003D01*
X1058154Y451747D01*
X1054465Y451507D01*
X1045249Y453052D01*
X1040370Y454782D01*
X1034127Y464126D01*
X1020763Y473055D01*
X1005000Y476191D01*
D02*
G37*
G36*
X516500Y405730D02*
X466700D01*
Y306700D01*
X558754D01*
Y331500D01*
X559257Y326750D01*
X560766Y322500D01*
X563282Y318750D01*
X566803Y315500D01*
X571330Y312750D01*
X576864Y310500D01*
X583403Y308750D01*
X585730Y308365D01*
Y336500D01*
X580460Y362993D01*
X565453Y385453D01*
X542993Y400460D01*
X516500Y405730D01*
D02*
G37*
G36*
X441300D02*
X391500D01*
X365006Y400460D01*
X342547Y385453D01*
X327539Y362993D01*
X322270Y336500D01*
Y306700D01*
X441300D01*
Y405730D01*
D02*
G37*
G36*
X2814999Y308038D02*
X2745000D01*
X2734270Y305904D01*
X2725174Y299826D01*
X2719096Y290730D01*
X2716962Y280000D01*
X2719096Y269270D01*
X2725174Y260173D01*
X2734270Y254096D01*
X2745000Y251961D01*
X2814999D01*
X2825729Y254096D01*
X2834825Y260173D01*
X2840903Y269270D01*
X2843037Y280000D01*
X2840903Y290730D01*
X2834825Y299826D01*
X2825729Y305904D01*
X2814999Y308038D01*
D02*
G37*
G36*
X737300Y256192D02*
X735000D01*
X719237Y253056D01*
X717777Y252081D01*
X720497Y250052D01*
X726999Y245783D01*
X733726Y241926D01*
X737300Y240156D01*
Y256192D01*
D02*
G37*
G36*
X1420002Y328038D02*
X1409272Y325904D01*
X1400176Y319826D01*
X1394098Y310730D01*
X1393297Y306705D01*
X1389270Y305904D01*
X1380174Y299826D01*
X1374096Y290730D01*
X1371961Y280000D01*
X1374096Y269270D01*
X1380174Y260173D01*
X1389270Y254096D01*
X1393297Y253294D01*
X1394098Y249270D01*
X1400176Y240174D01*
X1409272Y234096D01*
X1420002Y231961D01*
X1430732Y234096D01*
X1439828Y240174D01*
X1445906Y249270D01*
X1446707Y253295D01*
X1450730Y254096D01*
X1459826Y260173D01*
X1465904Y269270D01*
X1468039Y280000D01*
X1465904Y290730D01*
X1459826Y299826D01*
X1450730Y305904D01*
X1446707Y306704D01*
X1445906Y310730D01*
X1439828Y319826D01*
X1430732Y325904D01*
X1420002Y328038D01*
D02*
G37*
G36*
X765000Y256192D02*
X762700D01*
Y230686D01*
X762882Y230633D01*
X770734Y228843D01*
X762700Y220809D01*
Y212700D01*
X806191D01*
Y215000D01*
X803056Y230763D01*
X794127Y244127D01*
X780763Y253056D01*
X765000Y256192D01*
D02*
G37*
%LPD*%
G36*
X740610Y1633289D02*
X740188Y1637089D01*
X738965Y1640488D01*
X736939Y1643488D01*
X734112Y1646089D01*
X730482Y1648289D01*
X726051Y1650089D01*
X720817Y1651488D01*
X714782Y1652488D01*
X712489Y1652690D01*
X711277Y1652535D01*
X706709Y1651593D01*
X701999Y1650274D01*
X697145Y1648578D01*
X692149Y1646505D01*
X681727Y1641230D01*
X676302Y1638026D01*
X670734Y1634447D01*
Y1692131D01*
X676302Y1688551D01*
X687010Y1682522D01*
X692150Y1680072D01*
X702000Y1676303D01*
X706710Y1674984D01*
X711277Y1674042D01*
X712506Y1673885D01*
X714705Y1674076D01*
X720705Y1675061D01*
X725905Y1676440D01*
X730305Y1678213D01*
X733905Y1680379D01*
X736705Y1682939D01*
X738705Y1685894D01*
X739905Y1689242D01*
X740305Y1692984D01*
X740610Y1633289D01*
D02*
G37*
G36*
X675263Y1536987D02*
X669233Y1526280D01*
X666784Y1521141D01*
X663016Y1511291D01*
X661697Y1506580D01*
X660755Y1502013D01*
X660190Y1497588D01*
X660154Y1496787D01*
X660200Y1494880D01*
X660800Y1487457D01*
X661800Y1481003D01*
X663200Y1475519D01*
X665000Y1471003D01*
X667200Y1467458D01*
X669800Y1464881D01*
X672800Y1463274D01*
X676200Y1462636D01*
X680000Y1462967D01*
X636157Y1454023D01*
X636887Y1455511D01*
X637541Y1457673D01*
X638117Y1460511D01*
X638617Y1464025D01*
X639385Y1473076D01*
X639962Y1491717D01*
X639973Y1493949D01*
X639813Y1497588D01*
X639247Y1502011D01*
X638305Y1506579D01*
X636986Y1511289D01*
X635290Y1516143D01*
X633217Y1521139D01*
X627941Y1531561D01*
X624738Y1536987D01*
X621158Y1542555D01*
X678842D01*
X675263Y1536987D01*
D02*
G37*
G36*
X1387843Y1420000D02*
X1387440Y1423800D01*
X1386231Y1427200D01*
X1384215Y1430200D01*
X1381394Y1432800D01*
X1377767Y1435000D01*
X1373333Y1436800D01*
X1368094Y1438200D01*
X1362048Y1439200D01*
X1360000Y1439379D01*
X1357952Y1439200D01*
X1351907Y1438200D01*
X1346667Y1436800D01*
X1342234Y1435000D01*
X1338606Y1432800D01*
X1335785Y1430200D01*
X1333769Y1427200D01*
X1332560Y1423800D01*
X1332157Y1420000D01*
Y1480000D01*
X1332560Y1476199D01*
X1333769Y1472800D01*
X1335785Y1469800D01*
X1338606Y1467200D01*
X1342234Y1465000D01*
X1346667Y1463200D01*
X1351907Y1461800D01*
X1357952Y1460800D01*
X1360000Y1460620D01*
X1362048Y1460800D01*
X1368094Y1461800D01*
X1373333Y1463200D01*
X1377767Y1465000D01*
X1381394Y1467200D01*
X1384215Y1469800D01*
X1386231Y1472800D01*
X1387440Y1476199D01*
X1387843Y1480000D01*
Y1420000D01*
D02*
G37*
G36*
X979881Y1672223D02*
X980779Y1670512D01*
X982296Y1669001D01*
X984432Y1667693D01*
X987188Y1666586D01*
X990562Y1665680D01*
X992886Y1665269D01*
X993593Y1665397D01*
X995159Y1665804D01*
X996347Y1666265D01*
X997156Y1666781D01*
X996997Y1664708D01*
X999167Y1664472D01*
X1010249Y1664069D01*
Y1639069D01*
X1004324Y1638968D01*
X994963Y1638214D01*
X994745Y1635373D01*
X993936Y1636075D01*
X992750Y1636704D01*
X991188Y1637258D01*
X990335Y1637469D01*
X990270Y1637458D01*
X986827Y1636552D01*
X984004Y1635445D01*
X981801Y1634136D01*
X980220Y1632626D01*
X979258Y1630915D01*
X978918Y1629002D01*
X979066Y1638822D01*
X973916Y1639032D01*
X969721Y1639069D01*
X972036Y1664069D01*
X976251Y1664096D01*
X979453Y1664293D01*
X979602Y1674136D01*
X979881Y1672223D01*
D02*
G37*
G36*
X979266Y1511157D02*
X976871Y1512512D01*
X973953Y1513724D01*
X970513Y1514794D01*
X966551Y1515721D01*
X962067Y1516505D01*
X954999Y1517271D01*
X951709Y1516592D01*
X946998Y1515273D01*
X942145Y1513577D01*
X937148Y1511505D01*
X926727Y1506229D01*
X921302Y1503026D01*
X915734Y1499447D01*
Y1557132D01*
X921303Y1553551D01*
X932011Y1547521D01*
X937151Y1545071D01*
X947000Y1541302D01*
X951711Y1539983D01*
X951721Y1539981D01*
X952379Y1540082D01*
X957914Y1541478D01*
X962489Y1543273D01*
X966104Y1545466D01*
X968760Y1548058D01*
X970457Y1551049D01*
X971193Y1554439D01*
X970970Y1558228D01*
X979266Y1511157D01*
D02*
G37*
G36*
X1020147Y1412634D02*
X1017625Y1411604D01*
X1015401Y1409927D01*
X1013473Y1407600D01*
X1011842Y1404625D01*
X1010507Y1401000D01*
X1009468Y1396728D01*
X1008808Y1392342D01*
X1008892Y1391478D01*
X1009482Y1388381D01*
X1010240Y1385521D01*
X1011167Y1382897D01*
X1012262Y1380509D01*
X1013526Y1378358D01*
X1014958Y1376443D01*
X1016559Y1374764D01*
X985072Y1373874D01*
X986604Y1375658D01*
X987974Y1377664D01*
X989183Y1379893D01*
X990231Y1382345D01*
X991118Y1385020D01*
X991844Y1387917D01*
X992408Y1391038D01*
X992510Y1391881D01*
X991799Y1396532D01*
X990761Y1400728D01*
X989426Y1404270D01*
X987795Y1407158D01*
X985867Y1409392D01*
X983642Y1410972D01*
X981121Y1411897D01*
X978303Y1412168D01*
X1022964Y1413014D01*
X1020147Y1412634D01*
D02*
G37*
G36*
X989751Y1338929D02*
X987620Y1340086D01*
X985315Y1341121D01*
X982835Y1342034D01*
X980180Y1342825D01*
X977350Y1343495D01*
X971165Y1344469D01*
X967811Y1344774D01*
X960577Y1345017D01*
X956338Y1360017D01*
X960200Y1360111D01*
X963767Y1360392D01*
X967040Y1360860D01*
X970019Y1361516D01*
X972704Y1362359D01*
X975095Y1363390D01*
X977191Y1364608D01*
X978993Y1366014D01*
X980501Y1367606D01*
X981715Y1369387D01*
X989751Y1338929D01*
D02*
G37*
G36*
X918025Y1365780D02*
X920639Y1364570D01*
X923576Y1363503D01*
X926836Y1362578D01*
X930419Y1361796D01*
X934325Y1361155D01*
X943106Y1360302D01*
X947980Y1360088D01*
X953178Y1360017D01*
X954983Y1345017D01*
X948574Y1344867D01*
X942916Y1344417D01*
X938009Y1343667D01*
X933853Y1342617D01*
X930447Y1341267D01*
X927792Y1339617D01*
X925887Y1337667D01*
X924733Y1335417D01*
X924330Y1332867D01*
X924678Y1330017D01*
X915734Y1367132D01*
X918025Y1365780D01*
D02*
G37*
G36*
X969266Y291157D02*
X964159Y294412D01*
X954066Y299894D01*
X949081Y302121D01*
X944136Y304005D01*
X939231Y305547D01*
X938563Y305711D01*
X936998Y305273D01*
X932144Y303577D01*
X927148Y301505D01*
X916727Y296229D01*
X911302Y293026D01*
X905734Y289447D01*
Y347132D01*
X911303Y343551D01*
X922011Y337521D01*
X927151Y335071D01*
X937000Y331302D01*
X941711Y329983D01*
X942494Y329822D01*
X944893Y330065D01*
X951224Y331447D01*
X956573Y333224D01*
X960941Y335396D01*
X964329Y337963D01*
X966735Y340925D01*
X968160Y344282D01*
X968605Y348034D01*
X969266Y291157D01*
D02*
G37*
G36*
X1017727Y339997D02*
X1018705Y337899D01*
X1020335Y336047D01*
X1022617Y334443D01*
X1025551Y333085D01*
X1027857Y332370D01*
X1029171Y332817D01*
X1031064Y333680D01*
X1032651Y334657D01*
X1033931Y335750D01*
X1033931Y331040D01*
X1038264Y330493D01*
X1043806Y330123D01*
X1049999Y329999D01*
Y309999D01*
X1043805Y309876D01*
X1033932Y308941D01*
X1033932Y304250D01*
X1032652Y305342D01*
X1031065Y306319D01*
X1029172Y307182D01*
X1027858Y307629D01*
X1025550Y306914D01*
X1022616Y305556D01*
X1020335Y303951D01*
X1018705Y302100D01*
X1017726Y300002D01*
X1017401Y297657D01*
X1017401Y309555D01*
X1011382Y309942D01*
X1007345Y309999D01*
X1007344Y329999D01*
X1011381Y330057D01*
X1017401Y330562D01*
X1017401Y342342D01*
X1017727Y339997D01*
D02*
G37*
%LPC*%
G36*
X2508107Y1751895D02*
X2502804Y1746591D01*
X2502700Y1746693D01*
Y1733884D01*
X2504788Y1734299D01*
X2513096Y1739850D01*
X2512824Y1740645D01*
X2512132Y1741995D01*
X2511314Y1743045D01*
X2510371Y1743795D01*
X2509302Y1744245D01*
X2508107Y1744395D01*
Y1751895D01*
D02*
G37*
G36*
X2120000Y1563332D02*
X2103417Y1560034D01*
X2089360Y1550641D01*
X2079966Y1536583D01*
X2076668Y1520000D01*
X2079966Y1503417D01*
X2089360Y1489359D01*
X2103417Y1479966D01*
X2120000Y1476668D01*
X2136583Y1479966D01*
X2150641Y1489359D01*
X2160034Y1503417D01*
X2163332Y1520000D01*
X2160034Y1536583D01*
X2150641Y1550641D01*
X2136583Y1560034D01*
X2120000Y1563332D01*
D02*
G37*
G36*
X1859818Y1305609D02*
X1856678Y1302386D01*
X1852230Y1297131D01*
X1855776Y1293809D01*
X1854107Y1293627D01*
X1852302Y1293152D01*
X1850361Y1292385D01*
X1848284Y1291325D01*
X1846279Y1290100D01*
X1844221Y1287668D01*
X1841577Y1283669D01*
X1841061Y1282700D01*
X1866191D01*
Y1285000D01*
X1863056Y1300763D01*
X1859818Y1305609D01*
D02*
G37*
G36*
X1866191Y1257300D02*
X1822700D01*
Y1213809D01*
X1825000D01*
X1840763Y1216944D01*
X1854127Y1225873D01*
X1863056Y1239237D01*
X1866191Y1255000D01*
Y1257300D01*
D02*
G37*
G36*
X2877300Y1123959D02*
X2868384Y1122185D01*
X2859212Y1116057D01*
X2862615Y1113208D01*
X2867114Y1110016D01*
X2871557Y1107251D01*
X2875945Y1104915D01*
X2877300Y1104319D01*
Y1123959D01*
D02*
G37*
G36*
X2792700D02*
Y1104319D01*
X2794056Y1104915D01*
X2798444Y1107251D01*
X2802887Y1110015D01*
X2804552Y1111197D01*
X2805182Y1112253D01*
X2806209Y1114336D01*
X2806937Y1116285D01*
X2807368Y1118098D01*
X2807387Y1118330D01*
X2801616Y1122185D01*
X2792700Y1123959D01*
D02*
G37*
G36*
X2767300D02*
X2758384Y1122185D01*
X2740059Y1109941D01*
X2727815Y1091616D01*
X2726041Y1082700D01*
X2767300D01*
Y1123959D01*
D02*
G37*
G36*
X2572700D02*
Y1082700D01*
X2613959D01*
X2612186Y1091616D01*
X2599941Y1109941D01*
X2581616Y1122185D01*
X2572700Y1123959D01*
D02*
G37*
%LPD*%
D10*
X750000Y2025000D02*
D03*
Y1875000D02*
D03*
X1880001Y1875000D02*
D03*
Y2025000D02*
D03*
D11*
X780000Y2130000D02*
D03*
X680000D02*
D03*
X780000Y2230000D02*
D03*
X680000D02*
D03*
X1920000Y1760000D02*
D03*
X1820000D02*
D03*
X2090000Y2410000D02*
D03*
X2190000D02*
D03*
X1870002Y2130001D02*
D03*
X1770002D02*
D03*
X1710000Y1270000D02*
D03*
X1810000D02*
D03*
X650000Y200000D02*
D03*
X750000D02*
D03*
D12*
X660000Y2330000D02*
D03*
Y2430000D02*
D03*
X650000Y1663289D02*
D03*
Y1563289D02*
D03*
X2550000Y1610000D02*
D03*
Y1510000D02*
D03*
X2750000Y1610000D02*
D03*
Y1510000D02*
D03*
X2650000Y1610000D02*
D03*
Y1510000D02*
D03*
X2280000Y1370000D02*
D03*
Y1270000D02*
D03*
X2380000Y1370000D02*
D03*
Y1270000D02*
D03*
X1000000Y1440000D02*
D03*
Y1540000D02*
D03*
X990000Y940000D02*
D03*
Y1040000D02*
D03*
X650000Y1173289D02*
D03*
Y1073289D02*
D03*
X1850000Y1630000D02*
D03*
Y1530000D02*
D03*
X990000Y320000D02*
D03*
Y420000D02*
D03*
X640000Y663289D02*
D03*
Y563289D02*
D03*
X1750001Y1630000D02*
D03*
Y1530000D02*
D03*
X1740000Y1930000D02*
D03*
Y2030000D02*
D03*
X1350000Y850000D02*
D03*
Y750000D02*
D03*
D13*
X1250000Y1450000D02*
D03*
Y1730000D02*
D03*
X1470000Y1450000D02*
D03*
Y1730000D02*
D03*
D14*
X965000Y1885000D02*
D03*
D15*
X1015000D02*
D03*
X1065000D02*
D03*
X1115000D02*
D03*
Y2175000D02*
D03*
X1065000D02*
D03*
X1015000D02*
D03*
X965000D02*
D03*
D16*
X1185000Y1955000D02*
D03*
Y2005000D02*
D03*
Y2055000D02*
D03*
Y2105000D02*
D03*
X895000D02*
D03*
Y2055000D02*
D03*
Y2005000D02*
D03*
Y1955000D02*
D03*
D17*
X1040000Y2030000D02*
D03*
D18*
X2040000Y2270000D02*
D03*
X2540000D02*
D03*
X2090000Y2220000D02*
D03*
Y1820000D02*
D03*
X2040000Y1770000D02*
D03*
X2540000D02*
D03*
X2490000Y2220000D02*
D03*
D19*
X2090000Y2270000D02*
D03*
X2140000D02*
D03*
X2190000D02*
D03*
X2240000D02*
D03*
X2290000D02*
D03*
X2340000D02*
D03*
X2390000D02*
D03*
X2440000D02*
D03*
X2490000D02*
D03*
X2040000Y2220000D02*
D03*
X2140000D02*
D03*
X2190000D02*
D03*
X2240000D02*
D03*
X2290000D02*
D03*
X2340000D02*
D03*
X2390000D02*
D03*
X2440000D02*
D03*
X2540000D02*
D03*
X2040000Y2170000D02*
D03*
X2090000D02*
D03*
X2490000D02*
D03*
X2540000D02*
D03*
X2040000Y2120000D02*
D03*
X2090000D02*
D03*
X2190000D02*
D03*
X2240000D02*
D03*
X2290000D02*
D03*
X2340000D02*
D03*
X2390000D02*
D03*
X2490000D02*
D03*
X2540000D02*
D03*
X2040000Y2070000D02*
D03*
X2090000D02*
D03*
X2190000D02*
D03*
X2390000D02*
D03*
X2490000D02*
D03*
X2540000D02*
D03*
X2040000Y2020000D02*
D03*
X2090000D02*
D03*
X2190000D02*
D03*
X2390000D02*
D03*
X2490000D02*
D03*
X2540000D02*
D03*
X2040000Y1970000D02*
D03*
X2090000D02*
D03*
X2190000D02*
D03*
X2390000D02*
D03*
X2490000D02*
D03*
X2540000D02*
D03*
X2040000Y1920000D02*
D03*
X2090000D02*
D03*
X2190000D02*
D03*
X2240000D02*
D03*
X2290000D02*
D03*
X2340000D02*
D03*
X2390000D02*
D03*
X2490000D02*
D03*
X2540000D02*
D03*
X2040000Y1870000D02*
D03*
X2090000D02*
D03*
X2490000D02*
D03*
X2540000D02*
D03*
X2040000Y1820000D02*
D03*
X2140000D02*
D03*
X2190000D02*
D03*
X2240000D02*
D03*
X2290000D02*
D03*
X2340000D02*
D03*
X2390000D02*
D03*
X2440000D02*
D03*
X2540000D02*
D03*
X2090000Y1770000D02*
D03*
X2140000D02*
D03*
X2190000D02*
D03*
X2240000D02*
D03*
X2290000D02*
D03*
X2340000D02*
D03*
X2390000D02*
D03*
X2440000D02*
D03*
X2490000D02*
D03*
D20*
X2890000Y1070000D02*
D03*
X2780000D02*
D03*
X2560000D02*
D03*
X2450000D02*
D03*
X2340000D02*
D03*
X2230000D02*
D03*
X2120000D02*
D03*
X2010000D02*
D03*
X1900000D02*
D03*
X1790000D02*
D03*
X1680000D02*
D03*
X1570000D02*
D03*
X2560000Y960000D02*
D03*
X2450000D02*
D03*
X2340000D02*
D03*
X2230000D02*
D03*
X2120000D02*
D03*
X2010000D02*
D03*
X1900000D02*
D03*
X1790000D02*
D03*
X1680000D02*
D03*
X1570000D02*
D03*
X2560000Y850000D02*
D03*
X2450000D02*
D03*
X2340000D02*
D03*
X2230000D02*
D03*
X2120000D02*
D03*
X2010000D02*
D03*
X1900000D02*
D03*
X1790000D02*
D03*
X1680000D02*
D03*
X1570000D02*
D03*
X2560000Y740000D02*
D03*
X2450000D02*
D03*
X2340000D02*
D03*
X2230000D02*
D03*
X2120000D02*
D03*
X2010000D02*
D03*
X1900000D02*
D03*
X1790000D02*
D03*
X1680000D02*
D03*
X1570000D02*
D03*
X2560000Y630000D02*
D03*
X2450000D02*
D03*
X2340000D02*
D03*
X2230000D02*
D03*
X2120000D02*
D03*
X2010000D02*
D03*
X1900000D02*
D03*
X1790000D02*
D03*
X1680000D02*
D03*
X1570000D02*
D03*
X2560000Y520000D02*
D03*
X2450000D02*
D03*
X2340000D02*
D03*
X2230000D02*
D03*
X2120000D02*
D03*
X2010000D02*
D03*
X1900000D02*
D03*
X1790000D02*
D03*
X1680000D02*
D03*
X1570000D02*
D03*
X2890000Y410000D02*
D03*
X2780000D02*
D03*
X2560000D02*
D03*
X2450000D02*
D03*
X2340000D02*
D03*
X2230000D02*
D03*
X2120000D02*
D03*
X2010000D02*
D03*
X1900000D02*
D03*
X1790000D02*
D03*
X1680000D02*
D03*
X1570000D02*
D03*
D21*
X890000Y1338289D02*
D03*
Y1528289D02*
D03*
X670000Y1433289D02*
D03*
X880000Y828289D02*
D03*
Y1018289D02*
D03*
X660000Y923289D02*
D03*
X880000Y318289D02*
D03*
Y508289D02*
D03*
X660000Y413289D02*
D03*
D22*
X940000Y1653289D02*
D03*
X930000Y1153289D02*
D03*
Y643289D02*
D03*
D23*
X780000Y1653289D02*
D03*
X770000Y1153289D02*
D03*
Y643289D02*
D03*
D24*
X1100000Y2380000D02*
D03*
D25*
X800000D02*
D03*
D26*
X2690000Y2070000D02*
D03*
Y2230000D02*
D03*
D27*
X2380000Y1370000D02*
X2380000Y1370000D01*
X2380000Y1370000D02*
Y1450000D01*
X2140001Y2220001D02*
X2140644Y2219357D01*
Y2184300D02*
Y2219357D01*
Y2184300D02*
X2141288Y2183656D01*
X2125000Y1854928D02*
Y1919477D01*
X2090429Y1919570D02*
X2119167D01*
X2090073Y1820000D02*
X2125000Y1854928D01*
X2119167Y1919570D02*
X2124907D01*
X2040000Y1770000D02*
X2090000Y1820000D01*
X2040000Y1870000D02*
X2090000Y1820000D01*
X2124907Y1919570D02*
X2125000Y1919477D01*
X2040001Y1739991D02*
X2069996Y1709997D01*
X2540002Y2169998D02*
X2541624D01*
X2490000Y2220000D02*
X2540002Y2169998D01*
X2490000Y2220000D02*
X2539998Y2269998D01*
X2139998D02*
X2140001D01*
X2090000Y2220000D02*
X2139998Y2269998D01*
X2040000Y2270000D02*
X2090000Y2220000D01*
X1336071Y646071D02*
X1541753D01*
X1305740Y615740D02*
X1336071Y646071D01*
X1557822Y630001D02*
X1569999D01*
X1541753Y646071D02*
X1557822Y630001D01*
X1280000Y670000D02*
X1288118D01*
X1300619Y682501D02*
X1737499D01*
X1288118Y670000D02*
X1300619Y682501D01*
X2091581Y2121584D02*
X2130382D01*
X2131965Y2123167D01*
X2089998Y2120001D02*
X2091581Y2121584D01*
X2119167Y1925311D02*
Y1940830D01*
X2089998Y1920001D02*
X2090429Y1919570D01*
X2119167Y1925311D02*
X2124907Y1919570D01*
X2089998Y1969999D02*
X2119167Y1940830D01*
X1090000Y970000D02*
X1260000D01*
X1059999Y939999D02*
X1090000Y970000D01*
X2737322Y1497320D02*
X2750002Y1510000D01*
X2737322Y1469647D02*
Y1497320D01*
X2700000Y1420000D02*
X2737312Y1457312D01*
Y1469637D01*
X2737322Y1469647D01*
X2280001Y1370000D02*
X2293341Y1383341D01*
Y1423341D02*
X2320000Y1450000D01*
X2293341Y1383341D02*
Y1423341D01*
X1949999Y2199959D02*
X1953880Y2196078D01*
X1989463Y2246418D02*
X1995204Y2240678D01*
X1953880Y2196078D02*
X2002500D01*
X1995204Y2240678D02*
X2019323D01*
X2192103Y2212195D02*
Y2217896D01*
X2197562Y2190870D02*
Y2206735D01*
X2189998Y2220001D02*
X2192103Y2217896D01*
Y2212195D02*
X2197562Y2206735D01*
Y2190870D02*
X2203302Y2185130D01*
X2091380Y2018620D02*
X2123953D01*
X2089998Y2020001D02*
X2091380Y2018620D01*
X2123953D02*
X2125334Y2017238D01*
X990002Y939999D02*
X1059999D01*
X2362130Y1252130D02*
X2380000Y1270000D01*
X2360000Y1170000D02*
X2400000Y1130000D01*
X2362130Y1240844D02*
Y1252130D01*
X2360000Y1238713D02*
X2362130Y1240844D01*
X2360000Y1170000D02*
Y1238713D01*
X2400000Y1130000D02*
X2470000D01*
X2505484Y1094517D01*
Y1015479D02*
Y1094517D01*
X2297870Y1240843D02*
Y1252130D01*
X2229998Y1070000D02*
X2300000Y1140002D01*
X2280001Y1270000D02*
X2297870Y1252130D01*
Y1240843D02*
X2300000Y1238713D01*
Y1140002D02*
Y1238713D01*
X2580000Y1338118D02*
X2590000Y1348118D01*
X2580000Y1330000D02*
Y1338118D01*
X2550003Y1509999D02*
X2590000Y1470002D01*
Y1348118D02*
Y1470002D01*
X1370000Y940000D02*
X1407499Y902501D01*
X1597499D01*
X2450003Y959998D02*
X2505484Y1015479D01*
X1012188Y2177813D02*
Y2219642D01*
X944117Y2287713D02*
X1012188Y2219642D01*
X944117Y2287713D02*
Y2377704D01*
X1012188Y2177813D02*
X1014999Y2175002D01*
X1280000Y610000D02*
X1285740Y615740D01*
X1305740D01*
X2445783Y2165241D02*
X2450540Y2169998D01*
X2490003D01*
X1735000Y576712D02*
Y578425D01*
Y576712D02*
X1789999Y521713D01*
Y519999D02*
Y521713D01*
X2650002Y1398120D02*
Y1510000D01*
X2649692Y1397810D02*
X2650002Y1398120D01*
X2649692Y1330308D02*
Y1397810D01*
X2040001Y1739991D02*
Y1769999D01*
X2576278Y2269998D02*
X2596075Y2250201D01*
X2600000Y2060000D02*
Y2088992D01*
X2568991Y2120001D02*
X2600000Y2088992D01*
X999998Y1366755D02*
X1000634Y1367391D01*
X999998Y1440002D02*
X1000634Y1439366D01*
Y1367391D02*
Y1439366D01*
X992771Y1357877D02*
Y1366755D01*
X999998Y1359528D02*
Y1366755D01*
X987411Y1352517D02*
X992771Y1357877D01*
X904227Y1352517D02*
X987411D01*
X890001Y1338290D02*
X904227Y1352517D01*
X999998Y1359528D02*
X1001269Y1358257D01*
X2540000Y2120001D02*
X2568991D01*
X2240001Y2269998D02*
Y2272975D01*
X2249679Y2282653D01*
Y2313689D01*
X2189998Y2269998D02*
Y2312374D01*
X2188658Y2313714D02*
X2189998Y2312374D01*
X2019323Y2240678D02*
X2040001Y2220001D01*
X2002500Y2196078D02*
X2026476Y2172103D01*
X1998118Y2110000D02*
X2008119Y2120001D01*
X1990000Y2110000D02*
X1998118D01*
X2008119Y2120001D02*
X2040001D01*
X1680000Y1530000D02*
X1749999D01*
X1680000Y1530000D02*
X1680000Y1530000D01*
X1749999Y1529999D02*
X1849999D01*
X1749999Y1530000D02*
X1749999Y1529999D01*
X990000Y939998D02*
X990002Y939999D01*
X1498957Y1070472D02*
X1499429Y1070000D01*
X1569999D01*
X1505740Y984260D02*
X1533561D01*
X1557822Y959998D01*
X1500000Y990000D02*
X1505740Y984260D01*
X1557822Y959998D02*
X1569999D01*
X1590000Y1144675D02*
X1624461Y1110214D01*
Y1045539D02*
Y1110214D01*
X1590000Y1144675D02*
Y1150000D01*
X2350000Y2070000D02*
X2350001Y2069999D01*
X2390002D01*
X990000Y880000D02*
Y939998D01*
X938289Y828289D02*
X990000Y880000D01*
X879998Y828289D02*
X938289D01*
X1952501Y1086749D02*
X2001055Y1135303D01*
X2054090D01*
X2057498Y907498D02*
X2060000Y910000D01*
X1957498Y907498D02*
X2057498D01*
X1900001Y850001D02*
X1957498Y907498D01*
X1900001Y959998D02*
X1952501Y1012498D01*
Y1086749D01*
X2550003Y1509999D02*
Y1510000D01*
X2649692Y1330308D02*
X2650000Y1330000D01*
X2065112Y576690D02*
X2065705Y576097D01*
Y465708D02*
Y576097D01*
X2009999Y410002D02*
X2065705Y465708D01*
X2055327Y1005327D02*
X2055556D01*
X2009999Y959998D02*
X2055327Y1005327D01*
X1627502Y462502D02*
X1680002Y410002D01*
X1452502Y462502D02*
X1627502D01*
X1450000Y460000D02*
X1452502Y462502D01*
X1789999Y739999D02*
X1847501Y682496D01*
Y332499D02*
Y682496D01*
Y332499D02*
X1850000Y330000D01*
X1900001Y410002D02*
X1950000Y460000D01*
X1950000D01*
X1748475Y440437D02*
X1778910Y410002D01*
X1789999D01*
X1740357Y440437D02*
X1748475D01*
X1672880Y857122D02*
X1680002Y850001D01*
X1597499Y902501D02*
X1642878Y857122D01*
X1672880D01*
X2037897Y2172103D02*
X2040001Y2169998D01*
X2026476Y2172103D02*
X2037897D01*
X2508107Y1751895D02*
X2521896D01*
X2490003Y1769999D02*
X2508107Y1751895D01*
X2521896Y1718716D02*
Y1751895D01*
X2540000Y1769999D01*
X2539998Y2269998D02*
X2576278D01*
X2230000Y2020001D02*
X2230000Y2020000D01*
X2189999Y2020001D02*
X2230000D01*
X2189998Y2020001D02*
X2189999Y2020001D01*
X2390002Y2069999D02*
X2390003Y2069998D01*
X1569999Y519999D02*
X1574999D01*
X1615000Y560000D01*
X1620000D01*
X1680002Y739999D02*
X1715513Y775509D01*
X1728526D01*
X2400001Y1920001D02*
X2440003Y1960003D01*
Y1962909D01*
X2438995Y1865410D02*
X2440000Y1864404D01*
X2390003Y1920001D02*
X2400001D01*
X2075501Y2234498D02*
X2089998Y2220001D01*
X2289793Y2170001D02*
X2297087D01*
X2240001Y2219793D02*
Y2220001D01*
Y2219793D02*
X2289793Y2170001D01*
X2340000Y2120001D02*
Y2143455D01*
X2360680Y2164135D01*
X2378143Y1866454D02*
X2390003Y1854593D01*
X2440000Y1820001D02*
Y1864404D01*
X2390003Y1820001D02*
Y1854593D01*
X2468588Y2120001D02*
X2490003D01*
X2446412Y2097825D02*
X2468588Y2120001D01*
X1646820Y916820D02*
Y921818D01*
X1680002Y955000D01*
Y959998D01*
X1624461Y1045539D02*
X1655084Y1014916D01*
X1735081D02*
X1789999Y959998D01*
X1655084Y1014916D02*
X1735081D01*
X759998Y2129998D02*
X770002D01*
X844998Y2055002D01*
X894999D01*
X1737499Y682501D02*
X1789999Y630001D01*
X2229998Y850001D02*
X2229999D01*
X2270000Y810000D01*
X2450000Y1070000D02*
X2450003D01*
X2410000Y1030000D02*
X2450000Y1070000D01*
X2340000Y850001D02*
X2346467D01*
X2386147Y810321D01*
D28*
X2024451Y1818854D02*
X2038853D01*
X1975596Y1769999D02*
X2024451Y1818854D01*
X2540000Y2169998D02*
X2540002D01*
X2800000Y1720000D02*
Y2290000D01*
X2680000Y2410000D02*
X2800000Y2290000D01*
X2550000Y2410000D02*
X2680000D01*
X803632Y491892D02*
X804072D01*
X820469Y508290D01*
X2490180Y1832443D02*
X2490358Y1832265D01*
X2490003Y1869999D02*
X2490180Y1869821D01*
Y1832443D02*
Y1869821D01*
X2496765Y1610000D02*
X2550002D01*
X2486765Y1600000D02*
X2496765Y1610000D01*
X2480000Y1600000D02*
X2486765D01*
X2333948Y1707651D02*
X2397651D01*
X2440000Y1750000D01*
Y1769999D01*
X1250000Y1729999D02*
X1260000Y1739999D01*
Y1729999D02*
X1470000D01*
X1234998Y1955002D02*
X1260000Y1930000D01*
Y1739999D02*
Y1930000D01*
X1250000Y1729999D02*
X1260000D01*
X1185001Y1955002D02*
X1234998D01*
X779998Y2229998D02*
X838211Y2171785D01*
Y2118792D02*
Y2171785D01*
X2750002Y1670002D02*
X2800000Y1720000D01*
X2665000Y2375000D02*
X2760000Y2280000D01*
X2666915Y1636413D02*
X2760000Y1729497D01*
Y2280000D01*
X2565000Y2375000D02*
X2665000D01*
X2440000Y2300000D02*
X2550000Y2410000D01*
X2440000Y2269998D02*
Y2300000D01*
X2490003Y2269998D02*
Y2300003D01*
X2565000Y2375000D01*
X2237998Y2409998D02*
X2261799Y2433799D01*
Y2449617D02*
X2266583Y2454400D01*
X2261799Y2433799D02*
Y2449617D01*
X2189998Y2409998D02*
X2237998D01*
X1920000Y1690000D02*
Y1769998D01*
X1769996Y1339997D02*
X1920000Y1490001D01*
Y1690000D01*
X1845000Y1070000D02*
X1900001D01*
X1789999D02*
X1845000D01*
X1789999Y850001D02*
X1845000Y905002D01*
Y1070000D01*
X1065002Y2255002D02*
X1070000Y2260000D01*
X1065002Y2055002D02*
Y2255002D01*
X1066793Y2263207D02*
Y2268972D01*
Y2263207D02*
X1070000Y2260000D01*
X180000Y2326000D02*
X296000Y2210000D01*
X660000D01*
X679999Y2229998D01*
X1065002Y2055002D02*
X1114999Y2105000D01*
X1039998Y2029998D02*
X1065002Y2055002D01*
X1114999Y2105000D02*
Y2175002D01*
X1014999Y2005000D02*
X1039998Y2029998D01*
X1014999Y1885000D02*
Y2005000D01*
X1039998Y2029998D02*
X1065002Y2004995D01*
Y1885000D02*
Y2004995D01*
X679999Y2129998D02*
Y2229998D01*
X180000Y2326000D02*
X304000Y2450000D01*
X639996D01*
X659999Y2429998D01*
X1318797Y1531202D02*
Y1533032D01*
Y1531202D02*
X1320000Y1530000D01*
X1250000Y1460000D02*
X1320000Y1530000D01*
X1250000Y1450000D02*
Y1460000D01*
Y1450000D02*
X1470000D01*
X820000Y1520000D02*
X828287Y1528288D01*
X822034Y1520000D02*
X824640Y1522606D01*
X820000Y1520000D02*
X822034D01*
X828287Y1528288D02*
X988284D01*
X999998Y1540002D01*
X817965Y997965D02*
X838291Y1018291D01*
X810000Y990000D02*
X817965Y997965D01*
X818744D01*
X968294Y1018291D02*
X990001Y1039998D01*
X838291Y1018291D02*
X968294D01*
X820469Y508290D02*
X879998D01*
X920000Y390000D02*
X950000Y420000D01*
X920000Y390000D02*
Y400000D01*
X950000Y420000D02*
X950001Y419999D01*
X990001D01*
X2688620Y2162523D02*
X2689311Y2163214D01*
Y2229307D02*
X2690002Y2229998D01*
X2689311Y2163214D02*
Y2229307D01*
X1569999Y739999D02*
X1610000Y780000D01*
X1569999Y739999D02*
Y739999D01*
X1855269Y1315269D02*
Y1316304D01*
X1810000Y1270000D02*
X1855269Y1315269D01*
X1789999Y850001D02*
X1900001Y739999D01*
X2008963D02*
X2009999D01*
X1954512Y685548D02*
X2008963Y739999D01*
X1953964Y684512D02*
X2008475Y630001D01*
X2009999D01*
X1952440Y684512D02*
Y686036D01*
Y684512D02*
X1953964D01*
X1952440Y683476D02*
Y684512D01*
X1900001Y630001D02*
Y631037D01*
Y738475D02*
X1952440Y686036D01*
X1900001Y738475D02*
Y739999D01*
Y631037D02*
X1952440Y683476D01*
X1954512Y684512D02*
Y685548D01*
X2827279Y362722D02*
X2834363D01*
X2780000Y410002D02*
X2827279Y362722D01*
X2834363D02*
X2842723D01*
X2890002Y410002D01*
X2505010Y352712D02*
Y355011D01*
X2560000Y410002D01*
Y630001D01*
X2510000Y680000D02*
X2559999Y630001D01*
X2560000D01*
X2510000Y680001D02*
Y689999D01*
Y680000D02*
Y680001D01*
Y689999D02*
X2560000Y739999D01*
X2450003D02*
X2510000Y680001D01*
X2506511Y911311D02*
X2555199Y959998D01*
X2560000D01*
Y1070000D01*
X2829999Y1120000D02*
X2830000D01*
X2780000Y1070000D02*
X2829999Y1120000D01*
X2830000D02*
X2840002D01*
X2890002Y1070000D01*
X1914997Y1874998D02*
X1970000Y1930000D01*
X2038377Y1920001D02*
X2040001D01*
X2028379Y1930000D02*
X2038377Y1920001D01*
X1970000Y1930000D02*
X2028379D01*
X1920001Y1769999D02*
X1975596D01*
X2038853Y1818854D02*
X2040001Y1820001D01*
X1948337Y1817498D02*
X2000839Y1869999D01*
X2650473Y2195881D02*
X2684590Y2229998D01*
X2571532Y2195881D02*
X2650473D01*
X2548560Y2218853D02*
X2571532Y2195881D01*
X2625000Y2135000D02*
X2690002Y2069998D01*
X2600001Y2160000D02*
X2625000Y2135000D01*
X1634558Y2185442D02*
X1637398D01*
X1634558D02*
X1689997Y2130003D01*
X1770004D01*
X1920000Y1769998D02*
X1920001Y1769999D01*
X1890000Y1690000D02*
X1920000D01*
X1849999Y1649999D02*
X1890000Y1690000D01*
X1849999Y1629999D02*
Y1649999D01*
X2020000Y2420000D02*
X2030002Y2409998D01*
X2089998D01*
X1769996Y1329997D02*
Y1339997D01*
X1709999Y1270000D02*
X1769996Y1329997D01*
X1809999Y1270000D02*
X1810000D01*
X1900001Y1136616D02*
X1900886Y1137501D01*
X1900001Y1070000D02*
Y1136616D01*
X1290000Y750000D02*
X1290001Y750001D01*
X1350000D01*
X1290000Y850000D02*
X1290001Y850001D01*
X1350000D01*
X770001Y1663289D02*
X779998Y1653291D01*
X650001Y1663289D02*
X770001D01*
X650001Y1453291D02*
X670001Y1433292D01*
X650001Y1453291D02*
Y1563289D01*
Y933287D02*
X659999Y923290D01*
X650001Y933287D02*
Y1073287D01*
X750001Y1173287D02*
X770001Y1153287D01*
X650001Y1173287D02*
X750001D01*
X639999Y433288D02*
X659999Y413288D01*
X639999Y433288D02*
Y563291D01*
X750001Y663291D02*
X770001Y643291D01*
X639999Y663291D02*
X750001D01*
X1049999Y319999D02*
X1050000Y320000D01*
X990001Y319999D02*
X1049999D01*
X988289Y318287D02*
X990001Y319999D01*
X879998Y318287D02*
X988289D01*
X2550002Y1610000D02*
X2550003Y1609999D01*
X2540000Y2220001D02*
X2541148Y2218853D01*
X2548560D01*
X2541624Y2169998D02*
X2551622Y2160000D01*
X2600001D01*
X2684590Y2229998D02*
X2690002D01*
X1430786Y2055002D02*
X1491001Y2115217D01*
X1185001Y2055002D02*
X1430786D01*
X1505217Y2115217D02*
X1510000Y2120000D01*
X1491001Y2115217D02*
X1505217D01*
X1455000Y2005000D02*
X1479142Y2029141D01*
Y2029142D02*
X1510000Y2060000D01*
X1479142Y2029141D02*
Y2029142D01*
X1185001Y2005000D02*
X1455000D01*
X2140001Y2269998D02*
Y2350001D01*
X2189998Y2399998D01*
X2650002Y1609999D02*
X2666915Y1626912D01*
Y1636413D01*
X2750002Y1609999D02*
Y1670002D01*
X2540002Y1820000D02*
X2600000D01*
X2540000Y1820001D02*
X2540002Y1820000D01*
X1790001Y1759999D02*
X1820001D01*
X1790000Y1760000D02*
X1790001Y1759999D01*
X1749999Y1719999D02*
X1790000Y1760000D01*
X1749999Y1629999D02*
Y1719999D01*
X1820001Y1759999D02*
X1877500Y1817498D01*
X1948337D01*
X2000839Y1869999D02*
X2040001D01*
X1740002Y2100001D02*
X1770004Y2130003D01*
X1740002Y2029998D02*
Y2100001D01*
X1870004Y2034997D02*
X1880001Y2025000D01*
X1870004Y2034997D02*
Y2130003D01*
X1787955Y1929999D02*
X1823302Y1894651D01*
X1740002Y1929999D02*
X1787955D01*
X1880001Y1874998D02*
X1914997D01*
X1880001Y2025000D02*
X1905000D01*
X1960000Y1970000D01*
X2039999D01*
X2040001Y1969999D01*
X838211Y2118792D02*
X850503Y2106500D01*
X893499D02*
X894999Y2105000D01*
X850503Y2106500D02*
X893499D01*
X803640Y1897026D02*
Y1913640D01*
X845002Y1955002D02*
X894999D01*
X749998Y1875002D02*
X781616D01*
X803640Y1897026D01*
Y1913640D02*
X845002Y1955002D01*
X719999Y2025000D02*
X739999Y2005000D01*
X894999D01*
X1350000Y750001D02*
X1350001Y750000D01*
X1559998D01*
X1569999Y739999D01*
X1789999Y1250000D02*
X1809999Y1270000D01*
X1789999Y1070000D02*
Y1250000D01*
X2189998Y2399998D02*
Y2409998D01*
X2089998Y2269998D02*
Y2409998D01*
X1680002Y1240003D02*
X1709999Y1270000D01*
X1680002Y1070000D02*
Y1240003D01*
X1350000Y850001D02*
X1569999D01*
D29*
X2570000Y2320000D02*
X2610000D01*
X2589999Y2300000D02*
Y2340000D01*
X1970000Y1720000D02*
X2010001D01*
X1989999Y1700000D02*
Y1740000D01*
X1970000Y2320000D02*
X2010001D01*
X1989999Y2300000D02*
Y2340000D01*
X2570000Y1720000D02*
X2610000D01*
X2589999Y1700000D02*
Y1740000D01*
X1400000Y280000D02*
X1440000D01*
X1420002Y260000D02*
Y300000D01*
X2745000Y280000D02*
X2814999D01*
X1400000Y1200000D02*
X1440000D01*
X1420000Y1180000D02*
Y1220000D01*
X2745000Y1200000D02*
X2814999D01*
D30*
X303639Y710000D02*
X333639Y680000D01*
X300000Y710000D02*
X303639D01*
X333639Y680000D02*
X560000D01*
X280000Y1190000D02*
X550000D01*
X1025598Y2454400D02*
X1099998Y2380000D01*
X916197Y2454400D02*
X1025598D01*
X550000Y1190000D02*
X592876Y1232876D01*
X817124D02*
X877699Y1172302D01*
X592876Y1232876D02*
X817124D01*
X877699Y1172302D02*
X910986D01*
X930001Y1153287D01*
X910988Y662304D02*
X930001Y643291D01*
X810000Y730000D02*
X877697Y662304D01*
X610000Y730000D02*
X810000D01*
X877697Y662304D02*
X910988D01*
X560000Y680000D02*
X610000Y730000D01*
X799998Y2380000D02*
X826172Y2353827D01*
X876173D01*
X880000Y2350000D01*
X779998Y2360000D02*
X799998Y2380000D01*
X941720Y1651569D02*
X1010249D01*
X1011971Y1649847D01*
X939998Y1653291D02*
X941720Y1651569D01*
X656001Y294000D02*
X750001Y200000D01*
X434000Y294000D02*
X656001D01*
X180000D02*
X304000Y170000D01*
X580000D01*
X610000Y200000D01*
X650001D01*
X749996Y2329998D02*
X779998Y2360000D01*
Y2229998D02*
Y2360000D01*
X659999Y2329998D02*
X749996D01*
X434000Y2326000D02*
X656001D01*
X659999Y2329998D01*
D31*
X160000Y2326000D02*
D03*
D32*
Y2072000D02*
D03*
Y1818000D02*
D03*
Y1564000D02*
D03*
Y1310000D02*
D03*
Y1056000D02*
D03*
Y802000D02*
D03*
X454000Y2326000D02*
D03*
Y2072000D02*
D03*
Y1818000D02*
D03*
Y1564000D02*
D03*
Y1310000D02*
D03*
Y1056000D02*
D03*
Y802000D02*
D03*
X160000Y548000D02*
D03*
Y294000D02*
D03*
X454000Y548000D02*
D03*
Y294000D02*
D03*
D33*
X2380000Y1450000D02*
D03*
X2141288Y2183656D02*
D03*
X2069996Y1709997D02*
D03*
X2730000Y1270000D02*
D03*
X2131965Y2123167D02*
D03*
X2124907Y1919570D02*
D03*
X848025Y2256789D02*
D03*
X1120000Y1460000D02*
D03*
X1260000Y970000D02*
D03*
X1254246Y1115754D02*
D03*
X807577Y846170D02*
D03*
X1085595Y418969D02*
D03*
X803632Y491892D02*
D03*
X300000Y710000D02*
D03*
X280000Y1190000D02*
D03*
X916197Y2454400D02*
D03*
X68494Y1944575D02*
D03*
X66973Y1689810D02*
D03*
Y1437325D02*
D03*
X67734Y929314D02*
D03*
X66213Y673788D02*
D03*
X70000Y420000D02*
D03*
X1330000Y180000D02*
D03*
X2550000Y190000D02*
D03*
X1949999Y2199959D02*
D03*
X1989463Y2246418D02*
D03*
X2203302Y2185130D02*
D03*
X2125334Y2017238D02*
D03*
X2490358Y1832265D02*
D03*
X2480000Y1600000D02*
D03*
X2333948Y1707651D02*
D03*
X2266583Y2454400D02*
D03*
X1370000Y940000D02*
D03*
X950000Y748696D02*
D03*
X1090000Y2028696D02*
D03*
X1408560Y1610730D02*
D03*
X1190000Y1880000D02*
D03*
X1090000Y1780000D02*
D03*
X1280000Y670000D02*
D03*
Y610000D02*
D03*
X1066793Y2268972D02*
D03*
X2445783Y2165241D02*
D03*
X880000Y2350000D02*
D03*
X944117Y2377704D02*
D03*
X1370000Y2380000D02*
D03*
X1318797Y1533032D02*
D03*
X824640Y1522606D02*
D03*
X820780Y1384933D02*
D03*
X818744Y997965D02*
D03*
X920000Y400000D02*
D03*
X1735000Y578425D02*
D03*
X2700000Y1420000D02*
D03*
X2688620Y2162523D02*
D03*
X1169668Y2157572D02*
D03*
X1610000Y780000D02*
D03*
X1855269Y1316304D02*
D03*
X1952440Y684512D02*
D03*
X2834363Y362722D02*
D03*
X2505010Y352712D02*
D03*
X2510000Y680000D02*
D03*
X2506511Y911311D02*
D03*
X2830000Y1120000D02*
D03*
X1749999Y1719999D02*
D03*
X2000839Y1869999D02*
D03*
X2596075Y2250201D02*
D03*
X2625000Y2135000D02*
D03*
X2600000Y2060000D02*
D03*
X1637398Y2185442D02*
D03*
X1920000Y1690000D02*
D03*
X1011971Y1649847D02*
D03*
X1001269Y1358257D02*
D03*
X2020000Y2420000D02*
D03*
X2249679Y2313689D02*
D03*
X2188658Y2313714D02*
D03*
X1990000Y2110000D02*
D03*
X2120000Y1520000D02*
D03*
X1680000Y1530000D02*
D03*
X1769996Y1339997D02*
D03*
X1900886Y1137501D02*
D03*
X1290000Y750000D02*
D03*
Y850000D02*
D03*
X1065000Y1250000D02*
D03*
X810000Y1060000D02*
D03*
X2480000Y1540000D02*
D03*
X1498957Y1070472D02*
D03*
X1500000Y990000D02*
D03*
X1520000Y1150000D02*
D03*
X1590000D02*
D03*
X2350000Y2070000D02*
D03*
X2580000Y1330000D02*
D03*
X2054090Y1135303D02*
D03*
X2060000Y910000D02*
D03*
X2650000Y1330000D02*
D03*
X2065112Y576690D02*
D03*
X2320000Y1450000D02*
D03*
X2055556Y1005327D02*
D03*
X1450000Y460000D02*
D03*
X1850000Y330000D02*
D03*
X1950000Y460000D02*
D03*
X1740357Y440437D02*
D03*
X1050000Y320000D02*
D03*
X2521896Y1718716D02*
D03*
X2230000Y2020000D02*
D03*
X1620000Y560000D02*
D03*
X1728526Y775509D02*
D03*
X1510000Y2060000D02*
D03*
Y2120000D02*
D03*
X2440003Y1962909D02*
D03*
X2438995Y1865410D02*
D03*
X2297087Y2170001D02*
D03*
X749431Y1740605D02*
D03*
X2360680Y2164135D02*
D03*
X2378143Y1866454D02*
D03*
X2600000Y1820000D02*
D03*
X2446412Y2097825D02*
D03*
X820539Y390244D02*
D03*
X1646820Y916820D02*
D03*
X2270000Y810000D02*
D03*
X2410000Y1030000D02*
D03*
X2386147Y810321D02*
D03*
%TF.MD5,ef9f8e16d9c3e405de8b045100197953*%
M02*
