%TF.GenerationSoftware,Altium Limited,Altium Designer,23.3.1 (30)*%
G04 Layer_Color=32896*
%FSLAX45Y45*%
%MOMM*%
%TF.SameCoordinates,B56B3050-E4CE-4FE9-8081-1B6FDF6B35C2*%
%TF.FilePolarity,Positive*%
%TF.FileFunction,Legend,Bot*%
%TF.Part,Single*%
G01*
G75*
%TA.AperFunction,NonConductor*%
%ADD29C,0.15000*%
%ADD35C,0.25000*%
%ADD36C,0.20000*%
%ADD37R,0.15001X0.20000*%
%ADD38R,0.15001X0.40000*%
%ADD39R,0.15001X0.60000*%
%ADD40R,0.15001X0.80000*%
%ADD41R,0.15001X1.00000*%
%ADD42R,0.14996X1.40000*%
%ADD43R,0.15001X1.40000*%
%ADD44R,0.15001X0.60005*%
%ADD45R,0.15001X1.20000*%
%ADD46R,0.14996X0.20000*%
%ADD47R,0.14996X0.60000*%
%ADD48R,0.14996X0.60005*%
G36*
X40000Y2326000D02*
X0Y2358158D01*
Y2293843D01*
X40000Y2326000D01*
D02*
G37*
G36*
X2459284Y758621D02*
X2273465D01*
X2146912D01*
Y1270000D01*
X2459284D01*
Y758621D01*
D02*
G37*
G36*
X2146912Y1270000D02*
Y758621D01*
X1940001D01*
Y1270000D01*
X2146912D01*
D02*
G37*
G36*
X2990001Y226735D02*
X2805614D01*
D01*
X2470001D01*
Y1270001D01*
X2990001D01*
Y226735D01*
D02*
G37*
%LPC*%
G36*
X2782769Y1148989D02*
X2677308D01*
Y1068294D01*
X2782769D01*
Y1105479D01*
X2782693Y1107079D01*
Y1108832D01*
X2782616Y1110737D01*
X2782540Y1112794D01*
X2782388Y1117062D01*
X2782235Y1119195D01*
X2782083Y1121253D01*
X2781931Y1123158D01*
X2781702Y1124910D01*
X2781473Y1126434D01*
X2781321Y1127044D01*
X2781169Y1127653D01*
Y1127730D01*
X2781016Y1128034D01*
X2780864Y1128568D01*
X2780711Y1129177D01*
X2780407Y1129939D01*
X2780026Y1130854D01*
X2779568Y1131844D01*
X2778959Y1132987D01*
X2778349Y1134130D01*
X2777587Y1135350D01*
X2776749Y1136569D01*
X2775835Y1137864D01*
X2774768Y1139160D01*
X2773549Y1140455D01*
X2772253Y1141674D01*
X2770805Y1142817D01*
X2770729Y1142893D01*
X2770424Y1143122D01*
X2769967Y1143427D01*
X2769358Y1143808D01*
X2768596Y1144265D01*
X2767605Y1144798D01*
X2766538Y1145332D01*
X2765243Y1145941D01*
X2763871Y1146475D01*
X2762347Y1147008D01*
X2760671Y1147542D01*
X2758842Y1147999D01*
X2756861Y1148456D01*
X2754803Y1148761D01*
X2752594Y1148913D01*
X2750308Y1148989D01*
X2782769D01*
D02*
G37*
G36*
X2652939Y1084867D02*
Y1055301D01*
D01*
Y1084867D01*
D02*
G37*
G36*
Y1123805D02*
X2545269D01*
D01*
X2597085D01*
X2596247Y1123729D01*
X2595256D01*
X2594189Y1123653D01*
X2592970Y1123577D01*
X2591751Y1123500D01*
X2590379Y1123424D01*
X2588931Y1123272D01*
X2585807Y1122967D01*
X2582454Y1122510D01*
X2578949Y1121976D01*
X2575368Y1121291D01*
X2571786Y1120452D01*
X2568281Y1119462D01*
X2564852Y1118243D01*
X2561652Y1116871D01*
X2560128Y1116109D01*
X2558680Y1115271D01*
X2557308Y1114356D01*
X2556013Y1113442D01*
X2555861Y1113366D01*
X2555556Y1113061D01*
X2555022Y1112528D01*
X2554337Y1111842D01*
X2553498Y1111004D01*
X2552584Y1109937D01*
X2551670Y1108641D01*
X2550679Y1107194D01*
X2549612Y1105593D01*
X2548698Y1103841D01*
X2547783Y1101860D01*
X2546945Y1099726D01*
X2546259Y1097440D01*
X2545726Y1094925D01*
X2545421Y1092335D01*
X2545269Y1089515D01*
Y1088829D01*
X2545345Y1088067D01*
X2545421Y1087001D01*
X2545650Y1085629D01*
X2545878Y1084181D01*
X2546259Y1082429D01*
X2546717Y1080676D01*
X2547402Y1078695D01*
X2548164Y1076714D01*
X2549079Y1074656D01*
X2550222Y1072523D01*
X2551593Y1070465D01*
X2553194Y1068484D01*
X2555022Y1066503D01*
X2557080Y1064674D01*
X2557232Y1064598D01*
X2557613Y1064293D01*
X2557994Y1064064D01*
X2558375Y1063836D01*
X2558832Y1063531D01*
X2559366Y1063226D01*
X2560052Y1062845D01*
X2560737Y1062540D01*
X2561576Y1062083D01*
X2562414Y1061702D01*
X2563404Y1061321D01*
X2564395Y1060864D01*
X2565538Y1060407D01*
X2566757Y1060026D01*
X2568053Y1059569D01*
X2569500Y1059111D01*
X2570948Y1058654D01*
X2572548Y1058273D01*
X2574225Y1057892D01*
X2575977Y1057511D01*
X2577882Y1057130D01*
X2579864Y1056749D01*
X2581921Y1056444D01*
X2584055Y1056140D01*
X2586341Y1055911D01*
X2588703Y1055682D01*
X2591141Y1055530D01*
X2593732Y1055378D01*
X2596399Y1055301D01*
X2600514D01*
X2601200Y1055378D01*
X2602038D01*
X2603028D01*
X2604095Y1055454D01*
X2605238Y1055530D01*
X2606534Y1055606D01*
X2607905Y1055759D01*
X2609353Y1055835D01*
X2612401Y1056140D01*
X2615754Y1056597D01*
X2619259Y1057130D01*
X2622764Y1057816D01*
X2626346Y1058654D01*
X2629927Y1059645D01*
X2633280Y1060788D01*
X2636480Y1062159D01*
X2638004Y1062998D01*
X2639452Y1063760D01*
X2640824Y1064674D01*
X2642119Y1065588D01*
X2642271Y1065665D01*
X2642576Y1065969D01*
X2643110Y1066503D01*
X2643795Y1067189D01*
X2644634Y1068027D01*
X2645548Y1069094D01*
X2646539Y1070389D01*
X2647529Y1071837D01*
X2648520Y1073437D01*
X2649510Y1075190D01*
X2650425Y1077171D01*
X2651263Y1079304D01*
X2651949Y1081590D01*
X2652482Y1084105D01*
X2652787Y1086696D01*
X2652939Y1089515D01*
Y1090201D01*
X2652863Y1090963D01*
X2652787Y1092030D01*
X2652635Y1093325D01*
X2652330Y1094849D01*
X2652025Y1096449D01*
X2651568Y1098278D01*
X2650958Y1100107D01*
X2650272Y1102088D01*
X2649358Y1104069D01*
X2648291Y1106051D01*
X2647072Y1108032D01*
X2645624Y1109937D01*
X2643872Y1111766D01*
X2641967Y1113442D01*
X2641814Y1113594D01*
X2641662Y1113671D01*
X2641357Y1113899D01*
X2640976Y1114128D01*
X2640595Y1114433D01*
X2640062Y1114737D01*
X2639452Y1115042D01*
X2638842Y1115423D01*
X2638080Y1115880D01*
X2637242Y1116261D01*
X2636328Y1116719D01*
X2635261Y1117176D01*
X2634194Y1117633D01*
X2633051Y1118166D01*
X2631756Y1118624D01*
X2630384Y1119081D01*
X2628936Y1119614D01*
X2627412Y1120071D01*
X2625812Y1120529D01*
X2624060Y1120986D01*
X2622307Y1121367D01*
X2620402Y1121824D01*
X2618421Y1122205D01*
X2616287Y1122510D01*
X2614154Y1122815D01*
X2611868Y1123119D01*
X2609505Y1123348D01*
X2607067Y1123577D01*
X2604476Y1123729D01*
X2601809Y1123805D01*
X2652939D01*
D01*
D02*
G37*
G36*
X2625203Y1051034D02*
X2547098D01*
D01*
X2625203D01*
Y1038309D01*
X2625126Y1038842D01*
X2625050Y1039452D01*
X2624974Y1040138D01*
X2624898Y1040976D01*
X2624745Y1041890D01*
X2624288Y1043948D01*
X2623602Y1046234D01*
X2623145Y1047377D01*
X2622612Y1048596D01*
X2622002Y1049815D01*
X2621316Y1051034D01*
X2603714Y1044710D01*
X2603790Y1044633D01*
X2603867Y1044481D01*
X2604019Y1044176D01*
X2604248Y1043871D01*
X2604476Y1043414D01*
X2604781Y1042881D01*
X2605391Y1041585D01*
X2606000Y1040138D01*
X2606534Y1038537D01*
X2606915Y1036861D01*
X2607067Y1036023D01*
Y1034499D01*
X2606915Y1033661D01*
X2606762Y1032670D01*
X2606457Y1031527D01*
X2606076Y1030308D01*
X2605467Y1029089D01*
X2604705Y1027946D01*
X2604629Y1027793D01*
X2604248Y1027488D01*
X2603638Y1026955D01*
X2602800Y1026269D01*
X2601581Y1025583D01*
X2600895Y1025202D01*
X2600133Y1024821D01*
X2599295Y1024440D01*
X2598380Y1024059D01*
X2597313Y1023678D01*
X2596247Y1023374D01*
X2596170D01*
X2595942Y1023297D01*
X2595561Y1023221D01*
X2595027Y1023145D01*
X2594265Y1022993D01*
X2593275Y1022840D01*
X2592132Y1022688D01*
X2590760Y1022535D01*
X2589160Y1022383D01*
X2587331Y1022231D01*
X2585198Y1022078D01*
X2582912Y1021926D01*
X2580245Y1021850D01*
X2577349Y1021773D01*
X2574149Y1021697D01*
X2572472D01*
X2570643D01*
X2547098D01*
Y1001504D01*
X2623526D01*
Y1020249D01*
X2612630D01*
X2612706Y1020326D01*
X2612934Y1020478D01*
X2613392Y1020707D01*
X2613849Y1021088D01*
X2614458Y1021469D01*
X2615220Y1022002D01*
X2616821Y1023145D01*
X2618497Y1024440D01*
X2620173Y1025888D01*
X2620935Y1026650D01*
X2621621Y1027412D01*
X2622231Y1028174D01*
X2622764Y1028860D01*
Y1028936D01*
X2622840Y1029012D01*
X2622993Y1029241D01*
X2623145Y1029546D01*
X2623526Y1030384D01*
X2623983Y1031451D01*
X2624441Y1032746D01*
X2624822Y1034194D01*
X2625126Y1035870D01*
X2625203Y1037623D01*
Y1001504D01*
D01*
Y1051034D01*
D02*
G37*
G36*
X2912979Y1042881D02*
Y988474D01*
X2874956D01*
X2875108Y988550D01*
X2875413Y988931D01*
X2875946Y989388D01*
X2876632Y990150D01*
X2877470Y990989D01*
X2878308Y992055D01*
X2879299Y993351D01*
X2880290Y994722D01*
X2881280Y996246D01*
X2882271Y997923D01*
X2883185Y999752D01*
X2883947Y1001733D01*
X2884633Y1003790D01*
X2885166Y1005924D01*
X2885471Y1008210D01*
X2885624Y1010572D01*
Y1011182D01*
X2885547Y1011944D01*
X2885471Y1012934D01*
X2885319Y1014077D01*
X2885090Y1015525D01*
X2884785Y1017049D01*
X2884328Y1018725D01*
X2883795Y1020554D01*
X2883185Y1022383D01*
X2882347Y1024288D01*
X2881356Y1026269D01*
X2880213Y1028174D01*
X2878842Y1030155D01*
X2877242Y1031984D01*
X2875489Y1033737D01*
X2875337Y1033813D01*
X2875032Y1034118D01*
X2874422Y1034575D01*
X2873584Y1035185D01*
X2872593Y1035870D01*
X2871298Y1036632D01*
X2869774Y1037471D01*
X2868098Y1038309D01*
X2866116Y1039147D01*
X2863983Y1039985D01*
X2861544Y1040747D01*
X2858954Y1041433D01*
X2856134Y1042043D01*
X2853162Y1042500D01*
X2849886Y1042805D01*
X2846457Y1042881D01*
X2845161D01*
X2844552Y1042805D01*
X2843942D01*
X2843256Y1042728D01*
X2841580Y1042576D01*
X2839675Y1042424D01*
X2837618Y1042119D01*
X2835332Y1041738D01*
X2832969Y1041204D01*
X2830455Y1040595D01*
X2827940Y1039833D01*
X2825502Y1038918D01*
X2822987Y1037852D01*
X2820625Y1036632D01*
X2818339Y1035185D01*
X2816282Y1033508D01*
X2816129Y1033432D01*
X2815824Y1033051D01*
X2815291Y1032594D01*
X2814605Y1031832D01*
X2813843Y1030917D01*
X2812929Y1029851D01*
X2812014Y1028631D01*
X2811024Y1027184D01*
X2810033Y1025660D01*
X2809119Y1023907D01*
X2808204Y1022002D01*
X2807442Y1020021D01*
X2806757Y1017887D01*
X2806223Y1015677D01*
X2805918Y1013315D01*
X2805766Y1010877D01*
Y1010915D01*
Y1010267D01*
X2805842Y1009734D01*
Y1009200D01*
X2805918Y1008438D01*
X2806071Y1007676D01*
X2806147Y1006838D01*
X2806604Y1004857D01*
X2807138Y1002647D01*
X2807976Y1000285D01*
X2808433Y999142D01*
X2809043Y997923D01*
X2809119Y997847D01*
X2809195Y997618D01*
X2809424Y997313D01*
X2809652Y996856D01*
X2810033Y996323D01*
X2810414Y995713D01*
X2810948Y994951D01*
X2811481Y994189D01*
X2812853Y992513D01*
X2814529Y990684D01*
X2816434Y988779D01*
X2818720Y987026D01*
X2807519D01*
Y968281D01*
X2805766D01*
X2912979D01*
Y1042881D01*
D02*
G37*
G36*
X2784521Y1050387D02*
X2707026D01*
X2706416Y1050310D01*
X2705578Y1050234D01*
X2704664Y1050082D01*
X2703597Y1049929D01*
X2702454Y1049777D01*
X2701159Y1049472D01*
X2699787Y1049167D01*
X2698415Y1048710D01*
X2696968Y1048253D01*
X2695444Y1047643D01*
X2693920Y1046958D01*
X2692472Y1046196D01*
X2690948Y1045281D01*
X2690872Y1045205D01*
X2690643Y1045053D01*
X2690186Y1044748D01*
X2689652Y1044367D01*
X2689043Y1043833D01*
X2688281Y1043224D01*
X2687443Y1042462D01*
X2686528Y1041624D01*
X2685614Y1040633D01*
X2684623Y1039566D01*
X2683633Y1038423D01*
X2682718Y1037128D01*
X2681728Y1035756D01*
X2680813Y1034308D01*
X2679975Y1032708D01*
X2679213Y1031032D01*
X2679137Y1030956D01*
X2679061Y1030651D01*
X2678832Y1030117D01*
X2678603Y1029355D01*
X2678299Y1028517D01*
X2677994Y1027450D01*
X2677689Y1026155D01*
X2677308Y1024783D01*
X2676927Y1023183D01*
X2676622Y1021431D01*
X2676317Y1019526D01*
X2676013Y1017544D01*
X2675784Y1015411D01*
X2675555Y1013125D01*
X2675479Y1010686D01*
X2675403Y1008180D01*
Y1006798D01*
X2675479Y1006267D01*
Y1005581D01*
X2675555Y1004895D01*
X2675708Y1003219D01*
X2675860Y1001238D01*
X2676165Y999104D01*
X2676546Y996818D01*
X2677079Y994380D01*
X2677689Y991865D01*
X2678375Y989274D01*
X2679289Y986760D01*
X2680356Y984245D01*
X2681575Y981807D01*
X2683023Y979521D01*
X2684623Y977387D01*
X2684699Y977235D01*
X2685080Y976930D01*
X2685614Y976396D01*
X2686376Y975711D01*
X2687290Y974872D01*
X2688509Y973882D01*
X2689881Y972891D01*
X2691481Y971824D01*
X2693234Y970681D01*
X2695291Y969615D01*
X2697501Y968548D01*
X2699863Y967557D01*
X2702530Y966567D01*
X2705350Y965805D01*
X2708398Y965119D01*
X2711598Y964662D01*
X2713579Y985388D01*
X2713427D01*
X2713122Y985464D01*
X2712589Y985617D01*
X2711903Y985769D01*
X2710988Y985998D01*
X2709998Y986302D01*
X2708931Y986607D01*
X2707788Y986988D01*
X2705273Y988055D01*
X2703978Y988665D01*
X2702683Y989350D01*
X2701463Y990112D01*
X2700320Y990951D01*
X2699254Y991941D01*
X2698263Y992932D01*
X2698187Y993008D01*
X2698034Y993237D01*
X2697806Y993541D01*
X2697501Y993999D01*
X2697120Y994532D01*
X2696739Y995294D01*
X2696282Y996056D01*
X2695825Y997047D01*
X2695367Y998037D01*
X2694910Y999256D01*
X2694529Y1000476D01*
X2694148Y1001847D01*
X2693843Y1003371D01*
X2693615Y1004971D01*
X2693462Y1006648D01*
X2693386Y1008400D01*
Y1009391D01*
X2693462Y1010077D01*
X2693539Y1010915D01*
X2693615Y1011906D01*
X2693767Y1013049D01*
X2693920Y1014192D01*
X2694453Y1016706D01*
X2694834Y1018002D01*
X2695215Y1019297D01*
X2695748Y1020516D01*
X2696282Y1021735D01*
X2696968Y1022878D01*
X2697730Y1023869D01*
X2697806Y1023945D01*
X2697958Y1024098D01*
X2698187Y1024326D01*
X2698492Y1024707D01*
X2698949Y1025088D01*
X2699406Y1025545D01*
X2700016Y1026003D01*
X2700625Y1026536D01*
X2702149Y1027450D01*
X2703826Y1028289D01*
X2704816Y1028670D01*
X2705731Y1028898D01*
X2706797Y1029051D01*
X2707864Y1029127D01*
X2707940D01*
X2708017D01*
X2708474D01*
X2709160Y1029051D01*
X2710074Y1028822D01*
X2711065Y1028593D01*
X2712131Y1028212D01*
X2713198Y1027679D01*
X2714189Y1026917D01*
X2714341Y1026841D01*
X2714646Y1026460D01*
X2715103Y1025926D01*
X2715789Y1025164D01*
X2716475Y1024098D01*
X2717313Y1022726D01*
X2718075Y1021126D01*
X2718456Y1020211D01*
X2718837Y1019221D01*
Y1019145D01*
X2718913Y1019068D01*
X2718989Y1018764D01*
X2719066Y1018459D01*
X2719218Y1017925D01*
X2719447Y1017316D01*
X2719675Y1016554D01*
X2719904Y1015716D01*
X2720209Y1014649D01*
X2720513Y1013430D01*
X2720894Y1012058D01*
X2721352Y1010458D01*
X2721809Y1008705D01*
X2722266Y1006724D01*
X2722799Y1004514D01*
X2723409Y1002152D01*
Y1002076D01*
X2723485Y1001923D01*
Y1001695D01*
X2723638Y1001390D01*
X2723714Y1001009D01*
X2723866Y1000552D01*
X2724171Y999409D01*
X2724552Y997961D01*
X2725085Y996361D01*
X2725695Y994608D01*
X2726305Y992779D01*
X2727067Y990798D01*
X2727829Y988817D01*
X2728667Y986760D01*
X2729581Y984855D01*
X2730572Y982950D01*
X2731639Y981197D01*
X2732705Y979597D01*
X2733848Y978149D01*
X2733925Y978073D01*
X2734229Y977768D01*
X2734763Y977235D01*
X2735372Y976625D01*
X2736211Y975939D01*
X2737277Y975101D01*
X2738420Y974187D01*
X2739792Y973348D01*
X2741240Y972434D01*
X2742840Y971520D01*
X2744593Y970681D01*
X2746421Y969996D01*
X2748403Y969386D01*
X2750536Y968853D01*
X2752746Y968548D01*
X2755032Y968472D01*
X2755108D01*
X2755413D01*
X2755794D01*
X2756404Y968548D01*
X2757089Y968624D01*
X2757928Y968700D01*
X2758918Y968853D01*
X2759985Y969005D01*
X2761052Y969310D01*
X2762271Y969538D01*
X2763490Y969919D01*
X2764786Y970377D01*
X2766157Y970910D01*
X2767453Y971520D01*
X2768824Y972205D01*
X2770120Y972967D01*
X2770196Y973044D01*
X2770424Y973196D01*
X2770805Y973425D01*
X2771263Y973806D01*
X2771872Y974263D01*
X2772558Y974872D01*
X2773244Y975558D01*
X2774082Y976320D01*
X2774920Y977235D01*
X2775835Y978225D01*
X2776673Y979292D01*
X2777587Y980435D01*
X2778425Y981730D01*
X2779264Y983102D01*
X2780102Y984550D01*
X2780788Y986150D01*
X2780864Y986226D01*
X2780940Y986531D01*
X2781169Y987064D01*
X2781397Y987674D01*
X2781626Y988512D01*
X2782007Y989503D01*
X2782312Y990646D01*
X2782693Y991941D01*
X2782997Y993389D01*
X2783378Y994989D01*
X2783683Y996666D01*
X2783912Y998494D01*
X2784217Y1000476D01*
X2784369Y1002533D01*
X2784445Y1004667D01*
X2784521Y1006876D01*
Y1008248D01*
X2784445Y1008781D01*
Y1009391D01*
X2784369Y1010153D01*
X2784293Y1011829D01*
X2784064Y1013734D01*
X2783759Y1015792D01*
X2783455Y1018078D01*
X2782997Y1020440D01*
X2782388Y1022878D01*
X2781702Y1025393D01*
X2780864Y1027908D01*
X2779797Y1030270D01*
X2778654Y1032632D01*
X2777282Y1034766D01*
X2775758Y1036747D01*
X2775682Y1036899D01*
X2775377Y1037204D01*
X2774844Y1037661D01*
X2774158Y1038347D01*
X2773320Y1039109D01*
X2772253Y1039947D01*
X2771034Y1040862D01*
X2769586Y1041852D01*
X2768062Y1042843D01*
X2766310Y1043757D01*
X2764405Y1044672D01*
X2762347Y1045434D01*
X2760137Y1046196D01*
X2757775Y1046729D01*
X2755261Y1047110D01*
X2752594Y1047339D01*
X2751679Y1026079D01*
X2751755D01*
X2752060Y1026003D01*
X2752441Y1025926D01*
X2752975Y1025774D01*
X2753660Y1025622D01*
X2754422Y1025393D01*
X2755261Y1025164D01*
X2756175Y1024860D01*
X2758080Y1024021D01*
X2759985Y1023031D01*
X2761814Y1021735D01*
X2762652Y1021050D01*
X2763338Y1020211D01*
X2763414Y1020135D01*
X2763490Y1019983D01*
X2763643Y1019754D01*
X2763871Y1019373D01*
X2764176Y1018916D01*
X2764481Y1018306D01*
X2764786Y1017621D01*
X2765167Y1016859D01*
X2765471Y1015944D01*
X2765776Y1014954D01*
X2766081Y1013811D01*
X2766386Y1012591D01*
X2766614Y1011296D01*
X2766767Y1009924D01*
X2766919Y1008324D01*
Y1005810D01*
X2766843Y1005200D01*
X2766767Y1004438D01*
X2766691Y1003524D01*
X2766614Y1002533D01*
X2766462Y1001390D01*
X2766005Y999104D01*
X2765319Y996666D01*
X2764862Y995446D01*
X2764328Y994303D01*
X2763719Y993237D01*
X2763033Y992170D01*
X2762957Y992017D01*
X2762576Y991636D01*
X2762042Y991103D01*
X2761280Y990493D01*
X2760366Y989884D01*
X2759299Y989350D01*
X2758004Y988969D01*
X2757318Y988893D01*
X2756556Y988817D01*
X2756480D01*
X2756404D01*
X2755946Y988893D01*
X2755261Y988969D01*
X2754346Y989198D01*
X2753356Y989579D01*
X2752289Y990112D01*
X2751222Y990874D01*
X2750155Y991941D01*
Y992017D01*
X2750003Y992170D01*
X2749850Y992398D01*
X2749546Y992856D01*
X2749241Y993389D01*
X2748860Y994075D01*
X2748479Y994913D01*
X2748022Y995904D01*
X2747488Y997123D01*
X2746955Y998494D01*
X2746345Y1000095D01*
X2745736Y1001923D01*
X2745050Y1003981D01*
X2744440Y1006191D01*
X2743754Y1008781D01*
X2743069Y1011525D01*
Y1011601D01*
X2742992Y1011677D01*
Y1011906D01*
X2742916Y1012210D01*
X2742688Y1012972D01*
X2742459Y1014039D01*
X2742078Y1015335D01*
X2741697Y1016859D01*
X2741240Y1018459D01*
X2740783Y1020211D01*
X2740173Y1022040D01*
X2739640Y1023945D01*
X2738344Y1027755D01*
X2737658Y1029584D01*
X2736896Y1031337D01*
X2736211Y1033013D01*
X2735449Y1034461D01*
X2735372Y1034537D01*
X2735296Y1034766D01*
X2735068Y1035147D01*
X2734763Y1035680D01*
X2734306Y1036290D01*
X2733848Y1037052D01*
X2733315Y1037814D01*
X2732629Y1038728D01*
X2731943Y1039642D01*
X2731105Y1040557D01*
X2730267Y1041547D01*
X2729276Y1042538D01*
X2727143Y1044443D01*
X2725924Y1045281D01*
X2724704Y1046119D01*
X2724628Y1046196D01*
X2724400Y1046272D01*
X2724019Y1046500D01*
X2723485Y1046805D01*
X2722799Y1047110D01*
X2722037Y1047491D01*
X2721123Y1047872D01*
X2720056Y1048253D01*
X2718913Y1048634D01*
X2717618Y1049015D01*
X2716246Y1049396D01*
X2714798Y1049701D01*
X2713198Y1050006D01*
X2711522Y1050234D01*
X2709769Y1050310D01*
X2707940Y1050387D01*
X2784521D01*
D02*
G37*
G36*
X2677308Y929038D02*
Y929000D01*
D01*
Y929038D01*
D02*
G37*
G36*
Y928962D02*
Y928886D01*
D01*
Y928962D01*
D02*
G37*
G36*
Y928428D02*
Y928276D01*
D01*
Y928428D01*
D02*
G37*
G36*
Y928200D02*
Y928047D01*
D01*
Y928200D01*
D02*
G37*
G36*
Y926752D02*
Y926600D01*
D01*
Y926752D01*
D02*
G37*
G36*
Y926447D02*
Y926371D01*
D01*
Y926447D01*
D02*
G37*
G36*
Y925914D02*
Y925761D01*
D01*
Y925914D01*
D02*
G37*
G36*
Y925609D02*
Y925533D01*
D01*
Y925609D01*
D02*
G37*
G36*
Y924771D02*
Y924695D01*
D01*
Y924771D01*
D02*
G37*
G36*
Y924161D02*
Y924085D01*
D01*
Y924161D01*
D02*
G37*
G36*
Y923933D02*
Y923856D01*
D01*
Y923933D01*
D02*
G37*
G36*
Y923323D02*
Y923247D01*
D01*
Y923323D01*
D02*
G37*
G36*
Y921647D02*
Y921570D01*
D01*
Y921647D01*
D02*
G37*
G36*
Y920808D02*
Y920504D01*
D01*
Y920808D01*
D02*
G37*
G36*
Y919970D02*
Y919894D01*
D01*
Y919970D01*
D02*
G37*
G36*
Y919818D02*
Y919665D01*
D01*
Y919818D01*
D02*
G37*
G36*
Y919284D02*
Y919056D01*
D01*
Y919284D01*
D02*
G37*
G36*
X2885624Y953651D02*
D01*
Y918446D01*
X2885547Y919361D01*
Y920504D01*
X2885471Y921799D01*
X2885395Y923247D01*
X2885243Y924771D01*
X2885090Y926371D01*
X2884862Y928047D01*
X2884252Y931400D01*
X2883947Y933000D01*
X2883490Y934601D01*
X2882957Y936048D01*
X2882423Y937344D01*
Y937420D01*
X2882271Y937649D01*
X2882118Y937953D01*
X2881814Y938411D01*
X2881509Y938944D01*
X2881128Y939554D01*
X2880213Y941001D01*
X2878994Y942525D01*
X2877623Y944049D01*
X2876022Y945497D01*
X2875184Y946107D01*
X2874270Y946640D01*
X2874194D01*
X2874041Y946793D01*
X2873736Y946869D01*
X2873279Y947097D01*
X2872746Y947250D01*
X2871984Y947478D01*
X2871146Y947783D01*
X2870155Y948012D01*
X2869012Y948240D01*
X2867640Y948545D01*
X2866193Y948774D01*
X2864516Y948926D01*
X2862687Y949155D01*
X2860706Y949231D01*
X2858496Y949383D01*
X2856134D01*
X2832588Y949079D01*
X2832512D01*
X2832131D01*
X2831598D01*
X2830912D01*
X2830074D01*
X2829159Y949155D01*
X2828093D01*
X2826950Y949231D01*
X2824511Y949307D01*
X2822073Y949460D01*
X2820854Y949536D01*
X2819711Y949688D01*
X2818720Y949841D01*
X2817729Y949993D01*
X2817653D01*
X2817501Y950069D01*
X2817272D01*
X2816891Y950222D01*
X2816434Y950298D01*
X2815901Y950450D01*
X2814681Y950831D01*
X2813157Y951288D01*
X2811405Y951974D01*
X2809500Y952736D01*
X2807519Y953651D01*
Y933686D01*
X2807595D01*
X2807900Y933534D01*
X2808357Y933381D01*
X2809043Y933153D01*
X2809881Y932848D01*
X2810871Y932467D01*
X2812091Y932086D01*
X2813462Y931705D01*
X2813538D01*
X2813767Y931629D01*
X2814072Y931553D01*
X2814453Y931400D01*
X2815215Y931172D01*
X2815520Y931095D01*
X2815824Y931019D01*
X2815748Y930943D01*
X2815596Y930791D01*
X2815367Y930486D01*
X2814986Y930105D01*
X2814605Y929648D01*
X2814072Y929038D01*
X2813538Y928428D01*
X2813005Y927666D01*
X2811786Y926066D01*
X2810490Y924161D01*
X2809347Y922104D01*
X2808281Y919894D01*
Y919818D01*
X2808204Y919665D01*
X2808052Y919284D01*
X2807900Y918903D01*
X2807671Y918294D01*
X2807519Y917684D01*
X2807290Y916922D01*
X2807061Y916160D01*
X2806757Y915246D01*
X2806528Y914255D01*
X2806147Y912122D01*
X2805842Y909759D01*
X2805766Y907321D01*
Y906788D01*
X2805842Y906178D01*
Y905340D01*
X2805995Y904349D01*
X2806071Y903206D01*
X2806299Y901987D01*
X2806604Y900539D01*
X2806909Y899091D01*
X2807366Y897567D01*
X2807823Y896043D01*
X2808433Y894519D01*
X2809195Y892995D01*
X2810033Y891471D01*
X2811024Y890024D01*
X2812167Y888728D01*
X2812243Y888652D01*
X2812472Y888423D01*
X2812853Y888119D01*
X2813310Y887661D01*
X2813919Y887128D01*
X2814681Y886595D01*
X2815596Y885985D01*
X2816586Y885375D01*
X2817729Y884690D01*
X2818949Y884080D01*
X2820244Y883547D01*
X2821692Y883013D01*
X2823216Y882556D01*
X2824816Y882251D01*
X2826569Y882023D01*
X2828321Y881946D01*
X2805766D01*
X2885624D01*
Y953651D01*
D02*
G37*
G36*
X2677308Y917532D02*
Y917379D01*
D01*
Y917532D01*
D02*
G37*
G36*
Y917227D02*
Y917151D01*
D01*
Y917227D01*
D02*
G37*
G36*
Y916922D02*
D01*
D01*
D01*
D02*
G37*
G36*
Y916617D02*
Y916541D01*
D01*
Y916617D01*
D02*
G37*
G36*
Y916389D02*
Y916313D01*
D01*
Y916389D01*
D02*
G37*
G36*
X2652939Y984588D02*
X2545269D01*
D01*
X2597085D01*
X2596247Y984512D01*
X2595256D01*
X2594189Y984435D01*
X2592970Y984359D01*
X2591751Y984283D01*
X2590379Y984207D01*
X2588931Y984054D01*
X2585807Y983750D01*
X2582454Y983292D01*
X2578949Y982759D01*
X2575368Y982073D01*
X2571786Y981235D01*
X2568281Y980244D01*
X2564852Y979025D01*
X2561652Y977654D01*
X2560128Y976892D01*
X2558680Y976053D01*
X2557308Y975139D01*
X2556013Y974225D01*
X2555861Y974148D01*
X2555556Y973844D01*
X2555022Y973310D01*
X2554337Y972624D01*
X2553498Y971786D01*
X2552584Y970719D01*
X2551670Y969424D01*
X2550679Y967976D01*
X2549612Y966376D01*
X2548698Y964623D01*
X2547783Y962642D01*
X2546945Y960509D01*
X2546259Y958223D01*
X2545726Y955708D01*
X2545421Y953117D01*
X2545269Y950298D01*
Y949612D01*
X2545345Y948850D01*
X2545421Y947783D01*
X2545650Y946412D01*
X2545878Y944964D01*
X2546259Y943211D01*
X2546717Y941459D01*
X2547402Y939477D01*
X2548164Y937496D01*
X2549079Y935439D01*
X2550222Y933305D01*
X2551593Y931248D01*
X2553194Y929267D01*
X2555022Y927285D01*
X2557080Y925457D01*
X2557232Y925380D01*
X2557613Y925076D01*
X2557994Y924847D01*
X2558375Y924618D01*
X2558832Y924314D01*
X2559366Y924009D01*
X2560052Y923628D01*
X2560737Y923323D01*
X2561576Y922866D01*
X2562414Y922485D01*
X2563404Y922104D01*
X2564395Y921647D01*
X2565538Y921189D01*
X2566757Y920808D01*
X2568053Y920351D01*
X2569500Y919894D01*
X2570948Y919437D01*
X2572548Y919056D01*
X2574225Y918675D01*
X2575977Y918294D01*
X2577882Y917913D01*
X2579864Y917532D01*
X2581921Y917227D01*
X2584055Y916922D01*
X2586341Y916694D01*
X2588703Y916465D01*
X2591141Y916313D01*
X2593732Y916160D01*
X2596399Y916084D01*
X2600514D01*
X2601200Y916160D01*
X2602038D01*
X2603028D01*
X2604095Y916236D01*
X2605238Y916313D01*
X2606534Y916389D01*
X2607905Y916541D01*
X2609353Y916617D01*
X2612401Y916922D01*
X2615754Y917379D01*
X2619259Y917913D01*
X2622764Y918599D01*
X2626346Y919437D01*
X2629927Y920427D01*
X2633280Y921570D01*
X2636480Y922942D01*
X2638004Y923780D01*
X2639452Y924542D01*
X2640824Y925457D01*
X2642119Y926371D01*
X2642271Y926447D01*
X2642576Y926752D01*
X2643110Y927285D01*
X2643795Y927971D01*
X2644634Y928809D01*
X2645548Y929876D01*
X2646539Y931172D01*
X2647529Y932619D01*
X2648520Y934220D01*
X2649510Y935972D01*
X2650425Y937953D01*
X2651263Y940087D01*
X2651949Y942373D01*
X2652482Y944888D01*
X2652787Y947478D01*
X2652939Y950298D01*
Y916084D01*
D01*
Y984588D01*
D02*
G37*
G36*
X2677308Y915322D02*
Y915246D01*
D01*
Y915322D01*
D02*
G37*
G36*
Y913341D02*
Y913188D01*
D01*
Y913341D01*
D02*
G37*
G36*
Y912503D02*
Y912122D01*
D01*
Y912503D01*
D02*
G37*
G36*
Y911131D02*
Y910674D01*
D01*
Y911131D01*
D02*
G37*
G36*
X2567291Y899777D02*
X2547098D01*
Y879584D01*
X2567291D01*
Y899777D01*
D02*
G37*
G36*
X2782769Y948812D02*
X2677308D01*
Y929076D01*
X2760290Y929000D01*
X2677308Y908121D01*
Y887623D01*
X2760290Y866821D01*
X2677308D01*
Y847085D01*
X2782769D01*
Y878937D01*
X2710760Y897987D01*
X2782769Y916808D01*
Y948812D01*
D02*
G37*
G36*
X2912065Y872193D02*
Y819234D01*
X2825349D01*
Y872193D01*
X2807519D01*
Y797974D01*
X2912065D01*
Y872193D01*
D02*
G37*
G36*
X2652939Y845066D02*
X2547098D01*
Y824873D01*
X2623221D01*
X2623069Y824720D01*
X2622764Y824339D01*
X2622231Y823730D01*
X2621545Y822891D01*
X2620707Y821825D01*
X2619716Y820529D01*
X2618573Y819081D01*
X2617430Y817405D01*
X2616211Y815576D01*
X2614916Y813595D01*
X2613620Y811461D01*
X2612401Y809175D01*
X2611182Y806737D01*
X2609963Y804146D01*
X2608896Y801479D01*
X2607905Y798736D01*
X2626269D01*
Y798812D01*
X2626422Y799117D01*
X2626574Y799498D01*
X2626803Y800108D01*
X2627108Y800870D01*
X2627412Y801708D01*
X2627870Y802698D01*
X2628403Y803841D01*
X2629089Y805061D01*
X2629775Y806356D01*
X2630537Y807804D01*
X2631451Y809252D01*
X2632442Y810852D01*
X2633508Y812452D01*
X2634728Y814128D01*
X2636023Y815881D01*
X2636099Y815957D01*
X2636328Y816262D01*
X2636785Y816795D01*
X2637318Y817405D01*
X2638004Y818167D01*
X2638842Y819005D01*
X2639757Y819920D01*
X2640824Y820986D01*
X2642043Y821977D01*
X2643338Y823044D01*
X2644710Y824111D01*
X2646234Y825177D01*
X2647758Y826168D01*
X2649434Y827082D01*
X2651187Y827921D01*
X2652939Y828606D01*
Y798736D01*
D01*
Y845066D01*
D02*
G37*
G36*
X2725619Y835579D02*
X2705426D01*
Y795879D01*
X2725619D01*
Y835579D01*
D02*
G37*
G36*
X2753737Y780181D02*
X2752517D01*
X2751908Y780105D01*
X2751146Y780029D01*
X2750308Y779953D01*
X2749393Y779877D01*
X2747336Y779572D01*
X2745050Y779115D01*
X2742611Y778429D01*
X2740173Y777591D01*
X2740097D01*
X2739868Y777438D01*
X2739563Y777286D01*
X2739030Y777133D01*
X2738497Y776829D01*
X2737811Y776448D01*
X2736973Y776067D01*
X2736134Y775609D01*
X2735144Y775076D01*
X2734077Y774466D01*
X2731791Y773095D01*
X2729353Y771418D01*
X2726762Y769513D01*
X2726686Y769437D01*
X2726533Y769361D01*
X2726305Y769132D01*
X2725924Y768828D01*
X2725390Y768370D01*
X2724781Y767837D01*
X2724095Y767227D01*
X2723333Y766465D01*
X2722418Y765627D01*
X2721428Y764637D01*
X2720285Y763570D01*
X2719066Y762351D01*
X2717770Y761055D01*
X2716399Y759607D01*
X2714875Y758007D01*
X2713274Y756255D01*
X2713198Y756178D01*
X2712893Y755874D01*
X2712436Y755340D01*
X2711827Y754731D01*
X2711141Y753969D01*
X2710379Y753054D01*
X2709464Y752140D01*
X2708550Y751149D01*
X2706569Y749092D01*
X2704664Y747034D01*
X2703749Y746120D01*
X2702987Y745358D01*
X2702225Y744596D01*
X2701616Y744063D01*
X2701463Y743986D01*
X2701159Y743682D01*
X2700549Y743148D01*
X2699863Y742615D01*
X2699025Y741929D01*
X2698034Y741243D01*
X2697044Y740557D01*
X2696053Y739948D01*
Y780181D01*
X2718326D01*
X2677308D01*
Y709315D01*
X2677460D01*
X2677765Y709392D01*
X2678375Y709468D01*
X2679137Y709620D01*
X2680051Y709773D01*
X2681194Y710001D01*
X2682413Y710230D01*
X2683785Y710611D01*
X2685309Y710992D01*
X2686909Y711525D01*
X2688509Y712059D01*
X2690262Y712668D01*
X2692015Y713430D01*
X2693843Y714268D01*
X2695596Y715183D01*
X2697425Y716173D01*
X2697501Y716250D01*
X2697882Y716478D01*
X2698415Y716859D01*
X2699177Y717316D01*
X2700092Y718002D01*
X2701235Y718917D01*
X2702606Y719983D01*
X2704130Y721203D01*
X2705883Y722650D01*
X2707788Y724251D01*
X2709845Y726156D01*
X2712131Y728213D01*
X2714570Y730575D01*
X2717084Y733090D01*
X2719828Y735909D01*
X2722723Y738957D01*
X2722799Y739033D01*
X2722876Y739110D01*
X2723257Y739567D01*
X2723942Y740253D01*
X2724781Y741167D01*
X2725847Y742234D01*
X2726990Y743453D01*
X2728286Y744748D01*
X2729657Y746196D01*
X2732553Y749016D01*
X2733925Y750463D01*
X2735372Y751759D01*
X2736668Y753054D01*
X2737887Y754121D01*
X2739030Y755035D01*
X2739944Y755721D01*
X2740021Y755797D01*
X2740249Y755874D01*
X2740554Y756102D01*
X2741011Y756407D01*
X2741621Y756712D01*
X2742230Y757017D01*
X2742992Y757398D01*
X2743831Y757855D01*
X2745736Y758617D01*
X2747793Y759226D01*
X2750079Y759760D01*
X2751222Y759836D01*
X2752365Y759912D01*
X2752441D01*
X2752670D01*
X2752975D01*
X2753508Y759836D01*
X2754041D01*
X2754651Y759760D01*
X2756175Y759455D01*
X2757851Y758998D01*
X2759604Y758388D01*
X2761204Y757474D01*
X2762042Y756864D01*
X2762728Y756255D01*
X2762804Y756178D01*
X2762881Y756102D01*
X2763033Y755874D01*
X2763338Y755569D01*
X2763566Y755188D01*
X2763871Y754731D01*
X2764252Y754197D01*
X2764557Y753664D01*
X2765243Y752216D01*
X2765852Y750463D01*
X2766233Y748482D01*
X2766310Y747339D01*
X2766386Y746196D01*
Y745587D01*
X2766310Y745129D01*
Y744596D01*
X2766157Y743986D01*
X2765929Y742539D01*
X2765471Y740938D01*
X2764786Y739186D01*
X2764328Y738424D01*
X2763871Y737586D01*
X2763262Y736824D01*
X2762576Y736062D01*
X2762500Y735985D01*
X2762423Y735909D01*
X2762195Y735681D01*
X2761814Y735452D01*
X2761433Y735147D01*
X2760899Y734842D01*
X2760290Y734538D01*
X2759604Y734157D01*
X2758766Y733776D01*
X2757851Y733395D01*
X2756785Y733014D01*
X2755642Y732709D01*
X2754346Y732404D01*
X2752975Y732099D01*
X2751527Y731947D01*
X2749927Y731794D01*
X2751908Y711678D01*
X2751984D01*
X2752136D01*
X2752365Y711754D01*
X2752670D01*
X2753051Y711830D01*
X2753508Y711906D01*
X2754651Y712135D01*
X2756023Y712363D01*
X2757547Y712744D01*
X2759299Y713202D01*
X2761128Y713735D01*
X2763109Y714421D01*
X2765090Y715183D01*
X2767072Y716097D01*
X2769053Y717164D01*
X2770958Y718307D01*
X2772710Y719679D01*
X2774387Y721203D01*
X2775835Y722879D01*
X2775911Y722955D01*
X2776139Y723336D01*
X2776520Y723870D01*
X2776978Y724555D01*
X2777511Y725546D01*
X2778121Y726613D01*
X2778806Y727984D01*
X2779492Y729432D01*
X2780178Y731032D01*
X2780864Y732861D01*
X2781473Y734842D01*
X2782007Y736900D01*
X2782464Y739186D01*
X2782845Y741548D01*
X2783074Y744063D01*
X2783150Y746653D01*
Y747339D01*
X2783074Y748177D01*
X2782997Y749244D01*
X2782921Y750540D01*
X2782693Y752064D01*
X2782464Y753740D01*
X2782083Y755569D01*
X2781626Y757474D01*
X2781092Y759531D01*
X2780407Y761589D01*
X2779568Y763570D01*
X2778578Y765627D01*
X2777511Y767608D01*
X2776216Y769437D01*
X2774692Y771190D01*
X2774615Y771266D01*
X2774311Y771571D01*
X2773853Y772028D01*
X2773168Y772561D01*
X2772329Y773247D01*
X2771415Y774009D01*
X2770196Y774847D01*
X2768900Y775686D01*
X2767453Y776524D01*
X2765929Y777362D01*
X2764176Y778124D01*
X2762347Y778810D01*
X2760366Y779343D01*
X2758232Y779800D01*
X2756023Y780105D01*
X2753737Y780181D01*
D02*
G37*
G36*
X2914732Y738614D02*
X2838151D01*
D01*
X2914732D01*
D02*
G37*
G36*
X2623526Y785325D02*
X2547098D01*
D01*
X2623526D01*
X2547098Y754997D01*
Y736785D01*
X2623526Y706001D01*
D01*
Y785325D01*
D02*
G37*
G36*
X2914732Y738614D02*
D01*
Y696476D01*
X2914656Y697009D01*
Y697619D01*
X2914580Y698381D01*
X2914503Y700057D01*
X2914275Y701962D01*
X2913970Y704019D01*
X2913665Y706305D01*
X2913208Y708668D01*
X2912598Y711106D01*
X2911913Y713621D01*
X2911074Y716135D01*
X2910008Y718497D01*
X2908865Y720860D01*
X2907493Y722993D01*
X2905969Y724974D01*
X2905893Y725127D01*
X2905588Y725432D01*
X2905055Y725889D01*
X2904369Y726575D01*
X2903531Y727337D01*
X2902464Y728175D01*
X2901245Y729089D01*
X2899797Y730080D01*
X2898273Y731070D01*
X2896520Y731985D01*
X2894615Y732899D01*
X2892558Y733661D01*
X2890348Y734423D01*
X2887986Y734957D01*
X2885471Y735338D01*
X2882804Y735566D01*
X2881890Y714306D01*
X2881966D01*
X2882271Y714230D01*
X2882652Y714154D01*
X2883185Y714002D01*
X2883871Y713849D01*
X2884633Y713621D01*
X2885471Y713392D01*
X2886386Y713087D01*
X2888291Y712249D01*
X2890196Y711258D01*
X2892024Y709963D01*
X2892863Y709277D01*
X2893548Y708439D01*
X2893625Y708363D01*
X2893701Y708210D01*
X2893853Y707982D01*
X2894082Y707601D01*
X2894387Y707144D01*
X2894691Y706534D01*
X2894996Y705848D01*
X2895377Y705086D01*
X2895682Y704172D01*
X2895987Y703181D01*
X2896292Y702038D01*
X2896596Y700819D01*
X2896825Y699524D01*
X2896977Y698152D01*
X2897130Y696552D01*
Y694037D01*
X2897054Y693428D01*
X2896977Y692666D01*
X2896901Y691751D01*
X2896825Y690761D01*
X2896673Y689618D01*
X2896215Y687332D01*
X2895530Y684893D01*
X2895072Y683674D01*
X2894539Y682531D01*
X2893929Y681464D01*
X2893244Y680397D01*
X2893167Y680245D01*
X2892786Y679864D01*
X2892253Y679331D01*
X2891491Y678721D01*
X2890577Y678111D01*
X2889510Y677578D01*
X2888214Y677197D01*
X2887529Y677121D01*
X2886767Y677045D01*
X2886690D01*
X2886614D01*
X2886157Y677121D01*
X2885471Y677197D01*
X2884557Y677426D01*
X2883566Y677807D01*
X2882499Y678340D01*
X2881433Y679102D01*
X2880366Y680169D01*
Y680245D01*
X2880213Y680397D01*
X2880061Y680626D01*
X2879756Y681083D01*
X2879451Y681617D01*
X2879070Y682302D01*
X2878689Y683141D01*
X2878232Y684131D01*
X2877699Y685350D01*
X2877165Y686722D01*
X2876556Y688322D01*
X2875946Y690151D01*
X2875260Y692208D01*
X2874651Y694418D01*
X2873965Y697009D01*
X2873279Y699752D01*
Y699828D01*
X2873203Y699905D01*
Y700133D01*
X2873127Y700438D01*
X2872898Y701200D01*
X2872670Y702267D01*
X2872289Y703562D01*
X2871908Y705086D01*
X2871450Y706686D01*
X2870993Y708439D01*
X2870384Y710268D01*
X2869850Y712173D01*
X2868555Y715983D01*
X2867869Y717812D01*
X2867107Y719564D01*
X2866421Y721241D01*
X2865659Y722688D01*
X2865583Y722765D01*
X2865507Y722993D01*
X2865278Y723374D01*
X2864973Y723908D01*
X2864516Y724517D01*
X2864059Y725279D01*
X2863526Y726041D01*
X2862840Y726956D01*
X2862154Y727870D01*
X2861316Y728784D01*
X2860478Y729775D01*
X2859487Y730766D01*
X2857353Y732671D01*
X2856134Y733509D01*
X2854915Y734347D01*
X2854839Y734423D01*
X2854610Y734499D01*
X2854229Y734728D01*
X2853696Y735033D01*
X2853010Y735338D01*
X2852248Y735719D01*
X2851334Y736100D01*
X2850267Y736481D01*
X2849124Y736862D01*
X2847828Y737243D01*
X2846457Y737624D01*
X2845009Y737928D01*
X2843409Y738233D01*
X2841732Y738462D01*
X2839980Y738538D01*
X2838151Y738614D01*
X2837237D01*
X2836627Y738538D01*
X2835789Y738462D01*
X2834874Y738309D01*
X2833808Y738157D01*
X2832665Y738005D01*
X2831369Y737700D01*
X2829998Y737395D01*
X2828626Y736938D01*
X2827178Y736481D01*
X2825654Y735871D01*
X2824130Y735185D01*
X2822682Y734423D01*
X2821158Y733509D01*
X2821082Y733433D01*
X2820854Y733280D01*
X2820396Y732975D01*
X2819863Y732594D01*
X2819253Y732061D01*
X2818491Y731451D01*
X2817653Y730689D01*
X2816739Y729851D01*
X2815824Y728861D01*
X2814834Y727794D01*
X2813843Y726651D01*
X2812929Y725355D01*
X2811938Y723984D01*
X2811024Y722536D01*
X2810186Y720936D01*
X2809424Y719259D01*
X2809347Y719183D01*
X2809271Y718878D01*
X2809043Y718345D01*
X2808814Y717583D01*
X2808509Y716745D01*
X2808204Y715678D01*
X2807900Y714383D01*
X2807519Y713011D01*
X2807138Y711411D01*
X2806833Y709658D01*
X2806528Y707753D01*
X2806223Y705772D01*
X2805995Y703638D01*
X2805766Y701352D01*
X2805690Y698914D01*
X2805614Y696408D01*
Y695026D01*
X2805690Y694494D01*
Y693809D01*
X2805766Y693123D01*
X2805918Y691446D01*
X2806071Y689465D01*
X2806376Y687332D01*
X2806757Y685046D01*
X2807290Y682607D01*
X2807900Y680093D01*
X2808585Y677502D01*
X2809500Y674987D01*
X2810567Y672473D01*
X2811786Y670034D01*
X2813234Y667748D01*
X2814834Y665615D01*
X2814910Y665462D01*
X2815291Y665157D01*
X2815824Y664624D01*
X2816586Y663938D01*
X2817501Y663100D01*
X2818720Y662109D01*
X2820092Y661119D01*
X2821692Y660052D01*
X2823444Y658909D01*
X2825502Y657842D01*
X2827712Y656775D01*
X2830074Y655785D01*
X2832741Y654794D01*
X2835560Y654032D01*
X2838608Y653346D01*
X2841809Y652889D01*
X2843790Y673616D01*
X2843637D01*
X2843333Y673692D01*
X2842799Y673844D01*
X2842113Y673997D01*
X2841199Y674225D01*
X2840208Y674530D01*
X2839142Y674835D01*
X2837999Y675216D01*
X2835484Y676283D01*
X2834189Y676892D01*
X2832893Y677578D01*
X2831674Y678340D01*
X2830531Y679178D01*
X2829464Y680169D01*
X2828474Y681159D01*
X2828397Y681236D01*
X2828245Y681464D01*
X2828016Y681769D01*
X2827712Y682226D01*
X2827331Y682760D01*
X2826950Y683522D01*
X2826492Y684284D01*
X2826035Y685274D01*
X2825578Y686265D01*
X2825121Y687484D01*
X2824740Y688703D01*
X2824359Y690075D01*
X2824054Y691599D01*
X2823825Y693199D01*
X2823673Y694875D01*
X2823597Y696628D01*
Y697619D01*
X2823673Y698304D01*
X2823749Y699143D01*
X2823825Y700133D01*
X2823978Y701276D01*
X2824130Y702419D01*
X2824664Y704934D01*
X2825045Y706229D01*
X2825426Y707525D01*
X2825959Y708744D01*
X2826492Y709963D01*
X2827178Y711106D01*
X2827940Y712097D01*
X2828016Y712173D01*
X2828169Y712325D01*
X2828397Y712554D01*
X2828702Y712935D01*
X2829159Y713316D01*
X2829617Y713773D01*
X2830226Y714230D01*
X2830836Y714764D01*
X2832360Y715678D01*
X2834036Y716516D01*
X2835027Y716897D01*
X2835941Y717126D01*
X2837008Y717278D01*
X2838075Y717354D01*
X2838151D01*
X2838227D01*
X2838684D01*
X2839370Y717278D01*
X2840285Y717050D01*
X2841275Y716821D01*
X2842342Y716440D01*
X2843409Y715907D01*
X2844399Y715145D01*
X2844552Y715068D01*
X2844857Y714687D01*
X2845314Y714154D01*
X2846000Y713392D01*
X2846685Y712325D01*
X2847524Y710954D01*
X2848286Y709353D01*
X2848667Y708439D01*
X2849048Y707448D01*
Y707372D01*
X2849124Y707296D01*
X2849200Y706991D01*
X2849276Y706686D01*
X2849429Y706153D01*
X2849657Y705543D01*
X2849886Y704781D01*
X2850114Y703943D01*
X2850419Y702876D01*
X2850724Y701657D01*
X2851105Y700286D01*
X2851562Y698685D01*
X2852019Y696933D01*
X2852477Y694952D01*
X2853010Y692742D01*
X2853620Y690380D01*
Y690303D01*
X2853696Y690151D01*
Y689922D01*
X2853848Y689618D01*
X2853924Y689237D01*
X2854077Y688779D01*
X2854382Y687636D01*
X2854763Y686189D01*
X2855296Y684588D01*
X2855906Y682836D01*
X2856515Y681007D01*
X2857277Y679026D01*
X2858039Y677045D01*
X2858877Y674987D01*
X2859792Y673082D01*
X2860782Y671177D01*
X2861849Y669425D01*
X2862916Y667824D01*
X2864059Y666377D01*
X2864135Y666300D01*
X2864440Y665996D01*
X2864973Y665462D01*
X2865583Y664853D01*
X2866421Y664167D01*
X2867488Y663329D01*
X2868631Y662414D01*
X2870003Y661576D01*
X2871450Y660662D01*
X2873051Y659747D01*
X2874803Y658909D01*
X2876632Y658223D01*
X2878613Y657614D01*
X2880747Y657080D01*
X2882957Y656775D01*
X2885243Y656699D01*
X2885319D01*
X2885624D01*
X2886005D01*
X2886614Y656775D01*
X2887300Y656852D01*
X2888138Y656928D01*
X2889129Y657080D01*
X2890196Y657233D01*
X2891262Y657537D01*
X2892482Y657766D01*
X2893701Y658147D01*
X2894996Y658604D01*
X2896368Y659138D01*
X2897663Y659747D01*
X2899035Y660433D01*
X2900330Y661195D01*
X2900406Y661271D01*
X2900635Y661424D01*
X2901016Y661652D01*
X2901473Y662033D01*
X2902083Y662490D01*
X2902769Y663100D01*
X2903454Y663786D01*
X2904293Y664548D01*
X2905131Y665462D01*
X2906045Y666453D01*
X2906883Y667520D01*
X2907798Y668663D01*
X2908636Y669958D01*
X2909474Y671330D01*
X2910312Y672777D01*
X2910998Y674378D01*
X2911074Y674454D01*
X2911151Y674759D01*
X2911379Y675292D01*
X2911608Y675902D01*
X2911836Y676740D01*
X2912217Y677730D01*
X2912522Y678873D01*
X2912903Y680169D01*
X2913208Y681617D01*
X2913589Y683217D01*
X2913894Y684893D01*
X2914122Y686722D01*
X2914427Y688703D01*
X2914580Y690761D01*
X2914656Y692894D01*
X2914732Y695104D01*
Y652889D01*
X2805614D01*
X2914732D01*
Y738614D01*
D02*
G37*
G36*
X2781397Y701162D02*
X2675479D01*
Y630296D01*
D01*
Y664434D01*
X2675555Y663672D01*
X2675632Y662605D01*
X2675708Y661386D01*
X2675860Y659938D01*
X2676165Y658338D01*
X2676470Y656585D01*
X2676851Y654756D01*
X2677384Y652851D01*
X2677994Y650870D01*
X2678756Y648889D01*
X2679670Y646908D01*
X2680661Y644926D01*
X2681880Y643021D01*
X2683252Y641269D01*
X2683328Y641193D01*
X2683633Y640888D01*
X2684090Y640431D01*
X2684699Y639821D01*
X2685461Y639059D01*
X2686452Y638297D01*
X2687519Y637383D01*
X2688814Y636468D01*
X2690262Y635478D01*
X2691862Y634563D01*
X2693539Y633649D01*
X2695444Y632734D01*
X2697425Y631972D01*
X2699635Y631287D01*
X2701844Y630677D01*
X2704283Y630296D01*
D01*
X2706416Y650413D01*
X2706340D01*
X2706112Y650489D01*
X2705731D01*
X2705273Y650641D01*
X2704740Y650718D01*
X2704054Y650870D01*
X2702530Y651327D01*
X2700778Y652013D01*
X2698949Y652927D01*
X2697196Y653994D01*
X2696358Y654680D01*
X2695596Y655442D01*
X2695520Y655518D01*
X2695444Y655671D01*
X2695215Y655899D01*
X2694986Y656204D01*
X2694682Y656585D01*
X2694377Y657118D01*
X2693615Y658261D01*
X2692853Y659709D01*
X2692243Y661386D01*
X2691786Y663291D01*
X2691710Y664281D01*
X2691634Y665272D01*
Y665881D01*
X2691710Y666339D01*
X2691786Y666872D01*
X2691938Y667482D01*
X2692243Y669006D01*
X2692853Y670682D01*
X2693310Y671520D01*
X2693767Y672435D01*
X2694377Y673349D01*
X2695063Y674263D01*
X2695825Y675102D01*
X2696739Y675940D01*
X2696815Y676016D01*
X2696968Y676168D01*
X2697272Y676321D01*
X2697730Y676626D01*
X2698263Y676930D01*
X2698949Y677311D01*
X2699711Y677769D01*
X2700625Y678150D01*
X2701692Y678531D01*
X2702835Y678988D01*
X2704130Y679369D01*
X2705502Y679674D01*
X2707026Y679978D01*
X2708702Y680207D01*
X2710455Y680283D01*
X2712360Y680359D01*
X2712436D01*
X2712817D01*
X2713274D01*
X2713960Y680283D01*
X2714798Y680207D01*
X2715713Y680131D01*
X2716703Y679978D01*
X2717846Y679826D01*
X2720209Y679293D01*
X2721428Y678912D01*
X2722647Y678531D01*
X2723866Y677997D01*
X2724933Y677388D01*
X2726000Y676702D01*
X2726990Y675940D01*
X2727067Y675864D01*
X2727219Y675711D01*
X2727448Y675483D01*
X2727752Y675178D01*
X2728133Y674721D01*
X2728514Y674187D01*
X2728972Y673578D01*
X2729429Y672892D01*
X2729886Y672130D01*
X2730343Y671292D01*
X2731105Y669387D01*
X2731410Y668244D01*
X2731639Y667177D01*
X2731791Y665958D01*
X2731867Y664662D01*
Y664281D01*
X2731791Y663824D01*
X2731715Y663214D01*
X2731639Y662452D01*
X2731486Y661538D01*
X2731258Y660547D01*
X2730877Y659481D01*
X2730496Y658261D01*
X2729962Y657042D01*
X2729353Y655747D01*
X2728591Y654375D01*
X2727752Y653080D01*
X2726686Y651708D01*
X2725543Y650337D01*
X2724171Y649041D01*
X2726533Y632734D01*
X2781397Y643098D01*
Y696514D01*
X2762500D01*
Y658414D01*
X2744516Y655137D01*
X2744593Y655213D01*
X2744669Y655442D01*
X2744821Y655823D01*
X2745050Y656280D01*
X2745278Y656966D01*
X2745583Y657652D01*
X2745888Y658490D01*
X2746269Y659404D01*
X2746574Y660395D01*
X2746879Y661538D01*
X2747412Y663824D01*
X2747793Y666415D01*
X2747945Y667710D01*
Y669615D01*
X2747869Y670301D01*
X2747793Y671215D01*
X2747641Y672435D01*
X2747412Y673730D01*
X2747107Y675254D01*
X2746726Y676854D01*
X2746193Y678607D01*
X2745583Y680436D01*
X2744745Y682341D01*
X2743831Y684246D01*
X2742688Y686227D01*
X2741392Y688132D01*
X2739868Y689961D01*
X2738116Y691789D01*
X2738039Y691866D01*
X2737658Y692170D01*
X2737125Y692628D01*
X2736363Y693237D01*
X2735372Y693999D01*
X2734153Y694761D01*
X2732782Y695599D01*
X2731258Y696514D01*
X2729505Y697352D01*
X2727600Y698190D01*
X2725466Y699028D01*
X2723257Y699714D01*
X2720818Y700324D01*
X2718227Y700781D01*
X2715560Y701086D01*
X2712665Y701162D01*
X2781397D01*
D02*
G37*
G36*
X2652558Y661347D02*
X2547098D01*
D01*
X2634728D01*
Y630105D01*
X2547098D01*
Y608846D01*
X2634728D01*
Y577527D01*
X2652558D01*
Y661347D01*
D02*
G37*
G36*
X2825349Y640240D02*
X2807519D01*
Y560078D01*
X2912979D01*
Y638259D01*
X2895149D01*
Y581337D01*
X2871755D01*
Y634296D01*
X2853924D01*
Y581337D01*
X2825349D01*
Y640240D01*
D02*
G37*
G36*
X2782769Y616885D02*
X2677308D01*
Y544571D01*
X2782769D01*
Y616885D01*
D02*
G37*
G36*
X2654311Y565335D02*
X2545269D01*
D01*
X2561576D01*
X2561499Y565259D01*
X2561271Y565031D01*
X2560966Y564650D01*
X2560509Y564116D01*
X2559899Y563430D01*
X2559290Y562516D01*
X2558528Y561525D01*
X2557689Y560382D01*
X2556851Y559087D01*
X2555937Y557639D01*
X2555022Y556039D01*
X2554032Y554286D01*
X2553041Y552458D01*
X2552051Y550400D01*
X2551060Y548190D01*
X2550146Y545904D01*
X2550069Y545752D01*
X2549917Y545371D01*
X2549688Y544685D01*
X2549384Y543695D01*
X2549003Y542552D01*
X2548622Y541180D01*
X2548164Y539656D01*
X2547707Y537980D01*
X2547250Y536075D01*
X2546793Y534093D01*
X2546412Y531960D01*
X2546031Y529750D01*
X2545726Y527464D01*
X2545497Y525102D01*
X2545345Y522663D01*
X2545269Y520225D01*
Y519082D01*
X2545345Y518625D01*
Y517482D01*
X2545497Y516034D01*
X2545650Y514358D01*
X2545878Y512453D01*
X2546107Y510395D01*
X2546488Y508185D01*
X2546945Y505899D01*
X2547555Y503537D01*
X2548164Y501099D01*
X2549003Y498584D01*
X2549917Y496146D01*
X2550984Y493707D01*
X2552203Y491345D01*
X2552279Y491193D01*
X2552508Y490812D01*
X2552965Y490202D01*
X2553498Y489364D01*
X2554184Y488297D01*
X2555099Y487154D01*
X2556089Y485859D01*
X2557308Y484411D01*
X2558604Y482963D01*
X2560052Y481439D01*
X2561728Y479915D01*
X2563481Y478391D01*
X2565386Y476867D01*
X2567443Y475496D01*
X2569653Y474124D01*
X2572015Y472905D01*
X2572167Y472829D01*
X2572625Y472676D01*
X2573310Y472371D01*
X2574301Y471914D01*
X2575520Y471457D01*
X2576892Y470924D01*
X2578568Y470390D01*
X2580397Y469857D01*
X2582378Y469247D01*
X2584588Y468714D01*
X2586874Y468180D01*
X2589312Y467723D01*
X2591903Y467342D01*
X2594570Y467037D01*
X2597313Y466809D01*
X2600133Y466733D01*
X2601276D01*
X2601733Y466809D01*
X2602876D01*
X2604324Y466961D01*
X2606000Y467114D01*
X2607905Y467342D01*
X2609963Y467571D01*
X2612172Y467952D01*
X2614535Y468409D01*
X2616973Y468942D01*
X2619411Y469628D01*
X2621926Y470390D01*
X2624441Y471305D01*
X2626955Y472371D01*
X2629394Y473591D01*
X2629546Y473667D01*
X2629927Y473895D01*
X2630613Y474353D01*
X2631527Y474886D01*
X2632594Y475572D01*
X2633813Y476486D01*
X2635185Y477553D01*
X2636633Y478696D01*
X2638233Y480068D01*
X2639833Y481592D01*
X2641433Y483192D01*
X2643110Y485021D01*
X2644710Y487002D01*
X2646234Y489135D01*
X2647682Y491345D01*
X2649053Y493784D01*
X2649129Y493936D01*
X2649282Y494241D01*
X2649510Y494850D01*
X2649891Y495612D01*
X2650272Y496603D01*
X2650730Y497822D01*
X2651187Y499194D01*
X2651720Y500718D01*
X2652177Y502470D01*
X2652635Y504452D01*
X2653092Y506509D01*
X2653473Y508719D01*
X2653854Y511081D01*
X2654082Y513672D01*
X2654235Y516339D01*
X2654311Y519082D01*
Y466733D01*
D01*
Y565335D01*
D02*
G37*
G36*
X2912979Y537522D02*
X2807519D01*
Y516186D01*
X2876556Y473591D01*
X2807519D01*
Y453855D01*
X2912979D01*
Y474505D01*
X2842342Y517787D01*
X2912979D01*
Y537522D01*
D02*
G37*
G36*
X2677308Y532912D02*
Y438196D01*
X2782769D01*
Y484525D01*
X2782693Y485668D01*
Y487116D01*
X2782616Y488716D01*
X2782540Y490469D01*
X2782388Y492374D01*
X2782235Y494355D01*
X2782083Y496336D01*
X2781550Y500451D01*
X2781245Y502356D01*
X2780864Y504185D01*
X2780407Y505938D01*
X2779873Y507462D01*
Y507538D01*
X2779721Y507766D01*
X2779568Y508224D01*
X2779340Y508757D01*
X2779035Y509367D01*
X2778578Y510129D01*
X2778121Y510967D01*
X2777587Y511881D01*
X2776901Y512872D01*
X2776139Y513862D01*
X2775301Y514853D01*
X2774387Y515920D01*
X2773396Y516910D01*
X2772253Y517901D01*
X2771034Y518815D01*
X2769739Y519730D01*
X2769662Y519806D01*
X2769434Y519958D01*
X2768977Y520187D01*
X2768443Y520492D01*
X2767757Y520797D01*
X2766995Y521178D01*
X2766005Y521635D01*
X2764938Y522092D01*
X2763795Y522473D01*
X2762500Y522930D01*
X2761128Y523311D01*
X2759680Y523692D01*
X2758156Y523921D01*
X2756556Y524149D01*
X2754956Y524302D01*
X2753203Y524378D01*
X2753051D01*
X2752670D01*
X2752060Y524302D01*
X2751222D01*
X2750231Y524149D01*
X2749012Y523997D01*
X2747717Y523768D01*
X2746269Y523540D01*
X2744745Y523159D01*
X2743145Y522702D01*
X2741545Y522092D01*
X2739868Y521406D01*
X2738268Y520644D01*
X2736592Y519654D01*
X2735068Y518587D01*
X2733544Y517368D01*
X2733467Y517291D01*
X2733239Y517063D01*
X2732858Y516606D01*
X2732324Y516072D01*
X2731715Y515310D01*
X2731029Y514472D01*
X2730267Y513405D01*
X2729429Y512186D01*
X2728591Y510738D01*
X2727829Y509214D01*
X2726990Y507538D01*
X2726228Y505633D01*
X2725466Y503575D01*
X2724857Y501366D01*
X2724323Y499003D01*
X2723866Y496489D01*
X2723790Y496565D01*
X2723714Y496794D01*
X2723485Y497175D01*
X2723180Y497632D01*
X2722799Y498241D01*
X2722342Y498927D01*
X2721809Y499689D01*
X2721275Y500527D01*
X2719904Y502356D01*
X2718380Y504261D01*
X2716703Y506166D01*
X2714951Y507919D01*
X2714875Y507995D01*
X2714722Y508147D01*
X2714417Y508376D01*
X2714036Y508757D01*
X2713503Y509214D01*
X2712817Y509748D01*
X2711979Y510357D01*
X2710988Y511119D01*
X2709922Y511957D01*
X2708702Y512872D01*
X2707255Y513862D01*
X2705731Y514929D01*
X2703978Y516072D01*
X2702149Y517291D01*
X2700092Y518663D01*
X2697882Y520035D01*
X2677308Y532912D01*
D02*
G37*
G36*
X2652558Y456750D02*
X2547098D01*
D01*
X2634728D01*
Y425508D01*
X2547098D01*
Y404249D01*
X2634728D01*
Y372930D01*
X2652558D01*
Y456750D01*
D02*
G37*
G36*
X2726305Y417469D02*
X2677308D01*
Y347746D01*
X2755413D01*
X2753737D01*
Y366492D01*
X2742459D01*
X2742611Y366644D01*
X2742992Y366949D01*
X2743678Y367482D01*
X2744516Y368320D01*
X2745431Y369311D01*
X2746574Y370454D01*
X2747717Y371826D01*
X2748936Y373426D01*
X2750155Y375102D01*
X2751298Y377007D01*
X2752441Y379141D01*
X2753356Y381351D01*
X2754194Y383713D01*
X2754880Y386227D01*
X2755261Y388894D01*
X2755413Y391714D01*
Y392857D01*
X2755337Y393466D01*
X2755261Y394152D01*
X2755184Y394914D01*
X2755108Y395752D01*
X2754803Y397657D01*
X2754422Y399715D01*
X2753813Y401772D01*
X2752975Y403906D01*
Y403982D01*
X2752898Y404134D01*
X2752746Y404439D01*
X2752517Y404820D01*
X2752289Y405277D01*
X2751984Y405811D01*
X2751298Y407030D01*
X2750384Y408402D01*
X2749317Y409773D01*
X2748174Y411145D01*
X2746802Y412288D01*
X2746726D01*
X2746650Y412440D01*
X2746421Y412593D01*
X2746117Y412745D01*
X2745355Y413278D01*
X2744364Y413888D01*
X2743069Y414574D01*
X2741697Y415183D01*
X2740097Y415793D01*
X2738344Y416326D01*
X2738268D01*
X2738116Y416403D01*
X2737887D01*
X2737506Y416479D01*
X2736973Y416631D01*
X2736363Y416707D01*
X2735677Y416784D01*
X2734839Y416936D01*
X2733925Y417012D01*
X2732934Y417088D01*
X2731791Y417241D01*
X2730572Y417317D01*
X2729276Y417393D01*
X2727829D01*
X2726305Y417469D01*
D02*
G37*
%LPD*%
G36*
X2750917Y1126968D02*
X2751374D01*
X2751984Y1126891D01*
X2753279Y1126587D01*
X2754803Y1126206D01*
X2756404Y1125596D01*
X2758004Y1124758D01*
X2758766Y1124224D01*
X2759452Y1123615D01*
X2759528D01*
X2759604Y1123462D01*
X2760061Y1123005D01*
X2760671Y1122319D01*
X2761509Y1121329D01*
X2762271Y1120033D01*
X2763033Y1118586D01*
X2763719Y1116909D01*
X2764176Y1115080D01*
Y1114928D01*
X2764252Y1114623D01*
X2764328Y1114318D01*
Y1113861D01*
X2764405Y1113252D01*
X2764481Y1112566D01*
X2764557Y1111728D01*
X2764633Y1110737D01*
X2764709Y1109670D01*
X2764786Y1108451D01*
Y1107003D01*
X2764862Y1105479D01*
X2764938Y1103727D01*
Y1089553D01*
X2734915D01*
Y1103193D01*
X2734991Y1104184D01*
Y1105327D01*
X2735068Y1106622D01*
X2735144Y1107918D01*
X2735296Y1110737D01*
X2735601Y1113480D01*
X2735753Y1114776D01*
X2735982Y1115995D01*
X2736211Y1116985D01*
X2736515Y1117900D01*
Y1117976D01*
X2736592Y1118128D01*
X2736668Y1118281D01*
X2736820Y1118586D01*
X2737201Y1119348D01*
X2737811Y1120338D01*
X2738497Y1121405D01*
X2739411Y1122548D01*
X2740478Y1123615D01*
X2741697Y1124605D01*
X2741773D01*
X2741849Y1124682D01*
X2742078Y1124834D01*
X2742307Y1124986D01*
X2743069Y1125367D01*
X2744059Y1125825D01*
X2745278Y1126282D01*
X2746650Y1126663D01*
X2748250Y1126968D01*
X2749927Y1127044D01*
X2750003D01*
X2750155D01*
X2750460D01*
X2750917Y1126968D01*
D02*
G37*
G36*
X2748707Y1148913D02*
X2747869D01*
X2746879Y1148837D01*
X2745812Y1148685D01*
X2744593Y1148532D01*
X2743373Y1148380D01*
X2742002Y1148151D01*
X2739259Y1147465D01*
X2736515Y1146627D01*
X2735220Y1146018D01*
X2733925Y1145408D01*
X2733848Y1145332D01*
X2733620Y1145256D01*
X2733315Y1145027D01*
X2732858Y1144798D01*
X2732324Y1144417D01*
X2731639Y1144036D01*
X2730191Y1142970D01*
X2728514Y1141674D01*
X2726762Y1140150D01*
X2725085Y1138398D01*
X2723561Y1136493D01*
X2723485Y1136416D01*
X2723409Y1136264D01*
X2723180Y1135959D01*
X2722952Y1135578D01*
X2722647Y1135045D01*
X2722266Y1134511D01*
X2721885Y1133826D01*
X2721504Y1133064D01*
X2720666Y1131387D01*
X2719828Y1129558D01*
X2719066Y1127577D01*
X2718532Y1125444D01*
Y1125367D01*
X2718456Y1125063D01*
X2718380Y1124682D01*
X2718304Y1123996D01*
X2718227Y1123234D01*
X2718075Y1122243D01*
X2717923Y1121176D01*
X2717846Y1119805D01*
X2717694Y1118357D01*
X2717542Y1116757D01*
X2717389Y1114928D01*
X2717313Y1112947D01*
X2717237Y1110813D01*
X2717161Y1108527D01*
X2717084Y1106013D01*
Y1089553D01*
X2677308D01*
Y1148989D01*
X2749393D01*
X2748707Y1148913D01*
D02*
G37*
G36*
X2603562Y1102622D02*
X2605314D01*
X2607143Y1102545D01*
X2609201Y1102469D01*
X2611258Y1102393D01*
X2613392Y1102241D01*
X2615525Y1102088D01*
X2617583Y1101860D01*
X2619564Y1101707D01*
X2621469Y1101402D01*
X2623069Y1101098D01*
X2624517Y1100793D01*
X2624593D01*
X2624822Y1100717D01*
X2625203Y1100564D01*
X2625660Y1100488D01*
X2626193Y1100259D01*
X2626803Y1100031D01*
X2628251Y1099497D01*
X2629851Y1098812D01*
X2631375Y1097973D01*
X2632746Y1097059D01*
X2633356Y1096526D01*
X2633813Y1095992D01*
X2633889Y1095840D01*
X2634194Y1095535D01*
X2634575Y1094925D01*
X2635032Y1094163D01*
X2635413Y1093173D01*
X2635794Y1092106D01*
X2636099Y1090811D01*
X2636175Y1089515D01*
Y1088906D01*
X2636023Y1088220D01*
X2635871Y1087305D01*
X2635566Y1086315D01*
X2635185Y1085248D01*
X2634575Y1084105D01*
X2633813Y1082962D01*
X2633737Y1082810D01*
X2633356Y1082505D01*
X2632746Y1081971D01*
X2631908Y1081286D01*
X2630765Y1080600D01*
X2630079Y1080219D01*
X2629317Y1079838D01*
X2628479Y1079457D01*
X2627489Y1079152D01*
X2626498Y1078771D01*
X2625431Y1078466D01*
X2625355D01*
X2625050Y1078390D01*
X2624593Y1078314D01*
X2623907Y1078161D01*
X2623069Y1078009D01*
X2622002Y1077780D01*
X2620707Y1077628D01*
X2619183Y1077476D01*
X2617506Y1077247D01*
X2615525Y1077095D01*
X2613392Y1076866D01*
X2611029Y1076714D01*
X2608362Y1076637D01*
X2605543Y1076485D01*
X2602419Y1076409D01*
X2599066D01*
X2598990D01*
X2598837D01*
X2598609D01*
X2598228D01*
X2597847D01*
X2597313D01*
X2596018D01*
X2594570Y1076485D01*
X2592818D01*
X2590913Y1076561D01*
X2588931Y1076637D01*
X2586798Y1076714D01*
X2584664Y1076866D01*
X2582531Y1077018D01*
X2580473Y1077171D01*
X2578492Y1077399D01*
X2576663Y1077628D01*
X2574987Y1077933D01*
X2573539Y1078238D01*
X2573463D01*
X2573234Y1078314D01*
X2572853Y1078466D01*
X2572396Y1078619D01*
X2571863Y1078771D01*
X2571253Y1079000D01*
X2569805Y1079533D01*
X2568281Y1080219D01*
X2566757Y1081057D01*
X2565386Y1081971D01*
X2564776Y1082429D01*
X2564319Y1082962D01*
X2564243Y1083114D01*
X2563938Y1083495D01*
X2563633Y1084105D01*
X2563176Y1084867D01*
X2562795Y1085858D01*
X2562414Y1086924D01*
X2562109Y1088220D01*
X2562033Y1089515D01*
Y1089668D01*
X2562109Y1090125D01*
X2562185Y1090811D01*
X2562338Y1091725D01*
X2562566Y1092716D01*
X2563023Y1093859D01*
X2563557Y1094925D01*
X2564319Y1096068D01*
X2564471Y1096221D01*
X2564776Y1096526D01*
X2565386Y1097059D01*
X2566224Y1097745D01*
X2567443Y1098431D01*
X2568129Y1098812D01*
X2568891Y1099193D01*
X2569729Y1099574D01*
X2570643Y1099878D01*
X2571634Y1100259D01*
X2572701Y1100564D01*
X2572777D01*
X2573082Y1100640D01*
X2573539Y1100793D01*
X2574225Y1100869D01*
X2575063Y1101098D01*
X2576130Y1101250D01*
X2577425Y1101402D01*
X2578949Y1101631D01*
X2580626Y1101860D01*
X2582531Y1102012D01*
X2584740Y1102241D01*
X2587103Y1102393D01*
X2589693Y1102469D01*
X2592589Y1102622D01*
X2595713Y1102698D01*
X2599066D01*
X2599142D01*
X2599295D01*
X2599523D01*
X2599904D01*
X2600285D01*
X2600819D01*
X2602038D01*
X2603562Y1102622D01*
D02*
G37*
G36*
X2847600Y1022078D02*
X2848667Y1022002D01*
X2849886Y1021926D01*
X2851257Y1021773D01*
X2852781Y1021545D01*
X2855829Y1021011D01*
X2857430Y1020630D01*
X2858954Y1020097D01*
X2860478Y1019564D01*
X2861925Y1018954D01*
X2863221Y1018192D01*
X2864364Y1017354D01*
X2864440Y1017278D01*
X2864592Y1017125D01*
X2864897Y1016897D01*
X2865278Y1016516D01*
X2865735Y1016058D01*
X2866193Y1015449D01*
X2866726Y1014839D01*
X2867259Y1014077D01*
X2867793Y1013239D01*
X2868326Y1012325D01*
X2868783Y1011334D01*
X2869241Y1010267D01*
X2869622Y1009124D01*
X2869926Y1007905D01*
X2870079Y1006610D01*
X2870155Y1005238D01*
Y1004552D01*
X2870079Y1004019D01*
X2870003Y1003409D01*
X2869850Y1002647D01*
X2869698Y1001885D01*
X2869469Y1000971D01*
X2869164Y1000056D01*
X2868783Y999066D01*
X2868326Y998075D01*
X2867717Y997008D01*
X2867107Y996018D01*
X2866345Y995027D01*
X2865431Y994037D01*
X2864440Y993122D01*
X2864364Y993046D01*
X2864211Y992894D01*
X2863830Y992665D01*
X2863373Y992360D01*
X2862764Y991979D01*
X2862078Y991598D01*
X2861163Y991141D01*
X2860173Y990760D01*
X2859030Y990303D01*
X2857811Y989846D01*
X2856363Y989465D01*
X2854839Y989084D01*
X2853162Y988779D01*
X2851334Y988550D01*
X2849352Y988398D01*
X2847295Y988322D01*
X2847143D01*
X2846762D01*
X2846152D01*
X2845390Y988398D01*
X2844399Y988474D01*
X2843256Y988550D01*
X2842037Y988626D01*
X2840666Y988779D01*
X2837846Y989236D01*
X2834951Y989922D01*
X2833503Y990303D01*
X2832131Y990836D01*
X2830912Y991370D01*
X2829769Y992055D01*
X2829693Y992132D01*
X2829464Y992284D01*
X2829007Y992589D01*
X2828550Y993046D01*
X2827940Y993579D01*
X2827254Y994189D01*
X2826492Y994951D01*
X2825807Y995789D01*
X2825045Y996704D01*
X2824283Y997770D01*
X2823597Y998913D01*
X2822987Y1000133D01*
X2822530Y1001504D01*
X2822149Y1002876D01*
X2821844Y1004400D01*
X2821768Y1006000D01*
Y1006305D01*
X2821844Y1006686D01*
Y1007143D01*
X2821920Y1007676D01*
X2822073Y1008362D01*
X2822225Y1009124D01*
X2822454Y1009962D01*
X2822759Y1010801D01*
X2823140Y1011715D01*
X2823597Y1012706D01*
X2824206Y1013620D01*
X2824816Y1014611D01*
X2825578Y1015601D01*
X2826492Y1016516D01*
X2827483Y1017430D01*
X2827559Y1017506D01*
X2827788Y1017659D01*
X2828093Y1017887D01*
X2828550Y1018192D01*
X2829159Y1018497D01*
X2829921Y1018954D01*
X2830836Y1019335D01*
X2831903Y1019792D01*
X2833046Y1020249D01*
X2834417Y1020630D01*
X2835865Y1021088D01*
X2837465Y1021392D01*
X2839218Y1021697D01*
X2841199Y1021926D01*
X2843256Y1022078D01*
X2845466Y1022154D01*
X2845542D01*
X2845619D01*
X2846076D01*
X2846685D01*
X2847600Y1022078D01*
D02*
G37*
G36*
X2844171Y929343D02*
X2844095Y929267D01*
X2844018Y929038D01*
X2843942Y928657D01*
X2843790Y928276D01*
X2843637Y927743D01*
X2843485Y927133D01*
X2843333Y926371D01*
X2843104Y925533D01*
X2842875Y924618D01*
X2842571Y923628D01*
X2842342Y922485D01*
X2842037Y921266D01*
X2841732Y919970D01*
X2841351Y918522D01*
X2841047Y916998D01*
Y916922D01*
X2840970Y916617D01*
X2840894Y916236D01*
X2840742Y915627D01*
X2840589Y914941D01*
X2840361Y914179D01*
X2839904Y912503D01*
X2839370Y910674D01*
X2838837Y908845D01*
X2838456Y908007D01*
X2838151Y907245D01*
X2837846Y906559D01*
X2837541Y906026D01*
Y905949D01*
X2837389Y905873D01*
X2837008Y905416D01*
X2836398Y904806D01*
X2835560Y904121D01*
X2834570Y903359D01*
X2833350Y902749D01*
X2831903Y902292D01*
X2831141Y902216D01*
X2830379Y902139D01*
X2830302D01*
X2830226D01*
X2829998D01*
X2829693Y902216D01*
X2828855Y902292D01*
X2827864Y902520D01*
X2826721Y902901D01*
X2825502Y903435D01*
X2824283Y904197D01*
X2823063Y905264D01*
X2822911Y905416D01*
X2822606Y905873D01*
X2822073Y906559D01*
X2821539Y907473D01*
X2821006Y908616D01*
X2820473Y909988D01*
X2820168Y911588D01*
X2820015Y913341D01*
Y913874D01*
X2820092Y914255D01*
Y914789D01*
X2820244Y915322D01*
X2820473Y916694D01*
X2820930Y918294D01*
X2821539Y920046D01*
X2822454Y921875D01*
X2822987Y922866D01*
X2823597Y923780D01*
Y923856D01*
X2823749Y923933D01*
X2824054Y924390D01*
X2824664Y924999D01*
X2825426Y925761D01*
X2826416Y926600D01*
X2827559Y927362D01*
X2828855Y928047D01*
X2830226Y928581D01*
X2830379Y928657D01*
X2830760Y928733D01*
X2831064Y928809D01*
X2831445Y928886D01*
X2831903Y928962D01*
X2832436Y929038D01*
X2833046Y929114D01*
X2833808Y929190D01*
X2834570D01*
X2835484Y929267D01*
X2836475Y929343D01*
X2837618Y929419D01*
X2838837D01*
X2840132D01*
X2844171D01*
Y929343D01*
D02*
G37*
G36*
X2860249D02*
X2860782D01*
X2861316Y929267D01*
X2862535Y929038D01*
X2863907Y928733D01*
X2865278Y928200D01*
X2866574Y927514D01*
X2867107Y927057D01*
X2867640Y926523D01*
X2867717Y926371D01*
X2867869Y926219D01*
X2868021Y925914D01*
X2868250Y925609D01*
X2868402Y925152D01*
X2868631Y924695D01*
X2868936Y924085D01*
X2869164Y923399D01*
X2869393Y922561D01*
X2869545Y921723D01*
X2869774Y920732D01*
X2869926Y919589D01*
X2870079Y918370D01*
X2870155Y917075D01*
Y914712D01*
X2870079Y914255D01*
Y913722D01*
X2869926Y912579D01*
X2869622Y911207D01*
X2869241Y909759D01*
X2868707Y908388D01*
X2868021Y907169D01*
X2867945Y907016D01*
X2867640Y906711D01*
X2867031Y906102D01*
X2866269Y905492D01*
X2865278Y904730D01*
X2863983Y903892D01*
X2862383Y903130D01*
X2860554Y902368D01*
X2863830Y884004D01*
X2863983Y884080D01*
X2864288Y884156D01*
X2864897Y884309D01*
X2865659Y884613D01*
X2866574Y884918D01*
X2867640Y885375D01*
X2868783Y885909D01*
X2870003Y886442D01*
X2871374Y887128D01*
X2872670Y887966D01*
X2874041Y888804D01*
X2875413Y889795D01*
X2876708Y890786D01*
X2878004Y892005D01*
X2879147Y893224D01*
X2880213Y894596D01*
X2880290Y894672D01*
X2880442Y894977D01*
X2880747Y895434D01*
X2881052Y896043D01*
X2881433Y896805D01*
X2881890Y897796D01*
X2882423Y898939D01*
X2882957Y900311D01*
X2883414Y901758D01*
X2883947Y903435D01*
X2884404Y905340D01*
X2884785Y907321D01*
X2885090Y909531D01*
X2885395Y911893D01*
X2885547Y914408D01*
X2885624Y917151D01*
Y881946D01*
X2828931D01*
X2829388Y882023D01*
X2829998D01*
X2830607Y882099D01*
X2831369Y882175D01*
X2832207Y882327D01*
X2833960Y882708D01*
X2835941Y883242D01*
X2837922Y884004D01*
X2839827Y884994D01*
X2839904Y885071D01*
X2840056Y885147D01*
X2840285Y885299D01*
X2840666Y885604D01*
X2841580Y886290D01*
X2842723Y887280D01*
X2843942Y888500D01*
X2845238Y889947D01*
X2846533Y891700D01*
X2847600Y893681D01*
Y893757D01*
X2847752Y893910D01*
X2847905Y894291D01*
X2848057Y894748D01*
X2848286Y895281D01*
X2848590Y895967D01*
X2848895Y896805D01*
X2849200Y897796D01*
X2849581Y898863D01*
X2849962Y900082D01*
X2850343Y901377D01*
X2850724Y902825D01*
X2851181Y904349D01*
X2851562Y906026D01*
X2851943Y907854D01*
X2852324Y909759D01*
Y909912D01*
X2852477Y910369D01*
X2852553Y911131D01*
X2852781Y912045D01*
X2853010Y913188D01*
X2853315Y914560D01*
X2853620Y916008D01*
X2853924Y917532D01*
X2854763Y920808D01*
X2855601Y924009D01*
X2855982Y925533D01*
X2856439Y926981D01*
X2856896Y928276D01*
X2857353Y929419D01*
X2859335D01*
X2859411D01*
X2859563D01*
X2859868D01*
X2860249Y929343D01*
D02*
G37*
G36*
X2652939Y950984D02*
X2652863Y951746D01*
X2652787Y952812D01*
X2652635Y954108D01*
X2652330Y955632D01*
X2652025Y957232D01*
X2651568Y959061D01*
X2650958Y960890D01*
X2650272Y962871D01*
X2649358Y964852D01*
X2648291Y966833D01*
X2647072Y968814D01*
X2645624Y970719D01*
X2643872Y972548D01*
X2641967Y974225D01*
X2641814Y974377D01*
X2641662Y974453D01*
X2641357Y974682D01*
X2640976Y974910D01*
X2640595Y975215D01*
X2640062Y975520D01*
X2639452Y975825D01*
X2638842Y976206D01*
X2638080Y976663D01*
X2637242Y977044D01*
X2636328Y977501D01*
X2635261Y977958D01*
X2634194Y978416D01*
X2633051Y978949D01*
X2631756Y979406D01*
X2630384Y979863D01*
X2628936Y980397D01*
X2627412Y980854D01*
X2625812Y981311D01*
X2624060Y981768D01*
X2622307Y982149D01*
X2620402Y982607D01*
X2618421Y982988D01*
X2616287Y983292D01*
X2614154Y983597D01*
X2611868Y983902D01*
X2609505Y984131D01*
X2607067Y984359D01*
X2604476Y984512D01*
X2601809Y984588D01*
X2652939D01*
Y950984D01*
D02*
G37*
G36*
X2603562Y963404D02*
X2605314D01*
X2607143Y963328D01*
X2609201Y963252D01*
X2611258Y963176D01*
X2613392Y963023D01*
X2615525Y962871D01*
X2617583Y962642D01*
X2619564Y962490D01*
X2621469Y962185D01*
X2623069Y961880D01*
X2624517Y961575D01*
X2624593D01*
X2624822Y961499D01*
X2625203Y961347D01*
X2625660Y961271D01*
X2626193Y961042D01*
X2626803Y960813D01*
X2628251Y960280D01*
X2629851Y959594D01*
X2631375Y958756D01*
X2632746Y957842D01*
X2633356Y957308D01*
X2633813Y956775D01*
X2633889Y956622D01*
X2634194Y956318D01*
X2634575Y955708D01*
X2635032Y954946D01*
X2635413Y953955D01*
X2635794Y952889D01*
X2636099Y951593D01*
X2636175Y950298D01*
Y949688D01*
X2636023Y949002D01*
X2635871Y948088D01*
X2635566Y947097D01*
X2635185Y946031D01*
X2634575Y944888D01*
X2633813Y943745D01*
X2633737Y943592D01*
X2633356Y943287D01*
X2632746Y942754D01*
X2631908Y942068D01*
X2630765Y941382D01*
X2630079Y941001D01*
X2629317Y940620D01*
X2628479Y940239D01*
X2627489Y939935D01*
X2626498Y939554D01*
X2625431Y939249D01*
X2625355D01*
X2625050Y939173D01*
X2624593Y939096D01*
X2623907Y938944D01*
X2623069Y938792D01*
X2622002Y938563D01*
X2620707Y938411D01*
X2619183Y938258D01*
X2617506Y938030D01*
X2615525Y937877D01*
X2613392Y937649D01*
X2611029Y937496D01*
X2608362Y937420D01*
X2605543Y937268D01*
X2602419Y937191D01*
X2599066D01*
X2598990D01*
X2598837D01*
X2598609D01*
X2598228D01*
X2597847D01*
X2597313D01*
X2596018D01*
X2594570Y937268D01*
X2592818D01*
X2590913Y937344D01*
X2588931Y937420D01*
X2586798Y937496D01*
X2584664Y937649D01*
X2582531Y937801D01*
X2580473Y937953D01*
X2578492Y938182D01*
X2576663Y938411D01*
X2574987Y938715D01*
X2573539Y939020D01*
X2573463D01*
X2573234Y939096D01*
X2572853Y939249D01*
X2572396Y939401D01*
X2571863Y939554D01*
X2571253Y939782D01*
X2569805Y940316D01*
X2568281Y941001D01*
X2566757Y941840D01*
X2565386Y942754D01*
X2564776Y943211D01*
X2564319Y943745D01*
X2564243Y943897D01*
X2563938Y944278D01*
X2563633Y944888D01*
X2563176Y945650D01*
X2562795Y946640D01*
X2562414Y947707D01*
X2562109Y949002D01*
X2562033Y950298D01*
Y950450D01*
X2562109Y950907D01*
X2562185Y951593D01*
X2562338Y952508D01*
X2562566Y953498D01*
X2563023Y954641D01*
X2563557Y955708D01*
X2564319Y956851D01*
X2564471Y957003D01*
X2564776Y957308D01*
X2565386Y957842D01*
X2566224Y958527D01*
X2567443Y959213D01*
X2568129Y959594D01*
X2568891Y959975D01*
X2569729Y960356D01*
X2570643Y960661D01*
X2571634Y961042D01*
X2572701Y961347D01*
X2572777D01*
X2573082Y961423D01*
X2573539Y961575D01*
X2574225Y961652D01*
X2575063Y961880D01*
X2576130Y962033D01*
X2577425Y962185D01*
X2578949Y962414D01*
X2580626Y962642D01*
X2582531Y962795D01*
X2584740Y963023D01*
X2587103Y963176D01*
X2589693Y963252D01*
X2592589Y963404D01*
X2595713Y963480D01*
X2599066D01*
X2599142D01*
X2599295D01*
X2599523D01*
X2599904D01*
X2600285D01*
X2600819D01*
X2602038D01*
X2603562Y963404D01*
D02*
G37*
G36*
X2623526Y727184D02*
X2584512Y741586D01*
X2571482Y745777D01*
X2571558D01*
X2571710Y745853D01*
X2571939Y745929D01*
X2572320Y746082D01*
X2573158Y746310D01*
X2574149Y746691D01*
X2575292Y746996D01*
X2576358Y747377D01*
X2577273Y747606D01*
X2577730Y747758D01*
X2578035Y747834D01*
X2578187Y747911D01*
X2578568Y747987D01*
X2579254Y748215D01*
X2580016Y748520D01*
X2581007Y748825D01*
X2582150Y749206D01*
X2583293Y749587D01*
X2584512Y750044D01*
X2623526Y764522D01*
Y727184D01*
D02*
G37*
G36*
X2711369Y701086D02*
X2710455Y701010D01*
X2709312Y700933D01*
X2708017Y700781D01*
X2706493Y700552D01*
X2704892Y700248D01*
X2703140Y699790D01*
X2701235Y699333D01*
X2699330Y698724D01*
X2697349Y697962D01*
X2695367Y697047D01*
X2693386Y696057D01*
X2691405Y694914D01*
X2689424Y693542D01*
X2689271Y693390D01*
X2688814Y693085D01*
X2688128Y692475D01*
X2687214Y691637D01*
X2686223Y690646D01*
X2685004Y689351D01*
X2683785Y687827D01*
X2682490Y686151D01*
X2681118Y684246D01*
X2679899Y682112D01*
X2678680Y679750D01*
X2677689Y677235D01*
X2676775Y674492D01*
X2676089Y671520D01*
X2675632Y668396D01*
X2675555Y666720D01*
X2675479Y665043D01*
Y701162D01*
X2712055D01*
X2711369Y701086D01*
D02*
G37*
G36*
X2764938Y565831D02*
X2739944D01*
Y609874D01*
X2722114D01*
Y565831D01*
X2677308D01*
Y616885D01*
X2764938D01*
Y565831D01*
D02*
G37*
G36*
X2654311Y520377D02*
X2654235Y520987D01*
Y521597D01*
X2654159Y522282D01*
X2654082Y523959D01*
X2653854Y525864D01*
X2653625Y527997D01*
X2653244Y530283D01*
X2652863Y532646D01*
X2652254Y535160D01*
X2651644Y537751D01*
X2650806Y540266D01*
X2649891Y542780D01*
X2648748Y545219D01*
X2647453Y547581D01*
X2646005Y549714D01*
X2645929Y549867D01*
X2645624Y550172D01*
X2645167Y550781D01*
X2644481Y551467D01*
X2643643Y552381D01*
X2642652Y553372D01*
X2641433Y554515D01*
X2640062Y555658D01*
X2638538Y556877D01*
X2636861Y558020D01*
X2634956Y559239D01*
X2632975Y560382D01*
X2630765Y561449D01*
X2628403Y562440D01*
X2625965Y563278D01*
X2623298Y563964D01*
X2619335Y542856D01*
X2619411D01*
X2619640Y542780D01*
X2620097Y542628D01*
X2620631Y542399D01*
X2621240Y542171D01*
X2622002Y541790D01*
X2622840Y541409D01*
X2623755Y540951D01*
X2624669Y540418D01*
X2625660Y539808D01*
X2626727Y539123D01*
X2627717Y538361D01*
X2628708Y537446D01*
X2629698Y536532D01*
X2630689Y535541D01*
X2631527Y534398D01*
X2631603Y534322D01*
X2631756Y534093D01*
X2631984Y533789D01*
X2632213Y533331D01*
X2632594Y532722D01*
X2632975Y531960D01*
X2633356Y531122D01*
X2633813Y530207D01*
X2634270Y529140D01*
X2634651Y527997D01*
X2635032Y526702D01*
X2635413Y525330D01*
X2635642Y523959D01*
X2635871Y522359D01*
X2636023Y520758D01*
X2636099Y519082D01*
Y518472D01*
X2636023Y517710D01*
X2635947Y516796D01*
X2635794Y515577D01*
X2635642Y514205D01*
X2635337Y512757D01*
X2634956Y511081D01*
X2634499Y509328D01*
X2633889Y507576D01*
X2633204Y505671D01*
X2632365Y503842D01*
X2631299Y502013D01*
X2630156Y500261D01*
X2628784Y498508D01*
X2627184Y496908D01*
X2627108Y496832D01*
X2626803Y496527D01*
X2626269Y496146D01*
X2625507Y495612D01*
X2624593Y495003D01*
X2623450Y494317D01*
X2622155Y493555D01*
X2620631Y492793D01*
X2618878Y492031D01*
X2616897Y491269D01*
X2614763Y490583D01*
X2612401Y489974D01*
X2609810Y489440D01*
X2607067Y489059D01*
X2604095Y488754D01*
X2600971Y488678D01*
X2600895D01*
X2600742D01*
X2600514D01*
X2600133D01*
X2599676D01*
X2599218Y488754D01*
X2598609D01*
X2597923Y488831D01*
X2596323Y488907D01*
X2594570Y489135D01*
X2592589Y489364D01*
X2590455Y489745D01*
X2588169Y490126D01*
X2585883Y490736D01*
X2583521Y491345D01*
X2581235Y492183D01*
X2578949Y493098D01*
X2576739Y494241D01*
X2574682Y495536D01*
X2572853Y496984D01*
X2572777Y497060D01*
X2572472Y497365D01*
X2572015Y497822D01*
X2571405Y498508D01*
X2570720Y499346D01*
X2569881Y500337D01*
X2569043Y501556D01*
X2568205Y502851D01*
X2567291Y504375D01*
X2566452Y505976D01*
X2565690Y507804D01*
X2564928Y509786D01*
X2564319Y511843D01*
X2563862Y514053D01*
X2563557Y516415D01*
X2563481Y518853D01*
Y519539D01*
X2563557Y519996D01*
Y520606D01*
X2563633Y521368D01*
X2563709Y522130D01*
X2563785Y523044D01*
X2563938Y524035D01*
X2564090Y525102D01*
X2564547Y527312D01*
X2565233Y529750D01*
X2566071Y532265D01*
Y532341D01*
X2566224Y532569D01*
X2566300Y532950D01*
X2566529Y533408D01*
X2566757Y533941D01*
X2567062Y534627D01*
X2567443Y535389D01*
X2567824Y536227D01*
X2568738Y538056D01*
X2569805Y539961D01*
X2571024Y541942D01*
X2572396Y543847D01*
X2585807D01*
Y519463D01*
X2603638D01*
Y565335D01*
X2654311D01*
Y520377D01*
D02*
G37*
G36*
X2752746Y502356D02*
X2753203D01*
X2753660Y502280D01*
X2754880Y502051D01*
X2756251Y501747D01*
X2757699Y501213D01*
X2759071Y500527D01*
X2760366Y499537D01*
X2760442D01*
X2760518Y499384D01*
X2760899Y499003D01*
X2761433Y498394D01*
X2762119Y497479D01*
X2762804Y496336D01*
X2763490Y494965D01*
X2764100Y493365D01*
X2764557Y491536D01*
Y491231D01*
X2764633Y490926D01*
Y490545D01*
X2764709Y490012D01*
Y489402D01*
X2764786Y488640D01*
Y486583D01*
X2764862Y485364D01*
Y483916D01*
X2764938Y482239D01*
Y459456D01*
X2738192D01*
Y477591D01*
X2738268Y478810D01*
Y481706D01*
X2738344Y483306D01*
X2738497Y486583D01*
X2738573Y488183D01*
X2738725Y489707D01*
X2738878Y491079D01*
X2739030Y492374D01*
X2739182Y493441D01*
X2739411Y494279D01*
Y494355D01*
X2739487Y494431D01*
X2739640Y494889D01*
X2740021Y495574D01*
X2740478Y496489D01*
X2741087Y497403D01*
X2741849Y498394D01*
X2742764Y499384D01*
X2743907Y500223D01*
X2744059Y500299D01*
X2744516Y500604D01*
X2745202Y500908D01*
X2746117Y501366D01*
X2747260Y501747D01*
X2748631Y502128D01*
X2750155Y502356D01*
X2751832Y502432D01*
X2751908D01*
X2752060D01*
X2752365D01*
X2752746Y502356D01*
D02*
G37*
G36*
X2700244Y492069D02*
X2700397Y491993D01*
X2700778Y491688D01*
X2701387Y491307D01*
X2702225Y490774D01*
X2703216Y490088D01*
X2704283Y489326D01*
X2705502Y488488D01*
X2706797Y487573D01*
X2709388Y485668D01*
X2710684Y484754D01*
X2711979Y483840D01*
X2713122Y483001D01*
X2714113Y482163D01*
X2715027Y481401D01*
X2715713Y480792D01*
X2715865Y480639D01*
X2716246Y480258D01*
X2716780Y479649D01*
X2717465Y478887D01*
X2718227Y477896D01*
X2718913Y476829D01*
X2719599Y475686D01*
X2720132Y474391D01*
X2720209Y474238D01*
X2720285Y474010D01*
X2720361Y473781D01*
X2720437Y473400D01*
X2720513Y472943D01*
X2720666Y472410D01*
X2720742Y471800D01*
X2720894Y471114D01*
X2720971Y470352D01*
X2721047Y469438D01*
X2721199Y468447D01*
X2721275Y467457D01*
Y466314D01*
X2721352Y465018D01*
Y459456D01*
X2677308D01*
Y507385D01*
X2700244Y492069D01*
D02*
G37*
G36*
X2719218Y397200D02*
X2720361D01*
X2721580D01*
X2722876Y397124D01*
X2725543Y396972D01*
X2726914Y396819D01*
X2728210Y396667D01*
X2729429Y396514D01*
X2730496Y396362D01*
X2731486Y396133D01*
X2732248Y395905D01*
X2732324D01*
X2732401Y395829D01*
X2732858Y395676D01*
X2733544Y395371D01*
X2734306Y394914D01*
X2735220Y394305D01*
X2736211Y393619D01*
X2737049Y392704D01*
X2737887Y391714D01*
X2737963Y391561D01*
X2738192Y391180D01*
X2738573Y390571D01*
X2738954Y389733D01*
X2739259Y388742D01*
X2739640Y387523D01*
X2739868Y386151D01*
X2739944Y384703D01*
Y384170D01*
X2739868Y383789D01*
Y383332D01*
X2739792Y382798D01*
X2739563Y381503D01*
X2739259Y380055D01*
X2738725Y378455D01*
X2738039Y376779D01*
X2737049Y375178D01*
Y375102D01*
X2736896Y375026D01*
X2736744Y374797D01*
X2736515Y374493D01*
X2735906Y373807D01*
X2734991Y372892D01*
X2733925Y371978D01*
X2732553Y370987D01*
X2731029Y370149D01*
X2729353Y369463D01*
X2729276D01*
X2729124Y369387D01*
X2728819Y369311D01*
X2728438Y369235D01*
X2727905Y369082D01*
X2727219Y369006D01*
X2726381Y368854D01*
X2725390Y368701D01*
X2724247Y368549D01*
X2723028Y368397D01*
X2721580Y368320D01*
X2719980Y368168D01*
X2718227Y368092D01*
X2716246Y368016D01*
X2714113Y367939D01*
X2711827D01*
X2677308D01*
Y397276D01*
X2716246D01*
X2716399D01*
X2716780D01*
X2717389D01*
X2718227D01*
X2719218Y397200D01*
D02*
G37*
D29*
X1038000Y2412000D02*
X1062000D01*
X1038000Y2348000D02*
X1062000D01*
X1578000Y2048000D02*
Y2072000D01*
X1642000Y2048000D02*
Y2072000D01*
X1788000Y1562000D02*
X1812000D01*
X1788000Y1498000D02*
X1812000D01*
X698000Y422000D02*
X722000D01*
X698000Y358000D02*
X722000D01*
X2628000Y1768000D02*
Y1792000D01*
X2692000Y1768000D02*
Y1792000D01*
X2368000Y2238000D02*
X2392000D01*
X2368000Y2302000D02*
X2392000D01*
X688000Y1702000D02*
X712000D01*
X688000Y1638000D02*
X712000D01*
X697999Y921998D02*
X721999D01*
X697999Y857999D02*
X721999D01*
X938000Y1282000D02*
X962000D01*
X938000Y1218000D02*
X962000D01*
X938000Y1862000D02*
X962000D01*
X938000Y1798000D02*
X962000D01*
X688000Y2032000D02*
X712000D01*
X688000Y1968000D02*
X712000D01*
X1238000Y2412000D02*
X1262000D01*
X1238000Y2348000D02*
X1262000D01*
X1548000Y2342000D02*
X1572000D01*
X1548000Y2278000D02*
X1572000D01*
X938000Y1572000D02*
X962000D01*
X938000Y1508000D02*
X962000D01*
X1748000Y2242000D02*
X1772000D01*
X1748000Y2178000D02*
X1772000D01*
X938000Y1062000D02*
X962000D01*
X938000Y998000D02*
X962000D01*
X938000Y2192000D02*
X962000D01*
X938000Y2128000D02*
X962000D01*
X678000Y2312000D02*
X702000D01*
X678000Y2248000D02*
X702000D01*
X2368000Y2338000D02*
X2392000D01*
X2368000Y2402000D02*
X2392000D01*
X688000Y1442000D02*
X712000D01*
X688000Y1378000D02*
X712000D01*
X688000Y1538000D02*
X712000D01*
X688000Y1602000D02*
X712000D01*
X1448000Y2242000D02*
X1472000D01*
X1448000Y2178000D02*
X1472000D01*
X688000Y1278000D02*
X712000D01*
X688000Y1342000D02*
X712000D01*
X1238000Y2248000D02*
X1262000D01*
X1238000Y2312000D02*
X1262000D01*
X938000Y1408000D02*
X962000D01*
X938000Y1472000D02*
X962000D01*
X698000Y758000D02*
X722000D01*
X698000Y822000D02*
X722000D01*
X938000Y1182000D02*
X962000D01*
X938000Y1118000D02*
X962000D01*
X698000Y702000D02*
X722000D01*
X698000Y638000D02*
X722000D01*
X1022000Y358000D02*
Y382000D01*
X958000Y358000D02*
Y382000D01*
X698000Y602000D02*
X722000D01*
X698000Y538000D02*
X722000D01*
X1742000Y2048000D02*
Y2072000D01*
X1678000Y2048000D02*
Y2072000D01*
X938000Y962000D02*
X962000D01*
X938000Y898000D02*
X962000D01*
X938000Y1762000D02*
X962000D01*
X938000Y1698000D02*
X962000D01*
X688000Y1942000D02*
X712000D01*
X688000Y1878000D02*
X712000D01*
X2692000Y1548000D02*
Y1572000D01*
X2628000Y1548000D02*
Y1572000D01*
X938000Y2028000D02*
X962000D01*
X938000Y2092000D02*
X962000D01*
X1538000Y1008000D02*
Y1032000D01*
X1602000Y1008000D02*
Y1032000D01*
X678000Y2148000D02*
X702000D01*
X678000Y2212000D02*
X702000D01*
X1171645Y645000D02*
X1184974Y658329D01*
Y684987D01*
X1171645Y698316D01*
X1158316D01*
X1144987Y684987D01*
Y671658D01*
Y684987D01*
X1131658Y698316D01*
X1118329D01*
X1105000Y684987D01*
Y658329D01*
X1118329Y645000D01*
X1171645Y724974D02*
X1184974Y738303D01*
Y764961D01*
X1171645Y778290D01*
X1158316D01*
X1144987Y764961D01*
X1131658Y778290D01*
X1118329D01*
X1105000Y764961D01*
Y738303D01*
X1118329Y724974D01*
X1131658D01*
X1144987Y738303D01*
X1158316Y724974D01*
X1171645D01*
X1144987Y738303D02*
Y764961D01*
X1158316Y804948D02*
X1105000Y858264D01*
X1131658Y831606D01*
X1158316Y858264D01*
X1105000Y804948D01*
Y938238D02*
Y884922D01*
X1158316Y938238D01*
X1171645D01*
X1184974Y924910D01*
Y898251D01*
X1171645Y884922D01*
X1105000Y1004884D02*
X1184974D01*
X1144987Y964896D01*
Y1018213D01*
X1171645Y1044871D02*
X1184974Y1058200D01*
Y1084858D01*
X1171645Y1098187D01*
X1118329D01*
X1105000Y1084858D01*
Y1058200D01*
X1118329Y1044871D01*
X1171645D01*
X1105000Y1124845D02*
X1184974D01*
Y1164832D01*
X1171645Y1178161D01*
X1144987D01*
X1131658Y1164832D01*
Y1124845D01*
Y1151503D02*
X1105000Y1178161D01*
D35*
X2220002Y1069997D02*
X2320002D01*
X2350000Y840000D02*
Y940000D01*
X2220002Y809998D02*
X2320002D01*
X2220002Y969997D02*
X2320002D01*
X2050000Y1100000D02*
Y1199999D01*
X2070000Y1069997D02*
X2170000D01*
X2190000Y840000D02*
Y940000D01*
X2070000Y809998D02*
X2170000D01*
X2070000Y969997D02*
X2170000D01*
X2050000Y840000D02*
Y940000D01*
X2190000Y1100000D02*
Y1199999D01*
X2070000Y1229997D02*
X2170000D01*
X2350000Y1100000D02*
Y1199999D01*
X2220002Y1229997D02*
X2320002D01*
D36*
X560000Y2426000D02*
Y2476000D01*
X15000Y2478000D02*
X600000D01*
X55000Y2426000D02*
Y2476000D01*
X15000Y1183000D02*
X600000D01*
X560000Y1161000D02*
Y1206000D01*
X55000Y1161000D02*
Y1206000D01*
X24000Y1183000D02*
X589000D01*
X55000Y1161000D02*
Y1206000D01*
X560000Y1161000D02*
Y1206000D01*
Y141000D02*
Y191000D01*
X55000Y141000D02*
Y191000D01*
X15000Y137000D02*
X600000D01*
D37*
X2062502Y650002D02*
D03*
X2122502Y730002D02*
D03*
X2102502Y650002D02*
D03*
X2122502Y690002D02*
D03*
X2142502D02*
D03*
Y730002D02*
D03*
X2282502Y630002D02*
D03*
X2242502Y610002D02*
D03*
Y650002D02*
D03*
Y690002D02*
D03*
X2062502Y530002D02*
D03*
Y570002D02*
D03*
X2082502D02*
D03*
Y610002D02*
D03*
X2422507Y730002D02*
D03*
X2342507D02*
D03*
X2342502Y610002D02*
D03*
X2362502D02*
D03*
X2362507Y730002D02*
D03*
X2382507D02*
D03*
X2402507Y610002D02*
D03*
X2402502Y730002D02*
D03*
X2422502Y610002D02*
D03*
X1982503Y590002D02*
D03*
Y550002D02*
D03*
Y650002D02*
D03*
X2022502Y550002D02*
D03*
Y670002D02*
D03*
X1962503Y590002D02*
D03*
X1982503Y510002D02*
D03*
X2142502Y630002D02*
D03*
X2102502Y570002D02*
D03*
X2142502Y550002D02*
D03*
X2282507Y450002D02*
D03*
Y490002D02*
D03*
X2062502D02*
D03*
X2322507Y450002D02*
D03*
X2382502Y610002D02*
D03*
Y570002D02*
D03*
X2322507Y490002D02*
D03*
X2302502Y570002D02*
D03*
X2322507Y530002D02*
D03*
X2322502Y570002D02*
D03*
X2342507Y530002D02*
D03*
X2362502Y550002D02*
D03*
X2202502Y470002D02*
D03*
X2222502Y490002D02*
D03*
X2182502D02*
D03*
D38*
X2062505Y699999D02*
D03*
X2102505D02*
D03*
X2162505Y679999D02*
D03*
X2262504Y659999D02*
D03*
X2222505Y699999D02*
D03*
X2202505Y679999D02*
D03*
X2022505Y719999D02*
D03*
X2042505Y519999D02*
D03*
X1982505Y699999D02*
D03*
X1962505Y420000D02*
D03*
X2002505Y699999D02*
D03*
Y619999D02*
D03*
X1962505Y500000D02*
D03*
X1982505Y460000D02*
D03*
X2102505Y519999D02*
D03*
X2122505Y360000D02*
D03*
Y500000D02*
D03*
X2242505Y440000D02*
D03*
X2042505Y460000D02*
D03*
X2242505Y360000D02*
D03*
X2402504Y420000D02*
D03*
X2362504Y440000D02*
D03*
X2422504Y480000D02*
D03*
X2282504Y260000D02*
D03*
X2262504D02*
D03*
X2302504Y460000D02*
D03*
X2362504Y500000D02*
D03*
X2182505Y440000D02*
D03*
X2202505Y519999D02*
D03*
X2182505Y639999D02*
D03*
D39*
X2082502Y670002D02*
D03*
X2042502Y710002D02*
D03*
X2362502Y670002D02*
D03*
X2382502D02*
D03*
X2022502Y610002D02*
D03*
X2222502Y410002D02*
D03*
X2442507Y550002D02*
D03*
X2382507Y510002D02*
D03*
X2242502Y530002D02*
D03*
X2182502Y550002D02*
D03*
X2202502Y610002D02*
D03*
D40*
X2282504Y699999D02*
D03*
X2162505Y380000D02*
D03*
X2122505Y280000D02*
D03*
X2182505Y320000D02*
D03*
X2262504Y539999D02*
D03*
D41*
X2042502Y610002D02*
D03*
X2002502Y490002D02*
D03*
D42*
X2082502Y310000D02*
D03*
X1962503D02*
D03*
X2322502D02*
D03*
X2442507D02*
D03*
D43*
X2322502Y670002D02*
D03*
X2442507D02*
D03*
X2162502Y510002D02*
D03*
X2222502Y590002D02*
D03*
D44*
X2402504Y670002D02*
D03*
D45*
X1962505Y679999D02*
D03*
X2122505Y599999D02*
D03*
D46*
X1982503Y250000D02*
D03*
X2022502Y490000D02*
D03*
Y370000D02*
D03*
Y430000D02*
D03*
X2002502Y250000D02*
D03*
X1982503Y370000D02*
D03*
Y410000D02*
D03*
X2002502Y370000D02*
D03*
X2082502Y430000D02*
D03*
X2102502Y410000D02*
D03*
X2122502Y430000D02*
D03*
X2142502Y470000D02*
D03*
Y509999D02*
D03*
X2262502Y410000D02*
D03*
X2022502Y250000D02*
D03*
X2042502D02*
D03*
Y370000D02*
D03*
Y410000D02*
D03*
X2062502Y250000D02*
D03*
Y370000D02*
D03*
X2142502Y310000D02*
D03*
X2162502D02*
D03*
X2202502Y330000D02*
D03*
Y370000D02*
D03*
X2222502Y330000D02*
D03*
X2242502Y310000D02*
D03*
X2262502Y350000D02*
D03*
X2382502Y370000D02*
D03*
X2402502Y250000D02*
D03*
X2402507Y370000D02*
D03*
X2422507Y250000D02*
D03*
X2422502Y370000D02*
D03*
Y410000D02*
D03*
X2402502Y490000D02*
D03*
X2182502Y250000D02*
D03*
X2202502D02*
D03*
X2222502Y270000D02*
D03*
X2242502Y250000D02*
D03*
X2442502Y410000D02*
D03*
X2322502D02*
D03*
X2342507Y250000D02*
D03*
X2342502Y370000D02*
D03*
X2362507Y250000D02*
D03*
X2362502Y370000D02*
D03*
X2382507Y250000D02*
D03*
X2402502Y529999D02*
D03*
D47*
X2022502Y310000D02*
D03*
X2002502D02*
D03*
X2042502D02*
D03*
X2062502Y430000D02*
D03*
X2282502Y350000D02*
D03*
X2382502Y310000D02*
D03*
X2342502Y430000D02*
D03*
X2382502D02*
D03*
X2362502Y310000D02*
D03*
D48*
X2402504D02*
D03*
%TF.MD5,6dee704c2ad4816cab8bd3a5e9d1fb1d*%
M02*
