%TF.GenerationSoftware,Altium Limited,Altium Designer,25.5.2 (35)*%
G04 Layer_Physical_Order=1*
G04 Layer_Color=255*
%FSLAX45Y45*%
%MOMM*%
%TF.SameCoordinates,F9D1B48F-3E51-4A7C-A873-13CCE31A6061*%
%TF.FilePolarity,Positive*%
%TF.FileFunction,Copper,L1,Top,Signal*%
%TF.Part,Single*%
G01*
G75*
%TA.AperFunction,SMDPad,CuDef*%
G04:AMPARAMS|DCode=10|XSize=3.2mm|YSize=0.5mm|CornerRadius=0.125mm|HoleSize=0mm|Usage=FLASHONLY|Rotation=0.000|XOffset=0mm|YOffset=0mm|HoleType=Round|Shape=RoundedRectangle|*
%AMROUNDEDRECTD10*
21,1,3.20000,0.25000,0,0,0.0*
21,1,2.95000,0.50000,0,0,0.0*
1,1,0.25000,1.47500,-0.12500*
1,1,0.25000,-1.47500,-0.12500*
1,1,0.25000,-1.47500,0.12500*
1,1,0.25000,1.47500,0.12500*
%
%ADD10ROUNDEDRECTD10*%
%TA.AperFunction,Conductor*%
%ADD11C,0.20000*%
%ADD12C,0.30000*%
%ADD13C,0.35000*%
%TA.AperFunction,ComponentPad*%
G04:AMPARAMS|DCode=14|XSize=1.7mm|YSize=2.1mm|CornerRadius=0.425mm|HoleSize=0mm|Usage=FLASHONLY|Rotation=270.000|XOffset=0mm|YOffset=0mm|HoleType=Round|Shape=RoundedRectangle|*
%AMROUNDEDRECTD14*
21,1,1.70000,1.25001,0,0,270.0*
21,1,0.85000,2.10000,0,0,270.0*
1,1,0.85000,-0.62500,-0.42500*
1,1,0.85000,-0.62500,0.42500*
1,1,0.85000,0.62500,0.42500*
1,1,0.85000,0.62500,-0.42500*
%
%ADD14ROUNDEDRECTD14*%
G04:AMPARAMS|DCode=15|XSize=1.7mm|YSize=2.1mm|CornerRadius=0mm|HoleSize=0mm|Usage=FLASHONLY|Rotation=270.000|XOffset=0mm|YOffset=0mm|HoleType=Round|Shape=Octagon|*
%AMOCTAGOND15*
4,1,8,1.05000,0.42500,1.05000,-0.42500,0.62500,-0.85000,-0.62500,-0.85000,-1.05000,-0.42500,-1.05000,0.42500,-0.62500,0.85000,0.62500,0.85000,1.05000,0.42500,0.0*
%
%ADD15OCTAGOND15*%

G04:AMPARAMS|DCode=16|XSize=1.55mm|YSize=1.6mm|CornerRadius=0.3875mm|HoleSize=0mm|Usage=FLASHONLY|Rotation=270.000|XOffset=0mm|YOffset=0mm|HoleType=Round|Shape=RoundedRectangle|*
%AMROUNDEDRECTD16*
21,1,1.55000,0.82500,0,0,270.0*
21,1,0.77500,1.60000,0,0,270.0*
1,1,0.77500,-0.41250,-0.38750*
1,1,0.77500,-0.41250,0.38750*
1,1,0.77500,0.41250,0.38750*
1,1,0.77500,0.41250,-0.38750*
%
%ADD16ROUNDEDRECTD16*%
%TA.AperFunction,ViaPad*%
%ADD17C,0.60000*%
G36*
X2610786Y3402155D02*
X2628946Y3390021D01*
X2641080Y3371861D01*
X2645341Y3350440D01*
X2645421D01*
X2646053Y3347262D01*
Y182891D01*
X2645471Y179966D01*
X2645391D01*
X2641130Y158545D01*
X2628996Y140385D01*
X2610837Y128251D01*
X2589416Y123990D01*
Y123944D01*
X2277885D01*
X2273335Y138944D01*
X2281560Y144440D01*
X2295374Y165114D01*
X2300225Y189500D01*
Y274500D01*
X2295374Y298886D01*
X2281560Y319560D01*
X2260887Y333374D01*
X2236500Y338224D01*
X2111584D01*
X2111537Y338244D01*
X2111481Y338221D01*
X2111040Y338133D01*
X2110778Y338231D01*
X2106769Y338092D01*
X2103905Y338291D01*
X2101003Y338800D01*
X2098001Y339646D01*
X2094851Y340872D01*
X2091530Y342525D01*
X2088029Y344652D01*
X2084354Y347292D01*
X2080525Y350470D01*
X2076105Y354638D01*
X2073708Y355550D01*
X2051100Y378158D01*
X2041177Y384788D01*
X2029471Y387117D01*
X2029470Y387117D01*
X2021557D01*
X2016017Y402117D01*
X2027374Y419114D01*
X2032225Y443500D01*
Y528500D01*
X2027374Y552886D01*
X2013560Y573560D01*
X1992887Y587374D01*
X1968500Y592224D01*
X1843500D01*
X1819113Y587374D01*
X1798440Y573560D01*
X1784626Y552886D01*
X1779775Y528500D01*
Y443500D01*
X1784626Y419114D01*
X1795983Y402117D01*
X1790443Y387117D01*
X1767053D01*
X1677408Y476761D01*
Y953178D01*
X1677409Y953179D01*
X1675080Y964885D01*
X1668450Y974808D01*
X1668449Y974809D01*
X1536003Y1107255D01*
X1526079Y1113885D01*
X1514374Y1116214D01*
X1514373Y1116213D01*
X1059734D01*
X1048819Y1127129D01*
X1048178Y1129155D01*
X1047527Y1129493D01*
X1047261Y1130179D01*
X1044120Y1133467D01*
X1041761Y1136198D01*
X1039851Y1138685D01*
X1038378Y1140889D01*
X1037313Y1142774D01*
X1036613Y1144307D01*
X1036216Y1145458D01*
X1036040Y1146235D01*
X1035994Y1146683D01*
X1036036Y1148339D01*
X1035252Y1150374D01*
X1035499Y1151618D01*
X1031618Y1171127D01*
X1020567Y1187666D01*
X1004028Y1198717D01*
X984519Y1202598D01*
X982741Y1202244D01*
X969985Y1215001D01*
X970980Y1220000D01*
X967099Y1239509D01*
X956048Y1256048D01*
X939509Y1267099D01*
X920000Y1270980D01*
X900491Y1267099D01*
X883952Y1256048D01*
X872901Y1239509D01*
X869020Y1220000D01*
X872901Y1200491D01*
X881874Y1187063D01*
X882949Y1184050D01*
X884204Y1182663D01*
X884678Y1182000D01*
X885245Y1180998D01*
X885865Y1179597D01*
X886498Y1177750D01*
X887092Y1175447D01*
X887551Y1172972D01*
X888264Y1165513D01*
X888357Y1161246D01*
X885526Y1158229D01*
X865970Y1157287D01*
X792559Y1230699D01*
X782635Y1237330D01*
X770930Y1239658D01*
X770929Y1239658D01*
X504762D01*
X503562Y1240412D01*
X502081Y1240074D01*
X500700Y1240705D01*
X495918Y1240874D01*
X492343Y1241275D01*
X489207Y1241897D01*
X486487Y1242701D01*
X484130Y1243658D01*
X482065Y1244760D01*
X480222Y1246015D01*
X476067Y1256917D01*
X476195Y1257386D01*
X479039Y1266483D01*
X483201Y1272712D01*
X486102Y1287300D01*
X113897D01*
X116799Y1272712D01*
X125176Y1260176D01*
X121886Y1245181D01*
X119363Y1232500D01*
Y1207500D01*
X121886Y1194819D01*
X129069Y1184069D01*
Y1175931D01*
X121886Y1165181D01*
X119363Y1152500D01*
Y1127500D01*
X121886Y1114820D01*
X125176Y1099824D01*
X116799Y1087288D01*
X113897Y1072700D01*
X486102D01*
X483201Y1087288D01*
X478639Y1094115D01*
X476272Y1103685D01*
X480232Y1114252D01*
X480604Y1114572D01*
X482434Y1115826D01*
X484469Y1116921D01*
X486783Y1117869D01*
X489448Y1118665D01*
X492511Y1119279D01*
X496008Y1119676D01*
X500709Y1119845D01*
X502340Y1120590D01*
X504098Y1120235D01*
X505085Y1120891D01*
X755852D01*
X929691Y947052D01*
X924753Y930776D01*
X916719Y929178D01*
X895499Y915000D01*
X881321Y893780D01*
X876342Y868750D01*
Y842700D01*
X982999D01*
X1089655D01*
Y868750D01*
X1084676Y893780D01*
X1077783Y904097D01*
X1085800Y919097D01*
X1342130D01*
X1344531Y918042D01*
X1349084Y917945D01*
X1352762Y917694D01*
X1356014Y917299D01*
X1358827Y916788D01*
X1361191Y916192D01*
X1363107Y915552D01*
X1364593Y914912D01*
X1365681Y914316D01*
X1366431Y913799D01*
X1367884Y912536D01*
X1371371Y911371D01*
X1383526Y903249D01*
X1403035Y899369D01*
X1422544Y903249D01*
X1431722Y909382D01*
X1445871Y915206D01*
X1462410Y904155D01*
X1481919Y900274D01*
X1501428Y904155D01*
X1517967Y915206D01*
X1529018Y931745D01*
X1532899Y951254D01*
X1532783Y951834D01*
X1546607Y959223D01*
X1575317Y930514D01*
Y705792D01*
X1560316Y696160D01*
X1547174Y698774D01*
X1527665Y694893D01*
X1515575Y686814D01*
X1515403Y686796D01*
X1514645Y686812D01*
X1514289Y686674D01*
X1513937Y686635D01*
X1513321Y686298D01*
X1513302Y686291D01*
X1512291Y686006D01*
X1510429Y685625D01*
X1508210Y685300D01*
X1495877Y684495D01*
X1490958Y684441D01*
X1488708Y683480D01*
X1333346D01*
X1244346Y772481D01*
X1243489Y774691D01*
X1236638Y781860D01*
X1231831Y787530D01*
X1230379Y789482D01*
X1229332Y791067D01*
X1228818Y791982D01*
X1228811Y792001D01*
X1228614Y792674D01*
X1228393Y792950D01*
X1228238Y793301D01*
X1227688Y793827D01*
X1227583Y793959D01*
X1224746Y808222D01*
X1213695Y824761D01*
X1197156Y835812D01*
X1177647Y839692D01*
X1158138Y835812D01*
X1141599Y824761D01*
X1130548Y808222D01*
X1126667Y788713D01*
X1130548Y769204D01*
X1141599Y752665D01*
X1158138Y741614D01*
X1172401Y738777D01*
X1172532Y738672D01*
X1173058Y738121D01*
X1173410Y737966D01*
X1173686Y737745D01*
X1174358Y737549D01*
X1174377Y737541D01*
X1175292Y737027D01*
X1176881Y735978D01*
X1178681Y734638D01*
X1187966Y726491D01*
X1191485Y723049D01*
X1193755Y722137D01*
X1293331Y622561D01*
X1304908Y614825D01*
X1318565Y612109D01*
X1488533D01*
X1490702Y611152D01*
X1500615Y610927D01*
X1508028Y610316D01*
X1510426Y609964D01*
X1512291Y609583D01*
X1513302Y609298D01*
X1513321Y609291D01*
X1513937Y608954D01*
X1514289Y608915D01*
X1514645Y608777D01*
X1515403Y608793D01*
X1515575Y608774D01*
X1527665Y600696D01*
X1547174Y596815D01*
X1560316Y599429D01*
X1575317Y589797D01*
Y454097D01*
X1575316Y454096D01*
X1577645Y442391D01*
X1584275Y432467D01*
X1751433Y265309D01*
X1751434Y265309D01*
X1753776Y263744D01*
Y189500D01*
X1758626Y165114D01*
X1772440Y144440D01*
X1780665Y138944D01*
X1776115Y123944D01*
X705000D01*
Y124024D01*
X683579Y128285D01*
X665420Y140419D01*
X653285Y158579D01*
X649025Y180000D01*
X648944D01*
X648943Y180006D01*
Y875000D01*
X645598Y891817D01*
X636072Y906073D01*
X621816Y915599D01*
X604999Y918944D01*
X510662D01*
X506970Y932818D01*
X507195Y933944D01*
X523150Y944605D01*
X534201Y961144D01*
X538081Y980653D01*
X534201Y1000162D01*
X523150Y1016701D01*
X506611Y1027752D01*
X497734Y1029518D01*
X485911Y1045267D01*
X485846Y1046012D01*
X486102Y1047300D01*
X113897D01*
X116799Y1032712D01*
X125176Y1020176D01*
X121886Y1005181D01*
X119363Y992500D01*
Y967500D01*
X121886Y954819D01*
X129069Y944069D01*
X139819Y936886D01*
X152500Y934363D01*
X447500D01*
X452650Y935388D01*
X454254Y933944D01*
X448501Y918944D01*
X100000D01*
Y919025D01*
X78579Y923285D01*
X60419Y935420D01*
X48285Y953579D01*
X44025Y975000D01*
X43944D01*
Y2505000D01*
X44025D01*
X48285Y2526421D01*
X60419Y2544581D01*
X78579Y2556715D01*
X100000Y2560976D01*
Y2561056D01*
X604999D01*
X621816Y2564401D01*
X636072Y2573927D01*
X645598Y2588183D01*
X648943Y2605000D01*
Y3349981D01*
X648947Y3350000D01*
X649027D01*
X653288Y3371421D01*
X665422Y3389580D01*
X683582Y3401715D01*
X705003Y3405975D01*
Y3406055D01*
X2106631D01*
X2108108Y3391055D01*
X2085006Y3386460D01*
X2062547Y3371453D01*
X2047539Y3348993D01*
X2042270Y3322500D01*
Y3292700D01*
X2174000D01*
X2305730D01*
Y3322500D01*
X2300460Y3348993D01*
X2285453Y3371453D01*
X2262993Y3386460D01*
X2239892Y3391055D01*
X2241369Y3406055D01*
X2589806D01*
X2590491Y3406192D01*
X2610786Y3402155D01*
D02*
G37*
G36*
X460399Y1235133D02*
X463578Y1231762D01*
X467060Y1228787D01*
X470846Y1226209D01*
X474935Y1224028D01*
X479328Y1222243D01*
X484024Y1220855D01*
X489024Y1219863D01*
X494327Y1219269D01*
X499934Y1219070D01*
X496534Y1199070D01*
X488946Y1199040D01*
X455494Y1197113D01*
X453525Y1196593D01*
X452258Y1196012D01*
X457524Y1238901D01*
X460399Y1235133D01*
D02*
G37*
G36*
X938910Y1196267D02*
X937040Y1193651D01*
X935390Y1190730D01*
X933960Y1187503D01*
X932750Y1183970D01*
X931760Y1180131D01*
X930990Y1175986D01*
X930440Y1171535D01*
X930110Y1166778D01*
X930000Y1161716D01*
X910000D01*
X909890Y1166778D01*
X909010Y1175986D01*
X908240Y1180131D01*
X907250Y1183970D01*
X906040Y1187503D01*
X904610Y1190730D01*
X902960Y1193651D01*
X901090Y1196267D01*
X899000Y1198576D01*
X941000D01*
X938910Y1196267D01*
D02*
G37*
G36*
X453372Y1163511D02*
X455210Y1163085D01*
X457774Y1162708D01*
X465075Y1162106D01*
X488376Y1161504D01*
X496014Y1161478D01*
X499934Y1141479D01*
X494397Y1141280D01*
X489156Y1140685D01*
X484211Y1139694D01*
X479562Y1138306D01*
X475210Y1136521D01*
X471154Y1134340D01*
X467394Y1131762D01*
X463930Y1128787D01*
X460762Y1125416D01*
X457890Y1121648D01*
X452258Y1163988D01*
X453372Y1163511D01*
D02*
G37*
G36*
X1014318Y1145834D02*
X1014641Y1142715D01*
X1015364Y1139526D01*
X1016486Y1136266D01*
X1018008Y1132936D01*
X1019929Y1129534D01*
X1022250Y1126063D01*
X1024970Y1122520D01*
X1028089Y1118908D01*
X1031608Y1115224D01*
X1016242Y1102306D01*
X1012614Y1105790D01*
X1005519Y1111727D01*
X1002053Y1114180D01*
X998640Y1116291D01*
X995280Y1118058D01*
X991975Y1119482D01*
X988723Y1120563D01*
X985525Y1121300D01*
X982381Y1121694D01*
X1014394Y1148882D01*
X1014318Y1145834D01*
D02*
G37*
G36*
X465332Y996327D02*
X466105Y996179D01*
X469277Y995755D01*
X476966Y995189D01*
X486449Y995000D01*
Y965000D01*
X481483Y964953D01*
X466105Y963821D01*
X466039Y963808D01*
X466140Y959192D01*
X464723Y960295D01*
X462852Y961283D01*
X460525Y962154D01*
X460057Y962281D01*
X459283Y961981D01*
X457906Y961179D01*
X456978Y960283D01*
Y963060D01*
X454509Y963548D01*
X450818Y964071D01*
X442073Y964768D01*
X431509Y965000D01*
X430755Y995000D01*
X436260Y995062D01*
X450032Y995989D01*
X453708Y996545D01*
X456926Y997225D01*
X456978Y997241D01*
Y999717D01*
X457906Y998821D01*
X459283Y998019D01*
X459441Y997957D01*
X459687Y998029D01*
X461991Y998956D01*
X463837Y1000007D01*
X465226Y1001182D01*
X465332Y996327D01*
D02*
G37*
G36*
X1451434Y996036D02*
X1458568Y990148D01*
X1462043Y987761D01*
X1465457Y985747D01*
X1468811Y984104D01*
X1472104Y982833D01*
X1475337Y981935D01*
X1478508Y981407D01*
X1481619Y981252D01*
X1451921Y951554D01*
X1451765Y954665D01*
X1451238Y957836D01*
X1450339Y961069D01*
X1449069Y964362D01*
X1447426Y967716D01*
X1445412Y971130D01*
X1443025Y974605D01*
X1440267Y978142D01*
X1437137Y981738D01*
X1433635Y985396D01*
X1447777Y999538D01*
X1451434Y996036D01*
D02*
G37*
G36*
X1382080Y928880D02*
X1379717Y930933D01*
X1377054Y932770D01*
X1374093Y934390D01*
X1370833Y935795D01*
X1367274Y936984D01*
X1363415Y937956D01*
X1359258Y938712D01*
X1354802Y939253D01*
X1350048Y939577D01*
X1344994Y939685D01*
X1344525Y959685D01*
X1349596Y959797D01*
X1358799Y960691D01*
X1362931Y961474D01*
X1366751Y962481D01*
X1370257Y963711D01*
X1373450Y965165D01*
X1376330Y966843D01*
X1378897Y968744D01*
X1381151Y970869D01*
X1382080Y928880D01*
D02*
G37*
G36*
X1207832Y786614D02*
X1208426Y784577D01*
X1209427Y782303D01*
X1210836Y779792D01*
X1212651Y777043D01*
X1214874Y774056D01*
X1220541Y767371D01*
X1227838Y759735D01*
X1206624Y738522D01*
X1202688Y742373D01*
X1192303Y751485D01*
X1189317Y753708D01*
X1186568Y755524D01*
X1184056Y756932D01*
X1181782Y757933D01*
X1179746Y758527D01*
X1177947Y758714D01*
X1207645Y788413D01*
X1207832Y786614D01*
D02*
G37*
G36*
X1525750Y626795D02*
X1524346Y627934D01*
X1522486Y628955D01*
X1520170Y629854D01*
X1517398Y630635D01*
X1514170Y631295D01*
X1510487Y631834D01*
X1501752Y632554D01*
X1491194Y632795D01*
Y662794D01*
X1496701Y662854D01*
X1510487Y663755D01*
X1514170Y664294D01*
X1517398Y664954D01*
X1520170Y665735D01*
X1522486Y666634D01*
X1524346Y667654D01*
X1525750Y668794D01*
Y626795D01*
D02*
G37*
G36*
X2066170Y334252D02*
X2071111Y330150D01*
X2076077Y326583D01*
X2081068Y323551D01*
X2086083Y321054D01*
X2091124Y319093D01*
X2096188Y317666D01*
X2101277Y316774D01*
X2106391Y316417D01*
X2111530Y316596D01*
X2069405Y274500D01*
X2069127Y280089D01*
X2068416Y285552D01*
X2067271Y290890D01*
X2065692Y296103D01*
X2063679Y301190D01*
X2061233Y306153D01*
X2058353Y310989D01*
X2055039Y315701D01*
X2051292Y320287D01*
X2047110Y324747D01*
X2061253Y338889D01*
X2066170Y334252D01*
D02*
G37*
%LPC*%
G36*
X1952500Y3385000D02*
X1807500D01*
X1755000Y3332500D01*
Y3227500D01*
X1807500Y3175000D01*
X1952500D01*
X2005000Y3227500D01*
Y3332500D01*
X1952500Y3385000D01*
D02*
G37*
G36*
X2305730Y3267300D02*
X2186700D01*
Y3168270D01*
X2236500D01*
X2262993Y3173540D01*
X2285453Y3188547D01*
X2300460Y3211007D01*
X2305730Y3237500D01*
Y3267300D01*
D02*
G37*
G36*
X2161300D02*
X2042270D01*
Y3237500D01*
X2047539Y3211007D01*
X2062547Y3188547D01*
X2085006Y3173540D01*
X2111500Y3168270D01*
X2161300D01*
Y3267300D01*
D02*
G37*
G36*
X2262500Y3132224D02*
X2137500D01*
X2113113Y3127374D01*
X2092440Y3113560D01*
X2078626Y3092886D01*
X2073775Y3068500D01*
Y2983500D01*
X2078626Y2959114D01*
X2092440Y2938440D01*
X2113113Y2924626D01*
X2137500Y2919776D01*
X2262500D01*
X2286886Y2924626D01*
X2307560Y2938440D01*
X2321374Y2959114D01*
X2326224Y2983500D01*
Y3068500D01*
X2321374Y3092886D01*
X2307560Y3113560D01*
X2286886Y3127374D01*
X2262500Y3132224D01*
D02*
G37*
G36*
X1968500D02*
X1843500D01*
X1819113Y3127374D01*
X1798440Y3113560D01*
X1784626Y3092886D01*
X1779775Y3068500D01*
Y2983500D01*
X1784626Y2959114D01*
X1798440Y2938440D01*
X1819113Y2924626D01*
X1843500Y2919776D01*
X1968500D01*
X1992887Y2924626D01*
X2013560Y2938440D01*
X2027374Y2959114D01*
X2032225Y2983500D01*
Y3068500D01*
X2027374Y3092886D01*
X2013560Y3113560D01*
X1992887Y3127374D01*
X1968500Y3132224D01*
D02*
G37*
G36*
X2236500Y2878224D02*
X2111500D01*
X2087113Y2873374D01*
X2066440Y2859560D01*
X2052626Y2838886D01*
X2047775Y2814500D01*
Y2729585D01*
X2047756Y2729537D01*
X2047779Y2729481D01*
X2047867Y2729040D01*
X2047769Y2728778D01*
X2047908Y2724770D01*
X2047708Y2721905D01*
X2047200Y2719003D01*
X2046354Y2716001D01*
X2045128Y2712852D01*
X2043475Y2709531D01*
X2041347Y2706029D01*
X2038708Y2702354D01*
X2035530Y2698526D01*
X2031361Y2694106D01*
X2030449Y2691707D01*
X2009330Y2670588D01*
X1993828D01*
X1989653Y2679815D01*
X1988327Y2685588D01*
X2001374Y2705114D01*
X2006225Y2729500D01*
Y2814500D01*
X2001374Y2838886D01*
X1987560Y2859560D01*
X1966887Y2873374D01*
X1942500Y2878224D01*
X1817500D01*
X1793114Y2873374D01*
X1772440Y2859560D01*
X1758626Y2838886D01*
X1753776Y2814500D01*
Y2744322D01*
X1745606Y2738864D01*
X1745605Y2738863D01*
X1568371Y2561629D01*
X1561741Y2551706D01*
X1559412Y2540000D01*
X1559412Y2539999D01*
Y2425928D01*
X1538348Y2404863D01*
X1522652Y2410380D01*
X1512958Y2424887D01*
X1496419Y2435938D01*
X1483351Y2438538D01*
X1486091Y2452312D01*
X1482210Y2471821D01*
X1471159Y2488360D01*
X1454620Y2499411D01*
X1435111Y2503292D01*
X1415602Y2499411D01*
X1399063Y2488360D01*
X1388012Y2471821D01*
X1384132Y2452312D01*
X1385416Y2445857D01*
X1384511Y2442156D01*
X1384685Y2441029D01*
X1384684Y2441022D01*
X1384513Y2440414D01*
X1384059Y2439303D01*
X1383221Y2437721D01*
X1381933Y2435721D01*
X1380155Y2433358D01*
X1377870Y2430687D01*
X1374726Y2427388D01*
X1373874Y2425182D01*
X824595D01*
X824594Y2425182D01*
X812889Y2422853D01*
X802965Y2416223D01*
X802965Y2416222D01*
X742263Y2355521D01*
X480036D01*
X478114Y2365181D01*
X474824Y2380176D01*
X483201Y2392712D01*
X486102Y2407300D01*
X113897D01*
X116799Y2392712D01*
X125176Y2380176D01*
X121886Y2365181D01*
X119363Y2352500D01*
Y2327500D01*
X121886Y2314819D01*
X124495Y2310915D01*
X127827Y2300000D01*
X124495Y2289085D01*
X121886Y2285181D01*
X119363Y2272500D01*
Y2247500D01*
X121886Y2234820D01*
X125176Y2219824D01*
X116799Y2207288D01*
X113897Y2192700D01*
X486102D01*
X483201Y2207288D01*
X477657Y2215585D01*
X477140Y2230889D01*
X477775Y2233747D01*
X478589Y2235350D01*
X480258Y2237474D01*
X480586Y2238648D01*
X481075Y2238938D01*
X482813Y2239654D01*
X485599Y2240429D01*
X489418Y2241099D01*
X494227Y2241553D01*
X500551Y2241734D01*
X502897Y2242785D01*
X754283D01*
X754284Y2242785D01*
X765989Y2245113D01*
X775913Y2251744D01*
X852176Y2328007D01*
X877583D01*
X888497Y2313006D01*
X886426Y2302594D01*
X890306Y2283085D01*
X901357Y2266546D01*
X917896Y2255495D01*
X937405Y2251615D01*
X956914Y2255495D01*
X964422Y2260512D01*
X967684Y2259986D01*
X980061Y2252921D01*
X982900Y2238651D01*
X993951Y2222112D01*
X1010490Y2211061D01*
X1029999Y2207181D01*
X1049508Y2211061D01*
X1066047Y2222112D01*
X1077098Y2238651D01*
X1079057Y2248502D01*
X1509089D01*
X1509090Y2248502D01*
X1520796Y2250831D01*
X1530719Y2257461D01*
X1651628Y2378371D01*
X1651629Y2378371D01*
X1658259Y2388295D01*
X1660588Y2400000D01*
Y2497330D01*
X1769373Y2606115D01*
X1781686Y2604862D01*
X1788645Y2590901D01*
X1784626Y2584886D01*
X1779775Y2560500D01*
Y2475500D01*
X1784626Y2451114D01*
X1798440Y2430440D01*
X1819113Y2416626D01*
X1843500Y2411776D01*
X1968500D01*
X1992887Y2416626D01*
X2013560Y2430440D01*
X2027374Y2451114D01*
X2032225Y2475500D01*
Y2560500D01*
X2027374Y2584886D01*
X2021009Y2594412D01*
X2021217Y2597573D01*
X2028202Y2610646D01*
X2033705Y2611741D01*
X2043629Y2618371D01*
X2073678Y2648420D01*
X2076057Y2649317D01*
X2079980Y2652993D01*
X2083394Y2655783D01*
X2086792Y2658173D01*
X2090187Y2660195D01*
X2093592Y2661874D01*
X2097028Y2663233D01*
X2100526Y2664293D01*
X2104125Y2665065D01*
X2107847Y2665549D01*
X2112401Y2665776D01*
X2236500D01*
X2260887Y2670626D01*
X2281560Y2684440D01*
X2295374Y2705114D01*
X2300225Y2729500D01*
Y2814500D01*
X2295374Y2838886D01*
X2281560Y2859560D01*
X2260887Y2873374D01*
X2236500Y2878224D01*
D02*
G37*
G36*
X1174249Y2754157D02*
X1145699D01*
Y2662700D01*
X1239655D01*
Y2688750D01*
X1234676Y2713780D01*
X1220498Y2735000D01*
X1199279Y2749178D01*
X1174249Y2754157D01*
D02*
G37*
G36*
X1120299D02*
X1091749D01*
X1066719Y2749178D01*
X1045499Y2735000D01*
X1031321Y2713780D01*
X1026342Y2688750D01*
Y2662700D01*
X1120299D01*
Y2754157D01*
D02*
G37*
G36*
X1239655Y2637300D02*
X1145699D01*
Y2545843D01*
X1174249D01*
X1199279Y2550822D01*
X1220498Y2565000D01*
X1234676Y2586220D01*
X1239655Y2611250D01*
Y2637300D01*
D02*
G37*
G36*
X1120299D02*
X1026342D01*
Y2611250D01*
X1031321Y2586220D01*
X1045499Y2565000D01*
X1066719Y2550822D01*
X1091749Y2545843D01*
X1120299D01*
Y2637300D01*
D02*
G37*
G36*
X970000Y2550980D02*
X950491Y2547099D01*
X940833Y2540646D01*
X940639Y2540672D01*
X939597Y2540397D01*
X939497Y2540398D01*
X939368Y2540345D01*
X939071Y2540292D01*
X920558Y2539179D01*
X915500Y2539148D01*
X913333Y2538234D01*
X531110D01*
X528936Y2539148D01*
X516409Y2539211D01*
X485736Y2540157D01*
X471606Y2541355D01*
X466903Y2542022D01*
X463716Y2542669D01*
X462716Y2542971D01*
X461791Y2543424D01*
X461058Y2543470D01*
X461023Y2543481D01*
X460973Y2543476D01*
X457144Y2543718D01*
X456650Y2543817D01*
X452258Y2545636D01*
X450716Y2544997D01*
X447500Y2545637D01*
X152500D01*
X139819Y2543114D01*
X129069Y2535931D01*
X121886Y2525181D01*
X119363Y2512500D01*
Y2487500D01*
X121886Y2474820D01*
X125176Y2459824D01*
X116799Y2447288D01*
X113897Y2432700D01*
X486102D01*
X483889Y2443828D01*
X491827Y2459322D01*
X516717Y2460791D01*
X528936Y2460852D01*
X531110Y2461766D01*
X913116D01*
X915189Y2460857D01*
X929976Y2460553D01*
X936468Y2460077D01*
X938364Y2459837D01*
X939368Y2459655D01*
X939497Y2459602D01*
X939597Y2459603D01*
X940639Y2459328D01*
X940833Y2459354D01*
X950491Y2452901D01*
X970000Y2449021D01*
X989509Y2452901D01*
X1006048Y2463952D01*
X1017099Y2480491D01*
X1020980Y2500000D01*
X1017099Y2519509D01*
X1006048Y2536048D01*
X989509Y2547099D01*
X970000Y2550980D01*
D02*
G37*
G36*
X2262500Y2624224D02*
X2137500D01*
X2113113Y2619374D01*
X2092440Y2605560D01*
X2078626Y2584886D01*
X2073775Y2560500D01*
Y2475500D01*
X2078626Y2451114D01*
X2092440Y2430440D01*
X2113113Y2416626D01*
X2137500Y2411776D01*
X2262500D01*
X2286886Y2416626D01*
X2307560Y2430440D01*
X2321374Y2451114D01*
X2326224Y2475500D01*
Y2560500D01*
X2321374Y2584886D01*
X2307560Y2605560D01*
X2286886Y2619374D01*
X2262500Y2624224D01*
D02*
G37*
G36*
X2236500Y2370224D02*
X2111500D01*
X2087113Y2365374D01*
X2066440Y2351560D01*
X2052626Y2330886D01*
X2047775Y2306500D01*
Y2221585D01*
X2047756Y2221537D01*
X2047779Y2221481D01*
X2047867Y2221040D01*
X2047769Y2220778D01*
X2047908Y2216770D01*
X2047708Y2213905D01*
X2047200Y2211003D01*
X2046354Y2208001D01*
X2045128Y2204852D01*
X2043475Y2201531D01*
X2041347Y2198029D01*
X2038708Y2194354D01*
X2035530Y2190526D01*
X2031361Y2186106D01*
X2030449Y2183707D01*
X2007330Y2160588D01*
X1990835D01*
X1986285Y2175588D01*
X1987560Y2176440D01*
X2001374Y2197114D01*
X2006225Y2221500D01*
Y2306500D01*
X2001374Y2330886D01*
X1987560Y2351560D01*
X1966887Y2365374D01*
X1942500Y2370224D01*
X1817500D01*
X1793114Y2365374D01*
X1772440Y2351560D01*
X1758626Y2330886D01*
X1753776Y2306500D01*
Y2221585D01*
X1753756Y2221537D01*
X1753779Y2221481D01*
X1753867Y2221040D01*
X1753769Y2220778D01*
X1753908Y2216770D01*
X1753708Y2213905D01*
X1753200Y2211003D01*
X1752354Y2208001D01*
X1751128Y2204852D01*
X1749475Y2201531D01*
X1747348Y2198029D01*
X1744708Y2194354D01*
X1741530Y2190526D01*
X1737362Y2186106D01*
X1736449Y2183707D01*
X1669710Y2116968D01*
X1457852D01*
X1453301Y2131968D01*
X1462607Y2138186D01*
X1473658Y2154725D01*
X1477539Y2174234D01*
X1473658Y2193743D01*
X1462607Y2210282D01*
X1446068Y2221333D01*
X1426559Y2225213D01*
X1407050Y2221333D01*
X1402444Y2218255D01*
X1386048Y2216048D01*
X1369509Y2227099D01*
X1350000Y2230980D01*
X1330491Y2227099D01*
X1313952Y2216048D01*
X1302901Y2199509D01*
X1301472Y2192322D01*
X989745D01*
X967258Y2214809D01*
X957334Y2221439D01*
X945629Y2223768D01*
X945628Y2223767D01*
X873181D01*
X873180Y2223768D01*
X861474Y2221439D01*
X851551Y2214809D01*
X851550Y2214808D01*
X754134Y2117392D01*
X506620D01*
X506616Y2117396D01*
X506574Y2117392D01*
X502895D01*
X500546Y2118444D01*
X494200Y2118623D01*
X489351Y2119077D01*
X485463Y2119751D01*
X482585Y2120540D01*
X480730Y2121290D01*
X479886Y2121778D01*
X479446Y2123189D01*
X478217Y2124663D01*
X478114Y2125181D01*
X476540Y2132358D01*
X477447Y2144101D01*
X483201Y2152712D01*
X486102Y2167300D01*
X113897D01*
X116799Y2152712D01*
X125176Y2140176D01*
X121886Y2125181D01*
X119363Y2112500D01*
Y2087500D01*
X121886Y2074819D01*
X124495Y2070915D01*
X127827Y2060000D01*
X124495Y2049085D01*
X121886Y2045181D01*
X119363Y2032500D01*
Y2007500D01*
X121886Y1994819D01*
X125176Y1979824D01*
X116799Y1967288D01*
X113897Y1952700D01*
X486102D01*
X483201Y1967288D01*
X478860Y1973785D01*
X476159Y1983310D01*
X480326Y1994189D01*
X480392Y1994246D01*
X482229Y1995501D01*
X484278Y1996597D01*
X486618Y1997552D01*
X489316Y1998353D01*
X492418Y1998971D01*
X495958Y1999370D01*
X500704Y1999539D01*
X502163Y2000206D01*
X503730Y1999861D01*
X504863Y2000586D01*
X762084D01*
X762085Y2000586D01*
X773790Y2002914D01*
X783714Y2009545D01*
X849135Y2074966D01*
X867459Y2072076D01*
X873356Y2063249D01*
X883013Y2056797D01*
X874301Y2043759D01*
X870420Y2024250D01*
X874301Y2004741D01*
X885352Y1988202D01*
X901891Y1977151D01*
X921400Y1973270D01*
X940909Y1977151D01*
X957448Y1988202D01*
X961196Y1993812D01*
X966502Y1994132D01*
X969563Y1994156D01*
X974434Y1996216D01*
X981105Y1997544D01*
X991028Y2004174D01*
X1004070Y2017216D01*
X1708099D01*
X1708100Y2017215D01*
X1719806Y2019544D01*
X1729729Y2026175D01*
X1766574Y2063019D01*
X1780398Y2055630D01*
X1779775Y2052500D01*
Y1967500D01*
X1784626Y1943114D01*
X1798440Y1922440D01*
X1819113Y1908626D01*
X1843500Y1903776D01*
X1968500D01*
X1992887Y1908626D01*
X2013560Y1922440D01*
X2027374Y1943114D01*
X2032225Y1967500D01*
Y2052500D01*
X2027374Y2076886D01*
X2022034Y2084878D01*
X2029147Y2101232D01*
X2031705Y2101741D01*
X2041629Y2108371D01*
X2073678Y2140420D01*
X2076057Y2141317D01*
X2079980Y2144993D01*
X2083394Y2147783D01*
X2086792Y2150173D01*
X2090187Y2152195D01*
X2093592Y2153874D01*
X2097028Y2155233D01*
X2100526Y2156293D01*
X2104125Y2157065D01*
X2107847Y2157549D01*
X2112401Y2157776D01*
X2236500D01*
X2260887Y2162626D01*
X2281560Y2176440D01*
X2295374Y2197114D01*
X2300225Y2221500D01*
Y2306500D01*
X2295374Y2330886D01*
X2281560Y2351560D01*
X2260887Y2365374D01*
X2236500Y2370224D01*
D02*
G37*
G36*
X2262500Y2116224D02*
X2137500D01*
X2113113Y2111374D01*
X2092440Y2097560D01*
X2078626Y2076886D01*
X2073775Y2052500D01*
Y1967500D01*
X2078626Y1943114D01*
X2092440Y1922440D01*
X2113113Y1908626D01*
X2137500Y1903776D01*
X2262500D01*
X2286886Y1908626D01*
X2307560Y1922440D01*
X2321374Y1943114D01*
X2326224Y1967500D01*
Y2052500D01*
X2321374Y2076886D01*
X2307560Y2097560D01*
X2286886Y2111374D01*
X2262500Y2116224D01*
D02*
G37*
G36*
X1358478Y1977643D02*
X1338969Y1973763D01*
X1330206Y1967908D01*
X1326005Y1966804D01*
X1324340Y1965539D01*
X1323312Y1964909D01*
X1321946Y1964237D01*
X1320206Y1963556D01*
X1318064Y1962901D01*
X1315517Y1962309D01*
X1312825Y1961854D01*
X1305202Y1961185D01*
X1300906Y1961099D01*
X1298496Y1960043D01*
X944527D01*
X932822Y1957714D01*
X922898Y1951084D01*
X922898Y1951083D01*
X852402Y1880588D01*
X504368D01*
X502913Y1881442D01*
X501764Y1881143D01*
X500684Y1881635D01*
X495768Y1881805D01*
X492058Y1882213D01*
X488807Y1882846D01*
X485988Y1883666D01*
X483554Y1884639D01*
X481441Y1885751D01*
X480841Y1886155D01*
X475850Y1897785D01*
X477607Y1902602D01*
X479602Y1907326D01*
X483201Y1912712D01*
X486102Y1927300D01*
X113897D01*
X116799Y1912712D01*
X125176Y1900176D01*
X121886Y1885181D01*
X119363Y1872500D01*
Y1847500D01*
X121886Y1834819D01*
X124495Y1830915D01*
X127827Y1820000D01*
X124495Y1809085D01*
X121886Y1805181D01*
X119363Y1792500D01*
Y1767500D01*
X121886Y1754819D01*
X129069Y1744069D01*
Y1735931D01*
X121886Y1725181D01*
X119363Y1712500D01*
Y1687500D01*
X121886Y1674819D01*
X124495Y1670915D01*
X127827Y1660000D01*
X124495Y1649085D01*
X121886Y1645181D01*
X119363Y1632500D01*
Y1607500D01*
X121886Y1594820D01*
X125176Y1579824D01*
X116799Y1567288D01*
X113897Y1552700D01*
X486102D01*
X483201Y1567288D01*
X478535Y1574271D01*
X476222Y1584307D01*
X476241Y1584368D01*
X480185Y1594283D01*
X480713Y1594737D01*
X482537Y1595990D01*
X484564Y1597083D01*
X486866Y1598029D01*
X489516Y1598823D01*
X492557Y1599434D01*
X496034Y1599830D01*
X500712Y1599999D01*
X502453Y1600794D01*
X504333Y1600436D01*
X505228Y1601045D01*
X835698D01*
X914318Y1522425D01*
X914318Y1522424D01*
X924242Y1515794D01*
X935947Y1513465D01*
X1310329D01*
X1312559Y1512426D01*
X1321541Y1512035D01*
X1324566Y1511673D01*
X1327405Y1511164D01*
X1329811Y1510568D01*
X1331776Y1509923D01*
X1333318Y1509272D01*
X1334466Y1508657D01*
X1335276Y1508113D01*
X1336775Y1506847D01*
X1340508Y1505658D01*
X1351854Y1498077D01*
X1371363Y1494196D01*
X1390871Y1498077D01*
X1407410Y1509128D01*
X1418461Y1525667D01*
X1422342Y1545176D01*
X1418461Y1564685D01*
X1409874Y1577536D01*
X1419732Y1584122D01*
X1426285Y1593931D01*
X1444225Y1597204D01*
X1709412Y1332017D01*
Y1170001D01*
X1709412Y1170000D01*
X1711741Y1158295D01*
X1718371Y1148371D01*
X1758371Y1108372D01*
X1758371Y1108371D01*
X1768294Y1101741D01*
X1780000Y1099412D01*
X1798158D01*
X1802709Y1084412D01*
X1798440Y1081560D01*
X1784626Y1060886D01*
X1784038Y1057928D01*
X1769684Y1053574D01*
X1591629Y1231629D01*
X1581705Y1238259D01*
X1570000Y1240588D01*
X1569999Y1240588D01*
X1399865D01*
X1355962Y1284490D01*
X1361206Y1300460D01*
X1375645Y1310108D01*
X1386696Y1326647D01*
X1390576Y1346156D01*
X1386696Y1365665D01*
X1375645Y1382203D01*
X1381737Y1396174D01*
X1386060Y1402644D01*
X1389940Y1422153D01*
X1386060Y1441662D01*
X1375009Y1458201D01*
X1358470Y1469252D01*
X1338961Y1473132D01*
X1334330Y1472211D01*
X1329062Y1476845D01*
X1326742Y1479128D01*
X1321841Y1481112D01*
X1316192Y1484886D01*
X1304487Y1487215D01*
X1304486Y1487214D01*
X503052D01*
X500792Y1488258D01*
X497237Y1488399D01*
X494370Y1488733D01*
X491308Y1489317D01*
X488037Y1490173D01*
X485871Y1490890D01*
X482886Y1496047D01*
X480434Y1502939D01*
X480276Y1506437D01*
X481052Y1509496D01*
X483201Y1512712D01*
X486102Y1527300D01*
X113897D01*
X116799Y1512712D01*
X125176Y1500176D01*
X121886Y1485181D01*
X119363Y1472500D01*
Y1447500D01*
X121886Y1434819D01*
X124495Y1430915D01*
X127827Y1420000D01*
X124495Y1409085D01*
X121886Y1405181D01*
X119363Y1392500D01*
Y1367500D01*
X121886Y1354819D01*
X125176Y1339824D01*
X116799Y1327288D01*
X113897Y1312700D01*
X486102D01*
X483201Y1327288D01*
X474824Y1339824D01*
X478114Y1354819D01*
X479803Y1363312D01*
X513898D01*
X513899Y1363311D01*
X525605Y1365640D01*
X535528Y1372271D01*
X553297Y1390039D01*
X861488D01*
X872402Y1375039D01*
X870330Y1364627D01*
X874211Y1345118D01*
X885262Y1328579D01*
X901801Y1317528D01*
X921310Y1313647D01*
X940819Y1317528D01*
X957358Y1328579D01*
X960022Y1332565D01*
X963017Y1334222D01*
X963878Y1335302D01*
X964160Y1335502D01*
X964887Y1335894D01*
X966141Y1336402D01*
X967974Y1336951D01*
X970384Y1337460D01*
X973365Y1337873D01*
X976895Y1338144D01*
X981449Y1338253D01*
X983152Y1339006D01*
X984975Y1338627D01*
X986012Y1339307D01*
X1214631D01*
X1365565Y1188372D01*
X1365566Y1188371D01*
X1375490Y1181741D01*
X1387195Y1179412D01*
X1387196Y1179412D01*
X1557330D01*
X1729412Y1007330D01*
Y900001D01*
X1729412Y900000D01*
X1731741Y888295D01*
X1738371Y878371D01*
X1771662Y845081D01*
X1772440Y827560D01*
X1758626Y806886D01*
X1753776Y782500D01*
Y697500D01*
X1758626Y673114D01*
X1772440Y652440D01*
X1793114Y638626D01*
X1817500Y633776D01*
X1942500D01*
X1966887Y638626D01*
X1987560Y652440D01*
X2001374Y673114D01*
X2006225Y697500D01*
Y782500D01*
X2001374Y806886D01*
X1996992Y813444D01*
X2005010Y828444D01*
X2022298D01*
X2030419Y820323D01*
X2031316Y817942D01*
X2034993Y814020D01*
X2037783Y810606D01*
X2040173Y807208D01*
X2042195Y803813D01*
X2043873Y800408D01*
X2045232Y796972D01*
X2046292Y793473D01*
X2047064Y789875D01*
X2047549Y786152D01*
X2047775Y781599D01*
Y697500D01*
X2052626Y673114D01*
X2066440Y652440D01*
X2087113Y638626D01*
X2111500Y633776D01*
X2236500D01*
X2260887Y638626D01*
X2281560Y652440D01*
X2295374Y673114D01*
X2300225Y697500D01*
Y782500D01*
X2295374Y806886D01*
X2281560Y827560D01*
X2260887Y841374D01*
X2236500Y846224D01*
X2111584D01*
X2111537Y846244D01*
X2111481Y846221D01*
X2111040Y846133D01*
X2110778Y846231D01*
X2106769Y846092D01*
X2103905Y846291D01*
X2101003Y846800D01*
X2098001Y847646D01*
X2094851Y848872D01*
X2091530Y850525D01*
X2088029Y852652D01*
X2084354Y855292D01*
X2080525Y858470D01*
X2076105Y862638D01*
X2073708Y863550D01*
X2056597Y880661D01*
X2046673Y887291D01*
X2034968Y889620D01*
X2034967Y889620D01*
X2015386D01*
X2010836Y904620D01*
X2013560Y906440D01*
X2027374Y927114D01*
X2032225Y951500D01*
Y1036500D01*
X2027374Y1060886D01*
X2013560Y1081560D01*
X2009291Y1084412D01*
X2013842Y1099412D01*
X2035999D01*
X2036000Y1099412D01*
X2047705Y1101741D01*
X2057629Y1108371D01*
X2073678Y1124420D01*
X2076057Y1125317D01*
X2079980Y1128993D01*
X2083394Y1131783D01*
X2086792Y1134173D01*
X2090187Y1136195D01*
X2093592Y1137874D01*
X2097028Y1139233D01*
X2100526Y1140293D01*
X2104125Y1141065D01*
X2107847Y1141549D01*
X2112401Y1141776D01*
X2236500D01*
X2260887Y1146626D01*
X2281560Y1160440D01*
X2295374Y1181114D01*
X2300225Y1205500D01*
Y1290500D01*
X2295374Y1314886D01*
X2281560Y1335560D01*
X2260887Y1349374D01*
X2236500Y1354224D01*
X2111500D01*
X2093019Y1350548D01*
X2085630Y1364373D01*
X2099678Y1378420D01*
X2102057Y1379317D01*
X2105980Y1382993D01*
X2109394Y1385783D01*
X2112792Y1388173D01*
X2116187Y1390195D01*
X2119592Y1391874D01*
X2123028Y1393233D01*
X2126526Y1394293D01*
X2130125Y1395065D01*
X2133847Y1395549D01*
X2138401Y1395776D01*
X2262500D01*
X2286886Y1400626D01*
X2307560Y1414440D01*
X2321374Y1435114D01*
X2326224Y1459500D01*
Y1544500D01*
X2321374Y1568886D01*
X2307560Y1589560D01*
X2286886Y1603374D01*
X2262500Y1608224D01*
X2137500D01*
X2113113Y1603374D01*
X2092440Y1589560D01*
X2078626Y1568886D01*
X2073775Y1544500D01*
Y1459585D01*
X2073756Y1459537D01*
X2073779Y1459481D01*
X2073867Y1459040D01*
X2073769Y1458778D01*
X2073908Y1454770D01*
X2073708Y1451905D01*
X2073200Y1449003D01*
X2072354Y1446001D01*
X2071128Y1442852D01*
X2069475Y1439531D01*
X2067347Y1436029D01*
X2064708Y1432354D01*
X2061530Y1428526D01*
X2057361Y1424106D01*
X2056449Y1421707D01*
X2035330Y1400588D01*
X2019828D01*
X2015653Y1409815D01*
X2014327Y1415588D01*
X2027374Y1435114D01*
X2032225Y1459500D01*
Y1544500D01*
X2027374Y1568886D01*
X2013560Y1589560D01*
X1992887Y1603374D01*
X1968500Y1608224D01*
X1843500D01*
X1819113Y1603374D01*
X1798440Y1589560D01*
X1784626Y1568886D01*
X1779775Y1544500D01*
Y1535743D01*
X1776939Y1534982D01*
X1772784Y1534292D01*
X1767469Y1533823D01*
X1760532Y1533641D01*
X1758168Y1532588D01*
X1757719D01*
X1476224Y1814083D01*
X1469768Y1818397D01*
X1467251Y1828920D01*
X1466992Y1831265D01*
X1467290Y1835811D01*
X1477099Y1850491D01*
X1480980Y1870000D01*
X1477099Y1889509D01*
X1466048Y1906048D01*
X1449509Y1917099D01*
X1430000Y1920980D01*
X1423358Y1919659D01*
X1409458Y1926664D01*
X1405577Y1946173D01*
X1394526Y1962712D01*
X1377987Y1973763D01*
X1358478Y1977643D01*
D02*
G37*
G36*
X2236500Y1862224D02*
X2111500D01*
X2087113Y1857374D01*
X2066440Y1843560D01*
X2052626Y1822886D01*
X2047775Y1798500D01*
Y1713500D01*
X2052626Y1689114D01*
X2066440Y1668440D01*
X2087113Y1654626D01*
X2111500Y1649776D01*
X2236500D01*
X2260887Y1654626D01*
X2281560Y1668440D01*
X2295374Y1689114D01*
X2300225Y1713500D01*
Y1798500D01*
X2295374Y1822886D01*
X2281560Y1843560D01*
X2260887Y1857374D01*
X2236500Y1862224D01*
D02*
G37*
G36*
X1942500D02*
X1817500D01*
X1793114Y1857374D01*
X1772440Y1843560D01*
X1758626Y1822886D01*
X1753776Y1798500D01*
Y1713500D01*
X1758626Y1689114D01*
X1772440Y1668440D01*
X1793114Y1654626D01*
X1817500Y1649776D01*
X1942500D01*
X1966887Y1654626D01*
X1987560Y1668440D01*
X2001374Y1689114D01*
X2006225Y1713500D01*
Y1798500D01*
X2001374Y1822886D01*
X1987560Y1843560D01*
X1966887Y1857374D01*
X1942500Y1862224D01*
D02*
G37*
G36*
X2262500Y1105730D02*
X2212700D01*
Y1006700D01*
X2331730D01*
Y1036500D01*
X2326460Y1062993D01*
X2311453Y1085453D01*
X2288993Y1100460D01*
X2262500Y1105730D01*
D02*
G37*
G36*
X2187300D02*
X2137500D01*
X2111006Y1100460D01*
X2088547Y1085453D01*
X2073539Y1062993D01*
X2068270Y1036500D01*
Y1006700D01*
X2187300D01*
Y1105730D01*
D02*
G37*
G36*
X2331730Y981300D02*
X2212700D01*
Y882270D01*
X2262500D01*
X2288993Y887540D01*
X2311453Y902547D01*
X2326460Y925007D01*
X2331730Y951500D01*
Y981300D01*
D02*
G37*
G36*
X2187300D02*
X2068270D01*
Y951500D01*
X2073539Y925007D01*
X2088547Y902547D01*
X2111006Y887540D01*
X2137500Y882270D01*
X2187300D01*
Y981300D01*
D02*
G37*
G36*
X1089655Y817300D02*
X995699D01*
Y725843D01*
X1024248D01*
X1049279Y730822D01*
X1070498Y745001D01*
X1084676Y766220D01*
X1089655Y791250D01*
Y817300D01*
D02*
G37*
G36*
X970299D02*
X876342D01*
Y791250D01*
X881321Y766220D01*
X895499Y745001D01*
X916719Y730822D01*
X941749Y725843D01*
X970299D01*
Y817300D01*
D02*
G37*
G36*
X2262500Y592224D02*
X2137500D01*
X2113113Y587374D01*
X2092440Y573560D01*
X2078626Y552886D01*
X2073775Y528500D01*
Y443500D01*
X2078626Y419114D01*
X2092440Y398440D01*
X2113113Y384626D01*
X2137500Y379776D01*
X2262500D01*
X2286886Y384626D01*
X2307560Y398440D01*
X2321374Y419114D01*
X2326224Y443500D01*
Y528500D01*
X2321374Y552886D01*
X2307560Y573560D01*
X2286886Y587374D01*
X2262500Y592224D01*
D02*
G37*
%LPD*%
G36*
X2111500Y2687406D02*
X2105911Y2687128D01*
X2100448Y2686416D01*
X2095110Y2685271D01*
X2089897Y2683692D01*
X2084809Y2681679D01*
X2079847Y2679233D01*
X2075011Y2676353D01*
X2070299Y2673039D01*
X2065713Y2669292D01*
X2061253Y2665111D01*
X2047110Y2679253D01*
X2051747Y2684170D01*
X2055850Y2689111D01*
X2059417Y2694078D01*
X2062449Y2699068D01*
X2064945Y2704084D01*
X2066907Y2709124D01*
X2068334Y2714188D01*
X2069226Y2719278D01*
X2069582Y2724391D01*
X2069404Y2729530D01*
X2111500Y2687406D01*
D02*
G37*
G36*
X1441386Y2422976D02*
X1438262Y2422167D01*
X1435089Y2421064D01*
X1431867Y2419669D01*
X1428595Y2417981D01*
X1425274Y2416000D01*
X1421903Y2413726D01*
X1415014Y2408298D01*
X1411496Y2405145D01*
X1407928Y2401699D01*
X1390397Y2412453D01*
X1393943Y2416173D01*
X1397045Y2419800D01*
X1399704Y2423334D01*
X1401920Y2426774D01*
X1403692Y2430121D01*
X1405022Y2433374D01*
X1405908Y2436534D01*
X1406351Y2439600D01*
X1406350Y2442573D01*
X1405906Y2445453D01*
X1441386Y2422976D01*
D02*
G37*
G36*
X1462128Y2362734D02*
X1461445Y2362920D01*
X1460562Y2362815D01*
X1459481Y2362419D01*
X1458201Y2361734D01*
X1456723Y2360758D01*
X1455045Y2359492D01*
X1451092Y2356088D01*
X1446345Y2351523D01*
X1432202Y2365665D01*
X1435155Y2368649D01*
X1446145Y2381142D01*
X1446856Y2382323D01*
X1447247Y2383246D01*
X1447318Y2383912D01*
X1462128Y2362734D01*
D02*
G37*
G36*
X962026Y2320275D02*
X964210Y2318663D01*
X966771Y2317241D01*
X969708Y2316008D01*
X973022Y2314965D01*
X976712Y2314111D01*
X980779Y2313448D01*
X985222Y2312974D01*
X995237Y2312594D01*
Y2292594D01*
X990041Y2292500D01*
X980779Y2291741D01*
X976712Y2291077D01*
X973022Y2290224D01*
X969708Y2289181D01*
X966771Y2287948D01*
X964210Y2286526D01*
X962026Y2284914D01*
X960218Y2283112D01*
Y2322077D01*
X962026Y2320275D01*
D02*
G37*
G36*
X452833Y2283871D02*
X454190Y2283766D01*
X467432Y2283471D01*
X493179Y2283373D01*
X499934Y2263373D01*
X492897Y2263172D01*
X486523Y2262570D01*
X480813Y2261567D01*
X475766Y2260163D01*
X471382Y2258358D01*
X467661Y2256151D01*
X464604Y2253544D01*
X462210Y2250535D01*
X460480Y2247125D01*
X459412Y2243313D01*
X452258Y2283988D01*
X452833Y2283871D01*
D02*
G37*
G36*
X948576Y2479000D02*
X947629Y2479665D01*
X946160Y2480260D01*
X944170Y2480785D01*
X941658Y2481240D01*
X938625Y2481625D01*
X930993Y2482185D01*
X915633Y2482500D01*
Y2517500D01*
X921275Y2517535D01*
X941658Y2518760D01*
X944170Y2519215D01*
X946160Y2519740D01*
X947629Y2520335D01*
X948576Y2521000D01*
Y2479000D01*
D02*
G37*
G36*
X454772Y2522755D02*
X458428Y2521652D01*
X463227Y2520679D01*
X469170Y2519836D01*
X484483Y2518538D01*
X516026Y2517565D01*
X528826Y2517500D01*
Y2482500D01*
X516026Y2482435D01*
X463227Y2479321D01*
X458428Y2478348D01*
X454772Y2477245D01*
X452258Y2476012D01*
Y2523988D01*
X454772Y2522755D01*
D02*
G37*
G36*
X2111500Y2179406D02*
X2105911Y2179128D01*
X2100448Y2178416D01*
X2095110Y2177271D01*
X2089897Y2175692D01*
X2084809Y2173679D01*
X2079847Y2171233D01*
X2075011Y2168353D01*
X2070299Y2165039D01*
X2065713Y2161292D01*
X2061253Y2157111D01*
X2047110Y2171253D01*
X2051747Y2176170D01*
X2055850Y2181111D01*
X2059417Y2186078D01*
X2062449Y2191068D01*
X2064945Y2196084D01*
X2066907Y2201124D01*
X2068334Y2206188D01*
X2069226Y2211278D01*
X2069582Y2216391D01*
X2069404Y2221530D01*
X2111500Y2179406D01*
D02*
G37*
G36*
X1817500D02*
X1811911Y2179128D01*
X1806448Y2178416D01*
X1801110Y2177271D01*
X1795897Y2175692D01*
X1790809Y2173679D01*
X1785847Y2171233D01*
X1781011Y2168353D01*
X1776299Y2165039D01*
X1771713Y2161292D01*
X1767253Y2157111D01*
X1753111Y2171253D01*
X1757748Y2176170D01*
X1761850Y2181111D01*
X1765417Y2186078D01*
X1768449Y2191068D01*
X1770945Y2196084D01*
X1772907Y2201124D01*
X1774334Y2206188D01*
X1775226Y2211278D01*
X1775582Y2216391D01*
X1775404Y2221530D01*
X1817500Y2179406D01*
D02*
G37*
G36*
X1426259Y2144235D02*
X1423148Y2144080D01*
X1419977Y2143553D01*
X1416744Y2142654D01*
X1413451Y2141384D01*
X1410098Y2139741D01*
X1406683Y2137726D01*
X1403208Y2135340D01*
X1399672Y2132582D01*
X1396075Y2129452D01*
X1392417Y2125950D01*
X1378275Y2140092D01*
X1381777Y2143749D01*
X1387665Y2150882D01*
X1390052Y2154358D01*
X1392066Y2157772D01*
X1393709Y2161126D01*
X1394980Y2164419D01*
X1395879Y2167651D01*
X1396406Y2170823D01*
X1396561Y2173934D01*
X1426259Y2144235D01*
D02*
G37*
G36*
X459960Y2112956D02*
X461794Y2109567D01*
X464279Y2106575D01*
X467417Y2103983D01*
X471206Y2101790D01*
X475648Y2099995D01*
X480741Y2098599D01*
X486487Y2097602D01*
X492884Y2097004D01*
X499934Y2096805D01*
X493444Y2076805D01*
X452258Y2076012D01*
X458779Y2116745D01*
X459960Y2112956D01*
D02*
G37*
G36*
X948372Y2037801D02*
X949199Y2037382D01*
X950403Y2037012D01*
X951984Y2036691D01*
X953943Y2036420D01*
X958994Y2036025D01*
X969400Y2035803D01*
Y2015803D01*
X965767Y2015775D01*
X954827Y2015114D01*
X952989Y2014811D01*
X951511Y2014453D01*
X950391Y2014039D01*
X949631Y2013571D01*
X949229Y2013048D01*
X947922Y2038270D01*
X948372Y2037801D01*
D02*
G37*
G36*
X453458Y2043453D02*
X455371Y2042975D01*
X457998Y2042552D01*
X465393Y2041877D01*
X481839Y2041286D01*
X496372Y2041173D01*
X499934Y2021174D01*
X494358Y2020975D01*
X489083Y2020380D01*
X484107Y2019389D01*
X479432Y2018001D01*
X475057Y2016216D01*
X470983Y2014035D01*
X467208Y2011456D01*
X463734Y2008482D01*
X460560Y2005111D01*
X457686Y2001343D01*
X452258Y2043988D01*
X453458Y2043453D01*
D02*
G37*
G36*
X1335193Y1907748D02*
X1333123Y1909973D01*
X1330717Y1911963D01*
X1327974Y1913719D01*
X1324895Y1915241D01*
X1321479Y1916529D01*
X1317728Y1917582D01*
X1313639Y1918402D01*
X1309215Y1918987D01*
X1304455Y1919338D01*
X1299358Y1919455D01*
X1301342Y1939455D01*
X1306365Y1939556D01*
X1315580Y1940365D01*
X1319772Y1941073D01*
X1323686Y1941983D01*
X1327323Y1943095D01*
X1330684Y1944409D01*
X1333766Y1945926D01*
X1336572Y1947645D01*
X1339101Y1949566D01*
X1335193Y1907748D01*
D02*
G37*
G36*
X1408576Y1849000D02*
X1406266Y1851090D01*
X1403651Y1852960D01*
X1400730Y1854610D01*
X1397503Y1856040D01*
X1393970Y1857250D01*
X1390131Y1858240D01*
X1385986Y1859010D01*
X1381535Y1859560D01*
X1376778Y1859890D01*
X1371716Y1860000D01*
Y1880000D01*
X1376778Y1880110D01*
X1385986Y1880990D01*
X1390131Y1881760D01*
X1393970Y1882750D01*
X1397503Y1883960D01*
X1400730Y1885390D01*
X1403651Y1887040D01*
X1406266Y1888910D01*
X1408576Y1891000D01*
Y1849000D01*
D02*
G37*
G36*
X459784Y1876063D02*
X462981Y1872692D01*
X466495Y1869717D01*
X470324Y1867139D01*
X474469Y1864958D01*
X478930Y1863173D01*
X483707Y1861785D01*
X488800Y1860793D01*
X494209Y1860198D01*
X499934Y1860000D01*
X497156Y1840000D01*
X489699Y1839960D01*
X458806Y1838046D01*
X455964Y1837448D01*
X453782Y1836770D01*
X452258Y1836012D01*
X456902Y1879831D01*
X459784Y1876063D01*
D02*
G37*
G36*
X1005842Y1857948D02*
X1008700Y1856280D01*
X1011827Y1854808D01*
X1015223Y1853532D01*
X1018888Y1852453D01*
X1022822Y1851570D01*
X1027025Y1850883D01*
X1031497Y1850392D01*
X1041249Y1850000D01*
X1043831Y1830000D01*
X1038724Y1829881D01*
X1029548Y1828931D01*
X1025479Y1828099D01*
X1021755Y1827030D01*
X1018376Y1825723D01*
X1015343Y1824178D01*
X1012656Y1822396D01*
X1010314Y1820376D01*
X1008318Y1818119D01*
X1003254Y1859813D01*
X1005842Y1857948D01*
D02*
G37*
G36*
X944603Y1796907D02*
X947334Y1795123D01*
X950354Y1793549D01*
X953662Y1792185D01*
X957259Y1791030D01*
X961144Y1790086D01*
X965318Y1789351D01*
X969781Y1788827D01*
X979572Y1788407D01*
X980746Y1768407D01*
X975662Y1768293D01*
X966466Y1767377D01*
X962354Y1766576D01*
X958566Y1765547D01*
X955101Y1764288D01*
X951961Y1762801D01*
X949143Y1761084D01*
X946650Y1759139D01*
X944481Y1756965D01*
X942161Y1798901D01*
X944603Y1796907D01*
D02*
G37*
G36*
X456503Y1801330D02*
X460864Y1798952D01*
X465341Y1796854D01*
X469934Y1795036D01*
X474644Y1793497D01*
X479469Y1792238D01*
X484411Y1791259D01*
X489469Y1790560D01*
X494644Y1790140D01*
X499934Y1790000D01*
Y1770000D01*
X494644Y1769860D01*
X489469Y1769440D01*
X484411Y1768741D01*
X479469Y1767762D01*
X474644Y1766503D01*
X469934Y1764964D01*
X465341Y1763146D01*
X460864Y1761048D01*
X456503Y1758670D01*
X452258Y1756012D01*
Y1803988D01*
X456503Y1801330D01*
D02*
G37*
G36*
X943733Y1718910D02*
X946349Y1717040D01*
X949270Y1715390D01*
X952497Y1713960D01*
X956030Y1712750D01*
X959869Y1711760D01*
X964014Y1710990D01*
X968465Y1710440D01*
X973222Y1710110D01*
X978284Y1710000D01*
Y1690000D01*
X973222Y1689890D01*
X964014Y1689010D01*
X959869Y1688240D01*
X956030Y1687250D01*
X952497Y1686040D01*
X949270Y1684610D01*
X946349Y1682960D01*
X943733Y1681090D01*
X941424Y1679000D01*
Y1721000D01*
X943733Y1718910D01*
D02*
G37*
G36*
X456503Y1721330D02*
X460864Y1718952D01*
X465341Y1716854D01*
X469934Y1715036D01*
X474644Y1713497D01*
X479469Y1712238D01*
X484411Y1711259D01*
X489469Y1710560D01*
X494644Y1710140D01*
X499934Y1710000D01*
Y1690000D01*
X494644Y1689860D01*
X489469Y1689441D01*
X484411Y1688741D01*
X479469Y1687762D01*
X474644Y1686503D01*
X469934Y1684965D01*
X465341Y1683146D01*
X460864Y1681048D01*
X456503Y1678670D01*
X452258Y1676012D01*
Y1723988D01*
X456503Y1721330D01*
D02*
G37*
G36*
X453328Y1643540D02*
X455127Y1643140D01*
X457656Y1642787D01*
X464902Y1642221D01*
X488148Y1641656D01*
X495783Y1641632D01*
X499934Y1621633D01*
X494416Y1621434D01*
X489193Y1620839D01*
X484264Y1619848D01*
X479628Y1618460D01*
X475287Y1616675D01*
X471240Y1614494D01*
X467487Y1611915D01*
X464029Y1608941D01*
X460864Y1605570D01*
X457993Y1601802D01*
X452258Y1643988D01*
X453328Y1643540D01*
D02*
G37*
G36*
X1362260Y1599170D02*
X1359950Y1601260D01*
X1357335Y1603130D01*
X1354414Y1604780D01*
X1351187Y1606210D01*
X1347653Y1607420D01*
X1343815Y1608410D01*
X1339670Y1609180D01*
X1335219Y1609730D01*
X1330462Y1610060D01*
X1325400Y1610170D01*
Y1630170D01*
X1330462Y1630280D01*
X1339670Y1631160D01*
X1343815Y1631930D01*
X1347653Y1632920D01*
X1351187Y1634130D01*
X1354414Y1635560D01*
X1357335Y1637210D01*
X1359950Y1639080D01*
X1362260Y1641170D01*
Y1599170D01*
D02*
G37*
G36*
X1350739Y1523389D02*
X1348339Y1525415D01*
X1345645Y1527228D01*
X1342656Y1528828D01*
X1339373Y1530214D01*
X1335796Y1531387D01*
X1331926Y1532347D01*
X1327761Y1533093D01*
X1323301Y1533627D01*
X1313501Y1534053D01*
X1312706Y1554053D01*
X1317783Y1554166D01*
X1326983Y1555071D01*
X1331106Y1555862D01*
X1334911Y1556880D01*
X1338398Y1558123D01*
X1341568Y1559593D01*
X1344419Y1561289D01*
X1346952Y1563211D01*
X1349167Y1565359D01*
X1350739Y1523389D01*
D02*
G37*
G36*
X1801405Y1472000D02*
X1800947Y1475800D01*
X1799696Y1479200D01*
X1797650Y1482200D01*
X1794810Y1484800D01*
X1791177Y1487000D01*
X1786749Y1488800D01*
X1781528Y1490200D01*
X1775513Y1491200D01*
X1768704Y1491800D01*
X1761101Y1492000D01*
Y1512000D01*
X1768704Y1512200D01*
X1775513Y1512800D01*
X1781528Y1513800D01*
X1786749Y1515200D01*
X1791177Y1517000D01*
X1794810Y1519200D01*
X1797650Y1521800D01*
X1799696Y1524800D01*
X1800947Y1528200D01*
X1801405Y1532000D01*
Y1472000D01*
D02*
G37*
G36*
X457412Y1480689D02*
X467461Y1475134D01*
X472357Y1472877D01*
X477168Y1470967D01*
X481893Y1469404D01*
X486532Y1468189D01*
X491085Y1467321D01*
X495552Y1466800D01*
X499934Y1466627D01*
X499760Y1446627D01*
X493594Y1446521D01*
X482206Y1445671D01*
X476984Y1444929D01*
X467483Y1442806D01*
X463205Y1441426D01*
X459242Y1439834D01*
X455593Y1438029D01*
X452258Y1436012D01*
Y1483988D01*
X457412Y1480689D01*
D02*
G37*
G36*
X1314312Y1460988D02*
X1323122Y1453239D01*
X1324773Y1452075D01*
X1326203Y1451220D01*
X1327412Y1450674D01*
X1328401Y1450437D01*
X1329169Y1450510D01*
X1310604Y1431945D01*
X1310676Y1432713D01*
X1310440Y1433701D01*
X1309894Y1434911D01*
X1309039Y1436341D01*
X1307874Y1437991D01*
X1306401Y1439863D01*
X1302527Y1444268D01*
X1297416Y1449556D01*
X1311558Y1463698D01*
X1314312Y1460988D01*
D02*
G37*
G36*
X2137500Y1417406D02*
X2131911Y1417128D01*
X2126448Y1416416D01*
X2121110Y1415271D01*
X2115897Y1413692D01*
X2110809Y1411679D01*
X2105847Y1409233D01*
X2101011Y1406353D01*
X2096299Y1403039D01*
X2091713Y1399292D01*
X2087253Y1395111D01*
X2073110Y1409253D01*
X2077747Y1414170D01*
X2081850Y1419111D01*
X2085416Y1424078D01*
X2088448Y1429068D01*
X2090945Y1434084D01*
X2092907Y1439124D01*
X2094334Y1444188D01*
X2095226Y1449278D01*
X2095582Y1454391D01*
X2095404Y1459530D01*
X2137500Y1417406D01*
D02*
G37*
G36*
X941415Y1387321D02*
X944370Y1385762D01*
X947578Y1384387D01*
X951040Y1383195D01*
X954755Y1382186D01*
X958724Y1381361D01*
X962946Y1380720D01*
X972151Y1379986D01*
X977134Y1379894D01*
X980934Y1359894D01*
X975810Y1359772D01*
X971050Y1359407D01*
X966654Y1358798D01*
X962623Y1357946D01*
X958956Y1356849D01*
X955654Y1355510D01*
X952716Y1353926D01*
X950143Y1352100D01*
X947933Y1350029D01*
X946089Y1347715D01*
X938714Y1389062D01*
X941415Y1387321D01*
D02*
G37*
G36*
X1305965Y1389149D02*
X1313125Y1383330D01*
X1316592Y1381038D01*
X1319982Y1379156D01*
X1323297Y1377685D01*
X1326537Y1376626D01*
X1329700Y1375978D01*
X1332788Y1375741D01*
X1335800Y1375914D01*
X1309768Y1342955D01*
X1309268Y1346104D01*
X1308437Y1349304D01*
X1307276Y1352556D01*
X1305784Y1355860D01*
X1303962Y1359215D01*
X1301809Y1362623D01*
X1299326Y1366082D01*
X1296513Y1369592D01*
X1289894Y1376768D01*
X1302271Y1392675D01*
X1305965Y1389149D01*
D02*
G37*
G36*
X2111500Y1163406D02*
X2105911Y1163128D01*
X2100448Y1162416D01*
X2095110Y1161271D01*
X2089897Y1159692D01*
X2084809Y1157679D01*
X2079847Y1155233D01*
X2075011Y1152353D01*
X2070299Y1149039D01*
X2065713Y1145292D01*
X2061253Y1141111D01*
X2047110Y1155253D01*
X2051747Y1160170D01*
X2055850Y1165111D01*
X2059417Y1170078D01*
X2062449Y1175068D01*
X2064945Y1180084D01*
X2066907Y1185124D01*
X2068334Y1190188D01*
X2069226Y1195278D01*
X2069582Y1200391D01*
X2069404Y1205530D01*
X2111500Y1163406D01*
D02*
G37*
G36*
X2066170Y842252D02*
X2071111Y838150D01*
X2076077Y834583D01*
X2081068Y831551D01*
X2086083Y829054D01*
X2091124Y827093D01*
X2096188Y825666D01*
X2101277Y824774D01*
X2106391Y824417D01*
X2111530Y824596D01*
X2069405Y782500D01*
X2069127Y788089D01*
X2068416Y793552D01*
X2067271Y798890D01*
X2065692Y804103D01*
X2063679Y809190D01*
X2061233Y814153D01*
X2058353Y818989D01*
X2055039Y823701D01*
X2051292Y828287D01*
X2047110Y832747D01*
X2061253Y846889D01*
X2066170Y842252D01*
D02*
G37*
D10*
X300000Y1140000D02*
D03*
Y1060000D02*
D03*
Y1220000D02*
D03*
Y980000D02*
D03*
Y1380000D02*
D03*
Y1300000D02*
D03*
Y1620000D02*
D03*
Y1460000D02*
D03*
Y1860000D02*
D03*
Y1540000D02*
D03*
Y1780000D02*
D03*
Y1700000D02*
D03*
Y2020000D02*
D03*
Y2260000D02*
D03*
Y2340000D02*
D03*
Y2420000D02*
D03*
Y1940000D02*
D03*
Y2500000D02*
D03*
Y2100000D02*
D03*
Y2180000D02*
D03*
D11*
X970974Y1009027D02*
X1424146D01*
X1481919Y951254D01*
X970315Y949685D02*
X1402371D01*
X1403035Y950348D01*
X768522Y1151479D02*
X970315Y949685D01*
X770930Y1209070D02*
X970974Y1009027D01*
X935947Y1544053D02*
X1370240D01*
X1371363Y1545176D01*
X1270000Y1660000D02*
X1286170Y1676170D01*
X1310170Y1620170D02*
X1383684D01*
X1408517Y1676170D02*
X1740000Y1344687D01*
Y1170000D02*
Y1344687D01*
X1286170Y1676170D02*
X1408517D01*
X1270827Y1580827D02*
X1310170Y1620170D01*
X1270681Y1778407D02*
X1299028Y1750060D01*
X1446078D02*
X1826138Y1370000D01*
X1299028Y1750060D02*
X1446078D01*
X1264060Y1714060D02*
X1428217D01*
X1805063Y1337214D01*
X848368Y1631632D02*
X935947Y1544053D01*
X969400Y2025803D02*
X991400Y2047803D01*
X945342Y2091644D02*
X950606Y2086380D01*
X922953Y2025803D02*
X969400D01*
X909404Y2099297D02*
X917058Y2091644D01*
X950606Y2086380D02*
X1682380D01*
X963897Y2124000D02*
X1376325D01*
X930717Y2157180D02*
X963897Y2124000D01*
X888091Y2157180D02*
X930717D01*
X921400Y2024250D02*
X922953Y2025803D01*
X991400Y2047803D02*
X1708100D01*
X945629Y2193180D02*
X977074Y2161734D01*
X1320910D01*
X873180Y2193180D02*
X945629D01*
X917058Y2091644D02*
X945342D01*
X313195Y2086805D02*
X766804D01*
X762085Y2031173D02*
X888091Y2157180D01*
X766804Y2086805D02*
X873180Y2193180D01*
X311173Y2031173D02*
X762085D01*
X1320910Y2161734D02*
X1339176Y2180000D01*
X1350000D01*
X1509090Y2279090D02*
X1630000Y2400000D01*
X1029999Y2258160D02*
X1040823D01*
X1062025Y2279090D02*
X1509090D01*
X1040823Y2258160D02*
X1057701Y2275039D01*
X1057973D01*
X1062025Y2279090D01*
X995237Y2302594D02*
X1012538Y2319895D01*
X1496637D02*
X1590000Y2413258D01*
X1012538Y2319895D02*
X1496637D01*
X824594Y2394594D02*
X1386681D01*
X1435111Y2443025D01*
X923586Y1778407D02*
X1270681D01*
X958366Y1892382D02*
X1297618D01*
X944527Y1929455D02*
X1355687D01*
X300000Y1780000D02*
X845984D01*
X865072Y1850000D02*
X944527Y1929455D01*
X921929Y1776750D02*
X923586Y1778407D01*
X845984Y1780000D02*
X958366Y1892382D01*
X310000Y1850000D02*
X865072D01*
X921310Y1364627D02*
X926578Y1369894D01*
X300000Y1460000D02*
X303373Y1456627D01*
X926578Y1369894D02*
X1227301D01*
X540627Y1420627D02*
X1260177D01*
X513899Y1393899D02*
X540627Y1420627D01*
X1304487Y1456627D02*
X1338961Y1422153D01*
X1260177Y1420627D02*
X1334648Y1346156D01*
X303373Y1456627D02*
X1304487D01*
X1227301Y1369894D02*
X1387195Y1210000D01*
X840000Y1700000D02*
X959173Y1580827D01*
X1270827D01*
X1053682Y1660000D02*
X1270000D01*
X1022572Y1639714D02*
X1033396D01*
X1053682Y1660000D01*
X1454596Y1792454D02*
X1745050Y1502000D01*
X1307546Y1792454D02*
X1454596D01*
X1260000Y1840000D02*
X1307546Y1792454D01*
X1745050Y1502000D02*
X1926000D01*
X1826138Y1370000D02*
X2048000D01*
X1877589Y1248000D02*
X1900000D01*
X1805063Y1320526D02*
X1877589Y1248000D01*
X1805063Y1320526D02*
Y1337214D01*
X1376325Y2124000D02*
X1426559Y2174234D01*
X839506Y2358594D02*
X1439273D01*
X1469519Y2388839D01*
X1476910D01*
X1435111Y2443025D02*
Y2452312D01*
X1334648Y1346156D02*
X1339597D01*
X1387195Y1210000D02*
X1570000D01*
X1605904Y454096D02*
X1773063Y286937D01*
X1605904Y454096D02*
Y943184D01*
X1501887Y1047201D02*
X1605904Y943184D01*
X1646821Y464091D02*
X1754383Y356529D01*
X1514374Y1085626D02*
X1646821Y953179D01*
Y464091D02*
Y953179D01*
X984519Y1148171D02*
X1047065Y1085626D01*
X920000Y1136942D02*
X1009741Y1047201D01*
X920000Y1136942D02*
Y1220000D01*
X1009741Y1047201D02*
X1501887D01*
X984519Y1148171D02*
Y1151618D01*
X1047065Y1085626D02*
X1514374D01*
X984518Y1836382D02*
X988135Y1840000D01*
X1260000D01*
X1355687Y1929455D02*
X1358478Y1926664D01*
X1297618Y1892382D02*
X1320000Y1870000D01*
X754284Y2273373D02*
X839506Y2358594D01*
X754933Y2324933D02*
X824594Y2394594D01*
X937405Y2302594D02*
X995237D01*
X2029471Y356529D02*
X2154000Y232000D01*
X1754383Y356529D02*
X2029471D01*
X1740000Y1170000D02*
X1780000Y1130000D01*
X2036000D01*
X1760000Y900000D02*
Y1020000D01*
X1800968Y859032D02*
X2034968D01*
X1570000Y1210000D02*
X1760000Y1020000D01*
Y900000D02*
X1800968Y859032D01*
X461716Y2324933D02*
X754933D01*
X313373Y2273373D02*
X754284D01*
X1708100Y2047803D02*
X1790297Y2130000D01*
X1682380Y2086380D02*
X1860000Y2264000D01*
X1630000Y2400000D02*
Y2510000D01*
X1590000Y2413258D02*
Y2540000D01*
X1790297Y2130000D02*
X2020000D01*
X460106Y2326543D02*
X461716Y2324933D01*
X300000Y2340000D02*
X313457Y2326543D01*
X460106D01*
X300000Y2260000D02*
X313373Y2273373D01*
X300000Y2100000D02*
X313195Y2086805D01*
X300000Y2020000D02*
X311173Y2031173D01*
X311478Y1151479D02*
X768522D01*
X310930Y1209070D02*
X770930D01*
X300000Y1220000D02*
X310930Y1209070D01*
X300000Y1140000D02*
X311478Y1151479D01*
X461273Y1393457D02*
X461716Y1393899D01*
X513899D01*
X300000Y1380000D02*
X313457Y1393457D01*
X461273D01*
X311632Y1631632D02*
X848368D01*
X300000Y1620000D02*
X311632Y1631632D01*
X300000Y1860000D02*
X310000Y1850000D01*
X1773063Y286937D02*
X1845063D01*
X1900000Y232000D01*
X2020000Y2130000D02*
X2154000Y2264000D01*
X1860000D02*
X1900000D01*
X1320000Y1870000D02*
X1430000D01*
X300000Y1700000D02*
X840000D01*
X920000Y1700000D02*
X1250000D01*
X1264060Y1714060D01*
X2048000Y1370000D02*
X2180000Y1502000D01*
X2036000Y1130000D02*
X2154000Y1248000D01*
X2034968Y859032D02*
X2154000Y740000D01*
X1590000Y2540000D02*
X1767235Y2717235D01*
X1845235D01*
X1900000Y2772000D01*
X1760000Y2640000D02*
X2022000D01*
X1630000Y2510000D02*
X1760000Y2640000D01*
X2022000D02*
X2154000Y2772000D01*
D12*
X1318565Y647794D02*
X1547174D01*
X1177647Y788713D02*
X1318565Y647794D01*
X486449Y980000D02*
X487102Y980653D01*
X300000Y980000D02*
X486449D01*
D13*
X300000Y2500000D02*
X970000D01*
D14*
X2174000Y232000D02*
D03*
X2200000Y486000D02*
D03*
X2174000Y740000D02*
D03*
X2200000Y994000D02*
D03*
X2174000Y1248000D02*
D03*
X2200000Y1502000D02*
D03*
X2174000Y1756000D02*
D03*
X2200000Y2010000D02*
D03*
X2174000Y2264000D02*
D03*
X2200000Y2518000D02*
D03*
X2174000Y2772000D02*
D03*
X2200000Y3026000D02*
D03*
X2174000Y3280000D02*
D03*
X1880000Y232000D02*
D03*
X1906000Y486000D02*
D03*
X1880000Y740000D02*
D03*
X1906000Y994000D02*
D03*
X1880000Y1248000D02*
D03*
X1906000Y1502000D02*
D03*
X1880000Y1756000D02*
D03*
X1906000Y2010000D02*
D03*
X1880000Y2264000D02*
D03*
X1906000Y2518000D02*
D03*
X1880000Y2772000D02*
D03*
X1906000Y3026000D02*
D03*
D15*
X1880000Y3280000D02*
D03*
D16*
X982999Y830000D02*
D03*
X1132999Y2650000D02*
D03*
D17*
X1481919Y951254D02*
D03*
X1403035Y950348D02*
D03*
X1371363Y1545176D02*
D03*
X1383684Y1620170D02*
D03*
X1730000Y540000D02*
D03*
X1720000Y680000D02*
D03*
X921400Y2024250D02*
D03*
X909404Y2099297D02*
D03*
X1029999Y2258160D02*
D03*
X921929Y1776750D02*
D03*
X921310Y1364627D02*
D03*
X1426559Y2174234D02*
D03*
X1350000Y2180000D02*
D03*
X1476910Y2388839D02*
D03*
X1435111Y2452312D02*
D03*
X1338961Y1422153D02*
D03*
X1339597Y1346156D02*
D03*
X1547174Y647794D02*
D03*
X984519Y1151618D02*
D03*
X1022572Y1639714D02*
D03*
X984518Y1836382D02*
D03*
X937405Y2302594D02*
D03*
X1177647Y788713D02*
D03*
X487102Y980653D02*
D03*
X1710000Y1820000D02*
D03*
X1337420Y857081D02*
D03*
X1490000Y1410000D02*
D03*
X1644425Y2243683D02*
D03*
X1720000Y3140000D02*
D03*
X710000Y2620000D02*
D03*
Y3350000D02*
D03*
X2570000D02*
D03*
X2580000Y200000D02*
D03*
X720000D02*
D03*
X1670000Y210000D02*
D03*
X520000Y1060000D02*
D03*
Y1300000D02*
D03*
Y1540000D02*
D03*
Y1940000D02*
D03*
X527884Y2181225D02*
D03*
X620000Y2420000D02*
D03*
X1358478Y1926664D02*
D03*
X1430000Y1870000D02*
D03*
X920000Y1700000D02*
D03*
Y1220000D02*
D03*
X970000Y2500000D02*
D03*
%TF.MD5,556f99a7fafd056db6f5f0a3eff021e9*%
M02*
