%TF.GenerationSoftware,Altium Limited,Altium Designer,25.5.2 (35)*%
G04 Layer_Color=128*
%FSLAX45Y45*%
%MOMM*%
%TF.SameCoordinates,F9D1B48F-3E51-4A7C-A873-13CCE31A6061*%
%TF.FilePolarity,Positive*%
%TF.FileFunction,Paste,Bot*%
%TF.Part,Single*%
G01*
G75*
G36*
X1260579Y1723097D02*
X1264096Y1719581D01*
X1265999Y1714986D01*
Y1712500D01*
Y1687500D01*
Y1685014D01*
X1264096Y1680419D01*
X1260579Y1676903D01*
X1255985Y1675000D01*
X1116012D01*
X1111418Y1676903D01*
X1107902Y1680419D01*
X1105999Y1685014D01*
Y1687500D01*
Y1712500D01*
Y1714986D01*
X1107902Y1719581D01*
X1111418Y1723097D01*
X1116012Y1725000D01*
X1255985D01*
X1260579Y1723097D01*
D02*
G37*
G36*
X854579D02*
X858096Y1719581D01*
X859999Y1714986D01*
Y1712500D01*
Y1687500D01*
Y1685014D01*
X858096Y1680419D01*
X854579Y1676903D01*
X849985Y1675000D01*
X710012D01*
X705418Y1676903D01*
X701902Y1680419D01*
X699999Y1685014D01*
Y1687500D01*
Y1712500D01*
Y1714986D01*
X701902Y1719581D01*
X705418Y1723097D01*
X710012Y1725000D01*
X849985D01*
X854579Y1723097D01*
D02*
G37*
G36*
X384581D02*
X388097Y1719581D01*
X390000Y1714986D01*
Y1712500D01*
Y1687500D01*
Y1685014D01*
X388097Y1680419D01*
X384581Y1676903D01*
X379986Y1675000D01*
X240013D01*
X235419Y1676903D01*
X231903Y1680419D01*
X230000Y1685014D01*
Y1687500D01*
Y1712500D01*
Y1714986D01*
X231903Y1719581D01*
X235419Y1723097D01*
X240013Y1725000D01*
X379986D01*
X384581Y1723097D01*
D02*
G37*
G36*
X1260579Y1643097D02*
X1264096Y1639581D01*
X1265999Y1634986D01*
Y1632500D01*
Y1607500D01*
Y1605014D01*
X1264096Y1600419D01*
X1260579Y1596903D01*
X1255985Y1595000D01*
X1116012D01*
X1111418Y1596903D01*
X1107902Y1600419D01*
X1105999Y1605014D01*
Y1607500D01*
Y1632500D01*
Y1634986D01*
X1107902Y1639581D01*
X1111418Y1643097D01*
X1116012Y1645000D01*
X1255985D01*
X1260579Y1643097D01*
D02*
G37*
G36*
X854579D02*
X858096Y1639581D01*
X859999Y1634986D01*
Y1632500D01*
Y1607500D01*
Y1605014D01*
X858096Y1600419D01*
X854579Y1596903D01*
X849985Y1595000D01*
X710012D01*
X705418Y1596903D01*
X701902Y1600419D01*
X699999Y1605014D01*
Y1607500D01*
Y1632500D01*
Y1634986D01*
X701902Y1639581D01*
X705418Y1643097D01*
X710012Y1645000D01*
X849985D01*
X854579Y1643097D01*
D02*
G37*
G36*
X384581D02*
X388097Y1639581D01*
X390000Y1634986D01*
Y1632500D01*
Y1607500D01*
Y1605014D01*
X388097Y1600419D01*
X384581Y1596903D01*
X379986Y1595000D01*
X240013D01*
X235419Y1596903D01*
X231903Y1600419D01*
X230000Y1605014D01*
Y1607500D01*
Y1632500D01*
Y1634986D01*
X231903Y1639581D01*
X235419Y1643097D01*
X240013Y1645000D01*
X379986D01*
X384581Y1643097D01*
D02*
G37*
G36*
X1260579Y1563097D02*
X1264096Y1559581D01*
X1265999Y1554986D01*
Y1552500D01*
Y1527500D01*
Y1525013D01*
X1264096Y1520419D01*
X1260579Y1516903D01*
X1255985Y1515000D01*
X1116012D01*
X1111418Y1516903D01*
X1107902Y1520419D01*
X1105999Y1525013D01*
Y1527500D01*
Y1552500D01*
Y1554986D01*
X1107902Y1559581D01*
X1111418Y1563097D01*
X1116012Y1565000D01*
X1255985D01*
X1260579Y1563097D01*
D02*
G37*
G36*
X854579D02*
X858096Y1559581D01*
X859999Y1554986D01*
Y1552500D01*
Y1527500D01*
Y1525013D01*
X858096Y1520419D01*
X854579Y1516903D01*
X849985Y1515000D01*
X710012D01*
X705418Y1516903D01*
X701902Y1520419D01*
X699999Y1525013D01*
Y1527500D01*
Y1552500D01*
Y1554986D01*
X701902Y1559581D01*
X705418Y1563097D01*
X710012Y1565000D01*
X849985D01*
X854579Y1563097D01*
D02*
G37*
G36*
X384581D02*
X388097Y1559581D01*
X390000Y1554986D01*
Y1552500D01*
Y1527500D01*
Y1525013D01*
X388097Y1520419D01*
X384581Y1516903D01*
X379986Y1515000D01*
X240013D01*
X235419Y1516903D01*
X231903Y1520419D01*
X230000Y1525013D01*
Y1527500D01*
Y1552500D01*
Y1554986D01*
X231903Y1559581D01*
X235419Y1563097D01*
X240013Y1565000D01*
X379986D01*
X384581Y1563097D01*
D02*
G37*
G36*
X1260579Y1483097D02*
X1264096Y1479581D01*
X1265999Y1474986D01*
Y1472500D01*
Y1447500D01*
Y1445014D01*
X1264096Y1440419D01*
X1260579Y1436903D01*
X1255985Y1435000D01*
X1116012D01*
X1111418Y1436903D01*
X1107902Y1440419D01*
X1105999Y1445014D01*
Y1447500D01*
Y1472500D01*
Y1474986D01*
X1107902Y1479581D01*
X1111418Y1483097D01*
X1116012Y1485000D01*
X1255985D01*
X1260579Y1483097D01*
D02*
G37*
G36*
X854579D02*
X858096Y1479581D01*
X859999Y1474986D01*
Y1472500D01*
Y1447500D01*
Y1445014D01*
X858096Y1440419D01*
X854579Y1436903D01*
X849985Y1435000D01*
X710012D01*
X705418Y1436903D01*
X701902Y1440419D01*
X699999Y1445014D01*
Y1447500D01*
Y1472500D01*
Y1474986D01*
X701902Y1479581D01*
X705418Y1483097D01*
X710012Y1485000D01*
X849985D01*
X854579Y1483097D01*
D02*
G37*
G36*
X384581D02*
X388097Y1479581D01*
X390000Y1474986D01*
Y1472500D01*
Y1447500D01*
Y1445014D01*
X388097Y1440419D01*
X384581Y1436903D01*
X379986Y1435000D01*
X240013D01*
X235419Y1436903D01*
X231903Y1440419D01*
X230000Y1445014D01*
Y1447500D01*
Y1472500D01*
Y1474986D01*
X231903Y1479581D01*
X235419Y1483097D01*
X240013Y1485000D01*
X379986D01*
X384581Y1483097D01*
D02*
G37*
G36*
X1260579Y1403097D02*
X1264096Y1399581D01*
X1265999Y1394986D01*
Y1392500D01*
Y1367500D01*
Y1365014D01*
X1264096Y1360419D01*
X1260579Y1356903D01*
X1255985Y1355000D01*
X1116012D01*
X1111418Y1356903D01*
X1107902Y1360419D01*
X1105999Y1365014D01*
Y1367500D01*
Y1392500D01*
Y1394986D01*
X1107902Y1399581D01*
X1111418Y1403097D01*
X1116012Y1405000D01*
X1255985D01*
X1260579Y1403097D01*
D02*
G37*
G36*
X854579D02*
X858096Y1399581D01*
X859999Y1394986D01*
Y1392500D01*
Y1367500D01*
Y1365014D01*
X858096Y1360419D01*
X854579Y1356903D01*
X849985Y1355000D01*
X710012D01*
X705418Y1356903D01*
X701902Y1360419D01*
X699999Y1365014D01*
Y1367500D01*
Y1392500D01*
Y1394986D01*
X701902Y1399581D01*
X705418Y1403097D01*
X710012Y1405000D01*
X849985D01*
X854579Y1403097D01*
D02*
G37*
G36*
X384581D02*
X388097Y1399581D01*
X390000Y1394986D01*
Y1392500D01*
Y1367500D01*
Y1365014D01*
X388097Y1360419D01*
X384581Y1356903D01*
X379986Y1355000D01*
X240013D01*
X235419Y1356903D01*
X231903Y1360419D01*
X230000Y1365014D01*
Y1367500D01*
Y1392500D01*
Y1394986D01*
X231903Y1399581D01*
X235419Y1403097D01*
X240013Y1405000D01*
X379986D01*
X384581Y1403097D01*
D02*
G37*
G36*
X1260579Y1323097D02*
X1264096Y1319581D01*
X1265999Y1314986D01*
Y1312500D01*
Y1287500D01*
Y1285013D01*
X1264096Y1280419D01*
X1260579Y1276903D01*
X1255985Y1275000D01*
X1116012D01*
X1111418Y1276903D01*
X1107902Y1280419D01*
X1105999Y1285013D01*
Y1287500D01*
Y1312500D01*
Y1314986D01*
X1107902Y1319581D01*
X1111418Y1323097D01*
X1116012Y1325000D01*
X1255985D01*
X1260579Y1323097D01*
D02*
G37*
G36*
X854579D02*
X858096Y1319581D01*
X859999Y1314986D01*
Y1312500D01*
Y1287500D01*
Y1285013D01*
X858096Y1280419D01*
X854579Y1276903D01*
X849985Y1275000D01*
X710012D01*
X705418Y1276903D01*
X701902Y1280419D01*
X699999Y1285013D01*
Y1287500D01*
Y1312500D01*
Y1314986D01*
X701902Y1319581D01*
X705418Y1323097D01*
X710012Y1325000D01*
X849985D01*
X854579Y1323097D01*
D02*
G37*
G36*
X384581D02*
X388097Y1319581D01*
X390000Y1314986D01*
Y1312500D01*
Y1287500D01*
Y1285013D01*
X388097Y1280419D01*
X384581Y1276903D01*
X379986Y1275000D01*
X240013D01*
X235419Y1276903D01*
X231903Y1280419D01*
X230000Y1285013D01*
Y1287500D01*
Y1312500D01*
Y1314986D01*
X231903Y1319581D01*
X235419Y1323097D01*
X240013Y1325000D01*
X379986D01*
X384581Y1323097D01*
D02*
G37*
G36*
X1260579Y1243097D02*
X1264096Y1239581D01*
X1265999Y1234986D01*
Y1232500D01*
Y1207500D01*
Y1205014D01*
X1264096Y1200419D01*
X1260579Y1196903D01*
X1255985Y1195000D01*
X1116012D01*
X1111418Y1196903D01*
X1107902Y1200419D01*
X1105999Y1205014D01*
Y1207500D01*
Y1232500D01*
Y1234986D01*
X1107902Y1239581D01*
X1111418Y1243097D01*
X1116012Y1245000D01*
X1255985D01*
X1260579Y1243097D01*
D02*
G37*
G36*
X854579D02*
X858096Y1239581D01*
X859999Y1234986D01*
Y1232500D01*
Y1207500D01*
Y1205014D01*
X858096Y1200419D01*
X854579Y1196903D01*
X849985Y1195000D01*
X710012D01*
X705418Y1196903D01*
X701902Y1200419D01*
X699999Y1205014D01*
Y1207500D01*
Y1232500D01*
Y1234986D01*
X701902Y1239581D01*
X705418Y1243097D01*
X710012Y1245000D01*
X849985D01*
X854579Y1243097D01*
D02*
G37*
G36*
X384581D02*
X388097Y1239581D01*
X390000Y1234986D01*
Y1232500D01*
Y1207500D01*
Y1205014D01*
X388097Y1200419D01*
X384581Y1196903D01*
X379986Y1195000D01*
X240013D01*
X235419Y1196903D01*
X231903Y1200419D01*
X230000Y1205014D01*
Y1207500D01*
Y1232500D01*
Y1234986D01*
X231903Y1239581D01*
X235419Y1243097D01*
X240013Y1245000D01*
X379986D01*
X384581Y1243097D01*
D02*
G37*
G36*
X1260579Y1163097D02*
X1264096Y1159581D01*
X1265999Y1154987D01*
Y1152500D01*
Y1127500D01*
Y1125014D01*
X1264096Y1120419D01*
X1260579Y1116903D01*
X1255985Y1115000D01*
X1116012D01*
X1111418Y1116903D01*
X1107902Y1120419D01*
X1105999Y1125014D01*
Y1127500D01*
Y1152500D01*
Y1154987D01*
X1107902Y1159581D01*
X1111418Y1163097D01*
X1116012Y1165000D01*
X1255985D01*
X1260579Y1163097D01*
D02*
G37*
G36*
X854579D02*
X858096Y1159581D01*
X859999Y1154987D01*
Y1152500D01*
Y1127500D01*
Y1125014D01*
X858096Y1120419D01*
X854579Y1116903D01*
X849985Y1115000D01*
X710012D01*
X705418Y1116903D01*
X701902Y1120419D01*
X699999Y1125014D01*
Y1127500D01*
Y1152500D01*
Y1154987D01*
X701902Y1159581D01*
X705418Y1163097D01*
X710012Y1165000D01*
X849985D01*
X854579Y1163097D01*
D02*
G37*
G36*
X384581D02*
X388097Y1159581D01*
X390000Y1154987D01*
Y1152500D01*
Y1127500D01*
Y1125014D01*
X388097Y1120419D01*
X384581Y1116903D01*
X379986Y1115000D01*
X240013D01*
X235419Y1116903D01*
X231903Y1120419D01*
X230000Y1125014D01*
Y1127500D01*
Y1152500D01*
Y1154987D01*
X231903Y1159581D01*
X235419Y1163097D01*
X240013Y1165000D01*
X379986D01*
X384581Y1163097D01*
D02*
G37*
G36*
X1260579Y1083097D02*
X1264096Y1079581D01*
X1265999Y1074986D01*
Y1072500D01*
Y1047500D01*
Y1045013D01*
X1264096Y1040419D01*
X1260579Y1036903D01*
X1255985Y1035000D01*
X1116012D01*
X1111418Y1036903D01*
X1107902Y1040419D01*
X1105999Y1045013D01*
Y1047500D01*
Y1072500D01*
Y1074986D01*
X1107902Y1079581D01*
X1111418Y1083097D01*
X1116012Y1085000D01*
X1255985D01*
X1260579Y1083097D01*
D02*
G37*
G36*
X854579D02*
X858096Y1079581D01*
X859999Y1074986D01*
Y1072500D01*
Y1047500D01*
Y1045013D01*
X858096Y1040419D01*
X854579Y1036903D01*
X849985Y1035000D01*
X710012D01*
X705418Y1036903D01*
X701902Y1040419D01*
X699999Y1045013D01*
Y1047500D01*
Y1072500D01*
Y1074986D01*
X701902Y1079581D01*
X705418Y1083097D01*
X710012Y1085000D01*
X849985D01*
X854579Y1083097D01*
D02*
G37*
G36*
X384581D02*
X388097Y1079581D01*
X390000Y1074986D01*
Y1072500D01*
Y1047500D01*
Y1045013D01*
X388097Y1040419D01*
X384581Y1036903D01*
X379986Y1035000D01*
X240013D01*
X235419Y1036903D01*
X231903Y1040419D01*
X230000Y1045013D01*
Y1047500D01*
Y1072500D01*
Y1074986D01*
X231903Y1079581D01*
X235419Y1083097D01*
X240013Y1085000D01*
X379986D01*
X384581Y1083097D01*
D02*
G37*
G36*
X1260579Y1003097D02*
X1264096Y999581D01*
X1265999Y994986D01*
Y992500D01*
Y967500D01*
Y965014D01*
X1264096Y960419D01*
X1260579Y956903D01*
X1255985Y955000D01*
X1116012D01*
X1111418Y956903D01*
X1107902Y960419D01*
X1105999Y965014D01*
Y967500D01*
Y992500D01*
Y994986D01*
X1107902Y999581D01*
X1111418Y1003097D01*
X1116012Y1005000D01*
X1255985D01*
X1260579Y1003097D01*
D02*
G37*
G36*
X854579D02*
X858096Y999581D01*
X859999Y994986D01*
Y992500D01*
Y967500D01*
Y965014D01*
X858096Y960419D01*
X854579Y956903D01*
X849985Y955000D01*
X710012D01*
X705418Y956903D01*
X701902Y960419D01*
X699999Y965014D01*
Y967500D01*
Y992500D01*
Y994986D01*
X701902Y999581D01*
X705418Y1003097D01*
X710012Y1005000D01*
X849985D01*
X854579Y1003097D01*
D02*
G37*
G36*
X384581D02*
X388097Y999581D01*
X390000Y994986D01*
Y992500D01*
Y967500D01*
Y965014D01*
X388097Y960419D01*
X384581Y956903D01*
X379986Y955000D01*
X240013D01*
X235419Y956903D01*
X231903Y960419D01*
X230000Y965014D01*
Y967500D01*
Y992500D01*
Y994986D01*
X231903Y999581D01*
X235419Y1003097D01*
X240013Y1005000D01*
X379986D01*
X384581Y1003097D01*
D02*
G37*
G36*
X1260579Y2523097D02*
X1264096Y2519581D01*
X1265999Y2514986D01*
Y2512500D01*
Y2487500D01*
Y2485014D01*
X1264096Y2480419D01*
X1260579Y2476903D01*
X1255985Y2475000D01*
X1116012D01*
X1111418Y2476903D01*
X1107902Y2480419D01*
X1105999Y2485014D01*
Y2487500D01*
Y2512500D01*
Y2514986D01*
X1107902Y2519581D01*
X1111418Y2523097D01*
X1116012Y2525000D01*
X1255985D01*
X1260579Y2523097D01*
D02*
G37*
G36*
X854579D02*
X858096Y2519581D01*
X859999Y2514986D01*
Y2512500D01*
Y2487500D01*
Y2485014D01*
X858096Y2480419D01*
X854579Y2476903D01*
X849985Y2475000D01*
X710012D01*
X705418Y2476903D01*
X701902Y2480419D01*
X699999Y2485014D01*
Y2487500D01*
Y2512500D01*
Y2514986D01*
X701902Y2519581D01*
X705418Y2523097D01*
X710012Y2525000D01*
X849985D01*
X854579Y2523097D01*
D02*
G37*
G36*
X384581D02*
X388097Y2519581D01*
X390000Y2514986D01*
Y2512500D01*
Y2487500D01*
Y2485014D01*
X388097Y2480419D01*
X384581Y2476903D01*
X379986Y2475000D01*
X240013D01*
X235419Y2476903D01*
X231903Y2480419D01*
X230000Y2485014D01*
Y2487500D01*
Y2512500D01*
Y2514986D01*
X231903Y2519581D01*
X235419Y2523097D01*
X240013Y2525000D01*
X379986D01*
X384581Y2523097D01*
D02*
G37*
G36*
X1260579Y2443097D02*
X1264096Y2439581D01*
X1265999Y2434986D01*
Y2432500D01*
Y2407500D01*
Y2405013D01*
X1264096Y2400419D01*
X1260579Y2396903D01*
X1255985Y2395000D01*
X1116012D01*
X1111418Y2396903D01*
X1107902Y2400419D01*
X1105999Y2405013D01*
Y2407500D01*
Y2432500D01*
Y2434986D01*
X1107902Y2439581D01*
X1111418Y2443097D01*
X1116012Y2445000D01*
X1255985D01*
X1260579Y2443097D01*
D02*
G37*
G36*
X854579D02*
X858096Y2439581D01*
X859999Y2434986D01*
Y2432500D01*
Y2407500D01*
Y2405013D01*
X858096Y2400419D01*
X854579Y2396903D01*
X849985Y2395000D01*
X710012D01*
X705418Y2396903D01*
X701902Y2400419D01*
X699999Y2405013D01*
Y2407500D01*
Y2432500D01*
Y2434986D01*
X701902Y2439581D01*
X705418Y2443097D01*
X710012Y2445000D01*
X849985D01*
X854579Y2443097D01*
D02*
G37*
G36*
X384581D02*
X388097Y2439581D01*
X390000Y2434986D01*
Y2432500D01*
Y2407500D01*
Y2405013D01*
X388097Y2400419D01*
X384581Y2396903D01*
X379986Y2395000D01*
X240013D01*
X235419Y2396903D01*
X231903Y2400419D01*
X230000Y2405013D01*
Y2407500D01*
Y2432500D01*
Y2434986D01*
X231903Y2439581D01*
X235419Y2443097D01*
X240013Y2445000D01*
X379986D01*
X384581Y2443097D01*
D02*
G37*
G36*
X1260579Y2363097D02*
X1264096Y2359581D01*
X1265999Y2354986D01*
Y2352500D01*
Y2327500D01*
Y2325014D01*
X1264096Y2320419D01*
X1260579Y2316903D01*
X1255985Y2315000D01*
X1116012D01*
X1111418Y2316903D01*
X1107902Y2320419D01*
X1105999Y2325014D01*
Y2327500D01*
Y2352500D01*
Y2354986D01*
X1107902Y2359581D01*
X1111418Y2363097D01*
X1116012Y2365000D01*
X1255985D01*
X1260579Y2363097D01*
D02*
G37*
G36*
X854579D02*
X858096Y2359581D01*
X859999Y2354986D01*
Y2352500D01*
Y2327500D01*
Y2325014D01*
X858096Y2320419D01*
X854579Y2316903D01*
X849985Y2315000D01*
X710012D01*
X705418Y2316903D01*
X701902Y2320419D01*
X699999Y2325014D01*
Y2327500D01*
Y2352500D01*
Y2354986D01*
X701902Y2359581D01*
X705418Y2363097D01*
X710012Y2365000D01*
X849985D01*
X854579Y2363097D01*
D02*
G37*
G36*
X384581D02*
X388097Y2359581D01*
X390000Y2354986D01*
Y2352500D01*
Y2327500D01*
Y2325014D01*
X388097Y2320419D01*
X384581Y2316903D01*
X379986Y2315000D01*
X240013D01*
X235419Y2316903D01*
X231903Y2320419D01*
X230000Y2325014D01*
Y2327500D01*
Y2352500D01*
Y2354986D01*
X231903Y2359581D01*
X235419Y2363097D01*
X240013Y2365000D01*
X379986D01*
X384581Y2363097D01*
D02*
G37*
G36*
X1260579Y2283097D02*
X1264096Y2279581D01*
X1265999Y2274986D01*
Y2272500D01*
Y2247500D01*
Y2245014D01*
X1264096Y2240419D01*
X1260579Y2236903D01*
X1255985Y2235000D01*
X1116012D01*
X1111418Y2236903D01*
X1107902Y2240419D01*
X1105999Y2245014D01*
Y2247500D01*
Y2272500D01*
Y2274986D01*
X1107902Y2279581D01*
X1111418Y2283097D01*
X1116012Y2285000D01*
X1255985D01*
X1260579Y2283097D01*
D02*
G37*
G36*
X854579D02*
X858096Y2279581D01*
X859999Y2274986D01*
Y2272500D01*
Y2247500D01*
Y2245014D01*
X858096Y2240419D01*
X854579Y2236903D01*
X849985Y2235000D01*
X710012D01*
X705418Y2236903D01*
X701902Y2240419D01*
X699999Y2245014D01*
Y2247500D01*
Y2272500D01*
Y2274986D01*
X701902Y2279581D01*
X705418Y2283097D01*
X710012Y2285000D01*
X849985D01*
X854579Y2283097D01*
D02*
G37*
G36*
X384581D02*
X388097Y2279581D01*
X390000Y2274986D01*
Y2272500D01*
Y2247500D01*
Y2245014D01*
X388097Y2240419D01*
X384581Y2236903D01*
X379986Y2235000D01*
X240013D01*
X235419Y2236903D01*
X231903Y2240419D01*
X230000Y2245014D01*
Y2247500D01*
Y2272500D01*
Y2274986D01*
X231903Y2279581D01*
X235419Y2283097D01*
X240013Y2285000D01*
X379986D01*
X384581Y2283097D01*
D02*
G37*
G36*
X1260579Y2203097D02*
X1264096Y2199581D01*
X1265999Y2194986D01*
Y2192500D01*
Y2167500D01*
Y2165014D01*
X1264096Y2160419D01*
X1260579Y2156903D01*
X1255985Y2155000D01*
X1116012D01*
X1111418Y2156903D01*
X1107902Y2160419D01*
X1105999Y2165014D01*
Y2167500D01*
Y2192500D01*
Y2194986D01*
X1107902Y2199581D01*
X1111418Y2203097D01*
X1116012Y2205000D01*
X1255985D01*
X1260579Y2203097D01*
D02*
G37*
G36*
X854579D02*
X858096Y2199581D01*
X859999Y2194986D01*
Y2192500D01*
Y2167500D01*
Y2165014D01*
X858096Y2160419D01*
X854579Y2156903D01*
X849985Y2155000D01*
X710012D01*
X705418Y2156903D01*
X701902Y2160419D01*
X699999Y2165014D01*
Y2167500D01*
Y2192500D01*
Y2194986D01*
X701902Y2199581D01*
X705418Y2203097D01*
X710012Y2205000D01*
X849985D01*
X854579Y2203097D01*
D02*
G37*
G36*
X384581D02*
X388097Y2199581D01*
X390000Y2194986D01*
Y2192500D01*
Y2167500D01*
Y2165014D01*
X388097Y2160419D01*
X384581Y2156903D01*
X379986Y2155000D01*
X240013D01*
X235419Y2156903D01*
X231903Y2160419D01*
X230000Y2165014D01*
Y2167500D01*
Y2192500D01*
Y2194986D01*
X231903Y2199581D01*
X235419Y2203097D01*
X240013Y2205000D01*
X379986D01*
X384581Y2203097D01*
D02*
G37*
G36*
X1260579Y2123097D02*
X1264096Y2119581D01*
X1265999Y2114986D01*
Y2112500D01*
Y2087500D01*
Y2085014D01*
X1264096Y2080419D01*
X1260579Y2076903D01*
X1255985Y2075000D01*
X1116012D01*
X1111418Y2076903D01*
X1107902Y2080419D01*
X1105999Y2085014D01*
Y2087500D01*
Y2112500D01*
Y2114986D01*
X1107902Y2119581D01*
X1111418Y2123097D01*
X1116012Y2125000D01*
X1255985D01*
X1260579Y2123097D01*
D02*
G37*
G36*
X854579D02*
X858096Y2119581D01*
X859999Y2114986D01*
Y2112500D01*
Y2087500D01*
Y2085014D01*
X858096Y2080419D01*
X854579Y2076903D01*
X849985Y2075000D01*
X710012D01*
X705418Y2076903D01*
X701902Y2080419D01*
X699999Y2085014D01*
Y2087500D01*
Y2112500D01*
Y2114986D01*
X701902Y2119581D01*
X705418Y2123097D01*
X710012Y2125000D01*
X849985D01*
X854579Y2123097D01*
D02*
G37*
G36*
X384581D02*
X388097Y2119581D01*
X390000Y2114986D01*
Y2112500D01*
Y2087500D01*
Y2085014D01*
X388097Y2080419D01*
X384581Y2076903D01*
X379986Y2075000D01*
X240013D01*
X235419Y2076903D01*
X231903Y2080419D01*
X230000Y2085014D01*
Y2087500D01*
Y2112500D01*
Y2114986D01*
X231903Y2119581D01*
X235419Y2123097D01*
X240013Y2125000D01*
X379986D01*
X384581Y2123097D01*
D02*
G37*
G36*
X1260579Y2043097D02*
X1264096Y2039581D01*
X1265999Y2034986D01*
Y2032500D01*
Y2007500D01*
Y2005014D01*
X1264096Y2000419D01*
X1260579Y1996903D01*
X1255985Y1995000D01*
X1116012D01*
X1111418Y1996903D01*
X1107902Y2000419D01*
X1105999Y2005014D01*
Y2007500D01*
Y2032500D01*
Y2034986D01*
X1107902Y2039581D01*
X1111418Y2043097D01*
X1116012Y2045000D01*
X1255985D01*
X1260579Y2043097D01*
D02*
G37*
G36*
X854579D02*
X858096Y2039581D01*
X859999Y2034986D01*
Y2032500D01*
Y2007500D01*
Y2005014D01*
X858096Y2000419D01*
X854579Y1996903D01*
X849985Y1995000D01*
X710012D01*
X705418Y1996903D01*
X701902Y2000419D01*
X699999Y2005014D01*
Y2007500D01*
Y2032500D01*
Y2034986D01*
X701902Y2039581D01*
X705418Y2043097D01*
X710012Y2045000D01*
X849985D01*
X854579Y2043097D01*
D02*
G37*
G36*
X384581D02*
X388097Y2039581D01*
X390000Y2034986D01*
Y2032500D01*
Y2007500D01*
Y2005014D01*
X388097Y2000419D01*
X384581Y1996903D01*
X379986Y1995000D01*
X240013D01*
X235419Y1996903D01*
X231903Y2000419D01*
X230000Y2005014D01*
Y2007500D01*
Y2032500D01*
Y2034986D01*
X231903Y2039581D01*
X235419Y2043097D01*
X240013Y2045000D01*
X379986D01*
X384581Y2043097D01*
D02*
G37*
G36*
X1260579Y1963097D02*
X1264096Y1959581D01*
X1265999Y1954986D01*
Y1952500D01*
Y1927500D01*
Y1925014D01*
X1264096Y1920419D01*
X1260579Y1916903D01*
X1255985Y1915000D01*
X1116012D01*
X1111418Y1916903D01*
X1107902Y1920419D01*
X1105999Y1925014D01*
Y1927500D01*
Y1952500D01*
Y1954986D01*
X1107902Y1959581D01*
X1111418Y1963097D01*
X1116012Y1965000D01*
X1255985D01*
X1260579Y1963097D01*
D02*
G37*
G36*
X854579D02*
X858096Y1959581D01*
X859999Y1954986D01*
Y1952500D01*
Y1927500D01*
Y1925014D01*
X858096Y1920419D01*
X854579Y1916903D01*
X849985Y1915000D01*
X710012D01*
X705418Y1916903D01*
X701902Y1920419D01*
X699999Y1925014D01*
Y1927500D01*
Y1952500D01*
Y1954986D01*
X701902Y1959581D01*
X705418Y1963097D01*
X710012Y1965000D01*
X849985D01*
X854579Y1963097D01*
D02*
G37*
G36*
X384581D02*
X388097Y1959581D01*
X390000Y1954986D01*
Y1952500D01*
Y1927500D01*
Y1925014D01*
X388097Y1920419D01*
X384581Y1916903D01*
X379986Y1915000D01*
X240013D01*
X235419Y1916903D01*
X231903Y1920419D01*
X230000Y1925014D01*
Y1927500D01*
Y1952500D01*
Y1954986D01*
X231903Y1959581D01*
X235419Y1963097D01*
X240013Y1965000D01*
X379986D01*
X384581Y1963097D01*
D02*
G37*
G36*
X1260579Y1883097D02*
X1264096Y1879581D01*
X1265999Y1874986D01*
Y1872500D01*
Y1847500D01*
Y1845014D01*
X1264096Y1840419D01*
X1260579Y1836903D01*
X1255985Y1835000D01*
X1116012D01*
X1111418Y1836903D01*
X1107902Y1840419D01*
X1105999Y1845014D01*
Y1847500D01*
Y1872500D01*
Y1874986D01*
X1107902Y1879581D01*
X1111418Y1883097D01*
X1116012Y1885000D01*
X1255985D01*
X1260579Y1883097D01*
D02*
G37*
G36*
X854579D02*
X858096Y1879581D01*
X859999Y1874986D01*
Y1872500D01*
Y1847500D01*
Y1845014D01*
X858096Y1840419D01*
X854579Y1836903D01*
X849985Y1835000D01*
X710012D01*
X705418Y1836903D01*
X701902Y1840419D01*
X699999Y1845014D01*
Y1847500D01*
Y1872500D01*
Y1874986D01*
X701902Y1879581D01*
X705418Y1883097D01*
X710012Y1885000D01*
X849985D01*
X854579Y1883097D01*
D02*
G37*
G36*
X384581D02*
X388097Y1879581D01*
X390000Y1874986D01*
Y1872500D01*
Y1847500D01*
Y1845014D01*
X388097Y1840419D01*
X384581Y1836903D01*
X379986Y1835000D01*
X240013D01*
X235419Y1836903D01*
X231903Y1840419D01*
X230000Y1845014D01*
Y1847500D01*
Y1872500D01*
Y1874986D01*
X231903Y1879581D01*
X235419Y1883097D01*
X240013Y1885000D01*
X379986D01*
X384581Y1883097D01*
D02*
G37*
G36*
X1260579Y1803097D02*
X1264096Y1799581D01*
X1265999Y1794986D01*
Y1792500D01*
Y1767500D01*
Y1765013D01*
X1264096Y1760419D01*
X1260579Y1756903D01*
X1255985Y1755000D01*
X1116012D01*
X1111418Y1756903D01*
X1107902Y1760419D01*
X1105999Y1765013D01*
Y1767500D01*
Y1792500D01*
Y1794986D01*
X1107902Y1799581D01*
X1111418Y1803097D01*
X1116012Y1805000D01*
X1255985D01*
X1260579Y1803097D01*
D02*
G37*
G36*
X854579D02*
X858096Y1799581D01*
X859999Y1794986D01*
Y1792500D01*
Y1767500D01*
Y1765013D01*
X858096Y1760419D01*
X854579Y1756903D01*
X849985Y1755000D01*
X710012D01*
X705418Y1756903D01*
X701902Y1760419D01*
X699999Y1765013D01*
Y1767500D01*
Y1792500D01*
Y1794986D01*
X701902Y1799581D01*
X705418Y1803097D01*
X710012Y1805000D01*
X849985D01*
X854579Y1803097D01*
D02*
G37*
G36*
X384581D02*
X388097Y1799581D01*
X390000Y1794986D01*
Y1792500D01*
Y1767500D01*
Y1765013D01*
X388097Y1760419D01*
X384581Y1756903D01*
X379986Y1755000D01*
X240013D01*
X235419Y1756903D01*
X231903Y1760419D01*
X230000Y1765013D01*
Y1767500D01*
Y1792500D01*
Y1794986D01*
X231903Y1799581D01*
X235419Y1803097D01*
X240013Y1805000D01*
X379986D01*
X384581Y1803097D01*
D02*
G37*
%TF.MD5,038fd3eb64718498badd90a5db27e9fe*%
M02*
