%TF.GenerationSoftware,Altium Limited,Altium Designer,25.5.2 (35)*%
G04 Layer_Color=255*
%FSLAX45Y45*%
%MOMM*%
%TF.SameCoordinates,F9D1B48F-3E51-4A7C-A873-13CCE31A6061*%
%TF.FilePolarity,Positive*%
%TF.FileFunction,Pads,Bot*%
%TF.Part,Single*%
G01*
G75*
%TA.AperFunction,SMDPad,CuDef*%
G04:AMPARAMS|DCode=10|XSize=3.2mm|YSize=0.5mm|CornerRadius=0.125mm|HoleSize=0mm|Usage=FLASHONLY|Rotation=0.000|XOffset=0mm|YOffset=0mm|HoleType=Round|Shape=RoundedRectangle|*
%AMROUNDEDRECTD10*
21,1,3.20000,0.25000,0,0,0.0*
21,1,2.95000,0.50000,0,0,0.0*
1,1,0.25000,1.47500,-0.12500*
1,1,0.25000,-1.47500,-0.12500*
1,1,0.25000,-1.47500,0.12500*
1,1,0.25000,1.47500,0.12500*
%
%ADD10ROUNDEDRECTD10*%
%TA.AperFunction,ComponentPad*%
G04:AMPARAMS|DCode=14|XSize=1.7mm|YSize=2.1mm|CornerRadius=0.425mm|HoleSize=0mm|Usage=FLASHONLY|Rotation=270.000|XOffset=0mm|YOffset=0mm|HoleType=Round|Shape=RoundedRectangle|*
%AMROUNDEDRECTD14*
21,1,1.70000,1.25001,0,0,270.0*
21,1,0.85000,2.10000,0,0,270.0*
1,1,0.85000,-0.62500,-0.42500*
1,1,0.85000,-0.62500,0.42500*
1,1,0.85000,0.62500,0.42500*
1,1,0.85000,0.62500,-0.42500*
%
%ADD14ROUNDEDRECTD14*%
G04:AMPARAMS|DCode=15|XSize=1.7mm|YSize=2.1mm|CornerRadius=0mm|HoleSize=0mm|Usage=FLASHONLY|Rotation=270.000|XOffset=0mm|YOffset=0mm|HoleType=Round|Shape=Octagon|*
%AMOCTAGOND15*
4,1,8,1.05000,0.42500,1.05000,-0.42500,0.62500,-0.85000,-0.62500,-0.85000,-1.05000,-0.42500,-1.05000,0.42500,-0.62500,0.85000,0.62500,0.85000,1.05000,0.42500,0.0*
%
%ADD15OCTAGOND15*%

G04:AMPARAMS|DCode=16|XSize=1.55mm|YSize=1.6mm|CornerRadius=0.3875mm|HoleSize=0mm|Usage=FLASHONLY|Rotation=270.000|XOffset=0mm|YOffset=0mm|HoleType=Round|Shape=RoundedRectangle|*
%AMROUNDEDRECTD16*
21,1,1.55000,0.82500,0,0,270.0*
21,1,0.77500,1.60000,0,0,270.0*
1,1,0.77500,-0.41250,-0.38750*
1,1,0.77500,-0.41250,0.38750*
1,1,0.77500,0.41250,0.38750*
1,1,0.77500,0.41250,-0.38750*
%
%ADD16ROUNDEDRECTD16*%
%TA.AperFunction,SMDPad,CuDef*%
G04:AMPARAMS|DCode=18|XSize=2.2mm|YSize=0.5mm|CornerRadius=0.125mm|HoleSize=0mm|Usage=FLASHONLY|Rotation=180.000|XOffset=0mm|YOffset=0mm|HoleType=Round|Shape=RoundedRectangle|*
%AMROUNDEDRECTD18*
21,1,2.20000,0.25000,0,0,180.0*
21,1,1.95000,0.50000,0,0,180.0*
1,1,0.25000,-0.97500,0.12500*
1,1,0.25000,0.97500,0.12500*
1,1,0.25000,0.97500,-0.12500*
1,1,0.25000,-0.97500,-0.12500*
%
%ADD18ROUNDEDRECTD18*%
D10*
X300000Y2500000D02*
D03*
Y2260000D02*
D03*
Y2340000D02*
D03*
Y2420000D02*
D03*
Y2100000D02*
D03*
Y2180000D02*
D03*
Y2020000D02*
D03*
Y1940000D02*
D03*
Y1860000D02*
D03*
Y1780000D02*
D03*
Y1700000D02*
D03*
Y1620000D02*
D03*
Y1540000D02*
D03*
Y1460000D02*
D03*
Y1380000D02*
D03*
Y1300000D02*
D03*
Y1220000D02*
D03*
Y1140000D02*
D03*
Y1060000D02*
D03*
Y980000D02*
D03*
D14*
X2174000Y232000D02*
D03*
X2200000Y486000D02*
D03*
X2174000Y740000D02*
D03*
X2200000Y994000D02*
D03*
X2174000Y1248000D02*
D03*
X2200000Y1502000D02*
D03*
X2174000Y1756000D02*
D03*
X2200000Y2010000D02*
D03*
X2174000Y2264000D02*
D03*
X2200000Y2518000D02*
D03*
X2174000Y2772000D02*
D03*
X2200000Y3026000D02*
D03*
X2174000Y3280000D02*
D03*
X1880000Y232000D02*
D03*
X1906000Y486000D02*
D03*
X1880000Y740000D02*
D03*
X1906000Y994000D02*
D03*
X1880000Y1248000D02*
D03*
X1906000Y1502000D02*
D03*
X1880000Y1756000D02*
D03*
X1906000Y2010000D02*
D03*
X1880000Y2264000D02*
D03*
X1906000Y2518000D02*
D03*
X1880000Y2772000D02*
D03*
X1906000Y3026000D02*
D03*
D15*
X1880000Y3280000D02*
D03*
D16*
X982999Y830000D02*
D03*
X1132999Y2650000D02*
D03*
D18*
X1185999Y2500000D02*
D03*
X779999D02*
D03*
X1185999Y2420000D02*
D03*
Y2340000D02*
D03*
Y2260000D02*
D03*
Y2180000D02*
D03*
Y2100000D02*
D03*
Y2020000D02*
D03*
Y1940000D02*
D03*
Y1860000D02*
D03*
Y1780000D02*
D03*
Y1700000D02*
D03*
Y1620000D02*
D03*
Y1540000D02*
D03*
Y1460000D02*
D03*
Y1380000D02*
D03*
Y1300000D02*
D03*
Y1220000D02*
D03*
Y1140000D02*
D03*
Y1060000D02*
D03*
Y980000D02*
D03*
X779999Y2420000D02*
D03*
Y2340000D02*
D03*
Y2260000D02*
D03*
Y2180000D02*
D03*
Y2100000D02*
D03*
Y2020000D02*
D03*
Y1940000D02*
D03*
Y1860000D02*
D03*
Y1780000D02*
D03*
Y1700000D02*
D03*
Y1620000D02*
D03*
Y1540000D02*
D03*
Y1460000D02*
D03*
Y1380000D02*
D03*
Y1300000D02*
D03*
Y1220000D02*
D03*
Y1140000D02*
D03*
Y1060000D02*
D03*
Y980000D02*
D03*
%TF.MD5,974ad1dd8b353d6c2fd880917951d6dd*%
M02*
