%TF.GenerationSoftware,Altium Limited,Altium Designer,25.5.2 (35)*%
G04 Layer_Color=2752767*
%FSLAX45Y45*%
%MOMM*%
%TF.SameCoordinates,F9D1B48F-3E51-4A7C-A873-13CCE31A6061*%
%TF.FilePolarity,Positive*%
%TF.FileFunction,Drawing*%
%TF.Part,Single*%
G01*
G75*
%TA.AperFunction,NonConductor*%
%ADD33C,0.16933*%
%ADD35C,0.12700*%
D33*
X2204800Y232000D02*
G03*
X2204800Y232000I-50800J0D01*
G01*
X2230800Y486000D02*
G03*
X2230800Y486000I-50800J0D01*
G01*
X2204800Y740000D02*
G03*
X2204800Y740000I-50800J0D01*
G01*
X2230800Y994000D02*
G03*
X2230800Y994000I-50800J0D01*
G01*
X2204800Y1248000D02*
G03*
X2204800Y1248000I-50800J0D01*
G01*
X2230800Y1502000D02*
G03*
X2230800Y1502000I-50800J0D01*
G01*
X2204800Y1756000D02*
G03*
X2204800Y1756000I-50800J0D01*
G01*
X2230800Y2010000D02*
G03*
X2230800Y2010000I-50800J0D01*
G01*
X2204800Y2264000D02*
G03*
X2204800Y2264000I-50800J0D01*
G01*
X2230800Y2518000D02*
G03*
X2230800Y2518000I-50800J0D01*
G01*
X2204800Y2772000D02*
G03*
X2204800Y2772000I-50800J0D01*
G01*
X2230800Y3026000D02*
G03*
X2230800Y3026000I-50800J0D01*
G01*
X2204800Y3280000D02*
G03*
X2204800Y3280000I-50800J0D01*
G01*
X1950800Y232000D02*
G03*
X1950800Y232000I-50800J0D01*
G01*
X1976800Y486000D02*
G03*
X1976800Y486000I-50800J0D01*
G01*
X1950800Y740000D02*
G03*
X1950800Y740000I-50800J0D01*
G01*
X1976800Y994000D02*
G03*
X1976800Y994000I-50800J0D01*
G01*
X1950800Y1248000D02*
G03*
X1950800Y1248000I-50800J0D01*
G01*
X1976800Y1502000D02*
G03*
X1976800Y1502000I-50800J0D01*
G01*
X1950800Y1756000D02*
G03*
X1950800Y1756000I-50800J0D01*
G01*
X1976800Y2010000D02*
G03*
X1976800Y2010000I-50800J0D01*
G01*
X1950800Y2264000D02*
G03*
X1950800Y2264000I-50800J0D01*
G01*
X1976800Y2518000D02*
G03*
X1976800Y2518000I-50800J0D01*
G01*
X1950800Y2772000D02*
G03*
X1950800Y2772000I-50800J0D01*
G01*
X1976800Y3026000D02*
G03*
X1976800Y3026000I-50800J0D01*
G01*
X1950800Y3280000D02*
G03*
X1950800Y3280000I-50800J0D01*
G01*
D35*
X982999Y779200D02*
X932199Y880800D01*
X1033799D01*
X982999Y779200D01*
X1132999Y2599200D02*
X1082199Y2700800D01*
X1183799D01*
X1132999Y2599200D01*
X1481919Y900454D02*
X1507319Y925854D01*
X1532719D01*
X1507319Y951254D01*
X1532719Y976654D01*
X1507319D01*
X1481919Y1002054D01*
X1456519Y976654D01*
X1431119D01*
X1456519Y951254D01*
X1431119Y925854D01*
X1456519D01*
X1481919Y900454D01*
X1403035Y899548D02*
X1428435Y924948D01*
X1453835D01*
X1428435Y950348D01*
X1453835Y975748D01*
X1428435D01*
X1403035Y1001148D01*
X1377635Y975748D01*
X1352235D01*
X1377635Y950348D01*
X1352235Y924948D01*
X1377635D01*
X1403035Y899548D01*
X1371363Y1494376D02*
X1396763Y1519776D01*
X1422163D01*
X1396763Y1545176D01*
X1422163Y1570576D01*
X1396763D01*
X1371363Y1595976D01*
X1345963Y1570576D01*
X1320563D01*
X1345963Y1545176D01*
X1320563Y1519776D01*
X1345963D01*
X1371363Y1494376D01*
X1383684Y1569370D02*
X1409084Y1594770D01*
X1434484D01*
X1409084Y1620170D01*
X1434484Y1645570D01*
X1409084D01*
X1383684Y1670970D01*
X1358284Y1645570D01*
X1332884D01*
X1358284Y1620170D01*
X1332884Y1594770D01*
X1358284D01*
X1383684Y1569370D01*
X1730000Y489200D02*
X1755400Y514600D01*
X1780800D01*
X1755400Y540000D01*
X1780800Y565400D01*
X1755400D01*
X1730000Y590800D01*
X1704600Y565400D01*
X1679200D01*
X1704600Y540000D01*
X1679200Y514600D01*
X1704600D01*
X1730000Y489200D01*
X1720000Y629200D02*
X1745400Y654600D01*
X1770800D01*
X1745400Y680000D01*
X1770800Y705400D01*
X1745400D01*
X1720000Y730800D01*
X1694600Y705400D01*
X1669200D01*
X1694600Y680000D01*
X1669200Y654600D01*
X1694600D01*
X1720000Y629200D01*
X921400Y1973450D02*
X946800Y1998850D01*
X972200D01*
X946800Y2024250D01*
X972200Y2049650D01*
X946800D01*
X921400Y2075050D01*
X896000Y2049650D01*
X870600D01*
X896000Y2024250D01*
X870600Y1998850D01*
X896000D01*
X921400Y1973450D01*
X909404Y2048497D02*
X934804Y2073897D01*
X960204D01*
X934804Y2099297D01*
X960204Y2124697D01*
X934804D01*
X909404Y2150097D01*
X884004Y2124697D01*
X858604D01*
X884004Y2099297D01*
X858604Y2073897D01*
X884004D01*
X909404Y2048497D01*
X1029999Y2207360D02*
X1055399Y2232760D01*
X1080799D01*
X1055399Y2258160D01*
X1080799Y2283560D01*
X1055399D01*
X1029999Y2308960D01*
X1004599Y2283560D01*
X979199D01*
X1004599Y2258160D01*
X979199Y2232760D01*
X1004599D01*
X1029999Y2207360D01*
X921929Y1725950D02*
X947329Y1751350D01*
X972729D01*
X947329Y1776750D01*
X972729Y1802150D01*
X947329D01*
X921929Y1827550D01*
X896529Y1802150D01*
X871129D01*
X896529Y1776750D01*
X871129Y1751350D01*
X896529D01*
X921929Y1725950D01*
X921310Y1313827D02*
X946710Y1339227D01*
X972110D01*
X946710Y1364627D01*
X972110Y1390027D01*
X946710D01*
X921310Y1415427D01*
X895910Y1390027D01*
X870510D01*
X895910Y1364627D01*
X870510Y1339227D01*
X895910D01*
X921310Y1313827D01*
X1426559Y2123434D02*
X1451959Y2148834D01*
X1477359D01*
X1451959Y2174234D01*
X1477359Y2199634D01*
X1451959D01*
X1426559Y2225034D01*
X1401159Y2199634D01*
X1375759D01*
X1401159Y2174234D01*
X1375759Y2148834D01*
X1401159D01*
X1426559Y2123434D01*
X1350000Y2129200D02*
X1375400Y2154600D01*
X1400800D01*
X1375400Y2180000D01*
X1400800Y2205400D01*
X1375400D01*
X1350000Y2230800D01*
X1324600Y2205400D01*
X1299200D01*
X1324600Y2180000D01*
X1299200Y2154600D01*
X1324600D01*
X1350000Y2129200D01*
X1476910Y2338039D02*
X1502310Y2363439D01*
X1527710D01*
X1502310Y2388839D01*
X1527710Y2414239D01*
X1502310D01*
X1476910Y2439639D01*
X1451510Y2414239D01*
X1426110D01*
X1451510Y2388839D01*
X1426110Y2363439D01*
X1451510D01*
X1476910Y2338039D01*
X1435111Y2401512D02*
X1460511Y2426912D01*
X1485911D01*
X1460511Y2452312D01*
X1485911Y2477712D01*
X1460511D01*
X1435111Y2503112D01*
X1409711Y2477712D01*
X1384311D01*
X1409711Y2452312D01*
X1384311Y2426912D01*
X1409711D01*
X1435111Y2401512D01*
X1338961Y1371353D02*
X1364361Y1396753D01*
X1389761D01*
X1364361Y1422153D01*
X1389761Y1447553D01*
X1364361D01*
X1338961Y1472953D01*
X1313561Y1447553D01*
X1288161D01*
X1313561Y1422153D01*
X1288161Y1396753D01*
X1313561D01*
X1338961Y1371353D01*
X1339597Y1295356D02*
X1364997Y1320756D01*
X1390397D01*
X1364997Y1346156D01*
X1390397Y1371556D01*
X1364997D01*
X1339597Y1396956D01*
X1314197Y1371556D01*
X1288797D01*
X1314197Y1346156D01*
X1288797Y1320756D01*
X1314197D01*
X1339597Y1295356D01*
X1547174Y596994D02*
X1572574Y622394D01*
X1597974D01*
X1572574Y647794D01*
X1597974Y673194D01*
X1572574D01*
X1547174Y698594D01*
X1521774Y673194D01*
X1496374D01*
X1521774Y647794D01*
X1496374Y622394D01*
X1521774D01*
X1547174Y596994D01*
X984519Y1100818D02*
X1009919Y1126218D01*
X1035319D01*
X1009919Y1151618D01*
X1035319Y1177018D01*
X1009919D01*
X984519Y1202418D01*
X959119Y1177018D01*
X933719D01*
X959119Y1151618D01*
X933719Y1126218D01*
X959119D01*
X984519Y1100818D01*
X1022572Y1588914D02*
X1047972Y1614314D01*
X1073372D01*
X1047972Y1639714D01*
X1073372Y1665114D01*
X1047972D01*
X1022572Y1690514D01*
X997172Y1665114D01*
X971772D01*
X997172Y1639714D01*
X971772Y1614314D01*
X997172D01*
X1022572Y1588914D01*
X984518Y1785582D02*
X1009918Y1810982D01*
X1035318D01*
X1009918Y1836382D01*
X1035318Y1861782D01*
X1009918D01*
X984518Y1887182D01*
X959118Y1861782D01*
X933718D01*
X959118Y1836382D01*
X933718Y1810982D01*
X959118D01*
X984518Y1785582D01*
X937405Y2251794D02*
X962805Y2277194D01*
X988205D01*
X962805Y2302594D01*
X988205Y2327994D01*
X962805D01*
X937405Y2353394D01*
X912005Y2327994D01*
X886605D01*
X912005Y2302594D01*
X886605Y2277194D01*
X912005D01*
X937405Y2251794D01*
X1177647Y737913D02*
X1203047Y763313D01*
X1228447D01*
X1203047Y788713D01*
X1228447Y814113D01*
X1203047D01*
X1177647Y839513D01*
X1152247Y814113D01*
X1126847D01*
X1152247Y788713D01*
X1126847Y763313D01*
X1152247D01*
X1177647Y737913D01*
X487102Y929853D02*
X512502Y955253D01*
X537902D01*
X512502Y980653D01*
X537902Y1006053D01*
X512502D01*
X487102Y1031453D01*
X461702Y1006053D01*
X436302D01*
X461702Y980653D01*
X436302Y955253D01*
X461702D01*
X487102Y929853D01*
X1710000Y1769200D02*
X1735400Y1794600D01*
X1760800D01*
X1735400Y1820000D01*
X1760800Y1845400D01*
X1735400D01*
X1710000Y1870800D01*
X1684600Y1845400D01*
X1659200D01*
X1684600Y1820000D01*
X1659200Y1794600D01*
X1684600D01*
X1710000Y1769200D01*
X1337420Y806281D02*
X1362820Y831681D01*
X1388220D01*
X1362820Y857081D01*
X1388220Y882481D01*
X1362820D01*
X1337420Y907881D01*
X1312020Y882481D01*
X1286620D01*
X1312020Y857081D01*
X1286620Y831681D01*
X1312020D01*
X1337420Y806281D01*
X1490000Y1359200D02*
X1515400Y1384600D01*
X1540800D01*
X1515400Y1410000D01*
X1540800Y1435400D01*
X1515400D01*
X1490000Y1460800D01*
X1464600Y1435400D01*
X1439200D01*
X1464600Y1410000D01*
X1439200Y1384600D01*
X1464600D01*
X1490000Y1359200D01*
X1644425Y2192883D02*
X1669825Y2218283D01*
X1695225D01*
X1669825Y2243683D01*
X1695225Y2269083D01*
X1669825D01*
X1644425Y2294483D01*
X1619025Y2269083D01*
X1593625D01*
X1619025Y2243683D01*
X1593625Y2218283D01*
X1619025D01*
X1644425Y2192883D01*
X1720000Y3089200D02*
X1745400Y3114600D01*
X1770800D01*
X1745400Y3140000D01*
X1770800Y3165400D01*
X1745400D01*
X1720000Y3190800D01*
X1694600Y3165400D01*
X1669200D01*
X1694600Y3140000D01*
X1669200Y3114600D01*
X1694600D01*
X1720000Y3089200D01*
X710000Y2569200D02*
X735400Y2594600D01*
X760800D01*
X735400Y2620000D01*
X760800Y2645400D01*
X735400D01*
X710000Y2670800D01*
X684600Y2645400D01*
X659200D01*
X684600Y2620000D01*
X659200Y2594600D01*
X684600D01*
X710000Y2569200D01*
Y3299200D02*
X735400Y3324600D01*
X760800D01*
X735400Y3350000D01*
X760800Y3375400D01*
X735400D01*
X710000Y3400800D01*
X684600Y3375400D01*
X659200D01*
X684600Y3350000D01*
X659200Y3324600D01*
X684600D01*
X710000Y3299200D01*
X2570000D02*
X2595400Y3324600D01*
X2620800D01*
X2595400Y3350000D01*
X2620800Y3375400D01*
X2595400D01*
X2570000Y3400800D01*
X2544600Y3375400D01*
X2519200D01*
X2544600Y3350000D01*
X2519200Y3324600D01*
X2544600D01*
X2570000Y3299200D01*
X2580000Y149200D02*
X2605400Y174600D01*
X2630800D01*
X2605400Y200000D01*
X2630800Y225400D01*
X2605400D01*
X2580000Y250800D01*
X2554600Y225400D01*
X2529200D01*
X2554600Y200000D01*
X2529200Y174600D01*
X2554600D01*
X2580000Y149200D01*
X720000D02*
X745400Y174600D01*
X770800D01*
X745400Y200000D01*
X770800Y225400D01*
X745400D01*
X720000Y250800D01*
X694600Y225400D01*
X669200D01*
X694600Y200000D01*
X669200Y174600D01*
X694600D01*
X720000Y149200D01*
X1670000Y159200D02*
X1695400Y184600D01*
X1720800D01*
X1695400Y210000D01*
X1720800Y235400D01*
X1695400D01*
X1670000Y260800D01*
X1644600Y235400D01*
X1619200D01*
X1644600Y210000D01*
X1619200Y184600D01*
X1644600D01*
X1670000Y159200D01*
X520000Y1009200D02*
X545400Y1034600D01*
X570800D01*
X545400Y1060000D01*
X570800Y1085400D01*
X545400D01*
X520000Y1110800D01*
X494600Y1085400D01*
X469200D01*
X494600Y1060000D01*
X469200Y1034600D01*
X494600D01*
X520000Y1009200D01*
Y1249200D02*
X545400Y1274600D01*
X570800D01*
X545400Y1300000D01*
X570800Y1325400D01*
X545400D01*
X520000Y1350800D01*
X494600Y1325400D01*
X469200D01*
X494600Y1300000D01*
X469200Y1274600D01*
X494600D01*
X520000Y1249200D01*
Y1489200D02*
X545400Y1514600D01*
X570800D01*
X545400Y1540000D01*
X570800Y1565400D01*
X545400D01*
X520000Y1590800D01*
X494600Y1565400D01*
X469200D01*
X494600Y1540000D01*
X469200Y1514600D01*
X494600D01*
X520000Y1489200D01*
Y1889200D02*
X545400Y1914600D01*
X570800D01*
X545400Y1940000D01*
X570800Y1965400D01*
X545400D01*
X520000Y1990800D01*
X494600Y1965400D01*
X469200D01*
X494600Y1940000D01*
X469200Y1914600D01*
X494600D01*
X520000Y1889200D01*
X527884Y2130425D02*
X553284Y2155825D01*
X578684D01*
X553284Y2181225D01*
X578684Y2206625D01*
X553284D01*
X527884Y2232025D01*
X502484Y2206625D01*
X477084D01*
X502484Y2181225D01*
X477084Y2155825D01*
X502484D01*
X527884Y2130425D01*
X620000Y2369200D02*
X645400Y2394600D01*
X670800D01*
X645400Y2420000D01*
X670800Y2445400D01*
X645400D01*
X620000Y2470800D01*
X594600Y2445400D01*
X569200D01*
X594600Y2420000D01*
X569200Y2394600D01*
X594600D01*
X620000Y2369200D01*
X1358478Y1875864D02*
X1383878Y1901264D01*
X1409278D01*
X1383878Y1926664D01*
X1409278Y1952064D01*
X1383878D01*
X1358478Y1977464D01*
X1333078Y1952064D01*
X1307678D01*
X1333078Y1926664D01*
X1307678Y1901264D01*
X1333078D01*
X1358478Y1875864D01*
X1430000Y1819200D02*
X1455400Y1844600D01*
X1480800D01*
X1455400Y1870000D01*
X1480800Y1895400D01*
X1455400D01*
X1430000Y1920800D01*
X1404600Y1895400D01*
X1379200D01*
X1404600Y1870000D01*
X1379200Y1844600D01*
X1404600D01*
X1430000Y1819200D01*
X920000Y1649200D02*
X945400Y1674600D01*
X970800D01*
X945400Y1700000D01*
X970800Y1725400D01*
X945400D01*
X920000Y1750800D01*
X894600Y1725400D01*
X869200D01*
X894600Y1700000D01*
X869200Y1674600D01*
X894600D01*
X920000Y1649200D01*
Y1169200D02*
X945400Y1194600D01*
X970800D01*
X945400Y1220000D01*
X970800Y1245400D01*
X945400D01*
X920000Y1270800D01*
X894600Y1245400D01*
X869200D01*
X894600Y1220000D01*
X869200Y1194600D01*
X894600D01*
X920000Y1169200D01*
X970000Y2449200D02*
X995400Y2474600D01*
X1020800D01*
X995400Y2500000D01*
X1020800Y2525400D01*
X995400D01*
X970000Y2550800D01*
X944600Y2525400D01*
X919200D01*
X944600Y2500000D01*
X919200Y2474600D01*
X944600D01*
X970000Y2449200D01*
%TF.MD5,992c70afe5fa23346c601087a5e6cbd1*%
M02*
