%TF.GenerationSoftware,Altium Limited,Altium Designer,25.5.2 (35)*%
G04 Layer_Color=32896*
%FSLAX45Y45*%
%MOMM*%
%TF.SameCoordinates,F9D1B48F-3E51-4A7C-A873-13CCE31A6061*%
%TF.FilePolarity,Positive*%
%TF.FileFunction,Legend,Bot*%
%TF.Part,Single*%
G01*
G75*
%TA.AperFunction,NonConductor*%
%ADD20C,0.20000*%
%ADD21C,0.15000*%
G36*
X1305958Y2501350D02*
X1383105Y2437059D01*
Y2565639D01*
X1305958Y2501350D01*
D02*
G37*
G36*
X1760000Y3280000D02*
X1720000Y3312158D01*
Y3247843D01*
X1760000Y3280000D01*
D02*
G37*
D20*
X2280000Y3380000D02*
Y3430000D01*
X1735000Y3432000D02*
X2320000D01*
X1775000Y3380000D02*
Y3430000D01*
X1735000Y2137000D02*
X2320000D01*
X2280000Y2115000D02*
Y2160000D01*
X1775000Y2115000D02*
Y2160000D01*
X1744000Y2137000D02*
X2309000D01*
X1775000Y2115000D02*
Y2160000D01*
X2280000Y2115000D02*
Y2160000D01*
X1735000Y867000D02*
X2320000D01*
X2280000Y845000D02*
Y890000D01*
X1775000Y845000D02*
Y890000D01*
X1744000Y867000D02*
X2309000D01*
X1775000Y845000D02*
Y890000D01*
X2280000Y845000D02*
Y890000D01*
X1735000Y105000D02*
X2320000D01*
X2280000Y83000D02*
Y128000D01*
X1775000Y83000D02*
Y128000D01*
X1744000Y105000D02*
X2309000D01*
X1775000Y83000D02*
Y128000D01*
X2280000Y83000D02*
Y128000D01*
X645999Y2760000D02*
X1320999D01*
X645999Y2560000D02*
Y2760000D01*
X1320999Y2560000D02*
Y2760000D01*
X645999Y720000D02*
X1320999D01*
Y920000D01*
X645999Y720000D02*
Y920000D01*
D21*
X1375026Y2365000D02*
Y2311684D01*
Y2338342D01*
X1455000D01*
Y2285026D02*
X1401684D01*
X1375026Y2258368D01*
X1401684Y2231710D01*
X1455000D01*
X1415013D01*
Y2285026D01*
X1455000Y2205052D02*
X1375026D01*
Y2165065D01*
X1388355Y2151736D01*
X1415013D01*
X1428342Y2165065D01*
Y2205052D01*
Y2178394D02*
X1455000Y2151736D01*
X1388355Y2071762D02*
X1375026Y2085091D01*
Y2111749D01*
X1388355Y2125078D01*
X1441671D01*
X1455000Y2111749D01*
Y2085091D01*
X1441671Y2071762D01*
X1415013D01*
Y2098420D01*
X1375026Y1991787D02*
Y2045104D01*
X1455000D01*
Y1991787D01*
X1415013Y2045104D02*
Y2018446D01*
X1375026Y1965129D02*
Y1911813D01*
Y1938471D01*
X1455000D01*
X1375026Y1751865D02*
Y1805181D01*
X1415013D01*
Y1778523D01*
Y1805181D01*
X1455000D01*
Y1725207D02*
X1375026D01*
Y1685220D01*
X1388355Y1671891D01*
X1415013D01*
X1428342Y1685220D01*
Y1725207D01*
Y1698549D02*
X1455000Y1671891D01*
X1375026Y1605245D02*
Y1631904D01*
X1388355Y1645233D01*
X1441671D01*
X1455000Y1631904D01*
Y1605245D01*
X1441671Y1591917D01*
X1388355D01*
X1375026Y1605245D01*
X1455000Y1565258D02*
X1375026D01*
X1455000Y1511942D01*
X1375026D01*
Y1485284D02*
Y1431968D01*
Y1458626D01*
X1455000D01*
X1621684Y1274658D02*
X1635013Y1287987D01*
X1661671D01*
X1675000Y1274658D01*
Y1221342D01*
X1661671Y1208013D01*
X1635013D01*
X1621684Y1221342D01*
Y1248000D01*
X1648342D01*
X1595026Y1208013D02*
Y1287987D01*
X1555039D01*
X1541710Y1274658D01*
Y1248000D01*
X1555039Y1234671D01*
X1595026D01*
X1515052Y1208013D02*
X1488394D01*
X1501723D01*
Y1287987D01*
X1515052Y1274658D01*
X1408419Y1208013D02*
Y1287987D01*
X1448407Y1248000D01*
X1395090D01*
X1675000Y700013D02*
Y779987D01*
X1635013D01*
X1621684Y766658D01*
Y740000D01*
X1635013Y726671D01*
X1675000D01*
X1541710Y766658D02*
X1555039Y779987D01*
X1581697D01*
X1595026Y766658D01*
Y713342D01*
X1581697Y700013D01*
X1555039D01*
X1541710Y713342D01*
Y740000D01*
X1568368D01*
X1515052Y779987D02*
Y700013D01*
X1461736D01*
X1621684Y512658D02*
X1635013Y525987D01*
X1661671D01*
X1675000Y512658D01*
Y499329D01*
X1661671Y486000D01*
X1635013D01*
X1621684Y472671D01*
Y459342D01*
X1635013Y446013D01*
X1661671D01*
X1675000Y459342D01*
X1595026Y525987D02*
Y446013D01*
X1568368Y472671D01*
X1541710Y446013D01*
Y525987D01*
X1515052D02*
Y446013D01*
X1475065D01*
X1461736Y459342D01*
Y512658D01*
X1475065Y525987D01*
X1515052D01*
X1621684Y258658D02*
X1635013Y271987D01*
X1661671D01*
X1675000Y258658D01*
Y245329D01*
X1661671Y232000D01*
X1635013D01*
X1621684Y218671D01*
Y205342D01*
X1635013Y192013D01*
X1661671D01*
X1675000Y205342D01*
X1595026Y271987D02*
Y192013D01*
X1555039D01*
X1541710Y205342D01*
Y218671D01*
X1555039Y232000D01*
X1595026D01*
X1555039D01*
X1541710Y245329D01*
Y258658D01*
X1555039Y271987D01*
X1595026D01*
X1515052D02*
Y192013D01*
X1488394Y218671D01*
X1461736Y192013D01*
Y271987D01*
X1675000Y1020658D02*
X1661671Y1033987D01*
X1635013D01*
X1621684Y1020658D01*
Y1007329D01*
X1635013Y994000D01*
X1648342D01*
X1635013D01*
X1621684Y980671D01*
Y967342D01*
X1635013Y954013D01*
X1661671D01*
X1675000Y967342D01*
X1595026Y1033987D02*
Y980671D01*
X1568368Y954013D01*
X1541710Y980671D01*
Y1033987D01*
X1515052Y1020658D02*
X1501723Y1033987D01*
X1475065D01*
X1461736Y1020658D01*
Y1007329D01*
X1475065Y994000D01*
X1488394D01*
X1475065D01*
X1461736Y980671D01*
Y967342D01*
X1475065Y954013D01*
X1501723D01*
X1515052Y967342D01*
X1675000Y3319987D02*
Y3266671D01*
X1648342Y3240013D01*
X1621684Y3266671D01*
Y3319987D01*
X1595026D02*
X1541710D01*
X1568368D01*
Y3240013D01*
X1621684Y3052658D02*
X1635013Y3065987D01*
X1661671D01*
X1675000Y3052658D01*
Y2999342D01*
X1661671Y2986013D01*
X1635013D01*
X1621684Y2999342D01*
Y3026000D01*
X1648342D01*
X1595026Y2986013D02*
Y3065987D01*
X1555039D01*
X1541710Y3052658D01*
Y3026000D01*
X1555039Y3012671D01*
X1595026D01*
X1515052Y3052658D02*
X1501723Y3065987D01*
X1475065D01*
X1461736Y3052658D01*
Y2999342D01*
X1475065Y2986013D01*
X1501723D01*
X1515052Y2999342D01*
Y3052658D01*
X1621684Y2798658D02*
X1635013Y2811987D01*
X1661671D01*
X1675000Y2798658D01*
Y2745342D01*
X1661671Y2732013D01*
X1635013D01*
X1621684Y2745342D01*
Y2772000D01*
X1648342D01*
X1595026Y2732013D02*
Y2811987D01*
X1555039D01*
X1541710Y2798658D01*
Y2772000D01*
X1555039Y2758671D01*
X1595026D01*
X1461736Y2732013D02*
X1515052D01*
X1461736Y2785329D01*
Y2798658D01*
X1475065Y2811987D01*
X1501723D01*
X1515052Y2798658D01*
X1621684Y2544658D02*
X1635013Y2557987D01*
X1661671D01*
X1675000Y2544658D01*
Y2491342D01*
X1661671Y2478013D01*
X1635013D01*
X1621684Y2491342D01*
Y2518000D01*
X1648342D01*
X1595026Y2478013D02*
Y2557987D01*
X1555039D01*
X1541710Y2544658D01*
Y2518000D01*
X1555039Y2504671D01*
X1595026D01*
X1475065Y2478013D02*
Y2557987D01*
X1515052Y2518000D01*
X1461736D01*
X2514948Y1020658D02*
X2528277Y1033987D01*
X2554935D01*
X2568264Y1020658D01*
Y967342D01*
X2554935Y954013D01*
X2528277D01*
X2514948Y967342D01*
Y994000D01*
X2541606D01*
X2488290Y954013D02*
Y1033987D01*
X2434974Y954013D01*
Y1033987D01*
X2408316D02*
Y954013D01*
X2368329D01*
X2355000Y967342D01*
Y1020658D01*
X2368329Y1033987D01*
X2408316D01*
X2514948Y3306658D02*
X2528277Y3319987D01*
X2554935D01*
X2568264Y3306658D01*
Y3253342D01*
X2554935Y3240013D01*
X2528277D01*
X2514948Y3253342D01*
Y3280000D01*
X2541606D01*
X2488290Y3240013D02*
Y3319987D01*
X2434974Y3240013D01*
Y3319987D01*
X2408316D02*
Y3240013D01*
X2368329D01*
X2355000Y3253342D01*
Y3306658D01*
X2368329Y3319987D01*
X2408316D01*
X2488290Y3052658D02*
X2501619Y3065987D01*
X2528277D01*
X2541606Y3052658D01*
Y2999342D01*
X2528277Y2986013D01*
X2501619D01*
X2488290Y2999342D01*
Y3026000D01*
X2514948D01*
X2461632Y2986013D02*
Y3065987D01*
X2421645D01*
X2408316Y3052658D01*
Y3026000D01*
X2421645Y3012671D01*
X2461632D01*
X2381658Y2986013D02*
X2355000D01*
X2368329D01*
Y3065987D01*
X2381658Y3052658D01*
X2514948Y2798658D02*
X2528277Y2811987D01*
X2554935D01*
X2568264Y2798658D01*
Y2745342D01*
X2554935Y2732013D01*
X2528277D01*
X2514948Y2745342D01*
Y2772000D01*
X2541606D01*
X2488290Y2732013D02*
Y2811987D01*
X2448303D01*
X2434974Y2798658D01*
Y2772000D01*
X2448303Y2758671D01*
X2488290D01*
X2408316Y2798658D02*
X2394987Y2811987D01*
X2368329D01*
X2355000Y2798658D01*
Y2785329D01*
X2368329Y2772000D01*
X2381658D01*
X2368329D01*
X2355000Y2758671D01*
Y2745342D01*
X2368329Y2732013D01*
X2394987D01*
X2408316Y2745342D01*
X2514948Y2544658D02*
X2528277Y2557987D01*
X2554935D01*
X2568264Y2544658D01*
Y2491342D01*
X2554935Y2478013D01*
X2528277D01*
X2514948Y2491342D01*
Y2518000D01*
X2541606D01*
X2488290Y2478013D02*
Y2557987D01*
X2448303D01*
X2434974Y2544658D01*
Y2518000D01*
X2448303Y2504671D01*
X2488290D01*
X2355000Y2557987D02*
X2408316D01*
Y2518000D01*
X2381658Y2531329D01*
X2368329D01*
X2355000Y2518000D01*
Y2491342D01*
X2368329Y2478013D01*
X2394987D01*
X2408316Y2491342D01*
X2514948Y2290658D02*
X2528277Y2303987D01*
X2554935D01*
X2568264Y2290658D01*
Y2237342D01*
X2554935Y2224013D01*
X2528277D01*
X2514948Y2237342D01*
Y2264000D01*
X2541606D01*
X2488290Y2224013D02*
Y2303987D01*
X2448303D01*
X2434974Y2290658D01*
Y2264000D01*
X2448303Y2250671D01*
X2488290D01*
X2408316Y2303987D02*
X2355000D01*
Y2290658D01*
X2408316Y2237342D01*
Y2224013D01*
X2514948Y2036658D02*
X2528277Y2049987D01*
X2554935D01*
X2568264Y2036658D01*
Y1983342D01*
X2554935Y1970013D01*
X2528277D01*
X2514948Y1983342D01*
Y2010000D01*
X2541606D01*
X2488290Y1970013D02*
Y2049987D01*
X2448303D01*
X2434974Y2036658D01*
Y2010000D01*
X2448303Y1996671D01*
X2488290D01*
X2408316Y1983342D02*
X2394987Y1970013D01*
X2368329D01*
X2355000Y1983342D01*
Y2036658D01*
X2368329Y2049987D01*
X2394987D01*
X2408316Y2036658D01*
Y2023329D01*
X2394987Y2010000D01*
X2355000D01*
X2554935Y1782658D02*
X2568264Y1795987D01*
X2594922D01*
X2608251Y1782658D01*
Y1729342D01*
X2594922Y1716013D01*
X2568264D01*
X2554935Y1729342D01*
Y1756000D01*
X2581593D01*
X2528277Y1716013D02*
Y1795987D01*
X2488290D01*
X2474961Y1782658D01*
Y1756000D01*
X2488290Y1742671D01*
X2528277D01*
X2448303Y1716013D02*
X2421645D01*
X2434974D01*
Y1795987D01*
X2448303Y1782658D01*
X2381658Y1716013D02*
X2355000D01*
X2368329D01*
Y1795987D01*
X2381658Y1782658D01*
X2581593Y1528658D02*
X2594922Y1541987D01*
X2621580D01*
X2634909Y1528658D01*
Y1475342D01*
X2621580Y1462013D01*
X2594922D01*
X2581593Y1475342D01*
Y1502000D01*
X2608251D01*
X2554935Y1462013D02*
Y1541987D01*
X2514948D01*
X2501619Y1528658D01*
Y1502000D01*
X2514948Y1488671D01*
X2554935D01*
X2474961Y1462013D02*
X2448303D01*
X2461632D01*
Y1541987D01*
X2474961Y1528658D01*
X2408316D02*
X2394987Y1541987D01*
X2368329D01*
X2355000Y1528658D01*
Y1515329D01*
X2368329Y1502000D01*
X2381658D01*
X2368329D01*
X2355000Y1488671D01*
Y1475342D01*
X2368329Y1462013D01*
X2394987D01*
X2408316Y1475342D01*
X2581593Y1274658D02*
X2594922Y1287987D01*
X2621580D01*
X2634909Y1274658D01*
Y1221342D01*
X2621580Y1208013D01*
X2594922D01*
X2581593Y1221342D01*
Y1248000D01*
X2608251D01*
X2554935Y1208013D02*
Y1287987D01*
X2514948D01*
X2501619Y1274658D01*
Y1248000D01*
X2514948Y1234671D01*
X2554935D01*
X2474961Y1208013D02*
X2448303D01*
X2461632D01*
Y1287987D01*
X2474961Y1274658D01*
X2355000Y1287987D02*
X2408316D01*
Y1248000D01*
X2381658Y1261329D01*
X2368329D01*
X2355000Y1248000D01*
Y1221342D01*
X2368329Y1208013D01*
X2394987D01*
X2408316Y1221342D01*
X2568264Y700013D02*
Y779987D01*
X2528277D01*
X2514948Y766658D01*
Y740000D01*
X2528277Y726671D01*
X2568264D01*
X2434974Y766658D02*
X2448303Y779987D01*
X2474961D01*
X2488290Y766658D01*
Y713342D01*
X2474961Y700013D01*
X2448303D01*
X2434974Y713342D01*
Y740000D01*
X2461632D01*
X2408316Y779987D02*
Y700013D01*
Y740000D01*
X2355000D01*
Y779987D01*
Y700013D01*
X2554935Y525987D02*
X2528277D01*
X2541606D01*
Y446013D01*
X2554935D01*
X2528277D01*
X2448303Y525987D02*
X2474961D01*
X2488290Y512658D01*
Y459342D01*
X2474961Y446013D01*
X2448303D01*
X2434974Y459342D01*
Y512658D01*
X2448303Y525987D01*
X2408316Y486000D02*
X2355000D01*
X2554935Y271987D02*
X2528277D01*
X2541606D01*
Y192013D01*
X2554935D01*
X2528277D01*
X2448303Y271987D02*
X2474961D01*
X2488290Y258658D01*
Y205342D01*
X2474961Y192013D01*
X2448303D01*
X2434974Y205342D01*
Y258658D01*
X2448303Y271987D01*
X2408316Y232000D02*
X2355000D01*
X484999Y2528316D02*
Y2475000D01*
X538315Y2528316D01*
X551645D01*
X564973Y2514987D01*
Y2488329D01*
X551645Y2475000D01*
X484999Y984988D02*
X564973D01*
X524986Y945001D01*
Y998317D01*
X551644Y1024975D02*
X564973Y1038304D01*
Y1064962D01*
X551644Y1078291D01*
X498328D01*
X484999Y1064962D01*
Y1038304D01*
X498328Y1024975D01*
X551644D01*
%TF.MD5,ac643dee223d8cdece090d5cece61168*%
M02*
