%TF.GenerationSoftware,Altium Limited,Altium Designer,25.5.2 (35)*%
G04 Layer_Color=32768*
%FSLAX45Y45*%
%MOMM*%
%TF.SameCoordinates,F9D1B48F-3E51-4A7C-A873-13CCE31A6061*%
%TF.FilePolarity,Positive*%
%TF.FileFunction,Other,Assembly_Notes*%
%TF.Part,Single*%
G01*
G75*
%TA.AperFunction,NonConductor*%
%ADD20C,0.20000*%
%ADD27C,0.10000*%
%ADD28C,0.25400*%
D20*
X73322Y53322D02*
X40000Y86645D01*
Y119968D01*
X73322Y153290D01*
X123306Y136629D02*
X139968Y153290D01*
X173290D01*
X189951Y136629D01*
Y69984D01*
X173290Y53322D01*
X139968D01*
X123306Y69984D01*
Y136629D01*
X239936Y36661D02*
X256597Y53322D01*
Y69984D01*
X239936D01*
Y53322D01*
X256597D01*
X239936Y36661D01*
X223274Y20000D01*
X323242Y136629D02*
X339903Y153290D01*
X373226D01*
X389887Y136629D01*
Y69984D01*
X373226Y53322D01*
X339903D01*
X323242Y69984D01*
Y136629D01*
X423210Y53322D02*
X456532Y86645D01*
Y119968D01*
X423210Y153290D01*
D27*
X1218360Y2500000D02*
G03*
X1218360Y2500000I-22361J0D01*
G01*
X322361D02*
G03*
X322361Y2500000I-22361J0D01*
G01*
X1030998Y2764079D02*
X1085999D01*
X1325999D01*
X1026920D02*
X1030998D01*
X1145999Y2500000D02*
X1245999D01*
X1195999Y2450000D02*
Y2550000D01*
X1325999Y1710000D02*
Y2764079D01*
X640999Y715000D02*
Y2764079D01*
Y715000D02*
X1325999D01*
X640999Y2764079D02*
X1026920D01*
X1325999Y715000D02*
Y1710000D01*
X250000Y2500000D02*
X350000D01*
X300000Y2450000D02*
Y2550000D01*
X-3000Y2610000D02*
X592000D01*
X-3000Y870000D02*
X592000D01*
X590000Y2455000D02*
Y2555000D01*
X-3000Y870000D02*
Y2610000D01*
D28*
X0Y-76200D02*
Y76200D01*
X-76200Y0D02*
X76200D01*
%TF.MD5,8ca7f3e1f6fe5c650cd7119e06c902f7*%
M02*
