%TF.GenerationSoftware,Altium Limited,Altium Designer,25.5.2 (35)*%
G04 Layer_Color=8388736*
%FSLAX45Y45*%
%MOMM*%
%TF.SameCoordinates,F9D1B48F-3E51-4A7C-A873-13CCE31A6061*%
%TF.FilePolarity,Negative*%
%TF.FileFunction,Soldermask,Top*%
%TF.Part,Single*%
G01*
G75*
%TA.AperFunction,SMDPad,CuDef*%
G04:AMPARAMS|DCode=23|XSize=3.28mm|YSize=0.58mm|CornerRadius=0.165mm|HoleSize=0mm|Usage=FLASHONLY|Rotation=0.000|XOffset=0mm|YOffset=0mm|HoleType=Round|Shape=RoundedRectangle|*
%AMROUNDEDRECTD23*
21,1,3.28000,0.25000,0,0,0.0*
21,1,2.95000,0.58000,0,0,0.0*
1,1,0.33000,1.47500,-0.12500*
1,1,0.33000,-1.47500,-0.12500*
1,1,0.33000,-1.47500,0.12500*
1,1,0.33000,1.47500,0.12500*
%
%ADD23ROUNDEDRECTD23*%
%TA.AperFunction,ComponentPad*%
G04:AMPARAMS|DCode=24|XSize=1.85mm|YSize=2.25mm|CornerRadius=0.5mm|HoleSize=0mm|Usage=FLASHONLY|Rotation=270.000|XOffset=0mm|YOffset=0mm|HoleType=Round|Shape=RoundedRectangle|*
%AMROUNDEDRECTD24*
21,1,1.85000,1.25001,0,0,270.0*
21,1,0.85000,2.25000,0,0,270.0*
1,1,1.00000,-0.62500,-0.42500*
1,1,1.00000,-0.62500,0.42500*
1,1,1.00000,0.62500,0.42500*
1,1,1.00000,0.62500,-0.42500*
%
%ADD24ROUNDEDRECTD24*%
G04:AMPARAMS|DCode=25|XSize=1.85mm|YSize=2.25mm|CornerRadius=0mm|HoleSize=0mm|Usage=FLASHONLY|Rotation=270.000|XOffset=0mm|YOffset=0mm|HoleType=Round|Shape=Octagon|*
%AMOCTAGOND25*
4,1,8,1.12500,0.46250,1.12500,-0.46250,0.66250,-0.92500,-0.66250,-0.92500,-1.12500,-0.46250,-1.12500,0.46250,-0.66250,0.92500,0.66250,0.92500,1.12500,0.46250,0.0*
%
%ADD25OCTAGOND25*%

G04:AMPARAMS|DCode=26|XSize=1.7mm|YSize=1.75mm|CornerRadius=0.4625mm|HoleSize=0mm|Usage=FLASHONLY|Rotation=270.000|XOffset=0mm|YOffset=0mm|HoleType=Round|Shape=RoundedRectangle|*
%AMROUNDEDRECTD26*
21,1,1.70000,0.82500,0,0,270.0*
21,1,0.77500,1.75000,0,0,270.0*
1,1,0.92500,-0.41250,-0.38750*
1,1,0.92500,-0.41250,0.38750*
1,1,0.92500,0.41250,0.38750*
1,1,0.92500,0.41250,-0.38750*
%
%ADD26ROUNDEDRECTD26*%
D23*
X300000Y1140000D02*
D03*
Y1060000D02*
D03*
Y1220000D02*
D03*
Y980000D02*
D03*
Y1380000D02*
D03*
Y1300000D02*
D03*
Y1620000D02*
D03*
Y1460000D02*
D03*
Y1860000D02*
D03*
Y1540000D02*
D03*
Y1780000D02*
D03*
Y1700000D02*
D03*
Y2020000D02*
D03*
Y2260000D02*
D03*
Y2340000D02*
D03*
Y2420000D02*
D03*
Y1940000D02*
D03*
Y2500000D02*
D03*
Y2100000D02*
D03*
Y2180000D02*
D03*
D24*
X2174000Y232000D02*
D03*
X2200000Y486000D02*
D03*
X2174000Y740000D02*
D03*
X2200000Y994000D02*
D03*
X2174000Y1248000D02*
D03*
X2200000Y1502000D02*
D03*
X2174000Y1756000D02*
D03*
X2200000Y2010000D02*
D03*
X2174000Y2264000D02*
D03*
X2200000Y2518000D02*
D03*
X2174000Y2772000D02*
D03*
X2200000Y3026000D02*
D03*
X2174000Y3280000D02*
D03*
X1880000Y232000D02*
D03*
X1906000Y486000D02*
D03*
X1880000Y740000D02*
D03*
X1906000Y994000D02*
D03*
X1880000Y1248000D02*
D03*
X1906000Y1502000D02*
D03*
X1880000Y1756000D02*
D03*
X1906000Y2010000D02*
D03*
X1880000Y2264000D02*
D03*
X1906000Y2518000D02*
D03*
X1880000Y2772000D02*
D03*
X1906000Y3026000D02*
D03*
D25*
X1880000Y3280000D02*
D03*
D26*
X982999Y830000D02*
D03*
X1132999Y2650000D02*
D03*
%TF.MD5,0ba75fb21a314b9a847016f1fe4efc6d*%
M02*
